<?xml version="1.0" encoding="UTF-8" standalone="no"?>
<!DOCTYPE svg PUBLIC "-//W3C//DTD SVG 1.1//EN"
 "http://www.w3.org/Graphics/SVG/1.1/DTD/svg11.dtd">
<!-- Generated by graphviz version 2.43.0 (0)
 -->
<!-- Title: pocketmine\world\ChunkListener Pages: 1 -->
<svg width="314pt" height="783pt"
 viewBox="0.00 0.00 313.50 783.00" xmlns="http://www.w3.org/2000/svg" xmlns:xlink="http://www.w3.org/1999/xlink">
<g id="graph0" class="graph" transform="scale(1 1) rotate(0) translate(4 779)">
<title>pocketmine\world\ChunkListener</title>
<!-- Node1 -->
<g id="Node000001" class="node">
<title>Node1</title>
<g id="a_Node000001"><a xlink:title=" ">
<polygon fill="#999999" stroke="transparent" points="234,-775 64,-775 64,-666 234,-666 234,-775"/>
<text text-anchor="start" x="69" y="-762.5" font-family="Helvetica,sans-Serif" font-size="10.00">pocketmine\world\ChunkListener</text>
<text text-anchor="start" x="147" y="-747.5" font-family="Helvetica,sans-Serif" font-size="10.00"> </text>
<text text-anchor="start" x="80" y="-732.5" font-family="Helvetica,sans-Serif" font-size="10.00">+</text>
<text text-anchor="start" x="105" y="-732.5" font-family="Helvetica,sans-Serif" font-size="10.00">onBlockChanged()</text>
<text text-anchor="start" x="80" y="-717.5" font-family="Helvetica,sans-Serif" font-size="10.00">+</text>
<text text-anchor="start" x="105" y="-717.5" font-family="Helvetica,sans-Serif" font-size="10.00">onChunkChanged()</text>
<text text-anchor="start" x="80" y="-702.5" font-family="Helvetica,sans-Serif" font-size="10.00">+</text>
<text text-anchor="start" x="105" y="-702.5" font-family="Helvetica,sans-Serif" font-size="10.00">onChunkLoaded()</text>
<text text-anchor="start" x="80" y="-687.5" font-family="Helvetica,sans-Serif" font-size="10.00">+</text>
<text text-anchor="start" x="105" y="-687.5" font-family="Helvetica,sans-Serif" font-size="10.00">onChunkPopulated()</text>
<text text-anchor="start" x="80" y="-672.5" font-family="Helvetica,sans-Serif" font-size="10.00">+</text>
<text text-anchor="start" x="105" y="-672.5" font-family="Helvetica,sans-Serif" font-size="10.00">onChunkUnloaded()</text>
<polygon fill="#666666" stroke="#666666" points="64,-757.5 64,-757.5 234,-757.5 234,-757.5 64,-757.5"/>
<polygon fill="#666666" stroke="#666666" points="64,-742.5 64,-742.5 234,-742.5 234,-742.5 64,-742.5"/>
<polygon fill="none" stroke="#666666" points="64,-666 64,-775 234,-775 234,-666 64,-666"/>
</a>
</g>
</g>
<!-- Node2 -->
<g id="Node000002" class="node">
<title>Node2</title>
<g id="a_Node000002"><a xlink:href="../../d0/deb/classpocketmine_1_1network_1_1mcpe_1_1cache_1_1_chunk_cache.html" target="_top" xlink:title=" ">
<polygon fill="white" stroke="transparent" points="136,-397.5 0,-397.5 0,-232.5 136,-232.5 136,-397.5"/>
<text text-anchor="start" x="5" y="-385" font-family="Helvetica,sans-Serif" font-size="10.00">pocketmine\network</text>
<text text-anchor="start" x="5" y="-374" font-family="Helvetica,sans-Serif" font-size="10.00">\mcpe\cache\ChunkCache</text>
<text text-anchor="start" x="66" y="-359" font-family="Helvetica,sans-Serif" font-size="10.00"> </text>
<text text-anchor="start" x="7" y="-344" font-family="Helvetica,sans-Serif" font-size="10.00">+</text>
<text text-anchor="start" x="23" y="-344" font-family="Helvetica,sans-Serif" font-size="10.00">calculateCacheSize()</text>
<text text-anchor="start" x="7" y="-329" font-family="Helvetica,sans-Serif" font-size="10.00">+</text>
<text text-anchor="start" x="23" y="-329" font-family="Helvetica,sans-Serif" font-size="10.00">getHitPercentage()</text>
<text text-anchor="start" x="7" y="-314" font-family="Helvetica,sans-Serif" font-size="10.00">+</text>
<text text-anchor="start" x="23" y="-314" font-family="Helvetica,sans-Serif" font-size="10.00">onBlockChanged()</text>
<text text-anchor="start" x="7" y="-299" font-family="Helvetica,sans-Serif" font-size="10.00">+</text>
<text text-anchor="start" x="23" y="-299" font-family="Helvetica,sans-Serif" font-size="10.00">onChunkChanged()</text>
<text text-anchor="start" x="7" y="-284" font-family="Helvetica,sans-Serif" font-size="10.00">+</text>
<text text-anchor="start" x="23" y="-284" font-family="Helvetica,sans-Serif" font-size="10.00">onChunkUnloaded()</text>
<text text-anchor="start" x="7" y="-269" font-family="Helvetica,sans-Serif" font-size="10.00">+</text>
<text text-anchor="start" x="23" y="-269" font-family="Helvetica,sans-Serif" font-size="10.00">request()</text>
<text text-anchor="start" x="7" y="-254" font-family="Helvetica,sans-Serif" font-size="10.00">+</text>
<text text-anchor="start" x="23" y="-254" font-family="Helvetica,sans-Serif" font-size="10.00">getInstance()</text>
<text text-anchor="start" x="7" y="-239" font-family="Helvetica,sans-Serif" font-size="10.00">+</text>
<text text-anchor="start" x="23" y="-239" font-family="Helvetica,sans-Serif" font-size="10.00">pruneCaches()</text>
<polygon fill="#666666" stroke="#666666" points="0,-369 0,-369 136,-369 136,-369 0,-369"/>
<polygon fill="#666666" stroke="#666666" points="0,-354 0,-354 136,-354 136,-354 0,-354"/>
<polygon fill="none" stroke="#666666" points="0,-232.5 0,-397.5 136,-397.5 136,-232.5 0,-232.5"/>
</a>
</g>
</g>
<!-- Node1&#45;&gt;Node2 -->
<g id="edge1_Node000001_Node000002" class="edge">
<title>Node1&#45;&gt;Node2</title>
<g id="a_edge1_Node000001_Node000002"><a xlink:title=" ">
<path fill="none" stroke="#63b8ff" d="M136.24,-655.95C122.24,-586.2 99.72,-474.03 84.42,-397.78"/>
<polygon fill="none" stroke="#63b8ff" points="132.84,-656.8 138.24,-665.92 139.71,-655.43 132.84,-656.8"/>
</a>
</g>
</g>
<!-- Node3 -->
<g id="Node000003" class="node">
<title>Node3</title>
<g id="a_Node000003"><a xlink:href="../../d0/d6f/classpocketmine_1_1player_1_1_player.html" target="_top" xlink:title=" ">
<polygon fill="white" stroke="transparent" points="305.5,-630 154.5,-630 154.5,0 305.5,0 305.5,-630"/>
<text text-anchor="start" x="168" y="-618" font-family="Helvetica,sans-Serif" font-size="10.00">pocketmine\player\Player</text>
<text text-anchor="start" x="159" y="-603" font-family="Helvetica,sans-Serif" font-size="10.00">+</text>
<text text-anchor="start" x="172" y="-603" font-family="Helvetica,sans-Serif" font-size="10.00">$spawned</text>
<text text-anchor="start" x="159" y="-588" font-family="Helvetica,sans-Serif" font-size="10.00">+</text>
<text text-anchor="start" x="172" y="-588" font-family="Helvetica,sans-Serif" font-size="10.00">DEFAULT_FLIGHT_SPEED</text>
<text text-anchor="start" x="172" y="-577" font-family="Helvetica,sans-Serif" font-size="10.00">_MULTIPLIER</text>
<text text-anchor="start" x="159" y="-562" font-family="Helvetica,sans-Serif" font-size="10.00">+</text>
<text text-anchor="start" x="172" y="-562" font-family="Helvetica,sans-Serif" font-size="10.00">TAG_FIRST_PLAYED</text>
<text text-anchor="start" x="159" y="-547" font-family="Helvetica,sans-Serif" font-size="10.00">+</text>
<text text-anchor="start" x="172" y="-547" font-family="Helvetica,sans-Serif" font-size="10.00">TAG_LAST_KNOWN_XUID</text>
<text text-anchor="start" x="159" y="-532" font-family="Helvetica,sans-Serif" font-size="10.00">+</text>
<text text-anchor="start" x="172" y="-532" font-family="Helvetica,sans-Serif" font-size="10.00">TAG_LAST_PLAYED</text>
<text text-anchor="start" x="159" y="-517" font-family="Helvetica,sans-Serif" font-size="10.00">+</text>
<text text-anchor="start" x="172" y="-517" font-family="Helvetica,sans-Serif" font-size="10.00">TAG_LEVEL</text>
<text text-anchor="start" x="159" y="-502" font-family="Helvetica,sans-Serif" font-size="10.00">#</text>
<text text-anchor="start" x="172" y="-502" font-family="Helvetica,sans-Serif" font-size="10.00">$allowFlight</text>
<text text-anchor="start" x="159" y="-487" font-family="Helvetica,sans-Serif" font-size="10.00">#</text>
<text text-anchor="start" x="172" y="-487" font-family="Helvetica,sans-Serif" font-size="10.00">$authenticated</text>
<text text-anchor="start" x="159" y="-472" font-family="Helvetica,sans-Serif" font-size="10.00">#</text>
<text text-anchor="start" x="172" y="-472" font-family="Helvetica,sans-Serif" font-size="10.00">$autoJump</text>
<text text-anchor="start" x="159" y="-457" font-family="Helvetica,sans-Serif" font-size="10.00">#</text>
<text text-anchor="start" x="172" y="-457" font-family="Helvetica,sans-Serif" font-size="10.00">$blockBreakHandler</text>
<text text-anchor="start" x="159" y="-442" font-family="Helvetica,sans-Serif" font-size="10.00">#</text>
<text text-anchor="start" x="172" y="-442" font-family="Helvetica,sans-Serif" font-size="10.00">$blockCollision</text>
<text text-anchor="start" x="159" y="-427" font-family="Helvetica,sans-Serif" font-size="10.00">#</text>
<text text-anchor="start" x="172" y="-427" font-family="Helvetica,sans-Serif" font-size="10.00">$chunkLoader</text>
<text text-anchor="start" x="159" y="-412" font-family="Helvetica,sans-Serif" font-size="10.00">#</text>
<text text-anchor="start" x="172" y="-412" font-family="Helvetica,sans-Serif" font-size="10.00">$chunkSelector</text>
<text text-anchor="start" x="159" y="-397" font-family="Helvetica,sans-Serif" font-size="10.00">#</text>
<text text-anchor="start" x="172" y="-397" font-family="Helvetica,sans-Serif" font-size="10.00">$chunksPerTick</text>
<text text-anchor="start" x="159" y="-382" font-family="Helvetica,sans-Serif" font-size="10.00">#</text>
<text text-anchor="start" x="172" y="-382" font-family="Helvetica,sans-Serif" font-size="10.00">$chunkTicker</text>
<text text-anchor="start" x="159" y="-367" font-family="Helvetica,sans-Serif" font-size="10.00">#</text>
<text text-anchor="start" x="172" y="-367" font-family="Helvetica,sans-Serif" font-size="10.00">$craftingGrid</text>
<text text-anchor="start" x="172" y="-352" font-family="Helvetica,sans-Serif" font-size="10.00">and 34 more...</text>
<text text-anchor="start" x="159" y="-337" font-family="Helvetica,sans-Serif" font-size="10.00">+</text>
<text text-anchor="start" x="172" y="-337" font-family="Helvetica,sans-Serif" font-size="10.00">__construct()</text>
<text text-anchor="start" x="159" y="-322" font-family="Helvetica,sans-Serif" font-size="10.00">+</text>
<text text-anchor="start" x="172" y="-322" font-family="Helvetica,sans-Serif" font-size="10.00">__destruct()</text>
<text text-anchor="start" x="159" y="-307" font-family="Helvetica,sans-Serif" font-size="10.00">+</text>
<text text-anchor="start" x="172" y="-307" font-family="Helvetica,sans-Serif" font-size="10.00">__debugInfo()</text>
<text text-anchor="start" x="159" y="-292" font-family="Helvetica,sans-Serif" font-size="10.00">+</text>
<text text-anchor="start" x="172" y="-292" font-family="Helvetica,sans-Serif" font-size="10.00">attack()</text>
<text text-anchor="start" x="159" y="-277" font-family="Helvetica,sans-Serif" font-size="10.00">+</text>
<text text-anchor="start" x="172" y="-277" font-family="Helvetica,sans-Serif" font-size="10.00">attackBlock()</text>
<text text-anchor="start" x="159" y="-262" font-family="Helvetica,sans-Serif" font-size="10.00">+</text>
<text text-anchor="start" x="172" y="-262" font-family="Helvetica,sans-Serif" font-size="10.00">attackEntity()</text>
<text text-anchor="start" x="159" y="-247" font-family="Helvetica,sans-Serif" font-size="10.00">+</text>
<text text-anchor="start" x="172" y="-247" font-family="Helvetica,sans-Serif" font-size="10.00">breakBlock()</text>
<text text-anchor="start" x="159" y="-232" font-family="Helvetica,sans-Serif" font-size="10.00">+</text>
<text text-anchor="start" x="172" y="-232" font-family="Helvetica,sans-Serif" font-size="10.00">broadcastAnimation()</text>
<text text-anchor="start" x="159" y="-217" font-family="Helvetica,sans-Serif" font-size="10.00">+</text>
<text text-anchor="start" x="172" y="-217" font-family="Helvetica,sans-Serif" font-size="10.00">broadcastSound()</text>
<text text-anchor="start" x="159" y="-202" font-family="Helvetica,sans-Serif" font-size="10.00">+</text>
<text text-anchor="start" x="172" y="-202" font-family="Helvetica,sans-Serif" font-size="10.00">canBeCollidedWith()</text>
<text text-anchor="start" x="172" y="-187" font-family="Helvetica,sans-Serif" font-size="10.00">and 134 more...</text>
<text text-anchor="start" x="159" y="-172" font-family="Helvetica,sans-Serif" font-size="10.00">+</text>
<text text-anchor="start" x="172" y="-172" font-family="Helvetica,sans-Serif" font-size="10.00">isValidUserName()</text>
<text text-anchor="start" x="159" y="-157" font-family="Helvetica,sans-Serif" font-size="10.00">#</text>
<text text-anchor="start" x="172" y="-157" font-family="Helvetica,sans-Serif" font-size="10.00">actuallyRespawn()</text>
<text text-anchor="start" x="159" y="-142" font-family="Helvetica,sans-Serif" font-size="10.00">#</text>
<text text-anchor="start" x="172" y="-142" font-family="Helvetica,sans-Serif" font-size="10.00">addDefaultWindows()</text>
<text text-anchor="start" x="159" y="-127" font-family="Helvetica,sans-Serif" font-size="10.00">#</text>
<text text-anchor="start" x="172" y="-127" font-family="Helvetica,sans-Serif" font-size="10.00">addPermanentWindows()</text>
<text text-anchor="start" x="159" y="-112" font-family="Helvetica,sans-Serif" font-size="10.00">#</text>
<text text-anchor="start" x="172" y="-112" font-family="Helvetica,sans-Serif" font-size="10.00">applyPostDamageEffects()</text>
<text text-anchor="start" x="159" y="-97" font-family="Helvetica,sans-Serif" font-size="10.00">#</text>
<text text-anchor="start" x="172" y="-97" font-family="Helvetica,sans-Serif" font-size="10.00">calculateFallDamage()</text>
<text text-anchor="start" x="159" y="-82" font-family="Helvetica,sans-Serif" font-size="10.00">#</text>
<text text-anchor="start" x="172" y="-82" font-family="Helvetica,sans-Serif" font-size="10.00">checkGroundState()</text>
<text text-anchor="start" x="159" y="-67" font-family="Helvetica,sans-Serif" font-size="10.00">#</text>
<text text-anchor="start" x="172" y="-67" font-family="Helvetica,sans-Serif" font-size="10.00">checkItemCooldowns()</text>
<text text-anchor="start" x="159" y="-52" font-family="Helvetica,sans-Serif" font-size="10.00">#</text>
<text text-anchor="start" x="172" y="-52" font-family="Helvetica,sans-Serif" font-size="10.00">checkNearEntities()</text>
<text text-anchor="start" x="159" y="-37" font-family="Helvetica,sans-Serif" font-size="10.00">#</text>
<text text-anchor="start" x="172" y="-37" font-family="Helvetica,sans-Serif" font-size="10.00">destroyCycles()</text>
<text text-anchor="start" x="159" y="-22" font-family="Helvetica,sans-Serif" font-size="10.00">#</text>
<text text-anchor="start" x="172" y="-22" font-family="Helvetica,sans-Serif" font-size="10.00">initEntity()</text>
<text text-anchor="start" x="172" y="-7" font-family="Helvetica,sans-Serif" font-size="10.00">and 18 more...</text>
<polygon fill="#666666" stroke="#666666" points="155,-613 155,-613 306,-613 306,-613 155,-613"/>
<polygon fill="#666666" stroke="#666666" points="155,-347 155,-347 170,-347 170,-347 155,-347"/>
<polygon fill="#666666" stroke="#666666" points="170,-347 170,-347 306,-347 306,-347 170,-347"/>
<polygon fill="none" stroke="#666666" points="154.5,0 154.5,-630 305.5,-630 305.5,0 154.5,0"/>
</a>
</g>
</g>
<!-- Node1&#45;&gt;Node3 -->
<g id="edge2_Node000001_Node000003" class="edge">
<title>Node1&#45;&gt;Node3</title>
<g id="a_edge2_Node000001_Node000003"><a xlink:title=" ">
<path fill="none" stroke="#63b8ff" d="M161.74,-656.05C163.35,-648.02 165.08,-639.42 166.89,-630.38"/>
<polygon fill="none" stroke="#63b8ff" points="158.29,-655.43 159.76,-665.92 165.16,-656.8 158.29,-655.43"/>
</a>
</g>
</g>
</g>
</svg>
