<?xml version="1.0" encoding="UTF-8" standalone="no"?>
<!DOCTYPE svg PUBLIC "-//W3C//DTD SVG 1.1//EN"
 "http://www.w3.org/Graphics/SVG/1.1/DTD/svg11.dtd">
<!-- Generated by graphviz version 2.43.0 (0)
 -->
<!-- Title: pocketmine\block\Hopper Pages: 1 -->
<svg width="659pt" height="1732pt"
 viewBox="0.00 0.00 659.30 1732.00" xmlns="http://www.w3.org/2000/svg" xmlns:xlink="http://www.w3.org/1999/xlink">
<g id="graph0" class="graph" transform="scale(1 1) rotate(0) translate(4 1728)">
<title>pocketmine\block\Hopper</title>
<polygon fill="white" stroke="transparent" points="-4,4 -4,-1728 655.3,-1728 655.3,4 -4,4"/>
<!-- Node1 -->
<g id="node1" class="node">
<title>Node1</title>
<g id="a_node1"><a xlink:title=" ">
<polygon fill="#bfbfbf" stroke="black" points="245.8,-0.5 245.8,-134.5 406.8,-134.5 406.8,-0.5 245.8,-0.5"/>
<text text-anchor="middle" x="326.3" y="-122.5" font-family="Helvetica,sans-Serif" font-size="10.00">pocketmine\block\Hopper</text>
<polyline fill="none" stroke="black" points="245.8,-115.5 406.8,-115.5 "/>
<text text-anchor="middle" x="326.3" y="-103.5" font-family="Helvetica,sans-Serif" font-size="10.00"> </text>
<polyline fill="none" stroke="black" points="245.8,-96.5 406.8,-96.5 "/>
<text text-anchor="start" x="253.8" y="-84.5" font-family="Helvetica,sans-Serif" font-size="10.00">+ getFacing()</text>
<text text-anchor="start" x="253.8" y="-73.5" font-family="Helvetica,sans-Serif" font-size="10.00">+ getSupportType()</text>
<text text-anchor="start" x="253.8" y="-62.5" font-family="Helvetica,sans-Serif" font-size="10.00">+ onInteract()</text>
<text text-anchor="start" x="253.8" y="-51.5" font-family="Helvetica,sans-Serif" font-size="10.00">+ onScheduledUpdate()</text>
<text text-anchor="start" x="253.8" y="-40.5" font-family="Helvetica,sans-Serif" font-size="10.00">+ place()</text>
<text text-anchor="start" x="253.8" y="-29.5" font-family="Helvetica,sans-Serif" font-size="10.00">+ setFacing()</text>
<text text-anchor="start" x="253.8" y="-18.5" font-family="Helvetica,sans-Serif" font-size="10.00"># describeState()</text>
<text text-anchor="start" x="253.8" y="-7.5" font-family="Helvetica,sans-Serif" font-size="10.00"># recalculateCollisionBoxes()</text>
</a>
</g>
</g>
<!-- Node2 -->
<g id="node2" class="node">
<title>Node2</title>
<g id="a_node2"><a xlink:href="../../d5/d1b/classpocketmine_1_1block_1_1_transparent.html" target="_top" xlink:title=" ">
<polygon fill="white" stroke="black" points="244.8,-172.5 244.8,-229.5 407.8,-229.5 407.8,-172.5 244.8,-172.5"/>
<text text-anchor="middle" x="326.3" y="-217.5" font-family="Helvetica,sans-Serif" font-size="10.00">pocketmine\block\Transparent</text>
<polyline fill="none" stroke="black" points="244.8,-210.5 407.8,-210.5 "/>
<text text-anchor="middle" x="326.3" y="-198.5" font-family="Helvetica,sans-Serif" font-size="10.00"> </text>
<polyline fill="none" stroke="black" points="244.8,-191.5 407.8,-191.5 "/>
<text text-anchor="start" x="252.8" y="-179.5" font-family="Helvetica,sans-Serif" font-size="10.00">+ isTransparent()</text>
</a>
</g>
</g>
<!-- Node2&#45;&gt;Node1 -->
<g id="edge1" class="edge">
<title>Node2&#45;&gt;Node1</title>
<path fill="none" stroke="midnightblue" d="M326.3,-162.33C326.3,-153.68 326.3,-144.23 326.3,-134.77"/>
<polygon fill="none" stroke="midnightblue" points="322.8,-162.43 326.3,-172.43 329.8,-162.43 322.8,-162.43"/>
</g>
<!-- Node3 -->
<g id="node3" class="node">
<title>Node3</title>
<g id="a_node3"><a xlink:href="../../d7/d27/classpocketmine_1_1block_1_1_block.html" target="_top" xlink:title=" ">
<polygon fill="white" stroke="#bfbfbf" points="245.8,-267.5 245.8,-478.5 406.8,-478.5 406.8,-267.5 245.8,-267.5"/>
<text text-anchor="middle" x="326.3" y="-466.5" font-family="Helvetica,sans-Serif" font-size="10.00">pocketmine\block\Block</text>
<polyline fill="none" stroke="#bfbfbf" points="245.8,-459.5 406.8,-459.5 "/>
<text text-anchor="start" x="253.8" y="-447.5" font-family="Helvetica,sans-Serif" font-size="10.00"># $collisionBoxes</text>
<text text-anchor="start" x="253.8" y="-436.5" font-family="Helvetica,sans-Serif" font-size="10.00"># $fallbackName</text>
<polyline fill="none" stroke="#bfbfbf" points="245.8,-429.5 406.8,-429.5 "/>
<text text-anchor="start" x="253.8" y="-417.5" font-family="Helvetica,sans-Serif" font-size="10.00">+ __construct()</text>
<text text-anchor="start" x="253.8" y="-406.5" font-family="Helvetica,sans-Serif" font-size="10.00">+ __clone()</text>
<text text-anchor="start" x="253.8" y="-395.5" font-family="Helvetica,sans-Serif" font-size="10.00">+ __toString()</text>
<text text-anchor="start" x="253.8" y="-384.5" font-family="Helvetica,sans-Serif" font-size="10.00">+ addVelocityToEntity()</text>
<text text-anchor="start" x="253.8" y="-373.5" font-family="Helvetica,sans-Serif" font-size="10.00">+ asItem()</text>
<text text-anchor="start" x="253.8" y="-362.5" font-family="Helvetica,sans-Serif" font-size="10.00">+ blocksDirectSkyLight()</text>
<text text-anchor="start" x="253.8" y="-351.5" font-family="Helvetica,sans-Serif" font-size="10.00">+ burnsForever()</text>
<text text-anchor="start" x="253.8" y="-340.5" font-family="Helvetica,sans-Serif" font-size="10.00">+ calculateIntercept()</text>
<text text-anchor="start" x="253.8" y="-329.5" font-family="Helvetica,sans-Serif" font-size="10.00">+ canBeFlowedInto()</text>
<text text-anchor="start" x="253.8" y="-318.5" font-family="Helvetica,sans-Serif" font-size="10.00">+ canBePlaced()</text>
<text text-anchor="start" x="253.8" y="-307.5" font-family="Helvetica,sans-Serif" font-size="10.00">and 59 more...</text>
<text text-anchor="start" x="253.8" y="-296.5" font-family="Helvetica,sans-Serif" font-size="10.00"># describeState()</text>
<text text-anchor="start" x="253.8" y="-285.5" font-family="Helvetica,sans-Serif" font-size="10.00"># getXpDropAmount()</text>
<text text-anchor="start" x="253.8" y="-274.5" font-family="Helvetica,sans-Serif" font-size="10.00"># recalculateCollisionBoxes()</text>
</a>
</g>
</g>
<!-- Node3&#45;&gt;Node2 -->
<g id="edge2" class="edge">
<title>Node3&#45;&gt;Node2</title>
<path fill="none" stroke="midnightblue" d="M326.3,-257.05C326.3,-247.05 326.3,-237.68 326.3,-229.61"/>
<polygon fill="none" stroke="midnightblue" points="322.8,-257.24 326.3,-267.24 329.8,-257.24 322.8,-257.24"/>
</g>
<!-- Node4 -->
<g id="node4" class="node">
<title>Node4</title>
<g id="a_node4"><a xlink:title=" ">
<polygon fill="white" stroke="#bfbfbf" points="3.8,-1253.5 3.8,-1310.5 46.8,-1310.5 46.8,-1253.5 3.8,-1253.5"/>
<text text-anchor="middle" x="25.3" y="-1298.5" font-family="Helvetica,sans-Serif" font-size="10.00">const</text>
<polyline fill="none" stroke="#bfbfbf" points="3.8,-1291.5 46.8,-1291.5 "/>
<text text-anchor="middle" x="25.3" y="-1279.5" font-family="Helvetica,sans-Serif" font-size="10.00"> </text>
<polyline fill="none" stroke="#bfbfbf" points="3.8,-1272.5 46.8,-1272.5 "/>
<text text-anchor="middle" x="25.3" y="-1260.5" font-family="Helvetica,sans-Serif" font-size="10.00"> </text>
</a>
</g>
</g>
<!-- Node4&#45;&gt;Node3 -->
<g id="edge3" class="edge">
<title>Node4&#45;&gt;Node3</title>
<path fill="none" stroke="#404040" d="M21,-1253.4C8.48,-1166.93 -23.68,-894.19 31.3,-679 50.25,-604.85 60.01,-583.68 110.3,-526 145.52,-485.61 193.6,-450.42 235.45,-424.1"/>
<polygon fill="none" stroke="#404040" points="235.47,-424.09 238.46,-417.53 245.67,-417.77 242.68,-424.33 235.47,-424.09"/>
<text text-anchor="start" x="31.3" y="-704" font-family="Helvetica,sans-Serif" font-size="10.00"> +INTERNAL_STATE_DATA</text>
<text text-anchor="middle" x="109.8" y="-693" font-family="Helvetica,sans-Serif" font-size="10.00">_BITS</text>
<text text-anchor="middle" x="109.8" y="-682" font-family="Helvetica,sans-Serif" font-size="10.00">+INTERNAL_STATE_DATA_MASK</text>
</g>
<!-- Node9 -->
<g id="node9" class="node">
<title>Node9</title>
<g id="a_node9"><a xlink:href="../../d4/d2b/classpocketmine_1_1world_1_1_world.html" target="_top" xlink:title=" ">
<polygon fill="white" stroke="black" points="106.3,-730.5 106.3,-1040.5 278.3,-1040.5 278.3,-730.5 106.3,-730.5"/>
<text text-anchor="middle" x="192.3" y="-1028.5" font-family="Helvetica,sans-Serif" font-size="10.00">pocketmine\world\World</text>
<polyline fill="none" stroke="black" points="106.3,-1021.5 278.3,-1021.5 "/>
<text text-anchor="start" x="114.3" y="-1009.5" font-family="Helvetica,sans-Serif" font-size="10.00">+ $stopTime</text>
<text text-anchor="start" x="114.3" y="-998.5" font-family="Helvetica,sans-Serif" font-size="10.00">+ $tickRateTime</text>
<text text-anchor="start" x="114.3" y="-987.5" font-family="Helvetica,sans-Serif" font-size="10.00">+ $updateEntities</text>
<text text-anchor="start" x="114.3" y="-976.5" font-family="Helvetica,sans-Serif" font-size="10.00">+ TIME_SUNRISE</text>
<text text-anchor="start" x="114.3" y="-965.5" font-family="Helvetica,sans-Serif" font-size="10.00">+ TIME_SUNSET</text>
<text text-anchor="start" x="114.3" y="-954.5" font-family="Helvetica,sans-Serif" font-size="10.00">+ Y_MAX</text>
<text text-anchor="start" x="114.3" y="-943.5" font-family="Helvetica,sans-Serif" font-size="10.00">+ Y_MIN</text>
<polyline fill="none" stroke="black" points="106.3,-936.5 278.3,-936.5 "/>
<text text-anchor="start" x="114.3" y="-924.5" font-family="Helvetica,sans-Serif" font-size="10.00">+ __construct()</text>
<text text-anchor="start" x="114.3" y="-913.5" font-family="Helvetica,sans-Serif" font-size="10.00">+ __debugInfo()</text>
<text text-anchor="start" x="114.3" y="-902.5" font-family="Helvetica,sans-Serif" font-size="10.00">+ addEntity()</text>
<text text-anchor="start" x="114.3" y="-891.5" font-family="Helvetica,sans-Serif" font-size="10.00">+ addOnUnloadCallback()</text>
<text text-anchor="start" x="114.3" y="-880.5" font-family="Helvetica,sans-Serif" font-size="10.00">+ addParticle()</text>
<text text-anchor="start" x="114.3" y="-869.5" font-family="Helvetica,sans-Serif" font-size="10.00">+ addRandomTickedBlock()</text>
<text text-anchor="start" x="114.3" y="-858.5" font-family="Helvetica,sans-Serif" font-size="10.00">+ addSound()</text>
<text text-anchor="start" x="114.3" y="-847.5" font-family="Helvetica,sans-Serif" font-size="10.00">+ addTile()</text>
<text text-anchor="start" x="114.3" y="-836.5" font-family="Helvetica,sans-Serif" font-size="10.00">+ broadcastPacketToViewers()</text>
<text text-anchor="start" x="114.3" y="-825.5" font-family="Helvetica,sans-Serif" font-size="10.00">+ cancelUnloadChunkRequest()</text>
<text text-anchor="start" x="114.3" y="-814.5" font-family="Helvetica,sans-Serif" font-size="10.00">and 119 more...</text>
<text text-anchor="start" x="114.3" y="-803.5" font-family="Helvetica,sans-Serif" font-size="10.00">+ blockHash()</text>
<text text-anchor="start" x="114.3" y="-792.5" font-family="Helvetica,sans-Serif" font-size="10.00">+ chunkBlockHash()</text>
<text text-anchor="start" x="114.3" y="-781.5" font-family="Helvetica,sans-Serif" font-size="10.00">+ chunkHash()</text>
<text text-anchor="start" x="114.3" y="-770.5" font-family="Helvetica,sans-Serif" font-size="10.00">+ getBlockXYZ()</text>
<text text-anchor="start" x="114.3" y="-759.5" font-family="Helvetica,sans-Serif" font-size="10.00">+ getDifficultyFromString()</text>
<text text-anchor="start" x="114.3" y="-748.5" font-family="Helvetica,sans-Serif" font-size="10.00">+ getXZ()</text>
<text text-anchor="start" x="114.3" y="-737.5" font-family="Helvetica,sans-Serif" font-size="10.00"># actuallyDoTick()</text>
</a>
</g>
</g>
<!-- Node4&#45;&gt;Node9 -->
<g id="edge10" class="edge">
<title>Node4&#45;&gt;Node9</title>
<path fill="none" stroke="#404040" d="M23.51,-1253.44C21.74,-1210.19 22.56,-1124.54 50.3,-1059 62.05,-1031.25 79.74,-1004.46 98.69,-980.59"/>
<polygon fill="none" stroke="#404040" points="98.72,-980.56 99.41,-973.38 106.3,-971.25 105.61,-978.43 98.72,-980.56"/>
<text text-anchor="start" x="50.3" y="-1183" font-family="Helvetica,sans-Serif" font-size="10.00"> +DEFAULT_TICKED_BLOCKS</text>
<text text-anchor="middle" x="120.3" y="-1172" font-family="Helvetica,sans-Serif" font-size="10.00">_PER_SUBCHUNK_PER_TICK</text>
<text text-anchor="middle" x="120.3" y="-1161" font-family="Helvetica,sans-Serif" font-size="10.00">+DIFFICULTY_EASY</text>
<text text-anchor="middle" x="120.3" y="-1150" font-family="Helvetica,sans-Serif" font-size="10.00">+DIFFICULTY_HARD</text>
<text text-anchor="middle" x="120.3" y="-1139" font-family="Helvetica,sans-Serif" font-size="10.00">+DIFFICULTY_NORMAL</text>
<text text-anchor="middle" x="120.3" y="-1128" font-family="Helvetica,sans-Serif" font-size="10.00">+DIFFICULTY_PEACEFUL</text>
<text text-anchor="middle" x="120.3" y="-1117" font-family="Helvetica,sans-Serif" font-size="10.00">+TIME_DAY</text>
<text text-anchor="middle" x="120.3" y="-1106" font-family="Helvetica,sans-Serif" font-size="10.00">+TIME_FULL</text>
<text text-anchor="middle" x="120.3" y="-1095" font-family="Helvetica,sans-Serif" font-size="10.00">+TIME_MIDNIGHT</text>
<text text-anchor="middle" x="120.3" y="-1084" font-family="Helvetica,sans-Serif" font-size="10.00">+TIME_NIGHT</text>
<text text-anchor="middle" x="120.3" y="-1073" font-family="Helvetica,sans-Serif" font-size="10.00">+TIME_NOON</text>
<text text-anchor="middle" x="120.3" y="-1062" font-family="Helvetica,sans-Serif" font-size="10.00">...</text>
</g>
<!-- Node5 -->
<g id="node5" class="node">
<title>Node5</title>
<g id="a_node5"><a xlink:href="../../dd/d18/classpocketmine_1_1block_1_1_block_identifier.html" target="_top" xlink:title=" ">
<polygon fill="white" stroke="#bfbfbf" points="283.3,-554 283.3,-633 459.3,-633 459.3,-554 283.3,-554"/>
<text text-anchor="middle" x="371.3" y="-621" font-family="Helvetica,sans-Serif" font-size="10.00">pocketmine\block\BlockIdentifier</text>
<polyline fill="none" stroke="#bfbfbf" points="283.3,-614 459.3,-614 "/>
<text text-anchor="middle" x="371.3" y="-602" font-family="Helvetica,sans-Serif" font-size="10.00"> </text>
<polyline fill="none" stroke="#bfbfbf" points="283.3,-595 459.3,-595 "/>
<text text-anchor="start" x="291.3" y="-583" font-family="Helvetica,sans-Serif" font-size="10.00">+ __construct()</text>
<text text-anchor="start" x="291.3" y="-572" font-family="Helvetica,sans-Serif" font-size="10.00">+ getBlockTypeId()</text>
<text text-anchor="start" x="291.3" y="-561" font-family="Helvetica,sans-Serif" font-size="10.00">+ getTileClass()</text>
</a>
</g>
</g>
<!-- Node5&#45;&gt;Node3 -->
<g id="edge4" class="edge">
<title>Node5&#45;&gt;Node3</title>
<path fill="none" stroke="#404040" d="M363.36,-553.94C359.67,-536 355.05,-513.59 350.35,-490.75"/>
<polygon fill="none" stroke="#404040" points="350.3,-490.54 345.18,-485.47 347.88,-478.79 353.01,-483.85 350.3,-490.54"/>
<text text-anchor="middle" x="376.3" y="-500" font-family="Helvetica,sans-Serif" font-size="10.00"> #$idInfo</text>
</g>
<!-- Node6 -->
<g id="node6" class="node">
<title>Node6</title>
<g id="a_node6"><a xlink:href="../../de/d9a/classpocketmine_1_1block_1_1_block_type_info.html" target="_top" xlink:title=" ">
<polygon fill="white" stroke="#bfbfbf" points="477.3,-548.5 477.3,-638.5 651.3,-638.5 651.3,-548.5 477.3,-548.5"/>
<text text-anchor="middle" x="564.3" y="-626.5" font-family="Helvetica,sans-Serif" font-size="10.00">pocketmine\block\BlockTypeInfo</text>
<polyline fill="none" stroke="#bfbfbf" points="477.3,-619.5 651.3,-619.5 "/>
<text text-anchor="middle" x="564.3" y="-607.5" font-family="Helvetica,sans-Serif" font-size="10.00"> </text>
<polyline fill="none" stroke="#bfbfbf" points="477.3,-600.5 651.3,-600.5 "/>
<text text-anchor="start" x="485.3" y="-588.5" font-family="Helvetica,sans-Serif" font-size="10.00">+ __construct()</text>
<text text-anchor="start" x="485.3" y="-577.5" font-family="Helvetica,sans-Serif" font-size="10.00">+ getBreakInfo()</text>
<text text-anchor="start" x="485.3" y="-566.5" font-family="Helvetica,sans-Serif" font-size="10.00">+ getTypeTags()</text>
<text text-anchor="start" x="485.3" y="-555.5" font-family="Helvetica,sans-Serif" font-size="10.00">+ hasTypeTag()</text>
</a>
</g>
</g>
<!-- Node6&#45;&gt;Node3 -->
<g id="edge5" class="edge">
<title>Node6&#45;&gt;Node3</title>
<path fill="none" stroke="#404040" d="M516.14,-548.28C487.46,-521.96 450.15,-487.7 416.21,-456.54"/>
<polygon fill="none" stroke="#404040" points="416.04,-456.38 408.92,-455.27 407.2,-448.27 414.33,-449.38 416.04,-456.38"/>
<text text-anchor="middle" x="496.3" y="-500" font-family="Helvetica,sans-Serif" font-size="10.00"> #$typeInfo</text>
</g>
<!-- Node7 -->
<g id="node7" class="node">
<title>Node7</title>
<g id="a_node7"><a xlink:href="../../d5/dd2/classpocketmine_1_1world_1_1_position.html" target="_top" xlink:title=" ">
<polygon fill="white" stroke="#bfbfbf" points="119.3,-526.5 119.3,-660.5 265.3,-660.5 265.3,-526.5 119.3,-526.5"/>
<text text-anchor="middle" x="192.3" y="-648.5" font-family="Helvetica,sans-Serif" font-size="10.00">pocketmine\world\Position</text>
<polyline fill="none" stroke="#bfbfbf" points="119.3,-641.5 265.3,-641.5 "/>
<text text-anchor="middle" x="192.3" y="-629.5" font-family="Helvetica,sans-Serif" font-size="10.00"> </text>
<polyline fill="none" stroke="#bfbfbf" points="119.3,-622.5 265.3,-622.5 "/>
<text text-anchor="start" x="127.3" y="-610.5" font-family="Helvetica,sans-Serif" font-size="10.00">+ __construct()</text>
<text text-anchor="start" x="127.3" y="-599.5" font-family="Helvetica,sans-Serif" font-size="10.00">+ __toString()</text>
<text text-anchor="start" x="127.3" y="-588.5" font-family="Helvetica,sans-Serif" font-size="10.00">+ asPosition()</text>
<text text-anchor="start" x="127.3" y="-577.5" font-family="Helvetica,sans-Serif" font-size="10.00">+ equals()</text>
<text text-anchor="start" x="127.3" y="-566.5" font-family="Helvetica,sans-Serif" font-size="10.00">+ getSide()</text>
<text text-anchor="start" x="127.3" y="-555.5" font-family="Helvetica,sans-Serif" font-size="10.00">+ getWorld()</text>
<text text-anchor="start" x="127.3" y="-544.5" font-family="Helvetica,sans-Serif" font-size="10.00">+ isValid()</text>
<text text-anchor="start" x="127.3" y="-533.5" font-family="Helvetica,sans-Serif" font-size="10.00">+ fromObject()</text>
</a>
</g>
</g>
<!-- Node7&#45;&gt;Node3 -->
<g id="edge6" class="edge">
<title>Node7&#45;&gt;Node3</title>
<path fill="none" stroke="#404040" d="M232.87,-526.35C240.16,-514.46 247.96,-501.75 255.81,-488.94"/>
<polygon fill="none" stroke="#404040" points="255.84,-488.89 255.57,-481.68 262.12,-478.66 262.39,-485.87 255.84,-488.89"/>
<text text-anchor="middle" x="275.8" y="-500" font-family="Helvetica,sans-Serif" font-size="10.00"> #$position</text>
</g>
<!-- Node8 -->
<g id="node8" class="node">
<title>Node8</title>
<g id="a_node8"><a xlink:href="../../d2/d90/classpocketmine_1_1math_1_1_vector3.html" target="_top" xlink:title=" ">
<polygon fill="white" stroke="#bfbfbf" points="296.3,-769 296.3,-1002 438.3,-1002 438.3,-769 296.3,-769"/>
<text text-anchor="middle" x="367.3" y="-990" font-family="Helvetica,sans-Serif" font-size="10.00">pocketmine\math\Vector3</text>
<polyline fill="none" stroke="#bfbfbf" points="296.3,-983 438.3,-983 "/>
<text text-anchor="start" x="304.3" y="-971" font-family="Helvetica,sans-Serif" font-size="10.00">+ $x</text>
<text text-anchor="start" x="304.3" y="-960" font-family="Helvetica,sans-Serif" font-size="10.00">+ $y</text>
<text text-anchor="start" x="304.3" y="-949" font-family="Helvetica,sans-Serif" font-size="10.00">+ $z</text>
<polyline fill="none" stroke="#bfbfbf" points="296.3,-942 438.3,-942 "/>
<text text-anchor="start" x="304.3" y="-930" font-family="Helvetica,sans-Serif" font-size="10.00">+ __construct()</text>
<text text-anchor="start" x="304.3" y="-919" font-family="Helvetica,sans-Serif" font-size="10.00">+ __toString()</text>
<text text-anchor="start" x="304.3" y="-908" font-family="Helvetica,sans-Serif" font-size="10.00">+ abs()</text>
<text text-anchor="start" x="304.3" y="-897" font-family="Helvetica,sans-Serif" font-size="10.00">+ add()</text>
<text text-anchor="start" x="304.3" y="-886" font-family="Helvetica,sans-Serif" font-size="10.00">+ addVector()</text>
<text text-anchor="start" x="304.3" y="-875" font-family="Helvetica,sans-Serif" font-size="10.00">+ asVector3()</text>
<text text-anchor="start" x="304.3" y="-864" font-family="Helvetica,sans-Serif" font-size="10.00">+ ceil()</text>
<text text-anchor="start" x="304.3" y="-853" font-family="Helvetica,sans-Serif" font-size="10.00">+ cross()</text>
<text text-anchor="start" x="304.3" y="-842" font-family="Helvetica,sans-Serif" font-size="10.00">+ distance()</text>
<text text-anchor="start" x="304.3" y="-831" font-family="Helvetica,sans-Serif" font-size="10.00">+ distanceSquared()</text>
<text text-anchor="start" x="304.3" y="-820" font-family="Helvetica,sans-Serif" font-size="10.00">and 32 more...</text>
<text text-anchor="start" x="304.3" y="-809" font-family="Helvetica,sans-Serif" font-size="10.00">+ maxComponents()</text>
<text text-anchor="start" x="304.3" y="-798" font-family="Helvetica,sans-Serif" font-size="10.00">+ minComponents()</text>
<text text-anchor="start" x="304.3" y="-787" font-family="Helvetica,sans-Serif" font-size="10.00">+ sum()</text>
<text text-anchor="start" x="304.3" y="-776" font-family="Helvetica,sans-Serif" font-size="10.00">+ zero()</text>
</a>
</g>
</g>
<!-- Node8&#45;&gt;Node7 -->
<g id="edge7" class="edge">
<title>Node8&#45;&gt;Node7</title>
<path fill="none" stroke="midnightblue" d="M304.6,-759.84C298.92,-749.65 293.11,-739.59 287.3,-730 273.24,-706.78 256.61,-682.24 241.23,-660.51"/>
<polygon fill="none" stroke="midnightblue" points="301.66,-761.76 309.56,-768.82 307.79,-758.37 301.66,-761.76"/>
</g>
<!-- Node9&#45;&gt;Node7 -->
<g id="edge8" class="edge">
<title>Node9&#45;&gt;Node7</title>
<path fill="none" stroke="#404040" d="M192.3,-730.16C192.3,-710.27 192.3,-690.61 192.3,-672.69"/>
<polygon fill="none" stroke="#404040" points="192.3,-672.59 188.3,-666.59 192.3,-660.59 196.3,-666.59 192.3,-672.59"/>
<text text-anchor="middle" x="214.8" y="-693" font-family="Helvetica,sans-Serif" font-size="10.00"> +$world</text>
</g>
<!-- Node10 -->
<g id="node10" class="node">
<title>Node10</title>
<g id="a_node10"><a xlink:href="../../d0/d03/interfacepocketmine_1_1world_1_1_chunk_manager.html" target="_top" xlink:title=" ">
<polygon fill="white" stroke="#bfbfbf" points="106.3,-1220.5 106.3,-1343.5 286.3,-1343.5 286.3,-1220.5 106.3,-1220.5"/>
<text text-anchor="middle" x="196.3" y="-1331.5" font-family="Helvetica,sans-Serif" font-size="10.00">pocketmine\world\ChunkManager</text>
<polyline fill="none" stroke="#bfbfbf" points="106.3,-1324.5 286.3,-1324.5 "/>
<text text-anchor="middle" x="196.3" y="-1312.5" font-family="Helvetica,sans-Serif" font-size="10.00"> </text>
<polyline fill="none" stroke="#bfbfbf" points="106.3,-1305.5 286.3,-1305.5 "/>
<text text-anchor="start" x="114.3" y="-1293.5" font-family="Helvetica,sans-Serif" font-size="10.00">+ getBlockAt()</text>
<text text-anchor="start" x="114.3" y="-1282.5" font-family="Helvetica,sans-Serif" font-size="10.00">+ getChunk()</text>
<text text-anchor="start" x="114.3" y="-1271.5" font-family="Helvetica,sans-Serif" font-size="10.00">+ getMaxY()</text>
<text text-anchor="start" x="114.3" y="-1260.5" font-family="Helvetica,sans-Serif" font-size="10.00">+ getMinY()</text>
<text text-anchor="start" x="114.3" y="-1249.5" font-family="Helvetica,sans-Serif" font-size="10.00">+ isInWorld()</text>
<text text-anchor="start" x="114.3" y="-1238.5" font-family="Helvetica,sans-Serif" font-size="10.00">+ setBlockAt()</text>
<text text-anchor="start" x="114.3" y="-1227.5" font-family="Helvetica,sans-Serif" font-size="10.00">+ setChunk()</text>
</a>
</g>
</g>
<!-- Node10&#45;&gt;Node9 -->
<g id="edge9" class="edge">
<title>Node10&#45;&gt;Node9</title>
<path fill="none" stroke="midnightblue" d="M195.58,-1210.12C195.11,-1162.96 194.46,-1099.15 193.87,-1040.65"/>
<polygon fill="none" stroke="midnightblue" points="192.09,-1210.26 195.69,-1220.22 199.08,-1210.19 192.09,-1210.26"/>
</g>
<!-- Node11 -->
<g id="node11" class="node">
<title>Node11</title>
<g id="a_node11"><a xlink:href="../../d7/d08/classpocketmine_1_1world_1_1_world_timings.html" target="_top" xlink:title=" ">
<polygon fill="white" stroke="#bfbfbf" points="304.8,-1209.5 304.8,-1354.5 477.8,-1354.5 477.8,-1209.5 304.8,-1209.5"/>
<text text-anchor="middle" x="391.3" y="-1342.5" font-family="Helvetica,sans-Serif" font-size="10.00">pocketmine\world\WorldTimings</text>
<polyline fill="none" stroke="#bfbfbf" points="304.8,-1335.5 477.8,-1335.5 "/>
<text text-anchor="start" x="312.8" y="-1323.5" font-family="Helvetica,sans-Serif" font-size="10.00">+ $syncChunkLoad</text>
<text text-anchor="start" x="312.8" y="-1312.5" font-family="Helvetica,sans-Serif" font-size="10.00">+ $syncChunkLoadData</text>
<text text-anchor="start" x="312.8" y="-1301.5" font-family="Helvetica,sans-Serif" font-size="10.00">+ $syncChunkLoadEntities</text>
<text text-anchor="start" x="312.8" y="-1290.5" font-family="Helvetica,sans-Serif" font-size="10.00">+ $syncChunkLoadFixInvalid</text>
<text text-anchor="start" x="312.8" y="-1279.5" font-family="Helvetica,sans-Serif" font-size="10.00">Blocks</text>
<text text-anchor="start" x="312.8" y="-1268.5" font-family="Helvetica,sans-Serif" font-size="10.00">+ $syncChunkLoadTileEntities</text>
<text text-anchor="start" x="312.8" y="-1257.5" font-family="Helvetica,sans-Serif" font-size="10.00">+ $syncChunkSave</text>
<text text-anchor="start" x="312.8" y="-1246.5" font-family="Helvetica,sans-Serif" font-size="10.00">+ $syncChunkSend</text>
<text text-anchor="start" x="312.8" y="-1235.5" font-family="Helvetica,sans-Serif" font-size="10.00">+ $syncChunkSendPrepare</text>
<polyline fill="none" stroke="#bfbfbf" points="304.8,-1228.5 477.8,-1228.5 "/>
<text text-anchor="start" x="312.8" y="-1216.5" font-family="Helvetica,sans-Serif" font-size="10.00">+ __construct()</text>
</a>
</g>
</g>
<!-- Node11&#45;&gt;Node9 -->
<g id="edge11" class="edge">
<title>Node11&#45;&gt;Node9</title>
<path fill="none" stroke="#404040" d="M355.03,-1209.1C332.81,-1165.04 303.39,-1106.72 275.68,-1051.79"/>
<polygon fill="none" stroke="#404040" points="275.57,-1051.57 269.3,-1048.02 270.17,-1040.86 276.44,-1044.42 275.57,-1051.57"/>
<text text-anchor="middle" x="370.8" y="-1122.5" font-family="Helvetica,sans-Serif" font-size="10.00"> +$timings</text>
</g>
<!-- Node12 -->
<g id="node12" class="node">
<title>Node12</title>
<g id="a_node12"><a xlink:href="../../d7/d9b/classpocketmine_1_1timings_1_1_timings_handler.html" target="_top" xlink:title=" ">
<polygon fill="white" stroke="#bfbfbf" points="334.8,-1523.5 334.8,-1723.5 447.8,-1723.5 447.8,-1523.5 334.8,-1523.5"/>
<text text-anchor="start" x="342.8" y="-1711.5" font-family="Helvetica,sans-Serif" font-size="10.00">pocketmine\timings</text>
<text text-anchor="middle" x="391.3" y="-1700.5" font-family="Helvetica,sans-Serif" font-size="10.00">\TimingsHandler</text>
<polyline fill="none" stroke="#bfbfbf" points="334.8,-1693.5 447.8,-1693.5 "/>
<text text-anchor="middle" x="391.3" y="-1681.5" font-family="Helvetica,sans-Serif" font-size="10.00"> </text>
<polyline fill="none" stroke="#bfbfbf" points="334.8,-1674.5 447.8,-1674.5 "/>
<text text-anchor="start" x="342.8" y="-1662.5" font-family="Helvetica,sans-Serif" font-size="10.00">+ __construct()</text>
<text text-anchor="start" x="342.8" y="-1651.5" font-family="Helvetica,sans-Serif" font-size="10.00">+ destroyCycles()</text>
<text text-anchor="start" x="342.8" y="-1640.5" font-family="Helvetica,sans-Serif" font-size="10.00">+ getGroup()</text>
<text text-anchor="start" x="342.8" y="-1629.5" font-family="Helvetica,sans-Serif" font-size="10.00">+ getName()</text>
<text text-anchor="start" x="342.8" y="-1618.5" font-family="Helvetica,sans-Serif" font-size="10.00">+ startTiming()</text>
<text text-anchor="start" x="342.8" y="-1607.5" font-family="Helvetica,sans-Serif" font-size="10.00">+ stopTiming()</text>
<text text-anchor="start" x="342.8" y="-1596.5" font-family="Helvetica,sans-Serif" font-size="10.00">+ time()</text>
<text text-anchor="start" x="342.8" y="-1585.5" font-family="Helvetica,sans-Serif" font-size="10.00">+ getStartTime()</text>
<text text-anchor="start" x="342.8" y="-1574.5" font-family="Helvetica,sans-Serif" font-size="10.00">+ isEnabled()</text>
<text text-anchor="start" x="342.8" y="-1563.5" font-family="Helvetica,sans-Serif" font-size="10.00">+ printTimings()</text>
<text text-anchor="start" x="342.8" y="-1552.5" font-family="Helvetica,sans-Serif" font-size="10.00">+ reload()</text>
<text text-anchor="start" x="342.8" y="-1541.5" font-family="Helvetica,sans-Serif" font-size="10.00">+ setEnabled()</text>
<text text-anchor="start" x="342.8" y="-1530.5" font-family="Helvetica,sans-Serif" font-size="10.00">+ tick()</text>
</a>
</g>
</g>
<!-- Node12&#45;&gt;Node11 -->
<g id="edge12" class="edge">
<title>Node12&#45;&gt;Node11</title>
<path fill="none" stroke="#404040" d="M391.3,-1523.39C391.3,-1473.7 391.3,-1414.17 391.3,-1366.79"/>
<polygon fill="none" stroke="#404040" points="391.3,-1366.71 387.3,-1360.71 391.3,-1354.71 395.3,-1360.71 391.3,-1366.71"/>
<text text-anchor="middle" x="468.3" y="-1497" font-family="Helvetica,sans-Serif" font-size="10.00"> +$doBlockLightUpdates</text>
<text text-anchor="middle" x="468.3" y="-1486" font-family="Helvetica,sans-Serif" font-size="10.00">+$doBlockSkyLightUpdates</text>
<text text-anchor="middle" x="468.3" y="-1475" font-family="Helvetica,sans-Serif" font-size="10.00">+$doChunkGC</text>
<text text-anchor="middle" x="468.3" y="-1464" font-family="Helvetica,sans-Serif" font-size="10.00">+$doChunkUnload</text>
<text text-anchor="middle" x="468.3" y="-1453" font-family="Helvetica,sans-Serif" font-size="10.00">+$doTick</text>
<text text-anchor="middle" x="468.3" y="-1442" font-family="Helvetica,sans-Serif" font-size="10.00">+$entityTick</text>
<text text-anchor="middle" x="468.3" y="-1431" font-family="Helvetica,sans-Serif" font-size="10.00">+$randomChunkUpdates</text>
<text text-anchor="start" x="391.3" y="-1420" font-family="Helvetica,sans-Serif" font-size="10.00">+$randomChunkUpdatesChunk</text>
<text text-anchor="middle" x="468.3" y="-1409" font-family="Helvetica,sans-Serif" font-size="10.00">Selection</text>
<text text-anchor="middle" x="468.3" y="-1398" font-family="Helvetica,sans-Serif" font-size="10.00">+$scheduledBlockUpdates</text>
<text text-anchor="middle" x="468.3" y="-1387" font-family="Helvetica,sans-Serif" font-size="10.00">+$setBlock</text>
<text text-anchor="middle" x="468.3" y="-1376" font-family="Helvetica,sans-Serif" font-size="10.00">...</text>
</g>
</g>
</svg>
