<?xml version="1.0" encoding="UTF-8" standalone="no"?>
<!DOCTYPE svg PUBLIC "-//W3C//DTD SVG 1.1//EN"
 "http://www.w3.org/Graphics/SVG/1.1/DTD/svg11.dtd">
<!-- Generated by graphviz version 2.43.0 (0)
 -->
<!-- Title: pocketmine\block\BrownMushroom Pages: 1 -->
<svg width="660pt" height="1944pt"
 viewBox="0.00 0.00 660.39 1944.00" xmlns="http://www.w3.org/2000/svg" xmlns:xlink="http://www.w3.org/1999/xlink">
<g id="graph0" class="graph" transform="scale(1 1) rotate(0) translate(4 1940)">
<title>pocketmine\block\BrownMushroom</title>
<polygon fill="white" stroke="transparent" points="-4,4 -4,-1940 656.39,-1940 656.39,4 -4,4"/>
<!-- Node1 -->
<g id="node1" class="node">
<title>Node1</title>
<g id="a_node1"><a xlink:title=" ">
<polygon fill="#bfbfbf" stroke="black" points="233.39,-0.5 233.39,-57.5 421.39,-57.5 421.39,-0.5 233.39,-0.5"/>
<text text-anchor="middle" x="327.39" y="-45.5" font-family="Helvetica,sans-Serif" font-size="10.00">pocketmine\block\BrownMushroom</text>
<polyline fill="none" stroke="black" points="233.39,-38.5 421.39,-38.5 "/>
<text text-anchor="middle" x="327.39" y="-26.5" font-family="Helvetica,sans-Serif" font-size="10.00"> </text>
<polyline fill="none" stroke="black" points="233.39,-19.5 421.39,-19.5 "/>
<text text-anchor="start" x="241.39" y="-7.5" font-family="Helvetica,sans-Serif" font-size="10.00">+ getLightLevel()</text>
</a>
</g>
</g>
<!-- Node2 -->
<g id="node2" class="node">
<title>Node2</title>
<g id="a_node2"><a xlink:href="../../d1/d03/classpocketmine_1_1block_1_1_red_mushroom.html" target="_top" xlink:title=" ">
<polygon fill="white" stroke="#bfbfbf" points="239.39,-95.5 239.39,-174.5 415.39,-174.5 415.39,-95.5 239.39,-95.5"/>
<text text-anchor="middle" x="327.39" y="-162.5" font-family="Helvetica,sans-Serif" font-size="10.00">pocketmine\block\RedMushroom</text>
<polyline fill="none" stroke="#bfbfbf" points="239.39,-155.5 415.39,-155.5 "/>
<text text-anchor="middle" x="327.39" y="-143.5" font-family="Helvetica,sans-Serif" font-size="10.00"> </text>
<polyline fill="none" stroke="#bfbfbf" points="239.39,-136.5 415.39,-136.5 "/>
<text text-anchor="start" x="247.39" y="-124.5" font-family="Helvetica,sans-Serif" font-size="10.00">+ onNearbyBlockChange()</text>
<text text-anchor="start" x="247.39" y="-113.5" font-family="Helvetica,sans-Serif" font-size="10.00">+ place()</text>
<text text-anchor="start" x="247.39" y="-102.5" font-family="Helvetica,sans-Serif" font-size="10.00">+ ticksRandomly()</text>
</a>
</g>
</g>
<!-- Node2&#45;&gt;Node1 -->
<g id="edge1" class="edge">
<title>Node2&#45;&gt;Node1</title>
<path fill="none" stroke="midnightblue" d="M327.39,-85.16C327.39,-75.74 327.39,-66.17 327.39,-57.72"/>
<polygon fill="none" stroke="midnightblue" points="323.89,-85.27 327.39,-95.27 330.89,-85.27 323.89,-85.27"/>
</g>
<!-- Node3 -->
<g id="node3" class="node">
<title>Node3</title>
<g id="a_node3"><a xlink:href="../../d3/d1e/classpocketmine_1_1block_1_1_flowable.html" target="_top" xlink:title=" ">
<polygon fill="white" stroke="black" points="246.89,-212.5 246.89,-302.5 407.89,-302.5 407.89,-212.5 246.89,-212.5"/>
<text text-anchor="middle" x="327.39" y="-290.5" font-family="Helvetica,sans-Serif" font-size="10.00">pocketmine\block\Flowable</text>
<polyline fill="none" stroke="black" points="246.89,-283.5 407.89,-283.5 "/>
<text text-anchor="middle" x="327.39" y="-271.5" font-family="Helvetica,sans-Serif" font-size="10.00"> </text>
<polyline fill="none" stroke="black" points="246.89,-264.5 407.89,-264.5 "/>
<text text-anchor="start" x="254.89" y="-252.5" font-family="Helvetica,sans-Serif" font-size="10.00">+ canBeFlowedInto()</text>
<text text-anchor="start" x="254.89" y="-241.5" font-family="Helvetica,sans-Serif" font-size="10.00">+ getSupportType()</text>
<text text-anchor="start" x="254.89" y="-230.5" font-family="Helvetica,sans-Serif" font-size="10.00">+ isSolid()</text>
<text text-anchor="start" x="254.89" y="-219.5" font-family="Helvetica,sans-Serif" font-size="10.00"># recalculateCollisionBoxes()</text>
</a>
</g>
</g>
<!-- Node3&#45;&gt;Node2 -->
<g id="edge2" class="edge">
<title>Node3&#45;&gt;Node2</title>
<path fill="none" stroke="midnightblue" d="M327.39,-202.3C327.39,-192.97 327.39,-183.43 327.39,-174.61"/>
<polygon fill="none" stroke="midnightblue" points="323.89,-202.31 327.39,-212.31 330.89,-202.31 323.89,-202.31"/>
</g>
<!-- Node4 -->
<g id="node4" class="node">
<title>Node4</title>
<g id="a_node4"><a xlink:href="../../d5/d1b/classpocketmine_1_1block_1_1_transparent.html" target="_top" xlink:title=" ">
<polygon fill="white" stroke="black" points="245.89,-340.5 245.89,-397.5 408.89,-397.5 408.89,-340.5 245.89,-340.5"/>
<text text-anchor="middle" x="327.39" y="-385.5" font-family="Helvetica,sans-Serif" font-size="10.00">pocketmine\block\Transparent</text>
<polyline fill="none" stroke="black" points="245.89,-378.5 408.89,-378.5 "/>
<text text-anchor="middle" x="327.39" y="-366.5" font-family="Helvetica,sans-Serif" font-size="10.00"> </text>
<polyline fill="none" stroke="black" points="245.89,-359.5 408.89,-359.5 "/>
<text text-anchor="start" x="253.89" y="-347.5" font-family="Helvetica,sans-Serif" font-size="10.00">+ isTransparent()</text>
</a>
</g>
</g>
<!-- Node4&#45;&gt;Node3 -->
<g id="edge3" class="edge">
<title>Node4&#45;&gt;Node3</title>
<path fill="none" stroke="midnightblue" d="M327.39,-330.31C327.39,-321.43 327.39,-311.88 327.39,-302.74"/>
<polygon fill="none" stroke="midnightblue" points="323.89,-330.37 327.39,-340.37 330.89,-330.37 323.89,-330.37"/>
</g>
<!-- Node5 -->
<g id="node5" class="node">
<title>Node5</title>
<g id="a_node5"><a xlink:href="../../d7/d27/classpocketmine_1_1block_1_1_block.html" target="_top" xlink:title=" ">
<polygon fill="white" stroke="#bfbfbf" points="246.89,-435.5 246.89,-646.5 407.89,-646.5 407.89,-435.5 246.89,-435.5"/>
<text text-anchor="middle" x="327.39" y="-634.5" font-family="Helvetica,sans-Serif" font-size="10.00">pocketmine\block\Block</text>
<polyline fill="none" stroke="#bfbfbf" points="246.89,-627.5 407.89,-627.5 "/>
<text text-anchor="start" x="254.89" y="-615.5" font-family="Helvetica,sans-Serif" font-size="10.00"># $collisionBoxes</text>
<text text-anchor="start" x="254.89" y="-604.5" font-family="Helvetica,sans-Serif" font-size="10.00"># $fallbackName</text>
<polyline fill="none" stroke="#bfbfbf" points="246.89,-597.5 407.89,-597.5 "/>
<text text-anchor="start" x="254.89" y="-585.5" font-family="Helvetica,sans-Serif" font-size="10.00">+ __construct()</text>
<text text-anchor="start" x="254.89" y="-574.5" font-family="Helvetica,sans-Serif" font-size="10.00">+ __clone()</text>
<text text-anchor="start" x="254.89" y="-563.5" font-family="Helvetica,sans-Serif" font-size="10.00">+ __toString()</text>
<text text-anchor="start" x="254.89" y="-552.5" font-family="Helvetica,sans-Serif" font-size="10.00">+ addVelocityToEntity()</text>
<text text-anchor="start" x="254.89" y="-541.5" font-family="Helvetica,sans-Serif" font-size="10.00">+ asItem()</text>
<text text-anchor="start" x="254.89" y="-530.5" font-family="Helvetica,sans-Serif" font-size="10.00">+ blocksDirectSkyLight()</text>
<text text-anchor="start" x="254.89" y="-519.5" font-family="Helvetica,sans-Serif" font-size="10.00">+ burnsForever()</text>
<text text-anchor="start" x="254.89" y="-508.5" font-family="Helvetica,sans-Serif" font-size="10.00">+ calculateIntercept()</text>
<text text-anchor="start" x="254.89" y="-497.5" font-family="Helvetica,sans-Serif" font-size="10.00">+ canBeFlowedInto()</text>
<text text-anchor="start" x="254.89" y="-486.5" font-family="Helvetica,sans-Serif" font-size="10.00">+ canBePlaced()</text>
<text text-anchor="start" x="254.89" y="-475.5" font-family="Helvetica,sans-Serif" font-size="10.00">and 59 more...</text>
<text text-anchor="start" x="254.89" y="-464.5" font-family="Helvetica,sans-Serif" font-size="10.00"># describeBlockOnlyState()</text>
<text text-anchor="start" x="254.89" y="-453.5" font-family="Helvetica,sans-Serif" font-size="10.00"># getXpDropAmount()</text>
<text text-anchor="start" x="254.89" y="-442.5" font-family="Helvetica,sans-Serif" font-size="10.00"># recalculateCollisionBoxes()</text>
</a>
</g>
</g>
<!-- Node5&#45;&gt;Node4 -->
<g id="edge4" class="edge">
<title>Node5&#45;&gt;Node4</title>
<path fill="none" stroke="midnightblue" d="M327.39,-425.05C327.39,-415.05 327.39,-405.68 327.39,-397.61"/>
<polygon fill="none" stroke="midnightblue" points="323.89,-425.24 327.39,-435.24 330.89,-425.24 323.89,-425.24"/>
</g>
<!-- Node6 -->
<g id="node6" class="node">
<title>Node6</title>
<g id="a_node6"><a xlink:title=" ">
<polygon fill="white" stroke="#bfbfbf" points="4.89,-1443.5 4.89,-1500.5 47.89,-1500.5 47.89,-1443.5 4.89,-1443.5"/>
<text text-anchor="middle" x="26.39" y="-1488.5" font-family="Helvetica,sans-Serif" font-size="10.00">const</text>
<polyline fill="none" stroke="#bfbfbf" points="4.89,-1481.5 47.89,-1481.5 "/>
<text text-anchor="middle" x="26.39" y="-1469.5" font-family="Helvetica,sans-Serif" font-size="10.00"> </text>
<polyline fill="none" stroke="#bfbfbf" points="4.89,-1462.5 47.89,-1462.5 "/>
<text text-anchor="middle" x="26.39" y="-1450.5" font-family="Helvetica,sans-Serif" font-size="10.00"> </text>
</a>
</g>
</g>
<!-- Node6&#45;&gt;Node5 -->
<g id="edge5" class="edge">
<title>Node6&#45;&gt;Node5</title>
<path fill="none" stroke="#404040" d="M22.05,-1443.33C9.13,-1354.75 -24.8,-1070.84 32.39,-847 51.34,-772.85 61.09,-751.68 111.39,-694 146.61,-653.61 194.69,-618.42 236.54,-592.1"/>
<polygon fill="none" stroke="#404040" points="236.56,-592.09 239.55,-585.53 246.76,-585.77 243.76,-592.33 236.56,-592.09"/>
<text text-anchor="start" x="32.39" y="-872" font-family="Helvetica,sans-Serif" font-size="10.00"> +INTERNAL_STATE_DATA</text>
<text text-anchor="middle" x="110.89" y="-861" font-family="Helvetica,sans-Serif" font-size="10.00">_BITS</text>
<text text-anchor="middle" x="110.89" y="-850" font-family="Helvetica,sans-Serif" font-size="10.00">+INTERNAL_STATE_DATA_MASK</text>
</g>
<!-- Node11 -->
<g id="node11" class="node">
<title>Node11</title>
<g id="a_node11"><a xlink:href="../../d4/d2b/classpocketmine_1_1world_1_1_world.html" target="_top" xlink:title=" ">
<polygon fill="white" stroke="black" points="107.39,-898.5 107.39,-1208.5 279.39,-1208.5 279.39,-898.5 107.39,-898.5"/>
<text text-anchor="middle" x="193.39" y="-1196.5" font-family="Helvetica,sans-Serif" font-size="10.00">pocketmine\world\World</text>
<polyline fill="none" stroke="black" points="107.39,-1189.5 279.39,-1189.5 "/>
<text text-anchor="start" x="115.39" y="-1177.5" font-family="Helvetica,sans-Serif" font-size="10.00">+ $stopTime</text>
<text text-anchor="start" x="115.39" y="-1166.5" font-family="Helvetica,sans-Serif" font-size="10.00">+ $tickRateTime</text>
<text text-anchor="start" x="115.39" y="-1155.5" font-family="Helvetica,sans-Serif" font-size="10.00">+ $updateEntities</text>
<text text-anchor="start" x="115.39" y="-1144.5" font-family="Helvetica,sans-Serif" font-size="10.00">+ TIME_SUNRISE</text>
<text text-anchor="start" x="115.39" y="-1133.5" font-family="Helvetica,sans-Serif" font-size="10.00">+ TIME_SUNSET</text>
<text text-anchor="start" x="115.39" y="-1122.5" font-family="Helvetica,sans-Serif" font-size="10.00">+ Y_MAX</text>
<text text-anchor="start" x="115.39" y="-1111.5" font-family="Helvetica,sans-Serif" font-size="10.00">+ Y_MIN</text>
<polyline fill="none" stroke="black" points="107.39,-1104.5 279.39,-1104.5 "/>
<text text-anchor="start" x="115.39" y="-1092.5" font-family="Helvetica,sans-Serif" font-size="10.00">+ __construct()</text>
<text text-anchor="start" x="115.39" y="-1081.5" font-family="Helvetica,sans-Serif" font-size="10.00">+ __debugInfo()</text>
<text text-anchor="start" x="115.39" y="-1070.5" font-family="Helvetica,sans-Serif" font-size="10.00">+ addEntity()</text>
<text text-anchor="start" x="115.39" y="-1059.5" font-family="Helvetica,sans-Serif" font-size="10.00">+ addOnUnloadCallback()</text>
<text text-anchor="start" x="115.39" y="-1048.5" font-family="Helvetica,sans-Serif" font-size="10.00">+ addParticle()</text>
<text text-anchor="start" x="115.39" y="-1037.5" font-family="Helvetica,sans-Serif" font-size="10.00">+ addRandomTickedBlock()</text>
<text text-anchor="start" x="115.39" y="-1026.5" font-family="Helvetica,sans-Serif" font-size="10.00">+ addSound()</text>
<text text-anchor="start" x="115.39" y="-1015.5" font-family="Helvetica,sans-Serif" font-size="10.00">+ addTile()</text>
<text text-anchor="start" x="115.39" y="-1004.5" font-family="Helvetica,sans-Serif" font-size="10.00">+ broadcastPacketToViewers()</text>
<text text-anchor="start" x="115.39" y="-993.5" font-family="Helvetica,sans-Serif" font-size="10.00">+ cancelUnloadChunkRequest()</text>
<text text-anchor="start" x="115.39" y="-982.5" font-family="Helvetica,sans-Serif" font-size="10.00">and 120 more...</text>
<text text-anchor="start" x="115.39" y="-971.5" font-family="Helvetica,sans-Serif" font-size="10.00">+ blockHash()</text>
<text text-anchor="start" x="115.39" y="-960.5" font-family="Helvetica,sans-Serif" font-size="10.00">+ chunkBlockHash()</text>
<text text-anchor="start" x="115.39" y="-949.5" font-family="Helvetica,sans-Serif" font-size="10.00">+ chunkHash()</text>
<text text-anchor="start" x="115.39" y="-938.5" font-family="Helvetica,sans-Serif" font-size="10.00">+ getBlockXYZ()</text>
<text text-anchor="start" x="115.39" y="-927.5" font-family="Helvetica,sans-Serif" font-size="10.00">+ getDifficultyFromString()</text>
<text text-anchor="start" x="115.39" y="-916.5" font-family="Helvetica,sans-Serif" font-size="10.00">+ getXZ()</text>
<text text-anchor="start" x="115.39" y="-905.5" font-family="Helvetica,sans-Serif" font-size="10.00"># actuallyDoTick()</text>
</a>
</g>
</g>
<!-- Node6&#45;&gt;Node11 -->
<g id="edge12" class="edge">
<title>Node6&#45;&gt;Node11</title>
<path fill="none" stroke="#404040" d="M24.18,-1443.39C21.52,-1396.81 20.72,-1300.49 51.39,-1227 63,-1199.19 80.64,-1172.37 99.58,-1148.51"/>
<polygon fill="none" stroke="#404040" points="99.61,-1148.47 100.29,-1141.29 107.18,-1139.16 106.5,-1146.34 99.61,-1148.47"/>
<text text-anchor="start" x="51.39" y="-1351" font-family="Helvetica,sans-Serif" font-size="10.00"> +DEFAULT_TICKED_BLOCKS</text>
<text text-anchor="middle" x="121.39" y="-1340" font-family="Helvetica,sans-Serif" font-size="10.00">_PER_SUBCHUNK_PER_TICK</text>
<text text-anchor="middle" x="121.39" y="-1329" font-family="Helvetica,sans-Serif" font-size="10.00">+DIFFICULTY_EASY</text>
<text text-anchor="middle" x="121.39" y="-1318" font-family="Helvetica,sans-Serif" font-size="10.00">+DIFFICULTY_HARD</text>
<text text-anchor="middle" x="121.39" y="-1307" font-family="Helvetica,sans-Serif" font-size="10.00">+DIFFICULTY_NORMAL</text>
<text text-anchor="middle" x="121.39" y="-1296" font-family="Helvetica,sans-Serif" font-size="10.00">+DIFFICULTY_PEACEFUL</text>
<text text-anchor="middle" x="121.39" y="-1285" font-family="Helvetica,sans-Serif" font-size="10.00">+TIME_DAY</text>
<text text-anchor="middle" x="121.39" y="-1274" font-family="Helvetica,sans-Serif" font-size="10.00">+TIME_FULL</text>
<text text-anchor="middle" x="121.39" y="-1263" font-family="Helvetica,sans-Serif" font-size="10.00">+TIME_MIDNIGHT</text>
<text text-anchor="middle" x="121.39" y="-1252" font-family="Helvetica,sans-Serif" font-size="10.00">+TIME_NIGHT</text>
<text text-anchor="middle" x="121.39" y="-1241" font-family="Helvetica,sans-Serif" font-size="10.00">+TIME_NOON</text>
<text text-anchor="middle" x="121.39" y="-1230" font-family="Helvetica,sans-Serif" font-size="10.00">...</text>
</g>
<!-- Node7 -->
<g id="node7" class="node">
<title>Node7</title>
<g id="a_node7"><a xlink:href="../../dd/d18/classpocketmine_1_1block_1_1_block_identifier.html" target="_top" xlink:title=" ">
<polygon fill="white" stroke="#bfbfbf" points="284.39,-722 284.39,-801 460.39,-801 460.39,-722 284.39,-722"/>
<text text-anchor="middle" x="372.39" y="-789" font-family="Helvetica,sans-Serif" font-size="10.00">pocketmine\block\BlockIdentifier</text>
<polyline fill="none" stroke="#bfbfbf" points="284.39,-782 460.39,-782 "/>
<text text-anchor="middle" x="372.39" y="-770" font-family="Helvetica,sans-Serif" font-size="10.00"> </text>
<polyline fill="none" stroke="#bfbfbf" points="284.39,-763 460.39,-763 "/>
<text text-anchor="start" x="292.39" y="-751" font-family="Helvetica,sans-Serif" font-size="10.00">+ __construct()</text>
<text text-anchor="start" x="292.39" y="-740" font-family="Helvetica,sans-Serif" font-size="10.00">+ getBlockTypeId()</text>
<text text-anchor="start" x="292.39" y="-729" font-family="Helvetica,sans-Serif" font-size="10.00">+ getTileClass()</text>
</a>
</g>
</g>
<!-- Node7&#45;&gt;Node5 -->
<g id="edge6" class="edge">
<title>Node7&#45;&gt;Node5</title>
<path fill="none" stroke="#404040" d="M364.45,-721.94C360.75,-704 356.14,-681.59 351.44,-658.75"/>
<polygon fill="none" stroke="#404040" points="351.39,-658.54 346.26,-653.47 348.97,-646.79 354.1,-651.85 351.39,-658.54"/>
<text text-anchor="middle" x="377.39" y="-668" font-family="Helvetica,sans-Serif" font-size="10.00"> #$idInfo</text>
</g>
<!-- Node8 -->
<g id="node8" class="node">
<title>Node8</title>
<g id="a_node8"><a xlink:href="../../de/d9a/classpocketmine_1_1block_1_1_block_type_info.html" target="_top" xlink:title=" ">
<polygon fill="white" stroke="#bfbfbf" points="478.39,-716.5 478.39,-806.5 652.39,-806.5 652.39,-716.5 478.39,-716.5"/>
<text text-anchor="middle" x="565.39" y="-794.5" font-family="Helvetica,sans-Serif" font-size="10.00">pocketmine\block\BlockTypeInfo</text>
<polyline fill="none" stroke="#bfbfbf" points="478.39,-787.5 652.39,-787.5 "/>
<text text-anchor="middle" x="565.39" y="-775.5" font-family="Helvetica,sans-Serif" font-size="10.00"> </text>
<polyline fill="none" stroke="#bfbfbf" points="478.39,-768.5 652.39,-768.5 "/>
<text text-anchor="start" x="486.39" y="-756.5" font-family="Helvetica,sans-Serif" font-size="10.00">+ __construct()</text>
<text text-anchor="start" x="486.39" y="-745.5" font-family="Helvetica,sans-Serif" font-size="10.00">+ getBreakInfo()</text>
<text text-anchor="start" x="486.39" y="-734.5" font-family="Helvetica,sans-Serif" font-size="10.00">+ getTypeTags()</text>
<text text-anchor="start" x="486.39" y="-723.5" font-family="Helvetica,sans-Serif" font-size="10.00">+ hasTypeTag()</text>
</a>
</g>
</g>
<!-- Node8&#45;&gt;Node5 -->
<g id="edge7" class="edge">
<title>Node8&#45;&gt;Node5</title>
<path fill="none" stroke="#404040" d="M517.23,-716.28C488.55,-689.96 451.24,-655.7 417.3,-624.54"/>
<polygon fill="none" stroke="#404040" points="417.13,-624.38 410,-623.27 408.29,-616.27 415.41,-617.38 417.13,-624.38"/>
<text text-anchor="middle" x="497.39" y="-668" font-family="Helvetica,sans-Serif" font-size="10.00"> #$typeInfo</text>
</g>
<!-- Node9 -->
<g id="node9" class="node">
<title>Node9</title>
<g id="a_node9"><a xlink:href="../../d5/dd2/classpocketmine_1_1world_1_1_position.html" target="_top" xlink:title=" ">
<polygon fill="white" stroke="#bfbfbf" points="120.39,-694.5 120.39,-828.5 266.39,-828.5 266.39,-694.5 120.39,-694.5"/>
<text text-anchor="middle" x="193.39" y="-816.5" font-family="Helvetica,sans-Serif" font-size="10.00">pocketmine\world\Position</text>
<polyline fill="none" stroke="#bfbfbf" points="120.39,-809.5 266.39,-809.5 "/>
<text text-anchor="middle" x="193.39" y="-797.5" font-family="Helvetica,sans-Serif" font-size="10.00"> </text>
<polyline fill="none" stroke="#bfbfbf" points="120.39,-790.5 266.39,-790.5 "/>
<text text-anchor="start" x="128.39" y="-778.5" font-family="Helvetica,sans-Serif" font-size="10.00">+ __construct()</text>
<text text-anchor="start" x="128.39" y="-767.5" font-family="Helvetica,sans-Serif" font-size="10.00">+ __toString()</text>
<text text-anchor="start" x="128.39" y="-756.5" font-family="Helvetica,sans-Serif" font-size="10.00">+ asPosition()</text>
<text text-anchor="start" x="128.39" y="-745.5" font-family="Helvetica,sans-Serif" font-size="10.00">+ equals()</text>
<text text-anchor="start" x="128.39" y="-734.5" font-family="Helvetica,sans-Serif" font-size="10.00">+ getSide()</text>
<text text-anchor="start" x="128.39" y="-723.5" font-family="Helvetica,sans-Serif" font-size="10.00">+ getWorld()</text>
<text text-anchor="start" x="128.39" y="-712.5" font-family="Helvetica,sans-Serif" font-size="10.00">+ isValid()</text>
<text text-anchor="start" x="128.39" y="-701.5" font-family="Helvetica,sans-Serif" font-size="10.00">+ fromObject()</text>
</a>
</g>
</g>
<!-- Node9&#45;&gt;Node5 -->
<g id="edge8" class="edge">
<title>Node9&#45;&gt;Node5</title>
<path fill="none" stroke="#404040" d="M233.96,-694.35C241.25,-682.46 249.04,-669.75 256.9,-656.94"/>
<polygon fill="none" stroke="#404040" points="256.93,-656.89 256.66,-649.68 263.21,-646.66 263.48,-653.87 256.93,-656.89"/>
<text text-anchor="middle" x="276.89" y="-668" font-family="Helvetica,sans-Serif" font-size="10.00"> #$position</text>
</g>
<!-- Node10 -->
<g id="node10" class="node">
<title>Node10</title>
<g id="a_node10"><a xlink:href="../../d2/d90/classpocketmine_1_1math_1_1_vector3.html" target="_top" xlink:title=" ">
<polygon fill="white" stroke="#bfbfbf" points="297.39,-937 297.39,-1170 439.39,-1170 439.39,-937 297.39,-937"/>
<text text-anchor="middle" x="368.39" y="-1158" font-family="Helvetica,sans-Serif" font-size="10.00">pocketmine\math\Vector3</text>
<polyline fill="none" stroke="#bfbfbf" points="297.39,-1151 439.39,-1151 "/>
<text text-anchor="start" x="305.39" y="-1139" font-family="Helvetica,sans-Serif" font-size="10.00">+ $x</text>
<text text-anchor="start" x="305.39" y="-1128" font-family="Helvetica,sans-Serif" font-size="10.00">+ $y</text>
<text text-anchor="start" x="305.39" y="-1117" font-family="Helvetica,sans-Serif" font-size="10.00">+ $z</text>
<polyline fill="none" stroke="#bfbfbf" points="297.39,-1110 439.39,-1110 "/>
<text text-anchor="start" x="305.39" y="-1098" font-family="Helvetica,sans-Serif" font-size="10.00">+ __construct()</text>
<text text-anchor="start" x="305.39" y="-1087" font-family="Helvetica,sans-Serif" font-size="10.00">+ __toString()</text>
<text text-anchor="start" x="305.39" y="-1076" font-family="Helvetica,sans-Serif" font-size="10.00">+ abs()</text>
<text text-anchor="start" x="305.39" y="-1065" font-family="Helvetica,sans-Serif" font-size="10.00">+ add()</text>
<text text-anchor="start" x="305.39" y="-1054" font-family="Helvetica,sans-Serif" font-size="10.00">+ addVector()</text>
<text text-anchor="start" x="305.39" y="-1043" font-family="Helvetica,sans-Serif" font-size="10.00">+ asVector3()</text>
<text text-anchor="start" x="305.39" y="-1032" font-family="Helvetica,sans-Serif" font-size="10.00">+ ceil()</text>
<text text-anchor="start" x="305.39" y="-1021" font-family="Helvetica,sans-Serif" font-size="10.00">+ cross()</text>
<text text-anchor="start" x="305.39" y="-1010" font-family="Helvetica,sans-Serif" font-size="10.00">+ distance()</text>
<text text-anchor="start" x="305.39" y="-999" font-family="Helvetica,sans-Serif" font-size="10.00">+ distanceSquared()</text>
<text text-anchor="start" x="305.39" y="-988" font-family="Helvetica,sans-Serif" font-size="10.00">and 32 more...</text>
<text text-anchor="start" x="305.39" y="-977" font-family="Helvetica,sans-Serif" font-size="10.00">+ maxComponents()</text>
<text text-anchor="start" x="305.39" y="-966" font-family="Helvetica,sans-Serif" font-size="10.00">+ minComponents()</text>
<text text-anchor="start" x="305.39" y="-955" font-family="Helvetica,sans-Serif" font-size="10.00">+ sum()</text>
<text text-anchor="start" x="305.39" y="-944" font-family="Helvetica,sans-Serif" font-size="10.00">+ zero()</text>
</a>
</g>
</g>
<!-- Node10&#45;&gt;Node9 -->
<g id="edge9" class="edge">
<title>Node10&#45;&gt;Node9</title>
<path fill="none" stroke="midnightblue" d="M305.69,-927.84C300.01,-917.65 294.2,-907.59 288.39,-898 274.32,-874.78 257.7,-850.24 242.32,-828.51"/>
<polygon fill="none" stroke="midnightblue" points="302.75,-929.76 310.65,-936.82 308.88,-926.37 302.75,-929.76"/>
</g>
<!-- Node11&#45;&gt;Node9 -->
<g id="edge10" class="edge">
<title>Node11&#45;&gt;Node9</title>
<path fill="none" stroke="#404040" d="M193.39,-898.16C193.39,-878.27 193.39,-858.61 193.39,-840.69"/>
<polygon fill="none" stroke="#404040" points="193.39,-840.59 189.39,-834.59 193.39,-828.59 197.39,-834.59 193.39,-840.59"/>
<text text-anchor="middle" x="215.89" y="-861" font-family="Helvetica,sans-Serif" font-size="10.00"> +$world</text>
</g>
<!-- Node12 -->
<g id="node12" class="node">
<title>Node12</title>
<g id="a_node12"><a xlink:href="../../d0/d03/interfacepocketmine_1_1world_1_1_chunk_manager.html" target="_top" xlink:title=" ">
<polygon fill="white" stroke="#bfbfbf" points="107.39,-1410.5 107.39,-1533.5 287.39,-1533.5 287.39,-1410.5 107.39,-1410.5"/>
<text text-anchor="middle" x="197.39" y="-1521.5" font-family="Helvetica,sans-Serif" font-size="10.00">pocketmine\world\ChunkManager</text>
<polyline fill="none" stroke="#bfbfbf" points="107.39,-1514.5 287.39,-1514.5 "/>
<text text-anchor="middle" x="197.39" y="-1502.5" font-family="Helvetica,sans-Serif" font-size="10.00"> </text>
<polyline fill="none" stroke="#bfbfbf" points="107.39,-1495.5 287.39,-1495.5 "/>
<text text-anchor="start" x="115.39" y="-1483.5" font-family="Helvetica,sans-Serif" font-size="10.00">+ getBlockAt()</text>
<text text-anchor="start" x="115.39" y="-1472.5" font-family="Helvetica,sans-Serif" font-size="10.00">+ getChunk()</text>
<text text-anchor="start" x="115.39" y="-1461.5" font-family="Helvetica,sans-Serif" font-size="10.00">+ getMaxY()</text>
<text text-anchor="start" x="115.39" y="-1450.5" font-family="Helvetica,sans-Serif" font-size="10.00">+ getMinY()</text>
<text text-anchor="start" x="115.39" y="-1439.5" font-family="Helvetica,sans-Serif" font-size="10.00">+ isInWorld()</text>
<text text-anchor="start" x="115.39" y="-1428.5" font-family="Helvetica,sans-Serif" font-size="10.00">+ setBlockAt()</text>
<text text-anchor="start" x="115.39" y="-1417.5" font-family="Helvetica,sans-Serif" font-size="10.00">+ setChunk()</text>
</a>
</g>
</g>
<!-- Node12&#45;&gt;Node11 -->
<g id="edge11" class="edge">
<title>Node12&#45;&gt;Node11</title>
<path fill="none" stroke="midnightblue" d="M196.71,-1400.24C196.21,-1347.82 195.5,-1274.38 194.87,-1208.66"/>
<polygon fill="none" stroke="midnightblue" points="193.21,-1400.47 196.81,-1410.44 200.21,-1400.4 193.21,-1400.47"/>
</g>
<!-- Node13 -->
<g id="node13" class="node">
<title>Node13</title>
<g id="a_node13"><a xlink:href="../../d7/d08/classpocketmine_1_1world_1_1_world_timings.html" target="_top" xlink:title=" ">
<polygon fill="white" stroke="#bfbfbf" points="305.89,-1377.5 305.89,-1566.5 478.89,-1566.5 478.89,-1377.5 305.89,-1377.5"/>
<text text-anchor="middle" x="392.39" y="-1554.5" font-family="Helvetica,sans-Serif" font-size="10.00">pocketmine\world\WorldTimings</text>
<polyline fill="none" stroke="#bfbfbf" points="305.89,-1547.5 478.89,-1547.5 "/>
<text text-anchor="start" x="313.89" y="-1535.5" font-family="Helvetica,sans-Serif" font-size="10.00">+ $scheduledBlockUpdates</text>
<text text-anchor="start" x="313.89" y="-1524.5" font-family="Helvetica,sans-Serif" font-size="10.00">+ $setBlock</text>
<text text-anchor="start" x="313.89" y="-1513.5" font-family="Helvetica,sans-Serif" font-size="10.00">+ $syncChunkLoad</text>
<text text-anchor="start" x="313.89" y="-1502.5" font-family="Helvetica,sans-Serif" font-size="10.00">+ $syncChunkLoadData</text>
<text text-anchor="start" x="313.89" y="-1491.5" font-family="Helvetica,sans-Serif" font-size="10.00">+ $syncChunkLoadEntities</text>
<text text-anchor="start" x="313.89" y="-1480.5" font-family="Helvetica,sans-Serif" font-size="10.00">+ $syncChunkLoadFixInvalid</text>
<text text-anchor="start" x="313.89" y="-1469.5" font-family="Helvetica,sans-Serif" font-size="10.00">Blocks</text>
<text text-anchor="start" x="313.89" y="-1458.5" font-family="Helvetica,sans-Serif" font-size="10.00">+ $syncChunkLoadTileEntities</text>
<text text-anchor="start" x="313.89" y="-1447.5" font-family="Helvetica,sans-Serif" font-size="10.00">+ $syncChunkSave</text>
<text text-anchor="start" x="313.89" y="-1436.5" font-family="Helvetica,sans-Serif" font-size="10.00">+ $syncChunkSend</text>
<text text-anchor="start" x="313.89" y="-1425.5" font-family="Helvetica,sans-Serif" font-size="10.00">+ $syncChunkSendPrepare</text>
<text text-anchor="start" x="313.89" y="-1414.5" font-family="Helvetica,sans-Serif" font-size="10.00">+ $syncDataSave</text>
<text text-anchor="start" x="313.89" y="-1403.5" font-family="Helvetica,sans-Serif" font-size="10.00">+ $tileTick</text>
<polyline fill="none" stroke="#bfbfbf" points="305.89,-1396.5 478.89,-1396.5 "/>
<text text-anchor="start" x="313.89" y="-1384.5" font-family="Helvetica,sans-Serif" font-size="10.00">+ __construct()</text>
</a>
</g>
</g>
<!-- Node13&#45;&gt;Node11 -->
<g id="edge13" class="edge">
<title>Node13&#45;&gt;Node11</title>
<path fill="none" stroke="#404040" d="M347.61,-1377.27C325.41,-1330.81 297.94,-1273.32 272.37,-1219.79"/>
<polygon fill="none" stroke="#404040" points="272.28,-1219.62 266.09,-1215.93 267.11,-1208.79 273.31,-1212.48 272.28,-1219.62"/>
<text text-anchor="middle" x="361.89" y="-1290.5" font-family="Helvetica,sans-Serif" font-size="10.00"> +$timings</text>
</g>
<!-- Node14 -->
<g id="node14" class="node">
<title>Node14</title>
<g id="a_node14"><a xlink:href="../../d7/d9b/classpocketmine_1_1timings_1_1_timings_handler.html" target="_top" xlink:title=" ">
<polygon fill="white" stroke="#bfbfbf" points="335.89,-1735.5 335.89,-1935.5 448.89,-1935.5 448.89,-1735.5 335.89,-1735.5"/>
<text text-anchor="start" x="343.89" y="-1923.5" font-family="Helvetica,sans-Serif" font-size="10.00">pocketmine\timings</text>
<text text-anchor="middle" x="392.39" y="-1912.5" font-family="Helvetica,sans-Serif" font-size="10.00">\TimingsHandler</text>
<polyline fill="none" stroke="#bfbfbf" points="335.89,-1905.5 448.89,-1905.5 "/>
<text text-anchor="middle" x="392.39" y="-1893.5" font-family="Helvetica,sans-Serif" font-size="10.00"> </text>
<polyline fill="none" stroke="#bfbfbf" points="335.89,-1886.5 448.89,-1886.5 "/>
<text text-anchor="start" x="343.89" y="-1874.5" font-family="Helvetica,sans-Serif" font-size="10.00">+ __construct()</text>
<text text-anchor="start" x="343.89" y="-1863.5" font-family="Helvetica,sans-Serif" font-size="10.00">+ getGroup()</text>
<text text-anchor="start" x="343.89" y="-1852.5" font-family="Helvetica,sans-Serif" font-size="10.00">+ getName()</text>
<text text-anchor="start" x="343.89" y="-1841.5" font-family="Helvetica,sans-Serif" font-size="10.00">+ reset()</text>
<text text-anchor="start" x="343.89" y="-1830.5" font-family="Helvetica,sans-Serif" font-size="10.00">+ startTiming()</text>
<text text-anchor="start" x="343.89" y="-1819.5" font-family="Helvetica,sans-Serif" font-size="10.00">+ stopTiming()</text>
<text text-anchor="start" x="343.89" y="-1808.5" font-family="Helvetica,sans-Serif" font-size="10.00">+ time()</text>
<text text-anchor="start" x="343.89" y="-1797.5" font-family="Helvetica,sans-Serif" font-size="10.00">+ getStartTime()</text>
<text text-anchor="start" x="343.89" y="-1786.5" font-family="Helvetica,sans-Serif" font-size="10.00">+ isEnabled()</text>
<text text-anchor="start" x="343.89" y="-1775.5" font-family="Helvetica,sans-Serif" font-size="10.00">+ printTimings()</text>
<text text-anchor="start" x="343.89" y="-1764.5" font-family="Helvetica,sans-Serif" font-size="10.00">+ reload()</text>
<text text-anchor="start" x="343.89" y="-1753.5" font-family="Helvetica,sans-Serif" font-size="10.00">+ setEnabled()</text>
<text text-anchor="start" x="343.89" y="-1742.5" font-family="Helvetica,sans-Serif" font-size="10.00">+ tick()</text>
</a>
</g>
</g>
<!-- Node14&#45;&gt;Node13 -->
<g id="edge14" class="edge">
<title>Node14&#45;&gt;Node13</title>
<path fill="none" stroke="#404040" d="M392.39,-1735.24C392.39,-1686.68 392.39,-1628.19 392.39,-1578.78"/>
<polygon fill="none" stroke="#404040" points="392.39,-1578.75 388.39,-1572.75 392.39,-1566.75 396.39,-1572.75 392.39,-1578.75"/>
<text text-anchor="middle" x="469.89" y="-1709" font-family="Helvetica,sans-Serif" font-size="10.00"> +$chunkPopulationCompletion</text>
<text text-anchor="middle" x="469.89" y="-1698" font-family="Helvetica,sans-Serif" font-size="10.00">+$chunkPopulationOrder</text>
<text text-anchor="middle" x="469.89" y="-1687" font-family="Helvetica,sans-Serif" font-size="10.00">+$doBlockLightUpdates</text>
<text text-anchor="middle" x="469.89" y="-1676" font-family="Helvetica,sans-Serif" font-size="10.00">+$doBlockSkyLightUpdates</text>
<text text-anchor="middle" x="469.89" y="-1665" font-family="Helvetica,sans-Serif" font-size="10.00">+$doChunkGC</text>
<text text-anchor="middle" x="469.89" y="-1654" font-family="Helvetica,sans-Serif" font-size="10.00">+$doChunkUnload</text>
<text text-anchor="middle" x="469.89" y="-1643" font-family="Helvetica,sans-Serif" font-size="10.00">+$doTick</text>
<text text-anchor="middle" x="469.89" y="-1632" font-family="Helvetica,sans-Serif" font-size="10.00">+$entityTick</text>
<text text-anchor="middle" x="469.89" y="-1621" font-family="Helvetica,sans-Serif" font-size="10.00">+$randomChunkUpdates</text>
<text text-anchor="start" x="392.39" y="-1610" font-family="Helvetica,sans-Serif" font-size="10.00">+$randomChunkUpdatesChunk</text>
<text text-anchor="middle" x="469.89" y="-1599" font-family="Helvetica,sans-Serif" font-size="10.00">Selection</text>
<text text-anchor="middle" x="469.89" y="-1588" font-family="Helvetica,sans-Serif" font-size="10.00">...</text>
</g>
</g>
</svg>
