<?xml version="1.0" encoding="UTF-8" standalone="no"?>
<!DOCTYPE svg PUBLIC "-//W3C//DTD SVG 1.1//EN"
 "http://www.w3.org/Graphics/SVG/1.1/DTD/svg11.dtd">
<!-- Generated by graphviz version 2.43.0 (0)
 -->
<!-- Title: pocketmine\block\tile\Spawnable Pages: 1 -->
<!--zoomable 1933 -->

<svg id="main" version="1.1" xmlns="http://www.w3.org/2000/svg" xmlns:xlink="http://www.w3.org/1999/xlink" xml:space="preserve" onload="init(evt)">

<style type="text/css"><![CDATA[
.node, .edge {opacity: 0.7;}
.node.selected, .edge.selected {opacity: 1;}
.edge:hover path { stroke: red; }
.edge:hover polygon { stroke: red; fill: red; }
]]></style>

<defs>
  <circle id="rim" cx="0" cy="0" r="7"/>
  <circle id="rim2" cx="0" cy="0" r="3.5"/>
  <g id="zoomPlus">
    <use xlink:href="#rim" fill="#404040"><set attributeName="fill" to="#808080" begin="zoomplus.mouseover" end="zoomplus.mouseout"/></use>
    <path d="M-4,0h8M0,-4v8" fill="none" stroke="white" stroke-width="1.5" pointer-events="none"/>
  </g>
  <g id="zoomMin">
    <use xlink:href="#rim" fill="#404040"><set attributeName="fill" to="#808080" begin="zoomminus.mouseover" end="zoomminus.mouseout"/></use>
    <path d="M-4,0h8" fill="none" stroke="white" stroke-width="1.5" pointer-events="none"/>
  </g>
  <g id="arrowUp" transform="translate(30 24)">
    <use xlink:href="#rim"/>
    <path pointer-events="none" fill="none" stroke="white" stroke-width="1.5" d="M0,-3.0v7 M-2.5,-0.5L0,-3.0L2.5,-0.5"/>
  </g>
  <g id="arrowRight" transform="rotate(90) translate(36 -43)">
    <use xlink:href="#rim"/>
    <path pointer-events="none" fill="none" stroke="white" stroke-width="1.5" d="M0,-3.0v7 M-2.5,-0.5L0,-3.0L2.5,-0.5"/>
  </g>
  <g id="arrowDown" transform="rotate(180) translate(-30 -48)">
    <use xlink:href="#rim"/>
    <path pointer-events="none" fill="none" stroke="white" stroke-width="1.5" d="M0,-3.0v7 M-2.5,-0.5L0,-3.0L2.5,-0.5"/>
  </g>
  <g id="arrowLeft" transform="rotate(270) translate(-36 17)">
    <use xlink:href="#rim"/>
    <path pointer-events="none" fill="none" stroke="white" stroke-width="1.5" d="M0,-3.0v7 M-2.5,-0.5L0,-3.0L2.5,-0.5"/>
  </g>
  <g id="resetDef">
    <use xlink:href="#rim2" fill="#404040"><set attributeName="fill" to="#808080" begin="reset.mouseover" end="reset.mouseout"/></use>
  </g>
</defs>
<script type="application/ecmascript">
var viewWidth = 485;
var viewHeight = 1933;
var sectionId = 'dynsection-1';
</script>
<script type="application/ecmascript" xlink:href="../../svg.min.js"/>
<svg id="graph" class="graph">
<g id="viewport">
<title>pocketmine\block\tile\Spawnable</title>
<!-- Node1 -->
<g id="Node000001" class="node">
<title>Node1</title>
<g id="a_Node000001"><a xlink:title=" ">
<polygon fill="#999999" stroke="transparent" points="429,-131 245,-131 245,0 429,0 429,-131"/>
<text text-anchor="start" x="284" y="-118.5" font-family="Helvetica,sans-Serif" font-size="10.00">pocketmine\block\tile</text>
<text text-anchor="start" x="308.5" y="-107.5" font-family="Helvetica,sans-Serif" font-size="10.00">\Spawnable</text>
<text text-anchor="start" x="335" y="-92.5" font-family="Helvetica,sans-Serif" font-size="10.00"> </text>
<text text-anchor="start" x="249" y="-77.5" font-family="Helvetica,sans-Serif" font-size="10.00">+</text>
<text text-anchor="start" x="262" y="-77.5" font-family="Helvetica,sans-Serif" font-size="10.00">clearSpawnCompoundCache()</text>
<text text-anchor="start" x="249" y="-62.5" font-family="Helvetica,sans-Serif" font-size="10.00">+</text>
<text text-anchor="start" x="262" y="-62.5" font-family="Helvetica,sans-Serif" font-size="10.00">getRenderUpdateBugWorkaround</text>
<text text-anchor="start" x="262" y="-51.5" font-family="Helvetica,sans-Serif" font-size="10.00">StateProperties()</text>
<text text-anchor="start" x="249" y="-36.5" font-family="Helvetica,sans-Serif" font-size="10.00">+</text>
<text text-anchor="start" x="262" y="-36.5" font-family="Helvetica,sans-Serif" font-size="10.00">getSerializedSpawnCompound()</text>
<text text-anchor="start" x="249" y="-21.5" font-family="Helvetica,sans-Serif" font-size="10.00">+</text>
<text text-anchor="start" x="262" y="-21.5" font-family="Helvetica,sans-Serif" font-size="10.00">getSpawnCompound()</text>
<text text-anchor="start" x="249" y="-6.5" font-family="Helvetica,sans-Serif" font-size="10.00">#</text>
<text text-anchor="start" x="262" y="-6.5" font-family="Helvetica,sans-Serif" font-size="10.00">addAdditionalSpawnData()</text>
<polygon fill="#666666" stroke="#666666" points="245,-102.5 245,-102.5 429,-102.5 429,-102.5 245,-102.5"/>
<polygon fill="#666666" stroke="#666666" points="245,-87.5 245,-87.5 429,-87.5 429,-87.5 245,-87.5"/>
<polygon fill="none" stroke="#666666" points="245,0 245,-131 429,-131 429,0 245,0"/>
</a>
</g>
</g>
<!-- Node2 -->
<g id="Node000002" class="node">
<title>Node2</title>
<g id="a_Node000002"><a xlink:href="../../d9/d74/classpocketmine_1_1block_1_1tile_1_1_tile.html" target="_top" xlink:title=" ">
<polygon fill="white" stroke="transparent" points="409,-457 265,-457 265,-168 409,-168 409,-457"/>
<text text-anchor="start" x="273.5" y="-444.5" font-family="Helvetica,sans-Serif" font-size="10.00">pocketmine\block\tile\Tile</text>
<text text-anchor="start" x="269" y="-429.5" font-family="Helvetica,sans-Serif" font-size="10.00">+</text>
<text text-anchor="start" x="282" y="-429.5" font-family="Helvetica,sans-Serif" font-size="10.00">$closed</text>
<text text-anchor="start" x="269" y="-414.5" font-family="Helvetica,sans-Serif" font-size="10.00">+</text>
<text text-anchor="start" x="282" y="-414.5" font-family="Helvetica,sans-Serif" font-size="10.00">TAG_ID</text>
<text text-anchor="start" x="269" y="-399.5" font-family="Helvetica,sans-Serif" font-size="10.00">+</text>
<text text-anchor="start" x="282" y="-399.5" font-family="Helvetica,sans-Serif" font-size="10.00">TAG_X</text>
<text text-anchor="start" x="269" y="-384.5" font-family="Helvetica,sans-Serif" font-size="10.00">+</text>
<text text-anchor="start" x="282" y="-384.5" font-family="Helvetica,sans-Serif" font-size="10.00">TAG_Y</text>
<text text-anchor="start" x="269" y="-369.5" font-family="Helvetica,sans-Serif" font-size="10.00">+</text>
<text text-anchor="start" x="282" y="-369.5" font-family="Helvetica,sans-Serif" font-size="10.00">TAG_Z</text>
<text text-anchor="start" x="269" y="-354.5" font-family="Helvetica,sans-Serif" font-size="10.00">+</text>
<text text-anchor="start" x="282" y="-354.5" font-family="Helvetica,sans-Serif" font-size="10.00">__construct()</text>
<text text-anchor="start" x="269" y="-339.5" font-family="Helvetica,sans-Serif" font-size="10.00">+</text>
<text text-anchor="start" x="282" y="-339.5" font-family="Helvetica,sans-Serif" font-size="10.00">__destruct()</text>
<text text-anchor="start" x="269" y="-324.5" font-family="Helvetica,sans-Serif" font-size="10.00">+</text>
<text text-anchor="start" x="282" y="-324.5" font-family="Helvetica,sans-Serif" font-size="10.00">close()</text>
<text text-anchor="start" x="269" y="-309.5" font-family="Helvetica,sans-Serif" font-size="10.00">+</text>
<text text-anchor="start" x="282" y="-309.5" font-family="Helvetica,sans-Serif" font-size="10.00">copyDataFromItem()</text>
<text text-anchor="start" x="269" y="-294.5" font-family="Helvetica,sans-Serif" font-size="10.00">+</text>
<text text-anchor="start" x="282" y="-294.5" font-family="Helvetica,sans-Serif" font-size="10.00">getBlock()</text>
<text text-anchor="start" x="269" y="-279.5" font-family="Helvetica,sans-Serif" font-size="10.00">+</text>
<text text-anchor="start" x="282" y="-279.5" font-family="Helvetica,sans-Serif" font-size="10.00">getCleanedNBT()</text>
<text text-anchor="start" x="269" y="-264.5" font-family="Helvetica,sans-Serif" font-size="10.00">+</text>
<text text-anchor="start" x="282" y="-264.5" font-family="Helvetica,sans-Serif" font-size="10.00">getPosition()</text>
<text text-anchor="start" x="269" y="-249.5" font-family="Helvetica,sans-Serif" font-size="10.00">+</text>
<text text-anchor="start" x="282" y="-249.5" font-family="Helvetica,sans-Serif" font-size="10.00">isClosed()</text>
<text text-anchor="start" x="269" y="-234.5" font-family="Helvetica,sans-Serif" font-size="10.00">+</text>
<text text-anchor="start" x="282" y="-234.5" font-family="Helvetica,sans-Serif" font-size="10.00">onBlockDestroyed()</text>
<text text-anchor="start" x="269" y="-219.5" font-family="Helvetica,sans-Serif" font-size="10.00">+</text>
<text text-anchor="start" x="282" y="-219.5" font-family="Helvetica,sans-Serif" font-size="10.00">readSaveData()</text>
<text text-anchor="start" x="269" y="-204.5" font-family="Helvetica,sans-Serif" font-size="10.00">+</text>
<text text-anchor="start" x="282" y="-204.5" font-family="Helvetica,sans-Serif" font-size="10.00">saveNBT()</text>
<text text-anchor="start" x="269" y="-189.5" font-family="Helvetica,sans-Serif" font-size="10.00">#</text>
<text text-anchor="start" x="282" y="-189.5" font-family="Helvetica,sans-Serif" font-size="10.00">onBlockDestroyedHook()</text>
<text text-anchor="start" x="269" y="-174.5" font-family="Helvetica,sans-Serif" font-size="10.00">#</text>
<text text-anchor="start" x="282" y="-174.5" font-family="Helvetica,sans-Serif" font-size="10.00">writeSaveData()</text>
<polygon fill="#bfbfbf" stroke="#bfbfbf" points="265,-439.5 265,-439.5 409,-439.5 409,-439.5 265,-439.5"/>
<polygon fill="#bfbfbf" stroke="#bfbfbf" points="265,-364.5 265,-364.5 280,-364.5 280,-364.5 265,-364.5"/>
<polygon fill="#bfbfbf" stroke="#bfbfbf" points="280,-364.5 280,-364.5 409,-364.5 409,-364.5 280,-364.5"/>
<polygon fill="none" stroke="#bfbfbf" points="265,-168 265,-457 409,-457 409,-168 265,-168"/>
</a>
</g>
</g>
<!-- Node2&#45;&gt;Node1 -->
<g id="edge1_Node000001_Node000002" class="edge">
<title>Node2&#45;&gt;Node1</title>
<g id="a_edge1_Node000001_Node000002"><a xlink:title=" ">
<path fill="none" stroke="#63b8ff" d="M337,-157.84C337,-148.64 337,-139.68 337,-131.21"/>
<polygon fill="none" stroke="#63b8ff" points="333.5,-157.92 337,-167.92 340.5,-157.92 333.5,-157.92"/>
</a>
</g>
</g>
<!-- Node3 -->
<g id="Node000003" class="node">
<title>Node3</title>
<g id="a_Node000003"><a xlink:href="../../d5/dd2/classpocketmine_1_1world_1_1_position.html" target="_top" xlink:title=" ">
<polygon fill="white" stroke="transparent" points="346,-658 206,-658 206,-504 346,-504 346,-658"/>
<text text-anchor="start" x="211" y="-646" font-family="Helvetica,sans-Serif" font-size="10.00">pocketmine\world\Position</text>
<text text-anchor="start" x="274" y="-631" font-family="Helvetica,sans-Serif" font-size="10.00"> </text>
<text text-anchor="start" x="223.5" y="-616" font-family="Helvetica,sans-Serif" font-size="10.00">+</text>
<text text-anchor="start" x="250" y="-616" font-family="Helvetica,sans-Serif" font-size="10.00">__construct()</text>
<text text-anchor="start" x="223.5" y="-601" font-family="Helvetica,sans-Serif" font-size="10.00">+</text>
<text text-anchor="start" x="250" y="-601" font-family="Helvetica,sans-Serif" font-size="10.00">__toString()</text>
<text text-anchor="start" x="223.5" y="-586" font-family="Helvetica,sans-Serif" font-size="10.00">+</text>
<text text-anchor="start" x="250" y="-586" font-family="Helvetica,sans-Serif" font-size="10.00">asPosition()</text>
<text text-anchor="start" x="223.5" y="-571" font-family="Helvetica,sans-Serif" font-size="10.00">+</text>
<text text-anchor="start" x="250" y="-571" font-family="Helvetica,sans-Serif" font-size="10.00">equals()</text>
<text text-anchor="start" x="223.5" y="-556" font-family="Helvetica,sans-Serif" font-size="10.00">+</text>
<text text-anchor="start" x="250" y="-556" font-family="Helvetica,sans-Serif" font-size="10.00">getSide()</text>
<text text-anchor="start" x="223.5" y="-541" font-family="Helvetica,sans-Serif" font-size="10.00">+</text>
<text text-anchor="start" x="250" y="-541" font-family="Helvetica,sans-Serif" font-size="10.00">getWorld()</text>
<text text-anchor="start" x="223.5" y="-526" font-family="Helvetica,sans-Serif" font-size="10.00">+</text>
<text text-anchor="start" x="250" y="-526" font-family="Helvetica,sans-Serif" font-size="10.00">isValid()</text>
<text text-anchor="start" x="223.5" y="-511" font-family="Helvetica,sans-Serif" font-size="10.00">+</text>
<text text-anchor="start" x="250" y="-511" font-family="Helvetica,sans-Serif" font-size="10.00">fromObject()</text>
<polygon fill="#bfbfbf" stroke="#bfbfbf" points="206,-641 206,-641 346,-641 346,-641 206,-641"/>
<polygon fill="#bfbfbf" stroke="#bfbfbf" points="206,-626 206,-626 346,-626 346,-626 206,-626"/>
<polygon fill="none" stroke="#bfbfbf" points="206,-504 206,-658 346,-658 346,-504 206,-504"/>
</a>
</g>
</g>
<!-- Node3&#45;&gt;Node2 -->
<g id="edge2_Node000002_Node000003" class="edge">
<title>Node3&#45;&gt;Node2</title>
<g id="a_edge2_Node000002_Node000003"><a xlink:title=" ">
<path fill="none" stroke="#63b8ff" d="M293.4,-503.99C295.93,-492.91 298.62,-481.18 301.36,-469.2"/>
<polygon fill="none" stroke="#63b8ff" points="301.44,-468.86 298.88,-462.12 304.12,-457.16 306.68,-463.9 301.44,-468.86"/>
</a>
</g>
<text text-anchor="middle" x="328.5" y="-478" font-family="Helvetica,sans-Serif" font-size="10.00" fill="grey"> #$position</text>
</g>
<!-- Node4 -->
<g id="Node000004" class="node">
<title>Node4</title>
<g id="a_Node000004"><a xlink:href="../../d2/d90/classpocketmine_1_1math_1_1_vector3.html" target="_top" xlink:title=" ">
<polygon fill="white" stroke="transparent" points="175,-1067 39,-1067 39,-808 175,-808 175,-1067"/>
<text text-anchor="start" x="44" y="-1054.5" font-family="Helvetica,sans-Serif" font-size="10.00">pocketmine\math\Vector3</text>
<text text-anchor="start" x="105" y="-1039.5" font-family="Helvetica,sans-Serif" font-size="10.00"> </text>
<text text-anchor="start" x="49" y="-1024.5" font-family="Helvetica,sans-Serif" font-size="10.00">+</text>
<text text-anchor="start" x="68" y="-1024.5" font-family="Helvetica,sans-Serif" font-size="10.00">__construct()</text>
<text text-anchor="start" x="49" y="-1009.5" font-family="Helvetica,sans-Serif" font-size="10.00">+</text>
<text text-anchor="start" x="68" y="-1009.5" font-family="Helvetica,sans-Serif" font-size="10.00">__toString()</text>
<text text-anchor="start" x="49" y="-994.5" font-family="Helvetica,sans-Serif" font-size="10.00">+</text>
<text text-anchor="start" x="68" y="-994.5" font-family="Helvetica,sans-Serif" font-size="10.00">abs()</text>
<text text-anchor="start" x="49" y="-979.5" font-family="Helvetica,sans-Serif" font-size="10.00">+</text>
<text text-anchor="start" x="68" y="-979.5" font-family="Helvetica,sans-Serif" font-size="10.00">add()</text>
<text text-anchor="start" x="49" y="-964.5" font-family="Helvetica,sans-Serif" font-size="10.00">+</text>
<text text-anchor="start" x="68" y="-964.5" font-family="Helvetica,sans-Serif" font-size="10.00">addVector()</text>
<text text-anchor="start" x="49" y="-949.5" font-family="Helvetica,sans-Serif" font-size="10.00">+</text>
<text text-anchor="start" x="68" y="-949.5" font-family="Helvetica,sans-Serif" font-size="10.00">asVector3()</text>
<text text-anchor="start" x="49" y="-934.5" font-family="Helvetica,sans-Serif" font-size="10.00">+</text>
<text text-anchor="start" x="68" y="-934.5" font-family="Helvetica,sans-Serif" font-size="10.00">ceil()</text>
<text text-anchor="start" x="49" y="-919.5" font-family="Helvetica,sans-Serif" font-size="10.00">+</text>
<text text-anchor="start" x="68" y="-919.5" font-family="Helvetica,sans-Serif" font-size="10.00">cross()</text>
<text text-anchor="start" x="49" y="-904.5" font-family="Helvetica,sans-Serif" font-size="10.00">+</text>
<text text-anchor="start" x="68" y="-904.5" font-family="Helvetica,sans-Serif" font-size="10.00">distance()</text>
<text text-anchor="start" x="49" y="-889.5" font-family="Helvetica,sans-Serif" font-size="10.00">+</text>
<text text-anchor="start" x="68" y="-889.5" font-family="Helvetica,sans-Serif" font-size="10.00">distanceSquared()</text>
<text text-anchor="start" x="68" y="-874.5" font-family="Helvetica,sans-Serif" font-size="10.00">and 32 more...</text>
<text text-anchor="start" x="49" y="-859.5" font-family="Helvetica,sans-Serif" font-size="10.00">+</text>
<text text-anchor="start" x="68" y="-859.5" font-family="Helvetica,sans-Serif" font-size="10.00">maxComponents()</text>
<text text-anchor="start" x="49" y="-844.5" font-family="Helvetica,sans-Serif" font-size="10.00">+</text>
<text text-anchor="start" x="68" y="-844.5" font-family="Helvetica,sans-Serif" font-size="10.00">minComponents()</text>
<text text-anchor="start" x="49" y="-829.5" font-family="Helvetica,sans-Serif" font-size="10.00">+</text>
<text text-anchor="start" x="68" y="-829.5" font-family="Helvetica,sans-Serif" font-size="10.00">sum()</text>
<text text-anchor="start" x="49" y="-814.5" font-family="Helvetica,sans-Serif" font-size="10.00">+</text>
<text text-anchor="start" x="68" y="-814.5" font-family="Helvetica,sans-Serif" font-size="10.00">zero()</text>
<polygon fill="#bfbfbf" stroke="#bfbfbf" points="39,-1049.5 39,-1049.5 175,-1049.5 175,-1049.5 39,-1049.5"/>
<polygon fill="#bfbfbf" stroke="#bfbfbf" points="39,-1034.5 39,-1034.5 175,-1034.5 175,-1034.5 39,-1034.5"/>
<polygon fill="none" stroke="#bfbfbf" points="39,-808 39,-1067 175,-1067 175,-808 39,-808"/>
</a>
</g>
</g>
<!-- Node4&#45;&gt;Node3 -->
<g id="edge3_Node000003_Node000004" class="edge">
<title>Node4&#45;&gt;Node3</title>
<g id="a_edge3_Node000003_Node000004"><a xlink:title=" ">
<path fill="none" stroke="#63b8ff" d="M144.93,-798.22C155.74,-766.77 168.8,-734.09 184,-705 192.28,-689.17 202.52,-673.19 213.14,-658.24"/>
<polygon fill="none" stroke="#63b8ff" points="141.53,-797.33 141.65,-807.93 148.16,-799.58 141.53,-797.33"/>
</a>
</g>
</g>
<!-- Node5 -->
<g id="Node000005" class="node">
<title>Node5</title>
<g id="a_Node000005"><a xlink:href="../../d4/d2b/classpocketmine_1_1world_1_1_world.html" target="_top" xlink:title=" ">
<polygon fill="white" stroke="transparent" points="359,-1170 193,-1170 193,-705 359,-705 359,-1170"/>
<text text-anchor="start" x="217" y="-1157.5" font-family="Helvetica,sans-Serif" font-size="10.00">pocketmine\world\World</text>
<text text-anchor="start" x="197" y="-1142.5" font-family="Helvetica,sans-Serif" font-size="10.00">+</text>
<text text-anchor="start" x="210" y="-1142.5" font-family="Helvetica,sans-Serif" font-size="10.00">$stopTime</text>
<text text-anchor="start" x="197" y="-1127.5" font-family="Helvetica,sans-Serif" font-size="10.00">+</text>
<text text-anchor="start" x="210" y="-1127.5" font-family="Helvetica,sans-Serif" font-size="10.00">$tickRateTime</text>
<text text-anchor="start" x="197" y="-1112.5" font-family="Helvetica,sans-Serif" font-size="10.00">+</text>
<text text-anchor="start" x="210" y="-1112.5" font-family="Helvetica,sans-Serif" font-size="10.00">$updateEntities</text>
<text text-anchor="start" x="197" y="-1097.5" font-family="Helvetica,sans-Serif" font-size="10.00">+</text>
<text text-anchor="start" x="210" y="-1097.5" font-family="Helvetica,sans-Serif" font-size="10.00">DEFAULT_TICKED_BLOCKS</text>
<text text-anchor="start" x="210" y="-1086.5" font-family="Helvetica,sans-Serif" font-size="10.00">_PER_SUBCHUNK_PER_TICK</text>
<text text-anchor="start" x="197" y="-1071.5" font-family="Helvetica,sans-Serif" font-size="10.00">+</text>
<text text-anchor="start" x="210" y="-1071.5" font-family="Helvetica,sans-Serif" font-size="10.00">DIFFICULTY_EASY</text>
<text text-anchor="start" x="197" y="-1056.5" font-family="Helvetica,sans-Serif" font-size="10.00">+</text>
<text text-anchor="start" x="210" y="-1056.5" font-family="Helvetica,sans-Serif" font-size="10.00">DIFFICULTY_HARD</text>
<text text-anchor="start" x="197" y="-1041.5" font-family="Helvetica,sans-Serif" font-size="10.00">+</text>
<text text-anchor="start" x="210" y="-1041.5" font-family="Helvetica,sans-Serif" font-size="10.00">DIFFICULTY_NORMAL</text>
<text text-anchor="start" x="197" y="-1026.5" font-family="Helvetica,sans-Serif" font-size="10.00">+</text>
<text text-anchor="start" x="210" y="-1026.5" font-family="Helvetica,sans-Serif" font-size="10.00">DIFFICULTY_PEACEFUL</text>
<text text-anchor="start" x="197" y="-1011.5" font-family="Helvetica,sans-Serif" font-size="10.00">+</text>
<text text-anchor="start" x="210" y="-1011.5" font-family="Helvetica,sans-Serif" font-size="10.00">TIME_DAY</text>
<text text-anchor="start" x="197" y="-996.5" font-family="Helvetica,sans-Serif" font-size="10.00">+</text>
<text text-anchor="start" x="210" y="-996.5" font-family="Helvetica,sans-Serif" font-size="10.00">TIME_FULL</text>
<text text-anchor="start" x="210" y="-981.5" font-family="Helvetica,sans-Serif" font-size="10.00">and 7 more...</text>
<text text-anchor="start" x="197" y="-966.5" font-family="Helvetica,sans-Serif" font-size="10.00">+</text>
<text text-anchor="start" x="210" y="-966.5" font-family="Helvetica,sans-Serif" font-size="10.00">__construct()</text>
<text text-anchor="start" x="197" y="-951.5" font-family="Helvetica,sans-Serif" font-size="10.00">+</text>
<text text-anchor="start" x="210" y="-951.5" font-family="Helvetica,sans-Serif" font-size="10.00">__debugInfo()</text>
<text text-anchor="start" x="197" y="-936.5" font-family="Helvetica,sans-Serif" font-size="10.00">+</text>
<text text-anchor="start" x="210" y="-936.5" font-family="Helvetica,sans-Serif" font-size="10.00">addEntity()</text>
<text text-anchor="start" x="197" y="-921.5" font-family="Helvetica,sans-Serif" font-size="10.00">+</text>
<text text-anchor="start" x="210" y="-921.5" font-family="Helvetica,sans-Serif" font-size="10.00">addOnUnloadCallback()</text>
<text text-anchor="start" x="197" y="-906.5" font-family="Helvetica,sans-Serif" font-size="10.00">+</text>
<text text-anchor="start" x="210" y="-906.5" font-family="Helvetica,sans-Serif" font-size="10.00">addParticle()</text>
<text text-anchor="start" x="197" y="-891.5" font-family="Helvetica,sans-Serif" font-size="10.00">+</text>
<text text-anchor="start" x="210" y="-891.5" font-family="Helvetica,sans-Serif" font-size="10.00">addRandomTickedBlock()</text>
<text text-anchor="start" x="197" y="-876.5" font-family="Helvetica,sans-Serif" font-size="10.00">+</text>
<text text-anchor="start" x="210" y="-876.5" font-family="Helvetica,sans-Serif" font-size="10.00">addSound()</text>
<text text-anchor="start" x="197" y="-861.5" font-family="Helvetica,sans-Serif" font-size="10.00">+</text>
<text text-anchor="start" x="210" y="-861.5" font-family="Helvetica,sans-Serif" font-size="10.00">addTile()</text>
<text text-anchor="start" x="197" y="-846.5" font-family="Helvetica,sans-Serif" font-size="10.00">+</text>
<text text-anchor="start" x="210" y="-846.5" font-family="Helvetica,sans-Serif" font-size="10.00">broadcastPacketToViewers()</text>
<text text-anchor="start" x="197" y="-831.5" font-family="Helvetica,sans-Serif" font-size="10.00">+</text>
<text text-anchor="start" x="210" y="-831.5" font-family="Helvetica,sans-Serif" font-size="10.00">cancelUnloadChunkRequest()</text>
<text text-anchor="start" x="210" y="-816.5" font-family="Helvetica,sans-Serif" font-size="10.00">and 121 more...</text>
<text text-anchor="start" x="197" y="-801.5" font-family="Helvetica,sans-Serif" font-size="10.00">+</text>
<text text-anchor="start" x="210" y="-801.5" font-family="Helvetica,sans-Serif" font-size="10.00">blockHash()</text>
<text text-anchor="start" x="197" y="-786.5" font-family="Helvetica,sans-Serif" font-size="10.00">+</text>
<text text-anchor="start" x="210" y="-786.5" font-family="Helvetica,sans-Serif" font-size="10.00">chunkBlockHash()</text>
<text text-anchor="start" x="197" y="-771.5" font-family="Helvetica,sans-Serif" font-size="10.00">+</text>
<text text-anchor="start" x="210" y="-771.5" font-family="Helvetica,sans-Serif" font-size="10.00">chunkHash()</text>
<text text-anchor="start" x="197" y="-756.5" font-family="Helvetica,sans-Serif" font-size="10.00">+</text>
<text text-anchor="start" x="210" y="-756.5" font-family="Helvetica,sans-Serif" font-size="10.00">getBlockXYZ()</text>
<text text-anchor="start" x="197" y="-741.5" font-family="Helvetica,sans-Serif" font-size="10.00">+</text>
<text text-anchor="start" x="210" y="-741.5" font-family="Helvetica,sans-Serif" font-size="10.00">getDifficultyFromString()</text>
<text text-anchor="start" x="197" y="-726.5" font-family="Helvetica,sans-Serif" font-size="10.00">+</text>
<text text-anchor="start" x="210" y="-726.5" font-family="Helvetica,sans-Serif" font-size="10.00">getXZ()</text>
<text text-anchor="start" x="197" y="-711.5" font-family="Helvetica,sans-Serif" font-size="10.00">#</text>
<text text-anchor="start" x="210" y="-711.5" font-family="Helvetica,sans-Serif" font-size="10.00">actuallyDoTick()</text>
<polygon fill="#666666" stroke="#666666" points="193,-1152.5 193,-1152.5 359,-1152.5 359,-1152.5 193,-1152.5"/>
<polygon fill="#666666" stroke="#666666" points="193,-976.5 193,-976.5 208,-976.5 208,-976.5 193,-976.5"/>
<polygon fill="#666666" stroke="#666666" points="208,-976.5 208,-976.5 359,-976.5 359,-976.5 208,-976.5"/>
<polygon fill="none" stroke="#666666" points="193,-705 193,-1170 359,-1170 359,-705 193,-705"/>
</a>
</g>
</g>
<!-- Node5&#45;&gt;Node3 -->
<g id="edge4_Node000003_Node000005" class="edge">
<title>Node5&#45;&gt;Node3</title>
<g id="a_edge4_Node000003_Node000005"><a xlink:title=" ">
<path fill="none" stroke="#63b8ff" d="M276,-704.99C276,-692.96 276,-681.31 276,-670.27"/>
<polygon fill="none" stroke="#63b8ff" points="276,-670.09 272,-664.09 276,-658.09 280,-664.09 276,-670.09"/>
</a>
</g>
<text text-anchor="middle" x="298.5" y="-679" font-family="Helvetica,sans-Serif" font-size="10.00" fill="grey"> +$world</text>
</g>
<!-- Node6 -->
<g id="Node000006" class="node">
<title>Node6</title>
<g id="a_Node000006"><a xlink:href="../../d0/d03/interfacepocketmine_1_1world_1_1_chunk_manager.html" target="_top" xlink:title=" ">
<polygon fill="white" stroke="transparent" points="174,-1412 0,-1412 0,-1273 174,-1273 174,-1412"/>
<text text-anchor="start" x="5" y="-1399.5" font-family="Helvetica,sans-Serif" font-size="10.00">pocketmine\world\ChunkManager</text>
<text text-anchor="start" x="85" y="-1384.5" font-family="Helvetica,sans-Serif" font-size="10.00"> </text>
<text text-anchor="start" x="27" y="-1369.5" font-family="Helvetica,sans-Serif" font-size="10.00">+</text>
<text text-anchor="start" x="63" y="-1369.5" font-family="Helvetica,sans-Serif" font-size="10.00">getBlockAt()</text>
<text text-anchor="start" x="27" y="-1354.5" font-family="Helvetica,sans-Serif" font-size="10.00">+</text>
<text text-anchor="start" x="63" y="-1354.5" font-family="Helvetica,sans-Serif" font-size="10.00">getChunk()</text>
<text text-anchor="start" x="27" y="-1339.5" font-family="Helvetica,sans-Serif" font-size="10.00">+</text>
<text text-anchor="start" x="63" y="-1339.5" font-family="Helvetica,sans-Serif" font-size="10.00">getMaxY()</text>
<text text-anchor="start" x="27" y="-1324.5" font-family="Helvetica,sans-Serif" font-size="10.00">+</text>
<text text-anchor="start" x="63" y="-1324.5" font-family="Helvetica,sans-Serif" font-size="10.00">getMinY()</text>
<text text-anchor="start" x="27" y="-1309.5" font-family="Helvetica,sans-Serif" font-size="10.00">+</text>
<text text-anchor="start" x="63" y="-1309.5" font-family="Helvetica,sans-Serif" font-size="10.00">isInWorld()</text>
<text text-anchor="start" x="27" y="-1294.5" font-family="Helvetica,sans-Serif" font-size="10.00">+</text>
<text text-anchor="start" x="63" y="-1294.5" font-family="Helvetica,sans-Serif" font-size="10.00">setBlockAt()</text>
<text text-anchor="start" x="27" y="-1279.5" font-family="Helvetica,sans-Serif" font-size="10.00">+</text>
<text text-anchor="start" x="63" y="-1279.5" font-family="Helvetica,sans-Serif" font-size="10.00">setChunk()</text>
<polygon fill="#bfbfbf" stroke="#bfbfbf" points="0,-1394.5 0,-1394.5 174,-1394.5 174,-1394.5 0,-1394.5"/>
<polygon fill="#bfbfbf" stroke="#bfbfbf" points="0,-1379.5 0,-1379.5 174,-1379.5 174,-1379.5 0,-1379.5"/>
<polygon fill="none" stroke="#bfbfbf" points="0,-1273 0,-1412 174,-1412 174,-1273 0,-1273"/>
</a>
</g>
</g>
<!-- Node6&#45;&gt;Node5 -->
<g id="edge5_Node000005_Node000006" class="edge">
<title>Node6&#45;&gt;Node5</title>
<g id="a_edge5_Node000005_Node000006"><a xlink:title=" ">
<path fill="none" stroke="#63b8ff" d="M133.74,-1264.11C150.49,-1235.06 168.94,-1201.46 184,-1170 186.99,-1163.76 189.96,-1157.39 192.91,-1150.94"/>
<polygon fill="none" stroke="#63b8ff" points="130.59,-1262.56 128.6,-1272.97 136.65,-1266.07 130.59,-1262.56"/>
</a>
</g>
</g>
<!-- Node7 -->
<g id="Node000007" class="node">
<title>Node7</title>
<g id="a_Node000007"><a xlink:href="../../d7/d08/classpocketmine_1_1world_1_1_world_timings.html" target="_top" xlink:title=" ">
<polygon fill="white" stroke="transparent" points="359.5,-1468 192.5,-1468 192.5,-1217 359.5,-1217 359.5,-1468"/>
<text text-anchor="start" x="198" y="-1455.5" font-family="Helvetica,sans-Serif" font-size="10.00">pocketmine\world\WorldTimings</text>
<text text-anchor="start" x="197" y="-1440.5" font-family="Helvetica,sans-Serif" font-size="10.00">+</text>
<text text-anchor="start" x="210" y="-1440.5" font-family="Helvetica,sans-Serif" font-size="10.00">$randomChunkUpdatesChunk</text>
<text text-anchor="start" x="210" y="-1429.5" font-family="Helvetica,sans-Serif" font-size="10.00">Selection</text>
<text text-anchor="start" x="197" y="-1414.5" font-family="Helvetica,sans-Serif" font-size="10.00">+</text>
<text text-anchor="start" x="210" y="-1414.5" font-family="Helvetica,sans-Serif" font-size="10.00">$scheduledBlockUpdates</text>
<text text-anchor="start" x="197" y="-1399.5" font-family="Helvetica,sans-Serif" font-size="10.00">+</text>
<text text-anchor="start" x="210" y="-1399.5" font-family="Helvetica,sans-Serif" font-size="10.00">$setBlock</text>
<text text-anchor="start" x="197" y="-1384.5" font-family="Helvetica,sans-Serif" font-size="10.00">+</text>
<text text-anchor="start" x="210" y="-1384.5" font-family="Helvetica,sans-Serif" font-size="10.00">$syncChunkLoad</text>
<text text-anchor="start" x="197" y="-1369.5" font-family="Helvetica,sans-Serif" font-size="10.00">+</text>
<text text-anchor="start" x="210" y="-1369.5" font-family="Helvetica,sans-Serif" font-size="10.00">$syncChunkLoadData</text>
<text text-anchor="start" x="197" y="-1354.5" font-family="Helvetica,sans-Serif" font-size="10.00">+</text>
<text text-anchor="start" x="210" y="-1354.5" font-family="Helvetica,sans-Serif" font-size="10.00">$syncChunkLoadEntities</text>
<text text-anchor="start" x="197" y="-1339.5" font-family="Helvetica,sans-Serif" font-size="10.00">+</text>
<text text-anchor="start" x="210" y="-1339.5" font-family="Helvetica,sans-Serif" font-size="10.00">$syncChunkLoadFixInvalid</text>
<text text-anchor="start" x="210" y="-1328.5" font-family="Helvetica,sans-Serif" font-size="10.00">Blocks</text>
<text text-anchor="start" x="197" y="-1313.5" font-family="Helvetica,sans-Serif" font-size="10.00">+</text>
<text text-anchor="start" x="210" y="-1313.5" font-family="Helvetica,sans-Serif" font-size="10.00">$syncChunkLoadTileEntities</text>
<text text-anchor="start" x="197" y="-1298.5" font-family="Helvetica,sans-Serif" font-size="10.00">+</text>
<text text-anchor="start" x="210" y="-1298.5" font-family="Helvetica,sans-Serif" font-size="10.00">$syncChunkSave</text>
<text text-anchor="start" x="197" y="-1283.5" font-family="Helvetica,sans-Serif" font-size="10.00">+</text>
<text text-anchor="start" x="210" y="-1283.5" font-family="Helvetica,sans-Serif" font-size="10.00">$syncChunkSend</text>
<text text-anchor="start" x="197" y="-1268.5" font-family="Helvetica,sans-Serif" font-size="10.00">+</text>
<text text-anchor="start" x="210" y="-1268.5" font-family="Helvetica,sans-Serif" font-size="10.00">$syncChunkSendPrepare</text>
<text text-anchor="start" x="197" y="-1253.5" font-family="Helvetica,sans-Serif" font-size="10.00">+</text>
<text text-anchor="start" x="210" y="-1253.5" font-family="Helvetica,sans-Serif" font-size="10.00">$syncDataSave</text>
<text text-anchor="start" x="197" y="-1238.5" font-family="Helvetica,sans-Serif" font-size="10.00">+</text>
<text text-anchor="start" x="210" y="-1238.5" font-family="Helvetica,sans-Serif" font-size="10.00">$tileTick</text>
<text text-anchor="start" x="197" y="-1223.5" font-family="Helvetica,sans-Serif" font-size="10.00">+</text>
<text text-anchor="start" x="210" y="-1223.5" font-family="Helvetica,sans-Serif" font-size="10.00">__construct()</text>
<polygon fill="#bfbfbf" stroke="#bfbfbf" points="193,-1450.5 193,-1450.5 360,-1450.5 360,-1450.5 193,-1450.5"/>
<polygon fill="#bfbfbf" stroke="#bfbfbf" points="193,-1233.5 193,-1233.5 208,-1233.5 208,-1233.5 193,-1233.5"/>
<polygon fill="#bfbfbf" stroke="#bfbfbf" points="208,-1233.5 208,-1233.5 360,-1233.5 360,-1233.5 208,-1233.5"/>
<polygon fill="none" stroke="#bfbfbf" points="192.5,-1217 192.5,-1468 359.5,-1468 359.5,-1217 192.5,-1217"/>
</a>
</g>
</g>
<!-- Node7&#45;&gt;Node5 -->
<g id="edge6_Node000005_Node000007" class="edge">
<title>Node7&#45;&gt;Node5</title>
<g id="a_edge6_Node000005_Node000007"><a xlink:title=" ">
<path fill="none" stroke="#63b8ff" d="M276,-1216.75C276,-1205.6 276,-1194.08 276,-1182.35"/>
<polygon fill="none" stroke="#63b8ff" points="276,-1182.07 272,-1176.07 276,-1170.07 280,-1176.07 276,-1182.07"/>
</a>
</g>
<text text-anchor="middle" x="303.5" y="-1191" font-family="Helvetica,sans-Serif" font-size="10.00" fill="grey"> +$timings</text>
</g>
<!-- Node8 -->
<g id="Node000008" class="node">
<title>Node8</title>
<g id="a_Node000008"><a xlink:href="../../d7/d9b/classpocketmine_1_1timings_1_1_timings_handler.html" target="_top" xlink:title=" ">
<polygon fill="white" stroke="transparent" points="417,-1925 257,-1925 257,-1625 417,-1625 417,-1925"/>
<text text-anchor="start" x="288.5" y="-1913" font-family="Helvetica,sans-Serif" font-size="10.00">pocketmine\timings</text>
<text text-anchor="start" x="296.5" y="-1902" font-family="Helvetica,sans-Serif" font-size="10.00">\TimingsHandler</text>
<text text-anchor="start" x="335" y="-1887" font-family="Helvetica,sans-Serif" font-size="10.00"> </text>
<text text-anchor="start" x="261" y="-1872" font-family="Helvetica,sans-Serif" font-size="10.00">+</text>
<text text-anchor="start" x="274" y="-1872" font-family="Helvetica,sans-Serif" font-size="10.00">__construct()</text>
<text text-anchor="start" x="261" y="-1857" font-family="Helvetica,sans-Serif" font-size="10.00">+</text>
<text text-anchor="start" x="274" y="-1857" font-family="Helvetica,sans-Serif" font-size="10.00">getGroup()</text>
<text text-anchor="start" x="261" y="-1842" font-family="Helvetica,sans-Serif" font-size="10.00">+</text>
<text text-anchor="start" x="274" y="-1842" font-family="Helvetica,sans-Serif" font-size="10.00">getName()</text>
<text text-anchor="start" x="261" y="-1827" font-family="Helvetica,sans-Serif" font-size="10.00">+</text>
<text text-anchor="start" x="274" y="-1827" font-family="Helvetica,sans-Serif" font-size="10.00">reset()</text>
<text text-anchor="start" x="261" y="-1812" font-family="Helvetica,sans-Serif" font-size="10.00">+</text>
<text text-anchor="start" x="274" y="-1812" font-family="Helvetica,sans-Serif" font-size="10.00">startTiming()</text>
<text text-anchor="start" x="261" y="-1797" font-family="Helvetica,sans-Serif" font-size="10.00">+</text>
<text text-anchor="start" x="274" y="-1797" font-family="Helvetica,sans-Serif" font-size="10.00">stopTiming()</text>
<text text-anchor="start" x="261" y="-1782" font-family="Helvetica,sans-Serif" font-size="10.00">+</text>
<text text-anchor="start" x="274" y="-1782" font-family="Helvetica,sans-Serif" font-size="10.00">time()</text>
<text text-anchor="start" x="261" y="-1767" font-family="Helvetica,sans-Serif" font-size="10.00">+</text>
<text text-anchor="start" x="274" y="-1767" font-family="Helvetica,sans-Serif" font-size="10.00">getCollectCallbacks()</text>
<text text-anchor="start" x="261" y="-1752" font-family="Helvetica,sans-Serif" font-size="10.00">+</text>
<text text-anchor="start" x="274" y="-1752" font-family="Helvetica,sans-Serif" font-size="10.00">getReloadCallbacks()</text>
<text text-anchor="start" x="261" y="-1737" font-family="Helvetica,sans-Serif" font-size="10.00">+</text>
<text text-anchor="start" x="274" y="-1737" font-family="Helvetica,sans-Serif" font-size="10.00">getStartTime()</text>
<text text-anchor="start" x="261" y="-1722" font-family="Helvetica,sans-Serif" font-size="10.00">+</text>
<text text-anchor="start" x="274" y="-1722" font-family="Helvetica,sans-Serif" font-size="10.00">getToggleCallbacks()</text>
<text text-anchor="start" x="261" y="-1707" font-family="Helvetica,sans-Serif" font-size="10.00">+</text>
<text text-anchor="start" x="274" y="-1707" font-family="Helvetica,sans-Serif" font-size="10.00">isEnabled()</text>
<text text-anchor="start" x="261" y="-1692" font-family="Helvetica,sans-Serif" font-size="10.00">+</text>
<text text-anchor="start" x="274" y="-1692" font-family="Helvetica,sans-Serif" font-size="10.00">printCurrentThreadRecords()</text>
<text text-anchor="start" x="261" y="-1677" font-family="Helvetica,sans-Serif" font-size="10.00">+</text>
<text text-anchor="start" x="274" y="-1677" font-family="Helvetica,sans-Serif" font-size="10.00">reload()</text>
<text text-anchor="start" x="261" y="-1662" font-family="Helvetica,sans-Serif" font-size="10.00">+</text>
<text text-anchor="start" x="274" y="-1662" font-family="Helvetica,sans-Serif" font-size="10.00">requestPrintTimings()</text>
<text text-anchor="start" x="261" y="-1647" font-family="Helvetica,sans-Serif" font-size="10.00">+</text>
<text text-anchor="start" x="274" y="-1647" font-family="Helvetica,sans-Serif" font-size="10.00">setEnabled()</text>
<text text-anchor="start" x="261" y="-1632" font-family="Helvetica,sans-Serif" font-size="10.00">+</text>
<text text-anchor="start" x="274" y="-1632" font-family="Helvetica,sans-Serif" font-size="10.00">tick()</text>
<polygon fill="#666666" stroke="#666666" points="257,-1897 257,-1897 417,-1897 417,-1897 257,-1897"/>
<polygon fill="#666666" stroke="#666666" points="257,-1882 257,-1882 417,-1882 417,-1882 257,-1882"/>
<polygon fill="none" stroke="#666666" points="257,-1625 257,-1925 417,-1925 417,-1625 257,-1625"/>
</a>
</g>
</g>
<!-- Node8&#45;&gt;Node2 -->
<g id="edge8_Node000002_Node000008" class="edge">
<title>Node8&#45;&gt;Node2</title>
<g id="a_edge8_Node000002_Node000008"><a xlink:title=" ">
<path fill="none" stroke="#63b8ff" d="M403.41,-1624.62C405.11,-1618.72 406.65,-1612.83 408,-1607 434.46,-1492.75 422,-1460.78 422,-1343.5 422,-1343.5 422,-1343.5 422,-580 422,-543.08 414.5,-504.59 403.96,-468.71"/>
<polygon fill="none" stroke="#63b8ff" points="403.94,-468.64 398.37,-464.06 400.44,-457.16 406.02,-461.73 403.94,-468.64"/>
</a>
</g>
<text text-anchor="middle" x="449.5" y="-935" font-family="Helvetica,sans-Serif" font-size="10.00" fill="grey"> #$timings</text>
</g>
<!-- Node8&#45;&gt;Node7 -->
<g id="edge7_Node000007_Node000008" class="edge">
<title>Node8&#45;&gt;Node7</title>
<g id="a_edge7_Node000007_Node000008"><a xlink:title=" ">
<path fill="none" stroke="#63b8ff" d="M257.83,-1624.57C256.01,-1618.71 254.39,-1612.84 253,-1607 243.35,-1566.33 243.47,-1521.28 247.63,-1480.09"/>
<polygon fill="none" stroke="#63b8ff" points="247.65,-1479.94 244.33,-1473.54 248.97,-1468.02 252.29,-1474.42 247.65,-1479.94"/>
</a>
</g>
<text text-anchor="middle" x="330.5" y="-1599" font-family="Helvetica,sans-Serif" font-size="10.00" fill="grey"> +$chunkPopulationCompletion</text>
<text text-anchor="middle" x="330.5" y="-1588" font-family="Helvetica,sans-Serif" font-size="10.00" fill="grey">+$chunkPopulationOrder</text>
<text text-anchor="middle" x="330.5" y="-1577" font-family="Helvetica,sans-Serif" font-size="10.00" fill="grey">+$doBlockLightUpdates</text>
<text text-anchor="middle" x="330.5" y="-1566" font-family="Helvetica,sans-Serif" font-size="10.00" fill="grey">+$doBlockSkyLightUpdates</text>
<text text-anchor="middle" x="330.5" y="-1555" font-family="Helvetica,sans-Serif" font-size="10.00" fill="grey">+$doChunkGC</text>
<text text-anchor="middle" x="330.5" y="-1544" font-family="Helvetica,sans-Serif" font-size="10.00" fill="grey">+$doChunkUnload</text>
<text text-anchor="middle" x="330.5" y="-1533" font-family="Helvetica,sans-Serif" font-size="10.00" fill="grey">+$doTick</text>
<text text-anchor="middle" x="330.5" y="-1522" font-family="Helvetica,sans-Serif" font-size="10.00" fill="grey">+$entityTick</text>
<text text-anchor="middle" x="330.5" y="-1511" font-family="Helvetica,sans-Serif" font-size="10.00" fill="grey">+$neighbourBlockUpdates</text>
<text text-anchor="middle" x="330.5" y="-1500" font-family="Helvetica,sans-Serif" font-size="10.00" fill="grey">+$randomChunkUpdates</text>
<text text-anchor="middle" x="330.5" y="-1489" font-family="Helvetica,sans-Serif" font-size="10.00" fill="grey">...</text>
</g>
</g>
</svg>

<g id="navigator" transform="translate(0 0)" fill="#404254">
  <rect fill="#f2f5e9" fill-opacity="0.5" stroke="#606060" stroke-width=".5" x="0" y="0" width="60" height="60"/>
  <use id="zoomplus" xlink:href="#zoomPlus" x="17" y="9" onmousedown="handleZoom(evt,'in')"/>
  <use id="zoomminus" xlink:href="#zoomMin" x="42" y="9" onmousedown="handleZoom(evt,'out')"/>
  <use id="reset" xlink:href="#resetDef" x="30" y="36" onmousedown="handleReset()"/>
   <use id="arrowup" xlink:href="#arrowUp" x="0" y="0" onmousedown="handlePan(0,-1)"/>
  <use id="arrowright" xlink:href="#arrowRight" x="0" y="0" onmousedown="handlePan(1,0)"/>
  <use id="arrowdown" xlink:href="#arrowDown" x="0" y="0" onmousedown="handlePan(0,1)"/>
  <use id="arrowleft" xlink:href="#arrowLeft" x="0" y="0" onmousedown="handlePan(-1,0)"/>
</g>
<svg viewBox="0 0 15 15" width="100%" height="30px" preserveAspectRatio="xMaxYMin meet">
 <g id="arrow_out" transform="scale(0.3 0.3)">
  <a xlink:href="classpocketmine_1_1block_1_1tile_1_1_spawnable__coll__graph_org.svg" target="_base">
   <rect id="button" ry="5" rx="5" y="6" x="6" height="38" width="38"
        fill="#f2f5e9" fill-opacity="0.5" stroke="#606060" stroke-width="1.0"/>
   <path id="arrow"
     d="M 11.500037,31.436501 C 11.940474,20.09759 22.043105,11.32322 32.158766,21.979434 L 37.068811,17.246167 C 37.068811,17.246167 37.088388,32 37.088388,32 L 22.160133,31.978069 C 22.160133,31.978069 26.997745,27.140456 26.997745,27.140456 C 18.528582,18.264221 13.291696,25.230495 11.500037,31.436501 z"
     style="fill:#404040;"/>
  </a>
 </g>
</svg>

<style type='text/css'>
<![CDATA[
[data-mouse-over-selected='false'] { opacity: 0.7; }
[data-mouse-over-selected='true']  { opacity: 1.0; }
]]>
</style>
<script type="application/ecmascript"><![CDATA[
document.addEventListener('DOMContentLoaded', (event) => {
  highlightEdges();
  highlightAdjacentNodes();
});
]]></script>
</svg>
