<?xml version="1.0" encoding="UTF-8" standalone="no"?>
<!DOCTYPE svg PUBLIC "-//W3C//DTD SVG 1.1//EN"
 "http://www.w3.org/Graphics/SVG/1.1/DTD/svg11.dtd">
<!-- Generated by graphviz version 2.43.0 (0)
 -->
<!-- Title: pocketmine\block\tile\ChiseledBookshelf Pages: 1 -->
<svg width="759pt" height="1648pt"
 viewBox="0.00 0.00 759.00 1648.00" xmlns="http://www.w3.org/2000/svg" xmlns:xlink="http://www.w3.org/1999/xlink">
<g id="graph0" class="graph" transform="scale(1 1) rotate(0) translate(4 1644)">
<title>pocketmine\block\tile\ChiseledBookshelf</title>
<polygon fill="white" stroke="transparent" points="-4,4 -4,-1644 755,-1644 755,4 -4,4"/>
<!-- Node1 -->
<g id="node1" class="node">
<title>Node1</title>
<g id="a_node1"><a xlink:title=" ">
<polygon fill="#bfbfbf" stroke="black" points="492.5,-0.5 492.5,-112.5 614.5,-112.5 614.5,-0.5 492.5,-0.5"/>
<text text-anchor="start" x="500.5" y="-100.5" font-family="Helvetica,sans-Serif" font-size="10.00">pocketmine\block\tile</text>
<text text-anchor="middle" x="553.5" y="-89.5" font-family="Helvetica,sans-Serif" font-size="10.00">\ChiseledBookshelf</text>
<polyline fill="none" stroke="black" points="492.5,-82.5 614.5,-82.5 "/>
<text text-anchor="middle" x="553.5" y="-70.5" font-family="Helvetica,sans-Serif" font-size="10.00"> </text>
<polyline fill="none" stroke="black" points="492.5,-63.5 614.5,-63.5 "/>
<text text-anchor="start" x="500.5" y="-51.5" font-family="Helvetica,sans-Serif" font-size="10.00">+ __construct()</text>
<text text-anchor="start" x="500.5" y="-40.5" font-family="Helvetica,sans-Serif" font-size="10.00">+ getInventory()</text>
<text text-anchor="start" x="500.5" y="-29.5" font-family="Helvetica,sans-Serif" font-size="10.00">+ getRealInventory()</text>
<text text-anchor="start" x="500.5" y="-18.5" font-family="Helvetica,sans-Serif" font-size="10.00">+ readSaveData()</text>
<text text-anchor="start" x="500.5" y="-7.5" font-family="Helvetica,sans-Serif" font-size="10.00">+ writeSaveData()</text>
</a>
</g>
</g>
<!-- Node2 -->
<g id="node2" class="node">
<title>Node2</title>
<g id="a_node2"><a xlink:href="../../d9/d74/classpocketmine_1_1block_1_1tile_1_1_tile.html" target="_top" xlink:title=" ">
<polygon fill="white" stroke="#bfbfbf" points="406.5,-150.5 406.5,-339.5 556.5,-339.5 556.5,-150.5 406.5,-150.5"/>
<text text-anchor="middle" x="481.5" y="-327.5" font-family="Helvetica,sans-Serif" font-size="10.00">pocketmine\block\tile\Tile</text>
<polyline fill="none" stroke="#bfbfbf" points="406.5,-320.5 556.5,-320.5 "/>
<text text-anchor="start" x="414.5" y="-308.5" font-family="Helvetica,sans-Serif" font-size="10.00">+ $closed</text>
<polyline fill="none" stroke="#bfbfbf" points="406.5,-301.5 556.5,-301.5 "/>
<text text-anchor="start" x="414.5" y="-289.5" font-family="Helvetica,sans-Serif" font-size="10.00">+ __construct()</text>
<text text-anchor="start" x="414.5" y="-278.5" font-family="Helvetica,sans-Serif" font-size="10.00">+ __destruct()</text>
<text text-anchor="start" x="414.5" y="-267.5" font-family="Helvetica,sans-Serif" font-size="10.00">+ close()</text>
<text text-anchor="start" x="414.5" y="-256.5" font-family="Helvetica,sans-Serif" font-size="10.00">+ copyDataFromItem()</text>
<text text-anchor="start" x="414.5" y="-245.5" font-family="Helvetica,sans-Serif" font-size="10.00">+ getBlock()</text>
<text text-anchor="start" x="414.5" y="-234.5" font-family="Helvetica,sans-Serif" font-size="10.00">+ getCleanedNBT()</text>
<text text-anchor="start" x="414.5" y="-223.5" font-family="Helvetica,sans-Serif" font-size="10.00">+ getPosition()</text>
<text text-anchor="start" x="414.5" y="-212.5" font-family="Helvetica,sans-Serif" font-size="10.00">+ isClosed()</text>
<text text-anchor="start" x="414.5" y="-201.5" font-family="Helvetica,sans-Serif" font-size="10.00">+ onBlockDestroyed()</text>
<text text-anchor="start" x="414.5" y="-190.5" font-family="Helvetica,sans-Serif" font-size="10.00">+ readSaveData()</text>
<text text-anchor="start" x="414.5" y="-179.5" font-family="Helvetica,sans-Serif" font-size="10.00">+ saveNBT()</text>
<text text-anchor="start" x="414.5" y="-168.5" font-family="Helvetica,sans-Serif" font-size="10.00"># onBlockDestroyedHook()</text>
<text text-anchor="start" x="414.5" y="-157.5" font-family="Helvetica,sans-Serif" font-size="10.00"># writeSaveData()</text>
</a>
</g>
</g>
<!-- Node2&#45;&gt;Node1 -->
<g id="edge1" class="edge">
<title>Node2&#45;&gt;Node1</title>
<path fill="none" stroke="midnightblue" d="M521.24,-141.05C525.03,-131.25 528.76,-121.59 532.26,-112.52"/>
<polygon fill="none" stroke="midnightblue" points="517.94,-139.89 517.61,-150.48 524.47,-142.41 517.94,-139.89"/>
</g>
<!-- Node3 -->
<g id="node3" class="node">
<title>Node3</title>
<g id="a_node3"><a xlink:title=" ">
<polygon fill="white" stroke="#bfbfbf" points="419,-1147.5 419,-1204.5 462,-1204.5 462,-1147.5 419,-1147.5"/>
<text text-anchor="middle" x="440.5" y="-1192.5" font-family="Helvetica,sans-Serif" font-size="10.00">const</text>
<polyline fill="none" stroke="#bfbfbf" points="419,-1185.5 462,-1185.5 "/>
<text text-anchor="middle" x="440.5" y="-1173.5" font-family="Helvetica,sans-Serif" font-size="10.00"> </text>
<polyline fill="none" stroke="#bfbfbf" points="419,-1166.5 462,-1166.5 "/>
<text text-anchor="middle" x="440.5" y="-1154.5" font-family="Helvetica,sans-Serif" font-size="10.00"> </text>
</a>
</g>
</g>
<!-- Node3&#45;&gt;Node2 -->
<g id="edge2" class="edge">
<title>Node3&#45;&gt;Node2</title>
<path fill="none" stroke="#404040" d="M441.72,-1147.45C446.92,-1029.49 467.49,-563.44 476.84,-351.69"/>
<polygon fill="none" stroke="#404040" points="476.84,-351.64 473.11,-345.47 477.37,-339.65 481.1,-345.82 476.84,-351.64"/>
<text text-anchor="middle" x="492" y="-576" font-family="Helvetica,sans-Serif" font-size="10.00"> +TAG_ID</text>
<text text-anchor="middle" x="492" y="-565" font-family="Helvetica,sans-Serif" font-size="10.00">+TAG_X</text>
<text text-anchor="middle" x="492" y="-554" font-family="Helvetica,sans-Serif" font-size="10.00">+TAG_Y</text>
<text text-anchor="middle" x="492" y="-543" font-family="Helvetica,sans-Serif" font-size="10.00">+TAG_Z</text>
</g>
<!-- Node6 -->
<g id="node6" class="node">
<title>Node6</title>
<g id="a_node6"><a xlink:href="../../d4/d2b/classpocketmine_1_1world_1_1_world.html" target="_top" xlink:title=" ">
<polygon fill="white" stroke="black" points="80.5,-602.5 80.5,-912.5 252.5,-912.5 252.5,-602.5 80.5,-602.5"/>
<text text-anchor="middle" x="166.5" y="-900.5" font-family="Helvetica,sans-Serif" font-size="10.00">pocketmine\world\World</text>
<polyline fill="none" stroke="black" points="80.5,-893.5 252.5,-893.5 "/>
<text text-anchor="start" x="88.5" y="-881.5" font-family="Helvetica,sans-Serif" font-size="10.00">+ $stopTime</text>
<text text-anchor="start" x="88.5" y="-870.5" font-family="Helvetica,sans-Serif" font-size="10.00">+ $tickRateTime</text>
<text text-anchor="start" x="88.5" y="-859.5" font-family="Helvetica,sans-Serif" font-size="10.00">+ $updateEntities</text>
<text text-anchor="start" x="88.5" y="-848.5" font-family="Helvetica,sans-Serif" font-size="10.00">+ TIME_SUNRISE</text>
<text text-anchor="start" x="88.5" y="-837.5" font-family="Helvetica,sans-Serif" font-size="10.00">+ TIME_SUNSET</text>
<text text-anchor="start" x="88.5" y="-826.5" font-family="Helvetica,sans-Serif" font-size="10.00">+ Y_MAX</text>
<text text-anchor="start" x="88.5" y="-815.5" font-family="Helvetica,sans-Serif" font-size="10.00">+ Y_MIN</text>
<polyline fill="none" stroke="black" points="80.5,-808.5 252.5,-808.5 "/>
<text text-anchor="start" x="88.5" y="-796.5" font-family="Helvetica,sans-Serif" font-size="10.00">+ __construct()</text>
<text text-anchor="start" x="88.5" y="-785.5" font-family="Helvetica,sans-Serif" font-size="10.00">+ __debugInfo()</text>
<text text-anchor="start" x="88.5" y="-774.5" font-family="Helvetica,sans-Serif" font-size="10.00">+ addEntity()</text>
<text text-anchor="start" x="88.5" y="-763.5" font-family="Helvetica,sans-Serif" font-size="10.00">+ addOnUnloadCallback()</text>
<text text-anchor="start" x="88.5" y="-752.5" font-family="Helvetica,sans-Serif" font-size="10.00">+ addParticle()</text>
<text text-anchor="start" x="88.5" y="-741.5" font-family="Helvetica,sans-Serif" font-size="10.00">+ addRandomTickedBlock()</text>
<text text-anchor="start" x="88.5" y="-730.5" font-family="Helvetica,sans-Serif" font-size="10.00">+ addSound()</text>
<text text-anchor="start" x="88.5" y="-719.5" font-family="Helvetica,sans-Serif" font-size="10.00">+ addTile()</text>
<text text-anchor="start" x="88.5" y="-708.5" font-family="Helvetica,sans-Serif" font-size="10.00">+ broadcastPacketToViewers()</text>
<text text-anchor="start" x="88.5" y="-697.5" font-family="Helvetica,sans-Serif" font-size="10.00">+ cancelUnloadChunkRequest()</text>
<text text-anchor="start" x="88.5" y="-686.5" font-family="Helvetica,sans-Serif" font-size="10.00">and 120 more...</text>
<text text-anchor="start" x="88.5" y="-675.5" font-family="Helvetica,sans-Serif" font-size="10.00">+ blockHash()</text>
<text text-anchor="start" x="88.5" y="-664.5" font-family="Helvetica,sans-Serif" font-size="10.00">+ chunkBlockHash()</text>
<text text-anchor="start" x="88.5" y="-653.5" font-family="Helvetica,sans-Serif" font-size="10.00">+ chunkHash()</text>
<text text-anchor="start" x="88.5" y="-642.5" font-family="Helvetica,sans-Serif" font-size="10.00">+ getBlockXYZ()</text>
<text text-anchor="start" x="88.5" y="-631.5" font-family="Helvetica,sans-Serif" font-size="10.00">+ getDifficultyFromString()</text>
<text text-anchor="start" x="88.5" y="-620.5" font-family="Helvetica,sans-Serif" font-size="10.00">+ getXZ()</text>
<text text-anchor="start" x="88.5" y="-609.5" font-family="Helvetica,sans-Serif" font-size="10.00"># actuallyDoTick()</text>
</a>
</g>
</g>
<!-- Node3&#45;&gt;Node6 -->
<g id="edge7" class="edge">
<title>Node3&#45;&gt;Node6</title>
<path fill="none" stroke="#404040" d="M429.94,-1147.08C420.34,-1125.6 404.05,-1096.97 380.5,-1081 345.3,-1057.12 318.12,-1091.46 286.5,-1063 240.94,-1021.99 268.34,-988.28 246.5,-931 245.6,-928.65 244.69,-926.29 243.76,-923.92"/>
<polygon fill="none" stroke="#404040" points="243.75,-923.89 237.82,-919.8 239.31,-912.75 245.25,-916.84 243.75,-923.89"/>
<text text-anchor="start" x="286.5" y="-1055" font-family="Helvetica,sans-Serif" font-size="10.00"> +DEFAULT_TICKED_BLOCKS</text>
<text text-anchor="middle" x="356.5" y="-1044" font-family="Helvetica,sans-Serif" font-size="10.00">_PER_SUBCHUNK_PER_TICK</text>
<text text-anchor="middle" x="356.5" y="-1033" font-family="Helvetica,sans-Serif" font-size="10.00">+DIFFICULTY_EASY</text>
<text text-anchor="middle" x="356.5" y="-1022" font-family="Helvetica,sans-Serif" font-size="10.00">+DIFFICULTY_HARD</text>
<text text-anchor="middle" x="356.5" y="-1011" font-family="Helvetica,sans-Serif" font-size="10.00">+DIFFICULTY_NORMAL</text>
<text text-anchor="middle" x="356.5" y="-1000" font-family="Helvetica,sans-Serif" font-size="10.00">+DIFFICULTY_PEACEFUL</text>
<text text-anchor="middle" x="356.5" y="-989" font-family="Helvetica,sans-Serif" font-size="10.00">+TIME_DAY</text>
<text text-anchor="middle" x="356.5" y="-978" font-family="Helvetica,sans-Serif" font-size="10.00">+TIME_FULL</text>
<text text-anchor="middle" x="356.5" y="-967" font-family="Helvetica,sans-Serif" font-size="10.00">+TIME_MIDNIGHT</text>
<text text-anchor="middle" x="356.5" y="-956" font-family="Helvetica,sans-Serif" font-size="10.00">+TIME_NIGHT</text>
<text text-anchor="middle" x="356.5" y="-945" font-family="Helvetica,sans-Serif" font-size="10.00">+TIME_NOON</text>
<text text-anchor="middle" x="356.5" y="-934" font-family="Helvetica,sans-Serif" font-size="10.00">...</text>
</g>
<!-- Node10 -->
<g id="node10" class="node">
<title>Node10</title>
<g id="a_node10"><a xlink:href="../../d9/de1/interfacepocketmine_1_1block_1_1tile_1_1_container.html" target="_top" xlink:title=" ">
<polygon fill="white" stroke="#bfbfbf" points="628.5,-718 628.5,-797 750.5,-797 750.5,-718 628.5,-718"/>
<text text-anchor="start" x="636.5" y="-785" font-family="Helvetica,sans-Serif" font-size="10.00">pocketmine\block\tile</text>
<text text-anchor="middle" x="689.5" y="-774" font-family="Helvetica,sans-Serif" font-size="10.00">\Container</text>
<polyline fill="none" stroke="#bfbfbf" points="628.5,-767 750.5,-767 "/>
<text text-anchor="middle" x="689.5" y="-755" font-family="Helvetica,sans-Serif" font-size="10.00"> </text>
<polyline fill="none" stroke="#bfbfbf" points="628.5,-748 750.5,-748 "/>
<text text-anchor="start" x="636.5" y="-736" font-family="Helvetica,sans-Serif" font-size="10.00">+ canOpenWith()</text>
<text text-anchor="start" x="636.5" y="-725" font-family="Helvetica,sans-Serif" font-size="10.00">+ getRealInventory()</text>
</a>
</g>
</g>
<!-- Node3&#45;&gt;Node10 -->
<g id="edge13" class="edge">
<title>Node3&#45;&gt;Node10</title>
<path fill="none" stroke="#404040" d="M460.57,-1147.48C494.35,-1100.59 563.85,-1001.66 614.5,-913 633.98,-878.91 653.26,-839.01 667.4,-808.3"/>
<polygon fill="none" stroke="#404040" points="667.57,-807.93 666.42,-800.81 672.55,-797.01 673.7,-804.13 667.57,-807.93"/>
<text text-anchor="middle" x="636" y="-1000" font-family="Helvetica,sans-Serif" font-size="10.00"> +TAG_ITEMS</text>
<text text-anchor="middle" x="636" y="-989" font-family="Helvetica,sans-Serif" font-size="10.00">+TAG_LOCK</text>
</g>
<!-- Node4 -->
<g id="node4" class="node">
<title>Node4</title>
<g id="a_node4"><a xlink:href="../../d5/dd2/classpocketmine_1_1world_1_1_position.html" target="_top" xlink:title=" ">
<polygon fill="white" stroke="#bfbfbf" points="266.5,-387.5 266.5,-521.5 412.5,-521.5 412.5,-387.5 266.5,-387.5"/>
<text text-anchor="middle" x="339.5" y="-509.5" font-family="Helvetica,sans-Serif" font-size="10.00">pocketmine\world\Position</text>
<polyline fill="none" stroke="#bfbfbf" points="266.5,-502.5 412.5,-502.5 "/>
<text text-anchor="middle" x="339.5" y="-490.5" font-family="Helvetica,sans-Serif" font-size="10.00"> </text>
<polyline fill="none" stroke="#bfbfbf" points="266.5,-483.5 412.5,-483.5 "/>
<text text-anchor="start" x="274.5" y="-471.5" font-family="Helvetica,sans-Serif" font-size="10.00">+ __construct()</text>
<text text-anchor="start" x="274.5" y="-460.5" font-family="Helvetica,sans-Serif" font-size="10.00">+ __toString()</text>
<text text-anchor="start" x="274.5" y="-449.5" font-family="Helvetica,sans-Serif" font-size="10.00">+ asPosition()</text>
<text text-anchor="start" x="274.5" y="-438.5" font-family="Helvetica,sans-Serif" font-size="10.00">+ equals()</text>
<text text-anchor="start" x="274.5" y="-427.5" font-family="Helvetica,sans-Serif" font-size="10.00">+ getSide()</text>
<text text-anchor="start" x="274.5" y="-416.5" font-family="Helvetica,sans-Serif" font-size="10.00">+ getWorld()</text>
<text text-anchor="start" x="274.5" y="-405.5" font-family="Helvetica,sans-Serif" font-size="10.00">+ isValid()</text>
<text text-anchor="start" x="274.5" y="-394.5" font-family="Helvetica,sans-Serif" font-size="10.00">+ fromObject()</text>
</a>
</g>
</g>
<!-- Node4&#45;&gt;Node2 -->
<g id="edge3" class="edge">
<title>Node4&#45;&gt;Node2</title>
<path fill="none" stroke="#404040" d="M355.64,-387.46C359.43,-377.23 364.01,-367.07 369.5,-358 377.56,-344.69 387.53,-331.8 398.17,-319.78"/>
<polygon fill="none" stroke="#404040" points="398.32,-319.63 399.42,-312.5 406.42,-310.78 405.32,-317.9 398.32,-319.63"/>
<text text-anchor="middle" x="398" y="-361" font-family="Helvetica,sans-Serif" font-size="10.00"> #$position</text>
</g>
<!-- Node5 -->
<g id="node5" class="node">
<title>Node5</title>
<g id="a_node5"><a xlink:href="../../d2/d90/classpocketmine_1_1math_1_1_vector3.html" target="_top" xlink:title=" ">
<polygon fill="white" stroke="#bfbfbf" points="270.5,-652 270.5,-863 412.5,-863 412.5,-652 270.5,-652"/>
<text text-anchor="middle" x="341.5" y="-851" font-family="Helvetica,sans-Serif" font-size="10.00">pocketmine\math\Vector3</text>
<polyline fill="none" stroke="#bfbfbf" points="270.5,-844 412.5,-844 "/>
<text text-anchor="middle" x="341.5" y="-832" font-family="Helvetica,sans-Serif" font-size="10.00"> </text>
<polyline fill="none" stroke="#bfbfbf" points="270.5,-825 412.5,-825 "/>
<text text-anchor="start" x="278.5" y="-813" font-family="Helvetica,sans-Serif" font-size="10.00">+ __construct()</text>
<text text-anchor="start" x="278.5" y="-802" font-family="Helvetica,sans-Serif" font-size="10.00">+ __toString()</text>
<text text-anchor="start" x="278.5" y="-791" font-family="Helvetica,sans-Serif" font-size="10.00">+ abs()</text>
<text text-anchor="start" x="278.5" y="-780" font-family="Helvetica,sans-Serif" font-size="10.00">+ add()</text>
<text text-anchor="start" x="278.5" y="-769" font-family="Helvetica,sans-Serif" font-size="10.00">+ addVector()</text>
<text text-anchor="start" x="278.5" y="-758" font-family="Helvetica,sans-Serif" font-size="10.00">+ asVector3()</text>
<text text-anchor="start" x="278.5" y="-747" font-family="Helvetica,sans-Serif" font-size="10.00">+ ceil()</text>
<text text-anchor="start" x="278.5" y="-736" font-family="Helvetica,sans-Serif" font-size="10.00">+ cross()</text>
<text text-anchor="start" x="278.5" y="-725" font-family="Helvetica,sans-Serif" font-size="10.00">+ distance()</text>
<text text-anchor="start" x="278.5" y="-714" font-family="Helvetica,sans-Serif" font-size="10.00">+ distanceSquared()</text>
<text text-anchor="start" x="278.5" y="-703" font-family="Helvetica,sans-Serif" font-size="10.00">and 32 more...</text>
<text text-anchor="start" x="278.5" y="-692" font-family="Helvetica,sans-Serif" font-size="10.00">+ maxComponents()</text>
<text text-anchor="start" x="278.5" y="-681" font-family="Helvetica,sans-Serif" font-size="10.00">+ minComponents()</text>
<text text-anchor="start" x="278.5" y="-670" font-family="Helvetica,sans-Serif" font-size="10.00">+ sum()</text>
<text text-anchor="start" x="278.5" y="-659" font-family="Helvetica,sans-Serif" font-size="10.00">+ zero()</text>
</a>
</g>
</g>
<!-- Node5&#45;&gt;Node4 -->
<g id="edge4" class="edge">
<title>Node5&#45;&gt;Node4</title>
<path fill="none" stroke="midnightblue" d="M340.74,-641.45C340.47,-601.02 340.17,-556.97 339.94,-521.89"/>
<polygon fill="none" stroke="midnightblue" points="337.24,-641.67 340.8,-651.65 344.24,-641.62 337.24,-641.67"/>
</g>
<!-- Node6&#45;&gt;Node4 -->
<g id="edge5" class="edge">
<title>Node6&#45;&gt;Node4</title>
<path fill="none" stroke="#404040" d="M252.75,-606.44C267.51,-580.76 282.28,-555.06 295.34,-532.34"/>
<polygon fill="none" stroke="#404040" points="295.43,-532.19 294.95,-524.99 301.4,-521.78 301.88,-528.98 295.43,-532.19"/>
<text text-anchor="middle" x="311" y="-559.5" font-family="Helvetica,sans-Serif" font-size="10.00"> +$world</text>
</g>
<!-- Node7 -->
<g id="node7" class="node">
<title>Node7</title>
<g id="a_node7"><a xlink:href="../../d0/d03/interfacepocketmine_1_1world_1_1_chunk_manager.html" target="_top" xlink:title=" ">
<polygon fill="white" stroke="#bfbfbf" points="191.5,-1114.5 191.5,-1237.5 371.5,-1237.5 371.5,-1114.5 191.5,-1114.5"/>
<text text-anchor="middle" x="281.5" y="-1225.5" font-family="Helvetica,sans-Serif" font-size="10.00">pocketmine\world\ChunkManager</text>
<polyline fill="none" stroke="#bfbfbf" points="191.5,-1218.5 371.5,-1218.5 "/>
<text text-anchor="middle" x="281.5" y="-1206.5" font-family="Helvetica,sans-Serif" font-size="10.00"> </text>
<polyline fill="none" stroke="#bfbfbf" points="191.5,-1199.5 371.5,-1199.5 "/>
<text text-anchor="start" x="199.5" y="-1187.5" font-family="Helvetica,sans-Serif" font-size="10.00">+ getBlockAt()</text>
<text text-anchor="start" x="199.5" y="-1176.5" font-family="Helvetica,sans-Serif" font-size="10.00">+ getChunk()</text>
<text text-anchor="start" x="199.5" y="-1165.5" font-family="Helvetica,sans-Serif" font-size="10.00">+ getMaxY()</text>
<text text-anchor="start" x="199.5" y="-1154.5" font-family="Helvetica,sans-Serif" font-size="10.00">+ getMinY()</text>
<text text-anchor="start" x="199.5" y="-1143.5" font-family="Helvetica,sans-Serif" font-size="10.00">+ isInWorld()</text>
<text text-anchor="start" x="199.5" y="-1132.5" font-family="Helvetica,sans-Serif" font-size="10.00">+ setBlockAt()</text>
<text text-anchor="start" x="199.5" y="-1121.5" font-family="Helvetica,sans-Serif" font-size="10.00">+ setChunk()</text>
</a>
</g>
</g>
<!-- Node7&#45;&gt;Node6 -->
<g id="edge6" class="edge">
<title>Node7&#45;&gt;Node6</title>
<path fill="none" stroke="midnightblue" d="M262.05,-1104.57C247.57,-1052.12 227.25,-978.51 209.07,-912.66"/>
<polygon fill="none" stroke="midnightblue" points="258.74,-1105.73 264.78,-1114.44 265.49,-1103.87 258.74,-1105.73"/>
</g>
<!-- Node8 -->
<g id="node8" class="node">
<title>Node8</title>
<g id="a_node8"><a xlink:href="../../d7/d08/classpocketmine_1_1world_1_1_world_timings.html" target="_top" xlink:title=" ">
<polygon fill="white" stroke="#bfbfbf" points="0,-1081.5 0,-1270.5 173,-1270.5 173,-1081.5 0,-1081.5"/>
<text text-anchor="middle" x="86.5" y="-1258.5" font-family="Helvetica,sans-Serif" font-size="10.00">pocketmine\world\WorldTimings</text>
<polyline fill="none" stroke="#bfbfbf" points="0,-1251.5 173,-1251.5 "/>
<text text-anchor="start" x="8" y="-1239.5" font-family="Helvetica,sans-Serif" font-size="10.00">+ $scheduledBlockUpdates</text>
<text text-anchor="start" x="8" y="-1228.5" font-family="Helvetica,sans-Serif" font-size="10.00">+ $setBlock</text>
<text text-anchor="start" x="8" y="-1217.5" font-family="Helvetica,sans-Serif" font-size="10.00">+ $syncChunkLoad</text>
<text text-anchor="start" x="8" y="-1206.5" font-family="Helvetica,sans-Serif" font-size="10.00">+ $syncChunkLoadData</text>
<text text-anchor="start" x="8" y="-1195.5" font-family="Helvetica,sans-Serif" font-size="10.00">+ $syncChunkLoadEntities</text>
<text text-anchor="start" x="8" y="-1184.5" font-family="Helvetica,sans-Serif" font-size="10.00">+ $syncChunkLoadFixInvalid</text>
<text text-anchor="start" x="8" y="-1173.5" font-family="Helvetica,sans-Serif" font-size="10.00">Blocks</text>
<text text-anchor="start" x="8" y="-1162.5" font-family="Helvetica,sans-Serif" font-size="10.00">+ $syncChunkLoadTileEntities</text>
<text text-anchor="start" x="8" y="-1151.5" font-family="Helvetica,sans-Serif" font-size="10.00">+ $syncChunkSave</text>
<text text-anchor="start" x="8" y="-1140.5" font-family="Helvetica,sans-Serif" font-size="10.00">+ $syncChunkSend</text>
<text text-anchor="start" x="8" y="-1129.5" font-family="Helvetica,sans-Serif" font-size="10.00">+ $syncChunkSendPrepare</text>
<text text-anchor="start" x="8" y="-1118.5" font-family="Helvetica,sans-Serif" font-size="10.00">+ $syncDataSave</text>
<text text-anchor="start" x="8" y="-1107.5" font-family="Helvetica,sans-Serif" font-size="10.00">+ $tileTick</text>
<polyline fill="none" stroke="#bfbfbf" points="0,-1100.5 173,-1100.5 "/>
<text text-anchor="start" x="8" y="-1088.5" font-family="Helvetica,sans-Serif" font-size="10.00">+ __construct()</text>
</a>
</g>
</g>
<!-- Node8&#45;&gt;Node6 -->
<g id="edge8" class="edge">
<title>Node8&#45;&gt;Node6</title>
<path fill="none" stroke="#404040" d="M104.5,-1081.27C113.37,-1035.11 124.33,-978.04 134.56,-924.8"/>
<polygon fill="none" stroke="#404040" points="134.6,-924.58 131.8,-917.93 136.86,-912.79 139.66,-919.44 134.6,-924.58"/>
<text text-anchor="middle" x="159" y="-994.5" font-family="Helvetica,sans-Serif" font-size="10.00"> +$timings</text>
</g>
<!-- Node9 -->
<g id="node9" class="node">
<title>Node9</title>
<g id="a_node9"><a xlink:href="../../d7/d9b/classpocketmine_1_1timings_1_1_timings_handler.html" target="_top" xlink:title=" ">
<polygon fill="white" stroke="#bfbfbf" points="279,-1439.5 279,-1639.5 392,-1639.5 392,-1439.5 279,-1439.5"/>
<text text-anchor="start" x="287" y="-1627.5" font-family="Helvetica,sans-Serif" font-size="10.00">pocketmine\timings</text>
<text text-anchor="middle" x="335.5" y="-1616.5" font-family="Helvetica,sans-Serif" font-size="10.00">\TimingsHandler</text>
<polyline fill="none" stroke="#bfbfbf" points="279,-1609.5 392,-1609.5 "/>
<text text-anchor="middle" x="335.5" y="-1597.5" font-family="Helvetica,sans-Serif" font-size="10.00"> </text>
<polyline fill="none" stroke="#bfbfbf" points="279,-1590.5 392,-1590.5 "/>
<text text-anchor="start" x="287" y="-1578.5" font-family="Helvetica,sans-Serif" font-size="10.00">+ __construct()</text>
<text text-anchor="start" x="287" y="-1567.5" font-family="Helvetica,sans-Serif" font-size="10.00">+ getGroup()</text>
<text text-anchor="start" x="287" y="-1556.5" font-family="Helvetica,sans-Serif" font-size="10.00">+ getName()</text>
<text text-anchor="start" x="287" y="-1545.5" font-family="Helvetica,sans-Serif" font-size="10.00">+ reset()</text>
<text text-anchor="start" x="287" y="-1534.5" font-family="Helvetica,sans-Serif" font-size="10.00">+ startTiming()</text>
<text text-anchor="start" x="287" y="-1523.5" font-family="Helvetica,sans-Serif" font-size="10.00">+ stopTiming()</text>
<text text-anchor="start" x="287" y="-1512.5" font-family="Helvetica,sans-Serif" font-size="10.00">+ time()</text>
<text text-anchor="start" x="287" y="-1501.5" font-family="Helvetica,sans-Serif" font-size="10.00">+ getStartTime()</text>
<text text-anchor="start" x="287" y="-1490.5" font-family="Helvetica,sans-Serif" font-size="10.00">+ isEnabled()</text>
<text text-anchor="start" x="287" y="-1479.5" font-family="Helvetica,sans-Serif" font-size="10.00">+ printTimings()</text>
<text text-anchor="start" x="287" y="-1468.5" font-family="Helvetica,sans-Serif" font-size="10.00">+ reload()</text>
<text text-anchor="start" x="287" y="-1457.5" font-family="Helvetica,sans-Serif" font-size="10.00">+ setEnabled()</text>
<text text-anchor="start" x="287" y="-1446.5" font-family="Helvetica,sans-Serif" font-size="10.00">+ tick()</text>
</a>
</g>
</g>
<!-- Node9&#45;&gt;Node2 -->
<g id="edge10" class="edge">
<title>Node9&#45;&gt;Node2</title>
<path fill="none" stroke="#404040" d="M392.16,-1486.96C457.34,-1421.72 555.5,-1302.63 555.5,-1177 555.5,-1177 555.5,-1177 555.5,-453.5 555.5,-418.95 546.28,-382.94 534.35,-350.8"/>
<polygon fill="none" stroke="#404040" points="534.35,-350.8 528.46,-346.64 530.03,-339.61 535.93,-343.76 534.35,-350.8"/>
<text text-anchor="middle" x="583" y="-755" font-family="Helvetica,sans-Serif" font-size="10.00"> #$timings</text>
</g>
<!-- Node9&#45;&gt;Node8 -->
<g id="edge9" class="edge">
<title>Node9&#45;&gt;Node8</title>
<path fill="none" stroke="#404040" d="M279,-1456.47C243.06,-1404.29 196.22,-1336.29 157.74,-1280.43"/>
<polygon fill="none" stroke="#404040" points="157.71,-1280.38 151.01,-1277.71 150.9,-1270.5 157.6,-1273.17 157.71,-1280.38"/>
<text text-anchor="middle" x="326" y="-1413" font-family="Helvetica,sans-Serif" font-size="10.00"> +$chunkPopulationCompletion</text>
<text text-anchor="middle" x="326" y="-1402" font-family="Helvetica,sans-Serif" font-size="10.00">+$chunkPopulationOrder</text>
<text text-anchor="middle" x="326" y="-1391" font-family="Helvetica,sans-Serif" font-size="10.00">+$doBlockLightUpdates</text>
<text text-anchor="middle" x="326" y="-1380" font-family="Helvetica,sans-Serif" font-size="10.00">+$doBlockSkyLightUpdates</text>
<text text-anchor="middle" x="326" y="-1369" font-family="Helvetica,sans-Serif" font-size="10.00">+$doChunkGC</text>
<text text-anchor="middle" x="326" y="-1358" font-family="Helvetica,sans-Serif" font-size="10.00">+$doChunkUnload</text>
<text text-anchor="middle" x="326" y="-1347" font-family="Helvetica,sans-Serif" font-size="10.00">+$doTick</text>
<text text-anchor="middle" x="326" y="-1336" font-family="Helvetica,sans-Serif" font-size="10.00">+$entityTick</text>
<text text-anchor="middle" x="326" y="-1325" font-family="Helvetica,sans-Serif" font-size="10.00">+$randomChunkUpdates</text>
<text text-anchor="start" x="248.5" y="-1314" font-family="Helvetica,sans-Serif" font-size="10.00">+$randomChunkUpdatesChunk</text>
<text text-anchor="middle" x="326" y="-1303" font-family="Helvetica,sans-Serif" font-size="10.00">Selection</text>
<text text-anchor="middle" x="326" y="-1292" font-family="Helvetica,sans-Serif" font-size="10.00">...</text>
</g>
<!-- Node10&#45;&gt;Node1 -->
<g id="edge11" class="edge">
<title>Node10&#45;&gt;Node1</title>
<path fill="none" stroke="midnightblue" d="M680.03,-707.8C655.51,-581.8 590.11,-245.65 564.24,-112.72"/>
<polygon fill="none" stroke="midnightblue" points="676.65,-708.78 681.99,-717.92 683.52,-707.44 676.65,-708.78"/>
</g>
<!-- Node11 -->
<g id="node11" class="node">
<title>Node11</title>
<g id="a_node11"><a xlink:href="../../d2/d91/interfacepocketmine_1_1inventory_1_1_inventory_holder.html" target="_top" xlink:title=" ">
<polygon fill="white" stroke="#bfbfbf" points="628,-1142 628,-1210 751,-1210 751,-1142 628,-1142"/>
<text text-anchor="start" x="636" y="-1198" font-family="Helvetica,sans-Serif" font-size="10.00">pocketmine\inventory</text>
<text text-anchor="middle" x="689.5" y="-1187" font-family="Helvetica,sans-Serif" font-size="10.00">\InventoryHolder</text>
<polyline fill="none" stroke="#bfbfbf" points="628,-1180 751,-1180 "/>
<text text-anchor="middle" x="689.5" y="-1168" font-family="Helvetica,sans-Serif" font-size="10.00"> </text>
<polyline fill="none" stroke="#bfbfbf" points="628,-1161 751,-1161 "/>
<text text-anchor="start" x="636" y="-1149" font-family="Helvetica,sans-Serif" font-size="10.00">+ getInventory()</text>
</a>
</g>
</g>
<!-- Node11&#45;&gt;Node10 -->
<g id="edge12" class="edge">
<title>Node11&#45;&gt;Node10</title>
<path fill="none" stroke="midnightblue" d="M689.5,-1131.56C689.5,-1049.97 689.5,-875.03 689.5,-797.21"/>
<polygon fill="none" stroke="midnightblue" points="686,-1131.97 689.5,-1141.97 693,-1131.97 686,-1131.97"/>
</g>
</g>
</svg>
