<?xml version="1.0" encoding="UTF-8" standalone="no"?>
<!DOCTYPE svg PUBLIC "-//W3C//DTD SVG 1.1//EN"
 "http://www.w3.org/Graphics/SVG/1.1/DTD/svg11.dtd">
<!-- Generated by graphviz version 2.43.0 (0)
 -->
<!-- Title: pocketmine\item\Food Pages: 1 -->
<svg width="744pt" height="933pt"
 viewBox="0.00 0.00 744.00 933.00" xmlns="http://www.w3.org/2000/svg" xmlns:xlink="http://www.w3.org/1999/xlink">
<g id="graph0" class="graph" transform="scale(1 1) rotate(0) translate(4 929)">
<title>pocketmine\item\Food</title>
<polygon fill="white" stroke="transparent" points="-4,4 -4,-929 740,-929 740,4 -4,4"/>
<!-- Node1 -->
<g id="node1" class="node">
<title>Node1</title>
<g id="a_node1"><a xlink:title=" ">
<polygon fill="#bfbfbf" stroke="black" points="211,-0.5 211,-101.5 345,-101.5 345,-0.5 211,-0.5"/>
<text text-anchor="middle" x="278" y="-89.5" font-family="Helvetica,sans-Serif" font-size="10.00">pocketmine\item\Food</text>
<polyline fill="none" stroke="black" points="211,-82.5 345,-82.5 "/>
<text text-anchor="middle" x="278" y="-70.5" font-family="Helvetica,sans-Serif" font-size="10.00"> </text>
<polyline fill="none" stroke="black" points="211,-63.5 345,-63.5 "/>
<text text-anchor="start" x="219" y="-51.5" font-family="Helvetica,sans-Serif" font-size="10.00">+ canStartUsingItem()</text>
<text text-anchor="start" x="219" y="-40.5" font-family="Helvetica,sans-Serif" font-size="10.00">+ getAdditionalEffects()</text>
<text text-anchor="start" x="219" y="-29.5" font-family="Helvetica,sans-Serif" font-size="10.00">+ getResidue()</text>
<text text-anchor="start" x="219" y="-18.5" font-family="Helvetica,sans-Serif" font-size="10.00">+ onConsume()</text>
<text text-anchor="start" x="219" y="-7.5" font-family="Helvetica,sans-Serif" font-size="10.00">+ requiresHunger()</text>
</a>
</g>
</g>
<!-- Node2 -->
<g id="node2" class="node">
<title>Node2</title>
<g id="a_node2"><a xlink:href="../../d5/d8a/classpocketmine_1_1item_1_1_item.html" target="_top" xlink:title=" ">
<polygon fill="white" stroke="#bfbfbf" points="106,-139.5 106,-394.5 264,-394.5 264,-139.5 106,-139.5"/>
<text text-anchor="middle" x="185" y="-382.5" font-family="Helvetica,sans-Serif" font-size="10.00">pocketmine\item\Item</text>
<polyline fill="none" stroke="#bfbfbf" points="106,-375.5 264,-375.5 "/>
<text text-anchor="start" x="114" y="-363.5" font-family="Helvetica,sans-Serif" font-size="10.00"># $canDestroy</text>
<text text-anchor="start" x="114" y="-352.5" font-family="Helvetica,sans-Serif" font-size="10.00"># $canPlaceOn</text>
<text text-anchor="start" x="114" y="-341.5" font-family="Helvetica,sans-Serif" font-size="10.00"># $count</text>
<text text-anchor="start" x="114" y="-330.5" font-family="Helvetica,sans-Serif" font-size="10.00"># $customName</text>
<text text-anchor="start" x="114" y="-319.5" font-family="Helvetica,sans-Serif" font-size="10.00"># $lore</text>
<polyline fill="none" stroke="#bfbfbf" points="106,-312.5 264,-312.5 "/>
<text text-anchor="start" x="114" y="-300.5" font-family="Helvetica,sans-Serif" font-size="10.00">+ __construct()</text>
<text text-anchor="start" x="114" y="-289.5" font-family="Helvetica,sans-Serif" font-size="10.00">+ __clone()</text>
<text text-anchor="start" x="114" y="-278.5" font-family="Helvetica,sans-Serif" font-size="10.00">+ __toString()</text>
<text text-anchor="start" x="114" y="-267.5" font-family="Helvetica,sans-Serif" font-size="10.00">+ canBePlaced()</text>
<text text-anchor="start" x="114" y="-256.5" font-family="Helvetica,sans-Serif" font-size="10.00">+ canStackWith()</text>
<text text-anchor="start" x="114" y="-245.5" font-family="Helvetica,sans-Serif" font-size="10.00">+ clearCustomBlockData()</text>
<text text-anchor="start" x="114" y="-234.5" font-family="Helvetica,sans-Serif" font-size="10.00">+ clearCustomName()</text>
<text text-anchor="start" x="114" y="-223.5" font-family="Helvetica,sans-Serif" font-size="10.00">+ clearNamedTag()</text>
<text text-anchor="start" x="114" y="-212.5" font-family="Helvetica,sans-Serif" font-size="10.00">+ equals()</text>
<text text-anchor="start" x="114" y="-201.5" font-family="Helvetica,sans-Serif" font-size="10.00">+ equalsExact()</text>
<text text-anchor="start" x="114" y="-190.5" font-family="Helvetica,sans-Serif" font-size="10.00">and 41 more...</text>
<text text-anchor="start" x="114" y="-179.5" font-family="Helvetica,sans-Serif" font-size="10.00">+ jsonDeserialize()</text>
<text text-anchor="start" x="114" y="-168.5" font-family="Helvetica,sans-Serif" font-size="10.00">+ nbtDeserialize()</text>
<text text-anchor="start" x="114" y="-157.5" font-family="Helvetica,sans-Serif" font-size="10.00"># deserializeCompoundTag()</text>
<text text-anchor="start" x="114" y="-146.5" font-family="Helvetica,sans-Serif" font-size="10.00"># serializeCompoundTag()</text>
</a>
</g>
</g>
<!-- Node2&#45;&gt;Node1 -->
<g id="edge1" class="edge">
<title>Node2&#45;&gt;Node1</title>
<path fill="none" stroke="midnightblue" d="M244.03,-130.16C248.34,-120.26 252.49,-110.71 256.32,-101.89"/>
<polygon fill="none" stroke="midnightblue" points="240.81,-128.78 240.04,-139.35 247.23,-131.57 240.81,-128.78"/>
</g>
<!-- Node3 -->
<g id="node3" class="node">
<title>Node3</title>
<g id="a_node3"><a xlink:title=" ">
<polygon fill="white" stroke="#bfbfbf" points="0,-574.5 0,-631.5 94,-631.5 94,-574.5 0,-574.5"/>
<text text-anchor="middle" x="47" y="-619.5" font-family="Helvetica,sans-Serif" font-size="10.00">JsonSerializable</text>
<polyline fill="none" stroke="#bfbfbf" points="0,-612.5 94,-612.5 "/>
<text text-anchor="middle" x="47" y="-600.5" font-family="Helvetica,sans-Serif" font-size="10.00"> </text>
<polyline fill="none" stroke="#bfbfbf" points="0,-593.5 94,-593.5 "/>
<text text-anchor="middle" x="47" y="-581.5" font-family="Helvetica,sans-Serif" font-size="10.00"> </text>
</a>
</g>
</g>
<!-- Node3&#45;&gt;Node2 -->
<g id="edge2" class="edge">
<title>Node3&#45;&gt;Node2</title>
<path fill="none" stroke="midnightblue" d="M62.26,-565.07C79.21,-524.05 107.5,-455.58 132.65,-394.7"/>
<polygon fill="none" stroke="midnightblue" points="58.99,-563.8 58.41,-574.38 65.46,-566.48 58.99,-563.8"/>
</g>
<!-- Node4 -->
<g id="node4" class="node">
<title>Node4</title>
<g id="a_node4"><a xlink:title=" ">
<polygon fill="white" stroke="#bfbfbf" points="112.5,-574.5 112.5,-631.5 155.5,-631.5 155.5,-574.5 112.5,-574.5"/>
<text text-anchor="middle" x="134" y="-619.5" font-family="Helvetica,sans-Serif" font-size="10.00">const</text>
<polyline fill="none" stroke="#bfbfbf" points="112.5,-612.5 155.5,-612.5 "/>
<text text-anchor="middle" x="134" y="-600.5" font-family="Helvetica,sans-Serif" font-size="10.00"> </text>
<polyline fill="none" stroke="#bfbfbf" points="112.5,-593.5 155.5,-593.5 "/>
<text text-anchor="middle" x="134" y="-581.5" font-family="Helvetica,sans-Serif" font-size="10.00"> </text>
</a>
</g>
</g>
<!-- Node4&#45;&gt;Node2 -->
<g id="edge3" class="edge">
<title>Node4&#45;&gt;Node2</title>
<path fill="none" stroke="#404040" d="M131.34,-574.21C128.43,-537.14 125.36,-469.61 135,-413 135.37,-410.83 135.77,-408.65 136.19,-406.46"/>
<polygon fill="none" stroke="#404040" points="136.2,-406.43 133.53,-399.73 138.69,-394.69 141.36,-401.4 136.2,-406.43"/>
<text text-anchor="middle" x="202" y="-460" font-family="Helvetica,sans-Serif" font-size="10.00"> +TAG_BLOCK_ENTITY_TAG</text>
<text text-anchor="middle" x="202" y="-449" font-family="Helvetica,sans-Serif" font-size="10.00">+TAG_DISPLAY</text>
<text text-anchor="middle" x="202" y="-438" font-family="Helvetica,sans-Serif" font-size="10.00">+TAG_DISPLAY_LORE</text>
<text text-anchor="middle" x="202" y="-427" font-family="Helvetica,sans-Serif" font-size="10.00">+TAG_DISPLAY_NAME</text>
<text text-anchor="middle" x="202" y="-416" font-family="Helvetica,sans-Serif" font-size="10.00">+TAG_ENCH</text>
</g>
<!-- Node5 -->
<g id="node5" class="node">
<title>Node5</title>
<g id="a_node5"><a xlink:href="../../de/d67/classpocketmine_1_1nbt_1_1tag_1_1_compound_tag.html" target="_top" xlink:title=" ">
<polygon fill="white" stroke="black" points="203,-486.5 203,-719.5 323,-719.5 323,-486.5 203,-486.5"/>
<text text-anchor="start" x="211" y="-707.5" font-family="Helvetica,sans-Serif" font-size="10.00">pocketmine\nbt\tag</text>
<text text-anchor="middle" x="263" y="-696.5" font-family="Helvetica,sans-Serif" font-size="10.00">\CompoundTag</text>
<polyline fill="none" stroke="black" points="203,-689.5 323,-689.5 "/>
<text text-anchor="middle" x="263" y="-677.5" font-family="Helvetica,sans-Serif" font-size="10.00"> </text>
<polyline fill="none" stroke="black" points="203,-670.5 323,-670.5 "/>
<text text-anchor="start" x="211" y="-658.5" font-family="Helvetica,sans-Serif" font-size="10.00">+ __construct()</text>
<text text-anchor="start" x="211" y="-647.5" font-family="Helvetica,sans-Serif" font-size="10.00">+ __clone()</text>
<text text-anchor="start" x="211" y="-636.5" font-family="Helvetica,sans-Serif" font-size="10.00">+ count()</text>
<text text-anchor="start" x="211" y="-625.5" font-family="Helvetica,sans-Serif" font-size="10.00">+ equals()</text>
<text text-anchor="start" x="211" y="-614.5" font-family="Helvetica,sans-Serif" font-size="10.00">+ getByte()</text>
<text text-anchor="start" x="211" y="-603.5" font-family="Helvetica,sans-Serif" font-size="10.00">+ getByteArray()</text>
<text text-anchor="start" x="211" y="-592.5" font-family="Helvetica,sans-Serif" font-size="10.00">+ getCompoundTag()</text>
<text text-anchor="start" x="211" y="-581.5" font-family="Helvetica,sans-Serif" font-size="10.00">+ getCount()</text>
<text text-anchor="start" x="211" y="-570.5" font-family="Helvetica,sans-Serif" font-size="10.00">+ getDouble()</text>
<text text-anchor="start" x="211" y="-559.5" font-family="Helvetica,sans-Serif" font-size="10.00">+ getFloat()</text>
<text text-anchor="start" x="211" y="-548.5" font-family="Helvetica,sans-Serif" font-size="10.00">and 23 more...</text>
<text text-anchor="start" x="211" y="-537.5" font-family="Helvetica,sans-Serif" font-size="10.00">+ create()</text>
<text text-anchor="start" x="211" y="-526.5" font-family="Helvetica,sans-Serif" font-size="10.00">+ read()</text>
<text text-anchor="start" x="211" y="-515.5" font-family="Helvetica,sans-Serif" font-size="10.00"># getTypeName()</text>
<text text-anchor="start" x="211" y="-504.5" font-family="Helvetica,sans-Serif" font-size="10.00"># makeCopy()</text>
<text text-anchor="start" x="211" y="-493.5" font-family="Helvetica,sans-Serif" font-size="10.00"># stringifyValue()</text>
</a>
</g>
</g>
<!-- Node5&#45;&gt;Node2 -->
<g id="edge4" class="edge">
<title>Node5&#45;&gt;Node2</title>
<path fill="none" stroke="#404040" d="M277.35,-486.32C277.43,-461.8 275.26,-436.3 269,-413 268.42,-410.83 267.79,-408.66 267.13,-406.49"/>
<polygon fill="none" stroke="#404040" points="267.06,-406.27 261.35,-401.86 263.24,-394.9 268.94,-399.31 267.06,-406.27"/>
<text text-anchor="middle" x="321.5" y="-438" font-family="Helvetica,sans-Serif" font-size="10.00"> #$blockEntityTag</text>
</g>
<!-- Node6 -->
<g id="node6" class="node">
<title>Node6</title>
<g id="a_node6"><a xlink:href="../../dc/d26/classpocketmine_1_1nbt_1_1tag_1_1_tag.html" target="_top" xlink:title=" ">
<polygon fill="white" stroke="#bfbfbf" points="37.5,-757.5 37.5,-924.5 168.5,-924.5 168.5,-757.5 37.5,-757.5"/>
<text text-anchor="middle" x="103" y="-912.5" font-family="Helvetica,sans-Serif" font-size="10.00">pocketmine\nbt\tag\Tag</text>
<polyline fill="none" stroke="#bfbfbf" points="37.5,-905.5 168.5,-905.5 "/>
<text text-anchor="start" x="45.5" y="-893.5" font-family="Helvetica,sans-Serif" font-size="10.00"># $cloning</text>
<polyline fill="none" stroke="#bfbfbf" points="37.5,-886.5 168.5,-886.5 "/>
<text text-anchor="start" x="45.5" y="-874.5" font-family="Helvetica,sans-Serif" font-size="10.00">+ __toString()</text>
<text text-anchor="start" x="45.5" y="-863.5" font-family="Helvetica,sans-Serif" font-size="10.00">+ equals()</text>
<text text-anchor="start" x="45.5" y="-852.5" font-family="Helvetica,sans-Serif" font-size="10.00">+ getType()</text>
<text text-anchor="start" x="45.5" y="-841.5" font-family="Helvetica,sans-Serif" font-size="10.00">+ getValue()</text>
<text text-anchor="start" x="45.5" y="-830.5" font-family="Helvetica,sans-Serif" font-size="10.00">+ safeClone()</text>
<text text-anchor="start" x="45.5" y="-819.5" font-family="Helvetica,sans-Serif" font-size="10.00">+ toString()</text>
<text text-anchor="start" x="45.5" y="-808.5" font-family="Helvetica,sans-Serif" font-size="10.00">+ write()</text>
<text text-anchor="start" x="45.5" y="-797.5" font-family="Helvetica,sans-Serif" font-size="10.00"># getTypeName()</text>
<text text-anchor="start" x="45.5" y="-786.5" font-family="Helvetica,sans-Serif" font-size="10.00"># makeCopy()</text>
<text text-anchor="start" x="45.5" y="-775.5" font-family="Helvetica,sans-Serif" font-size="10.00"># stringifyValue()</text>
<text text-anchor="start" x="45.5" y="-764.5" font-family="Helvetica,sans-Serif" font-size="10.00"># restrictArgCount()</text>
</a>
</g>
</g>
<!-- Node6&#45;&gt;Node5 -->
<g id="edge5" class="edge">
<title>Node6&#45;&gt;Node5</title>
<path fill="none" stroke="midnightblue" d="M164.69,-749.01C177.26,-730.46 190.47,-710.98 202.99,-692.52"/>
<polygon fill="none" stroke="midnightblue" points="161.67,-747.22 158.96,-757.46 167.47,-751.15 161.67,-747.22"/>
</g>
<!-- Node7 -->
<g id="node7" class="node">
<title>Node7</title>
<g id="a_node7"><a xlink:title=" ">
<polygon fill="white" stroke="#bfbfbf" points="187,-812.5 187,-869.5 253,-869.5 253,-812.5 187,-812.5"/>
<text text-anchor="middle" x="220" y="-857.5" font-family="Helvetica,sans-Serif" font-size="10.00">Countable</text>
<polyline fill="none" stroke="#bfbfbf" points="187,-850.5 253,-850.5 "/>
<text text-anchor="middle" x="220" y="-838.5" font-family="Helvetica,sans-Serif" font-size="10.00"> </text>
<polyline fill="none" stroke="#bfbfbf" points="187,-831.5 253,-831.5 "/>
<text text-anchor="middle" x="220" y="-819.5" font-family="Helvetica,sans-Serif" font-size="10.00"> </text>
</a>
</g>
</g>
<!-- Node7&#45;&gt;Node5 -->
<g id="edge6" class="edge">
<title>Node7&#45;&gt;Node5</title>
<path fill="none" stroke="midnightblue" d="M226.81,-802.62C230.94,-779.97 236.45,-749.73 241.92,-719.69"/>
<polygon fill="none" stroke="midnightblue" points="223.37,-802 225.02,-812.47 230.25,-803.26 223.37,-802"/>
</g>
<!-- Node8 -->
<g id="node8" class="node">
<title>Node8</title>
<g id="a_node8"><a xlink:title=" ">
<polygon fill="white" stroke="#bfbfbf" points="271.5,-812.5 271.5,-869.5 374.5,-869.5 374.5,-812.5 271.5,-812.5"/>
<text text-anchor="middle" x="323" y="-857.5" font-family="Helvetica,sans-Serif" font-size="10.00">IteratorAggregate</text>
<polyline fill="none" stroke="#bfbfbf" points="271.5,-850.5 374.5,-850.5 "/>
<text text-anchor="middle" x="323" y="-838.5" font-family="Helvetica,sans-Serif" font-size="10.00"> </text>
<polyline fill="none" stroke="#bfbfbf" points="271.5,-831.5 374.5,-831.5 "/>
<text text-anchor="middle" x="323" y="-819.5" font-family="Helvetica,sans-Serif" font-size="10.00"> </text>
</a>
</g>
</g>
<!-- Node8&#45;&gt;Node5 -->
<g id="edge7" class="edge">
<title>Node8&#45;&gt;Node5</title>
<path fill="none" stroke="midnightblue" d="M313.5,-802.62C307.74,-779.97 300.05,-749.73 292.41,-719.69"/>
<polygon fill="none" stroke="midnightblue" points="310.14,-803.64 316,-812.47 316.93,-801.91 310.14,-803.64"/>
</g>
<!-- Node9 -->
<g id="node9" class="node">
<title>Node9</title>
<g id="a_node9"><a xlink:href="../../de/d44/interfacepocketmine_1_1item_1_1_food_source_item.html" target="_top" xlink:title=" ">
<polygon fill="white" stroke="#bfbfbf" points="332.5,-238.5 332.5,-295.5 513.5,-295.5 513.5,-238.5 332.5,-238.5"/>
<text text-anchor="middle" x="423" y="-283.5" font-family="Helvetica,sans-Serif" font-size="10.00">pocketmine\item\FoodSourceItem</text>
<polyline fill="none" stroke="#bfbfbf" points="332.5,-276.5 513.5,-276.5 "/>
<text text-anchor="middle" x="423" y="-264.5" font-family="Helvetica,sans-Serif" font-size="10.00"> </text>
<polyline fill="none" stroke="#bfbfbf" points="332.5,-257.5 513.5,-257.5 "/>
<text text-anchor="middle" x="423" y="-245.5" font-family="Helvetica,sans-Serif" font-size="10.00"> </text>
</a>
</g>
</g>
<!-- Node9&#45;&gt;Node1 -->
<g id="edge8" class="edge">
<title>Node9&#45;&gt;Node1</title>
<path fill="none" stroke="midnightblue" d="M398.57,-229.95C374.77,-194.83 338.39,-141.13 311.82,-101.91"/>
<polygon fill="none" stroke="midnightblue" points="395.83,-232.15 404.34,-238.46 401.63,-228.22 395.83,-232.15"/>
</g>
<!-- Node10 -->
<g id="node10" class="node">
<title>Node10</title>
<g id="a_node10"><a xlink:href="../../d2/de2/interfacepocketmine_1_1item_1_1_consumable_item.html" target="_top" xlink:title=" ">
<polygon fill="white" stroke="black" points="523.5,-574.5 523.5,-631.5 708.5,-631.5 708.5,-574.5 523.5,-574.5"/>
<text text-anchor="middle" x="616" y="-619.5" font-family="Helvetica,sans-Serif" font-size="10.00">pocketmine\item\ConsumableItem</text>
<polyline fill="none" stroke="black" points="523.5,-612.5 708.5,-612.5 "/>
<text text-anchor="middle" x="616" y="-600.5" font-family="Helvetica,sans-Serif" font-size="10.00"> </text>
<polyline fill="none" stroke="black" points="523.5,-593.5 708.5,-593.5 "/>
<text text-anchor="start" x="531.5" y="-581.5" font-family="Helvetica,sans-Serif" font-size="10.00">+ getResidue()</text>
</a>
</g>
</g>
<!-- Node10&#45;&gt;Node9 -->
<g id="edge9" class="edge">
<title>Node10&#45;&gt;Node9</title>
<path fill="none" stroke="midnightblue" d="M594.84,-565.39C555.9,-497.99 473.67,-355.69 438.98,-295.65"/>
<polygon fill="none" stroke="midnightblue" points="592.01,-567.48 600.04,-574.38 598.07,-563.97 592.01,-567.48"/>
</g>
<!-- Node11 -->
<g id="node11" class="node">
<title>Node11</title>
<g id="a_node11"><a xlink:href="../../db/d3f/interfacepocketmine_1_1entity_1_1_consumable.html" target="_top" xlink:title=" ">
<polygon fill="white" stroke="black" points="392.5,-807 392.5,-875 561.5,-875 561.5,-807 392.5,-807"/>
<text text-anchor="middle" x="477" y="-863" font-family="Helvetica,sans-Serif" font-size="10.00">pocketmine\entity\Consumable</text>
<polyline fill="none" stroke="black" points="392.5,-856 561.5,-856 "/>
<text text-anchor="middle" x="477" y="-844" font-family="Helvetica,sans-Serif" font-size="10.00"> </text>
<polyline fill="none" stroke="black" points="392.5,-837 561.5,-837 "/>
<text text-anchor="start" x="400.5" y="-825" font-family="Helvetica,sans-Serif" font-size="10.00">+ getAdditionalEffects()</text>
<text text-anchor="start" x="400.5" y="-814" font-family="Helvetica,sans-Serif" font-size="10.00">+ onConsume()</text>
</a>
</g>
</g>
<!-- Node11&#45;&gt;Node10 -->
<g id="edge10" class="edge">
<title>Node11&#45;&gt;Node10</title>
<path fill="none" stroke="midnightblue" d="M501.72,-798.03C530,-750.02 575.52,-672.74 599.69,-631.69"/>
<polygon fill="none" stroke="midnightblue" points="498.53,-796.54 496.47,-806.94 504.56,-800.1 498.53,-796.54"/>
</g>
<!-- Node13 -->
<g id="node13" class="node">
<title>Node13</title>
<g id="a_node13"><a xlink:href="../../df/dfd/interfacepocketmine_1_1entity_1_1_food_source.html" target="_top" xlink:title=" ">
<polygon fill="white" stroke="black" points="341,-563.5 341,-642.5 505,-642.5 505,-563.5 341,-563.5"/>
<text text-anchor="middle" x="423" y="-630.5" font-family="Helvetica,sans-Serif" font-size="10.00">pocketmine\entity\FoodSource</text>
<polyline fill="none" stroke="black" points="341,-623.5 505,-623.5 "/>
<text text-anchor="middle" x="423" y="-611.5" font-family="Helvetica,sans-Serif" font-size="10.00"> </text>
<polyline fill="none" stroke="black" points="341,-604.5 505,-604.5 "/>
<text text-anchor="start" x="349" y="-592.5" font-family="Helvetica,sans-Serif" font-size="10.00">+ getFoodRestore()</text>
<text text-anchor="start" x="349" y="-581.5" font-family="Helvetica,sans-Serif" font-size="10.00">+ getSaturationRestore()</text>
<text text-anchor="start" x="349" y="-570.5" font-family="Helvetica,sans-Serif" font-size="10.00">+ requiresHunger()</text>
</a>
</g>
</g>
<!-- Node11&#45;&gt;Node13 -->
<g id="edge13" class="edge">
<title>Node11&#45;&gt;Node13</title>
<path fill="none" stroke="midnightblue" d="M467.18,-797.1C457.11,-753.07 441.57,-685.16 431.86,-642.72"/>
<polygon fill="none" stroke="midnightblue" points="463.79,-797.97 469.43,-806.94 470.62,-796.41 463.79,-797.97"/>
</g>
<!-- Node12 -->
<g id="node12" class="node">
<title>Node12</title>
<g id="a_node12"><a xlink:href="../../d4/d35/interfacepocketmine_1_1item_1_1_releasable.html" target="_top" xlink:title=" ">
<polygon fill="white" stroke="black" points="580,-812.5 580,-869.5 736,-869.5 736,-812.5 580,-812.5"/>
<text text-anchor="middle" x="658" y="-857.5" font-family="Helvetica,sans-Serif" font-size="10.00">pocketmine\item\Releasable</text>
<polyline fill="none" stroke="black" points="580,-850.5 736,-850.5 "/>
<text text-anchor="middle" x="658" y="-838.5" font-family="Helvetica,sans-Serif" font-size="10.00"> </text>
<polyline fill="none" stroke="black" points="580,-831.5 736,-831.5 "/>
<text text-anchor="start" x="588" y="-819.5" font-family="Helvetica,sans-Serif" font-size="10.00">+ canStartUsingItem()</text>
</a>
</g>
</g>
<!-- Node12&#45;&gt;Node10 -->
<g id="edge11" class="edge">
<title>Node12&#45;&gt;Node10</title>
<path fill="none" stroke="midnightblue" d="M651.34,-802.57C642.88,-755.03 628.47,-674.09 620.93,-631.72"/>
<polygon fill="none" stroke="midnightblue" points="647.9,-803.23 653.1,-812.47 654.79,-802.01 647.9,-803.23"/>
</g>
<!-- Node13&#45;&gt;Node9 -->
<g id="edge12" class="edge">
<title>Node13&#45;&gt;Node9</title>
<path fill="none" stroke="midnightblue" d="M423,-553.32C423,-482.24 423,-352.37 423,-295.69"/>
<polygon fill="none" stroke="midnightblue" points="419.5,-553.36 423,-563.36 426.5,-553.36 419.5,-553.36"/>
</g>
</g>
</svg>
