<?xml version="1.0" encoding="UTF-8" standalone="no"?>
<!DOCTYPE svg PUBLIC "-//W3C//DTD SVG 1.1//EN"
 "http://www.w3.org/Graphics/SVG/1.1/DTD/svg11.dtd">
<!-- Generated by graphviz version 2.43.0 (0)
 -->
<!-- Title: pocketmine\block\DetectorRail Pages: 1 -->
<!--zoomable 2149 -->
<svg id="main" version="1.1" xmlns="http://www.w3.org/2000/svg" xmlns:xlink="http://www.w3.org/1999/xlink" xml:space="preserve" onload="init(evt)">
<style type="text/css"><![CDATA[
.edge:hover path { stroke: red; }
.edge:hover polygon { stroke: red; fill: red; }
]]></style>
<script type="text/javascript"><![CDATA[
var edges = document.getElementsByTagName('g');
if (edges && edges.length) {
  for (var i=0;i<edges.length;i++) {
    if (edges[i].id.substr(0,4)=='edge') {
      edges[i].setAttribute('class','edge');
    }
  }
}
]]></script>
        <defs>
                <circle id="rim" cx="0" cy="0" r="7"/>
                <circle id="rim2" cx="0" cy="0" r="3.5"/>
                <g id="zoomPlus">
                        <use xlink:href="#rim" fill="#404040">
                                <set attributeName="fill" to="#808080" begin="zoomplus.mouseover" end="zoomplus.mouseout"/>
                        </use>
                        <path d="M-4,0h8M0,-4v8" fill="none" stroke="white" stroke-width="1.5" pointer-events="none"/>
                </g>
                <g id="zoomMin">
                        <use xlink:href="#rim" fill="#404040">
                                <set attributeName="fill" to="#808080" begin="zoomminus.mouseover" end="zoomminus.mouseout"/>
                        </use>
                        <path d="M-4,0h8" fill="none" stroke="white" stroke-width="1.5" pointer-events="none"/>
                </g>
                <g id="dirArrow">
                        <path fill="none" stroke="white" stroke-width="1.5" d="M0,-3.0v7 M-2.5,-0.5L0,-3.0L2.5,-0.5"/>
                </g>
               <g id="resetDef">
                       <use xlink:href="#rim2" fill="#404040">
                               <set attributeName="fill" to="#808080" begin="reset.mouseover" end="reset.mouseout"/>
                       </use>
               </g>
        </defs>

<script type="text/javascript">
var viewWidth = 659;
var viewHeight = 2149;
var sectionId = 'dynsection-1';
</script>
<script xlink:href="../../svgpan.js"/>
<svg id="graph" class="graph">
<g id="viewport">
<title>pocketmine\block\DetectorRail</title>
<polygon fill="white" stroke="transparent" points="-4,4 -4,-2145 655.3,-2145 655.3,4 -4,4"/>
<!-- Node1 -->
<g id="node1" class="node">
<title>Node1</title>
<g id="a_node1"><a xlink:title=" ">
<polygon fill="#bfbfbf" stroke="black" points="242.8,-0.5 242.8,-90.5 409.8,-90.5 409.8,-0.5 242.8,-0.5"/>
<text text-anchor="middle" x="326.3" y="-78.5" font-family="Helvetica,sans-Serif" font-size="10.00">pocketmine\block\DetectorRail</text>
<polyline fill="none" stroke="black" points="242.8,-71.5 409.8,-71.5 "/>
<text text-anchor="start" x="250.8" y="-59.5" font-family="Helvetica,sans-Serif" font-size="10.00"># $activated</text>
<polyline fill="none" stroke="black" points="242.8,-52.5 409.8,-52.5 "/>
<text text-anchor="start" x="250.8" y="-40.5" font-family="Helvetica,sans-Serif" font-size="10.00">+ getRequiredStateDataBits()</text>
<text text-anchor="start" x="250.8" y="-29.5" font-family="Helvetica,sans-Serif" font-size="10.00">+ isActivated()</text>
<text text-anchor="start" x="250.8" y="-18.5" font-family="Helvetica,sans-Serif" font-size="10.00">+ setActivated()</text>
<text text-anchor="start" x="250.8" y="-7.5" font-family="Helvetica,sans-Serif" font-size="10.00"># describeState()</text>
</a>
</g>
</g>
<!-- Node2 -->
<g id="node2" class="node">
<title>Node2</title>
<g id="a_node2"><a xlink:href="../../d7/d52/classpocketmine_1_1block_1_1_straight_only_rail.html" target="_top" xlink:title=" ">
<polygon fill="white" stroke="black" points="237.8,-128.5 237.8,-251.5 414.8,-251.5 414.8,-128.5 237.8,-128.5"/>
<text text-anchor="start" x="245.8" y="-239.5" font-family="Helvetica,sans-Serif" font-size="10.00">pocketmine\block\Straight</text>
<text text-anchor="middle" x="326.3" y="-228.5" font-family="Helvetica,sans-Serif" font-size="10.00">OnlyRail</text>
<polyline fill="none" stroke="black" points="237.8,-221.5 414.8,-221.5 "/>
<text text-anchor="middle" x="326.3" y="-209.5" font-family="Helvetica,sans-Serif" font-size="10.00"> </text>
<polyline fill="none" stroke="black" points="237.8,-202.5 414.8,-202.5 "/>
<text text-anchor="start" x="245.8" y="-190.5" font-family="Helvetica,sans-Serif" font-size="10.00">+ getRequiredStateDataBits()</text>
<text text-anchor="start" x="245.8" y="-179.5" font-family="Helvetica,sans-Serif" font-size="10.00">+ getShape()</text>
<text text-anchor="start" x="245.8" y="-168.5" font-family="Helvetica,sans-Serif" font-size="10.00">+ setShape()</text>
<text text-anchor="start" x="245.8" y="-157.5" font-family="Helvetica,sans-Serif" font-size="10.00"># describeState()</text>
<text text-anchor="start" x="245.8" y="-146.5" font-family="Helvetica,sans-Serif" font-size="10.00"># getCurrentShapeConnections()</text>
<text text-anchor="start" x="245.8" y="-135.5" font-family="Helvetica,sans-Serif" font-size="10.00"># setShapeFromConnections()</text>
</a>
</g>
</g>
<!-- Node2&#45;&gt;Node1 -->
<g id="edge1" class="edge">
<title>Node2&#45;&gt;Node1</title>
<path fill="none" stroke="midnightblue" d="M326.3,-118.08C326.3,-108.77 326.3,-99.46 326.3,-90.77"/>
<polygon fill="none" stroke="midnightblue" points="322.8,-118.15 326.3,-128.15 329.8,-118.15 322.8,-118.15"/>
</g>
<!-- Node3 -->
<g id="node3" class="node">
<title>Node3</title>
<g id="a_node3"><a xlink:href="../../d2/d83/classpocketmine_1_1block_1_1_base_rail.html" target="_top" xlink:title=" ">
<polygon fill="white" stroke="#bfbfbf" points="232.3,-289.5 232.3,-423.5 420.3,-423.5 420.3,-289.5 232.3,-289.5"/>
<text text-anchor="middle" x="326.3" y="-411.5" font-family="Helvetica,sans-Serif" font-size="10.00">pocketmine\block\BaseRail</text>
<polyline fill="none" stroke="#bfbfbf" points="232.3,-404.5 420.3,-404.5 "/>
<text text-anchor="middle" x="326.3" y="-392.5" font-family="Helvetica,sans-Serif" font-size="10.00"> </text>
<polyline fill="none" stroke="#bfbfbf" points="232.3,-385.5 420.3,-385.5 "/>
<text text-anchor="start" x="240.3" y="-373.5" font-family="Helvetica,sans-Serif" font-size="10.00">+ onNearbyBlockChange()</text>
<text text-anchor="start" x="240.3" y="-362.5" font-family="Helvetica,sans-Serif" font-size="10.00">+ onPostPlace()</text>
<text text-anchor="start" x="240.3" y="-351.5" font-family="Helvetica,sans-Serif" font-size="10.00">+ place()</text>
<text text-anchor="start" x="240.3" y="-340.5" font-family="Helvetica,sans-Serif" font-size="10.00"># getCurrentShapeConnections()</text>
<text text-anchor="start" x="240.3" y="-329.5" font-family="Helvetica,sans-Serif" font-size="10.00"># getPossibleConnectionDirections</text>
<text text-anchor="start" x="240.3" y="-318.5" font-family="Helvetica,sans-Serif" font-size="10.00">OneConstraint()</text>
<text text-anchor="start" x="240.3" y="-307.5" font-family="Helvetica,sans-Serif" font-size="10.00"># setShapeFromConnections()</text>
<text text-anchor="start" x="240.3" y="-296.5" font-family="Helvetica,sans-Serif" font-size="10.00"># searchState()</text>
</a>
</g>
</g>
<!-- Node3&#45;&gt;Node2 -->
<g id="edge2" class="edge">
<title>Node3&#45;&gt;Node2</title>
<path fill="none" stroke="midnightblue" d="M326.3,-278.81C326.3,-269.67 326.3,-260.44 326.3,-251.57"/>
<polygon fill="none" stroke="midnightblue" points="322.8,-279.07 326.3,-289.07 329.8,-279.07 322.8,-279.07"/>
</g>
<!-- Node4 -->
<g id="node4" class="node">
<title>Node4</title>
<g id="a_node4"><a xlink:href="../../d3/d1e/classpocketmine_1_1block_1_1_flowable.html" target="_top" xlink:title=" ">
<polygon fill="white" stroke="black" points="245.8,-461.5 245.8,-551.5 406.8,-551.5 406.8,-461.5 245.8,-461.5"/>
<text text-anchor="middle" x="326.3" y="-539.5" font-family="Helvetica,sans-Serif" font-size="10.00">pocketmine\block\Flowable</text>
<polyline fill="none" stroke="black" points="245.8,-532.5 406.8,-532.5 "/>
<text text-anchor="middle" x="326.3" y="-520.5" font-family="Helvetica,sans-Serif" font-size="10.00"> </text>
<polyline fill="none" stroke="black" points="245.8,-513.5 406.8,-513.5 "/>
<text text-anchor="start" x="253.8" y="-501.5" font-family="Helvetica,sans-Serif" font-size="10.00">+ canBeFlowedInto()</text>
<text text-anchor="start" x="253.8" y="-490.5" font-family="Helvetica,sans-Serif" font-size="10.00">+ getSupportType()</text>
<text text-anchor="start" x="253.8" y="-479.5" font-family="Helvetica,sans-Serif" font-size="10.00">+ isSolid()</text>
<text text-anchor="start" x="253.8" y="-468.5" font-family="Helvetica,sans-Serif" font-size="10.00"># recalculateCollisionBoxes()</text>
</a>
</g>
</g>
<!-- Node4&#45;&gt;Node3 -->
<g id="edge3" class="edge">
<title>Node4&#45;&gt;Node3</title>
<path fill="none" stroke="midnightblue" d="M326.3,-451.46C326.3,-442.38 326.3,-432.87 326.3,-423.53"/>
<polygon fill="none" stroke="midnightblue" points="322.8,-451.5 326.3,-461.5 329.8,-451.5 322.8,-451.5"/>
</g>
<!-- Node5 -->
<g id="node5" class="node">
<title>Node5</title>
<g id="a_node5"><a xlink:href="../../d5/d1b/classpocketmine_1_1block_1_1_transparent.html" target="_top" xlink:title=" ">
<polygon fill="white" stroke="black" points="244.8,-589.5 244.8,-646.5 407.8,-646.5 407.8,-589.5 244.8,-589.5"/>
<text text-anchor="middle" x="326.3" y="-634.5" font-family="Helvetica,sans-Serif" font-size="10.00">pocketmine\block\Transparent</text>
<polyline fill="none" stroke="black" points="244.8,-627.5 407.8,-627.5 "/>
<text text-anchor="middle" x="326.3" y="-615.5" font-family="Helvetica,sans-Serif" font-size="10.00"> </text>
<polyline fill="none" stroke="black" points="244.8,-608.5 407.8,-608.5 "/>
<text text-anchor="start" x="252.8" y="-596.5" font-family="Helvetica,sans-Serif" font-size="10.00">+ isTransparent()</text>
</a>
</g>
</g>
<!-- Node5&#45;&gt;Node4 -->
<g id="edge4" class="edge">
<title>Node5&#45;&gt;Node4</title>
<path fill="none" stroke="midnightblue" d="M326.3,-579.31C326.3,-570.43 326.3,-560.88 326.3,-551.74"/>
<polygon fill="none" stroke="midnightblue" points="322.8,-579.37 326.3,-589.37 329.8,-579.37 322.8,-579.37"/>
</g>
<!-- Node6 -->
<g id="node6" class="node">
<title>Node6</title>
<g id="a_node6"><a xlink:href="../../d7/d27/classpocketmine_1_1block_1_1_block.html" target="_top" xlink:title=" ">
<polygon fill="white" stroke="#bfbfbf" points="245.8,-684.5 245.8,-906.5 406.8,-906.5 406.8,-684.5 245.8,-684.5"/>
<text text-anchor="middle" x="326.3" y="-894.5" font-family="Helvetica,sans-Serif" font-size="10.00">pocketmine\block\Block</text>
<polyline fill="none" stroke="#bfbfbf" points="245.8,-887.5 406.8,-887.5 "/>
<text text-anchor="start" x="253.8" y="-875.5" font-family="Helvetica,sans-Serif" font-size="10.00"># $collisionBoxes</text>
<text text-anchor="start" x="253.8" y="-864.5" font-family="Helvetica,sans-Serif" font-size="10.00"># $fallbackName</text>
<polyline fill="none" stroke="#bfbfbf" points="245.8,-857.5 406.8,-857.5 "/>
<text text-anchor="start" x="253.8" y="-845.5" font-family="Helvetica,sans-Serif" font-size="10.00">+ __construct()</text>
<text text-anchor="start" x="253.8" y="-834.5" font-family="Helvetica,sans-Serif" font-size="10.00">+ __clone()</text>
<text text-anchor="start" x="253.8" y="-823.5" font-family="Helvetica,sans-Serif" font-size="10.00">+ __toString()</text>
<text text-anchor="start" x="253.8" y="-812.5" font-family="Helvetica,sans-Serif" font-size="10.00">+ addVelocityToEntity()</text>
<text text-anchor="start" x="253.8" y="-801.5" font-family="Helvetica,sans-Serif" font-size="10.00">+ asItem()</text>
<text text-anchor="start" x="253.8" y="-790.5" font-family="Helvetica,sans-Serif" font-size="10.00">+ blocksDirectSkyLight()</text>
<text text-anchor="start" x="253.8" y="-779.5" font-family="Helvetica,sans-Serif" font-size="10.00">+ burnsForever()</text>
<text text-anchor="start" x="253.8" y="-768.5" font-family="Helvetica,sans-Serif" font-size="10.00">+ calculateIntercept()</text>
<text text-anchor="start" x="253.8" y="-757.5" font-family="Helvetica,sans-Serif" font-size="10.00">+ canBeFlowedInto()</text>
<text text-anchor="start" x="253.8" y="-746.5" font-family="Helvetica,sans-Serif" font-size="10.00">+ canBePlaced()</text>
<text text-anchor="start" x="253.8" y="-735.5" font-family="Helvetica,sans-Serif" font-size="10.00">and 63 more...</text>
<text text-anchor="start" x="253.8" y="-724.5" font-family="Helvetica,sans-Serif" font-size="10.00"># describeState()</text>
<text text-anchor="start" x="253.8" y="-713.5" font-family="Helvetica,sans-Serif" font-size="10.00"># describeType()</text>
<text text-anchor="start" x="253.8" y="-702.5" font-family="Helvetica,sans-Serif" font-size="10.00"># getXpDropAmount()</text>
<text text-anchor="start" x="253.8" y="-691.5" font-family="Helvetica,sans-Serif" font-size="10.00"># recalculateCollisionBoxes()</text>
</a>
</g>
</g>
<!-- Node6&#45;&gt;Node5 -->
<g id="edge5" class="edge">
<title>Node6&#45;&gt;Node5</title>
<path fill="none" stroke="midnightblue" d="M326.3,-674.09C326.3,-664.03 326.3,-654.64 326.3,-646.56"/>
<polygon fill="none" stroke="midnightblue" points="322.8,-674.35 326.3,-684.35 329.8,-674.35 322.8,-674.35"/>
</g>
<!-- Node7 -->
<g id="node7" class="node">
<title>Node7</title>
<g id="a_node7"><a xlink:title=" ">
<polygon fill="white" stroke="#bfbfbf" points="3.8,-1681.5 3.8,-1738.5 46.8,-1738.5 46.8,-1681.5 3.8,-1681.5"/>
<text text-anchor="middle" x="25.3" y="-1726.5" font-family="Helvetica,sans-Serif" font-size="10.00">const</text>
<polyline fill="none" stroke="#bfbfbf" points="3.8,-1719.5 46.8,-1719.5 "/>
<text text-anchor="middle" x="25.3" y="-1707.5" font-family="Helvetica,sans-Serif" font-size="10.00"> </text>
<polyline fill="none" stroke="#bfbfbf" points="3.8,-1700.5 46.8,-1700.5 "/>
<text text-anchor="middle" x="25.3" y="-1688.5" font-family="Helvetica,sans-Serif" font-size="10.00"> </text>
</a>
</g>
</g>
<!-- Node7&#45;&gt;Node6 -->
<g id="edge6" class="edge">
<title>Node7&#45;&gt;Node6</title>
<path fill="none" stroke="#404040" d="M21,-1681.4C8.48,-1594.93 -23.68,-1322.19 31.3,-1107 50.25,-1032.85 60.49,-1012.1 110.3,-954 145.6,-912.82 193.69,-876.42 235.53,-849.01"/>
<polygon fill="none" stroke="#404040" points="235.66,-848.93 238.53,-842.31 245.74,-842.42 242.87,-849.03 235.66,-848.93"/>
<text text-anchor="start" x="31.3" y="-1132" font-family="Helvetica,sans-Serif" font-size="10.00"> +INTERNAL_STATE_DATA</text>
<text text-anchor="middle" x="109.8" y="-1121" font-family="Helvetica,sans-Serif" font-size="10.00">_BITS</text>
<text text-anchor="middle" x="109.8" y="-1110" font-family="Helvetica,sans-Serif" font-size="10.00">+INTERNAL_STATE_DATA_MASK</text>
</g>
<!-- Node12 -->
<g id="node12" class="node">
<title>Node12</title>
<g id="a_node12"><a xlink:href="../../d4/d2b/classpocketmine_1_1world_1_1_world.html" target="_top" xlink:title=" ">
<polygon fill="white" stroke="black" points="106.3,-1158.5 106.3,-1468.5 278.3,-1468.5 278.3,-1158.5 106.3,-1158.5"/>
<text text-anchor="middle" x="192.3" y="-1456.5" font-family="Helvetica,sans-Serif" font-size="10.00">pocketmine\world\World</text>
<polyline fill="none" stroke="black" points="106.3,-1449.5 278.3,-1449.5 "/>
<text text-anchor="start" x="114.3" y="-1437.5" font-family="Helvetica,sans-Serif" font-size="10.00">+ $stopTime</text>
<text text-anchor="start" x="114.3" y="-1426.5" font-family="Helvetica,sans-Serif" font-size="10.00">+ $tickRateTime</text>
<text text-anchor="start" x="114.3" y="-1415.5" font-family="Helvetica,sans-Serif" font-size="10.00">+ $updateEntities</text>
<text text-anchor="start" x="114.3" y="-1404.5" font-family="Helvetica,sans-Serif" font-size="10.00">+ TIME_SUNRISE</text>
<text text-anchor="start" x="114.3" y="-1393.5" font-family="Helvetica,sans-Serif" font-size="10.00">+ TIME_SUNSET</text>
<text text-anchor="start" x="114.3" y="-1382.5" font-family="Helvetica,sans-Serif" font-size="10.00">+ Y_MAX</text>
<text text-anchor="start" x="114.3" y="-1371.5" font-family="Helvetica,sans-Serif" font-size="10.00">+ Y_MIN</text>
<polyline fill="none" stroke="black" points="106.3,-1364.5 278.3,-1364.5 "/>
<text text-anchor="start" x="114.3" y="-1352.5" font-family="Helvetica,sans-Serif" font-size="10.00">+ __construct()</text>
<text text-anchor="start" x="114.3" y="-1341.5" font-family="Helvetica,sans-Serif" font-size="10.00">+ __debugInfo()</text>
<text text-anchor="start" x="114.3" y="-1330.5" font-family="Helvetica,sans-Serif" font-size="10.00">+ addEntity()</text>
<text text-anchor="start" x="114.3" y="-1319.5" font-family="Helvetica,sans-Serif" font-size="10.00">+ addOnUnloadCallback()</text>
<text text-anchor="start" x="114.3" y="-1308.5" font-family="Helvetica,sans-Serif" font-size="10.00">+ addParticle()</text>
<text text-anchor="start" x="114.3" y="-1297.5" font-family="Helvetica,sans-Serif" font-size="10.00">+ addRandomTickedBlock()</text>
<text text-anchor="start" x="114.3" y="-1286.5" font-family="Helvetica,sans-Serif" font-size="10.00">+ addSound()</text>
<text text-anchor="start" x="114.3" y="-1275.5" font-family="Helvetica,sans-Serif" font-size="10.00">+ addTile()</text>
<text text-anchor="start" x="114.3" y="-1264.5" font-family="Helvetica,sans-Serif" font-size="10.00">+ broadcastPacketToViewers()</text>
<text text-anchor="start" x="114.3" y="-1253.5" font-family="Helvetica,sans-Serif" font-size="10.00">+ cancelUnloadChunkRequest()</text>
<text text-anchor="start" x="114.3" y="-1242.5" font-family="Helvetica,sans-Serif" font-size="10.00">and 115 more...</text>
<text text-anchor="start" x="114.3" y="-1231.5" font-family="Helvetica,sans-Serif" font-size="10.00">+ blockHash()</text>
<text text-anchor="start" x="114.3" y="-1220.5" font-family="Helvetica,sans-Serif" font-size="10.00">+ chunkBlockHash()</text>
<text text-anchor="start" x="114.3" y="-1209.5" font-family="Helvetica,sans-Serif" font-size="10.00">+ chunkHash()</text>
<text text-anchor="start" x="114.3" y="-1198.5" font-family="Helvetica,sans-Serif" font-size="10.00">+ getBlockXYZ()</text>
<text text-anchor="start" x="114.3" y="-1187.5" font-family="Helvetica,sans-Serif" font-size="10.00">+ getDifficultyFromString()</text>
<text text-anchor="start" x="114.3" y="-1176.5" font-family="Helvetica,sans-Serif" font-size="10.00">+ getXZ()</text>
<text text-anchor="start" x="114.3" y="-1165.5" font-family="Helvetica,sans-Serif" font-size="10.00"># actuallyDoTick()</text>
</a>
</g>
</g>
<!-- Node7&#45;&gt;Node12 -->
<g id="edge13" class="edge">
<title>Node7&#45;&gt;Node12</title>
<path fill="none" stroke="#404040" d="M23.51,-1681.44C21.74,-1638.19 22.56,-1552.54 50.3,-1487 62.05,-1459.25 79.74,-1432.46 98.69,-1408.59"/>
<polygon fill="none" stroke="#404040" points="98.72,-1408.56 99.41,-1401.38 106.3,-1399.25 105.61,-1406.43 98.72,-1408.56"/>
<text text-anchor="start" x="50.3" y="-1611" font-family="Helvetica,sans-Serif" font-size="10.00"> +DEFAULT_TICKED_BLOCKS</text>
<text text-anchor="middle" x="120.3" y="-1600" font-family="Helvetica,sans-Serif" font-size="10.00">_PER_SUBCHUNK_PER_TICK</text>
<text text-anchor="middle" x="120.3" y="-1589" font-family="Helvetica,sans-Serif" font-size="10.00">+DIFFICULTY_EASY</text>
<text text-anchor="middle" x="120.3" y="-1578" font-family="Helvetica,sans-Serif" font-size="10.00">+DIFFICULTY_HARD</text>
<text text-anchor="middle" x="120.3" y="-1567" font-family="Helvetica,sans-Serif" font-size="10.00">+DIFFICULTY_NORMAL</text>
<text text-anchor="middle" x="120.3" y="-1556" font-family="Helvetica,sans-Serif" font-size="10.00">+DIFFICULTY_PEACEFUL</text>
<text text-anchor="middle" x="120.3" y="-1545" font-family="Helvetica,sans-Serif" font-size="10.00">+TIME_DAY</text>
<text text-anchor="middle" x="120.3" y="-1534" font-family="Helvetica,sans-Serif" font-size="10.00">+TIME_FULL</text>
<text text-anchor="middle" x="120.3" y="-1523" font-family="Helvetica,sans-Serif" font-size="10.00">+TIME_MIDNIGHT</text>
<text text-anchor="middle" x="120.3" y="-1512" font-family="Helvetica,sans-Serif" font-size="10.00">+TIME_NIGHT</text>
<text text-anchor="middle" x="120.3" y="-1501" font-family="Helvetica,sans-Serif" font-size="10.00">+TIME_NOON</text>
<text text-anchor="middle" x="120.3" y="-1490" font-family="Helvetica,sans-Serif" font-size="10.00">...</text>
</g>
<!-- Node8 -->
<g id="node8" class="node">
<title>Node8</title>
<g id="a_node8"><a xlink:href="../../dd/d18/classpocketmine_1_1block_1_1_block_identifier.html" target="_top" xlink:title=" ">
<polygon fill="white" stroke="#bfbfbf" points="283.3,-982 283.3,-1061 459.3,-1061 459.3,-982 283.3,-982"/>
<text text-anchor="middle" x="371.3" y="-1049" font-family="Helvetica,sans-Serif" font-size="10.00">pocketmine\block\BlockIdentifier</text>
<polyline fill="none" stroke="#bfbfbf" points="283.3,-1042 459.3,-1042 "/>
<text text-anchor="middle" x="371.3" y="-1030" font-family="Helvetica,sans-Serif" font-size="10.00"> </text>
<polyline fill="none" stroke="#bfbfbf" points="283.3,-1023 459.3,-1023 "/>
<text text-anchor="start" x="291.3" y="-1011" font-family="Helvetica,sans-Serif" font-size="10.00">+ __construct()</text>
<text text-anchor="start" x="291.3" y="-1000" font-family="Helvetica,sans-Serif" font-size="10.00">+ getBlockTypeId()</text>
<text text-anchor="start" x="291.3" y="-989" font-family="Helvetica,sans-Serif" font-size="10.00">+ getTileClass()</text>
</a>
</g>
</g>
<!-- Node8&#45;&gt;Node6 -->
<g id="edge7" class="edge">
<title>Node8&#45;&gt;Node6</title>
<path fill="none" stroke="#404040" d="M363.57,-981.99C359.97,-964.1 355.48,-941.72 350.86,-918.76"/>
<polygon fill="none" stroke="#404040" points="350.81,-918.49 345.71,-913.4 348.45,-906.73 353.55,-911.82 350.81,-918.49"/>
<text text-anchor="middle" x="377.3" y="-928" font-family="Helvetica,sans-Serif" font-size="10.00"> #$idInfo</text>
</g>
<!-- Node9 -->
<g id="node9" class="node">
<title>Node9</title>
<g id="a_node9"><a xlink:href="../../de/d9a/classpocketmine_1_1block_1_1_block_type_info.html" target="_top" xlink:title=" ">
<polygon fill="white" stroke="#bfbfbf" points="477.3,-976.5 477.3,-1066.5 651.3,-1066.5 651.3,-976.5 477.3,-976.5"/>
<text text-anchor="middle" x="564.3" y="-1054.5" font-family="Helvetica,sans-Serif" font-size="10.00">pocketmine\block\BlockTypeInfo</text>
<polyline fill="none" stroke="#bfbfbf" points="477.3,-1047.5 651.3,-1047.5 "/>
<text text-anchor="middle" x="564.3" y="-1035.5" font-family="Helvetica,sans-Serif" font-size="10.00"> </text>
<polyline fill="none" stroke="#bfbfbf" points="477.3,-1028.5 651.3,-1028.5 "/>
<text text-anchor="start" x="485.3" y="-1016.5" font-family="Helvetica,sans-Serif" font-size="10.00">+ __construct()</text>
<text text-anchor="start" x="485.3" y="-1005.5" font-family="Helvetica,sans-Serif" font-size="10.00">+ getBreakInfo()</text>
<text text-anchor="start" x="485.3" y="-994.5" font-family="Helvetica,sans-Serif" font-size="10.00">+ getTypeTags()</text>
<text text-anchor="start" x="485.3" y="-983.5" font-family="Helvetica,sans-Serif" font-size="10.00">+ hasTypeTag()</text>
</a>
</g>
</g>
<!-- Node9&#45;&gt;Node6 -->
<g id="edge8" class="edge">
<title>Node9&#45;&gt;Node6</title>
<path fill="none" stroke="#404040" d="M517.28,-976.24C488.43,-949.09 450.54,-913.43 416.12,-881.03"/>
<polygon fill="none" stroke="#404040" points="415.72,-880.66 408.61,-879.46 406.98,-872.43 414.09,-873.63 415.72,-880.66"/>
<text text-anchor="middle" x="503.3" y="-928" font-family="Helvetica,sans-Serif" font-size="10.00"> #$typeInfo</text>
</g>
<!-- Node10 -->
<g id="node10" class="node">
<title>Node10</title>
<g id="a_node10"><a xlink:href="../../d5/dd2/classpocketmine_1_1world_1_1_position.html" target="_top" xlink:title=" ">
<polygon fill="white" stroke="#bfbfbf" points="119.3,-954.5 119.3,-1088.5 265.3,-1088.5 265.3,-954.5 119.3,-954.5"/>
<text text-anchor="middle" x="192.3" y="-1076.5" font-family="Helvetica,sans-Serif" font-size="10.00">pocketmine\world\Position</text>
<polyline fill="none" stroke="#bfbfbf" points="119.3,-1069.5 265.3,-1069.5 "/>
<text text-anchor="middle" x="192.3" y="-1057.5" font-family="Helvetica,sans-Serif" font-size="10.00"> </text>
<polyline fill="none" stroke="#bfbfbf" points="119.3,-1050.5 265.3,-1050.5 "/>
<text text-anchor="start" x="127.3" y="-1038.5" font-family="Helvetica,sans-Serif" font-size="10.00">+ __construct()</text>
<text text-anchor="start" x="127.3" y="-1027.5" font-family="Helvetica,sans-Serif" font-size="10.00">+ __toString()</text>
<text text-anchor="start" x="127.3" y="-1016.5" font-family="Helvetica,sans-Serif" font-size="10.00">+ asPosition()</text>
<text text-anchor="start" x="127.3" y="-1005.5" font-family="Helvetica,sans-Serif" font-size="10.00">+ equals()</text>
<text text-anchor="start" x="127.3" y="-994.5" font-family="Helvetica,sans-Serif" font-size="10.00">+ getSide()</text>
<text text-anchor="start" x="127.3" y="-983.5" font-family="Helvetica,sans-Serif" font-size="10.00">+ getWorld()</text>
<text text-anchor="start" x="127.3" y="-972.5" font-family="Helvetica,sans-Serif" font-size="10.00">+ isValid()</text>
<text text-anchor="start" x="127.3" y="-961.5" font-family="Helvetica,sans-Serif" font-size="10.00">+ fromObject()</text>
</a>
</g>
</g>
<!-- Node10&#45;&gt;Node6 -->
<g id="edge9" class="edge">
<title>Node10&#45;&gt;Node6</title>
<path fill="none" stroke="#404040" d="M231.96,-954.2C238.96,-942.51 246.43,-930.02 254,-917.37"/>
<polygon fill="none" stroke="#404040" points="254.2,-917.03 253.85,-909.82 260.36,-906.73 260.71,-913.93 254.2,-917.03"/>
<text text-anchor="middle" x="275.8" y="-928" font-family="Helvetica,sans-Serif" font-size="10.00"> #$position</text>
</g>
<!-- Node11 -->
<g id="node11" class="node">
<title>Node11</title>
<g id="a_node11"><a xlink:href="../../d2/d90/classpocketmine_1_1math_1_1_vector3.html" target="_top" xlink:title=" ">
<polygon fill="white" stroke="#bfbfbf" points="296.3,-1197 296.3,-1430 438.3,-1430 438.3,-1197 296.3,-1197"/>
<text text-anchor="middle" x="367.3" y="-1418" font-family="Helvetica,sans-Serif" font-size="10.00">pocketmine\math\Vector3</text>
<polyline fill="none" stroke="#bfbfbf" points="296.3,-1411 438.3,-1411 "/>
<text text-anchor="start" x="304.3" y="-1399" font-family="Helvetica,sans-Serif" font-size="10.00">+ $x</text>
<text text-anchor="start" x="304.3" y="-1388" font-family="Helvetica,sans-Serif" font-size="10.00">+ $y</text>
<text text-anchor="start" x="304.3" y="-1377" font-family="Helvetica,sans-Serif" font-size="10.00">+ $z</text>
<polyline fill="none" stroke="#bfbfbf" points="296.3,-1370 438.3,-1370 "/>
<text text-anchor="start" x="304.3" y="-1358" font-family="Helvetica,sans-Serif" font-size="10.00">+ __construct()</text>
<text text-anchor="start" x="304.3" y="-1347" font-family="Helvetica,sans-Serif" font-size="10.00">+ __toString()</text>
<text text-anchor="start" x="304.3" y="-1336" font-family="Helvetica,sans-Serif" font-size="10.00">+ abs()</text>
<text text-anchor="start" x="304.3" y="-1325" font-family="Helvetica,sans-Serif" font-size="10.00">+ add()</text>
<text text-anchor="start" x="304.3" y="-1314" font-family="Helvetica,sans-Serif" font-size="10.00">+ addVector()</text>
<text text-anchor="start" x="304.3" y="-1303" font-family="Helvetica,sans-Serif" font-size="10.00">+ asVector3()</text>
<text text-anchor="start" x="304.3" y="-1292" font-family="Helvetica,sans-Serif" font-size="10.00">+ ceil()</text>
<text text-anchor="start" x="304.3" y="-1281" font-family="Helvetica,sans-Serif" font-size="10.00">+ cross()</text>
<text text-anchor="start" x="304.3" y="-1270" font-family="Helvetica,sans-Serif" font-size="10.00">+ distance()</text>
<text text-anchor="start" x="304.3" y="-1259" font-family="Helvetica,sans-Serif" font-size="10.00">+ distanceSquared()</text>
<text text-anchor="start" x="304.3" y="-1248" font-family="Helvetica,sans-Serif" font-size="10.00">and 32 more...</text>
<text text-anchor="start" x="304.3" y="-1237" font-family="Helvetica,sans-Serif" font-size="10.00">+ maxComponents()</text>
<text text-anchor="start" x="304.3" y="-1226" font-family="Helvetica,sans-Serif" font-size="10.00">+ minComponents()</text>
<text text-anchor="start" x="304.3" y="-1215" font-family="Helvetica,sans-Serif" font-size="10.00">+ sum()</text>
<text text-anchor="start" x="304.3" y="-1204" font-family="Helvetica,sans-Serif" font-size="10.00">+ zero()</text>
</a>
</g>
</g>
<!-- Node11&#45;&gt;Node10 -->
<g id="edge10" class="edge">
<title>Node11&#45;&gt;Node10</title>
<path fill="none" stroke="midnightblue" d="M304.6,-1187.84C298.92,-1177.65 293.11,-1167.59 287.3,-1158 273.24,-1134.78 256.61,-1110.24 241.23,-1088.51"/>
<polygon fill="none" stroke="midnightblue" points="301.66,-1189.76 309.56,-1196.82 307.79,-1186.37 301.66,-1189.76"/>
</g>
<!-- Node12&#45;&gt;Node10 -->
<g id="edge11" class="edge">
<title>Node12&#45;&gt;Node10</title>
<path fill="none" stroke="#404040" d="M192.3,-1158.16C192.3,-1138.27 192.3,-1118.61 192.3,-1100.69"/>
<polygon fill="none" stroke="#404040" points="192.3,-1100.59 188.3,-1094.59 192.3,-1088.59 196.3,-1094.59 192.3,-1100.59"/>
<text text-anchor="middle" x="214.8" y="-1121" font-family="Helvetica,sans-Serif" font-size="10.00"> +$world</text>
</g>
<!-- Node13 -->
<g id="node13" class="node">
<title>Node13</title>
<g id="a_node13"><a xlink:href="../../d0/d03/interfacepocketmine_1_1world_1_1_chunk_manager.html" target="_top" xlink:title=" ">
<polygon fill="white" stroke="#bfbfbf" points="106.3,-1648.5 106.3,-1771.5 286.3,-1771.5 286.3,-1648.5 106.3,-1648.5"/>
<text text-anchor="middle" x="196.3" y="-1759.5" font-family="Helvetica,sans-Serif" font-size="10.00">pocketmine\world\ChunkManager</text>
<polyline fill="none" stroke="#bfbfbf" points="106.3,-1752.5 286.3,-1752.5 "/>
<text text-anchor="middle" x="196.3" y="-1740.5" font-family="Helvetica,sans-Serif" font-size="10.00"> </text>
<polyline fill="none" stroke="#bfbfbf" points="106.3,-1733.5 286.3,-1733.5 "/>
<text text-anchor="start" x="114.3" y="-1721.5" font-family="Helvetica,sans-Serif" font-size="10.00">+ getBlockAt()</text>
<text text-anchor="start" x="114.3" y="-1710.5" font-family="Helvetica,sans-Serif" font-size="10.00">+ getChunk()</text>
<text text-anchor="start" x="114.3" y="-1699.5" font-family="Helvetica,sans-Serif" font-size="10.00">+ getMaxY()</text>
<text text-anchor="start" x="114.3" y="-1688.5" font-family="Helvetica,sans-Serif" font-size="10.00">+ getMinY()</text>
<text text-anchor="start" x="114.3" y="-1677.5" font-family="Helvetica,sans-Serif" font-size="10.00">+ isInWorld()</text>
<text text-anchor="start" x="114.3" y="-1666.5" font-family="Helvetica,sans-Serif" font-size="10.00">+ setBlockAt()</text>
<text text-anchor="start" x="114.3" y="-1655.5" font-family="Helvetica,sans-Serif" font-size="10.00">+ setChunk()</text>
</a>
</g>
</g>
<!-- Node13&#45;&gt;Node12 -->
<g id="edge12" class="edge">
<title>Node13&#45;&gt;Node12</title>
<path fill="none" stroke="midnightblue" d="M195.58,-1638.12C195.11,-1590.96 194.46,-1527.15 193.87,-1468.65"/>
<polygon fill="none" stroke="midnightblue" points="192.09,-1638.26 195.69,-1648.22 199.08,-1638.19 192.09,-1638.26"/>
</g>
<!-- Node14 -->
<g id="node14" class="node">
<title>Node14</title>
<g id="a_node14"><a xlink:href="../../d7/d08/classpocketmine_1_1world_1_1_world_timings.html" target="_top" xlink:title=" ">
<polygon fill="white" stroke="#bfbfbf" points="304.8,-1637.5 304.8,-1782.5 477.8,-1782.5 477.8,-1637.5 304.8,-1637.5"/>
<text text-anchor="middle" x="391.3" y="-1770.5" font-family="Helvetica,sans-Serif" font-size="10.00">pocketmine\world\WorldTimings</text>
<polyline fill="none" stroke="#bfbfbf" points="304.8,-1763.5 477.8,-1763.5 "/>
<text text-anchor="start" x="312.8" y="-1751.5" font-family="Helvetica,sans-Serif" font-size="10.00">+ $syncChunkLoad</text>
<text text-anchor="start" x="312.8" y="-1740.5" font-family="Helvetica,sans-Serif" font-size="10.00">+ $syncChunkLoadData</text>
<text text-anchor="start" x="312.8" y="-1729.5" font-family="Helvetica,sans-Serif" font-size="10.00">+ $syncChunkLoadEntities</text>
<text text-anchor="start" x="312.8" y="-1718.5" font-family="Helvetica,sans-Serif" font-size="10.00">+ $syncChunkLoadFixInvalid</text>
<text text-anchor="start" x="312.8" y="-1707.5" font-family="Helvetica,sans-Serif" font-size="10.00">Blocks</text>
<text text-anchor="start" x="312.8" y="-1696.5" font-family="Helvetica,sans-Serif" font-size="10.00">+ $syncChunkLoadTileEntities</text>
<text text-anchor="start" x="312.8" y="-1685.5" font-family="Helvetica,sans-Serif" font-size="10.00">+ $syncChunkSave</text>
<text text-anchor="start" x="312.8" y="-1674.5" font-family="Helvetica,sans-Serif" font-size="10.00">+ $syncChunkSend</text>
<text text-anchor="start" x="312.8" y="-1663.5" font-family="Helvetica,sans-Serif" font-size="10.00">+ $syncChunkSendPrepare</text>
<polyline fill="none" stroke="#bfbfbf" points="304.8,-1656.5 477.8,-1656.5 "/>
<text text-anchor="start" x="312.8" y="-1644.5" font-family="Helvetica,sans-Serif" font-size="10.00">+ __construct()</text>
</a>
</g>
</g>
<!-- Node14&#45;&gt;Node12 -->
<g id="edge14" class="edge">
<title>Node14&#45;&gt;Node12</title>
<path fill="none" stroke="#404040" d="M355.03,-1637.1C332.81,-1593.04 303.39,-1534.72 275.68,-1479.79"/>
<polygon fill="none" stroke="#404040" points="275.57,-1479.57 269.3,-1476.02 270.17,-1468.86 276.44,-1472.42 275.57,-1479.57"/>
<text text-anchor="middle" x="370.8" y="-1550.5" font-family="Helvetica,sans-Serif" font-size="10.00"> +$timings</text>
</g>
<!-- Node15 -->
<g id="node15" class="node">
<title>Node15</title>
<g id="a_node15"><a xlink:href="../../d7/d9b/classpocketmine_1_1timings_1_1_timings_handler.html" target="_top" xlink:title=" ">
<polygon fill="white" stroke="#bfbfbf" points="334.8,-1951.5 334.8,-2140.5 447.8,-2140.5 447.8,-1951.5 334.8,-1951.5"/>
<text text-anchor="start" x="342.8" y="-2128.5" font-family="Helvetica,sans-Serif" font-size="10.00">pocketmine\timings</text>
<text text-anchor="middle" x="391.3" y="-2117.5" font-family="Helvetica,sans-Serif" font-size="10.00">\TimingsHandler</text>
<polyline fill="none" stroke="#bfbfbf" points="334.8,-2110.5 447.8,-2110.5 "/>
<text text-anchor="middle" x="391.3" y="-2098.5" font-family="Helvetica,sans-Serif" font-size="10.00"> </text>
<polyline fill="none" stroke="#bfbfbf" points="334.8,-2091.5 447.8,-2091.5 "/>
<text text-anchor="start" x="342.8" y="-2079.5" font-family="Helvetica,sans-Serif" font-size="10.00">+ __construct()</text>
<text text-anchor="start" x="342.8" y="-2068.5" font-family="Helvetica,sans-Serif" font-size="10.00">+ destroyCycles()</text>
<text text-anchor="start" x="342.8" y="-2057.5" font-family="Helvetica,sans-Serif" font-size="10.00">+ getName()</text>
<text text-anchor="start" x="342.8" y="-2046.5" font-family="Helvetica,sans-Serif" font-size="10.00">+ startTiming()</text>
<text text-anchor="start" x="342.8" y="-2035.5" font-family="Helvetica,sans-Serif" font-size="10.00">+ stopTiming()</text>
<text text-anchor="start" x="342.8" y="-2024.5" font-family="Helvetica,sans-Serif" font-size="10.00">+ time()</text>
<text text-anchor="start" x="342.8" y="-2013.5" font-family="Helvetica,sans-Serif" font-size="10.00">+ getStartTime()</text>
<text text-anchor="start" x="342.8" y="-2002.5" font-family="Helvetica,sans-Serif" font-size="10.00">+ isEnabled()</text>
<text text-anchor="start" x="342.8" y="-1991.5" font-family="Helvetica,sans-Serif" font-size="10.00">+ printTimings()</text>
<text text-anchor="start" x="342.8" y="-1980.5" font-family="Helvetica,sans-Serif" font-size="10.00">+ reload()</text>
<text text-anchor="start" x="342.8" y="-1969.5" font-family="Helvetica,sans-Serif" font-size="10.00">+ setEnabled()</text>
<text text-anchor="start" x="342.8" y="-1958.5" font-family="Helvetica,sans-Serif" font-size="10.00">+ tick()</text>
</a>
</g>
</g>
<!-- Node15&#45;&gt;Node14 -->
<g id="edge15" class="edge">
<title>Node15&#45;&gt;Node14</title>
<path fill="none" stroke="#404040" d="M391.3,-1951.07C391.3,-1901.91 391.3,-1842.21 391.3,-1794.65"/>
<polygon fill="none" stroke="#404040" points="391.3,-1794.52 387.3,-1788.52 391.3,-1782.52 395.3,-1788.52 391.3,-1794.52"/>
<text text-anchor="middle" x="468.3" y="-1925" font-family="Helvetica,sans-Serif" font-size="10.00"> +$doBlockLightUpdates</text>
<text text-anchor="middle" x="468.3" y="-1914" font-family="Helvetica,sans-Serif" font-size="10.00">+$doBlockSkyLightUpdates</text>
<text text-anchor="middle" x="468.3" y="-1903" font-family="Helvetica,sans-Serif" font-size="10.00">+$doChunkGC</text>
<text text-anchor="middle" x="468.3" y="-1892" font-family="Helvetica,sans-Serif" font-size="10.00">+$doChunkUnload</text>
<text text-anchor="middle" x="468.3" y="-1881" font-family="Helvetica,sans-Serif" font-size="10.00">+$doTick</text>
<text text-anchor="middle" x="468.3" y="-1870" font-family="Helvetica,sans-Serif" font-size="10.00">+$entityTick</text>
<text text-anchor="middle" x="468.3" y="-1859" font-family="Helvetica,sans-Serif" font-size="10.00">+$randomChunkUpdates</text>
<text text-anchor="start" x="391.3" y="-1848" font-family="Helvetica,sans-Serif" font-size="10.00">+$randomChunkUpdatesChunk</text>
<text text-anchor="middle" x="468.3" y="-1837" font-family="Helvetica,sans-Serif" font-size="10.00">Selection</text>
<text text-anchor="middle" x="468.3" y="-1826" font-family="Helvetica,sans-Serif" font-size="10.00">+$scheduledBlockUpdates</text>
<text text-anchor="middle" x="468.3" y="-1815" font-family="Helvetica,sans-Serif" font-size="10.00">+$setBlock</text>
<text text-anchor="middle" x="468.3" y="-1804" font-family="Helvetica,sans-Serif" font-size="10.00">...</text>
</g>
</g>
</svg>
        <g id="navigator" transform="translate(0 0)" fill="#404254">
                <rect fill="#f2f5e9" fill-opacity="0.5" stroke="#606060" stroke-width=".5" x="0" y="0" width="60" height="60"/>
                <use id="zoomplus" xlink:href="#zoomPlus" x="17" y="9" onmousedown="handleZoom(evt,'in')"/>
                <use id="zoomminus" xlink:href="#zoomMin" x="42" y="9" onmousedown="handleZoom(evt,'out')"/>
                <use id="reset" xlink:href="#resetDef" x="30" y="36" onmousedown="handleReset()"/>
                <g id="arrowUp" xlink:href="#dirArrow" transform="translate(30 24)" onmousedown="handlePan(0,-1)">
                  <use xlink:href="#rim" fill="#404040">
                        <set attributeName="fill" to="#808080" begin="arrowUp.mouseover" end="arrowUp.mouseout"/>
                  </use>
                  <path fill="none" stroke="white" stroke-width="1.5" d="M0,-3.0v7 M-2.5,-0.5L0,-3.0L2.5,-0.5"/>
                </g>
                <g id="arrowRight" xlink:href="#dirArrow" transform="rotate(90) translate(36 -43)" onmousedown="handlePan(1,0)">
                  <use xlink:href="#rim" fill="#404040">
                        <set attributeName="fill" to="#808080" begin="arrowRight.mouseover" end="arrowRight.mouseout"/>
                  </use>
                  <path fill="none" stroke="white" stroke-width="1.5" d="M0,-3.0v7 M-2.5,-0.5L0,-3.0L2.5,-0.5"/>
                </g>
                <g id="arrowDown" xlink:href="#dirArrow" transform="rotate(180) translate(-30 -48)" onmousedown="handlePan(0,1)">
                  <use xlink:href="#rim" fill="#404040">
                        <set attributeName="fill" to="#808080" begin="arrowDown.mouseover" end="arrowDown.mouseout"/>
                  </use>
                  <path fill="none" stroke="white" stroke-width="1.5" d="M0,-3.0v7 M-2.5,-0.5L0,-3.0L2.5,-0.5"/>
                </g>
                <g id="arrowLeft" xlink:href="#dirArrow" transform="rotate(270) translate(-36 17)" onmousedown="handlePan(-1,0)">
                  <use xlink:href="#rim" fill="#404040">
                        <set attributeName="fill" to="#808080" begin="arrowLeft.mouseover" end="arrowLeft.mouseout"/>
                  </use>
                  <path fill="none" stroke="white" stroke-width="1.5" d="M0,-3.0v7 M-2.5,-0.5L0,-3.0L2.5,-0.5"/>
                </g>
        </g>
        <svg viewBox="0 0 15 15" width="100%" height="30px" preserveAspectRatio="xMaxYMin meet">
         <g id="arrow_out" transform="scale(0.3 0.3)">
          <a xlink:href="classpocketmine_1_1block_1_1_detector_rail__coll__graph_org.svg" target="_base">
           <rect id="button" ry="5" rx="5" y="6" x="6" height="38" width="38"
                fill="#f2f5e9" fill-opacity="0.5" stroke="#606060" stroke-width="1.0"/>
           <path id="arrow"
             d="M 11.500037,31.436501 C 11.940474,20.09759 22.043105,11.32322 32.158766,21.979434 L 37.068811,17.246167 C 37.068811,17.246167 37.088388,32 37.088388,32 L 22.160133,31.978069 C 22.160133,31.978069 26.997745,27.140456 26.997745,27.140456 C 18.528582,18.264221 13.291696,25.230495 11.500037,31.436501 z"
             style="fill:#404040;"/>
          </a>
         </g>
        </svg>
</svg>
