<?xml version="1.0" encoding="UTF-8" standalone="no"?>
<!DOCTYPE svg PUBLIC "-//W3C//DTD SVG 1.1//EN"
 "http://www.w3.org/Graphics/SVG/1.1/DTD/svg11.dtd">
<!-- Generated by graphviz version 2.43.0 (0)
 -->
<!-- Title: pocketmine\inventory\transaction\action\DropItemAction Pages: 1 -->
<svg width="159pt" height="306pt"
 viewBox="0.00 0.00 159.00 306.00" xmlns="http://www.w3.org/2000/svg" xmlns:xlink="http://www.w3.org/1999/xlink">
<g id="graph0" class="graph" transform="scale(1 1) rotate(0) translate(4 302)">
<title>pocketmine\inventory\transaction\action\DropItemAction</title>
<!-- Node1 -->
<g id="Node000001" class="node">
<title>Node1</title>
<g id="a_Node000001"><a xlink:title=" ">
<polygon fill="#999999" stroke="transparent" points="150.5,-116 0.5,-116 0.5,0 150.5,0 150.5,-116"/>
<text text-anchor="start" x="5.5" y="-104" font-family="Helvetica,sans-Serif" font-size="10.00">pocketmine\inventory</text>
<text text-anchor="start" x="5.5" y="-93" font-family="Helvetica,sans-Serif" font-size="10.00">\transaction\action\DropItem</text>
<text text-anchor="start" x="60" y="-82" font-family="Helvetica,sans-Serif" font-size="10.00">Action</text>
<text text-anchor="start" x="73.5" y="-67" font-family="Helvetica,sans-Serif" font-size="10.00"> </text>
<text text-anchor="start" x="18" y="-52" font-family="Helvetica,sans-Serif" font-size="10.00">+</text>
<text text-anchor="start" x="44.5" y="-52" font-family="Helvetica,sans-Serif" font-size="10.00">__construct()</text>
<text text-anchor="start" x="18" y="-37" font-family="Helvetica,sans-Serif" font-size="10.00">+</text>
<text text-anchor="start" x="44.5" y="-37" font-family="Helvetica,sans-Serif" font-size="10.00">execute()</text>
<text text-anchor="start" x="18" y="-22" font-family="Helvetica,sans-Serif" font-size="10.00">+</text>
<text text-anchor="start" x="44.5" y="-22" font-family="Helvetica,sans-Serif" font-size="10.00">onPreExecute()</text>
<text text-anchor="start" x="18" y="-7" font-family="Helvetica,sans-Serif" font-size="10.00">+</text>
<text text-anchor="start" x="44.5" y="-7" font-family="Helvetica,sans-Serif" font-size="10.00">validate()</text>
<polygon fill="#666666" stroke="#666666" points="0.5,-77 0.5,-77 150.5,-77 150.5,-77 0.5,-77"/>
<polygon fill="#666666" stroke="#666666" points="0.5,-62 0.5,-62 150.5,-62 150.5,-62 0.5,-62"/>
<polygon fill="none" stroke="#666666" points="0.5,0 0.5,-116 150.5,-116 150.5,0 0.5,0"/>
</a>
</g>
</g>
<!-- Node2 -->
<g id="Node000002" class="node">
<title>Node2</title>
<g id="a_Node000002"><a xlink:href="../../df/def/classpocketmine_1_1inventory_1_1transaction_1_1action_1_1_inventory_action.html" target="_top" xlink:title=" ">
<polygon fill="white" stroke="transparent" points="151,-298 0,-298 0,-152 151,-152 151,-298"/>
<text text-anchor="start" x="5.5" y="-286" font-family="Helvetica,sans-Serif" font-size="10.00">pocketmine\inventory</text>
<text text-anchor="start" x="5.5" y="-275" font-family="Helvetica,sans-Serif" font-size="10.00">\transaction\action\Inventory</text>
<text text-anchor="start" x="60.5" y="-264" font-family="Helvetica,sans-Serif" font-size="10.00">Action</text>
<text text-anchor="start" x="74" y="-249" font-family="Helvetica,sans-Serif" font-size="10.00"> </text>
<text text-anchor="start" x="17" y="-234" font-family="Helvetica,sans-Serif" font-size="10.00">+</text>
<text text-anchor="start" x="42.5" y="-234" font-family="Helvetica,sans-Serif" font-size="10.00">__construct()</text>
<text text-anchor="start" x="17" y="-219" font-family="Helvetica,sans-Serif" font-size="10.00">+</text>
<text text-anchor="start" x="42.5" y="-219" font-family="Helvetica,sans-Serif" font-size="10.00">execute()</text>
<text text-anchor="start" x="17" y="-204" font-family="Helvetica,sans-Serif" font-size="10.00">+</text>
<text text-anchor="start" x="42.5" y="-204" font-family="Helvetica,sans-Serif" font-size="10.00">getSourceItem()</text>
<text text-anchor="start" x="17" y="-189" font-family="Helvetica,sans-Serif" font-size="10.00">+</text>
<text text-anchor="start" x="42.5" y="-189" font-family="Helvetica,sans-Serif" font-size="10.00">getTargetItem()</text>
<text text-anchor="start" x="17" y="-174" font-family="Helvetica,sans-Serif" font-size="10.00">+</text>
<text text-anchor="start" x="42.5" y="-174" font-family="Helvetica,sans-Serif" font-size="10.00">onPreExecute()</text>
<text text-anchor="start" x="17" y="-159" font-family="Helvetica,sans-Serif" font-size="10.00">+</text>
<text text-anchor="start" x="42.5" y="-159" font-family="Helvetica,sans-Serif" font-size="10.00">validate()</text>
<polygon fill="#666666" stroke="#666666" points="0.5,-259 0.5,-259 151.5,-259 151.5,-259 0.5,-259"/>
<polygon fill="#666666" stroke="#666666" points="0.5,-244 0.5,-244 151.5,-244 151.5,-244 0.5,-244"/>
<polygon fill="none" stroke="#666666" points="0,-152 0,-298 151,-298 151,-152 0,-152"/>
</a>
</g>
</g>
<!-- Node2&#45;&gt;Node1 -->
<g id="edge1_Node000001_Node000002" class="edge">
<title>Node2&#45;&gt;Node1</title>
<g id="a_edge1_Node000001_Node000002"><a xlink:title=" ">
<path fill="none" stroke="#63b8ff" d="M75.5,-141.37C75.5,-132.94 75.5,-124.51 75.5,-116.44"/>
<polygon fill="none" stroke="#63b8ff" points="72,-141.63 75.5,-151.63 79,-141.63 72,-141.63"/>
</a>
</g>
</g>
</g>
</svg>
