<?xml version="1.0" encoding="UTF-8" standalone="no"?>
<!DOCTYPE svg PUBLIC "-//W3C//DTD SVG 1.1//EN"
 "http://www.w3.org/Graphics/SVG/1.1/DTD/svg11.dtd">
<!-- Generated by graphviz version 2.43.0 (0)
 -->
<!-- Title: pocketmine\block\Cake Pages: 1 -->
<svg width="363pt" height="672pt"
 viewBox="0.00 0.00 362.50 672.00" xmlns="http://www.w3.org/2000/svg" xmlns:xlink="http://www.w3.org/1999/xlink">
<g id="graph0" class="graph" transform="scale(1 1) rotate(0) translate(4 668)">
<title>pocketmine\block\Cake</title>
<polygon fill="white" stroke="transparent" points="-4,4 -4,-668 358.5,-668 358.5,4 -4,4"/>
<!-- Node1 -->
<g id="node1" class="node">
<title>Node1</title>
<g id="a_node1"><a xlink:title=" ">
<polygon fill="#bfbfbf" stroke="black" points="92,-0.5 92,-233.5 262,-233.5 262,-0.5 92,-0.5"/>
<text text-anchor="middle" x="177" y="-221.5" font-family="Helvetica,sans-Serif" font-size="10.00">pocketmine\block\Cake</text>
<polyline fill="none" stroke="black" points="92,-214.5 262,-214.5 "/>
<text text-anchor="start" x="100" y="-202.5" font-family="Helvetica,sans-Serif" font-size="10.00">+ MAX_BITES</text>
<text text-anchor="start" x="100" y="-191.5" font-family="Helvetica,sans-Serif" font-size="10.00"># $bites</text>
<polyline fill="none" stroke="black" points="92,-184.5 262,-184.5 "/>
<text text-anchor="start" x="100" y="-172.5" font-family="Helvetica,sans-Serif" font-size="10.00">+ getAdditionalEffects()</text>
<text text-anchor="start" x="100" y="-161.5" font-family="Helvetica,sans-Serif" font-size="10.00">+ getBites()</text>
<text text-anchor="start" x="100" y="-150.5" font-family="Helvetica,sans-Serif" font-size="10.00">+ getDropsForCompatibleTool()</text>
<text text-anchor="start" x="100" y="-139.5" font-family="Helvetica,sans-Serif" font-size="10.00">+ getFoodRestore()</text>
<text text-anchor="start" x="100" y="-128.5" font-family="Helvetica,sans-Serif" font-size="10.00">+ getResidue()</text>
<text text-anchor="start" x="100" y="-117.5" font-family="Helvetica,sans-Serif" font-size="10.00">+ getSaturationRestore()</text>
<text text-anchor="start" x="100" y="-106.5" font-family="Helvetica,sans-Serif" font-size="10.00">+ getStateBitmask()</text>
<text text-anchor="start" x="100" y="-95.5" font-family="Helvetica,sans-Serif" font-size="10.00">+ onConsume()</text>
<text text-anchor="start" x="100" y="-84.5" font-family="Helvetica,sans-Serif" font-size="10.00">+ onInteract()</text>
<text text-anchor="start" x="100" y="-73.5" font-family="Helvetica,sans-Serif" font-size="10.00">+ onNearbyBlockChange()</text>
<text text-anchor="start" x="100" y="-62.5" font-family="Helvetica,sans-Serif" font-size="10.00">+ place()</text>
<text text-anchor="start" x="100" y="-51.5" font-family="Helvetica,sans-Serif" font-size="10.00">+ readStateFromData()</text>
<text text-anchor="start" x="100" y="-40.5" font-family="Helvetica,sans-Serif" font-size="10.00">+ requiresHunger()</text>
<text text-anchor="start" x="100" y="-29.5" font-family="Helvetica,sans-Serif" font-size="10.00">+ setBites()</text>
<text text-anchor="start" x="100" y="-18.5" font-family="Helvetica,sans-Serif" font-size="10.00"># recalculateCollisionBoxes()</text>
<text text-anchor="start" x="100" y="-7.5" font-family="Helvetica,sans-Serif" font-size="10.00"># writeStateToMeta()</text>
</a>
</g>
</g>
<!-- Node2 -->
<g id="node2" class="node">
<title>Node2</title>
<g id="a_node2"><a xlink:href="../../d5/d1b/classpocketmine_1_1block_1_1_transparent.html" target="_top" xlink:title=" ">
<polygon fill="white" stroke="#bfbfbf" points="4.5,-281.5 4.5,-338.5 167.5,-338.5 167.5,-281.5 4.5,-281.5"/>
<text text-anchor="middle" x="86" y="-326.5" font-family="Helvetica,sans-Serif" font-size="10.00">pocketmine\block\Transparent</text>
<polyline fill="none" stroke="#bfbfbf" points="4.5,-319.5 167.5,-319.5 "/>
<text text-anchor="middle" x="86" y="-307.5" font-family="Helvetica,sans-Serif" font-size="10.00"> </text>
<polyline fill="none" stroke="#bfbfbf" points="4.5,-300.5 167.5,-300.5 "/>
<text text-anchor="start" x="12.5" y="-288.5" font-family="Helvetica,sans-Serif" font-size="10.00">+ isTransparent()</text>
</a>
</g>
</g>
<!-- Node2&#45;&gt;Node1 -->
<g id="edge1" class="edge">
<title>Node2&#45;&gt;Node1</title>
<path fill="none" stroke="midnightblue" d="M103.57,-272.12C108.99,-260.75 115.27,-247.57 121.83,-233.79"/>
<polygon fill="none" stroke="midnightblue" points="100.37,-270.69 99.23,-281.23 106.69,-273.7 100.37,-270.69"/>
</g>
<!-- Node3 -->
<g id="node3" class="node">
<title>Node3</title>
<g id="a_node3"><a xlink:href="../../d7/d27/classpocketmine_1_1block_1_1_block.html" target="_top" xlink:title=" ">
<polygon fill="white" stroke="#bfbfbf" points="0,-386.5 0,-663.5 168,-663.5 168,-386.5 0,-386.5"/>
<text text-anchor="middle" x="84" y="-651.5" font-family="Helvetica,sans-Serif" font-size="10.00">pocketmine\block\Block</text>
<polyline fill="none" stroke="#bfbfbf" points="0,-644.5 168,-644.5 "/>
<text text-anchor="start" x="8" y="-632.5" font-family="Helvetica,sans-Serif" font-size="10.00">+ INTERNAL_METADATA_BITS</text>
<text text-anchor="start" x="8" y="-621.5" font-family="Helvetica,sans-Serif" font-size="10.00">+ INTERNAL_METADATA_MASK</text>
<text text-anchor="start" x="8" y="-610.5" font-family="Helvetica,sans-Serif" font-size="10.00"># $breakInfo</text>
<text text-anchor="start" x="8" y="-599.5" font-family="Helvetica,sans-Serif" font-size="10.00"># $collisionBoxes</text>
<text text-anchor="start" x="8" y="-588.5" font-family="Helvetica,sans-Serif" font-size="10.00"># $fallbackName</text>
<text text-anchor="start" x="8" y="-577.5" font-family="Helvetica,sans-Serif" font-size="10.00"># $idInfo</text>
<text text-anchor="start" x="8" y="-566.5" font-family="Helvetica,sans-Serif" font-size="10.00"># $position</text>
<polyline fill="none" stroke="#bfbfbf" points="0,-559.5 168,-559.5 "/>
<text text-anchor="start" x="8" y="-547.5" font-family="Helvetica,sans-Serif" font-size="10.00">+ __construct()</text>
<text text-anchor="start" x="8" y="-536.5" font-family="Helvetica,sans-Serif" font-size="10.00">+ __clone()</text>
<text text-anchor="start" x="8" y="-525.5" font-family="Helvetica,sans-Serif" font-size="10.00">+ __toString()</text>
<text text-anchor="start" x="8" y="-514.5" font-family="Helvetica,sans-Serif" font-size="10.00">+ addVelocityToEntity()</text>
<text text-anchor="start" x="8" y="-503.5" font-family="Helvetica,sans-Serif" font-size="10.00">+ asItem()</text>
<text text-anchor="start" x="8" y="-492.5" font-family="Helvetica,sans-Serif" font-size="10.00">+ blocksDirectSkyLight()</text>
<text text-anchor="start" x="8" y="-481.5" font-family="Helvetica,sans-Serif" font-size="10.00">+ burnsForever()</text>
<text text-anchor="start" x="8" y="-470.5" font-family="Helvetica,sans-Serif" font-size="10.00">+ calculateIntercept()</text>
<text text-anchor="start" x="8" y="-459.5" font-family="Helvetica,sans-Serif" font-size="10.00">+ canBeFlowedInto()</text>
<text text-anchor="start" x="8" y="-448.5" font-family="Helvetica,sans-Serif" font-size="10.00">+ canBePlaced()</text>
<text text-anchor="start" x="8" y="-437.5" font-family="Helvetica,sans-Serif" font-size="10.00">and 56 more...</text>
<text text-anchor="start" x="8" y="-426.5" font-family="Helvetica,sans-Serif" font-size="10.00"># getXpDropAmount()</text>
<text text-anchor="start" x="8" y="-415.5" font-family="Helvetica,sans-Serif" font-size="10.00"># recalculateCollisionBoxes()</text>
<text text-anchor="start" x="8" y="-404.5" font-family="Helvetica,sans-Serif" font-size="10.00"># writeStateToItemMeta()</text>
<text text-anchor="start" x="8" y="-393.5" font-family="Helvetica,sans-Serif" font-size="10.00"># writeStateToMeta()</text>
</a>
</g>
</g>
<!-- Node3&#45;&gt;Node2 -->
<g id="edge2" class="edge">
<title>Node3&#45;&gt;Node2</title>
<path fill="none" stroke="midnightblue" d="M85.39,-376.03C85.52,-362.04 85.64,-349.19 85.74,-338.67"/>
<polygon fill="none" stroke="midnightblue" points="81.89,-376.36 85.29,-386.4 88.89,-376.43 81.89,-376.36"/>
</g>
<!-- Node4 -->
<g id="node4" class="node">
<title>Node4</title>
<g id="a_node4"><a xlink:href="../../df/dfd/interfacepocketmine_1_1entity_1_1_food_source.html" target="_top" xlink:title=" ">
<polygon fill="white" stroke="black" points="187,-270.5 187,-349.5 351,-349.5 351,-270.5 187,-270.5"/>
<text text-anchor="middle" x="269" y="-337.5" font-family="Helvetica,sans-Serif" font-size="10.00">pocketmine\entity\FoodSource</text>
<polyline fill="none" stroke="black" points="187,-330.5 351,-330.5 "/>
<text text-anchor="middle" x="269" y="-318.5" font-family="Helvetica,sans-Serif" font-size="10.00"> </text>
<polyline fill="none" stroke="black" points="187,-311.5 351,-311.5 "/>
<text text-anchor="start" x="195" y="-299.5" font-family="Helvetica,sans-Serif" font-size="10.00">+ getFoodRestore()</text>
<text text-anchor="start" x="195" y="-288.5" font-family="Helvetica,sans-Serif" font-size="10.00">+ getSaturationRestore()</text>
<text text-anchor="start" x="195" y="-277.5" font-family="Helvetica,sans-Serif" font-size="10.00">+ requiresHunger()</text>
</a>
</g>
</g>
<!-- Node4&#45;&gt;Node1 -->
<g id="edge3" class="edge">
<title>Node4&#45;&gt;Node1</title>
<path fill="none" stroke="midnightblue" d="M246,-261.26C241.84,-252.61 237.33,-243.26 232.69,-233.62"/>
<polygon fill="none" stroke="midnightblue" points="242.89,-262.86 250.38,-270.35 249.2,-259.82 242.89,-262.86"/>
</g>
<!-- Node5 -->
<g id="node5" class="node">
<title>Node5</title>
<g id="a_node5"><a xlink:href="../../db/d3f/interfacepocketmine_1_1entity_1_1_consumable.html" target="_top" xlink:title=" ">
<polygon fill="white" stroke="black" points="185.5,-491 185.5,-559 354.5,-559 354.5,-491 185.5,-491"/>
<text text-anchor="middle" x="270" y="-547" font-family="Helvetica,sans-Serif" font-size="10.00">pocketmine\entity\Consumable</text>
<polyline fill="none" stroke="black" points="185.5,-540 354.5,-540 "/>
<text text-anchor="middle" x="270" y="-528" font-family="Helvetica,sans-Serif" font-size="10.00"> </text>
<polyline fill="none" stroke="black" points="185.5,-521 354.5,-521 "/>
<text text-anchor="start" x="193.5" y="-509" font-family="Helvetica,sans-Serif" font-size="10.00">+ getAdditionalEffects()</text>
<text text-anchor="start" x="193.5" y="-498" font-family="Helvetica,sans-Serif" font-size="10.00">+ onConsume()</text>
</a>
</g>
</g>
<!-- Node5&#45;&gt;Node4 -->
<g id="edge4" class="edge">
<title>Node5&#45;&gt;Node4</title>
<path fill="none" stroke="midnightblue" d="M269.8,-480.38C269.62,-442.01 269.36,-386.68 269.18,-349.82"/>
<polygon fill="none" stroke="midnightblue" points="266.3,-480.74 269.84,-490.72 273.3,-480.7 266.3,-480.74"/>
</g>
</g>
</svg>
