<?xml version="1.0" encoding="UTF-8" standalone="no"?>
<!DOCTYPE svg PUBLIC "-//W3C//DTD SVG 1.1//EN"
 "http://www.w3.org/Graphics/SVG/1.1/DTD/svg11.dtd">
<!-- Generated by graphviz version 2.43.0 (0)
 -->
<!-- Title: pocketmine\inventory\ArmorInventory Pages: 1 -->
<svg width="381pt" height="939pt"
 viewBox="0.00 0.00 380.50 939.00" xmlns="http://www.w3.org/2000/svg" xmlns:xlink="http://www.w3.org/1999/xlink">
<g id="graph0" class="graph" transform="scale(1 1) rotate(0) translate(4 935)">
<title>pocketmine\inventory\ArmorInventory</title>
<polygon fill="white" stroke="transparent" points="-4,4 -4,-935 376.5,-935 376.5,4 -4,4"/>
<!-- Node1 -->
<g id="node1" class="node">
<title>Node1</title>
<g id="a_node1"><a xlink:title=" ">
<polygon fill="#bfbfbf" stroke="black" points="0,-0.5 0,-167.5 123,-167.5 123,-0.5 0,-0.5"/>
<text text-anchor="start" x="8" y="-155.5" font-family="Helvetica,sans-Serif" font-size="10.00">pocketmine\inventory</text>
<text text-anchor="middle" x="61.5" y="-144.5" font-family="Helvetica,sans-Serif" font-size="10.00">\ArmorInventory</text>
<polyline fill="none" stroke="black" points="0,-137.5 123,-137.5 "/>
<text text-anchor="middle" x="61.5" y="-125.5" font-family="Helvetica,sans-Serif" font-size="10.00"> </text>
<polyline fill="none" stroke="black" points="0,-118.5 123,-118.5 "/>
<text text-anchor="start" x="8" y="-106.5" font-family="Helvetica,sans-Serif" font-size="10.00">+ __construct()</text>
<text text-anchor="start" x="8" y="-95.5" font-family="Helvetica,sans-Serif" font-size="10.00">+ getBoots()</text>
<text text-anchor="start" x="8" y="-84.5" font-family="Helvetica,sans-Serif" font-size="10.00">+ getChestplate()</text>
<text text-anchor="start" x="8" y="-73.5" font-family="Helvetica,sans-Serif" font-size="10.00">+ getHelmet()</text>
<text text-anchor="start" x="8" y="-62.5" font-family="Helvetica,sans-Serif" font-size="10.00">+ getHolder()</text>
<text text-anchor="start" x="8" y="-51.5" font-family="Helvetica,sans-Serif" font-size="10.00">+ getLeggings()</text>
<text text-anchor="start" x="8" y="-40.5" font-family="Helvetica,sans-Serif" font-size="10.00">+ setBoots()</text>
<text text-anchor="start" x="8" y="-29.5" font-family="Helvetica,sans-Serif" font-size="10.00">+ setChestplate()</text>
<text text-anchor="start" x="8" y="-18.5" font-family="Helvetica,sans-Serif" font-size="10.00">+ setHelmet()</text>
<text text-anchor="start" x="8" y="-7.5" font-family="Helvetica,sans-Serif" font-size="10.00">+ setLeggings()</text>
</a>
</g>
</g>
<!-- Node2 -->
<g id="node2" class="node">
<title>Node2</title>
<g id="a_node2"><a xlink:href="../../d6/dc1/classpocketmine_1_1inventory_1_1_simple_inventory.html" target="_top" xlink:title=" ">
<polygon fill="white" stroke="black" points="88.5,-205.5 88.5,-328.5 220.5,-328.5 220.5,-205.5 88.5,-205.5"/>
<text text-anchor="start" x="96.5" y="-316.5" font-family="Helvetica,sans-Serif" font-size="10.00">pocketmine\inventory</text>
<text text-anchor="middle" x="154.5" y="-305.5" font-family="Helvetica,sans-Serif" font-size="10.00">\SimpleInventory</text>
<polyline fill="none" stroke="black" points="88.5,-298.5 220.5,-298.5 "/>
<text text-anchor="start" x="96.5" y="-286.5" font-family="Helvetica,sans-Serif" font-size="10.00"># $slots</text>
<polyline fill="none" stroke="black" points="88.5,-279.5 220.5,-279.5 "/>
<text text-anchor="start" x="96.5" y="-267.5" font-family="Helvetica,sans-Serif" font-size="10.00">+ __construct()</text>
<text text-anchor="start" x="96.5" y="-256.5" font-family="Helvetica,sans-Serif" font-size="10.00">+ getContents()</text>
<text text-anchor="start" x="96.5" y="-245.5" font-family="Helvetica,sans-Serif" font-size="10.00">+ getItem()</text>
<text text-anchor="start" x="96.5" y="-234.5" font-family="Helvetica,sans-Serif" font-size="10.00">+ getSize()</text>
<text text-anchor="start" x="96.5" y="-223.5" font-family="Helvetica,sans-Serif" font-size="10.00"># internalSetContents()</text>
<text text-anchor="start" x="96.5" y="-212.5" font-family="Helvetica,sans-Serif" font-size="10.00"># internalSetItem()</text>
</a>
</g>
</g>
<!-- Node2&#45;&gt;Node1 -->
<g id="edge1" class="edge">
<title>Node2&#45;&gt;Node1</title>
<path fill="none" stroke="midnightblue" d="M118.81,-196.54C113.96,-187.1 108.94,-177.33 103.99,-167.69"/>
<polygon fill="none" stroke="midnightblue" points="115.72,-198.18 123.4,-205.48 121.95,-194.98 115.72,-198.18"/>
</g>
<!-- Node3 -->
<g id="node3" class="node">
<title>Node3</title>
<g id="a_node3"><a xlink:href="../../d5/dc4/classpocketmine_1_1inventory_1_1_base_inventory.html" target="_top" xlink:title=" ">
<polygon fill="white" stroke="black" points="115,-366.5 115,-599.5 270,-599.5 270,-366.5 115,-366.5"/>
<text text-anchor="start" x="123" y="-587.5" font-family="Helvetica,sans-Serif" font-size="10.00">pocketmine\inventory</text>
<text text-anchor="middle" x="192.5" y="-576.5" font-family="Helvetica,sans-Serif" font-size="10.00">\BaseInventory</text>
<polyline fill="none" stroke="black" points="115,-569.5 270,-569.5 "/>
<text text-anchor="start" x="123" y="-557.5" font-family="Helvetica,sans-Serif" font-size="10.00"># $maxStackSize</text>
<text text-anchor="start" x="123" y="-546.5" font-family="Helvetica,sans-Serif" font-size="10.00"># $viewers</text>
<polyline fill="none" stroke="black" points="115,-539.5 270,-539.5 "/>
<text text-anchor="start" x="123" y="-527.5" font-family="Helvetica,sans-Serif" font-size="10.00">+ __construct()</text>
<text text-anchor="start" x="123" y="-516.5" font-family="Helvetica,sans-Serif" font-size="10.00">+ addItem()</text>
<text text-anchor="start" x="123" y="-505.5" font-family="Helvetica,sans-Serif" font-size="10.00">+ all()</text>
<text text-anchor="start" x="123" y="-494.5" font-family="Helvetica,sans-Serif" font-size="10.00">+ canAddItem()</text>
<text text-anchor="start" x="123" y="-483.5" font-family="Helvetica,sans-Serif" font-size="10.00">+ clear()</text>
<text text-anchor="start" x="123" y="-472.5" font-family="Helvetica,sans-Serif" font-size="10.00">+ clearAll()</text>
<text text-anchor="start" x="123" y="-461.5" font-family="Helvetica,sans-Serif" font-size="10.00">+ contains()</text>
<text text-anchor="start" x="123" y="-450.5" font-family="Helvetica,sans-Serif" font-size="10.00">+ first()</text>
<text text-anchor="start" x="123" y="-439.5" font-family="Helvetica,sans-Serif" font-size="10.00">+ firstEmpty()</text>
<text text-anchor="start" x="123" y="-428.5" font-family="Helvetica,sans-Serif" font-size="10.00">+ getAddableItemQuantity()</text>
<text text-anchor="start" x="123" y="-417.5" font-family="Helvetica,sans-Serif" font-size="10.00">and 14 more...</text>
<text text-anchor="start" x="123" y="-406.5" font-family="Helvetica,sans-Serif" font-size="10.00"># internalSetContents()</text>
<text text-anchor="start" x="123" y="-395.5" font-family="Helvetica,sans-Serif" font-size="10.00"># internalSetItem()</text>
<text text-anchor="start" x="123" y="-384.5" font-family="Helvetica,sans-Serif" font-size="10.00"># onContentChange()</text>
<text text-anchor="start" x="123" y="-373.5" font-family="Helvetica,sans-Serif" font-size="10.00"># onSlotChange()</text>
</a>
</g>
</g>
<!-- Node3&#45;&gt;Node2 -->
<g id="edge2" class="edge">
<title>Node3&#45;&gt;Node2</title>
<path fill="none" stroke="midnightblue" d="M170.17,-356.22C168.47,-346.68 166.81,-337.34 165.25,-328.53"/>
<polygon fill="none" stroke="midnightblue" points="166.75,-357 171.94,-366.23 173.64,-355.77 166.75,-357"/>
</g>
<!-- Node4 -->
<g id="node4" class="node">
<title>Node4</title>
<g id="a_node4"><a xlink:href="../../db/d39/interfacepocketmine_1_1inventory_1_1_inventory.html" target="_top" xlink:title=" ">
<polygon fill="white" stroke="#bfbfbf" points="51,-647.5 51,-825.5 206,-825.5 206,-647.5 51,-647.5"/>
<text text-anchor="start" x="59" y="-813.5" font-family="Helvetica,sans-Serif" font-size="10.00">pocketmine\inventory</text>
<text text-anchor="middle" x="128.5" y="-802.5" font-family="Helvetica,sans-Serif" font-size="10.00">\Inventory</text>
<polyline fill="none" stroke="#bfbfbf" points="51,-795.5 206,-795.5 "/>
<text text-anchor="middle" x="128.5" y="-783.5" font-family="Helvetica,sans-Serif" font-size="10.00"> </text>
<polyline fill="none" stroke="#bfbfbf" points="51,-776.5 206,-776.5 "/>
<text text-anchor="start" x="59" y="-764.5" font-family="Helvetica,sans-Serif" font-size="10.00">+ addItem()</text>
<text text-anchor="start" x="59" y="-753.5" font-family="Helvetica,sans-Serif" font-size="10.00">+ all()</text>
<text text-anchor="start" x="59" y="-742.5" font-family="Helvetica,sans-Serif" font-size="10.00">+ canAddItem()</text>
<text text-anchor="start" x="59" y="-731.5" font-family="Helvetica,sans-Serif" font-size="10.00">+ clear()</text>
<text text-anchor="start" x="59" y="-720.5" font-family="Helvetica,sans-Serif" font-size="10.00">+ clearAll()</text>
<text text-anchor="start" x="59" y="-709.5" font-family="Helvetica,sans-Serif" font-size="10.00">+ contains()</text>
<text text-anchor="start" x="59" y="-698.5" font-family="Helvetica,sans-Serif" font-size="10.00">+ first()</text>
<text text-anchor="start" x="59" y="-687.5" font-family="Helvetica,sans-Serif" font-size="10.00">+ firstEmpty()</text>
<text text-anchor="start" x="59" y="-676.5" font-family="Helvetica,sans-Serif" font-size="10.00">+ getAddableItemQuantity()</text>
<text text-anchor="start" x="59" y="-665.5" font-family="Helvetica,sans-Serif" font-size="10.00">+ getContents()</text>
<text text-anchor="start" x="59" y="-654.5" font-family="Helvetica,sans-Serif" font-size="10.00">and 15 more...</text>
</a>
</g>
</g>
<!-- Node4&#45;&gt;Node3 -->
<g id="edge3" class="edge">
<title>Node4&#45;&gt;Node3</title>
<path fill="none" stroke="midnightblue" d="M153.46,-637.41C156.59,-625.12 159.81,-612.45 163,-599.91"/>
<polygon fill="none" stroke="midnightblue" points="150.05,-636.63 150.97,-647.18 156.83,-638.36 150.05,-636.63"/>
</g>
<!-- Node5 -->
<g id="node5" class="node">
<title>Node5</title>
<g id="a_node5"><a xlink:title=" ">
<polygon fill="white" stroke="#bfbfbf" points="36,-873.5 36,-930.5 79,-930.5 79,-873.5 36,-873.5"/>
<text text-anchor="middle" x="57.5" y="-918.5" font-family="Helvetica,sans-Serif" font-size="10.00">const</text>
<polyline fill="none" stroke="#bfbfbf" points="36,-911.5 79,-911.5 "/>
<text text-anchor="middle" x="57.5" y="-899.5" font-family="Helvetica,sans-Serif" font-size="10.00"> </text>
<polyline fill="none" stroke="#bfbfbf" points="36,-892.5 79,-892.5 "/>
<text text-anchor="middle" x="57.5" y="-880.5" font-family="Helvetica,sans-Serif" font-size="10.00"> </text>
</a>
</g>
</g>
<!-- Node5&#45;&gt;Node1 -->
<g id="edge7" class="edge">
<title>Node5&#45;&gt;Node1</title>
<path fill="none" stroke="#404040" d="M47.84,-873.32C37.48,-841.11 22.5,-786.12 22.5,-737.5 22.5,-737.5 22.5,-737.5 22.5,-266 22.5,-237.58 27.15,-207.2 33.24,-179.6"/>
<polygon fill="none" stroke="#404040" points="33.33,-179.24 30.78,-172.5 36.03,-167.55 38.58,-174.3 33.33,-179.24"/>
<text text-anchor="middle" x="59.5" y="-497" font-family="Helvetica,sans-Serif" font-size="10.00"> +SLOT_CHEST</text>
<text text-anchor="middle" x="59.5" y="-486" font-family="Helvetica,sans-Serif" font-size="10.00">+SLOT_FEET</text>
<text text-anchor="middle" x="59.5" y="-475" font-family="Helvetica,sans-Serif" font-size="10.00">+SLOT_HEAD</text>
<text text-anchor="middle" x="59.5" y="-464" font-family="Helvetica,sans-Serif" font-size="10.00">+SLOT_LEGS</text>
</g>
<!-- Node5&#45;&gt;Node4 -->
<g id="edge4" class="edge">
<title>Node5&#45;&gt;Node4</title>
<path fill="none" stroke="#404040" d="M69.54,-873.26C74.09,-862.8 79.56,-850.2 85.31,-836.95"/>
<polygon fill="none" stroke="#404040" points="85.42,-836.7 84.14,-829.61 90.2,-825.7 91.48,-832.79 85.42,-836.7"/>
<text text-anchor="middle" x="116" y="-847" font-family="Helvetica,sans-Serif" font-size="10.00"> +MAX_STACK</text>
</g>
<!-- Node6 -->
<g id="node6" class="node">
<title>Node6</title>
<g id="a_node6"><a xlink:href="../../dd/de5/classpocketmine_1_1utils_1_1_object_set.html" target="_top" xlink:title=" ">
<polygon fill="white" stroke="black" points="224.5,-680.5 224.5,-792.5 372.5,-792.5 372.5,-680.5 224.5,-680.5"/>
<text text-anchor="middle" x="298.5" y="-780.5" font-family="Helvetica,sans-Serif" font-size="10.00">pocketmine\utils\ObjectSet</text>
<polyline fill="none" stroke="black" points="224.5,-773.5 372.5,-773.5 "/>
<text text-anchor="middle" x="298.5" y="-761.5" font-family="Helvetica,sans-Serif" font-size="10.00"> </text>
<polyline fill="none" stroke="black" points="224.5,-754.5 372.5,-754.5 "/>
<text text-anchor="start" x="232.5" y="-742.5" font-family="Helvetica,sans-Serif" font-size="10.00">+ add()</text>
<text text-anchor="start" x="232.5" y="-731.5" font-family="Helvetica,sans-Serif" font-size="10.00">+ clear()</text>
<text text-anchor="start" x="232.5" y="-720.5" font-family="Helvetica,sans-Serif" font-size="10.00">+ contains()</text>
<text text-anchor="start" x="232.5" y="-709.5" font-family="Helvetica,sans-Serif" font-size="10.00">+ getIterator()</text>
<text text-anchor="start" x="232.5" y="-698.5" font-family="Helvetica,sans-Serif" font-size="10.00">+ remove()</text>
<text text-anchor="start" x="232.5" y="-687.5" font-family="Helvetica,sans-Serif" font-size="10.00">+ toArray()</text>
</a>
</g>
</g>
<!-- Node6&#45;&gt;Node3 -->
<g id="edge5" class="edge">
<title>Node6&#45;&gt;Node3</title>
<path fill="none" stroke="#404040" d="M275.24,-680.31C266.54,-659.68 256.27,-635.31 245.98,-610.88"/>
<polygon fill="none" stroke="#404040" points="245.91,-610.72 239.89,-606.75 241.25,-599.67 247.27,-603.64 245.91,-610.72"/>
<text text-anchor="middle" x="282.5" y="-621" font-family="Helvetica,sans-Serif" font-size="10.00"> #$listeners</text>
</g>
<!-- Node7 -->
<g id="node7" class="node">
<title>Node7</title>
<g id="a_node7"><a xlink:title=" ">
<polygon fill="white" stroke="#bfbfbf" points="247,-873.5 247,-930.5 350,-930.5 350,-873.5 247,-873.5"/>
<text text-anchor="middle" x="298.5" y="-918.5" font-family="Helvetica,sans-Serif" font-size="10.00">IteratorAggregate</text>
<polyline fill="none" stroke="#bfbfbf" points="247,-911.5 350,-911.5 "/>
<text text-anchor="middle" x="298.5" y="-899.5" font-family="Helvetica,sans-Serif" font-size="10.00"> </text>
<polyline fill="none" stroke="#bfbfbf" points="247,-892.5 350,-892.5 "/>
<text text-anchor="middle" x="298.5" y="-880.5" font-family="Helvetica,sans-Serif" font-size="10.00"> </text>
</a>
</g>
</g>
<!-- Node7&#45;&gt;Node6 -->
<g id="edge6" class="edge">
<title>Node7&#45;&gt;Node6</title>
<path fill="none" stroke="midnightblue" d="M298.5,-863.15C298.5,-842.19 298.5,-815.76 298.5,-792.55"/>
<polygon fill="none" stroke="midnightblue" points="295,-863.26 298.5,-873.26 302,-863.26 295,-863.26"/>
</g>
</g>
</svg>
