<?xml version="1.0" encoding="UTF-8" standalone="no"?>
<!DOCTYPE svg PUBLIC "-//W3C//DTD SVG 1.1//EN"
 "http://www.w3.org/Graphics/SVG/1.1/DTD/svg11.dtd">
<!-- Generated by graphviz version 2.43.0 (0)
 -->
<!-- Title: pocketmine\inventory\ArmorInventory Pages: 1 -->
<svg width="461pt" height="1171pt"
 viewBox="0.00 0.00 460.50 1171.00" xmlns="http://www.w3.org/2000/svg" xmlns:xlink="http://www.w3.org/1999/xlink">
<g id="graph0" class="graph" transform="scale(1 1) rotate(0) translate(4 1167)">
<title>pocketmine\inventory\ArmorInventory</title>
<!-- Node1 -->
<g id="Node000001" class="node">
<title>Node1</title>
<g id="a_Node000001"><a xlink:title=" ">
<polygon fill="#999999" stroke="transparent" points="288,-225 171,-225 171,0 288,0 288,-225"/>
<text text-anchor="start" x="176.5" y="-212.5" font-family="Helvetica,sans-Serif" font-size="10.00">pocketmine\inventory</text>
<text text-anchor="start" x="190" y="-201.5" font-family="Helvetica,sans-Serif" font-size="10.00">\ArmorInventory</text>
<text text-anchor="start" x="180.5" y="-186.5" font-family="Helvetica,sans-Serif" font-size="10.00">+</text>
<text text-anchor="start" x="198.5" y="-186.5" font-family="Helvetica,sans-Serif" font-size="10.00">SLOT_CHEST</text>
<text text-anchor="start" x="180.5" y="-171.5" font-family="Helvetica,sans-Serif" font-size="10.00">+</text>
<text text-anchor="start" x="198.5" y="-171.5" font-family="Helvetica,sans-Serif" font-size="10.00">SLOT_FEET</text>
<text text-anchor="start" x="180.5" y="-156.5" font-family="Helvetica,sans-Serif" font-size="10.00">+</text>
<text text-anchor="start" x="198.5" y="-156.5" font-family="Helvetica,sans-Serif" font-size="10.00">SLOT_HEAD</text>
<text text-anchor="start" x="180.5" y="-141.5" font-family="Helvetica,sans-Serif" font-size="10.00">+</text>
<text text-anchor="start" x="198.5" y="-141.5" font-family="Helvetica,sans-Serif" font-size="10.00">SLOT_LEGS</text>
<text text-anchor="start" x="180.5" y="-126.5" font-family="Helvetica,sans-Serif" font-size="10.00">+</text>
<text text-anchor="start" x="198.5" y="-126.5" font-family="Helvetica,sans-Serif" font-size="10.00">__construct()</text>
<text text-anchor="start" x="180.5" y="-111.5" font-family="Helvetica,sans-Serif" font-size="10.00">+</text>
<text text-anchor="start" x="198.5" y="-111.5" font-family="Helvetica,sans-Serif" font-size="10.00">getBoots()</text>
<text text-anchor="start" x="180.5" y="-96.5" font-family="Helvetica,sans-Serif" font-size="10.00">+</text>
<text text-anchor="start" x="198.5" y="-96.5" font-family="Helvetica,sans-Serif" font-size="10.00">getChestplate()</text>
<text text-anchor="start" x="180.5" y="-81.5" font-family="Helvetica,sans-Serif" font-size="10.00">+</text>
<text text-anchor="start" x="198.5" y="-81.5" font-family="Helvetica,sans-Serif" font-size="10.00">getHelmet()</text>
<text text-anchor="start" x="180.5" y="-66.5" font-family="Helvetica,sans-Serif" font-size="10.00">+</text>
<text text-anchor="start" x="198.5" y="-66.5" font-family="Helvetica,sans-Serif" font-size="10.00">getLeggings()</text>
<text text-anchor="start" x="180.5" y="-51.5" font-family="Helvetica,sans-Serif" font-size="10.00">+</text>
<text text-anchor="start" x="198.5" y="-51.5" font-family="Helvetica,sans-Serif" font-size="10.00">setBoots()</text>
<text text-anchor="start" x="180.5" y="-36.5" font-family="Helvetica,sans-Serif" font-size="10.00">+</text>
<text text-anchor="start" x="198.5" y="-36.5" font-family="Helvetica,sans-Serif" font-size="10.00">setChestplate()</text>
<text text-anchor="start" x="180.5" y="-21.5" font-family="Helvetica,sans-Serif" font-size="10.00">+</text>
<text text-anchor="start" x="198.5" y="-21.5" font-family="Helvetica,sans-Serif" font-size="10.00">setHelmet()</text>
<text text-anchor="start" x="180.5" y="-6.5" font-family="Helvetica,sans-Serif" font-size="10.00">+</text>
<text text-anchor="start" x="198.5" y="-6.5" font-family="Helvetica,sans-Serif" font-size="10.00">setLeggings()</text>
<polygon fill="#666666" stroke="#666666" points="171.5,-196.5 171.5,-196.5 288.5,-196.5 288.5,-196.5 171.5,-196.5"/>
<polygon fill="#666666" stroke="#666666" points="171.5,-136.5 171.5,-136.5 196.5,-136.5 196.5,-136.5 171.5,-136.5"/>
<polygon fill="#666666" stroke="#666666" points="196.5,-136.5 196.5,-136.5 288.5,-136.5 288.5,-136.5 196.5,-136.5"/>
<polygon fill="none" stroke="#666666" points="171,0 171,-225 288,-225 288,0 171,0"/>
</a>
</g>
</g>
<!-- Node2 -->
<g id="Node000002" class="node">
<title>Node2</title>
<g id="a_Node000002"><a xlink:href="../../d6/dc1/classpocketmine_1_1inventory_1_1_simple_inventory.html" target="_top" xlink:title=" ">
<polygon fill="white" stroke="transparent" points="300,-502 159,-502 159,-262 300,-262 300,-502"/>
<text text-anchor="start" x="176.5" y="-490" font-family="Helvetica,sans-Serif" font-size="10.00">pocketmine\inventory</text>
<text text-anchor="start" x="188" y="-479" font-family="Helvetica,sans-Serif" font-size="10.00">\SimpleInventory</text>
<text text-anchor="start" x="163.5" y="-464" font-family="Helvetica,sans-Serif" font-size="10.00">#</text>
<text text-anchor="start" x="176.5" y="-464" font-family="Helvetica,sans-Serif" font-size="10.00">$slots</text>
<text text-anchor="start" x="163.5" y="-449" font-family="Helvetica,sans-Serif" font-size="10.00">#</text>
<text text-anchor="start" x="176.5" y="-449" font-family="Helvetica,sans-Serif" font-size="10.00">$windows</text>
<text text-anchor="start" x="163.5" y="-434" font-family="Helvetica,sans-Serif" font-size="10.00">+</text>
<text text-anchor="start" x="176.5" y="-434" font-family="Helvetica,sans-Serif" font-size="10.00">__construct()</text>
<text text-anchor="start" x="163.5" y="-419" font-family="Helvetica,sans-Serif" font-size="10.00">+</text>
<text text-anchor="start" x="176.5" y="-419" font-family="Helvetica,sans-Serif" font-size="10.00">getContents()</text>
<text text-anchor="start" x="163.5" y="-404" font-family="Helvetica,sans-Serif" font-size="10.00">+</text>
<text text-anchor="start" x="176.5" y="-404" font-family="Helvetica,sans-Serif" font-size="10.00">getItem()</text>
<text text-anchor="start" x="163.5" y="-389" font-family="Helvetica,sans-Serif" font-size="10.00">+</text>
<text text-anchor="start" x="176.5" y="-389" font-family="Helvetica,sans-Serif" font-size="10.00">getMatchingItemCount()</text>
<text text-anchor="start" x="163.5" y="-374" font-family="Helvetica,sans-Serif" font-size="10.00">+</text>
<text text-anchor="start" x="176.5" y="-374" font-family="Helvetica,sans-Serif" font-size="10.00">getSize()</text>
<text text-anchor="start" x="163.5" y="-359" font-family="Helvetica,sans-Serif" font-size="10.00">+</text>
<text text-anchor="start" x="176.5" y="-359" font-family="Helvetica,sans-Serif" font-size="10.00">getViewers()</text>
<text text-anchor="start" x="163.5" y="-344" font-family="Helvetica,sans-Serif" font-size="10.00">+</text>
<text text-anchor="start" x="176.5" y="-344" font-family="Helvetica,sans-Serif" font-size="10.00">isSlotEmpty()</text>
<text text-anchor="start" x="163.5" y="-329" font-family="Helvetica,sans-Serif" font-size="10.00">+</text>
<text text-anchor="start" x="176.5" y="-329" font-family="Helvetica,sans-Serif" font-size="10.00">onClose()</text>
<text text-anchor="start" x="163.5" y="-314" font-family="Helvetica,sans-Serif" font-size="10.00">+</text>
<text text-anchor="start" x="176.5" y="-314" font-family="Helvetica,sans-Serif" font-size="10.00">onOpen()</text>
<text text-anchor="start" x="163.5" y="-299" font-family="Helvetica,sans-Serif" font-size="10.00">+</text>
<text text-anchor="start" x="176.5" y="-299" font-family="Helvetica,sans-Serif" font-size="10.00">removeAllWindows()</text>
<text text-anchor="start" x="163.5" y="-284" font-family="Helvetica,sans-Serif" font-size="10.00">#</text>
<text text-anchor="start" x="176.5" y="-284" font-family="Helvetica,sans-Serif" font-size="10.00">internalSetContents()</text>
<text text-anchor="start" x="163.5" y="-269" font-family="Helvetica,sans-Serif" font-size="10.00">#</text>
<text text-anchor="start" x="176.5" y="-269" font-family="Helvetica,sans-Serif" font-size="10.00">internalSetItem()</text>
<polygon fill="#666666" stroke="#666666" points="159.5,-474 159.5,-474 300.5,-474 300.5,-474 159.5,-474"/>
<polygon fill="#666666" stroke="#666666" points="159.5,-444 159.5,-444 174.5,-444 174.5,-444 159.5,-444"/>
<polygon fill="#666666" stroke="#666666" points="174.5,-444 174.5,-444 300.5,-444 300.5,-444 174.5,-444"/>
<polygon fill="none" stroke="#666666" points="159,-262 159,-502 300,-502 300,-262 159,-262"/>
</a>
</g>
</g>
<!-- Node2&#45;&gt;Node1 -->
<g id="edge1_Node000001_Node000002" class="edge">
<title>Node2&#45;&gt;Node1</title>
<g id="a_edge1_Node000001_Node000002"><a xlink:title=" ">
<path fill="none" stroke="#63b8ff" d="M229.5,-251.47C229.5,-242.71 229.5,-233.93 229.5,-225.28"/>
<polygon fill="none" stroke="#63b8ff" points="226,-251.72 229.5,-261.72 233,-251.72 226,-251.72"/>
</a>
</g>
</g>
<!-- Node3 -->
<g id="Node000003" class="node">
<title>Node3</title>
<g id="a_Node000003"><a xlink:href="../../d5/dc4/classpocketmine_1_1inventory_1_1_base_inventory.html" target="_top" xlink:title=" ">
<polygon fill="white" stroke="transparent" points="304,-809 155,-809 155,-539 304,-539 304,-809"/>
<text text-anchor="start" x="176.5" y="-797" font-family="Helvetica,sans-Serif" font-size="10.00">pocketmine\inventory</text>
<text text-anchor="start" x="193" y="-786" font-family="Helvetica,sans-Serif" font-size="10.00">\BaseInventory</text>
<text text-anchor="start" x="159.5" y="-771" font-family="Helvetica,sans-Serif" font-size="10.00">#</text>
<text text-anchor="start" x="172.5" y="-771" font-family="Helvetica,sans-Serif" font-size="10.00">$maxStackSize</text>
<text text-anchor="start" x="159.5" y="-756" font-family="Helvetica,sans-Serif" font-size="10.00">+</text>
<text text-anchor="start" x="172.5" y="-756" font-family="Helvetica,sans-Serif" font-size="10.00">__construct()</text>
<text text-anchor="start" x="159.5" y="-741" font-family="Helvetica,sans-Serif" font-size="10.00">+</text>
<text text-anchor="start" x="172.5" y="-741" font-family="Helvetica,sans-Serif" font-size="10.00">addItem()</text>
<text text-anchor="start" x="159.5" y="-726" font-family="Helvetica,sans-Serif" font-size="10.00">+</text>
<text text-anchor="start" x="172.5" y="-726" font-family="Helvetica,sans-Serif" font-size="10.00">all()</text>
<text text-anchor="start" x="159.5" y="-711" font-family="Helvetica,sans-Serif" font-size="10.00">+</text>
<text text-anchor="start" x="172.5" y="-711" font-family="Helvetica,sans-Serif" font-size="10.00">canAddItem()</text>
<text text-anchor="start" x="159.5" y="-696" font-family="Helvetica,sans-Serif" font-size="10.00">+</text>
<text text-anchor="start" x="172.5" y="-696" font-family="Helvetica,sans-Serif" font-size="10.00">clear()</text>
<text text-anchor="start" x="159.5" y="-681" font-family="Helvetica,sans-Serif" font-size="10.00">+</text>
<text text-anchor="start" x="172.5" y="-681" font-family="Helvetica,sans-Serif" font-size="10.00">clearAll()</text>
<text text-anchor="start" x="159.5" y="-666" font-family="Helvetica,sans-Serif" font-size="10.00">+</text>
<text text-anchor="start" x="172.5" y="-666" font-family="Helvetica,sans-Serif" font-size="10.00">contains()</text>
<text text-anchor="start" x="159.5" y="-651" font-family="Helvetica,sans-Serif" font-size="10.00">+</text>
<text text-anchor="start" x="172.5" y="-651" font-family="Helvetica,sans-Serif" font-size="10.00">first()</text>
<text text-anchor="start" x="159.5" y="-636" font-family="Helvetica,sans-Serif" font-size="10.00">+</text>
<text text-anchor="start" x="172.5" y="-636" font-family="Helvetica,sans-Serif" font-size="10.00">firstEmpty()</text>
<text text-anchor="start" x="159.5" y="-621" font-family="Helvetica,sans-Serif" font-size="10.00">+</text>
<text text-anchor="start" x="172.5" y="-621" font-family="Helvetica,sans-Serif" font-size="10.00">getAddableItemQuantity()</text>
<text text-anchor="start" x="172.5" y="-606" font-family="Helvetica,sans-Serif" font-size="10.00">and 11 more...</text>
<text text-anchor="start" x="159.5" y="-591" font-family="Helvetica,sans-Serif" font-size="10.00">#</text>
<text text-anchor="start" x="172.5" y="-591" font-family="Helvetica,sans-Serif" font-size="10.00">internalSetContents()</text>
<text text-anchor="start" x="159.5" y="-576" font-family="Helvetica,sans-Serif" font-size="10.00">#</text>
<text text-anchor="start" x="172.5" y="-576" font-family="Helvetica,sans-Serif" font-size="10.00">internalSetItem()</text>
<text text-anchor="start" x="159.5" y="-561" font-family="Helvetica,sans-Serif" font-size="10.00">#</text>
<text text-anchor="start" x="172.5" y="-561" font-family="Helvetica,sans-Serif" font-size="10.00">onContentChange()</text>
<text text-anchor="start" x="159.5" y="-546" font-family="Helvetica,sans-Serif" font-size="10.00">#</text>
<text text-anchor="start" x="172.5" y="-546" font-family="Helvetica,sans-Serif" font-size="10.00">onSlotChange()</text>
<polygon fill="#666666" stroke="#666666" points="155.5,-781 155.5,-781 304.5,-781 304.5,-781 155.5,-781"/>
<polygon fill="#666666" stroke="#666666" points="155.5,-766 155.5,-766 170.5,-766 170.5,-766 155.5,-766"/>
<polygon fill="#666666" stroke="#666666" points="170.5,-766 170.5,-766 304.5,-766 304.5,-766 170.5,-766"/>
<polygon fill="none" stroke="#666666" points="155,-539 155,-809 304,-809 304,-539 155,-539"/>
</a>
</g>
</g>
<!-- Node3&#45;&gt;Node2 -->
<g id="edge2_Node000002_Node000003" class="edge">
<title>Node3&#45;&gt;Node2</title>
<g id="a_edge2_Node000002_Node000003"><a xlink:title=" ">
<path fill="none" stroke="#63b8ff" d="M229.5,-528.34C229.5,-519.59 229.5,-510.84 229.5,-502.21"/>
<polygon fill="none" stroke="#63b8ff" points="226,-528.61 229.5,-538.61 233,-528.61 226,-528.61"/>
</a>
</g>
</g>
<!-- Node4 -->
<g id="Node000004" class="node">
<title>Node4</title>
<g id="a_Node000004"><a xlink:href="../../db/d39/interfacepocketmine_1_1inventory_1_1_inventory.html" target="_top" xlink:title=" ">
<polygon fill="white" stroke="transparent" points="149,-1077 0,-1077 0,-867 149,-867 149,-1077"/>
<text text-anchor="start" x="21.5" y="-1065" font-family="Helvetica,sans-Serif" font-size="10.00">pocketmine\inventory</text>
<text text-anchor="start" x="50" y="-1054" font-family="Helvetica,sans-Serif" font-size="10.00">\Inventory</text>
<text text-anchor="start" x="4.5" y="-1039" font-family="Helvetica,sans-Serif" font-size="10.00">+</text>
<text text-anchor="start" x="17.5" y="-1039" font-family="Helvetica,sans-Serif" font-size="10.00">MAX_STACK</text>
<text text-anchor="start" x="4.5" y="-1024" font-family="Helvetica,sans-Serif" font-size="10.00">+</text>
<text text-anchor="start" x="17.5" y="-1024" font-family="Helvetica,sans-Serif" font-size="10.00">addItem()</text>
<text text-anchor="start" x="4.5" y="-1009" font-family="Helvetica,sans-Serif" font-size="10.00">+</text>
<text text-anchor="start" x="17.5" y="-1009" font-family="Helvetica,sans-Serif" font-size="10.00">all()</text>
<text text-anchor="start" x="4.5" y="-994" font-family="Helvetica,sans-Serif" font-size="10.00">+</text>
<text text-anchor="start" x="17.5" y="-994" font-family="Helvetica,sans-Serif" font-size="10.00">canAddItem()</text>
<text text-anchor="start" x="4.5" y="-979" font-family="Helvetica,sans-Serif" font-size="10.00">+</text>
<text text-anchor="start" x="17.5" y="-979" font-family="Helvetica,sans-Serif" font-size="10.00">clear()</text>
<text text-anchor="start" x="4.5" y="-964" font-family="Helvetica,sans-Serif" font-size="10.00">+</text>
<text text-anchor="start" x="17.5" y="-964" font-family="Helvetica,sans-Serif" font-size="10.00">clearAll()</text>
<text text-anchor="start" x="4.5" y="-949" font-family="Helvetica,sans-Serif" font-size="10.00">+</text>
<text text-anchor="start" x="17.5" y="-949" font-family="Helvetica,sans-Serif" font-size="10.00">contains()</text>
<text text-anchor="start" x="4.5" y="-934" font-family="Helvetica,sans-Serif" font-size="10.00">+</text>
<text text-anchor="start" x="17.5" y="-934" font-family="Helvetica,sans-Serif" font-size="10.00">first()</text>
<text text-anchor="start" x="4.5" y="-919" font-family="Helvetica,sans-Serif" font-size="10.00">+</text>
<text text-anchor="start" x="17.5" y="-919" font-family="Helvetica,sans-Serif" font-size="10.00">firstEmpty()</text>
<text text-anchor="start" x="4.5" y="-904" font-family="Helvetica,sans-Serif" font-size="10.00">+</text>
<text text-anchor="start" x="17.5" y="-904" font-family="Helvetica,sans-Serif" font-size="10.00">getAddableItemQuantity()</text>
<text text-anchor="start" x="4.5" y="-889" font-family="Helvetica,sans-Serif" font-size="10.00">+</text>
<text text-anchor="start" x="17.5" y="-889" font-family="Helvetica,sans-Serif" font-size="10.00">getContents()</text>
<text text-anchor="start" x="17.5" y="-874" font-family="Helvetica,sans-Serif" font-size="10.00">and 17 more...</text>
<polygon fill="#bfbfbf" stroke="#bfbfbf" points="0.5,-1049 0.5,-1049 149.5,-1049 149.5,-1049 0.5,-1049"/>
<polygon fill="#bfbfbf" stroke="#bfbfbf" points="0.5,-1034 0.5,-1034 15.5,-1034 15.5,-1034 0.5,-1034"/>
<polygon fill="#bfbfbf" stroke="#bfbfbf" points="15.5,-1034 15.5,-1034 149.5,-1034 149.5,-1034 15.5,-1034"/>
<polygon fill="none" stroke="#bfbfbf" points="0,-867 0,-1077 149,-1077 149,-867 0,-867"/>
</a>
</g>
</g>
<!-- Node4&#45;&gt;Node3 -->
<g id="edge3_Node000003_Node000004" class="edge">
<title>Node4&#45;&gt;Node3</title>
<g id="a_edge3_Node000003_Node000004"><a xlink:title=" ">
<path fill="none" stroke="#63b8ff" d="M133.99,-857.39C142.28,-841.56 150.86,-825.17 159.33,-809.01"/>
<polygon fill="none" stroke="#63b8ff" points="130.69,-856.16 129.15,-866.64 136.89,-859.41 130.69,-856.16"/>
</a>
</g>
</g>
<!-- Node5 -->
<g id="Node000005" class="node">
<title>Node5</title>
<g id="a_Node000005"><a xlink:href="../../dd/d33/interfacepocketmine_1_1inventory_1_1_slot_validated_inventory.html" target="_top" xlink:title=" ">
<polygon fill="white" stroke="transparent" points="292,-1002 167,-1002 167,-942 292,-942 292,-1002"/>
<text text-anchor="start" x="172.5" y="-990" font-family="Helvetica,sans-Serif" font-size="10.00">pocketmine\inventory</text>
<text text-anchor="start" x="172.5" y="-979" font-family="Helvetica,sans-Serif" font-size="10.00">\SlotValidatedInventory</text>
<text text-anchor="start" x="228" y="-964" font-family="Helvetica,sans-Serif" font-size="10.00"> </text>
<text text-anchor="start" x="174.5" y="-949" font-family="Helvetica,sans-Serif" font-size="10.00">+</text>
<text text-anchor="start" x="190.5" y="-949" font-family="Helvetica,sans-Serif" font-size="10.00">getSlotValidators()</text>
<polygon fill="#666666" stroke="#666666" points="167.5,-974 167.5,-974 292.5,-974 292.5,-974 167.5,-974"/>
<polygon fill="#666666" stroke="#666666" points="167.5,-959 167.5,-959 292.5,-959 292.5,-959 167.5,-959"/>
<polygon fill="none" stroke="#666666" points="167,-942 167,-1002 292,-1002 292,-942 167,-942"/>
</a>
</g>
</g>
<!-- Node5&#45;&gt;Node3 -->
<g id="edge4_Node000003_Node000005" class="edge">
<title>Node5&#45;&gt;Node3</title>
<g id="a_edge4_Node000003_Node000005"><a xlink:title=" ">
<path fill="none" stroke="#63b8ff" d="M229.5,-931.69C229.5,-900.11 229.5,-853.82 229.5,-809.22"/>
<polygon fill="none" stroke="#63b8ff" points="226,-931.81 229.5,-941.81 233,-931.81 226,-931.81"/>
</a>
</g>
</g>
<!-- Node6 -->
<g id="Node000006" class="node">
<title>Node6</title>
<g id="a_Node000006"><a xlink:href="../../dd/de5/classpocketmine_1_1utils_1_1_object_set.html" target="_top" xlink:title=" ">
<polygon fill="white" stroke="transparent" points="452.5,-1034 310.5,-1034 310.5,-910 452.5,-910 452.5,-1034"/>
<text text-anchor="start" x="315.5" y="-1022" font-family="Helvetica,sans-Serif" font-size="10.00">pocketmine\utils\ObjectSet</text>
<text text-anchor="start" x="379.5" y="-1007" font-family="Helvetica,sans-Serif" font-size="10.00"> </text>
<text text-anchor="start" x="329.5" y="-992" font-family="Helvetica,sans-Serif" font-size="10.00">+</text>
<text text-anchor="start" x="357.5" y="-992" font-family="Helvetica,sans-Serif" font-size="10.00">add()</text>
<text text-anchor="start" x="329.5" y="-977" font-family="Helvetica,sans-Serif" font-size="10.00">+</text>
<text text-anchor="start" x="357.5" y="-977" font-family="Helvetica,sans-Serif" font-size="10.00">clear()</text>
<text text-anchor="start" x="329.5" y="-962" font-family="Helvetica,sans-Serif" font-size="10.00">+</text>
<text text-anchor="start" x="357.5" y="-962" font-family="Helvetica,sans-Serif" font-size="10.00">contains()</text>
<text text-anchor="start" x="329.5" y="-947" font-family="Helvetica,sans-Serif" font-size="10.00">+</text>
<text text-anchor="start" x="357.5" y="-947" font-family="Helvetica,sans-Serif" font-size="10.00">getIterator()</text>
<text text-anchor="start" x="329.5" y="-932" font-family="Helvetica,sans-Serif" font-size="10.00">+</text>
<text text-anchor="start" x="357.5" y="-932" font-family="Helvetica,sans-Serif" font-size="10.00">remove()</text>
<text text-anchor="start" x="329.5" y="-917" font-family="Helvetica,sans-Serif" font-size="10.00">+</text>
<text text-anchor="start" x="357.5" y="-917" font-family="Helvetica,sans-Serif" font-size="10.00">toArray()</text>
<polygon fill="#666666" stroke="#666666" points="310.5,-1017 310.5,-1017 452.5,-1017 452.5,-1017 310.5,-1017"/>
<polygon fill="#666666" stroke="#666666" points="310.5,-1002 310.5,-1002 452.5,-1002 452.5,-1002 310.5,-1002"/>
<polygon fill="none" stroke="#666666" points="310.5,-910 310.5,-1034 452.5,-1034 452.5,-910 310.5,-910"/>
</a>
</g>
</g>
<!-- Node6&#45;&gt;Node3 -->
<g id="edge5_Node000003_Node000006" class="edge">
<title>Node6&#45;&gt;Node3</title>
<g id="a_edge5_Node000003_Node000006"><a xlink:title=" ">
<path fill="none" stroke="#63b8ff" d="M350.01,-909.67C336.53,-883.42 320.17,-851.57 303.91,-819.9"/>
<polygon fill="none" stroke="#63b8ff" points="303.88,-819.85 297.58,-816.34 298.4,-809.18 304.7,-812.69 303.88,-819.85"/>
</a>
</g>
<text text-anchor="middle" x="346.5" y="-841" font-family="Helvetica,sans-Serif" font-size="10.00" fill="grey"> #$listeners</text>
<text text-anchor="middle" x="346.5" y="-830" font-family="Helvetica,sans-Serif" font-size="10.00" fill="grey">#$validators</text>
</g>
<!-- Node7 -->
<g id="Node000007" class="node">
<title>Node7</title>
<g id="a_Node000007"><a xlink:title=" ">
<polygon fill="white" stroke="transparent" points="430,-1163 333,-1163 333,-1114 430,-1114 430,-1163"/>
<text text-anchor="start" x="338.5" y="-1150.5" font-family="Helvetica,sans-Serif" font-size="10.00">IteratorAggregate</text>
<text text-anchor="start" x="380" y="-1135.5" font-family="Helvetica,sans-Serif" font-size="10.00"> </text>
<text text-anchor="start" x="380" y="-1120.5" font-family="Helvetica,sans-Serif" font-size="10.00"> </text>
<polygon fill="#bfbfbf" stroke="#bfbfbf" points="333.5,-1145.5 333.5,-1145.5 430.5,-1145.5 430.5,-1145.5 333.5,-1145.5"/>
<polygon fill="#bfbfbf" stroke="#bfbfbf" points="333.5,-1130.5 333.5,-1130.5 430.5,-1130.5 430.5,-1130.5 333.5,-1130.5"/>
<polygon fill="none" stroke="#bfbfbf" points="333,-1114 333,-1163 430,-1163 430,-1114 333,-1114"/>
</a>
</g>
</g>
<!-- Node7&#45;&gt;Node6 -->
<g id="edge6_Node000006_Node000007" class="edge">
<title>Node7&#45;&gt;Node6</title>
<g id="a_edge6_Node000006_Node000007"><a xlink:title=" ">
<path fill="none" stroke="#63b8ff" d="M381.5,-1103.75C381.5,-1083.71 381.5,-1057.69 381.5,-1034.14"/>
<polygon fill="none" stroke="#63b8ff" points="378,-1103.93 381.5,-1113.93 385,-1103.93 378,-1103.93"/>
</a>
</g>
</g>
</g>
</svg>
