<?xml version="1.0" encoding="UTF-8" standalone="no"?>
<!DOCTYPE svg PUBLIC "-//W3C//DTD SVG 1.1//EN"
 "http://www.w3.org/Graphics/SVG/1.1/DTD/svg11.dtd">
<!-- Generated by graphviz version 2.43.0 (0)
 -->
<!-- Title: pocketmine\world\generator\GeneratorRegisterTask Pages: 1 -->
<svg width="156pt" height="534pt"
 viewBox="0.00 0.00 156.00 534.00" xmlns="http://www.w3.org/2000/svg" xmlns:xlink="http://www.w3.org/1999/xlink">
<g id="graph0" class="graph" transform="scale(1 1) rotate(0) translate(4 530)">
<title>pocketmine\world\generator\GeneratorRegisterTask</title>
<!-- Node1 -->
<g id="Node000001" class="node">
<title>Node1</title>
<g id="a_Node000001"><a xlink:title=" ">
<polygon fill="#999999" stroke="transparent" points="148,-120 0,-120 0,0 148,0 148,-120"/>
<text text-anchor="start" x="5" y="-108" font-family="Helvetica,sans-Serif" font-size="10.00">pocketmine\world\generator</text>
<text text-anchor="start" x="16.5" y="-97" font-family="Helvetica,sans-Serif" font-size="10.00">\GeneratorRegisterTask</text>
<text text-anchor="start" x="19.5" y="-82" font-family="Helvetica,sans-Serif" font-size="10.00">+</text>
<text text-anchor="start" x="48" y="-82" font-family="Helvetica,sans-Serif" font-size="10.00">$seed</text>
<text text-anchor="start" x="19.5" y="-67" font-family="Helvetica,sans-Serif" font-size="10.00">+</text>
<text text-anchor="start" x="48" y="-67" font-family="Helvetica,sans-Serif" font-size="10.00">$worldId</text>
<text text-anchor="start" x="19.5" y="-52" font-family="Helvetica,sans-Serif" font-size="10.00">+</text>
<text text-anchor="start" x="48" y="-52" font-family="Helvetica,sans-Serif" font-size="10.00">$worldMaxY</text>
<text text-anchor="start" x="19.5" y="-37" font-family="Helvetica,sans-Serif" font-size="10.00">+</text>
<text text-anchor="start" x="48" y="-37" font-family="Helvetica,sans-Serif" font-size="10.00">$worldMinY</text>
<text text-anchor="start" x="19.5" y="-22" font-family="Helvetica,sans-Serif" font-size="10.00">+</text>
<text text-anchor="start" x="48" y="-22" font-family="Helvetica,sans-Serif" font-size="10.00">__construct()</text>
<text text-anchor="start" x="19.5" y="-7" font-family="Helvetica,sans-Serif" font-size="10.00">+</text>
<text text-anchor="start" x="48" y="-7" font-family="Helvetica,sans-Serif" font-size="10.00">onRun()</text>
<polygon fill="#666666" stroke="#666666" points="0,-92 0,-92 148,-92 148,-92 0,-92"/>
<polygon fill="#666666" stroke="#666666" points="0,-32 0,-32 46,-32 46,-32 0,-32"/>
<polygon fill="#666666" stroke="#666666" points="46,-32 46,-32 148,-32 148,-32 46,-32"/>
<polygon fill="none" stroke="#666666" points="0,0 0,-120 148,-120 148,0 0,0"/>
</a>
</g>
</g>
<!-- Node2 -->
<g id="Node000002" class="node">
<title>Node2</title>
<g id="a_Node000002"><a xlink:href="../../df/dfa/classpocketmine_1_1scheduler_1_1_async_task.html" target="_top" xlink:title=" ">
<polygon fill="white" stroke="transparent" points="144,-441 4,-441 4,-156 144,-156 144,-441"/>
<text text-anchor="start" x="20" y="-428.5" font-family="Helvetica,sans-Serif" font-size="10.00">pocketmine\scheduler</text>
<text text-anchor="start" x="46.5" y="-417.5" font-family="Helvetica,sans-Serif" font-size="10.00">\AsyncTask</text>
<text text-anchor="start" x="72" y="-402.5" font-family="Helvetica,sans-Serif" font-size="10.00"> </text>
<text text-anchor="start" x="8" y="-387.5" font-family="Helvetica,sans-Serif" font-size="10.00">+</text>
<text text-anchor="start" x="21" y="-387.5" font-family="Helvetica,sans-Serif" font-size="10.00">__destruct()</text>
<text text-anchor="start" x="8" y="-372.5" font-family="Helvetica,sans-Serif" font-size="10.00">+</text>
<text text-anchor="start" x="21" y="-372.5" font-family="Helvetica,sans-Serif" font-size="10.00">checkProgressUpdates()</text>
<text text-anchor="start" x="8" y="-357.5" font-family="Helvetica,sans-Serif" font-size="10.00">+</text>
<text text-anchor="start" x="21" y="-357.5" font-family="Helvetica,sans-Serif" font-size="10.00">getResult()</text>
<text text-anchor="start" x="8" y="-342.5" font-family="Helvetica,sans-Serif" font-size="10.00">+</text>
<text text-anchor="start" x="21" y="-342.5" font-family="Helvetica,sans-Serif" font-size="10.00">hasResult()</text>
<text text-anchor="start" x="8" y="-327.5" font-family="Helvetica,sans-Serif" font-size="10.00">+</text>
<text text-anchor="start" x="21" y="-327.5" font-family="Helvetica,sans-Serif" font-size="10.00">isFinished()</text>
<text text-anchor="start" x="8" y="-312.5" font-family="Helvetica,sans-Serif" font-size="10.00">+</text>
<text text-anchor="start" x="21" y="-312.5" font-family="Helvetica,sans-Serif" font-size="10.00">isSubmitted()</text>
<text text-anchor="start" x="8" y="-297.5" font-family="Helvetica,sans-Serif" font-size="10.00">+</text>
<text text-anchor="start" x="21" y="-297.5" font-family="Helvetica,sans-Serif" font-size="10.00">onCompletion()</text>
<text text-anchor="start" x="8" y="-282.5" font-family="Helvetica,sans-Serif" font-size="10.00">+</text>
<text text-anchor="start" x="21" y="-282.5" font-family="Helvetica,sans-Serif" font-size="10.00">onProgressUpdate()</text>
<text text-anchor="start" x="8" y="-267.5" font-family="Helvetica,sans-Serif" font-size="10.00">+</text>
<text text-anchor="start" x="21" y="-267.5" font-family="Helvetica,sans-Serif" font-size="10.00">onRun()</text>
<text text-anchor="start" x="8" y="-252.5" font-family="Helvetica,sans-Serif" font-size="10.00">+</text>
<text text-anchor="start" x="21" y="-252.5" font-family="Helvetica,sans-Serif" font-size="10.00">publishProgress()</text>
<text text-anchor="start" x="8" y="-237.5" font-family="Helvetica,sans-Serif" font-size="10.00">+</text>
<text text-anchor="start" x="21" y="-237.5" font-family="Helvetica,sans-Serif" font-size="10.00">run()</text>
<text text-anchor="start" x="8" y="-222.5" font-family="Helvetica,sans-Serif" font-size="10.00">+</text>
<text text-anchor="start" x="21" y="-222.5" font-family="Helvetica,sans-Serif" font-size="10.00">setResult()</text>
<text text-anchor="start" x="8" y="-207.5" font-family="Helvetica,sans-Serif" font-size="10.00">+</text>
<text text-anchor="start" x="21" y="-207.5" font-family="Helvetica,sans-Serif" font-size="10.00">setSubmitted()</text>
<text text-anchor="start" x="8" y="-192.5" font-family="Helvetica,sans-Serif" font-size="10.00">#</text>
<text text-anchor="start" x="21" y="-192.5" font-family="Helvetica,sans-Serif" font-size="10.00">fetchLocal()</text>
<text text-anchor="start" x="8" y="-177.5" font-family="Helvetica,sans-Serif" font-size="10.00">#</text>
<text text-anchor="start" x="21" y="-177.5" font-family="Helvetica,sans-Serif" font-size="10.00">reallyDestruct()</text>
<text text-anchor="start" x="8" y="-162.5" font-family="Helvetica,sans-Serif" font-size="10.00">#</text>
<text text-anchor="start" x="21" y="-162.5" font-family="Helvetica,sans-Serif" font-size="10.00">storeLocal()</text>
<polygon fill="#666666" stroke="#666666" points="4,-412.5 4,-412.5 144,-412.5 144,-412.5 4,-412.5"/>
<polygon fill="#666666" stroke="#666666" points="4,-397.5 4,-397.5 144,-397.5 144,-397.5 4,-397.5"/>
<polygon fill="none" stroke="#666666" points="4,-156 4,-441 144,-441 144,-156 4,-156"/>
</a>
</g>
</g>
<!-- Node2&#45;&gt;Node1 -->
<g id="edge1_Node000001_Node000002" class="edge">
<title>Node2&#45;&gt;Node1</title>
<g id="a_edge1_Node000001_Node000002"><a xlink:title=" ">
<path fill="none" stroke="#63b8ff" d="M74,-145.68C74,-136.77 74,-128.15 74,-120.03"/>
<polygon fill="none" stroke="#63b8ff" points="70.5,-145.83 74,-155.83 77.5,-145.83 70.5,-145.83"/>
</a>
</g>
</g>
<!-- Node3 -->
<g id="Node000003" class="node">
<title>Node3</title>
<g id="a_Node000003"><a xlink:title=" ">
<polygon fill="white" stroke="transparent" points="102,-526 46,-526 46,-477 102,-477 102,-526"/>
<text text-anchor="start" x="51" y="-513.5" font-family="Helvetica,sans-Serif" font-size="10.00">Runnable</text>
<text text-anchor="start" x="72" y="-498.5" font-family="Helvetica,sans-Serif" font-size="10.00"> </text>
<text text-anchor="start" x="72" y="-483.5" font-family="Helvetica,sans-Serif" font-size="10.00"> </text>
<polygon fill="#bfbfbf" stroke="#bfbfbf" points="46,-508.5 46,-508.5 102,-508.5 102,-508.5 46,-508.5"/>
<polygon fill="#bfbfbf" stroke="#bfbfbf" points="46,-493.5 46,-493.5 102,-493.5 102,-493.5 46,-493.5"/>
<polygon fill="none" stroke="#bfbfbf" points="46,-477 46,-526 102,-526 102,-477 46,-477"/>
</a>
</g>
</g>
<!-- Node3&#45;&gt;Node2 -->
<g id="edge2_Node000002_Node000003" class="edge">
<title>Node3&#45;&gt;Node2</title>
<g id="a_edge2_Node000002_Node000003"><a xlink:title=" ">
<path fill="none" stroke="#63b8ff" d="M74,-466.57C74,-458.97 74,-450.45 74,-441.39"/>
<polygon fill="none" stroke="#63b8ff" points="70.5,-466.65 74,-476.65 77.5,-466.65 70.5,-466.65"/>
</a>
</g>
</g>
</g>
</svg>
