<?xml version="1.0" encoding="UTF-8" standalone="no"?>
<!DOCTYPE svg PUBLIC "-//W3C//DTD SVG 1.1//EN"
 "http://www.w3.org/Graphics/SVG/1.1/DTD/svg11.dtd">
<!-- Generated by graphviz version 2.43.0 (0)
 -->
<!-- Title: pocketmine\event\block\BlockEvent Pages: 1 -->
<!--zoomable 524 -->
<svg id="main" version="1.1" xmlns="http://www.w3.org/2000/svg" xmlns:xlink="http://www.w3.org/1999/xlink" xml:space="preserve" onload="init(evt)">
<style type="text/css"><![CDATA[
.edge:hover path { stroke: red; }
.edge:hover polygon { stroke: red; fill: red; }
]]></style>
<script type="text/javascript"><![CDATA[
var edges = document.getElementsByTagName('g');
if (edges && edges.length) {
  for (var i=0;i<edges.length;i++) {
    if (edges[i].id.substr(0,4)=='edge') {
      edges[i].setAttribute('class','edge');
    }
  }
}
]]></script>
        <defs>
                <circle id="rim" cx="0" cy="0" r="7"/>
                <circle id="rim2" cx="0" cy="0" r="3.5"/>
                <g id="zoomPlus">
                        <use xlink:href="#rim" fill="#404040">
                                <set attributeName="fill" to="#808080" begin="zoomplus.mouseover" end="zoomplus.mouseout"/>
                        </use>
                        <path d="M-4,0h8M0,-4v8" fill="none" stroke="white" stroke-width="1.5" pointer-events="none"/>
                </g>
                <g id="zoomMin">
                        <use xlink:href="#rim" fill="#404040">
                                <set attributeName="fill" to="#808080" begin="zoomminus.mouseover" end="zoomminus.mouseout"/>
                        </use>
                        <path d="M-4,0h8" fill="none" stroke="white" stroke-width="1.5" pointer-events="none"/>
                </g>
                <g id="dirArrow">
                        <path fill="none" stroke="white" stroke-width="1.5" d="M0,-3.0v7 M-2.5,-0.5L0,-3.0L2.5,-0.5"/>
                </g>
               <g id="resetDef">
                       <use xlink:href="#rim2" fill="#404040">
                               <set attributeName="fill" to="#808080" begin="reset.mouseover" end="reset.mouseout"/>
                       </use>
               </g>
        </defs>

<script type="text/javascript">
var viewWidth = 2507;
var viewHeight = 524;
var sectionId = 'dynsection-0';
</script>
<script xlink:href="../../svgpan.js"/>
<svg id="graph" class="graph">
<g id="viewport">
<title>pocketmine\event\block\BlockEvent</title>
<polygon fill="white" stroke="transparent" points="-4,4 -4,-520 2503,-520 2503,4 -4,4"/>
<!-- Node1 -->
<g id="node1" class="node">
<title>Node1</title>
<g id="a_node1"><a xlink:title=" ">
<polygon fill="#bfbfbf" stroke="black" points="1293,-320.5 1293,-399.5 1427,-399.5 1427,-320.5 1293,-320.5"/>
<text text-anchor="start" x="1301" y="-387.5" font-family="Helvetica,sans-Serif" font-size="10.00">pocketmine\event\block</text>
<text text-anchor="middle" x="1360" y="-376.5" font-family="Helvetica,sans-Serif" font-size="10.00">\BlockEvent</text>
<polyline fill="none" stroke="black" points="1293,-369.5 1427,-369.5 "/>
<text text-anchor="middle" x="1360" y="-357.5" font-family="Helvetica,sans-Serif" font-size="10.00"> </text>
<polyline fill="none" stroke="black" points="1293,-350.5 1427,-350.5 "/>
<text text-anchor="start" x="1301" y="-338.5" font-family="Helvetica,sans-Serif" font-size="10.00">+ __construct()</text>
<text text-anchor="start" x="1301" y="-327.5" font-family="Helvetica,sans-Serif" font-size="10.00">+ getBlock()</text>
</a>
</g>
</g>
<!-- Node3 -->
<g id="node3" class="node">
<title>Node3</title>
<g id="a_node3"><a xlink:href="../../d0/df9/classpocketmine_1_1event_1_1block_1_1_base_block_change_event.html" target="_top" xlink:title=" ">
<polygon fill="white" stroke="#bfbfbf" points="303.5,-160.5 303.5,-239.5 438.5,-239.5 438.5,-160.5 303.5,-160.5"/>
<text text-anchor="start" x="311.5" y="-227.5" font-family="Helvetica,sans-Serif" font-size="10.00">pocketmine\event\block</text>
<text text-anchor="middle" x="371" y="-216.5" font-family="Helvetica,sans-Serif" font-size="10.00">\BaseBlockChangeEvent</text>
<polyline fill="none" stroke="#bfbfbf" points="303.5,-209.5 438.5,-209.5 "/>
<text text-anchor="middle" x="371" y="-197.5" font-family="Helvetica,sans-Serif" font-size="10.00"> </text>
<polyline fill="none" stroke="#bfbfbf" points="303.5,-190.5 438.5,-190.5 "/>
<text text-anchor="start" x="311.5" y="-178.5" font-family="Helvetica,sans-Serif" font-size="10.00">+ __construct()</text>
<text text-anchor="start" x="311.5" y="-167.5" font-family="Helvetica,sans-Serif" font-size="10.00">+ getNewState()</text>
</a>
</g>
</g>
<!-- Node1&#45;&gt;Node3 -->
<g id="edge2" class="edge">
<title>Node1&#45;&gt;Node3</title>
<path fill="none" stroke="midnightblue" d="M1282.81,-359.73C1090.37,-360.45 594.34,-355.13 448,-284 427.67,-274.12 410.07,-256.37 396.84,-239.81"/>
<polygon fill="none" stroke="midnightblue" points="1282.86,-363.23 1292.84,-359.69 1282.83,-356.23 1282.86,-363.23"/>
</g>
<!-- Node9 -->
<g id="node9" class="node">
<title>Node9</title>
<g id="a_node9"><a xlink:href="../../de/d3a/classpocketmine_1_1event_1_1block_1_1_block_break_event.html" target="_top" xlink:title=" ">
<polygon fill="white" stroke="black" points="457,-116.5 457,-283.5 591,-283.5 591,-116.5 457,-116.5"/>
<text text-anchor="start" x="465" y="-271.5" font-family="Helvetica,sans-Serif" font-size="10.00">pocketmine\event\block</text>
<text text-anchor="middle" x="524" y="-260.5" font-family="Helvetica,sans-Serif" font-size="10.00">\BlockBreakEvent</text>
<polyline fill="none" stroke="black" points="457,-253.5 591,-253.5 "/>
<text text-anchor="start" x="465" y="-241.5" font-family="Helvetica,sans-Serif" font-size="10.00"># $blockDrops</text>
<polyline fill="none" stroke="black" points="457,-234.5 591,-234.5 "/>
<text text-anchor="start" x="465" y="-222.5" font-family="Helvetica,sans-Serif" font-size="10.00">+ __construct()</text>
<text text-anchor="start" x="465" y="-211.5" font-family="Helvetica,sans-Serif" font-size="10.00">+ getDrops()</text>
<text text-anchor="start" x="465" y="-200.5" font-family="Helvetica,sans-Serif" font-size="10.00">+ getInstaBreak()</text>
<text text-anchor="start" x="465" y="-189.5" font-family="Helvetica,sans-Serif" font-size="10.00">+ getItem()</text>
<text text-anchor="start" x="465" y="-178.5" font-family="Helvetica,sans-Serif" font-size="10.00">+ getPlayer()</text>
<text text-anchor="start" x="465" y="-167.5" font-family="Helvetica,sans-Serif" font-size="10.00">+ getXpDropAmount()</text>
<text text-anchor="start" x="465" y="-156.5" font-family="Helvetica,sans-Serif" font-size="10.00">+ setDrops()</text>
<text text-anchor="start" x="465" y="-145.5" font-family="Helvetica,sans-Serif" font-size="10.00">+ setDropsVariadic()</text>
<text text-anchor="start" x="465" y="-134.5" font-family="Helvetica,sans-Serif" font-size="10.00">+ setInstaBreak()</text>
<text text-anchor="start" x="465" y="-123.5" font-family="Helvetica,sans-Serif" font-size="10.00">+ setXpDropAmount()</text>
</a>
</g>
</g>
<!-- Node1&#45;&gt;Node9 -->
<g id="edge8" class="edge">
<title>Node1&#45;&gt;Node9</title>
<path fill="none" stroke="midnightblue" d="M1282.69,-358.3C1113.95,-355.67 718.31,-343.19 600,-284 596.94,-282.47 593.95,-280.76 591.02,-278.91"/>
<polygon fill="none" stroke="midnightblue" points="1282.69,-361.8 1292.74,-358.45 1282.79,-354.8 1282.69,-361.8"/>
</g>
<!-- Node10 -->
<g id="node10" class="node">
<title>Node10</title>
<g id="a_node10"><a xlink:href="../../db/da8/classpocketmine_1_1event_1_1block_1_1_block_burn_event.html" target="_top" xlink:title=" ">
<polygon fill="white" stroke="black" points="609,-160.5 609,-239.5 743,-239.5 743,-160.5 609,-160.5"/>
<text text-anchor="start" x="617" y="-227.5" font-family="Helvetica,sans-Serif" font-size="10.00">pocketmine\event\block</text>
<text text-anchor="middle" x="676" y="-216.5" font-family="Helvetica,sans-Serif" font-size="10.00">\BlockBurnEvent</text>
<polyline fill="none" stroke="black" points="609,-209.5 743,-209.5 "/>
<text text-anchor="middle" x="676" y="-197.5" font-family="Helvetica,sans-Serif" font-size="10.00"> </text>
<polyline fill="none" stroke="black" points="609,-190.5 743,-190.5 "/>
<text text-anchor="start" x="617" y="-178.5" font-family="Helvetica,sans-Serif" font-size="10.00">+ __construct()</text>
<text text-anchor="start" x="617" y="-167.5" font-family="Helvetica,sans-Serif" font-size="10.00">+ getCausingBlock()</text>
</a>
</g>
</g>
<!-- Node1&#45;&gt;Node10 -->
<g id="edge9" class="edge">
<title>Node1&#45;&gt;Node10</title>
<path fill="none" stroke="midnightblue" d="M1282.44,-356.07C1139.96,-349.62 842.84,-330.84 752,-284 732.2,-273.79 714.97,-256.22 701.94,-239.86"/>
<polygon fill="none" stroke="midnightblue" points="1282.69,-359.59 1292.84,-356.54 1283,-352.6 1282.69,-359.59"/>
</g>
<!-- Node11 -->
<g id="node11" class="node">
<title>Node11</title>
<g id="a_node11"><a xlink:href="../../d6/dfa/classpocketmine_1_1event_1_1block_1_1_block_item_pickup_event.html" target="_top" xlink:title=" ">
<polygon fill="white" stroke="black" points="761,-138.5 761,-261.5 895,-261.5 895,-138.5 761,-138.5"/>
<text text-anchor="start" x="769" y="-249.5" font-family="Helvetica,sans-Serif" font-size="10.00">pocketmine\event\block</text>
<text text-anchor="middle" x="828" y="-238.5" font-family="Helvetica,sans-Serif" font-size="10.00">\BlockItemPickupEvent</text>
<polyline fill="none" stroke="black" points="761,-231.5 895,-231.5 "/>
<text text-anchor="middle" x="828" y="-219.5" font-family="Helvetica,sans-Serif" font-size="10.00"> </text>
<polyline fill="none" stroke="black" points="761,-212.5 895,-212.5 "/>
<text text-anchor="start" x="769" y="-200.5" font-family="Helvetica,sans-Serif" font-size="10.00">+ __construct()</text>
<text text-anchor="start" x="769" y="-189.5" font-family="Helvetica,sans-Serif" font-size="10.00">+ getInventory()</text>
<text text-anchor="start" x="769" y="-178.5" font-family="Helvetica,sans-Serif" font-size="10.00">+ getItem()</text>
<text text-anchor="start" x="769" y="-167.5" font-family="Helvetica,sans-Serif" font-size="10.00">+ getOrigin()</text>
<text text-anchor="start" x="769" y="-156.5" font-family="Helvetica,sans-Serif" font-size="10.00">+ setInventory()</text>
<text text-anchor="start" x="769" y="-145.5" font-family="Helvetica,sans-Serif" font-size="10.00">+ setItem()</text>
</a>
</g>
</g>
<!-- Node1&#45;&gt;Node11 -->
<g id="edge10" class="edge">
<title>Node1&#45;&gt;Node11</title>
<path fill="none" stroke="midnightblue" d="M1282.59,-352.42C1170.12,-341.83 967.97,-318.63 904,-284 893.35,-278.23 883.4,-270.39 874.43,-261.82"/>
<polygon fill="none" stroke="midnightblue" points="1282.57,-355.93 1292.85,-353.38 1283.22,-348.96 1282.57,-355.93"/>
</g>
<!-- Node12 -->
<g id="node12" class="node">
<title>Node12</title>
<g id="a_node12"><a xlink:href="../../d9/dc5/classpocketmine_1_1event_1_1block_1_1_block_teleport_event.html" target="_top" xlink:title=" ">
<polygon fill="white" stroke="#bfbfbf" points="913,-155 913,-245 1047,-245 1047,-155 913,-155"/>
<text text-anchor="start" x="921" y="-233" font-family="Helvetica,sans-Serif" font-size="10.00">pocketmine\event\block</text>
<text text-anchor="middle" x="980" y="-222" font-family="Helvetica,sans-Serif" font-size="10.00">\BlockTeleportEvent</text>
<polyline fill="none" stroke="#bfbfbf" points="913,-215 1047,-215 "/>
<text text-anchor="middle" x="980" y="-203" font-family="Helvetica,sans-Serif" font-size="10.00"> </text>
<polyline fill="none" stroke="#bfbfbf" points="913,-196 1047,-196 "/>
<text text-anchor="start" x="921" y="-184" font-family="Helvetica,sans-Serif" font-size="10.00">+ __construct()</text>
<text text-anchor="start" x="921" y="-173" font-family="Helvetica,sans-Serif" font-size="10.00">+ getTo()</text>
<text text-anchor="start" x="921" y="-162" font-family="Helvetica,sans-Serif" font-size="10.00">+ setTo()</text>
</a>
</g>
</g>
<!-- Node1&#45;&gt;Node12 -->
<g id="edge11" class="edge">
<title>Node1&#45;&gt;Node12</title>
<path fill="none" stroke="midnightblue" d="M1282.84,-352.47C1218.41,-344.21 1126.11,-325.61 1056,-284 1039.37,-274.13 1024.23,-259.48 1011.92,-245.22"/>
<polygon fill="none" stroke="midnightblue" points="1282.58,-355.97 1292.93,-353.71 1283.43,-349.02 1282.58,-355.97"/>
</g>
<!-- Node13 -->
<g id="node13" class="node">
<title>Node13</title>
<g id="a_node13"><a xlink:href="../../d2/dfc/classpocketmine_1_1event_1_1block_1_1_block_update_event.html" target="_top" xlink:title=" ">
<polygon fill="white" stroke="black" points="1065,-166 1065,-234 1199,-234 1199,-166 1065,-166"/>
<text text-anchor="start" x="1073" y="-222" font-family="Helvetica,sans-Serif" font-size="10.00">pocketmine\event\block</text>
<text text-anchor="middle" x="1132" y="-211" font-family="Helvetica,sans-Serif" font-size="10.00">\BlockUpdateEvent</text>
<polyline fill="none" stroke="black" points="1065,-204 1199,-204 "/>
<text text-anchor="middle" x="1132" y="-192" font-family="Helvetica,sans-Serif" font-size="10.00"> </text>
<polyline fill="none" stroke="black" points="1065,-185 1199,-185 "/>
<text text-anchor="middle" x="1132" y="-173" font-family="Helvetica,sans-Serif" font-size="10.00"> </text>
</a>
</g>
</g>
<!-- Node1&#45;&gt;Node13 -->
<g id="edge12" class="edge">
<title>Node1&#45;&gt;Node13</title>
<path fill="none" stroke="midnightblue" d="M1283.76,-328.17C1258.48,-316.21 1230.95,-301.23 1208,-284 1189.09,-269.81 1171.08,-250.49 1157.34,-234.06"/>
<polygon fill="none" stroke="midnightblue" points="1282.41,-331.4 1292.96,-332.43 1285.36,-325.05 1282.41,-331.4"/>
</g>
<!-- Node14 -->
<g id="node14" class="node">
<title>Node14</title>
<g id="a_node14"><a xlink:href="../../d0/df2/classpocketmine_1_1event_1_1block_1_1_brew_item_event.html" target="_top" xlink:title=" ">
<polygon fill="white" stroke="#bfbfbf" points="1217,-133 1217,-267 1351,-267 1351,-133 1217,-133"/>
<text text-anchor="start" x="1225" y="-255" font-family="Helvetica,sans-Serif" font-size="10.00">pocketmine\event\block</text>
<text text-anchor="middle" x="1284" y="-244" font-family="Helvetica,sans-Serif" font-size="10.00">\BrewItemEvent</text>
<polyline fill="none" stroke="#bfbfbf" points="1217,-237 1351,-237 "/>
<text text-anchor="middle" x="1284" y="-225" font-family="Helvetica,sans-Serif" font-size="10.00"> </text>
<polyline fill="none" stroke="#bfbfbf" points="1217,-218 1351,-218 "/>
<text text-anchor="start" x="1225" y="-206" font-family="Helvetica,sans-Serif" font-size="10.00">+ __construct()</text>
<text text-anchor="start" x="1225" y="-195" font-family="Helvetica,sans-Serif" font-size="10.00">+ getBrewingStand()</text>
<text text-anchor="start" x="1225" y="-184" font-family="Helvetica,sans-Serif" font-size="10.00">+ getInput()</text>
<text text-anchor="start" x="1225" y="-173" font-family="Helvetica,sans-Serif" font-size="10.00">+ getRecipe()</text>
<text text-anchor="start" x="1225" y="-162" font-family="Helvetica,sans-Serif" font-size="10.00">+ getResult()</text>
<text text-anchor="start" x="1225" y="-151" font-family="Helvetica,sans-Serif" font-size="10.00">+ getSlot()</text>
<text text-anchor="start" x="1225" y="-140" font-family="Helvetica,sans-Serif" font-size="10.00">+ setResult()</text>
</a>
</g>
</g>
<!-- Node1&#45;&gt;Node14 -->
<g id="edge13" class="edge">
<title>Node1&#45;&gt;Node14</title>
<path fill="none" stroke="midnightblue" d="M1336.94,-311.06C1330.31,-297.27 1322.95,-281.97 1315.88,-267.27"/>
<polygon fill="none" stroke="midnightblue" points="1333.92,-312.85 1341.41,-320.35 1340.23,-309.82 1333.92,-312.85"/>
</g>
<!-- Node15 -->
<g id="node15" class="node">
<title>Node15</title>
<g id="a_node15"><a xlink:href="../../d6/d91/classpocketmine_1_1event_1_1block_1_1_brewing_fuel_use_event.html" target="_top" xlink:title=" ">
<polygon fill="white" stroke="black" points="1369,-149.5 1369,-250.5 1503,-250.5 1503,-149.5 1369,-149.5"/>
<text text-anchor="start" x="1377" y="-238.5" font-family="Helvetica,sans-Serif" font-size="10.00">pocketmine\event\block</text>
<text text-anchor="middle" x="1436" y="-227.5" font-family="Helvetica,sans-Serif" font-size="10.00">\BrewingFuelUseEvent</text>
<polyline fill="none" stroke="black" points="1369,-220.5 1503,-220.5 "/>
<text text-anchor="middle" x="1436" y="-208.5" font-family="Helvetica,sans-Serif" font-size="10.00"> </text>
<polyline fill="none" stroke="black" points="1369,-201.5 1503,-201.5 "/>
<text text-anchor="start" x="1377" y="-189.5" font-family="Helvetica,sans-Serif" font-size="10.00">+ __construct()</text>
<text text-anchor="start" x="1377" y="-178.5" font-family="Helvetica,sans-Serif" font-size="10.00">+ getBrewingStand()</text>
<text text-anchor="start" x="1377" y="-167.5" font-family="Helvetica,sans-Serif" font-size="10.00">+ getFuelTime()</text>
<text text-anchor="start" x="1377" y="-156.5" font-family="Helvetica,sans-Serif" font-size="10.00">+ setFuelTime()</text>
</a>
</g>
</g>
<!-- Node1&#45;&gt;Node15 -->
<g id="edge14" class="edge">
<title>Node1&#45;&gt;Node15</title>
<path fill="none" stroke="midnightblue" d="M1382.99,-311.2C1392.21,-292.04 1402.83,-269.95 1412.14,-250.61"/>
<polygon fill="none" stroke="midnightblue" points="1379.77,-309.82 1378.59,-320.35 1386.08,-312.85 1379.77,-309.82"/>
</g>
<!-- Node16 -->
<g id="node16" class="node">
<title>Node16</title>
<g id="a_node16"><a xlink:href="../../d1/dd3/classpocketmine_1_1event_1_1block_1_1_farmland_hydration_change_event.html" target="_top" xlink:title=" ">
<polygon fill="white" stroke="black" points="1521.5,-149.5 1521.5,-250.5 1698.5,-250.5 1698.5,-149.5 1521.5,-149.5"/>
<text text-anchor="start" x="1529.5" y="-238.5" font-family="Helvetica,sans-Serif" font-size="10.00">pocketmine\event\block</text>
<text text-anchor="middle" x="1610" y="-227.5" font-family="Helvetica,sans-Serif" font-size="10.00">\FarmlandHydrationChangeEvent</text>
<polyline fill="none" stroke="black" points="1521.5,-220.5 1698.5,-220.5 "/>
<text text-anchor="middle" x="1610" y="-208.5" font-family="Helvetica,sans-Serif" font-size="10.00"> </text>
<polyline fill="none" stroke="black" points="1521.5,-201.5 1698.5,-201.5 "/>
<text text-anchor="start" x="1529.5" y="-189.5" font-family="Helvetica,sans-Serif" font-size="10.00">+ __construct()</text>
<text text-anchor="start" x="1529.5" y="-178.5" font-family="Helvetica,sans-Serif" font-size="10.00">+ getNewHydration()</text>
<text text-anchor="start" x="1529.5" y="-167.5" font-family="Helvetica,sans-Serif" font-size="10.00">+ getOldHydration()</text>
<text text-anchor="start" x="1529.5" y="-156.5" font-family="Helvetica,sans-Serif" font-size="10.00">+ setNewHydration()</text>
</a>
</g>
</g>
<!-- Node1&#45;&gt;Node16 -->
<g id="edge15" class="edge">
<title>Node1&#45;&gt;Node16</title>
<path fill="none" stroke="midnightblue" d="M1436.08,-325.96C1460.99,-313.97 1488.33,-299.52 1512,-284 1527.01,-274.16 1542.27,-262.3 1556.14,-250.66"/>
<polygon fill="none" stroke="midnightblue" points="1434.55,-322.81 1427.02,-330.26 1437.56,-329.13 1434.55,-322.81"/>
</g>
<!-- Node17 -->
<g id="node17" class="node">
<title>Node17</title>
<g id="a_node17"><a xlink:href="../../d1/d8d/classpocketmine_1_1event_1_1block_1_1_leaves_decay_event.html" target="_top" xlink:title=" ">
<polygon fill="white" stroke="black" points="1717,-166 1717,-234 1851,-234 1851,-166 1717,-166"/>
<text text-anchor="start" x="1725" y="-222" font-family="Helvetica,sans-Serif" font-size="10.00">pocketmine\event\block</text>
<text text-anchor="middle" x="1784" y="-211" font-family="Helvetica,sans-Serif" font-size="10.00">\LeavesDecayEvent</text>
<polyline fill="none" stroke="black" points="1717,-204 1851,-204 "/>
<text text-anchor="middle" x="1784" y="-192" font-family="Helvetica,sans-Serif" font-size="10.00"> </text>
<polyline fill="none" stroke="black" points="1717,-185 1851,-185 "/>
<text text-anchor="middle" x="1784" y="-173" font-family="Helvetica,sans-Serif" font-size="10.00"> </text>
</a>
</g>
</g>
<!-- Node1&#45;&gt;Node17 -->
<g id="edge16" class="edge">
<title>Node1&#45;&gt;Node17</title>
<path fill="none" stroke="midnightblue" d="M1437.29,-355.76C1511.18,-349.68 1623.52,-332.46 1708,-284 1729.18,-271.85 1747.8,-251.77 1761.31,-234.41"/>
<polygon fill="none" stroke="midnightblue" points="1436.83,-352.28 1427.13,-356.54 1437.37,-359.26 1436.83,-352.28"/>
</g>
<!-- Node18 -->
<g id="node18" class="node">
<title>Node18</title>
<g id="a_node18"><a xlink:href="../../dd/d93/classpocketmine_1_1event_1_1block_1_1_sign_change_event.html" target="_top" xlink:title=" ">
<polygon fill="white" stroke="black" points="1869,-138.5 1869,-261.5 2003,-261.5 2003,-138.5 1869,-138.5"/>
<text text-anchor="start" x="1877" y="-249.5" font-family="Helvetica,sans-Serif" font-size="10.00">pocketmine\event\block</text>
<text text-anchor="middle" x="1936" y="-238.5" font-family="Helvetica,sans-Serif" font-size="10.00">\SignChangeEvent</text>
<polyline fill="none" stroke="black" points="1869,-231.5 2003,-231.5 "/>
<text text-anchor="middle" x="1936" y="-219.5" font-family="Helvetica,sans-Serif" font-size="10.00"> </text>
<polyline fill="none" stroke="black" points="1869,-212.5 2003,-212.5 "/>
<text text-anchor="start" x="1877" y="-200.5" font-family="Helvetica,sans-Serif" font-size="10.00">+ __construct()</text>
<text text-anchor="start" x="1877" y="-189.5" font-family="Helvetica,sans-Serif" font-size="10.00">+ getNewText()</text>
<text text-anchor="start" x="1877" y="-178.5" font-family="Helvetica,sans-Serif" font-size="10.00">+ getOldText()</text>
<text text-anchor="start" x="1877" y="-167.5" font-family="Helvetica,sans-Serif" font-size="10.00">+ getPlayer()</text>
<text text-anchor="start" x="1877" y="-156.5" font-family="Helvetica,sans-Serif" font-size="10.00">+ getSign()</text>
<text text-anchor="start" x="1877" y="-145.5" font-family="Helvetica,sans-Serif" font-size="10.00">+ setNewText()</text>
</a>
</g>
</g>
<!-- Node1&#45;&gt;Node18 -->
<g id="edge17" class="edge">
<title>Node1&#45;&gt;Node18</title>
<path fill="none" stroke="midnightblue" d="M1437.41,-353.7C1559.01,-344.34 1788.31,-322.16 1860,-284 1870.87,-278.22 1880.99,-270.25 1890.07,-261.53"/>
<polygon fill="none" stroke="midnightblue" points="1437.12,-350.22 1427.42,-354.46 1437.66,-357.2 1437.12,-350.22"/>
</g>
<!-- Node19 -->
<g id="node19" class="node">
<title>Node19</title>
<g id="a_node19"><a xlink:href="../../dd/d17/classpocketmine_1_1event_1_1block_1_1_structure_grow_event.html" target="_top" xlink:title=" ">
<polygon fill="white" stroke="black" points="2021,-155 2021,-245 2155,-245 2155,-155 2021,-155"/>
<text text-anchor="start" x="2029" y="-233" font-family="Helvetica,sans-Serif" font-size="10.00">pocketmine\event\block</text>
<text text-anchor="middle" x="2088" y="-222" font-family="Helvetica,sans-Serif" font-size="10.00">\StructureGrowEvent</text>
<polyline fill="none" stroke="black" points="2021,-215 2155,-215 "/>
<text text-anchor="middle" x="2088" y="-203" font-family="Helvetica,sans-Serif" font-size="10.00"> </text>
<polyline fill="none" stroke="black" points="2021,-196 2155,-196 "/>
<text text-anchor="start" x="2029" y="-184" font-family="Helvetica,sans-Serif" font-size="10.00">+ __construct()</text>
<text text-anchor="start" x="2029" y="-173" font-family="Helvetica,sans-Serif" font-size="10.00">+ getPlayer()</text>
<text text-anchor="start" x="2029" y="-162" font-family="Helvetica,sans-Serif" font-size="10.00">+ getTransaction()</text>
</a>
</g>
</g>
<!-- Node1&#45;&gt;Node19 -->
<g id="edge18" class="edge">
<title>Node1&#45;&gt;Node19</title>
<path fill="none" stroke="midnightblue" d="M1437.08,-356.84C1587.3,-351.55 1913.17,-334.45 2012,-284 2029.75,-274.94 2045.42,-259.92 2057.85,-245.13"/>
<polygon fill="none" stroke="midnightblue" points="1436.88,-353.34 1427.01,-357.19 1437.13,-360.34 1436.88,-353.34"/>
</g>
<!-- Node20 -->
<g id="node20" class="node">
<title>Node20</title>
<g id="a_node20"><a xlink:href="../../d5/d82/classpocketmine_1_1event_1_1inventory_1_1_furnace_burn_event.html" target="_top" xlink:title=" ">
<polygon fill="white" stroke="black" points="2173,-133 2173,-267 2327,-267 2327,-133 2173,-133"/>
<text text-anchor="start" x="2181" y="-255" font-family="Helvetica,sans-Serif" font-size="10.00">pocketmine\event\inventory</text>
<text text-anchor="middle" x="2250" y="-244" font-family="Helvetica,sans-Serif" font-size="10.00">\FurnaceBurnEvent</text>
<polyline fill="none" stroke="black" points="2173,-237 2327,-237 "/>
<text text-anchor="middle" x="2250" y="-225" font-family="Helvetica,sans-Serif" font-size="10.00"> </text>
<polyline fill="none" stroke="black" points="2173,-218 2327,-218 "/>
<text text-anchor="start" x="2181" y="-206" font-family="Helvetica,sans-Serif" font-size="10.00">+ __construct()</text>
<text text-anchor="start" x="2181" y="-195" font-family="Helvetica,sans-Serif" font-size="10.00">+ getBurnTime()</text>
<text text-anchor="start" x="2181" y="-184" font-family="Helvetica,sans-Serif" font-size="10.00">+ getFuel()</text>
<text text-anchor="start" x="2181" y="-173" font-family="Helvetica,sans-Serif" font-size="10.00">+ getFurnace()</text>
<text text-anchor="start" x="2181" y="-162" font-family="Helvetica,sans-Serif" font-size="10.00">+ isBurning()</text>
<text text-anchor="start" x="2181" y="-151" font-family="Helvetica,sans-Serif" font-size="10.00">+ setBurning()</text>
<text text-anchor="start" x="2181" y="-140" font-family="Helvetica,sans-Serif" font-size="10.00">+ setBurnTime()</text>
</a>
</g>
</g>
<!-- Node1&#45;&gt;Node20 -->
<g id="edge19" class="edge">
<title>Node1&#45;&gt;Node20</title>
<path fill="none" stroke="midnightblue" d="M1437.34,-358.25C1612.84,-355.51 2035.88,-342.81 2164,-284 2173.52,-279.63 2182.64,-273.75 2191.13,-267.13"/>
<polygon fill="none" stroke="midnightblue" points="1437.1,-354.75 1427.16,-358.4 1437.21,-361.75 1437.1,-354.75"/>
</g>
<!-- Node21 -->
<g id="node21" class="node">
<title>Node21</title>
<g id="a_node21"><a xlink:href="../../d8/df1/classpocketmine_1_1event_1_1inventory_1_1_furnace_smelt_event.html" target="_top" xlink:title=" ">
<polygon fill="white" stroke="#bfbfbf" points="2345,-144 2345,-256 2499,-256 2499,-144 2345,-144"/>
<text text-anchor="start" x="2353" y="-244" font-family="Helvetica,sans-Serif" font-size="10.00">pocketmine\event\inventory</text>
<text text-anchor="middle" x="2422" y="-233" font-family="Helvetica,sans-Serif" font-size="10.00">\FurnaceSmeltEvent</text>
<polyline fill="none" stroke="#bfbfbf" points="2345,-226 2499,-226 "/>
<text text-anchor="middle" x="2422" y="-214" font-family="Helvetica,sans-Serif" font-size="10.00"> </text>
<polyline fill="none" stroke="#bfbfbf" points="2345,-207 2499,-207 "/>
<text text-anchor="start" x="2353" y="-195" font-family="Helvetica,sans-Serif" font-size="10.00">+ __construct()</text>
<text text-anchor="start" x="2353" y="-184" font-family="Helvetica,sans-Serif" font-size="10.00">+ getFurnace()</text>
<text text-anchor="start" x="2353" y="-173" font-family="Helvetica,sans-Serif" font-size="10.00">+ getResult()</text>
<text text-anchor="start" x="2353" y="-162" font-family="Helvetica,sans-Serif" font-size="10.00">+ getSource()</text>
<text text-anchor="start" x="2353" y="-151" font-family="Helvetica,sans-Serif" font-size="10.00">+ setResult()</text>
</a>
</g>
</g>
<!-- Node1&#45;&gt;Node21 -->
<g id="edge20" class="edge">
<title>Node1&#45;&gt;Node21</title>
<path fill="none" stroke="midnightblue" d="M1437.31,-359.74C1638.87,-360.61 2175.91,-355.91 2336,-284 2350.57,-277.45 2364.16,-267.34 2376.04,-256.39"/>
<polygon fill="none" stroke="midnightblue" points="1437.12,-356.23 1427.1,-359.69 1437.08,-363.23 1437.12,-356.23"/>
</g>
<!-- Node2 -->
<g id="node2" class="node">
<title>Node2</title>
<g id="a_node2"><a xlink:href="../../d1/d2f/classpocketmine_1_1event_1_1_event.html" target="_top" xlink:title=" ">
<polygon fill="white" stroke="#bfbfbf" points="1292.5,-436.5 1292.5,-515.5 1427.5,-515.5 1427.5,-436.5 1292.5,-436.5"/>
<text text-anchor="middle" x="1360" y="-503.5" font-family="Helvetica,sans-Serif" font-size="10.00">pocketmine\event\Event</text>
<polyline fill="none" stroke="#bfbfbf" points="1292.5,-496.5 1427.5,-496.5 "/>
<text text-anchor="start" x="1300.5" y="-484.5" font-family="Helvetica,sans-Serif" font-size="10.00"># $eventName</text>
<polyline fill="none" stroke="#bfbfbf" points="1292.5,-477.5 1427.5,-477.5 "/>
<text text-anchor="start" x="1300.5" y="-465.5" font-family="Helvetica,sans-Serif" font-size="10.00">+ call()</text>
<text text-anchor="start" x="1300.5" y="-454.5" font-family="Helvetica,sans-Serif" font-size="10.00">+ getEventName()</text>
<text text-anchor="start" x="1300.5" y="-443.5" font-family="Helvetica,sans-Serif" font-size="10.00">+ hasHandlers()</text>
</a>
</g>
</g>
<!-- Node2&#45;&gt;Node1 -->
<g id="edge1" class="edge">
<title>Node2&#45;&gt;Node1</title>
<path fill="none" stroke="midnightblue" d="M1360,-426.15C1360,-417.26 1360,-408.1 1360,-399.56"/>
<polygon fill="none" stroke="midnightblue" points="1356.5,-426.4 1360,-436.4 1363.5,-426.4 1356.5,-426.4"/>
</g>
<!-- Node4 -->
<g id="node4" class="node">
<title>Node4</title>
<g id="a_node4"><a xlink:href="../../df/d82/classpocketmine_1_1event_1_1block_1_1_block_death_event.html" target="_top" xlink:title=" ">
<polygon fill="white" stroke="black" points="0,-6 0,-74 134,-74 134,-6 0,-6"/>
<text text-anchor="start" x="8" y="-62" font-family="Helvetica,sans-Serif" font-size="10.00">pocketmine\event\block</text>
<text text-anchor="middle" x="67" y="-51" font-family="Helvetica,sans-Serif" font-size="10.00">\BlockDeathEvent</text>
<polyline fill="none" stroke="black" points="0,-44 134,-44 "/>
<text text-anchor="middle" x="67" y="-32" font-family="Helvetica,sans-Serif" font-size="10.00"> </text>
<polyline fill="none" stroke="black" points="0,-25 134,-25 "/>
<text text-anchor="middle" x="67" y="-13" font-family="Helvetica,sans-Serif" font-size="10.00"> </text>
</a>
</g>
</g>
<!-- Node3&#45;&gt;Node4 -->
<g id="edge3" class="edge">
<title>Node3&#45;&gt;Node4</title>
<path fill="none" stroke="midnightblue" d="M294.22,-159.1C243.71,-132.84 178.38,-98.89 130.74,-74.13"/>
<polygon fill="none" stroke="midnightblue" points="292.67,-162.23 303.15,-163.74 295.9,-156.02 292.67,-162.23"/>
</g>
<!-- Node5 -->
<g id="node5" class="node">
<title>Node5</title>
<g id="a_node5"><a xlink:href="../../dc/d51/classpocketmine_1_1event_1_1block_1_1_block_form_event.html" target="_top" xlink:title=" ">
<polygon fill="white" stroke="black" points="152,-0.5 152,-79.5 286,-79.5 286,-0.5 152,-0.5"/>
<text text-anchor="start" x="160" y="-67.5" font-family="Helvetica,sans-Serif" font-size="10.00">pocketmine\event\block</text>
<text text-anchor="middle" x="219" y="-56.5" font-family="Helvetica,sans-Serif" font-size="10.00">\BlockFormEvent</text>
<polyline fill="none" stroke="black" points="152,-49.5 286,-49.5 "/>
<text text-anchor="middle" x="219" y="-37.5" font-family="Helvetica,sans-Serif" font-size="10.00"> </text>
<polyline fill="none" stroke="black" points="152,-30.5 286,-30.5 "/>
<text text-anchor="start" x="160" y="-18.5" font-family="Helvetica,sans-Serif" font-size="10.00">+ __construct()</text>
<text text-anchor="start" x="160" y="-7.5" font-family="Helvetica,sans-Serif" font-size="10.00">+ getCausingBlock()</text>
</a>
</g>
</g>
<!-- Node3&#45;&gt;Node5 -->
<g id="edge4" class="edge">
<title>Node3&#45;&gt;Node5</title>
<path fill="none" stroke="midnightblue" d="M326.71,-152.96C304.28,-129.65 277.37,-101.68 256.06,-79.53"/>
<polygon fill="none" stroke="midnightblue" points="324.36,-155.57 333.82,-160.35 329.41,-150.72 324.36,-155.57"/>
</g>
<!-- Node6 -->
<g id="node6" class="node">
<title>Node6</title>
<g id="a_node6"><a xlink:href="../../db/d04/classpocketmine_1_1event_1_1block_1_1_block_grow_event.html" target="_top" xlink:title=" ">
<polygon fill="white" stroke="black" points="304,-0.5 304,-79.5 438,-79.5 438,-0.5 304,-0.5"/>
<text text-anchor="start" x="312" y="-67.5" font-family="Helvetica,sans-Serif" font-size="10.00">pocketmine\event\block</text>
<text text-anchor="middle" x="371" y="-56.5" font-family="Helvetica,sans-Serif" font-size="10.00">\BlockGrowEvent</text>
<polyline fill="none" stroke="black" points="304,-49.5 438,-49.5 "/>
<text text-anchor="middle" x="371" y="-37.5" font-family="Helvetica,sans-Serif" font-size="10.00"> </text>
<polyline fill="none" stroke="black" points="304,-30.5 438,-30.5 "/>
<text text-anchor="start" x="312" y="-18.5" font-family="Helvetica,sans-Serif" font-size="10.00">+ __construct()</text>
<text text-anchor="start" x="312" y="-7.5" font-family="Helvetica,sans-Serif" font-size="10.00">+ getPlayer()</text>
</a>
</g>
</g>
<!-- Node3&#45;&gt;Node6 -->
<g id="edge5" class="edge">
<title>Node3&#45;&gt;Node6</title>
<path fill="none" stroke="midnightblue" d="M371,-150.21C371,-127.48 371,-100.82 371,-79.53"/>
<polygon fill="none" stroke="midnightblue" points="367.5,-150.35 371,-160.35 374.5,-150.35 367.5,-150.35"/>
</g>
<!-- Node7 -->
<g id="node7" class="node">
<title>Node7</title>
<g id="a_node7"><a xlink:href="../../d1/d80/classpocketmine_1_1event_1_1block_1_1_block_melt_event.html" target="_top" xlink:title=" ">
<polygon fill="white" stroke="black" points="456,-6 456,-74 590,-74 590,-6 456,-6"/>
<text text-anchor="start" x="464" y="-62" font-family="Helvetica,sans-Serif" font-size="10.00">pocketmine\event\block</text>
<text text-anchor="middle" x="523" y="-51" font-family="Helvetica,sans-Serif" font-size="10.00">\BlockMeltEvent</text>
<polyline fill="none" stroke="black" points="456,-44 590,-44 "/>
<text text-anchor="middle" x="523" y="-32" font-family="Helvetica,sans-Serif" font-size="10.00"> </text>
<polyline fill="none" stroke="black" points="456,-25 590,-25 "/>
<text text-anchor="middle" x="523" y="-13" font-family="Helvetica,sans-Serif" font-size="10.00"> </text>
</a>
</g>
</g>
<!-- Node3&#45;&gt;Node7 -->
<g id="edge6" class="edge">
<title>Node3&#45;&gt;Node7</title>
<path fill="none" stroke="midnightblue" d="M413.2,-152.89C424.42,-140.8 436.59,-127.84 448,-116 461.29,-102.21 476.15,-87.24 489.13,-74.34"/>
<polygon fill="none" stroke="midnightblue" points="410.58,-150.57 406.35,-160.29 415.72,-155.33 410.58,-150.57"/>
</g>
<!-- Node8 -->
<g id="node8" class="node">
<title>Node8</title>
<g id="a_node8"><a xlink:href="../../d7/dd6/classpocketmine_1_1event_1_1block_1_1_block_spread_event.html" target="_top" xlink:title=" ">
<polygon fill="white" stroke="black" points="608,-0.5 608,-79.5 742,-79.5 742,-0.5 608,-0.5"/>
<text text-anchor="start" x="616" y="-67.5" font-family="Helvetica,sans-Serif" font-size="10.00">pocketmine\event\block</text>
<text text-anchor="middle" x="675" y="-56.5" font-family="Helvetica,sans-Serif" font-size="10.00">\BlockSpreadEvent</text>
<polyline fill="none" stroke="black" points="608,-49.5 742,-49.5 "/>
<text text-anchor="middle" x="675" y="-37.5" font-family="Helvetica,sans-Serif" font-size="10.00"> </text>
<polyline fill="none" stroke="black" points="608,-30.5 742,-30.5 "/>
<text text-anchor="start" x="616" y="-18.5" font-family="Helvetica,sans-Serif" font-size="10.00">+ __construct()</text>
<text text-anchor="start" x="616" y="-7.5" font-family="Helvetica,sans-Serif" font-size="10.00">+ getSource()</text>
</a>
</g>
</g>
<!-- Node3&#45;&gt;Node8 -->
<g id="edge7" class="edge">
<title>Node3&#45;&gt;Node8</title>
<path fill="none" stroke="midnightblue" d="M405.46,-152.38C417.54,-138.87 432.11,-125.28 448,-116 507.58,-81.21 534.29,-103.92 599,-80 601.92,-78.92 604.87,-77.76 607.84,-76.53"/>
<polygon fill="none" stroke="midnightblue" points="402.51,-150.44 398.64,-160.3 407.82,-155.01 402.51,-150.44"/>
</g>
</g>
</svg>
        <g id="navigator" transform="translate(0 0)" fill="#404254">
                <rect fill="#f2f5e9" fill-opacity="0.5" stroke="#606060" stroke-width=".5" x="0" y="0" width="60" height="60"/>
                <use id="zoomplus" xlink:href="#zoomPlus" x="17" y="9" onmousedown="handleZoom(evt,'in')"/>
                <use id="zoomminus" xlink:href="#zoomMin" x="42" y="9" onmousedown="handleZoom(evt,'out')"/>
                <use id="reset" xlink:href="#resetDef" x="30" y="36" onmousedown="handleReset()"/>
                <g id="arrowUp" xlink:href="#dirArrow" transform="translate(30 24)" onmousedown="handlePan(0,-1)">
                  <use xlink:href="#rim" fill="#404040">
                        <set attributeName="fill" to="#808080" begin="arrowUp.mouseover" end="arrowUp.mouseout"/>
                  </use>
                  <path fill="none" stroke="white" stroke-width="1.5" d="M0,-3.0v7 M-2.5,-0.5L0,-3.0L2.5,-0.5"/>
                </g>
                <g id="arrowRight" xlink:href="#dirArrow" transform="rotate(90) translate(36 -43)" onmousedown="handlePan(1,0)">
                  <use xlink:href="#rim" fill="#404040">
                        <set attributeName="fill" to="#808080" begin="arrowRight.mouseover" end="arrowRight.mouseout"/>
                  </use>
                  <path fill="none" stroke="white" stroke-width="1.5" d="M0,-3.0v7 M-2.5,-0.5L0,-3.0L2.5,-0.5"/>
                </g>
                <g id="arrowDown" xlink:href="#dirArrow" transform="rotate(180) translate(-30 -48)" onmousedown="handlePan(0,1)">
                  <use xlink:href="#rim" fill="#404040">
                        <set attributeName="fill" to="#808080" begin="arrowDown.mouseover" end="arrowDown.mouseout"/>
                  </use>
                  <path fill="none" stroke="white" stroke-width="1.5" d="M0,-3.0v7 M-2.5,-0.5L0,-3.0L2.5,-0.5"/>
                </g>
                <g id="arrowLeft" xlink:href="#dirArrow" transform="rotate(270) translate(-36 17)" onmousedown="handlePan(-1,0)">
                  <use xlink:href="#rim" fill="#404040">
                        <set attributeName="fill" to="#808080" begin="arrowLeft.mouseover" end="arrowLeft.mouseout"/>
                  </use>
                  <path fill="none" stroke="white" stroke-width="1.5" d="M0,-3.0v7 M-2.5,-0.5L0,-3.0L2.5,-0.5"/>
                </g>
        </g>
        <svg viewBox="0 0 15 15" width="100%" height="30px" preserveAspectRatio="xMaxYMin meet">
         <g id="arrow_out" transform="scale(0.3 0.3)">
          <a xlink:href="classpocketmine_1_1event_1_1block_1_1_block_event__inherit__graph_org.svg" target="_base">
           <rect id="button" ry="5" rx="5" y="6" x="6" height="38" width="38"
                fill="#f2f5e9" fill-opacity="0.5" stroke="#606060" stroke-width="1.0"/>
           <path id="arrow"
             d="M 11.500037,31.436501 C 11.940474,20.09759 22.043105,11.32322 32.158766,21.979434 L 37.068811,17.246167 C 37.068811,17.246167 37.088388,32 37.088388,32 L 22.160133,31.978069 C 22.160133,31.978069 26.997745,27.140456 26.997745,27.140456 C 18.528582,18.264221 13.291696,25.230495 11.500037,31.436501 z"
             style="fill:#404040;"/>
          </a>
         </g>
        </svg>
</svg>
