<?xml version="1.0" encoding="UTF-8" standalone="no"?>
<!DOCTYPE svg PUBLIC "-//W3C//DTD SVG 1.1//EN"
 "http://www.w3.org/Graphics/SVG/1.1/DTD/svg11.dtd">
<!-- Generated by graphviz version 2.43.0 (0)
 -->
<!-- Title: pocketmine\item\SuspiciousStew Pages: 1 -->
<svg width="744pt" height="1138pt"
 viewBox="0.00 0.00 744.00 1138.00" xmlns="http://www.w3.org/2000/svg" xmlns:xlink="http://www.w3.org/1999/xlink">
<g id="graph0" class="graph" transform="scale(1 1) rotate(0) translate(4 1134)">
<title>pocketmine\item\SuspiciousStew</title>
<polygon fill="white" stroke="transparent" points="-4,4 -4,-1134 740,-1134 740,4 -4,4"/>
<!-- Node1 -->
<g id="node1" class="node">
<title>Node1</title>
<g id="a_node1"><a xlink:title=" ">
<polygon fill="#bfbfbf" stroke="black" points="189,-0.5 189,-156.5 367,-156.5 367,-0.5 189,-0.5"/>
<text text-anchor="middle" x="278" y="-144.5" font-family="Helvetica,sans-Serif" font-size="10.00">pocketmine\item\SuspiciousStew</text>
<polyline fill="none" stroke="black" points="189,-137.5 367,-137.5 "/>
<text text-anchor="middle" x="278" y="-125.5" font-family="Helvetica,sans-Serif" font-size="10.00"> </text>
<polyline fill="none" stroke="black" points="189,-118.5 367,-118.5 "/>
<text text-anchor="start" x="197" y="-106.5" font-family="Helvetica,sans-Serif" font-size="10.00">+ __construct()</text>
<text text-anchor="start" x="197" y="-95.5" font-family="Helvetica,sans-Serif" font-size="10.00">+ getAdditionalEffects()</text>
<text text-anchor="start" x="197" y="-84.5" font-family="Helvetica,sans-Serif" font-size="10.00">+ getFoodRestore()</text>
<text text-anchor="start" x="197" y="-73.5" font-family="Helvetica,sans-Serif" font-size="10.00">+ getMaxStackSize()</text>
<text text-anchor="start" x="197" y="-62.5" font-family="Helvetica,sans-Serif" font-size="10.00">+ getResidue()</text>
<text text-anchor="start" x="197" y="-51.5" font-family="Helvetica,sans-Serif" font-size="10.00">+ getSaturationRestore()</text>
<text text-anchor="start" x="197" y="-40.5" font-family="Helvetica,sans-Serif" font-size="10.00">+ getType()</text>
<text text-anchor="start" x="197" y="-29.5" font-family="Helvetica,sans-Serif" font-size="10.00">+ requiresHunger()</text>
<text text-anchor="start" x="197" y="-18.5" font-family="Helvetica,sans-Serif" font-size="10.00">+ setType()</text>
<text text-anchor="start" x="197" y="-7.5" font-family="Helvetica,sans-Serif" font-size="10.00"># describeType()</text>
</a>
</g>
</g>
<!-- Node2 -->
<g id="node2" class="node">
<title>Node2</title>
<g id="a_node2"><a xlink:href="../../dc/de1/classpocketmine_1_1item_1_1_food.html" target="_top" xlink:title=" ">
<polygon fill="white" stroke="#bfbfbf" points="211,-194.5 211,-295.5 345,-295.5 345,-194.5 211,-194.5"/>
<text text-anchor="middle" x="278" y="-283.5" font-family="Helvetica,sans-Serif" font-size="10.00">pocketmine\item\Food</text>
<polyline fill="none" stroke="#bfbfbf" points="211,-276.5 345,-276.5 "/>
<text text-anchor="middle" x="278" y="-264.5" font-family="Helvetica,sans-Serif" font-size="10.00"> </text>
<polyline fill="none" stroke="#bfbfbf" points="211,-257.5 345,-257.5 "/>
<text text-anchor="start" x="219" y="-245.5" font-family="Helvetica,sans-Serif" font-size="10.00">+ canStartUsingItem()</text>
<text text-anchor="start" x="219" y="-234.5" font-family="Helvetica,sans-Serif" font-size="10.00">+ getAdditionalEffects()</text>
<text text-anchor="start" x="219" y="-223.5" font-family="Helvetica,sans-Serif" font-size="10.00">+ getResidue()</text>
<text text-anchor="start" x="219" y="-212.5" font-family="Helvetica,sans-Serif" font-size="10.00">+ onConsume()</text>
<text text-anchor="start" x="219" y="-201.5" font-family="Helvetica,sans-Serif" font-size="10.00">+ requiresHunger()</text>
</a>
</g>
</g>
<!-- Node2&#45;&gt;Node1 -->
<g id="edge1" class="edge">
<title>Node2&#45;&gt;Node1</title>
<path fill="none" stroke="midnightblue" d="M278,-184C278,-175.14 278,-165.91 278,-156.77"/>
<polygon fill="none" stroke="midnightblue" points="274.5,-184.2 278,-194.2 281.5,-184.2 274.5,-184.2"/>
</g>
<!-- Node3 -->
<g id="node3" class="node">
<title>Node3</title>
<g id="a_node3"><a xlink:href="../../d5/d8a/classpocketmine_1_1item_1_1_item.html" target="_top" xlink:title=" ">
<polygon fill="white" stroke="#bfbfbf" points="106,-333.5 106,-599.5 264,-599.5 264,-333.5 106,-333.5"/>
<text text-anchor="middle" x="185" y="-587.5" font-family="Helvetica,sans-Serif" font-size="10.00">pocketmine\item\Item</text>
<polyline fill="none" stroke="#bfbfbf" points="106,-580.5 264,-580.5 "/>
<text text-anchor="start" x="114" y="-568.5" font-family="Helvetica,sans-Serif" font-size="10.00"># $canDestroy</text>
<text text-anchor="start" x="114" y="-557.5" font-family="Helvetica,sans-Serif" font-size="10.00"># $canPlaceOn</text>
<text text-anchor="start" x="114" y="-546.5" font-family="Helvetica,sans-Serif" font-size="10.00"># $count</text>
<text text-anchor="start" x="114" y="-535.5" font-family="Helvetica,sans-Serif" font-size="10.00"># $customName</text>
<text text-anchor="start" x="114" y="-524.5" font-family="Helvetica,sans-Serif" font-size="10.00"># $lore</text>
<polyline fill="none" stroke="#bfbfbf" points="106,-517.5 264,-517.5 "/>
<text text-anchor="start" x="114" y="-505.5" font-family="Helvetica,sans-Serif" font-size="10.00">+ __construct()</text>
<text text-anchor="start" x="114" y="-494.5" font-family="Helvetica,sans-Serif" font-size="10.00">+ __clone()</text>
<text text-anchor="start" x="114" y="-483.5" font-family="Helvetica,sans-Serif" font-size="10.00">+ __toString()</text>
<text text-anchor="start" x="114" y="-472.5" font-family="Helvetica,sans-Serif" font-size="10.00">+ canBePlaced()</text>
<text text-anchor="start" x="114" y="-461.5" font-family="Helvetica,sans-Serif" font-size="10.00">+ canStackWith()</text>
<text text-anchor="start" x="114" y="-450.5" font-family="Helvetica,sans-Serif" font-size="10.00">+ clearCustomBlockData()</text>
<text text-anchor="start" x="114" y="-439.5" font-family="Helvetica,sans-Serif" font-size="10.00">+ clearCustomName()</text>
<text text-anchor="start" x="114" y="-428.5" font-family="Helvetica,sans-Serif" font-size="10.00">+ clearNamedTag()</text>
<text text-anchor="start" x="114" y="-417.5" font-family="Helvetica,sans-Serif" font-size="10.00">+ computeTypeData()</text>
<text text-anchor="start" x="114" y="-406.5" font-family="Helvetica,sans-Serif" font-size="10.00">+ equals()</text>
<text text-anchor="start" x="114" y="-395.5" font-family="Helvetica,sans-Serif" font-size="10.00">and 42 more...</text>
<text text-anchor="start" x="114" y="-384.5" font-family="Helvetica,sans-Serif" font-size="10.00">+ legacyJsonDeserialize()</text>
<text text-anchor="start" x="114" y="-373.5" font-family="Helvetica,sans-Serif" font-size="10.00">+ nbtDeserialize()</text>
<text text-anchor="start" x="114" y="-362.5" font-family="Helvetica,sans-Serif" font-size="10.00"># describeType()</text>
<text text-anchor="start" x="114" y="-351.5" font-family="Helvetica,sans-Serif" font-size="10.00"># deserializeCompoundTag()</text>
<text text-anchor="start" x="114" y="-340.5" font-family="Helvetica,sans-Serif" font-size="10.00"># serializeCompoundTag()</text>
</a>
</g>
</g>
<!-- Node3&#45;&gt;Node2 -->
<g id="edge2" class="edge">
<title>Node3&#45;&gt;Node2</title>
<path fill="none" stroke="midnightblue" d="M244.89,-324.15C249.11,-314.2 253.16,-304.62 256.9,-295.8"/>
<polygon fill="none" stroke="midnightblue" points="241.66,-322.81 240.98,-333.38 248.1,-325.54 241.66,-322.81"/>
</g>
<!-- Node4 -->
<g id="node4" class="node">
<title>Node4</title>
<g id="a_node4"><a xlink:title=" ">
<polygon fill="white" stroke="#bfbfbf" points="0,-779.5 0,-836.5 94,-836.5 94,-779.5 0,-779.5"/>
<text text-anchor="middle" x="47" y="-824.5" font-family="Helvetica,sans-Serif" font-size="10.00">JsonSerializable</text>
<polyline fill="none" stroke="#bfbfbf" points="0,-817.5 94,-817.5 "/>
<text text-anchor="middle" x="47" y="-805.5" font-family="Helvetica,sans-Serif" font-size="10.00"> </text>
<polyline fill="none" stroke="#bfbfbf" points="0,-798.5 94,-798.5 "/>
<text text-anchor="middle" x="47" y="-786.5" font-family="Helvetica,sans-Serif" font-size="10.00"> </text>
</a>
</g>
</g>
<!-- Node4&#45;&gt;Node3 -->
<g id="edge3" class="edge">
<title>Node4&#45;&gt;Node3</title>
<path fill="none" stroke="midnightblue" d="M62.07,-769.93C78.68,-729.06 106.36,-660.97 131.25,-599.74"/>
<polygon fill="none" stroke="midnightblue" points="58.82,-768.64 58.29,-779.22 65.3,-771.27 58.82,-768.64"/>
</g>
<!-- Node5 -->
<g id="node5" class="node">
<title>Node5</title>
<g id="a_node5"><a xlink:title=" ">
<polygon fill="white" stroke="#bfbfbf" points="112.5,-779.5 112.5,-836.5 155.5,-836.5 155.5,-779.5 112.5,-779.5"/>
<text text-anchor="middle" x="134" y="-824.5" font-family="Helvetica,sans-Serif" font-size="10.00">const</text>
<polyline fill="none" stroke="#bfbfbf" points="112.5,-817.5 155.5,-817.5 "/>
<text text-anchor="middle" x="134" y="-805.5" font-family="Helvetica,sans-Serif" font-size="10.00"> </text>
<polyline fill="none" stroke="#bfbfbf" points="112.5,-798.5 155.5,-798.5 "/>
<text text-anchor="middle" x="134" y="-786.5" font-family="Helvetica,sans-Serif" font-size="10.00"> </text>
</a>
</g>
</g>
<!-- Node5&#45;&gt;Node3 -->
<g id="edge4" class="edge">
<title>Node5&#45;&gt;Node3</title>
<path fill="none" stroke="#404040" d="M131.44,-779.23C128.64,-742.18 125.68,-674.66 135,-618 135.34,-615.95 135.7,-613.88 136.08,-611.81"/>
<polygon fill="none" stroke="#404040" points="136.12,-611.63 133.39,-604.96 138.51,-599.88 141.23,-606.55 136.12,-611.63"/>
<text text-anchor="middle" x="202" y="-665" font-family="Helvetica,sans-Serif" font-size="10.00"> +TAG_BLOCK_ENTITY_TAG</text>
<text text-anchor="middle" x="202" y="-654" font-family="Helvetica,sans-Serif" font-size="10.00">+TAG_DISPLAY</text>
<text text-anchor="middle" x="202" y="-643" font-family="Helvetica,sans-Serif" font-size="10.00">+TAG_DISPLAY_LORE</text>
<text text-anchor="middle" x="202" y="-632" font-family="Helvetica,sans-Serif" font-size="10.00">+TAG_DISPLAY_NAME</text>
<text text-anchor="middle" x="202" y="-621" font-family="Helvetica,sans-Serif" font-size="10.00">+TAG_ENCH</text>
</g>
<!-- Node6 -->
<g id="node6" class="node">
<title>Node6</title>
<g id="a_node6"><a xlink:href="../../de/d67/classpocketmine_1_1nbt_1_1tag_1_1_compound_tag.html" target="_top" xlink:title=" ">
<polygon fill="white" stroke="black" points="203,-691.5 203,-924.5 323,-924.5 323,-691.5 203,-691.5"/>
<text text-anchor="start" x="211" y="-912.5" font-family="Helvetica,sans-Serif" font-size="10.00">pocketmine\nbt\tag</text>
<text text-anchor="middle" x="263" y="-901.5" font-family="Helvetica,sans-Serif" font-size="10.00">\CompoundTag</text>
<polyline fill="none" stroke="black" points="203,-894.5 323,-894.5 "/>
<text text-anchor="middle" x="263" y="-882.5" font-family="Helvetica,sans-Serif" font-size="10.00"> </text>
<polyline fill="none" stroke="black" points="203,-875.5 323,-875.5 "/>
<text text-anchor="start" x="211" y="-863.5" font-family="Helvetica,sans-Serif" font-size="10.00">+ __construct()</text>
<text text-anchor="start" x="211" y="-852.5" font-family="Helvetica,sans-Serif" font-size="10.00">+ __clone()</text>
<text text-anchor="start" x="211" y="-841.5" font-family="Helvetica,sans-Serif" font-size="10.00">+ count()</text>
<text text-anchor="start" x="211" y="-830.5" font-family="Helvetica,sans-Serif" font-size="10.00">+ equals()</text>
<text text-anchor="start" x="211" y="-819.5" font-family="Helvetica,sans-Serif" font-size="10.00">+ getByte()</text>
<text text-anchor="start" x="211" y="-808.5" font-family="Helvetica,sans-Serif" font-size="10.00">+ getByteArray()</text>
<text text-anchor="start" x="211" y="-797.5" font-family="Helvetica,sans-Serif" font-size="10.00">+ getCompoundTag()</text>
<text text-anchor="start" x="211" y="-786.5" font-family="Helvetica,sans-Serif" font-size="10.00">+ getCount()</text>
<text text-anchor="start" x="211" y="-775.5" font-family="Helvetica,sans-Serif" font-size="10.00">+ getDouble()</text>
<text text-anchor="start" x="211" y="-764.5" font-family="Helvetica,sans-Serif" font-size="10.00">+ getFloat()</text>
<text text-anchor="start" x="211" y="-753.5" font-family="Helvetica,sans-Serif" font-size="10.00">and 23 more...</text>
<text text-anchor="start" x="211" y="-742.5" font-family="Helvetica,sans-Serif" font-size="10.00">+ create()</text>
<text text-anchor="start" x="211" y="-731.5" font-family="Helvetica,sans-Serif" font-size="10.00">+ read()</text>
<text text-anchor="start" x="211" y="-720.5" font-family="Helvetica,sans-Serif" font-size="10.00"># getTypeName()</text>
<text text-anchor="start" x="211" y="-709.5" font-family="Helvetica,sans-Serif" font-size="10.00"># makeCopy()</text>
<text text-anchor="start" x="211" y="-698.5" font-family="Helvetica,sans-Serif" font-size="10.00"># stringifyValue()</text>
</a>
</g>
</g>
<!-- Node6&#45;&gt;Node3 -->
<g id="edge5" class="edge">
<title>Node6&#45;&gt;Node3</title>
<path fill="none" stroke="#404040" d="M277.06,-691.4C277.17,-666.87 275.08,-641.35 269,-618 268.43,-615.81 267.82,-613.63 267.18,-611.44"/>
<polygon fill="none" stroke="#404040" points="267.09,-611.17 261.44,-606.69 263.4,-599.75 269.05,-604.23 267.09,-611.17"/>
<text text-anchor="middle" x="321.5" y="-643" font-family="Helvetica,sans-Serif" font-size="10.00"> #$blockEntityTag</text>
</g>
<!-- Node7 -->
<g id="node7" class="node">
<title>Node7</title>
<g id="a_node7"><a xlink:href="../../dc/d26/classpocketmine_1_1nbt_1_1tag_1_1_tag.html" target="_top" xlink:title=" ">
<polygon fill="white" stroke="#bfbfbf" points="37.5,-962.5 37.5,-1129.5 168.5,-1129.5 168.5,-962.5 37.5,-962.5"/>
<text text-anchor="middle" x="103" y="-1117.5" font-family="Helvetica,sans-Serif" font-size="10.00">pocketmine\nbt\tag\Tag</text>
<polyline fill="none" stroke="#bfbfbf" points="37.5,-1110.5 168.5,-1110.5 "/>
<text text-anchor="start" x="45.5" y="-1098.5" font-family="Helvetica,sans-Serif" font-size="10.00"># $cloning</text>
<polyline fill="none" stroke="#bfbfbf" points="37.5,-1091.5 168.5,-1091.5 "/>
<text text-anchor="start" x="45.5" y="-1079.5" font-family="Helvetica,sans-Serif" font-size="10.00">+ __toString()</text>
<text text-anchor="start" x="45.5" y="-1068.5" font-family="Helvetica,sans-Serif" font-size="10.00">+ equals()</text>
<text text-anchor="start" x="45.5" y="-1057.5" font-family="Helvetica,sans-Serif" font-size="10.00">+ getType()</text>
<text text-anchor="start" x="45.5" y="-1046.5" font-family="Helvetica,sans-Serif" font-size="10.00">+ getValue()</text>
<text text-anchor="start" x="45.5" y="-1035.5" font-family="Helvetica,sans-Serif" font-size="10.00">+ safeClone()</text>
<text text-anchor="start" x="45.5" y="-1024.5" font-family="Helvetica,sans-Serif" font-size="10.00">+ toString()</text>
<text text-anchor="start" x="45.5" y="-1013.5" font-family="Helvetica,sans-Serif" font-size="10.00">+ write()</text>
<text text-anchor="start" x="45.5" y="-1002.5" font-family="Helvetica,sans-Serif" font-size="10.00"># getTypeName()</text>
<text text-anchor="start" x="45.5" y="-991.5" font-family="Helvetica,sans-Serif" font-size="10.00"># makeCopy()</text>
<text text-anchor="start" x="45.5" y="-980.5" font-family="Helvetica,sans-Serif" font-size="10.00"># stringifyValue()</text>
<text text-anchor="start" x="45.5" y="-969.5" font-family="Helvetica,sans-Serif" font-size="10.00"># restrictArgCount()</text>
</a>
</g>
</g>
<!-- Node7&#45;&gt;Node6 -->
<g id="edge6" class="edge">
<title>Node7&#45;&gt;Node6</title>
<path fill="none" stroke="midnightblue" d="M164.69,-954.01C177.26,-935.46 190.47,-915.98 202.99,-897.52"/>
<polygon fill="none" stroke="midnightblue" points="161.67,-952.22 158.96,-962.46 167.47,-956.15 161.67,-952.22"/>
</g>
<!-- Node8 -->
<g id="node8" class="node">
<title>Node8</title>
<g id="a_node8"><a xlink:title=" ">
<polygon fill="white" stroke="#bfbfbf" points="187,-1017.5 187,-1074.5 253,-1074.5 253,-1017.5 187,-1017.5"/>
<text text-anchor="middle" x="220" y="-1062.5" font-family="Helvetica,sans-Serif" font-size="10.00">Countable</text>
<polyline fill="none" stroke="#bfbfbf" points="187,-1055.5 253,-1055.5 "/>
<text text-anchor="middle" x="220" y="-1043.5" font-family="Helvetica,sans-Serif" font-size="10.00"> </text>
<polyline fill="none" stroke="#bfbfbf" points="187,-1036.5 253,-1036.5 "/>
<text text-anchor="middle" x="220" y="-1024.5" font-family="Helvetica,sans-Serif" font-size="10.00"> </text>
</a>
</g>
</g>
<!-- Node8&#45;&gt;Node6 -->
<g id="edge7" class="edge">
<title>Node8&#45;&gt;Node6</title>
<path fill="none" stroke="midnightblue" d="M226.81,-1007.62C230.94,-984.97 236.45,-954.73 241.92,-924.69"/>
<polygon fill="none" stroke="midnightblue" points="223.37,-1007 225.02,-1017.47 230.25,-1008.26 223.37,-1007"/>
</g>
<!-- Node9 -->
<g id="node9" class="node">
<title>Node9</title>
<g id="a_node9"><a xlink:title=" ">
<polygon fill="white" stroke="#bfbfbf" points="271.5,-1017.5 271.5,-1074.5 374.5,-1074.5 374.5,-1017.5 271.5,-1017.5"/>
<text text-anchor="middle" x="323" y="-1062.5" font-family="Helvetica,sans-Serif" font-size="10.00">IteratorAggregate</text>
<polyline fill="none" stroke="#bfbfbf" points="271.5,-1055.5 374.5,-1055.5 "/>
<text text-anchor="middle" x="323" y="-1043.5" font-family="Helvetica,sans-Serif" font-size="10.00"> </text>
<polyline fill="none" stroke="#bfbfbf" points="271.5,-1036.5 374.5,-1036.5 "/>
<text text-anchor="middle" x="323" y="-1024.5" font-family="Helvetica,sans-Serif" font-size="10.00"> </text>
</a>
</g>
</g>
<!-- Node9&#45;&gt;Node6 -->
<g id="edge8" class="edge">
<title>Node9&#45;&gt;Node6</title>
<path fill="none" stroke="midnightblue" d="M313.5,-1007.62C307.74,-984.97 300.05,-954.73 292.41,-924.69"/>
<polygon fill="none" stroke="midnightblue" points="310.14,-1008.64 316,-1017.47 316.93,-1006.91 310.14,-1008.64"/>
</g>
<!-- Node10 -->
<g id="node10" class="node">
<title>Node10</title>
<g id="a_node10"><a xlink:href="../../de/d44/interfacepocketmine_1_1item_1_1_food_source_item.html" target="_top" xlink:title=" ">
<polygon fill="white" stroke="#bfbfbf" points="332.5,-438 332.5,-495 513.5,-495 513.5,-438 332.5,-438"/>
<text text-anchor="middle" x="423" y="-483" font-family="Helvetica,sans-Serif" font-size="10.00">pocketmine\item\FoodSourceItem</text>
<polyline fill="none" stroke="#bfbfbf" points="332.5,-476 513.5,-476 "/>
<text text-anchor="middle" x="423" y="-464" font-family="Helvetica,sans-Serif" font-size="10.00"> </text>
<polyline fill="none" stroke="#bfbfbf" points="332.5,-457 513.5,-457 "/>
<text text-anchor="middle" x="423" y="-445" font-family="Helvetica,sans-Serif" font-size="10.00"> </text>
</a>
</g>
</g>
<!-- Node10&#45;&gt;Node2 -->
<g id="edge9" class="edge">
<title>Node10&#45;&gt;Node2</title>
<path fill="none" stroke="midnightblue" d="M399.11,-429.34C375.03,-392.89 337.69,-336.35 310.83,-295.7"/>
<polygon fill="none" stroke="midnightblue" points="396.2,-431.29 404.64,-437.7 402.04,-427.43 396.2,-431.29"/>
</g>
<!-- Node11 -->
<g id="node11" class="node">
<title>Node11</title>
<g id="a_node11"><a xlink:href="../../d2/de2/interfacepocketmine_1_1item_1_1_consumable_item.html" target="_top" xlink:title=" ">
<polygon fill="white" stroke="black" points="523.5,-779.5 523.5,-836.5 708.5,-836.5 708.5,-779.5 523.5,-779.5"/>
<text text-anchor="middle" x="616" y="-824.5" font-family="Helvetica,sans-Serif" font-size="10.00">pocketmine\item\ConsumableItem</text>
<polyline fill="none" stroke="black" points="523.5,-817.5 708.5,-817.5 "/>
<text text-anchor="middle" x="616" y="-805.5" font-family="Helvetica,sans-Serif" font-size="10.00"> </text>
<polyline fill="none" stroke="black" points="523.5,-798.5 708.5,-798.5 "/>
<text text-anchor="start" x="531.5" y="-786.5" font-family="Helvetica,sans-Serif" font-size="10.00">+ getResidue()</text>
</a>
</g>
</g>
<!-- Node11&#45;&gt;Node10 -->
<g id="edge10" class="edge">
<title>Node11&#45;&gt;Node10</title>
<path fill="none" stroke="midnightblue" d="M595.25,-770.49C556.38,-702.12 473.42,-556.18 438.74,-495.19"/>
<polygon fill="none" stroke="midnightblue" points="592.22,-772.25 600.21,-779.22 598.31,-768.79 592.22,-772.25"/>
</g>
<!-- Node12 -->
<g id="node12" class="node">
<title>Node12</title>
<g id="a_node12"><a xlink:href="../../db/d3f/interfacepocketmine_1_1entity_1_1_consumable.html" target="_top" xlink:title=" ">
<polygon fill="white" stroke="black" points="392.5,-1012 392.5,-1080 561.5,-1080 561.5,-1012 392.5,-1012"/>
<text text-anchor="middle" x="477" y="-1068" font-family="Helvetica,sans-Serif" font-size="10.00">pocketmine\entity\Consumable</text>
<polyline fill="none" stroke="black" points="392.5,-1061 561.5,-1061 "/>
<text text-anchor="middle" x="477" y="-1049" font-family="Helvetica,sans-Serif" font-size="10.00"> </text>
<polyline fill="none" stroke="black" points="392.5,-1042 561.5,-1042 "/>
<text text-anchor="start" x="400.5" y="-1030" font-family="Helvetica,sans-Serif" font-size="10.00">+ getAdditionalEffects()</text>
<text text-anchor="start" x="400.5" y="-1019" font-family="Helvetica,sans-Serif" font-size="10.00">+ onConsume()</text>
</a>
</g>
</g>
<!-- Node12&#45;&gt;Node11 -->
<g id="edge11" class="edge">
<title>Node12&#45;&gt;Node11</title>
<path fill="none" stroke="midnightblue" d="M501.72,-1003.03C530,-955.02 575.52,-877.74 599.69,-836.69"/>
<polygon fill="none" stroke="midnightblue" points="498.53,-1001.54 496.47,-1011.94 504.56,-1005.1 498.53,-1001.54"/>
</g>
<!-- Node14 -->
<g id="node14" class="node">
<title>Node14</title>
<g id="a_node14"><a xlink:href="../../df/dfd/interfacepocketmine_1_1entity_1_1_food_source.html" target="_top" xlink:title=" ">
<polygon fill="white" stroke="black" points="341,-768.5 341,-847.5 505,-847.5 505,-768.5 341,-768.5"/>
<text text-anchor="middle" x="423" y="-835.5" font-family="Helvetica,sans-Serif" font-size="10.00">pocketmine\entity\FoodSource</text>
<polyline fill="none" stroke="black" points="341,-828.5 505,-828.5 "/>
<text text-anchor="middle" x="423" y="-816.5" font-family="Helvetica,sans-Serif" font-size="10.00"> </text>
<polyline fill="none" stroke="black" points="341,-809.5 505,-809.5 "/>
<text text-anchor="start" x="349" y="-797.5" font-family="Helvetica,sans-Serif" font-size="10.00">+ getFoodRestore()</text>
<text text-anchor="start" x="349" y="-786.5" font-family="Helvetica,sans-Serif" font-size="10.00">+ getSaturationRestore()</text>
<text text-anchor="start" x="349" y="-775.5" font-family="Helvetica,sans-Serif" font-size="10.00">+ requiresHunger()</text>
</a>
</g>
</g>
<!-- Node12&#45;&gt;Node14 -->
<g id="edge14" class="edge">
<title>Node12&#45;&gt;Node14</title>
<path fill="none" stroke="midnightblue" d="M467.18,-1002.1C457.11,-958.07 441.57,-890.16 431.86,-847.72"/>
<polygon fill="none" stroke="midnightblue" points="463.79,-1002.97 469.43,-1011.94 470.62,-1001.41 463.79,-1002.97"/>
</g>
<!-- Node13 -->
<g id="node13" class="node">
<title>Node13</title>
<g id="a_node13"><a xlink:href="../../d4/d35/interfacepocketmine_1_1item_1_1_releasable.html" target="_top" xlink:title=" ">
<polygon fill="white" stroke="black" points="580,-1017.5 580,-1074.5 736,-1074.5 736,-1017.5 580,-1017.5"/>
<text text-anchor="middle" x="658" y="-1062.5" font-family="Helvetica,sans-Serif" font-size="10.00">pocketmine\item\Releasable</text>
<polyline fill="none" stroke="black" points="580,-1055.5 736,-1055.5 "/>
<text text-anchor="middle" x="658" y="-1043.5" font-family="Helvetica,sans-Serif" font-size="10.00"> </text>
<polyline fill="none" stroke="black" points="580,-1036.5 736,-1036.5 "/>
<text text-anchor="start" x="588" y="-1024.5" font-family="Helvetica,sans-Serif" font-size="10.00">+ canStartUsingItem()</text>
</a>
</g>
</g>
<!-- Node13&#45;&gt;Node11 -->
<g id="edge12" class="edge">
<title>Node13&#45;&gt;Node11</title>
<path fill="none" stroke="midnightblue" d="M651.34,-1007.57C642.88,-960.03 628.47,-879.09 620.93,-836.72"/>
<polygon fill="none" stroke="midnightblue" points="647.9,-1008.23 653.1,-1017.47 654.79,-1007.01 647.9,-1008.23"/>
</g>
<!-- Node14&#45;&gt;Node10 -->
<g id="edge13" class="edge">
<title>Node14&#45;&gt;Node10</title>
<path fill="none" stroke="midnightblue" d="M423,-758.19C423,-685.95 423,-552.94 423,-495.32"/>
<polygon fill="none" stroke="midnightblue" points="419.5,-758.39 423,-768.39 426.5,-758.39 419.5,-758.39"/>
</g>
</g>
</svg>
