<?xml version="1.0" encoding="UTF-8" standalone="no"?>
<!DOCTYPE svg PUBLIC "-//W3C//DTD SVG 1.1//EN"
 "http://www.w3.org/Graphics/SVG/1.1/DTD/svg11.dtd">
<!-- Generated by graphviz version 2.43.0 (0)
 -->
<!-- Title: pocketmine\item\HoneyBottle Pages: 1 -->
<svg width="744pt" height="1094pt"
 viewBox="0.00 0.00 744.00 1094.00" xmlns="http://www.w3.org/2000/svg" xmlns:xlink="http://www.w3.org/1999/xlink">
<g id="graph0" class="graph" transform="scale(1 1) rotate(0) translate(4 1090)">
<title>pocketmine\item\HoneyBottle</title>
<polygon fill="white" stroke="transparent" points="-4,4 -4,-1090 740,-1090 740,4 -4,4"/>
<!-- Node1 -->
<g id="node1" class="node">
<title>Node1</title>
<g id="a_node1"><a xlink:title=" ">
<polygon fill="#bfbfbf" stroke="black" points="196.5,-0.5 196.5,-112.5 359.5,-112.5 359.5,-0.5 196.5,-0.5"/>
<text text-anchor="middle" x="278" y="-100.5" font-family="Helvetica,sans-Serif" font-size="10.00">pocketmine\item\HoneyBottle</text>
<polyline fill="none" stroke="black" points="196.5,-93.5 359.5,-93.5 "/>
<text text-anchor="middle" x="278" y="-81.5" font-family="Helvetica,sans-Serif" font-size="10.00"> </text>
<polyline fill="none" stroke="black" points="196.5,-74.5 359.5,-74.5 "/>
<text text-anchor="start" x="204.5" y="-62.5" font-family="Helvetica,sans-Serif" font-size="10.00">+ getFoodRestore()</text>
<text text-anchor="start" x="204.5" y="-51.5" font-family="Helvetica,sans-Serif" font-size="10.00">+ getMaxStackSize()</text>
<text text-anchor="start" x="204.5" y="-40.5" font-family="Helvetica,sans-Serif" font-size="10.00">+ getResidue()</text>
<text text-anchor="start" x="204.5" y="-29.5" font-family="Helvetica,sans-Serif" font-size="10.00">+ getSaturationRestore()</text>
<text text-anchor="start" x="204.5" y="-18.5" font-family="Helvetica,sans-Serif" font-size="10.00">+ onConsume()</text>
<text text-anchor="start" x="204.5" y="-7.5" font-family="Helvetica,sans-Serif" font-size="10.00">+ requiresHunger()</text>
</a>
</g>
</g>
<!-- Node2 -->
<g id="node2" class="node">
<title>Node2</title>
<g id="a_node2"><a xlink:href="../../dc/de1/classpocketmine_1_1item_1_1_food.html" target="_top" xlink:title=" ">
<polygon fill="white" stroke="#bfbfbf" points="211,-150.5 211,-251.5 345,-251.5 345,-150.5 211,-150.5"/>
<text text-anchor="middle" x="278" y="-239.5" font-family="Helvetica,sans-Serif" font-size="10.00">pocketmine\item\Food</text>
<polyline fill="none" stroke="#bfbfbf" points="211,-232.5 345,-232.5 "/>
<text text-anchor="middle" x="278" y="-220.5" font-family="Helvetica,sans-Serif" font-size="10.00"> </text>
<polyline fill="none" stroke="#bfbfbf" points="211,-213.5 345,-213.5 "/>
<text text-anchor="start" x="219" y="-201.5" font-family="Helvetica,sans-Serif" font-size="10.00">+ canStartUsingItem()</text>
<text text-anchor="start" x="219" y="-190.5" font-family="Helvetica,sans-Serif" font-size="10.00">+ getAdditionalEffects()</text>
<text text-anchor="start" x="219" y="-179.5" font-family="Helvetica,sans-Serif" font-size="10.00">+ getResidue()</text>
<text text-anchor="start" x="219" y="-168.5" font-family="Helvetica,sans-Serif" font-size="10.00">+ onConsume()</text>
<text text-anchor="start" x="219" y="-157.5" font-family="Helvetica,sans-Serif" font-size="10.00">+ requiresHunger()</text>
</a>
</g>
</g>
<!-- Node2&#45;&gt;Node1 -->
<g id="edge1" class="edge">
<title>Node2&#45;&gt;Node1</title>
<path fill="none" stroke="midnightblue" d="M278,-140.11C278,-131.1 278,-121.83 278,-112.91"/>
<polygon fill="none" stroke="midnightblue" points="274.5,-140.16 278,-150.16 281.5,-140.16 274.5,-140.16"/>
</g>
<!-- Node3 -->
<g id="node3" class="node">
<title>Node3</title>
<g id="a_node3"><a xlink:href="../../d5/d8a/classpocketmine_1_1item_1_1_item.html" target="_top" xlink:title=" ">
<polygon fill="white" stroke="#bfbfbf" points="106,-289.5 106,-555.5 264,-555.5 264,-289.5 106,-289.5"/>
<text text-anchor="middle" x="185" y="-543.5" font-family="Helvetica,sans-Serif" font-size="10.00">pocketmine\item\Item</text>
<polyline fill="none" stroke="#bfbfbf" points="106,-536.5 264,-536.5 "/>
<text text-anchor="start" x="114" y="-524.5" font-family="Helvetica,sans-Serif" font-size="10.00"># $canDestroy</text>
<text text-anchor="start" x="114" y="-513.5" font-family="Helvetica,sans-Serif" font-size="10.00"># $canPlaceOn</text>
<text text-anchor="start" x="114" y="-502.5" font-family="Helvetica,sans-Serif" font-size="10.00"># $count</text>
<text text-anchor="start" x="114" y="-491.5" font-family="Helvetica,sans-Serif" font-size="10.00"># $customName</text>
<text text-anchor="start" x="114" y="-480.5" font-family="Helvetica,sans-Serif" font-size="10.00"># $lore</text>
<polyline fill="none" stroke="#bfbfbf" points="106,-473.5 264,-473.5 "/>
<text text-anchor="start" x="114" y="-461.5" font-family="Helvetica,sans-Serif" font-size="10.00">+ __construct()</text>
<text text-anchor="start" x="114" y="-450.5" font-family="Helvetica,sans-Serif" font-size="10.00">+ __clone()</text>
<text text-anchor="start" x="114" y="-439.5" font-family="Helvetica,sans-Serif" font-size="10.00">+ __toString()</text>
<text text-anchor="start" x="114" y="-428.5" font-family="Helvetica,sans-Serif" font-size="10.00">+ canBePlaced()</text>
<text text-anchor="start" x="114" y="-417.5" font-family="Helvetica,sans-Serif" font-size="10.00">+ canStackWith()</text>
<text text-anchor="start" x="114" y="-406.5" font-family="Helvetica,sans-Serif" font-size="10.00">+ clearCustomBlockData()</text>
<text text-anchor="start" x="114" y="-395.5" font-family="Helvetica,sans-Serif" font-size="10.00">+ clearCustomName()</text>
<text text-anchor="start" x="114" y="-384.5" font-family="Helvetica,sans-Serif" font-size="10.00">+ clearNamedTag()</text>
<text text-anchor="start" x="114" y="-373.5" font-family="Helvetica,sans-Serif" font-size="10.00">+ computeTypeData()</text>
<text text-anchor="start" x="114" y="-362.5" font-family="Helvetica,sans-Serif" font-size="10.00">+ equals()</text>
<text text-anchor="start" x="114" y="-351.5" font-family="Helvetica,sans-Serif" font-size="10.00">and 42 more...</text>
<text text-anchor="start" x="114" y="-340.5" font-family="Helvetica,sans-Serif" font-size="10.00">+ legacyJsonDeserialize()</text>
<text text-anchor="start" x="114" y="-329.5" font-family="Helvetica,sans-Serif" font-size="10.00">+ nbtDeserialize()</text>
<text text-anchor="start" x="114" y="-318.5" font-family="Helvetica,sans-Serif" font-size="10.00"># describeType()</text>
<text text-anchor="start" x="114" y="-307.5" font-family="Helvetica,sans-Serif" font-size="10.00"># deserializeCompoundTag()</text>
<text text-anchor="start" x="114" y="-296.5" font-family="Helvetica,sans-Serif" font-size="10.00"># serializeCompoundTag()</text>
</a>
</g>
</g>
<!-- Node3&#45;&gt;Node2 -->
<g id="edge2" class="edge">
<title>Node3&#45;&gt;Node2</title>
<path fill="none" stroke="midnightblue" d="M244.89,-280.15C249.11,-270.2 253.16,-260.62 256.9,-251.8"/>
<polygon fill="none" stroke="midnightblue" points="241.66,-278.81 240.98,-289.38 248.1,-281.54 241.66,-278.81"/>
</g>
<!-- Node4 -->
<g id="node4" class="node">
<title>Node4</title>
<g id="a_node4"><a xlink:title=" ">
<polygon fill="white" stroke="#bfbfbf" points="0,-735.5 0,-792.5 94,-792.5 94,-735.5 0,-735.5"/>
<text text-anchor="middle" x="47" y="-780.5" font-family="Helvetica,sans-Serif" font-size="10.00">JsonSerializable</text>
<polyline fill="none" stroke="#bfbfbf" points="0,-773.5 94,-773.5 "/>
<text text-anchor="middle" x="47" y="-761.5" font-family="Helvetica,sans-Serif" font-size="10.00"> </text>
<polyline fill="none" stroke="#bfbfbf" points="0,-754.5 94,-754.5 "/>
<text text-anchor="middle" x="47" y="-742.5" font-family="Helvetica,sans-Serif" font-size="10.00"> </text>
</a>
</g>
</g>
<!-- Node4&#45;&gt;Node3 -->
<g id="edge3" class="edge">
<title>Node4&#45;&gt;Node3</title>
<path fill="none" stroke="midnightblue" d="M62.07,-725.93C78.68,-685.06 106.36,-616.97 131.25,-555.74"/>
<polygon fill="none" stroke="midnightblue" points="58.82,-724.64 58.29,-735.22 65.3,-727.27 58.82,-724.64"/>
</g>
<!-- Node5 -->
<g id="node5" class="node">
<title>Node5</title>
<g id="a_node5"><a xlink:title=" ">
<polygon fill="white" stroke="#bfbfbf" points="112.5,-735.5 112.5,-792.5 155.5,-792.5 155.5,-735.5 112.5,-735.5"/>
<text text-anchor="middle" x="134" y="-780.5" font-family="Helvetica,sans-Serif" font-size="10.00">const</text>
<polyline fill="none" stroke="#bfbfbf" points="112.5,-773.5 155.5,-773.5 "/>
<text text-anchor="middle" x="134" y="-761.5" font-family="Helvetica,sans-Serif" font-size="10.00"> </text>
<polyline fill="none" stroke="#bfbfbf" points="112.5,-754.5 155.5,-754.5 "/>
<text text-anchor="middle" x="134" y="-742.5" font-family="Helvetica,sans-Serif" font-size="10.00"> </text>
</a>
</g>
</g>
<!-- Node5&#45;&gt;Node3 -->
<g id="edge4" class="edge">
<title>Node5&#45;&gt;Node3</title>
<path fill="none" stroke="#404040" d="M131.44,-735.23C128.64,-698.18 125.68,-630.66 135,-574 135.34,-571.95 135.7,-569.88 136.08,-567.81"/>
<polygon fill="none" stroke="#404040" points="136.12,-567.63 133.39,-560.96 138.51,-555.88 141.23,-562.55 136.12,-567.63"/>
<text text-anchor="middle" x="202" y="-621" font-family="Helvetica,sans-Serif" font-size="10.00"> +TAG_BLOCK_ENTITY_TAG</text>
<text text-anchor="middle" x="202" y="-610" font-family="Helvetica,sans-Serif" font-size="10.00">+TAG_DISPLAY</text>
<text text-anchor="middle" x="202" y="-599" font-family="Helvetica,sans-Serif" font-size="10.00">+TAG_DISPLAY_LORE</text>
<text text-anchor="middle" x="202" y="-588" font-family="Helvetica,sans-Serif" font-size="10.00">+TAG_DISPLAY_NAME</text>
<text text-anchor="middle" x="202" y="-577" font-family="Helvetica,sans-Serif" font-size="10.00">+TAG_ENCH</text>
</g>
<!-- Node6 -->
<g id="node6" class="node">
<title>Node6</title>
<g id="a_node6"><a xlink:href="../../de/d67/classpocketmine_1_1nbt_1_1tag_1_1_compound_tag.html" target="_top" xlink:title=" ">
<polygon fill="white" stroke="black" points="203,-647.5 203,-880.5 323,-880.5 323,-647.5 203,-647.5"/>
<text text-anchor="start" x="211" y="-868.5" font-family="Helvetica,sans-Serif" font-size="10.00">pocketmine\nbt\tag</text>
<text text-anchor="middle" x="263" y="-857.5" font-family="Helvetica,sans-Serif" font-size="10.00">\CompoundTag</text>
<polyline fill="none" stroke="black" points="203,-850.5 323,-850.5 "/>
<text text-anchor="middle" x="263" y="-838.5" font-family="Helvetica,sans-Serif" font-size="10.00"> </text>
<polyline fill="none" stroke="black" points="203,-831.5 323,-831.5 "/>
<text text-anchor="start" x="211" y="-819.5" font-family="Helvetica,sans-Serif" font-size="10.00">+ __construct()</text>
<text text-anchor="start" x="211" y="-808.5" font-family="Helvetica,sans-Serif" font-size="10.00">+ __clone()</text>
<text text-anchor="start" x="211" y="-797.5" font-family="Helvetica,sans-Serif" font-size="10.00">+ count()</text>
<text text-anchor="start" x="211" y="-786.5" font-family="Helvetica,sans-Serif" font-size="10.00">+ equals()</text>
<text text-anchor="start" x="211" y="-775.5" font-family="Helvetica,sans-Serif" font-size="10.00">+ getByte()</text>
<text text-anchor="start" x="211" y="-764.5" font-family="Helvetica,sans-Serif" font-size="10.00">+ getByteArray()</text>
<text text-anchor="start" x="211" y="-753.5" font-family="Helvetica,sans-Serif" font-size="10.00">+ getCompoundTag()</text>
<text text-anchor="start" x="211" y="-742.5" font-family="Helvetica,sans-Serif" font-size="10.00">+ getCount()</text>
<text text-anchor="start" x="211" y="-731.5" font-family="Helvetica,sans-Serif" font-size="10.00">+ getDouble()</text>
<text text-anchor="start" x="211" y="-720.5" font-family="Helvetica,sans-Serif" font-size="10.00">+ getFloat()</text>
<text text-anchor="start" x="211" y="-709.5" font-family="Helvetica,sans-Serif" font-size="10.00">and 23 more...</text>
<text text-anchor="start" x="211" y="-698.5" font-family="Helvetica,sans-Serif" font-size="10.00">+ create()</text>
<text text-anchor="start" x="211" y="-687.5" font-family="Helvetica,sans-Serif" font-size="10.00">+ read()</text>
<text text-anchor="start" x="211" y="-676.5" font-family="Helvetica,sans-Serif" font-size="10.00"># getTypeName()</text>
<text text-anchor="start" x="211" y="-665.5" font-family="Helvetica,sans-Serif" font-size="10.00"># makeCopy()</text>
<text text-anchor="start" x="211" y="-654.5" font-family="Helvetica,sans-Serif" font-size="10.00"># stringifyValue()</text>
</a>
</g>
</g>
<!-- Node6&#45;&gt;Node3 -->
<g id="edge5" class="edge">
<title>Node6&#45;&gt;Node3</title>
<path fill="none" stroke="#404040" d="M277.06,-647.4C277.17,-622.87 275.08,-597.35 269,-574 268.43,-571.81 267.82,-569.63 267.18,-567.44"/>
<polygon fill="none" stroke="#404040" points="267.09,-567.17 261.44,-562.69 263.4,-555.75 269.05,-560.23 267.09,-567.17"/>
<text text-anchor="middle" x="321.5" y="-599" font-family="Helvetica,sans-Serif" font-size="10.00"> #$blockEntityTag</text>
</g>
<!-- Node7 -->
<g id="node7" class="node">
<title>Node7</title>
<g id="a_node7"><a xlink:href="../../dc/d26/classpocketmine_1_1nbt_1_1tag_1_1_tag.html" target="_top" xlink:title=" ">
<polygon fill="white" stroke="#bfbfbf" points="37.5,-918.5 37.5,-1085.5 168.5,-1085.5 168.5,-918.5 37.5,-918.5"/>
<text text-anchor="middle" x="103" y="-1073.5" font-family="Helvetica,sans-Serif" font-size="10.00">pocketmine\nbt\tag\Tag</text>
<polyline fill="none" stroke="#bfbfbf" points="37.5,-1066.5 168.5,-1066.5 "/>
<text text-anchor="start" x="45.5" y="-1054.5" font-family="Helvetica,sans-Serif" font-size="10.00"># $cloning</text>
<polyline fill="none" stroke="#bfbfbf" points="37.5,-1047.5 168.5,-1047.5 "/>
<text text-anchor="start" x="45.5" y="-1035.5" font-family="Helvetica,sans-Serif" font-size="10.00">+ __toString()</text>
<text text-anchor="start" x="45.5" y="-1024.5" font-family="Helvetica,sans-Serif" font-size="10.00">+ equals()</text>
<text text-anchor="start" x="45.5" y="-1013.5" font-family="Helvetica,sans-Serif" font-size="10.00">+ getType()</text>
<text text-anchor="start" x="45.5" y="-1002.5" font-family="Helvetica,sans-Serif" font-size="10.00">+ getValue()</text>
<text text-anchor="start" x="45.5" y="-991.5" font-family="Helvetica,sans-Serif" font-size="10.00">+ safeClone()</text>
<text text-anchor="start" x="45.5" y="-980.5" font-family="Helvetica,sans-Serif" font-size="10.00">+ toString()</text>
<text text-anchor="start" x="45.5" y="-969.5" font-family="Helvetica,sans-Serif" font-size="10.00">+ write()</text>
<text text-anchor="start" x="45.5" y="-958.5" font-family="Helvetica,sans-Serif" font-size="10.00"># getTypeName()</text>
<text text-anchor="start" x="45.5" y="-947.5" font-family="Helvetica,sans-Serif" font-size="10.00"># makeCopy()</text>
<text text-anchor="start" x="45.5" y="-936.5" font-family="Helvetica,sans-Serif" font-size="10.00"># stringifyValue()</text>
<text text-anchor="start" x="45.5" y="-925.5" font-family="Helvetica,sans-Serif" font-size="10.00"># restrictArgCount()</text>
</a>
</g>
</g>
<!-- Node7&#45;&gt;Node6 -->
<g id="edge6" class="edge">
<title>Node7&#45;&gt;Node6</title>
<path fill="none" stroke="midnightblue" d="M164.69,-910.01C177.26,-891.46 190.47,-871.98 202.99,-853.52"/>
<polygon fill="none" stroke="midnightblue" points="161.67,-908.22 158.96,-918.46 167.47,-912.15 161.67,-908.22"/>
</g>
<!-- Node8 -->
<g id="node8" class="node">
<title>Node8</title>
<g id="a_node8"><a xlink:title=" ">
<polygon fill="white" stroke="#bfbfbf" points="187,-973.5 187,-1030.5 253,-1030.5 253,-973.5 187,-973.5"/>
<text text-anchor="middle" x="220" y="-1018.5" font-family="Helvetica,sans-Serif" font-size="10.00">Countable</text>
<polyline fill="none" stroke="#bfbfbf" points="187,-1011.5 253,-1011.5 "/>
<text text-anchor="middle" x="220" y="-999.5" font-family="Helvetica,sans-Serif" font-size="10.00"> </text>
<polyline fill="none" stroke="#bfbfbf" points="187,-992.5 253,-992.5 "/>
<text text-anchor="middle" x="220" y="-980.5" font-family="Helvetica,sans-Serif" font-size="10.00"> </text>
</a>
</g>
</g>
<!-- Node8&#45;&gt;Node6 -->
<g id="edge7" class="edge">
<title>Node8&#45;&gt;Node6</title>
<path fill="none" stroke="midnightblue" d="M226.81,-963.62C230.94,-940.97 236.45,-910.73 241.92,-880.69"/>
<polygon fill="none" stroke="midnightblue" points="223.37,-963 225.02,-973.47 230.25,-964.26 223.37,-963"/>
</g>
<!-- Node9 -->
<g id="node9" class="node">
<title>Node9</title>
<g id="a_node9"><a xlink:title=" ">
<polygon fill="white" stroke="#bfbfbf" points="271.5,-973.5 271.5,-1030.5 374.5,-1030.5 374.5,-973.5 271.5,-973.5"/>
<text text-anchor="middle" x="323" y="-1018.5" font-family="Helvetica,sans-Serif" font-size="10.00">IteratorAggregate</text>
<polyline fill="none" stroke="#bfbfbf" points="271.5,-1011.5 374.5,-1011.5 "/>
<text text-anchor="middle" x="323" y="-999.5" font-family="Helvetica,sans-Serif" font-size="10.00"> </text>
<polyline fill="none" stroke="#bfbfbf" points="271.5,-992.5 374.5,-992.5 "/>
<text text-anchor="middle" x="323" y="-980.5" font-family="Helvetica,sans-Serif" font-size="10.00"> </text>
</a>
</g>
</g>
<!-- Node9&#45;&gt;Node6 -->
<g id="edge8" class="edge">
<title>Node9&#45;&gt;Node6</title>
<path fill="none" stroke="midnightblue" d="M313.5,-963.62C307.74,-940.97 300.05,-910.73 292.41,-880.69"/>
<polygon fill="none" stroke="midnightblue" points="310.14,-964.64 316,-973.47 316.93,-962.91 310.14,-964.64"/>
</g>
<!-- Node10 -->
<g id="node10" class="node">
<title>Node10</title>
<g id="a_node10"><a xlink:href="../../de/d44/interfacepocketmine_1_1item_1_1_food_source_item.html" target="_top" xlink:title=" ">
<polygon fill="white" stroke="#bfbfbf" points="332.5,-394 332.5,-451 513.5,-451 513.5,-394 332.5,-394"/>
<text text-anchor="middle" x="423" y="-439" font-family="Helvetica,sans-Serif" font-size="10.00">pocketmine\item\FoodSourceItem</text>
<polyline fill="none" stroke="#bfbfbf" points="332.5,-432 513.5,-432 "/>
<text text-anchor="middle" x="423" y="-420" font-family="Helvetica,sans-Serif" font-size="10.00"> </text>
<polyline fill="none" stroke="#bfbfbf" points="332.5,-413 513.5,-413 "/>
<text text-anchor="middle" x="423" y="-401" font-family="Helvetica,sans-Serif" font-size="10.00"> </text>
</a>
</g>
</g>
<!-- Node10&#45;&gt;Node2 -->
<g id="edge9" class="edge">
<title>Node10&#45;&gt;Node2</title>
<path fill="none" stroke="midnightblue" d="M399.11,-385.34C375.03,-348.89 337.69,-292.35 310.83,-251.7"/>
<polygon fill="none" stroke="midnightblue" points="396.2,-387.29 404.64,-393.7 402.04,-383.43 396.2,-387.29"/>
</g>
<!-- Node11 -->
<g id="node11" class="node">
<title>Node11</title>
<g id="a_node11"><a xlink:href="../../d2/de2/interfacepocketmine_1_1item_1_1_consumable_item.html" target="_top" xlink:title=" ">
<polygon fill="white" stroke="black" points="523.5,-735.5 523.5,-792.5 708.5,-792.5 708.5,-735.5 523.5,-735.5"/>
<text text-anchor="middle" x="616" y="-780.5" font-family="Helvetica,sans-Serif" font-size="10.00">pocketmine\item\ConsumableItem</text>
<polyline fill="none" stroke="black" points="523.5,-773.5 708.5,-773.5 "/>
<text text-anchor="middle" x="616" y="-761.5" font-family="Helvetica,sans-Serif" font-size="10.00"> </text>
<polyline fill="none" stroke="black" points="523.5,-754.5 708.5,-754.5 "/>
<text text-anchor="start" x="531.5" y="-742.5" font-family="Helvetica,sans-Serif" font-size="10.00">+ getResidue()</text>
</a>
</g>
</g>
<!-- Node11&#45;&gt;Node10 -->
<g id="edge10" class="edge">
<title>Node11&#45;&gt;Node10</title>
<path fill="none" stroke="midnightblue" d="M595.25,-726.49C556.38,-658.12 473.42,-512.18 438.74,-451.19"/>
<polygon fill="none" stroke="midnightblue" points="592.22,-728.25 600.21,-735.22 598.31,-724.79 592.22,-728.25"/>
</g>
<!-- Node12 -->
<g id="node12" class="node">
<title>Node12</title>
<g id="a_node12"><a xlink:href="../../db/d3f/interfacepocketmine_1_1entity_1_1_consumable.html" target="_top" xlink:title=" ">
<polygon fill="white" stroke="black" points="392.5,-968 392.5,-1036 561.5,-1036 561.5,-968 392.5,-968"/>
<text text-anchor="middle" x="477" y="-1024" font-family="Helvetica,sans-Serif" font-size="10.00">pocketmine\entity\Consumable</text>
<polyline fill="none" stroke="black" points="392.5,-1017 561.5,-1017 "/>
<text text-anchor="middle" x="477" y="-1005" font-family="Helvetica,sans-Serif" font-size="10.00"> </text>
<polyline fill="none" stroke="black" points="392.5,-998 561.5,-998 "/>
<text text-anchor="start" x="400.5" y="-986" font-family="Helvetica,sans-Serif" font-size="10.00">+ getAdditionalEffects()</text>
<text text-anchor="start" x="400.5" y="-975" font-family="Helvetica,sans-Serif" font-size="10.00">+ onConsume()</text>
</a>
</g>
</g>
<!-- Node12&#45;&gt;Node11 -->
<g id="edge11" class="edge">
<title>Node12&#45;&gt;Node11</title>
<path fill="none" stroke="midnightblue" d="M501.72,-959.03C530,-911.02 575.52,-833.74 599.69,-792.69"/>
<polygon fill="none" stroke="midnightblue" points="498.53,-957.54 496.47,-967.94 504.56,-961.1 498.53,-957.54"/>
</g>
<!-- Node14 -->
<g id="node14" class="node">
<title>Node14</title>
<g id="a_node14"><a xlink:href="../../df/dfd/interfacepocketmine_1_1entity_1_1_food_source.html" target="_top" xlink:title=" ">
<polygon fill="white" stroke="black" points="341,-724.5 341,-803.5 505,-803.5 505,-724.5 341,-724.5"/>
<text text-anchor="middle" x="423" y="-791.5" font-family="Helvetica,sans-Serif" font-size="10.00">pocketmine\entity\FoodSource</text>
<polyline fill="none" stroke="black" points="341,-784.5 505,-784.5 "/>
<text text-anchor="middle" x="423" y="-772.5" font-family="Helvetica,sans-Serif" font-size="10.00"> </text>
<polyline fill="none" stroke="black" points="341,-765.5 505,-765.5 "/>
<text text-anchor="start" x="349" y="-753.5" font-family="Helvetica,sans-Serif" font-size="10.00">+ getFoodRestore()</text>
<text text-anchor="start" x="349" y="-742.5" font-family="Helvetica,sans-Serif" font-size="10.00">+ getSaturationRestore()</text>
<text text-anchor="start" x="349" y="-731.5" font-family="Helvetica,sans-Serif" font-size="10.00">+ requiresHunger()</text>
</a>
</g>
</g>
<!-- Node12&#45;&gt;Node14 -->
<g id="edge14" class="edge">
<title>Node12&#45;&gt;Node14</title>
<path fill="none" stroke="midnightblue" d="M467.18,-958.1C457.11,-914.07 441.57,-846.16 431.86,-803.72"/>
<polygon fill="none" stroke="midnightblue" points="463.79,-958.97 469.43,-967.94 470.62,-957.41 463.79,-958.97"/>
</g>
<!-- Node13 -->
<g id="node13" class="node">
<title>Node13</title>
<g id="a_node13"><a xlink:href="../../d4/d35/interfacepocketmine_1_1item_1_1_releasable.html" target="_top" xlink:title=" ">
<polygon fill="white" stroke="black" points="580,-973.5 580,-1030.5 736,-1030.5 736,-973.5 580,-973.5"/>
<text text-anchor="middle" x="658" y="-1018.5" font-family="Helvetica,sans-Serif" font-size="10.00">pocketmine\item\Releasable</text>
<polyline fill="none" stroke="black" points="580,-1011.5 736,-1011.5 "/>
<text text-anchor="middle" x="658" y="-999.5" font-family="Helvetica,sans-Serif" font-size="10.00"> </text>
<polyline fill="none" stroke="black" points="580,-992.5 736,-992.5 "/>
<text text-anchor="start" x="588" y="-980.5" font-family="Helvetica,sans-Serif" font-size="10.00">+ canStartUsingItem()</text>
</a>
</g>
</g>
<!-- Node13&#45;&gt;Node11 -->
<g id="edge12" class="edge">
<title>Node13&#45;&gt;Node11</title>
<path fill="none" stroke="midnightblue" d="M651.34,-963.57C642.88,-916.03 628.47,-835.09 620.93,-792.72"/>
<polygon fill="none" stroke="midnightblue" points="647.9,-964.23 653.1,-973.47 654.79,-963.01 647.9,-964.23"/>
</g>
<!-- Node14&#45;&gt;Node10 -->
<g id="edge13" class="edge">
<title>Node14&#45;&gt;Node10</title>
<path fill="none" stroke="midnightblue" d="M423,-714.19C423,-641.95 423,-508.94 423,-451.32"/>
<polygon fill="none" stroke="midnightblue" points="419.5,-714.39 423,-724.39 426.5,-714.39 419.5,-714.39"/>
</g>
</g>
</svg>
