<?xml version="1.0" encoding="UTF-8" standalone="no"?>
<!DOCTYPE svg PUBLIC "-//W3C//DTD SVG 1.1//EN"
 "http://www.w3.org/Graphics/SVG/1.1/DTD/svg11.dtd">
<!-- Generated by graphviz version 2.43.0 (0)
 -->
<!-- Title: pocketmine\network\mcpe\ChunkRequestTask Pages: 1 -->
<svg width="324pt" height="546pt"
 viewBox="0.00 0.00 324.00 546.00" xmlns="http://www.w3.org/2000/svg" xmlns:xlink="http://www.w3.org/1999/xlink">
<g id="graph0" class="graph" transform="scale(1 1) rotate(0) translate(4 542)">
<title>pocketmine\network\mcpe\ChunkRequestTask</title>
<!-- Node1 -->
<g id="Node000001" class="node">
<title>Node1</title>
<g id="a_Node000001"><a xlink:title=" ">
<polygon fill="#999999" stroke="transparent" points="221,-120 85,-120 85,0 221,0 221,-120"/>
<text text-anchor="start" x="90" y="-108" font-family="Helvetica,sans-Serif" font-size="10.00">pocketmine\network</text>
<text text-anchor="start" x="90" y="-97" font-family="Helvetica,sans-Serif" font-size="10.00">\mcpe\ChunkRequestTask</text>
<text text-anchor="start" x="98.5" y="-82" font-family="Helvetica,sans-Serif" font-size="10.00">#</text>
<text text-anchor="start" x="121" y="-82" font-family="Helvetica,sans-Serif" font-size="10.00">$chunk</text>
<text text-anchor="start" x="98.5" y="-67" font-family="Helvetica,sans-Serif" font-size="10.00">#</text>
<text text-anchor="start" x="121" y="-67" font-family="Helvetica,sans-Serif" font-size="10.00">$chunkX</text>
<text text-anchor="start" x="98.5" y="-52" font-family="Helvetica,sans-Serif" font-size="10.00">#</text>
<text text-anchor="start" x="121" y="-52" font-family="Helvetica,sans-Serif" font-size="10.00">$chunkZ</text>
<text text-anchor="start" x="98.5" y="-37" font-family="Helvetica,sans-Serif" font-size="10.00">+</text>
<text text-anchor="start" x="121" y="-37" font-family="Helvetica,sans-Serif" font-size="10.00">__construct()</text>
<text text-anchor="start" x="98.5" y="-22" font-family="Helvetica,sans-Serif" font-size="10.00">+</text>
<text text-anchor="start" x="121" y="-22" font-family="Helvetica,sans-Serif" font-size="10.00">onCompletion()</text>
<text text-anchor="start" x="98.5" y="-7" font-family="Helvetica,sans-Serif" font-size="10.00">+</text>
<text text-anchor="start" x="121" y="-7" font-family="Helvetica,sans-Serif" font-size="10.00">onRun()</text>
<polygon fill="#666666" stroke="#666666" points="85,-92 85,-92 221,-92 221,-92 85,-92"/>
<polygon fill="#666666" stroke="#666666" points="85,-47 85,-47 119,-47 119,-47 85,-47"/>
<polygon fill="#666666" stroke="#666666" points="119,-47 119,-47 221,-47 221,-47 119,-47"/>
<polygon fill="none" stroke="#666666" points="85,0 85,-120 221,-120 221,0 85,0"/>
</a>
</g>
</g>
<!-- Node2 -->
<g id="Node000002" class="node">
<title>Node2</title>
<g id="a_Node000002"><a xlink:href="../../df/dfa/classpocketmine_1_1scheduler_1_1_async_task.html" target="_top" xlink:title=" ">
<polygon fill="white" stroke="transparent" points="140,-452 0,-452 0,-167 140,-167 140,-452"/>
<text text-anchor="start" x="16" y="-439.5" font-family="Helvetica,sans-Serif" font-size="10.00">pocketmine\scheduler</text>
<text text-anchor="start" x="42.5" y="-428.5" font-family="Helvetica,sans-Serif" font-size="10.00">\AsyncTask</text>
<text text-anchor="start" x="68" y="-413.5" font-family="Helvetica,sans-Serif" font-size="10.00"> </text>
<text text-anchor="start" x="4" y="-398.5" font-family="Helvetica,sans-Serif" font-size="10.00">+</text>
<text text-anchor="start" x="17" y="-398.5" font-family="Helvetica,sans-Serif" font-size="10.00">__destruct()</text>
<text text-anchor="start" x="4" y="-383.5" font-family="Helvetica,sans-Serif" font-size="10.00">+</text>
<text text-anchor="start" x="17" y="-383.5" font-family="Helvetica,sans-Serif" font-size="10.00">checkProgressUpdates()</text>
<text text-anchor="start" x="4" y="-368.5" font-family="Helvetica,sans-Serif" font-size="10.00">+</text>
<text text-anchor="start" x="17" y="-368.5" font-family="Helvetica,sans-Serif" font-size="10.00">getResult()</text>
<text text-anchor="start" x="4" y="-353.5" font-family="Helvetica,sans-Serif" font-size="10.00">+</text>
<text text-anchor="start" x="17" y="-353.5" font-family="Helvetica,sans-Serif" font-size="10.00">hasResult()</text>
<text text-anchor="start" x="4" y="-338.5" font-family="Helvetica,sans-Serif" font-size="10.00">+</text>
<text text-anchor="start" x="17" y="-338.5" font-family="Helvetica,sans-Serif" font-size="10.00">isFinished()</text>
<text text-anchor="start" x="4" y="-323.5" font-family="Helvetica,sans-Serif" font-size="10.00">+</text>
<text text-anchor="start" x="17" y="-323.5" font-family="Helvetica,sans-Serif" font-size="10.00">isSubmitted()</text>
<text text-anchor="start" x="4" y="-308.5" font-family="Helvetica,sans-Serif" font-size="10.00">+</text>
<text text-anchor="start" x="17" y="-308.5" font-family="Helvetica,sans-Serif" font-size="10.00">onCompletion()</text>
<text text-anchor="start" x="4" y="-293.5" font-family="Helvetica,sans-Serif" font-size="10.00">+</text>
<text text-anchor="start" x="17" y="-293.5" font-family="Helvetica,sans-Serif" font-size="10.00">onProgressUpdate()</text>
<text text-anchor="start" x="4" y="-278.5" font-family="Helvetica,sans-Serif" font-size="10.00">+</text>
<text text-anchor="start" x="17" y="-278.5" font-family="Helvetica,sans-Serif" font-size="10.00">onRun()</text>
<text text-anchor="start" x="4" y="-263.5" font-family="Helvetica,sans-Serif" font-size="10.00">+</text>
<text text-anchor="start" x="17" y="-263.5" font-family="Helvetica,sans-Serif" font-size="10.00">publishProgress()</text>
<text text-anchor="start" x="4" y="-248.5" font-family="Helvetica,sans-Serif" font-size="10.00">+</text>
<text text-anchor="start" x="17" y="-248.5" font-family="Helvetica,sans-Serif" font-size="10.00">run()</text>
<text text-anchor="start" x="4" y="-233.5" font-family="Helvetica,sans-Serif" font-size="10.00">+</text>
<text text-anchor="start" x="17" y="-233.5" font-family="Helvetica,sans-Serif" font-size="10.00">setResult()</text>
<text text-anchor="start" x="4" y="-218.5" font-family="Helvetica,sans-Serif" font-size="10.00">+</text>
<text text-anchor="start" x="17" y="-218.5" font-family="Helvetica,sans-Serif" font-size="10.00">setSubmitted()</text>
<text text-anchor="start" x="4" y="-203.5" font-family="Helvetica,sans-Serif" font-size="10.00">#</text>
<text text-anchor="start" x="17" y="-203.5" font-family="Helvetica,sans-Serif" font-size="10.00">fetchLocal()</text>
<text text-anchor="start" x="4" y="-188.5" font-family="Helvetica,sans-Serif" font-size="10.00">#</text>
<text text-anchor="start" x="17" y="-188.5" font-family="Helvetica,sans-Serif" font-size="10.00">reallyDestruct()</text>
<text text-anchor="start" x="4" y="-173.5" font-family="Helvetica,sans-Serif" font-size="10.00">#</text>
<text text-anchor="start" x="17" y="-173.5" font-family="Helvetica,sans-Serif" font-size="10.00">storeLocal()</text>
<polygon fill="#666666" stroke="#666666" points="0,-423.5 0,-423.5 140,-423.5 140,-423.5 0,-423.5"/>
<polygon fill="#666666" stroke="#666666" points="0,-408.5 0,-408.5 140,-408.5 140,-408.5 0,-408.5"/>
<polygon fill="none" stroke="#666666" points="0,-167 0,-452 140,-452 140,-167 0,-167"/>
</a>
</g>
</g>
<!-- Node2&#45;&gt;Node1 -->
<g id="edge1_Node000001_Node000002" class="edge">
<title>Node2&#45;&gt;Node1</title>
<g id="a_edge1_Node000001_Node000002"><a xlink:title=" ">
<path fill="none" stroke="#63b8ff" d="M120.75,-157.18C125.09,-144.23 129.29,-131.7 133.15,-120.2"/>
<polygon fill="none" stroke="#63b8ff" points="117.42,-156.09 117.56,-166.68 124.06,-158.31 117.42,-156.09"/>
</a>
</g>
</g>
<!-- Node3 -->
<g id="Node000003" class="node">
<title>Node3</title>
<g id="a_Node000003"><a xlink:title=" ">
<polygon fill="white" stroke="transparent" points="98,-538 42,-538 42,-489 98,-489 98,-538"/>
<text text-anchor="start" x="47" y="-525.5" font-family="Helvetica,sans-Serif" font-size="10.00">Runnable</text>
<text text-anchor="start" x="68" y="-510.5" font-family="Helvetica,sans-Serif" font-size="10.00"> </text>
<text text-anchor="start" x="68" y="-495.5" font-family="Helvetica,sans-Serif" font-size="10.00"> </text>
<polygon fill="#bfbfbf" stroke="#bfbfbf" points="42,-520.5 42,-520.5 98,-520.5 98,-520.5 42,-520.5"/>
<polygon fill="#bfbfbf" stroke="#bfbfbf" points="42,-505.5 42,-505.5 98,-505.5 98,-505.5 42,-505.5"/>
<polygon fill="none" stroke="#bfbfbf" points="42,-489 42,-538 98,-538 98,-489 42,-489"/>
</a>
</g>
</g>
<!-- Node3&#45;&gt;Node2 -->
<g id="edge2_Node000002_Node000003" class="edge">
<title>Node3&#45;&gt;Node2</title>
<g id="a_edge2_Node000002_Node000003"><a xlink:title=" ">
<path fill="none" stroke="#63b8ff" d="M70,-478.75C70,-470.8 70,-461.82 70,-452.25"/>
<polygon fill="none" stroke="#63b8ff" points="66.5,-478.93 70,-488.93 73.5,-478.93 66.5,-478.93"/>
</a>
</g>
</g>
<!-- Node4 -->
<g id="Node000004" class="node">
<title>Node4</title>
<g id="a_Node000004"><a xlink:href="../../d4/d69/classpocketmine_1_1thread_1_1_non_thread_safe_value.html" target="_top" xlink:title=" ">
<polygon fill="white" stroke="transparent" points="316,-347 158,-347 158,-272 316,-272 316,-347"/>
<text text-anchor="start" x="163" y="-334.5" font-family="Helvetica,sans-Serif" font-size="10.00">pocketmine\thread\NonThread</text>
<text text-anchor="start" x="212.5" y="-323.5" font-family="Helvetica,sans-Serif" font-size="10.00">SafeValue</text>
<text text-anchor="start" x="235" y="-308.5" font-family="Helvetica,sans-Serif" font-size="10.00"> </text>
<text text-anchor="start" x="180" y="-293.5" font-family="Helvetica,sans-Serif" font-size="10.00">+</text>
<text text-anchor="start" x="211" y="-293.5" font-family="Helvetica,sans-Serif" font-size="10.00">__construct()</text>
<text text-anchor="start" x="180" y="-278.5" font-family="Helvetica,sans-Serif" font-size="10.00">+</text>
<text text-anchor="start" x="211" y="-278.5" font-family="Helvetica,sans-Serif" font-size="10.00">deserialize()</text>
<polygon fill="#666666" stroke="#666666" points="158,-318.5 158,-318.5 316,-318.5 316,-318.5 158,-318.5"/>
<polygon fill="#666666" stroke="#666666" points="158,-303.5 158,-303.5 316,-303.5 316,-303.5 158,-303.5"/>
<polygon fill="none" stroke="#666666" points="158,-272 158,-347 316,-347 316,-272 158,-272"/>
</a>
</g>
</g>
<!-- Node4&#45;&gt;Node1 -->
<g id="edge3_Node000001_Node000004" class="edge">
<title>Node4&#45;&gt;Node1</title>
<g id="a_edge3_Node000001_Node000004"><a xlink:title=" ">
<path fill="none" stroke="#63b8ff" d="M224.61,-271.98C212.14,-235.24 192.59,-177.63 177.06,-131.89"/>
<polygon fill="none" stroke="#63b8ff" points="176.96,-131.6 171.25,-127.21 173.11,-120.24 178.82,-124.63 176.96,-131.6"/>
</a>
</g>
<text text-anchor="middle" x="220.5" y="-141" font-family="Helvetica,sans-Serif" font-size="10.00" fill="grey"> #$compressor</text>
</g>
<!-- Node5 -->
<g id="Node000005" class="node">
<title>Node5</title>
<g id="a_Node000005"><a xlink:title=" ">
<polygon fill="white" stroke="transparent" points="270,-538 204,-538 204,-489 270,-489 270,-538"/>
<text text-anchor="start" x="209" y="-525.5" font-family="Helvetica,sans-Serif" font-size="10.00">ThreadSafe</text>
<text text-anchor="start" x="235" y="-510.5" font-family="Helvetica,sans-Serif" font-size="10.00"> </text>
<text text-anchor="start" x="235" y="-495.5" font-family="Helvetica,sans-Serif" font-size="10.00"> </text>
<polygon fill="#bfbfbf" stroke="#bfbfbf" points="204,-520.5 204,-520.5 270,-520.5 270,-520.5 204,-520.5"/>
<polygon fill="#bfbfbf" stroke="#bfbfbf" points="204,-505.5 204,-505.5 270,-505.5 270,-505.5 204,-505.5"/>
<polygon fill="none" stroke="#bfbfbf" points="204,-489 204,-538 270,-538 270,-489 204,-489"/>
</a>
</g>
</g>
<!-- Node5&#45;&gt;Node4 -->
<g id="edge4_Node000004_Node000005" class="edge">
<title>Node5&#45;&gt;Node4</title>
<g id="a_edge4_Node000004_Node000005"><a xlink:title=" ">
<path fill="none" stroke="#63b8ff" d="M237,-478.83C237,-442.47 237,-384.74 237,-347.23"/>
<polygon fill="none" stroke="#63b8ff" points="233.5,-478.93 237,-488.93 240.5,-478.93 233.5,-478.93"/>
</a>
</g>
</g>
</g>
</svg>
