<?xml version="1.0" encoding="UTF-8" standalone="no"?>
<!DOCTYPE svg PUBLIC "-//W3C//DTD SVG 1.1//EN"
 "http://www.w3.org/Graphics/SVG/1.1/DTD/svg11.dtd">
<!-- Generated by graphviz version 2.43.0 (0)
 -->
<!-- Title: pocketmine\command\PluginCommand Pages: 1 -->
<svg width="412pt" height="596pt"
 viewBox="0.00 0.00 412.00 596.00" xmlns="http://www.w3.org/2000/svg" xmlns:xlink="http://www.w3.org/1999/xlink">
<g id="graph0" class="graph" transform="scale(1 1) rotate(0) translate(4 592)">
<title>pocketmine\command\PluginCommand</title>
<polygon fill="white" stroke="transparent" points="-4,4 -4,-592 408,-592 408,4 -4,4"/>
<!-- Node1 -->
<g id="node1" class="node">
<title>Node1</title>
<g id="a_node1"><a xlink:title=" ">
<polygon fill="#bfbfbf" stroke="black" points="182.5,-0.5 182.5,-112.5 307.5,-112.5 307.5,-0.5 182.5,-0.5"/>
<text text-anchor="start" x="190.5" y="-100.5" font-family="Helvetica,sans-Serif" font-size="10.00">pocketmine\command</text>
<text text-anchor="middle" x="245" y="-89.5" font-family="Helvetica,sans-Serif" font-size="10.00">\PluginCommand</text>
<polyline fill="none" stroke="black" points="182.5,-82.5 307.5,-82.5 "/>
<text text-anchor="middle" x="245" y="-70.5" font-family="Helvetica,sans-Serif" font-size="10.00"> </text>
<polyline fill="none" stroke="black" points="182.5,-63.5 307.5,-63.5 "/>
<text text-anchor="start" x="190.5" y="-51.5" font-family="Helvetica,sans-Serif" font-size="10.00">+ __construct()</text>
<text text-anchor="start" x="190.5" y="-40.5" font-family="Helvetica,sans-Serif" font-size="10.00">+ execute()</text>
<text text-anchor="start" x="190.5" y="-29.5" font-family="Helvetica,sans-Serif" font-size="10.00">+ getExecutor()</text>
<text text-anchor="start" x="190.5" y="-18.5" font-family="Helvetica,sans-Serif" font-size="10.00">+ getOwningPlugin()</text>
<text text-anchor="start" x="190.5" y="-7.5" font-family="Helvetica,sans-Serif" font-size="10.00">+ setExecutor()</text>
</a>
</g>
</g>
<!-- Node2 -->
<g id="node2" class="node">
<title>Node2</title>
<g id="a_node2"><a xlink:href="../../d6/df1/classpocketmine_1_1command_1_1_command.html" target="_top" xlink:title=" ">
<polygon fill="white" stroke="#bfbfbf" points="68.5,-150.5 68.5,-339.5 245.5,-339.5 245.5,-150.5 68.5,-150.5"/>
<text text-anchor="start" x="76.5" y="-327.5" font-family="Helvetica,sans-Serif" font-size="10.00">pocketmine\command</text>
<text text-anchor="middle" x="157" y="-316.5" font-family="Helvetica,sans-Serif" font-size="10.00">\Command</text>
<polyline fill="none" stroke="#bfbfbf" points="68.5,-309.5 245.5,-309.5 "/>
<text text-anchor="middle" x="157" y="-297.5" font-family="Helvetica,sans-Serif" font-size="10.00"> </text>
<polyline fill="none" stroke="#bfbfbf" points="68.5,-290.5 245.5,-290.5 "/>
<text text-anchor="start" x="76.5" y="-278.5" font-family="Helvetica,sans-Serif" font-size="10.00">+ __construct()</text>
<text text-anchor="start" x="76.5" y="-267.5" font-family="Helvetica,sans-Serif" font-size="10.00">+ __toString()</text>
<text text-anchor="start" x="76.5" y="-256.5" font-family="Helvetica,sans-Serif" font-size="10.00">+ execute()</text>
<text text-anchor="start" x="76.5" y="-245.5" font-family="Helvetica,sans-Serif" font-size="10.00">+ getAliases()</text>
<text text-anchor="start" x="76.5" y="-234.5" font-family="Helvetica,sans-Serif" font-size="10.00">+ getDescription()</text>
<text text-anchor="start" x="76.5" y="-223.5" font-family="Helvetica,sans-Serif" font-size="10.00">+ getLabel()</text>
<text text-anchor="start" x="76.5" y="-212.5" font-family="Helvetica,sans-Serif" font-size="10.00">+ getName()</text>
<text text-anchor="start" x="76.5" y="-201.5" font-family="Helvetica,sans-Serif" font-size="10.00">+ getPermission()</text>
<text text-anchor="start" x="76.5" y="-190.5" font-family="Helvetica,sans-Serif" font-size="10.00">+ getPermissionMessage()</text>
<text text-anchor="start" x="76.5" y="-179.5" font-family="Helvetica,sans-Serif" font-size="10.00">+ getUsage()</text>
<text text-anchor="start" x="76.5" y="-168.5" font-family="Helvetica,sans-Serif" font-size="10.00">and 11 more...</text>
<text text-anchor="start" x="76.5" y="-157.5" font-family="Helvetica,sans-Serif" font-size="10.00">+ broadcastCommandMessage()</text>
</a>
</g>
</g>
<!-- Node2&#45;&gt;Node1 -->
<g id="edge1" class="edge">
<title>Node2&#45;&gt;Node1</title>
<path fill="none" stroke="midnightblue" d="M205.43,-141.35C210.11,-131.45 214.71,-121.68 219.04,-112.52"/>
<polygon fill="none" stroke="midnightblue" points="202.23,-139.94 201.13,-150.48 208.56,-142.93 202.23,-139.94"/>
</g>
<!-- Node3 -->
<g id="node3" class="node">
<title>Node3</title>
<g id="a_node3"><a xlink:href="../../da/d80/classpocketmine_1_1lang_1_1_translatable.html" target="_top" xlink:title=" ">
<polygon fill="white" stroke="#bfbfbf" points="0,-431.5 0,-554.5 160,-554.5 160,-431.5 0,-431.5"/>
<text text-anchor="middle" x="80" y="-542.5" font-family="Helvetica,sans-Serif" font-size="10.00">pocketmine\lang\Translatable</text>
<polyline fill="none" stroke="#bfbfbf" points="0,-535.5 160,-535.5 "/>
<text text-anchor="start" x="8" y="-523.5" font-family="Helvetica,sans-Serif" font-size="10.00"># $params</text>
<polyline fill="none" stroke="#bfbfbf" points="0,-516.5 160,-516.5 "/>
<text text-anchor="start" x="8" y="-504.5" font-family="Helvetica,sans-Serif" font-size="10.00">+ __construct()</text>
<text text-anchor="start" x="8" y="-493.5" font-family="Helvetica,sans-Serif" font-size="10.00">+ format()</text>
<text text-anchor="start" x="8" y="-482.5" font-family="Helvetica,sans-Serif" font-size="10.00">+ getParameter()</text>
<text text-anchor="start" x="8" y="-471.5" font-family="Helvetica,sans-Serif" font-size="10.00">+ getParameters()</text>
<text text-anchor="start" x="8" y="-460.5" font-family="Helvetica,sans-Serif" font-size="10.00">+ getText()</text>
<text text-anchor="start" x="8" y="-449.5" font-family="Helvetica,sans-Serif" font-size="10.00">+ postfix()</text>
<text text-anchor="start" x="8" y="-438.5" font-family="Helvetica,sans-Serif" font-size="10.00">+ prefix()</text>
</a>
</g>
</g>
<!-- Node3&#45;&gt;Node2 -->
<g id="edge2" class="edge">
<title>Node3&#45;&gt;Node2</title>
<path fill="none" stroke="#404040" d="M99.03,-431.19C106.59,-407.04 115.51,-378.55 124.06,-351.24"/>
<polygon fill="none" stroke="#404040" points="124.11,-351.08 122.08,-344.16 127.69,-339.63 129.72,-346.55 124.11,-351.08"/>
<text text-anchor="middle" x="165" y="-372" font-family="Helvetica,sans-Serif" font-size="10.00"> #$description</text>
<text text-anchor="middle" x="165" y="-361" font-family="Helvetica,sans-Serif" font-size="10.00">#$usageMessage</text>
</g>
<!-- Node4 -->
<g id="node4" class="node">
<title>Node4</title>
<g id="a_node4"><a xlink:href="../../d7/d9b/classpocketmine_1_1timings_1_1_timings_handler.html" target="_top" xlink:title=" ">
<polygon fill="white" stroke="#bfbfbf" points="178.5,-398.5 178.5,-587.5 291.5,-587.5 291.5,-398.5 178.5,-398.5"/>
<text text-anchor="start" x="186.5" y="-575.5" font-family="Helvetica,sans-Serif" font-size="10.00">pocketmine\timings</text>
<text text-anchor="middle" x="235" y="-564.5" font-family="Helvetica,sans-Serif" font-size="10.00">\TimingsHandler</text>
<polyline fill="none" stroke="#bfbfbf" points="178.5,-557.5 291.5,-557.5 "/>
<text text-anchor="middle" x="235" y="-545.5" font-family="Helvetica,sans-Serif" font-size="10.00"> </text>
<polyline fill="none" stroke="#bfbfbf" points="178.5,-538.5 291.5,-538.5 "/>
<text text-anchor="start" x="186.5" y="-526.5" font-family="Helvetica,sans-Serif" font-size="10.00">+ __construct()</text>
<text text-anchor="start" x="186.5" y="-515.5" font-family="Helvetica,sans-Serif" font-size="10.00">+ destroyCycles()</text>
<text text-anchor="start" x="186.5" y="-504.5" font-family="Helvetica,sans-Serif" font-size="10.00">+ getName()</text>
<text text-anchor="start" x="186.5" y="-493.5" font-family="Helvetica,sans-Serif" font-size="10.00">+ startTiming()</text>
<text text-anchor="start" x="186.5" y="-482.5" font-family="Helvetica,sans-Serif" font-size="10.00">+ stopTiming()</text>
<text text-anchor="start" x="186.5" y="-471.5" font-family="Helvetica,sans-Serif" font-size="10.00">+ time()</text>
<text text-anchor="start" x="186.5" y="-460.5" font-family="Helvetica,sans-Serif" font-size="10.00">+ getStartTime()</text>
<text text-anchor="start" x="186.5" y="-449.5" font-family="Helvetica,sans-Serif" font-size="10.00">+ isEnabled()</text>
<text text-anchor="start" x="186.5" y="-438.5" font-family="Helvetica,sans-Serif" font-size="10.00">+ printTimings()</text>
<text text-anchor="start" x="186.5" y="-427.5" font-family="Helvetica,sans-Serif" font-size="10.00">+ reload()</text>
<text text-anchor="start" x="186.5" y="-416.5" font-family="Helvetica,sans-Serif" font-size="10.00">+ setEnabled()</text>
<text text-anchor="start" x="186.5" y="-405.5" font-family="Helvetica,sans-Serif" font-size="10.00">+ tick()</text>
</a>
</g>
</g>
<!-- Node4&#45;&gt;Node2 -->
<g id="edge3" class="edge">
<title>Node4&#45;&gt;Node2</title>
<path fill="none" stroke="#404040" d="M223.29,-398.15C220.53,-384.52 217.14,-370.78 213,-358 212.23,-355.62 211.41,-353.22 210.56,-350.82"/>
<polygon fill="none" stroke="#404040" points="210.54,-350.78 204.68,-346.58 206.3,-339.55 212.16,-343.75 210.54,-350.78"/>
<text text-anchor="middle" x="247.5" y="-366.5" font-family="Helvetica,sans-Serif" font-size="10.00"> +$timings</text>
</g>
<!-- Node5 -->
<g id="node5" class="node">
<title>Node5</title>
<g id="a_node5"><a xlink:href="../../d0/dcc/interfacepocketmine_1_1plugin_1_1_plugin_owned.html" target="_top" xlink:title=" ">
<polygon fill="white" stroke="black" points="264,-211 264,-279 404,-279 404,-211 264,-211"/>
<text text-anchor="start" x="272" y="-267" font-family="Helvetica,sans-Serif" font-size="10.00">pocketmine\plugin\Plugin</text>
<text text-anchor="middle" x="334" y="-256" font-family="Helvetica,sans-Serif" font-size="10.00">Owned</text>
<polyline fill="none" stroke="black" points="264,-249 404,-249 "/>
<text text-anchor="middle" x="334" y="-237" font-family="Helvetica,sans-Serif" font-size="10.00"> </text>
<polyline fill="none" stroke="black" points="264,-230 404,-230 "/>
<text text-anchor="start" x="272" y="-218" font-family="Helvetica,sans-Serif" font-size="10.00">+ getOwningPlugin()</text>
</a>
</g>
</g>
<!-- Node5&#45;&gt;Node1 -->
<g id="edge4" class="edge">
<title>Node5&#45;&gt;Node1</title>
<path fill="none" stroke="midnightblue" d="M313.65,-201.36C301.12,-175.1 284.93,-141.17 271.42,-112.85"/>
<polygon fill="none" stroke="midnightblue" points="310.62,-203.14 318.09,-210.66 316.94,-200.13 310.62,-203.14"/>
</g>
</g>
</svg>
