<?xml version="1.0" encoding="UTF-8" standalone="no"?>
<!DOCTYPE svg PUBLIC "-//W3C//DTD SVG 1.1//EN"
 "http://www.w3.org/Graphics/SVG/1.1/DTD/svg11.dtd">
<!-- Generated by graphviz version 2.43.0 (0)
 -->
<!-- Title: pocketmine\block\BlockTypeTags Pages: 1 -->
<svg width="199pt" height="204pt"
 viewBox="0.00 0.00 198.50 204.00" xmlns="http://www.w3.org/2000/svg" xmlns:xlink="http://www.w3.org/1999/xlink">
<g id="graph0" class="graph" transform="scale(1 1) rotate(0) translate(4 200)">
<title>pocketmine\block\BlockTypeTags</title>
<polygon fill="white" stroke="transparent" points="-4,4 -4,-200 194.5,-200 194.5,4 -4,4"/>
<!-- Node1 -->
<g id="node1" class="node">
<title>Node1</title>
<g id="a_node1"><a xlink:title=" ">
<polygon fill="#bfbfbf" stroke="black" points="0,-0.5 0,-57.5 177,-57.5 177,-0.5 0,-0.5"/>
<text text-anchor="middle" x="88.5" y="-45.5" font-family="Helvetica,sans-Serif" font-size="10.00">pocketmine\block\BlockTypeTags</text>
<polyline fill="none" stroke="black" points="0,-38.5 177,-38.5 "/>
<text text-anchor="middle" x="88.5" y="-26.5" font-family="Helvetica,sans-Serif" font-size="10.00"> </text>
<polyline fill="none" stroke="black" points="0,-19.5 177,-19.5 "/>
<text text-anchor="middle" x="88.5" y="-7.5" font-family="Helvetica,sans-Serif" font-size="10.00"> </text>
</a>
</g>
</g>
<!-- Node2 -->
<g id="node2" class="node">
<title>Node2</title>
<g id="a_node2"><a xlink:title=" ">
<polygon fill="white" stroke="#bfbfbf" points="67,-138.5 67,-195.5 110,-195.5 110,-138.5 67,-138.5"/>
<text text-anchor="middle" x="88.5" y="-183.5" font-family="Helvetica,sans-Serif" font-size="10.00">const</text>
<polyline fill="none" stroke="#bfbfbf" points="67,-176.5 110,-176.5 "/>
<text text-anchor="middle" x="88.5" y="-164.5" font-family="Helvetica,sans-Serif" font-size="10.00"> </text>
<polyline fill="none" stroke="#bfbfbf" points="67,-157.5 110,-157.5 "/>
<text text-anchor="middle" x="88.5" y="-145.5" font-family="Helvetica,sans-Serif" font-size="10.00"> </text>
</a>
</g>
</g>
<!-- Node2&#45;&gt;Node1 -->
<g id="edge1" class="edge">
<title>Node2&#45;&gt;Node1</title>
<path fill="none" stroke="#404040" d="M88.5,-138.48C88.5,-118.79 88.5,-91.99 88.5,-69.95"/>
<polygon fill="none" stroke="#404040" points="88.5,-69.95 84.5,-63.95 88.5,-57.95 92.5,-63.95 88.5,-69.95"/>
<text text-anchor="middle" x="139.5" y="-112" font-family="Helvetica,sans-Serif" font-size="10.00"> +DIRT</text>
<text text-anchor="middle" x="139.5" y="-101" font-family="Helvetica,sans-Serif" font-size="10.00">+MUD</text>
<text text-anchor="middle" x="139.5" y="-90" font-family="Helvetica,sans-Serif" font-size="10.00">+POTTABLE_PLANTS</text>
<text text-anchor="middle" x="139.5" y="-79" font-family="Helvetica,sans-Serif" font-size="10.00">+SAND</text>
</g>
</g>
</svg>
