<?xml version="1.0" encoding="UTF-8" standalone="no"?>
<!DOCTYPE svg PUBLIC "-//W3C//DTD SVG 1.1//EN"
 "http://www.w3.org/Graphics/SVG/1.1/DTD/svg11.dtd">
<!-- Generated by graphviz version 2.43.0 (0)
 -->
<!-- Title: pocketmine\world\format\io\data\BedrockWorldData Pages: 1 -->
<svg width="386pt" height="1020pt"
 viewBox="0.00 0.00 385.50 1020.00" xmlns="http://www.w3.org/2000/svg" xmlns:xlink="http://www.w3.org/1999/xlink">
<g id="graph0" class="graph" transform="scale(1 1) rotate(0) translate(4 1016)">
<title>pocketmine\world\format\io\data\BedrockWorldData</title>
<polygon fill="white" stroke="transparent" points="-4,4 -4,-1016 381.5,-1016 381.5,4 -4,4"/>
<!-- Node1 -->
<g id="node1" class="node">
<title>Node1</title>
<g id="a_node1"><a xlink:title=" ">
<polygon fill="#bfbfbf" stroke="black" points="82.5,-0.5 82.5,-211.5 229.5,-211.5 229.5,-0.5 82.5,-0.5"/>
<text text-anchor="start" x="90.5" y="-199.5" font-family="Helvetica,sans-Serif" font-size="10.00">pocketmine\world\format</text>
<text text-anchor="middle" x="156" y="-188.5" font-family="Helvetica,sans-Serif" font-size="10.00">\io\data\BedrockWorldData</text>
<polyline fill="none" stroke="black" points="82.5,-181.5 229.5,-181.5 "/>
<text text-anchor="middle" x="156" y="-169.5" font-family="Helvetica,sans-Serif" font-size="10.00"> </text>
<polyline fill="none" stroke="black" points="82.5,-162.5 229.5,-162.5 "/>
<text text-anchor="start" x="90.5" y="-150.5" font-family="Helvetica,sans-Serif" font-size="10.00">+ getDifficulty()</text>
<text text-anchor="start" x="90.5" y="-139.5" font-family="Helvetica,sans-Serif" font-size="10.00">+ getLightningLevel()</text>
<text text-anchor="start" x="90.5" y="-128.5" font-family="Helvetica,sans-Serif" font-size="10.00">+ getLightningTime()</text>
<text text-anchor="start" x="90.5" y="-117.5" font-family="Helvetica,sans-Serif" font-size="10.00">+ getRainLevel()</text>
<text text-anchor="start" x="90.5" y="-106.5" font-family="Helvetica,sans-Serif" font-size="10.00">+ getRainTime()</text>
<text text-anchor="start" x="90.5" y="-95.5" font-family="Helvetica,sans-Serif" font-size="10.00">+ save()</text>
<text text-anchor="start" x="90.5" y="-84.5" font-family="Helvetica,sans-Serif" font-size="10.00">+ setDifficulty()</text>
<text text-anchor="start" x="90.5" y="-73.5" font-family="Helvetica,sans-Serif" font-size="10.00">+ setLightningLevel()</text>
<text text-anchor="start" x="90.5" y="-62.5" font-family="Helvetica,sans-Serif" font-size="10.00">+ setLightningTime()</text>
<text text-anchor="start" x="90.5" y="-51.5" font-family="Helvetica,sans-Serif" font-size="10.00">+ setRainLevel()</text>
<text text-anchor="start" x="90.5" y="-40.5" font-family="Helvetica,sans-Serif" font-size="10.00">+ setRainTime()</text>
<text text-anchor="start" x="90.5" y="-29.5" font-family="Helvetica,sans-Serif" font-size="10.00">+ generate()</text>
<text text-anchor="start" x="90.5" y="-18.5" font-family="Helvetica,sans-Serif" font-size="10.00"># fix()</text>
<text text-anchor="start" x="90.5" y="-7.5" font-family="Helvetica,sans-Serif" font-size="10.00"># load()</text>
</a>
</g>
</g>
<!-- Node2 -->
<g id="node2" class="node">
<title>Node2</title>
<g id="a_node2"><a xlink:href="../../d1/def/classpocketmine_1_1world_1_1format_1_1io_1_1data_1_1_base_nbt_world_data.html" target="_top" xlink:title=" ">
<polygon fill="white" stroke="#bfbfbf" points="0,-314.5 0,-525.5 182,-525.5 182,-314.5 0,-314.5"/>
<text text-anchor="start" x="8" y="-513.5" font-family="Helvetica,sans-Serif" font-size="10.00">pocketmine\world\format</text>
<text text-anchor="middle" x="91" y="-502.5" font-family="Helvetica,sans-Serif" font-size="10.00">\io\data\BaseNbtWorldData</text>
<polyline fill="none" stroke="#bfbfbf" points="0,-495.5 182,-495.5 "/>
<text text-anchor="middle" x="91" y="-483.5" font-family="Helvetica,sans-Serif" font-size="10.00"> </text>
<polyline fill="none" stroke="#bfbfbf" points="0,-476.5 182,-476.5 "/>
<text text-anchor="start" x="8" y="-464.5" font-family="Helvetica,sans-Serif" font-size="10.00">+ __construct()</text>
<text text-anchor="start" x="8" y="-453.5" font-family="Helvetica,sans-Serif" font-size="10.00">+ getCompoundTag()</text>
<text text-anchor="start" x="8" y="-442.5" font-family="Helvetica,sans-Serif" font-size="10.00">+ getGenerator()</text>
<text text-anchor="start" x="8" y="-431.5" font-family="Helvetica,sans-Serif" font-size="10.00">+ getGeneratorOptions()</text>
<text text-anchor="start" x="8" y="-420.5" font-family="Helvetica,sans-Serif" font-size="10.00">+ getName()</text>
<text text-anchor="start" x="8" y="-409.5" font-family="Helvetica,sans-Serif" font-size="10.00">+ getSeed()</text>
<text text-anchor="start" x="8" y="-398.5" font-family="Helvetica,sans-Serif" font-size="10.00">+ getSpawn()</text>
<text text-anchor="start" x="8" y="-387.5" font-family="Helvetica,sans-Serif" font-size="10.00">+ getTime()</text>
<text text-anchor="start" x="8" y="-376.5" font-family="Helvetica,sans-Serif" font-size="10.00">+ setSpawn()</text>
<text text-anchor="start" x="8" y="-365.5" font-family="Helvetica,sans-Serif" font-size="10.00">+ setTime()</text>
<text text-anchor="start" x="8" y="-354.5" font-family="Helvetica,sans-Serif" font-size="10.00"># fix()</text>
<text text-anchor="start" x="8" y="-343.5" font-family="Helvetica,sans-Serif" font-size="10.00"># load()</text>
<text text-anchor="start" x="8" y="-332.5" font-family="Helvetica,sans-Serif" font-size="10.00"># hackyFixForGeneratorClasspath</text>
<text text-anchor="start" x="8" y="-321.5" font-family="Helvetica,sans-Serif" font-size="10.00">InLevelDat()</text>
</a>
</g>
</g>
<!-- Node2&#45;&gt;Node1 -->
<g id="edge1" class="edge">
<title>Node2&#45;&gt;Node1</title>
<path fill="none" stroke="midnightblue" d="M114.94,-304.08C121.24,-273.85 128,-241.41 134.18,-211.75"/>
<polygon fill="none" stroke="midnightblue" points="111.44,-303.74 112.82,-314.24 118.29,-305.16 111.44,-303.74"/>
</g>
<!-- Node3 -->
<g id="node3" class="node">
<title>Node3</title>
<g id="a_node3"><a xlink:href="../../d7/d4e/interfacepocketmine_1_1world_1_1format_1_1io_1_1_world_data.html" target="_top" xlink:title=" ">
<polygon fill="white" stroke="#bfbfbf" points="5,-601 5,-779 145,-779 145,-601 5,-601"/>
<text text-anchor="start" x="13" y="-767" font-family="Helvetica,sans-Serif" font-size="10.00">pocketmine\world\format</text>
<text text-anchor="middle" x="75" y="-756" font-family="Helvetica,sans-Serif" font-size="10.00">\io\WorldData</text>
<polyline fill="none" stroke="#bfbfbf" points="5,-749 145,-749 "/>
<text text-anchor="middle" x="75" y="-737" font-family="Helvetica,sans-Serif" font-size="10.00"> </text>
<polyline fill="none" stroke="#bfbfbf" points="5,-730 145,-730 "/>
<text text-anchor="start" x="13" y="-718" font-family="Helvetica,sans-Serif" font-size="10.00">+ getDifficulty()</text>
<text text-anchor="start" x="13" y="-707" font-family="Helvetica,sans-Serif" font-size="10.00">+ getGenerator()</text>
<text text-anchor="start" x="13" y="-696" font-family="Helvetica,sans-Serif" font-size="10.00">+ getGeneratorOptions()</text>
<text text-anchor="start" x="13" y="-685" font-family="Helvetica,sans-Serif" font-size="10.00">+ getLightningLevel()</text>
<text text-anchor="start" x="13" y="-674" font-family="Helvetica,sans-Serif" font-size="10.00">+ getLightningTime()</text>
<text text-anchor="start" x="13" y="-663" font-family="Helvetica,sans-Serif" font-size="10.00">+ getName()</text>
<text text-anchor="start" x="13" y="-652" font-family="Helvetica,sans-Serif" font-size="10.00">+ getRainLevel()</text>
<text text-anchor="start" x="13" y="-641" font-family="Helvetica,sans-Serif" font-size="10.00">+ getRainTime()</text>
<text text-anchor="start" x="13" y="-630" font-family="Helvetica,sans-Serif" font-size="10.00">+ getSeed()</text>
<text text-anchor="start" x="13" y="-619" font-family="Helvetica,sans-Serif" font-size="10.00">+ getSpawn()</text>
<text text-anchor="start" x="13" y="-608" font-family="Helvetica,sans-Serif" font-size="10.00">and 9 more...</text>
</a>
</g>
</g>
<!-- Node3&#45;&gt;Node2 -->
<g id="edge2" class="edge">
<title>Node3&#45;&gt;Node2</title>
<path fill="none" stroke="midnightblue" d="M80.87,-590.65C82.13,-569.59 83.46,-547.26 84.73,-525.96"/>
<polygon fill="none" stroke="midnightblue" points="77.36,-590.68 80.26,-600.88 84.35,-591.1 77.36,-590.68"/>
</g>
<!-- Node4 -->
<g id="node4" class="node">
<title>Node4</title>
<g id="a_node4"><a xlink:href="../../de/d67/classpocketmine_1_1nbt_1_1tag_1_1_compound_tag.html" target="_top" xlink:title=" ">
<polygon fill="white" stroke="black" points="163,-573.5 163,-806.5 283,-806.5 283,-573.5 163,-573.5"/>
<text text-anchor="start" x="171" y="-794.5" font-family="Helvetica,sans-Serif" font-size="10.00">pocketmine\nbt\tag</text>
<text text-anchor="middle" x="223" y="-783.5" font-family="Helvetica,sans-Serif" font-size="10.00">\CompoundTag</text>
<polyline fill="none" stroke="black" points="163,-776.5 283,-776.5 "/>
<text text-anchor="middle" x="223" y="-764.5" font-family="Helvetica,sans-Serif" font-size="10.00"> </text>
<polyline fill="none" stroke="black" points="163,-757.5 283,-757.5 "/>
<text text-anchor="start" x="171" y="-745.5" font-family="Helvetica,sans-Serif" font-size="10.00">+ __construct()</text>
<text text-anchor="start" x="171" y="-734.5" font-family="Helvetica,sans-Serif" font-size="10.00">+ __clone()</text>
<text text-anchor="start" x="171" y="-723.5" font-family="Helvetica,sans-Serif" font-size="10.00">+ count()</text>
<text text-anchor="start" x="171" y="-712.5" font-family="Helvetica,sans-Serif" font-size="10.00">+ equals()</text>
<text text-anchor="start" x="171" y="-701.5" font-family="Helvetica,sans-Serif" font-size="10.00">+ getByte()</text>
<text text-anchor="start" x="171" y="-690.5" font-family="Helvetica,sans-Serif" font-size="10.00">+ getByteArray()</text>
<text text-anchor="start" x="171" y="-679.5" font-family="Helvetica,sans-Serif" font-size="10.00">+ getCompoundTag()</text>
<text text-anchor="start" x="171" y="-668.5" font-family="Helvetica,sans-Serif" font-size="10.00">+ getCount()</text>
<text text-anchor="start" x="171" y="-657.5" font-family="Helvetica,sans-Serif" font-size="10.00">+ getDouble()</text>
<text text-anchor="start" x="171" y="-646.5" font-family="Helvetica,sans-Serif" font-size="10.00">+ getFloat()</text>
<text text-anchor="start" x="171" y="-635.5" font-family="Helvetica,sans-Serif" font-size="10.00">and 23 more...</text>
<text text-anchor="start" x="171" y="-624.5" font-family="Helvetica,sans-Serif" font-size="10.00">+ create()</text>
<text text-anchor="start" x="171" y="-613.5" font-family="Helvetica,sans-Serif" font-size="10.00">+ read()</text>
<text text-anchor="start" x="171" y="-602.5" font-family="Helvetica,sans-Serif" font-size="10.00"># getTypeName()</text>
<text text-anchor="start" x="171" y="-591.5" font-family="Helvetica,sans-Serif" font-size="10.00"># makeCopy()</text>
<text text-anchor="start" x="171" y="-580.5" font-family="Helvetica,sans-Serif" font-size="10.00"># stringifyValue()</text>
</a>
</g>
</g>
<!-- Node4&#45;&gt;Node2 -->
<g id="edge3" class="edge">
<title>Node4&#45;&gt;Node2</title>
<path fill="none" stroke="#404040" d="M166.06,-573.4C160.08,-561.25 153.99,-548.9 148.01,-536.75"/>
<polygon fill="none" stroke="#404040" points="147.85,-536.42 141.61,-532.81 142.55,-525.66 148.79,-529.27 147.85,-536.42"/>
<text text-anchor="middle" x="199.5" y="-547" font-family="Helvetica,sans-Serif" font-size="10.00"> #$compoundTag</text>
</g>
<!-- Node5 -->
<g id="node5" class="node">
<title>Node5</title>
<g id="a_node5"><a xlink:href="../../dc/d26/classpocketmine_1_1nbt_1_1tag_1_1_tag.html" target="_top" xlink:title=" ">
<polygon fill="white" stroke="#bfbfbf" points="40.5,-844.5 40.5,-1011.5 171.5,-1011.5 171.5,-844.5 40.5,-844.5"/>
<text text-anchor="middle" x="106" y="-999.5" font-family="Helvetica,sans-Serif" font-size="10.00">pocketmine\nbt\tag\Tag</text>
<polyline fill="none" stroke="#bfbfbf" points="40.5,-992.5 171.5,-992.5 "/>
<text text-anchor="start" x="48.5" y="-980.5" font-family="Helvetica,sans-Serif" font-size="10.00"># $cloning</text>
<polyline fill="none" stroke="#bfbfbf" points="40.5,-973.5 171.5,-973.5 "/>
<text text-anchor="start" x="48.5" y="-961.5" font-family="Helvetica,sans-Serif" font-size="10.00">+ __toString()</text>
<text text-anchor="start" x="48.5" y="-950.5" font-family="Helvetica,sans-Serif" font-size="10.00">+ equals()</text>
<text text-anchor="start" x="48.5" y="-939.5" font-family="Helvetica,sans-Serif" font-size="10.00">+ getType()</text>
<text text-anchor="start" x="48.5" y="-928.5" font-family="Helvetica,sans-Serif" font-size="10.00">+ getValue()</text>
<text text-anchor="start" x="48.5" y="-917.5" font-family="Helvetica,sans-Serif" font-size="10.00">+ safeClone()</text>
<text text-anchor="start" x="48.5" y="-906.5" font-family="Helvetica,sans-Serif" font-size="10.00">+ toString()</text>
<text text-anchor="start" x="48.5" y="-895.5" font-family="Helvetica,sans-Serif" font-size="10.00">+ write()</text>
<text text-anchor="start" x="48.5" y="-884.5" font-family="Helvetica,sans-Serif" font-size="10.00"># getTypeName()</text>
<text text-anchor="start" x="48.5" y="-873.5" font-family="Helvetica,sans-Serif" font-size="10.00"># makeCopy()</text>
<text text-anchor="start" x="48.5" y="-862.5" font-family="Helvetica,sans-Serif" font-size="10.00"># stringifyValue()</text>
<text text-anchor="start" x="48.5" y="-851.5" font-family="Helvetica,sans-Serif" font-size="10.00"># restrictArgCount()</text>
</a>
</g>
</g>
<!-- Node5&#45;&gt;Node4 -->
<g id="edge4" class="edge">
<title>Node5&#45;&gt;Node4</title>
<path fill="none" stroke="midnightblue" d="M151.37,-835.48C156.05,-826.04 160.85,-816.35 165.65,-806.69"/>
<polygon fill="none" stroke="midnightblue" points="148.23,-833.94 146.92,-844.46 154.5,-837.05 148.23,-833.94"/>
</g>
<!-- Node6 -->
<g id="node6" class="node">
<title>Node6</title>
<g id="a_node6"><a xlink:title=" ">
<polygon fill="white" stroke="#bfbfbf" points="190,-899.5 190,-956.5 256,-956.5 256,-899.5 190,-899.5"/>
<text text-anchor="middle" x="223" y="-944.5" font-family="Helvetica,sans-Serif" font-size="10.00">Countable</text>
<polyline fill="none" stroke="#bfbfbf" points="190,-937.5 256,-937.5 "/>
<text text-anchor="middle" x="223" y="-925.5" font-family="Helvetica,sans-Serif" font-size="10.00"> </text>
<polyline fill="none" stroke="#bfbfbf" points="190,-918.5 256,-918.5 "/>
<text text-anchor="middle" x="223" y="-906.5" font-family="Helvetica,sans-Serif" font-size="10.00"> </text>
</a>
</g>
</g>
<!-- Node6&#45;&gt;Node4 -->
<g id="edge5" class="edge">
<title>Node6&#45;&gt;Node4</title>
<path fill="none" stroke="midnightblue" d="M223,-889.32C223,-866.7 223,-836.6 223,-806.69"/>
<polygon fill="none" stroke="midnightblue" points="219.5,-889.47 223,-899.47 226.5,-889.47 219.5,-889.47"/>
</g>
<!-- Node7 -->
<g id="node7" class="node">
<title>Node7</title>
<g id="a_node7"><a xlink:title=" ">
<polygon fill="white" stroke="#bfbfbf" points="274.5,-899.5 274.5,-956.5 377.5,-956.5 377.5,-899.5 274.5,-899.5"/>
<text text-anchor="middle" x="326" y="-944.5" font-family="Helvetica,sans-Serif" font-size="10.00">IteratorAggregate</text>
<polyline fill="none" stroke="#bfbfbf" points="274.5,-937.5 377.5,-937.5 "/>
<text text-anchor="middle" x="326" y="-925.5" font-family="Helvetica,sans-Serif" font-size="10.00"> </text>
<polyline fill="none" stroke="#bfbfbf" points="274.5,-918.5 377.5,-918.5 "/>
<text text-anchor="middle" x="326" y="-906.5" font-family="Helvetica,sans-Serif" font-size="10.00"> </text>
</a>
</g>
</g>
<!-- Node7&#45;&gt;Node4 -->
<g id="edge6" class="edge">
<title>Node7&#45;&gt;Node4</title>
<path fill="none" stroke="midnightblue" d="M309.95,-890.23C300.04,-867.52 286.72,-837 273.49,-806.69"/>
<polygon fill="none" stroke="midnightblue" points="306.78,-891.7 313.98,-899.47 313.19,-888.9 306.78,-891.7"/>
</g>
<!-- Node8 -->
<g id="node8" class="node">
<title>Node8</title>
<g id="a_node8"><a xlink:title=" ">
<polygon fill="white" stroke="#bfbfbf" points="200.5,-391.5 200.5,-448.5 243.5,-448.5 243.5,-391.5 200.5,-391.5"/>
<text text-anchor="middle" x="222" y="-436.5" font-family="Helvetica,sans-Serif" font-size="10.00">const</text>
<polyline fill="none" stroke="#bfbfbf" points="200.5,-429.5 243.5,-429.5 "/>
<text text-anchor="middle" x="222" y="-417.5" font-family="Helvetica,sans-Serif" font-size="10.00"> </text>
<polyline fill="none" stroke="#bfbfbf" points="200.5,-410.5 243.5,-410.5 "/>
<text text-anchor="middle" x="222" y="-398.5" font-family="Helvetica,sans-Serif" font-size="10.00"> </text>
</a>
</g>
</g>
<!-- Node8&#45;&gt;Node1 -->
<g id="edge7" class="edge">
<title>Node8&#45;&gt;Node1</title>
<path fill="none" stroke="#404040" d="M216.14,-391.31C208.2,-353.77 193.53,-284.42 180.67,-223.62"/>
<polygon fill="none" stroke="#404040" points="180.61,-223.32 175.45,-218.28 178.12,-211.58 183.28,-216.62 180.61,-223.32"/>
<text text-anchor="start" x="194" y="-288" font-family="Helvetica,sans-Serif" font-size="10.00"> +CURRENT_STORAGE_NETWORK</text>
<text text-anchor="middle" x="277" y="-277" font-family="Helvetica,sans-Serif" font-size="10.00">_VERSION</text>
<text text-anchor="middle" x="277" y="-266" font-family="Helvetica,sans-Serif" font-size="10.00">+CURRENT_STORAGE_VERSION</text>
<text text-anchor="middle" x="277" y="-255" font-family="Helvetica,sans-Serif" font-size="10.00">+GENERATOR_FLAT</text>
<text text-anchor="middle" x="277" y="-244" font-family="Helvetica,sans-Serif" font-size="10.00">+GENERATOR_INFINITE</text>
<text text-anchor="middle" x="277" y="-233" font-family="Helvetica,sans-Serif" font-size="10.00">+GENERATOR_LIMITED</text>
</g>
</g>
</svg>
