<?xml version="1.0" encoding="UTF-8" standalone="no"?>
<!DOCTYPE svg PUBLIC "-//W3C//DTD SVG 1.1//EN"
 "http://www.w3.org/Graphics/SVG/1.1/DTD/svg11.dtd">
<!-- Generated by graphviz version 2.43.0 (0)
 -->
<!-- Title: pocketmine\inventory\SimpleInventory Pages: 1 -->
<!--zoomable 734 -->
<svg id="main" version="1.1" xmlns="http://www.w3.org/2000/svg" xmlns:xlink="http://www.w3.org/1999/xlink" xml:space="preserve" onload="init(evt)">
<style type="text/css"><![CDATA[
.edge:hover path { stroke: red; }
.edge:hover polygon { stroke: red; fill: red; }
]]></style>
<script type="text/javascript"><![CDATA[
var edges = document.getElementsByTagName('g');
if (edges && edges.length) {
  for (var i=0;i<edges.length;i++) {
    if (edges[i].id.substr(0,4)=='edge') {
      edges[i].setAttribute('class','edge');
    }
  }
}
]]></script>
        <defs>
                <circle id="rim" cx="0" cy="0" r="7"/>
                <circle id="rim2" cx="0" cy="0" r="3.5"/>
                <g id="zoomPlus">
                        <use xlink:href="#rim" fill="#404040">
                                <set attributeName="fill" to="#808080" begin="zoomplus.mouseover" end="zoomplus.mouseout"/>
                        </use>
                        <path d="M-4,0h8M0,-4v8" fill="none" stroke="white" stroke-width="1.5" pointer-events="none"/>
                </g>
                <g id="zoomMin">
                        <use xlink:href="#rim" fill="#404040">
                                <set attributeName="fill" to="#808080" begin="zoomminus.mouseover" end="zoomminus.mouseout"/>
                        </use>
                        <path d="M-4,0h8" fill="none" stroke="white" stroke-width="1.5" pointer-events="none"/>
                </g>
                <g id="dirArrow">
                        <path fill="none" stroke="white" stroke-width="1.5" d="M0,-3.0v7 M-2.5,-0.5L0,-3.0L2.5,-0.5"/>
                </g>
               <g id="resetDef">
                       <use xlink:href="#rim2" fill="#404040">
                               <set attributeName="fill" to="#808080" begin="reset.mouseover" end="reset.mouseout"/>
                       </use>
               </g>
        </defs>

<script type="text/javascript">
var viewWidth = 330;
var viewHeight = 734;
var sectionId = 'dynsection-1';
</script>
<script xlink:href="../../svgpan.js"/>
<svg id="graph" class="graph">
<g id="viewport">
<title>pocketmine\inventory\SimpleInventory</title>
<polygon fill="white" stroke="transparent" points="-4,4 -4,-730 325.5,-730 325.5,4 -4,4"/>
<!-- Node1 -->
<g id="node1" class="node">
<title>Node1</title>
<g id="a_node1"><a xlink:title=" ">
<polygon fill="#bfbfbf" stroke="black" points="95.5,-0.5 95.5,-123.5 227.5,-123.5 227.5,-0.5 95.5,-0.5"/>
<text text-anchor="start" x="103.5" y="-111.5" font-family="Helvetica,sans-Serif" font-size="10.00">pocketmine\inventory</text>
<text text-anchor="middle" x="161.5" y="-100.5" font-family="Helvetica,sans-Serif" font-size="10.00">\SimpleInventory</text>
<polyline fill="none" stroke="black" points="95.5,-93.5 227.5,-93.5 "/>
<text text-anchor="start" x="103.5" y="-81.5" font-family="Helvetica,sans-Serif" font-size="10.00"># $slots</text>
<polyline fill="none" stroke="black" points="95.5,-74.5 227.5,-74.5 "/>
<text text-anchor="start" x="103.5" y="-62.5" font-family="Helvetica,sans-Serif" font-size="10.00">+ __construct()</text>
<text text-anchor="start" x="103.5" y="-51.5" font-family="Helvetica,sans-Serif" font-size="10.00">+ getContents()</text>
<text text-anchor="start" x="103.5" y="-40.5" font-family="Helvetica,sans-Serif" font-size="10.00">+ getItem()</text>
<text text-anchor="start" x="103.5" y="-29.5" font-family="Helvetica,sans-Serif" font-size="10.00">+ getSize()</text>
<text text-anchor="start" x="103.5" y="-18.5" font-family="Helvetica,sans-Serif" font-size="10.00"># internalSetContents()</text>
<text text-anchor="start" x="103.5" y="-7.5" font-family="Helvetica,sans-Serif" font-size="10.00"># internalSetItem()</text>
</a>
</g>
</g>
<!-- Node2 -->
<g id="node2" class="node">
<title>Node2</title>
<g id="a_node2"><a xlink:href="../../d5/dc4/classpocketmine_1_1inventory_1_1_base_inventory.html" target="_top" xlink:title=" ">
<polygon fill="white" stroke="black" points="84,-161.5 84,-394.5 239,-394.5 239,-161.5 84,-161.5"/>
<text text-anchor="start" x="92" y="-382.5" font-family="Helvetica,sans-Serif" font-size="10.00">pocketmine\inventory</text>
<text text-anchor="middle" x="161.5" y="-371.5" font-family="Helvetica,sans-Serif" font-size="10.00">\BaseInventory</text>
<polyline fill="none" stroke="black" points="84,-364.5 239,-364.5 "/>
<text text-anchor="start" x="92" y="-352.5" font-family="Helvetica,sans-Serif" font-size="10.00"># $maxStackSize</text>
<text text-anchor="start" x="92" y="-341.5" font-family="Helvetica,sans-Serif" font-size="10.00"># $viewers</text>
<polyline fill="none" stroke="black" points="84,-334.5 239,-334.5 "/>
<text text-anchor="start" x="92" y="-322.5" font-family="Helvetica,sans-Serif" font-size="10.00">+ __construct()</text>
<text text-anchor="start" x="92" y="-311.5" font-family="Helvetica,sans-Serif" font-size="10.00">+ addItem()</text>
<text text-anchor="start" x="92" y="-300.5" font-family="Helvetica,sans-Serif" font-size="10.00">+ all()</text>
<text text-anchor="start" x="92" y="-289.5" font-family="Helvetica,sans-Serif" font-size="10.00">+ canAddItem()</text>
<text text-anchor="start" x="92" y="-278.5" font-family="Helvetica,sans-Serif" font-size="10.00">+ clear()</text>
<text text-anchor="start" x="92" y="-267.5" font-family="Helvetica,sans-Serif" font-size="10.00">+ clearAll()</text>
<text text-anchor="start" x="92" y="-256.5" font-family="Helvetica,sans-Serif" font-size="10.00">+ contains()</text>
<text text-anchor="start" x="92" y="-245.5" font-family="Helvetica,sans-Serif" font-size="10.00">+ first()</text>
<text text-anchor="start" x="92" y="-234.5" font-family="Helvetica,sans-Serif" font-size="10.00">+ firstEmpty()</text>
<text text-anchor="start" x="92" y="-223.5" font-family="Helvetica,sans-Serif" font-size="10.00">+ getAddableItemQuantity()</text>
<text text-anchor="start" x="92" y="-212.5" font-family="Helvetica,sans-Serif" font-size="10.00">and 14 more...</text>
<text text-anchor="start" x="92" y="-201.5" font-family="Helvetica,sans-Serif" font-size="10.00"># internalSetContents()</text>
<text text-anchor="start" x="92" y="-190.5" font-family="Helvetica,sans-Serif" font-size="10.00"># internalSetItem()</text>
<text text-anchor="start" x="92" y="-179.5" font-family="Helvetica,sans-Serif" font-size="10.00"># onContentChange()</text>
<text text-anchor="start" x="92" y="-168.5" font-family="Helvetica,sans-Serif" font-size="10.00"># onSlotChange()</text>
</a>
</g>
</g>
<!-- Node2&#45;&gt;Node1 -->
<g id="edge1" class="edge">
<title>Node2&#45;&gt;Node1</title>
<path fill="none" stroke="midnightblue" d="M161.5,-151.22C161.5,-141.68 161.5,-132.34 161.5,-123.53"/>
<polygon fill="none" stroke="midnightblue" points="158,-151.23 161.5,-161.23 165,-151.23 158,-151.23"/>
</g>
<!-- Node3 -->
<g id="node3" class="node">
<title>Node3</title>
<g id="a_node3"><a xlink:href="../../db/d39/interfacepocketmine_1_1inventory_1_1_inventory.html" target="_top" xlink:title=" ">
<polygon fill="white" stroke="#bfbfbf" points="0,-442.5 0,-620.5 155,-620.5 155,-442.5 0,-442.5"/>
<text text-anchor="start" x="8" y="-608.5" font-family="Helvetica,sans-Serif" font-size="10.00">pocketmine\inventory</text>
<text text-anchor="middle" x="77.5" y="-597.5" font-family="Helvetica,sans-Serif" font-size="10.00">\Inventory</text>
<polyline fill="none" stroke="#bfbfbf" points="0,-590.5 155,-590.5 "/>
<text text-anchor="middle" x="77.5" y="-578.5" font-family="Helvetica,sans-Serif" font-size="10.00"> </text>
<polyline fill="none" stroke="#bfbfbf" points="0,-571.5 155,-571.5 "/>
<text text-anchor="start" x="8" y="-559.5" font-family="Helvetica,sans-Serif" font-size="10.00">+ addItem()</text>
<text text-anchor="start" x="8" y="-548.5" font-family="Helvetica,sans-Serif" font-size="10.00">+ all()</text>
<text text-anchor="start" x="8" y="-537.5" font-family="Helvetica,sans-Serif" font-size="10.00">+ canAddItem()</text>
<text text-anchor="start" x="8" y="-526.5" font-family="Helvetica,sans-Serif" font-size="10.00">+ clear()</text>
<text text-anchor="start" x="8" y="-515.5" font-family="Helvetica,sans-Serif" font-size="10.00">+ clearAll()</text>
<text text-anchor="start" x="8" y="-504.5" font-family="Helvetica,sans-Serif" font-size="10.00">+ contains()</text>
<text text-anchor="start" x="8" y="-493.5" font-family="Helvetica,sans-Serif" font-size="10.00">+ first()</text>
<text text-anchor="start" x="8" y="-482.5" font-family="Helvetica,sans-Serif" font-size="10.00">+ firstEmpty()</text>
<text text-anchor="start" x="8" y="-471.5" font-family="Helvetica,sans-Serif" font-size="10.00">+ getAddableItemQuantity()</text>
<text text-anchor="start" x="8" y="-460.5" font-family="Helvetica,sans-Serif" font-size="10.00">+ getContents()</text>
<text text-anchor="start" x="8" y="-449.5" font-family="Helvetica,sans-Serif" font-size="10.00">and 15 more...</text>
</a>
</g>
</g>
<!-- Node3&#45;&gt;Node2 -->
<g id="edge2" class="edge">
<title>Node3&#45;&gt;Node2</title>
<path fill="none" stroke="midnightblue" d="M110.26,-432.41C114.37,-420.12 118.6,-407.45 122.79,-394.91"/>
<polygon fill="none" stroke="midnightblue" points="106.85,-431.59 107,-442.18 113.48,-433.81 106.85,-431.59"/>
</g>
<!-- Node4 -->
<g id="node4" class="node">
<title>Node4</title>
<g id="a_node4"><a xlink:title=" ">
<polygon fill="white" stroke="#bfbfbf" points="56,-668.5 56,-725.5 99,-725.5 99,-668.5 56,-668.5"/>
<text text-anchor="middle" x="77.5" y="-713.5" font-family="Helvetica,sans-Serif" font-size="10.00">const</text>
<polyline fill="none" stroke="#bfbfbf" points="56,-706.5 99,-706.5 "/>
<text text-anchor="middle" x="77.5" y="-694.5" font-family="Helvetica,sans-Serif" font-size="10.00"> </text>
<polyline fill="none" stroke="#bfbfbf" points="56,-687.5 99,-687.5 "/>
<text text-anchor="middle" x="77.5" y="-675.5" font-family="Helvetica,sans-Serif" font-size="10.00"> </text>
</a>
</g>
</g>
<!-- Node4&#45;&gt;Node3 -->
<g id="edge3" class="edge">
<title>Node4&#45;&gt;Node3</title>
<path fill="none" stroke="#404040" d="M77.5,-668.26C77.5,-658.01 77.5,-645.7 77.5,-632.74"/>
<polygon fill="none" stroke="#404040" points="77.5,-632.7 73.5,-626.7 77.5,-620.7 81.5,-626.7 77.5,-632.7"/>
<text text-anchor="middle" x="113" y="-642" font-family="Helvetica,sans-Serif" font-size="10.00"> +MAX_STACK</text>
</g>
<!-- Node5 -->
<g id="node5" class="node">
<title>Node5</title>
<g id="a_node5"><a xlink:href="../../dd/de5/classpocketmine_1_1utils_1_1_object_set.html" target="_top" xlink:title=" ">
<polygon fill="white" stroke="black" points="173.5,-475.5 173.5,-587.5 321.5,-587.5 321.5,-475.5 173.5,-475.5"/>
<text text-anchor="middle" x="247.5" y="-575.5" font-family="Helvetica,sans-Serif" font-size="10.00">pocketmine\utils\ObjectSet</text>
<polyline fill="none" stroke="black" points="173.5,-568.5 321.5,-568.5 "/>
<text text-anchor="middle" x="247.5" y="-556.5" font-family="Helvetica,sans-Serif" font-size="10.00"> </text>
<polyline fill="none" stroke="black" points="173.5,-549.5 321.5,-549.5 "/>
<text text-anchor="start" x="181.5" y="-537.5" font-family="Helvetica,sans-Serif" font-size="10.00">+ add()</text>
<text text-anchor="start" x="181.5" y="-526.5" font-family="Helvetica,sans-Serif" font-size="10.00">+ clear()</text>
<text text-anchor="start" x="181.5" y="-515.5" font-family="Helvetica,sans-Serif" font-size="10.00">+ contains()</text>
<text text-anchor="start" x="181.5" y="-504.5" font-family="Helvetica,sans-Serif" font-size="10.00">+ getIterator()</text>
<text text-anchor="start" x="181.5" y="-493.5" font-family="Helvetica,sans-Serif" font-size="10.00">+ remove()</text>
<text text-anchor="start" x="181.5" y="-482.5" font-family="Helvetica,sans-Serif" font-size="10.00">+ toArray()</text>
</a>
</g>
</g>
<!-- Node5&#45;&gt;Node2 -->
<g id="edge4" class="edge">
<title>Node5&#45;&gt;Node2</title>
<path fill="none" stroke="#404040" d="M228.63,-475.31C221.61,-454.77 213.31,-430.53 205,-406.21"/>
<polygon fill="none" stroke="#404040" points="204.93,-406.02 199.21,-401.64 201.05,-394.67 206.78,-399.05 204.93,-406.02"/>
<text text-anchor="middle" x="240.5" y="-416" font-family="Helvetica,sans-Serif" font-size="10.00"> #$listeners</text>
</g>
<!-- Node6 -->
<g id="node6" class="node">
<title>Node6</title>
<g id="a_node6"><a xlink:title=" ">
<polygon fill="white" stroke="#bfbfbf" points="196,-668.5 196,-725.5 299,-725.5 299,-668.5 196,-668.5"/>
<text text-anchor="middle" x="247.5" y="-713.5" font-family="Helvetica,sans-Serif" font-size="10.00">IteratorAggregate</text>
<polyline fill="none" stroke="#bfbfbf" points="196,-706.5 299,-706.5 "/>
<text text-anchor="middle" x="247.5" y="-694.5" font-family="Helvetica,sans-Serif" font-size="10.00"> </text>
<polyline fill="none" stroke="#bfbfbf" points="196,-687.5 299,-687.5 "/>
<text text-anchor="middle" x="247.5" y="-675.5" font-family="Helvetica,sans-Serif" font-size="10.00"> </text>
</a>
</g>
</g>
<!-- Node6&#45;&gt;Node5 -->
<g id="edge5" class="edge">
<title>Node6&#45;&gt;Node5</title>
<path fill="none" stroke="midnightblue" d="M247.5,-658.15C247.5,-637.19 247.5,-610.76 247.5,-587.55"/>
<polygon fill="none" stroke="midnightblue" points="244,-658.26 247.5,-668.26 251,-658.26 244,-658.26"/>
</g>
</g>
</svg>
        <g id="navigator" transform="translate(0 0)" fill="#404254">
                <rect fill="#f2f5e9" fill-opacity="0.5" stroke="#606060" stroke-width=".5" x="0" y="0" width="60" height="60"/>
                <use id="zoomplus" xlink:href="#zoomPlus" x="17" y="9" onmousedown="handleZoom(evt,'in')"/>
                <use id="zoomminus" xlink:href="#zoomMin" x="42" y="9" onmousedown="handleZoom(evt,'out')"/>
                <use id="reset" xlink:href="#resetDef" x="30" y="36" onmousedown="handleReset()"/>
                <g id="arrowUp" xlink:href="#dirArrow" transform="translate(30 24)" onmousedown="handlePan(0,-1)">
                  <use xlink:href="#rim" fill="#404040">
                        <set attributeName="fill" to="#808080" begin="arrowUp.mouseover" end="arrowUp.mouseout"/>
                  </use>
                  <path fill="none" stroke="white" stroke-width="1.5" d="M0,-3.0v7 M-2.5,-0.5L0,-3.0L2.5,-0.5"/>
                </g>
                <g id="arrowRight" xlink:href="#dirArrow" transform="rotate(90) translate(36 -43)" onmousedown="handlePan(1,0)">
                  <use xlink:href="#rim" fill="#404040">
                        <set attributeName="fill" to="#808080" begin="arrowRight.mouseover" end="arrowRight.mouseout"/>
                  </use>
                  <path fill="none" stroke="white" stroke-width="1.5" d="M0,-3.0v7 M-2.5,-0.5L0,-3.0L2.5,-0.5"/>
                </g>
                <g id="arrowDown" xlink:href="#dirArrow" transform="rotate(180) translate(-30 -48)" onmousedown="handlePan(0,1)">
                  <use xlink:href="#rim" fill="#404040">
                        <set attributeName="fill" to="#808080" begin="arrowDown.mouseover" end="arrowDown.mouseout"/>
                  </use>
                  <path fill="none" stroke="white" stroke-width="1.5" d="M0,-3.0v7 M-2.5,-0.5L0,-3.0L2.5,-0.5"/>
                </g>
                <g id="arrowLeft" xlink:href="#dirArrow" transform="rotate(270) translate(-36 17)" onmousedown="handlePan(-1,0)">
                  <use xlink:href="#rim" fill="#404040">
                        <set attributeName="fill" to="#808080" begin="arrowLeft.mouseover" end="arrowLeft.mouseout"/>
                  </use>
                  <path fill="none" stroke="white" stroke-width="1.5" d="M0,-3.0v7 M-2.5,-0.5L0,-3.0L2.5,-0.5"/>
                </g>
        </g>
        <svg viewBox="0 0 15 15" width="100%" height="30px" preserveAspectRatio="xMaxYMin meet">
         <g id="arrow_out" transform="scale(0.3 0.3)">
          <a xlink:href="classpocketmine_1_1inventory_1_1_simple_inventory__coll__graph_org.svg" target="_base">
           <rect id="button" ry="5" rx="5" y="6" x="6" height="38" width="38"
                fill="#f2f5e9" fill-opacity="0.5" stroke="#606060" stroke-width="1.0"/>
           <path id="arrow"
             d="M 11.500037,31.436501 C 11.940474,20.09759 22.043105,11.32322 32.158766,21.979434 L 37.068811,17.246167 C 37.068811,17.246167 37.088388,32 37.088388,32 L 22.160133,31.978069 C 22.160133,31.978069 26.997745,27.140456 26.997745,27.140456 C 18.528582,18.264221 13.291696,25.230495 11.500037,31.436501 z"
             style="fill:#404040;"/>
          </a>
         </g>
        </svg>
</svg>
