<?xml version="1.0" encoding="UTF-8" standalone="no"?>
<!DOCTYPE svg PUBLIC "-//W3C//DTD SVG 1.1//EN"
 "http://www.w3.org/Graphics/SVG/1.1/DTD/svg11.dtd">
<!-- Generated by graphviz version 2.43.0 (0)
 -->
<!-- Title: pocketmine\errorhandler\ErrorToExceptionHandler\trapAndRemoveFalse Pages: 1 -->
<svg width="369pt" height="170pt"
 viewBox="0.00 0.00 369.00 170.00" xmlns="http://www.w3.org/2000/svg" xmlns:xlink="http://www.w3.org/1999/xlink">
<g id="graph0" class="graph" transform="scale(1 1) rotate(0) translate(4 166)">
<title>pocketmine\errorhandler\ErrorToExceptionHandler\trapAndRemoveFalse</title>
<polygon fill="white" stroke="transparent" points="-4,4 -4,-166 365,-166 365,4 -4,4"/>
<!-- Node1 -->
<g id="node1" class="node">
<title>Node1</title>
<g id="a_node1"><a xlink:title=" ">
<polygon fill="#bfbfbf" stroke="black" points="221,-60.5 221,-101.5 361,-101.5 361,-60.5 221,-60.5"/>
<text text-anchor="start" x="229" y="-89.5" font-family="Helvetica,sans-Serif" font-size="10.00">pocketmine\errorhandler</text>
<text text-anchor="start" x="229" y="-78.5" font-family="Helvetica,sans-Serif" font-size="10.00">\ErrorToExceptionHandler</text>
<text text-anchor="middle" x="291" y="-67.5" font-family="Helvetica,sans-Serif" font-size="10.00">\trapAndRemoveFalse</text>
</a>
</g>
</g>
<!-- Node2 -->
<g id="node2" class="node">
<title>Node2</title>
<g id="a_node2"><a xlink:href="../../d3/d62/classpocketmine_1_1resourcepacks_1_1_resource_pack_manager.html#aa797c1f48a68c113136e3ddde26fd031" target="_top" xlink:title=" ">
<polygon fill="white" stroke="black" points="19,-120.5 19,-161.5 166,-161.5 166,-120.5 19,-120.5"/>
<text text-anchor="start" x="27" y="-149.5" font-family="Helvetica,sans-Serif" font-size="10.00">pocketmine\resourcepacks</text>
<text text-anchor="start" x="27" y="-138.5" font-family="Helvetica,sans-Serif" font-size="10.00">\ResourcePackManager\_</text>
<text text-anchor="middle" x="92.5" y="-127.5" font-family="Helvetica,sans-Serif" font-size="10.00">_construct</text>
</a>
</g>
</g>
<!-- Node1&#45;&gt;Node2 -->
<g id="edge1" class="edge">
<title>Node1&#45;&gt;Node2</title>
<path fill="none" stroke="midnightblue" d="M212.67,-104.61C195.52,-109.85 177.47,-115.36 160.76,-120.46"/>
<polygon fill="midnightblue" stroke="midnightblue" points="214.11,-107.83 222.65,-101.56 212.06,-101.14 214.11,-107.83"/>
</g>
<!-- Node3 -->
<g id="node3" class="node">
<title>Node3</title>
<g id="a_node3"><a xlink:href="../../d2/da5/classpocketmine_1_1data_1_1bedrock_1_1item_1_1upgrade_1_1_item_id_meta_upgrade_schema_utils.html#a5dbcd086c0a225cecdfdb7c7e45b2283" target="_top" xlink:title=" ">
<polygon fill="white" stroke="black" points="0,-60.5 0,-101.5 185,-101.5 185,-60.5 0,-60.5"/>
<text text-anchor="start" x="8" y="-89.5" font-family="Helvetica,sans-Serif" font-size="10.00">pocketmine\data\bedrock</text>
<text text-anchor="start" x="8" y="-78.5" font-family="Helvetica,sans-Serif" font-size="10.00">\item\upgrade\ItemIdMetaUpgrade</text>
<text text-anchor="middle" x="92.5" y="-67.5" font-family="Helvetica,sans-Serif" font-size="10.00">SchemaUtils\loadSchemas</text>
</a>
</g>
</g>
<!-- Node1&#45;&gt;Node3 -->
<g id="edge2" class="edge">
<title>Node1&#45;&gt;Node3</title>
<path fill="none" stroke="midnightblue" d="M210.8,-81C202.34,-81 193.68,-81 185.1,-81"/>
<polygon fill="midnightblue" stroke="midnightblue" points="211,-84.5 221,-81 211,-77.5 211,-84.5"/>
</g>
<!-- Node4 -->
<g id="node4" class="node">
<title>Node4</title>
<g id="a_node4"><a xlink:href="../../d7/d2e/classpocketmine_1_1data_1_1bedrock_1_1block_1_1upgrade_1_1_block_state_upgrade_schema_utils.html#a85854f903ba284786fef30b7984279b4" target="_top" xlink:title=" ">
<polygon fill="white" stroke="black" points="0,-0.5 0,-41.5 185,-41.5 185,-0.5 0,-0.5"/>
<text text-anchor="start" x="8" y="-29.5" font-family="Helvetica,sans-Serif" font-size="10.00">pocketmine\data\bedrock</text>
<text text-anchor="start" x="8" y="-18.5" font-family="Helvetica,sans-Serif" font-size="10.00">\block\upgrade\BlockStateUpgrade</text>
<text text-anchor="middle" x="92.5" y="-7.5" font-family="Helvetica,sans-Serif" font-size="10.00">SchemaUtils\loadSchemas</text>
</a>
</g>
</g>
<!-- Node1&#45;&gt;Node4 -->
<g id="edge3" class="edge">
<title>Node1&#45;&gt;Node4</title>
<path fill="none" stroke="midnightblue" d="M212.67,-57.39C195.52,-52.15 177.47,-46.64 160.76,-41.54"/>
<polygon fill="midnightblue" stroke="midnightblue" points="212.06,-60.86 222.65,-60.44 214.11,-54.17 212.06,-60.86"/>
</g>
</g>
</svg>
