<?xml version="1.0" encoding="UTF-8" standalone="no"?>
<!DOCTYPE svg PUBLIC "-//W3C//DTD SVG 1.1//EN"
 "http://www.w3.org/Graphics/SVG/1.1/DTD/svg11.dtd">
<!-- Generated by graphviz version 2.43.0 (0)
 -->
<!-- Title: pocketmine\item\FishingRod Pages: 1 -->
<svg width="454pt" height="1116pt"
 viewBox="0.00 0.00 453.50 1116.00" xmlns="http://www.w3.org/2000/svg" xmlns:xlink="http://www.w3.org/1999/xlink">
<g id="graph0" class="graph" transform="scale(1 1) rotate(0) translate(4 1112)">
<title>pocketmine\item\FishingRod</title>
<polygon fill="white" stroke="transparent" points="-4,4 -4,-1112 449.5,-1112 449.5,4 -4,4"/>
<!-- Node1 -->
<g id="node1" class="node">
<title>Node1</title>
<g id="a_node1"><a xlink:title=" ">
<polygon fill="#bfbfbf" stroke="black" points="56.5,-0.5 56.5,-68.5 211.5,-68.5 211.5,-0.5 56.5,-0.5"/>
<text text-anchor="middle" x="134" y="-56.5" font-family="Helvetica,sans-Serif" font-size="10.00">pocketmine\item\FishingRod</text>
<polyline fill="none" stroke="black" points="56.5,-49.5 211.5,-49.5 "/>
<text text-anchor="middle" x="134" y="-37.5" font-family="Helvetica,sans-Serif" font-size="10.00"> </text>
<polyline fill="none" stroke="black" points="56.5,-30.5 211.5,-30.5 "/>
<text text-anchor="start" x="64.5" y="-18.5" font-family="Helvetica,sans-Serif" font-size="10.00">+ getMaxDurability()</text>
<text text-anchor="start" x="64.5" y="-7.5" font-family="Helvetica,sans-Serif" font-size="10.00">+ getMaxStackSize()</text>
</a>
</g>
</g>
<!-- Node2 -->
<g id="node2" class="node">
<title>Node2</title>
<g id="a_node2"><a xlink:href="../../dc/d20/classpocketmine_1_1item_1_1_durable.html" target="_top" xlink:title=" ">
<polygon fill="white" stroke="#bfbfbf" points="35.5,-106.5 35.5,-284.5 232.5,-284.5 232.5,-106.5 35.5,-106.5"/>
<text text-anchor="middle" x="134" y="-272.5" font-family="Helvetica,sans-Serif" font-size="10.00">pocketmine\item\Durable</text>
<polyline fill="none" stroke="#bfbfbf" points="35.5,-265.5 232.5,-265.5 "/>
<text text-anchor="start" x="43.5" y="-253.5" font-family="Helvetica,sans-Serif" font-size="10.00"># $damage</text>
<polyline fill="none" stroke="#bfbfbf" points="35.5,-246.5 232.5,-246.5 "/>
<text text-anchor="start" x="43.5" y="-234.5" font-family="Helvetica,sans-Serif" font-size="10.00">+ applyDamage()</text>
<text text-anchor="start" x="43.5" y="-223.5" font-family="Helvetica,sans-Serif" font-size="10.00">+ getDamage()</text>
<text text-anchor="start" x="43.5" y="-212.5" font-family="Helvetica,sans-Serif" font-size="10.00">+ getMaxDurability()</text>
<text text-anchor="start" x="43.5" y="-201.5" font-family="Helvetica,sans-Serif" font-size="10.00">+ getMeta()</text>
<text text-anchor="start" x="43.5" y="-190.5" font-family="Helvetica,sans-Serif" font-size="10.00">+ isBroken()</text>
<text text-anchor="start" x="43.5" y="-179.5" font-family="Helvetica,sans-Serif" font-size="10.00">+ isUnbreakable()</text>
<text text-anchor="start" x="43.5" y="-168.5" font-family="Helvetica,sans-Serif" font-size="10.00">+ setDamage()</text>
<text text-anchor="start" x="43.5" y="-157.5" font-family="Helvetica,sans-Serif" font-size="10.00">+ setUnbreakable()</text>
<text text-anchor="start" x="43.5" y="-146.5" font-family="Helvetica,sans-Serif" font-size="10.00"># deserializeCompoundTag()</text>
<text text-anchor="start" x="43.5" y="-135.5" font-family="Helvetica,sans-Serif" font-size="10.00"># getUnbreakingDamageReduction()</text>
<text text-anchor="start" x="43.5" y="-124.5" font-family="Helvetica,sans-Serif" font-size="10.00"># onBroken()</text>
<text text-anchor="start" x="43.5" y="-113.5" font-family="Helvetica,sans-Serif" font-size="10.00"># serializeCompoundTag()</text>
</a>
</g>
</g>
<!-- Node2&#45;&gt;Node1 -->
<g id="edge1" class="edge">
<title>Node2&#45;&gt;Node1</title>
<path fill="none" stroke="midnightblue" d="M134,-95.98C134,-86.31 134,-77.04 134,-68.79"/>
<polygon fill="none" stroke="midnightblue" points="130.5,-96.17 134,-106.17 137.5,-96.17 130.5,-96.17"/>
</g>
<!-- Node3 -->
<g id="node3" class="node">
<title>Node3</title>
<g id="a_node3"><a xlink:href="../../d5/d8a/classpocketmine_1_1item_1_1_item.html" target="_top" xlink:title=" ">
<polygon fill="white" stroke="#bfbfbf" points="55,-322.5 55,-577.5 213,-577.5 213,-322.5 55,-322.5"/>
<text text-anchor="middle" x="134" y="-565.5" font-family="Helvetica,sans-Serif" font-size="10.00">pocketmine\item\Item</text>
<polyline fill="none" stroke="#bfbfbf" points="55,-558.5 213,-558.5 "/>
<text text-anchor="start" x="63" y="-546.5" font-family="Helvetica,sans-Serif" font-size="10.00"># $canDestroy</text>
<text text-anchor="start" x="63" y="-535.5" font-family="Helvetica,sans-Serif" font-size="10.00"># $canPlaceOn</text>
<text text-anchor="start" x="63" y="-524.5" font-family="Helvetica,sans-Serif" font-size="10.00"># $count</text>
<text text-anchor="start" x="63" y="-513.5" font-family="Helvetica,sans-Serif" font-size="10.00"># $customName</text>
<text text-anchor="start" x="63" y="-502.5" font-family="Helvetica,sans-Serif" font-size="10.00"># $lore</text>
<polyline fill="none" stroke="#bfbfbf" points="55,-495.5 213,-495.5 "/>
<text text-anchor="start" x="63" y="-483.5" font-family="Helvetica,sans-Serif" font-size="10.00">+ __construct()</text>
<text text-anchor="start" x="63" y="-472.5" font-family="Helvetica,sans-Serif" font-size="10.00">+ __clone()</text>
<text text-anchor="start" x="63" y="-461.5" font-family="Helvetica,sans-Serif" font-size="10.00">+ __toString()</text>
<text text-anchor="start" x="63" y="-450.5" font-family="Helvetica,sans-Serif" font-size="10.00">+ canBePlaced()</text>
<text text-anchor="start" x="63" y="-439.5" font-family="Helvetica,sans-Serif" font-size="10.00">+ canStackWith()</text>
<text text-anchor="start" x="63" y="-428.5" font-family="Helvetica,sans-Serif" font-size="10.00">+ clearCustomBlockData()</text>
<text text-anchor="start" x="63" y="-417.5" font-family="Helvetica,sans-Serif" font-size="10.00">+ clearCustomName()</text>
<text text-anchor="start" x="63" y="-406.5" font-family="Helvetica,sans-Serif" font-size="10.00">+ clearNamedTag()</text>
<text text-anchor="start" x="63" y="-395.5" font-family="Helvetica,sans-Serif" font-size="10.00">+ equals()</text>
<text text-anchor="start" x="63" y="-384.5" font-family="Helvetica,sans-Serif" font-size="10.00">+ equalsExact()</text>
<text text-anchor="start" x="63" y="-373.5" font-family="Helvetica,sans-Serif" font-size="10.00">and 41 more...</text>
<text text-anchor="start" x="63" y="-362.5" font-family="Helvetica,sans-Serif" font-size="10.00">+ jsonDeserialize()</text>
<text text-anchor="start" x="63" y="-351.5" font-family="Helvetica,sans-Serif" font-size="10.00">+ nbtDeserialize()</text>
<text text-anchor="start" x="63" y="-340.5" font-family="Helvetica,sans-Serif" font-size="10.00"># deserializeCompoundTag()</text>
<text text-anchor="start" x="63" y="-329.5" font-family="Helvetica,sans-Serif" font-size="10.00"># serializeCompoundTag()</text>
</a>
</g>
</g>
<!-- Node3&#45;&gt;Node2 -->
<g id="edge2" class="edge">
<title>Node3&#45;&gt;Node2</title>
<path fill="none" stroke="midnightblue" d="M134,-312.19C134,-302.82 134,-293.53 134,-284.53"/>
<polygon fill="none" stroke="midnightblue" points="130.5,-312.38 134,-322.38 137.5,-312.38 130.5,-312.38"/>
</g>
<!-- Node4 -->
<g id="node4" class="node">
<title>Node4</title>
<g id="a_node4"><a xlink:title=" ">
<polygon fill="white" stroke="#bfbfbf" points="0,-757.5 0,-814.5 94,-814.5 94,-757.5 0,-757.5"/>
<text text-anchor="middle" x="47" y="-802.5" font-family="Helvetica,sans-Serif" font-size="10.00">JsonSerializable</text>
<polyline fill="none" stroke="#bfbfbf" points="0,-795.5 94,-795.5 "/>
<text text-anchor="middle" x="47" y="-783.5" font-family="Helvetica,sans-Serif" font-size="10.00"> </text>
<polyline fill="none" stroke="#bfbfbf" points="0,-776.5 94,-776.5 "/>
<text text-anchor="middle" x="47" y="-764.5" font-family="Helvetica,sans-Serif" font-size="10.00"> </text>
</a>
</g>
</g>
<!-- Node4&#45;&gt;Node3 -->
<g id="edge3" class="edge">
<title>Node4&#45;&gt;Node3</title>
<path fill="none" stroke="midnightblue" d="M56.76,-747.54C67.46,-706.47 85.21,-638.32 101,-577.7"/>
<polygon fill="none" stroke="midnightblue" points="53.33,-746.82 54.19,-757.38 60.1,-748.59 53.33,-746.82"/>
</g>
<!-- Node5 -->
<g id="node5" class="node">
<title>Node5</title>
<g id="a_node5"><a xlink:title=" ">
<polygon fill="white" stroke="#bfbfbf" points="112.5,-757.5 112.5,-814.5 155.5,-814.5 155.5,-757.5 112.5,-757.5"/>
<text text-anchor="middle" x="134" y="-802.5" font-family="Helvetica,sans-Serif" font-size="10.00">const</text>
<polyline fill="none" stroke="#bfbfbf" points="112.5,-795.5 155.5,-795.5 "/>
<text text-anchor="middle" x="134" y="-783.5" font-family="Helvetica,sans-Serif" font-size="10.00"> </text>
<polyline fill="none" stroke="#bfbfbf" points="112.5,-776.5 155.5,-776.5 "/>
<text text-anchor="middle" x="134" y="-764.5" font-family="Helvetica,sans-Serif" font-size="10.00"> </text>
</a>
</g>
</g>
<!-- Node5&#45;&gt;Node3 -->
<g id="edge4" class="edge">
<title>Node5&#45;&gt;Node3</title>
<path fill="none" stroke="#404040" d="M134,-757.38C134,-720.46 134,-652.36 134,-589.74"/>
<polygon fill="none" stroke="#404040" points="134,-589.7 130,-583.7 134,-577.7 138,-583.7 134,-589.7"/>
<text text-anchor="middle" x="201" y="-643" font-family="Helvetica,sans-Serif" font-size="10.00"> +TAG_BLOCK_ENTITY_TAG</text>
<text text-anchor="middle" x="201" y="-632" font-family="Helvetica,sans-Serif" font-size="10.00">+TAG_DISPLAY</text>
<text text-anchor="middle" x="201" y="-621" font-family="Helvetica,sans-Serif" font-size="10.00">+TAG_DISPLAY_LORE</text>
<text text-anchor="middle" x="201" y="-610" font-family="Helvetica,sans-Serif" font-size="10.00">+TAG_DISPLAY_NAME</text>
<text text-anchor="middle" x="201" y="-599" font-family="Helvetica,sans-Serif" font-size="10.00">+TAG_ENCH</text>
</g>
<!-- Node6 -->
<g id="node6" class="node">
<title>Node6</title>
<g id="a_node6"><a xlink:href="../../de/d67/classpocketmine_1_1nbt_1_1tag_1_1_compound_tag.html" target="_top" xlink:title=" ">
<polygon fill="white" stroke="black" points="231,-669.5 231,-902.5 351,-902.5 351,-669.5 231,-669.5"/>
<text text-anchor="start" x="239" y="-890.5" font-family="Helvetica,sans-Serif" font-size="10.00">pocketmine\nbt\tag</text>
<text text-anchor="middle" x="291" y="-879.5" font-family="Helvetica,sans-Serif" font-size="10.00">\CompoundTag</text>
<polyline fill="none" stroke="black" points="231,-872.5 351,-872.5 "/>
<text text-anchor="middle" x="291" y="-860.5" font-family="Helvetica,sans-Serif" font-size="10.00"> </text>
<polyline fill="none" stroke="black" points="231,-853.5 351,-853.5 "/>
<text text-anchor="start" x="239" y="-841.5" font-family="Helvetica,sans-Serif" font-size="10.00">+ __construct()</text>
<text text-anchor="start" x="239" y="-830.5" font-family="Helvetica,sans-Serif" font-size="10.00">+ __clone()</text>
<text text-anchor="start" x="239" y="-819.5" font-family="Helvetica,sans-Serif" font-size="10.00">+ count()</text>
<text text-anchor="start" x="239" y="-808.5" font-family="Helvetica,sans-Serif" font-size="10.00">+ equals()</text>
<text text-anchor="start" x="239" y="-797.5" font-family="Helvetica,sans-Serif" font-size="10.00">+ getByte()</text>
<text text-anchor="start" x="239" y="-786.5" font-family="Helvetica,sans-Serif" font-size="10.00">+ getByteArray()</text>
<text text-anchor="start" x="239" y="-775.5" font-family="Helvetica,sans-Serif" font-size="10.00">+ getCompoundTag()</text>
<text text-anchor="start" x="239" y="-764.5" font-family="Helvetica,sans-Serif" font-size="10.00">+ getCount()</text>
<text text-anchor="start" x="239" y="-753.5" font-family="Helvetica,sans-Serif" font-size="10.00">+ getDouble()</text>
<text text-anchor="start" x="239" y="-742.5" font-family="Helvetica,sans-Serif" font-size="10.00">+ getFloat()</text>
<text text-anchor="start" x="239" y="-731.5" font-family="Helvetica,sans-Serif" font-size="10.00">and 23 more...</text>
<text text-anchor="start" x="239" y="-720.5" font-family="Helvetica,sans-Serif" font-size="10.00">+ create()</text>
<text text-anchor="start" x="239" y="-709.5" font-family="Helvetica,sans-Serif" font-size="10.00">+ read()</text>
<text text-anchor="start" x="239" y="-698.5" font-family="Helvetica,sans-Serif" font-size="10.00"># getTypeName()</text>
<text text-anchor="start" x="239" y="-687.5" font-family="Helvetica,sans-Serif" font-size="10.00"># makeCopy()</text>
<text text-anchor="start" x="239" y="-676.5" font-family="Helvetica,sans-Serif" font-size="10.00"># stringifyValue()</text>
</a>
</g>
</g>
<!-- Node6&#45;&gt;Node3 -->
<g id="edge5" class="edge">
<title>Node6&#45;&gt;Node3</title>
<path fill="none" stroke="#404040" d="M289.21,-669.39C285.66,-644.37 279.46,-618.64 269,-596 257.5,-571.11 240.08,-547.67 221.53,-527.18"/>
<polygon fill="none" stroke="#404040" points="221.42,-527.06 214.4,-525.4 213.24,-518.28 220.26,-519.94 221.42,-527.06"/>
<text text-anchor="middle" x="330.5" y="-621" font-family="Helvetica,sans-Serif" font-size="10.00"> #$blockEntityTag</text>
</g>
<!-- Node7 -->
<g id="node7" class="node">
<title>Node7</title>
<g id="a_node7"><a xlink:href="../../dc/d26/classpocketmine_1_1nbt_1_1tag_1_1_tag.html" target="_top" xlink:title=" ">
<polygon fill="white" stroke="#bfbfbf" points="108.5,-940.5 108.5,-1107.5 239.5,-1107.5 239.5,-940.5 108.5,-940.5"/>
<text text-anchor="middle" x="174" y="-1095.5" font-family="Helvetica,sans-Serif" font-size="10.00">pocketmine\nbt\tag\Tag</text>
<polyline fill="none" stroke="#bfbfbf" points="108.5,-1088.5 239.5,-1088.5 "/>
<text text-anchor="start" x="116.5" y="-1076.5" font-family="Helvetica,sans-Serif" font-size="10.00"># $cloning</text>
<polyline fill="none" stroke="#bfbfbf" points="108.5,-1069.5 239.5,-1069.5 "/>
<text text-anchor="start" x="116.5" y="-1057.5" font-family="Helvetica,sans-Serif" font-size="10.00">+ __toString()</text>
<text text-anchor="start" x="116.5" y="-1046.5" font-family="Helvetica,sans-Serif" font-size="10.00">+ equals()</text>
<text text-anchor="start" x="116.5" y="-1035.5" font-family="Helvetica,sans-Serif" font-size="10.00">+ getType()</text>
<text text-anchor="start" x="116.5" y="-1024.5" font-family="Helvetica,sans-Serif" font-size="10.00">+ getValue()</text>
<text text-anchor="start" x="116.5" y="-1013.5" font-family="Helvetica,sans-Serif" font-size="10.00">+ safeClone()</text>
<text text-anchor="start" x="116.5" y="-1002.5" font-family="Helvetica,sans-Serif" font-size="10.00">+ toString()</text>
<text text-anchor="start" x="116.5" y="-991.5" font-family="Helvetica,sans-Serif" font-size="10.00">+ write()</text>
<text text-anchor="start" x="116.5" y="-980.5" font-family="Helvetica,sans-Serif" font-size="10.00"># getTypeName()</text>
<text text-anchor="start" x="116.5" y="-969.5" font-family="Helvetica,sans-Serif" font-size="10.00"># makeCopy()</text>
<text text-anchor="start" x="116.5" y="-958.5" font-family="Helvetica,sans-Serif" font-size="10.00"># stringifyValue()</text>
<text text-anchor="start" x="116.5" y="-947.5" font-family="Helvetica,sans-Serif" font-size="10.00"># restrictArgCount()</text>
</a>
</g>
</g>
<!-- Node7&#45;&gt;Node6 -->
<g id="edge6" class="edge">
<title>Node7&#45;&gt;Node6</title>
<path fill="none" stroke="midnightblue" d="M219.37,-931.48C224.05,-922.04 228.85,-912.35 233.65,-902.69"/>
<polygon fill="none" stroke="midnightblue" points="216.23,-929.94 214.92,-940.46 222.5,-933.05 216.23,-929.94"/>
</g>
<!-- Node8 -->
<g id="node8" class="node">
<title>Node8</title>
<g id="a_node8"><a xlink:title=" ">
<polygon fill="white" stroke="#bfbfbf" points="258,-995.5 258,-1052.5 324,-1052.5 324,-995.5 258,-995.5"/>
<text text-anchor="middle" x="291" y="-1040.5" font-family="Helvetica,sans-Serif" font-size="10.00">Countable</text>
<polyline fill="none" stroke="#bfbfbf" points="258,-1033.5 324,-1033.5 "/>
<text text-anchor="middle" x="291" y="-1021.5" font-family="Helvetica,sans-Serif" font-size="10.00"> </text>
<polyline fill="none" stroke="#bfbfbf" points="258,-1014.5 324,-1014.5 "/>
<text text-anchor="middle" x="291" y="-1002.5" font-family="Helvetica,sans-Serif" font-size="10.00"> </text>
</a>
</g>
</g>
<!-- Node8&#45;&gt;Node6 -->
<g id="edge7" class="edge">
<title>Node8&#45;&gt;Node6</title>
<path fill="none" stroke="midnightblue" d="M291,-985.32C291,-962.7 291,-932.6 291,-902.69"/>
<polygon fill="none" stroke="midnightblue" points="287.5,-985.47 291,-995.47 294.5,-985.47 287.5,-985.47"/>
</g>
<!-- Node9 -->
<g id="node9" class="node">
<title>Node9</title>
<g id="a_node9"><a xlink:title=" ">
<polygon fill="white" stroke="#bfbfbf" points="342.5,-995.5 342.5,-1052.5 445.5,-1052.5 445.5,-995.5 342.5,-995.5"/>
<text text-anchor="middle" x="394" y="-1040.5" font-family="Helvetica,sans-Serif" font-size="10.00">IteratorAggregate</text>
<polyline fill="none" stroke="#bfbfbf" points="342.5,-1033.5 445.5,-1033.5 "/>
<text text-anchor="middle" x="394" y="-1021.5" font-family="Helvetica,sans-Serif" font-size="10.00"> </text>
<polyline fill="none" stroke="#bfbfbf" points="342.5,-1014.5 445.5,-1014.5 "/>
<text text-anchor="middle" x="394" y="-1002.5" font-family="Helvetica,sans-Serif" font-size="10.00"> </text>
</a>
</g>
</g>
<!-- Node9&#45;&gt;Node6 -->
<g id="edge8" class="edge">
<title>Node9&#45;&gt;Node6</title>
<path fill="none" stroke="midnightblue" d="M377.95,-986.23C368.04,-963.52 354.72,-933 341.49,-902.69"/>
<polygon fill="none" stroke="midnightblue" points="374.78,-987.7 381.98,-995.47 381.19,-984.9 374.78,-987.7"/>
</g>
</g>
</svg>
