<?xml version="1.0" encoding="UTF-8" standalone="no"?>
<!DOCTYPE svg PUBLIC "-//W3C//DTD SVG 1.1//EN"
 "http://www.w3.org/Graphics/SVG/1.1/DTD/svg11.dtd">
<!-- Generated by graphviz version 2.43.0 (0)
 -->
<!-- Title: pocketmine\item\Hoe Pages: 1 -->
<svg width="454pt" height="1426pt"
 viewBox="0.00 0.00 453.50 1426.00" xmlns="http://www.w3.org/2000/svg" xmlns:xlink="http://www.w3.org/1999/xlink">
<g id="graph0" class="graph" transform="scale(1 1) rotate(0) translate(4 1422)">
<title>pocketmine\item\Hoe</title>
<polygon fill="white" stroke="transparent" points="-4,4 -4,-1422 449.5,-1422 449.5,4 -4,4"/>
<!-- Node1 -->
<g id="node1" class="node">
<title>Node1</title>
<g id="a_node1"><a xlink:title=" ">
<polygon fill="#bfbfbf" stroke="black" points="156,-0.5 156,-79.5 278,-79.5 278,-0.5 156,-0.5"/>
<text text-anchor="middle" x="217" y="-67.5" font-family="Helvetica,sans-Serif" font-size="10.00">pocketmine\item\Hoe</text>
<polyline fill="none" stroke="black" points="156,-60.5 278,-60.5 "/>
<text text-anchor="middle" x="217" y="-48.5" font-family="Helvetica,sans-Serif" font-size="10.00"> </text>
<polyline fill="none" stroke="black" points="156,-41.5 278,-41.5 "/>
<text text-anchor="start" x="164" y="-29.5" font-family="Helvetica,sans-Serif" font-size="10.00">+ getBlockToolType()</text>
<text text-anchor="start" x="164" y="-18.5" font-family="Helvetica,sans-Serif" font-size="10.00">+ onAttackEntity()</text>
<text text-anchor="start" x="164" y="-7.5" font-family="Helvetica,sans-Serif" font-size="10.00">+ onDestroyBlock()</text>
</a>
</g>
</g>
<!-- Node2 -->
<g id="node2" class="node">
<title>Node2</title>
<g id="a_node2"><a xlink:href="../../de/dee/classpocketmine_1_1item_1_1_tiered_tool.html" target="_top" xlink:title=" ">
<polygon fill="white" stroke="#bfbfbf" points="139.5,-117.5 139.5,-229.5 294.5,-229.5 294.5,-117.5 139.5,-117.5"/>
<text text-anchor="middle" x="217" y="-217.5" font-family="Helvetica,sans-Serif" font-size="10.00">pocketmine\item\TieredTool</text>
<polyline fill="none" stroke="#bfbfbf" points="139.5,-210.5 294.5,-210.5 "/>
<text text-anchor="middle" x="217" y="-198.5" font-family="Helvetica,sans-Serif" font-size="10.00"> </text>
<polyline fill="none" stroke="#bfbfbf" points="139.5,-191.5 294.5,-191.5 "/>
<text text-anchor="start" x="147.5" y="-179.5" font-family="Helvetica,sans-Serif" font-size="10.00">+ __construct()</text>
<text text-anchor="start" x="147.5" y="-168.5" font-family="Helvetica,sans-Serif" font-size="10.00">+ getFuelTime()</text>
<text text-anchor="start" x="147.5" y="-157.5" font-family="Helvetica,sans-Serif" font-size="10.00">+ getMaxDurability()</text>
<text text-anchor="start" x="147.5" y="-146.5" font-family="Helvetica,sans-Serif" font-size="10.00">+ getTier()</text>
<text text-anchor="start" x="147.5" y="-135.5" font-family="Helvetica,sans-Serif" font-size="10.00">+ isFireProof()</text>
<text text-anchor="start" x="147.5" y="-124.5" font-family="Helvetica,sans-Serif" font-size="10.00"># getBaseMiningEfficiency()</text>
</a>
</g>
</g>
<!-- Node2&#45;&gt;Node1 -->
<g id="edge1" class="edge">
<title>Node2&#45;&gt;Node1</title>
<path fill="none" stroke="midnightblue" d="M217,-107.32C217,-97.9 217,-88.47 217,-79.8"/>
<polygon fill="none" stroke="midnightblue" points="213.5,-107.49 217,-117.49 220.5,-107.49 213.5,-107.49"/>
</g>
<!-- Node3 -->
<g id="node3" class="node">
<title>Node3</title>
<g id="a_node3"><a xlink:href="../../da/de7/classpocketmine_1_1item_1_1_tool.html" target="_top" xlink:title=" ">
<polygon fill="white" stroke="#bfbfbf" points="56.5,-288.5 56.5,-367.5 211.5,-367.5 211.5,-288.5 56.5,-288.5"/>
<text text-anchor="middle" x="134" y="-355.5" font-family="Helvetica,sans-Serif" font-size="10.00">pocketmine\item\Tool</text>
<polyline fill="none" stroke="#bfbfbf" points="56.5,-348.5 211.5,-348.5 "/>
<text text-anchor="middle" x="134" y="-336.5" font-family="Helvetica,sans-Serif" font-size="10.00"> </text>
<polyline fill="none" stroke="#bfbfbf" points="56.5,-329.5 211.5,-329.5 "/>
<text text-anchor="start" x="64.5" y="-317.5" font-family="Helvetica,sans-Serif" font-size="10.00">+ getMaxStackSize()</text>
<text text-anchor="start" x="64.5" y="-306.5" font-family="Helvetica,sans-Serif" font-size="10.00">+ getMiningEfficiency()</text>
<text text-anchor="start" x="64.5" y="-295.5" font-family="Helvetica,sans-Serif" font-size="10.00"># getBaseMiningEfficiency()</text>
</a>
</g>
</g>
<!-- Node3&#45;&gt;Node2 -->
<g id="edge2" class="edge">
<title>Node3&#45;&gt;Node2</title>
<path fill="none" stroke="midnightblue" d="M160.05,-279.13C168.59,-263.44 178.15,-245.89 186.95,-229.71"/>
<polygon fill="none" stroke="midnightblue" points="156.87,-277.67 155.16,-288.12 163.01,-281.01 156.87,-277.67"/>
</g>
<!-- Node4 -->
<g id="node4" class="node">
<title>Node4</title>
<g id="a_node4"><a xlink:href="../../dc/d20/classpocketmine_1_1item_1_1_durable.html" target="_top" xlink:title=" ">
<polygon fill="white" stroke="#bfbfbf" points="35.5,-416.5 35.5,-583.5 232.5,-583.5 232.5,-416.5 35.5,-416.5"/>
<text text-anchor="middle" x="134" y="-571.5" font-family="Helvetica,sans-Serif" font-size="10.00">pocketmine\item\Durable</text>
<polyline fill="none" stroke="#bfbfbf" points="35.5,-564.5 232.5,-564.5 "/>
<text text-anchor="start" x="43.5" y="-552.5" font-family="Helvetica,sans-Serif" font-size="10.00"># $damage</text>
<polyline fill="none" stroke="#bfbfbf" points="35.5,-545.5 232.5,-545.5 "/>
<text text-anchor="start" x="43.5" y="-533.5" font-family="Helvetica,sans-Serif" font-size="10.00">+ applyDamage()</text>
<text text-anchor="start" x="43.5" y="-522.5" font-family="Helvetica,sans-Serif" font-size="10.00">+ getDamage()</text>
<text text-anchor="start" x="43.5" y="-511.5" font-family="Helvetica,sans-Serif" font-size="10.00">+ getMaxDurability()</text>
<text text-anchor="start" x="43.5" y="-500.5" font-family="Helvetica,sans-Serif" font-size="10.00">+ isBroken()</text>
<text text-anchor="start" x="43.5" y="-489.5" font-family="Helvetica,sans-Serif" font-size="10.00">+ isUnbreakable()</text>
<text text-anchor="start" x="43.5" y="-478.5" font-family="Helvetica,sans-Serif" font-size="10.00">+ setDamage()</text>
<text text-anchor="start" x="43.5" y="-467.5" font-family="Helvetica,sans-Serif" font-size="10.00">+ setUnbreakable()</text>
<text text-anchor="start" x="43.5" y="-456.5" font-family="Helvetica,sans-Serif" font-size="10.00"># deserializeCompoundTag()</text>
<text text-anchor="start" x="43.5" y="-445.5" font-family="Helvetica,sans-Serif" font-size="10.00"># getUnbreakingDamageReduction()</text>
<text text-anchor="start" x="43.5" y="-434.5" font-family="Helvetica,sans-Serif" font-size="10.00"># onBroken()</text>
<text text-anchor="start" x="43.5" y="-423.5" font-family="Helvetica,sans-Serif" font-size="10.00"># serializeCompoundTag()</text>
</a>
</g>
</g>
<!-- Node4&#45;&gt;Node3 -->
<g id="edge3" class="edge">
<title>Node4&#45;&gt;Node3</title>
<path fill="none" stroke="midnightblue" d="M134,-406.48C134,-392.77 134,-379.33 134,-367.59"/>
<polygon fill="none" stroke="midnightblue" points="130.5,-406.49 134,-416.49 137.5,-406.49 130.5,-406.49"/>
</g>
<!-- Node5 -->
<g id="node5" class="node">
<title>Node5</title>
<g id="a_node5"><a xlink:href="../../d5/d8a/classpocketmine_1_1item_1_1_item.html" target="_top" xlink:title=" ">
<polygon fill="white" stroke="#bfbfbf" points="55,-621.5 55,-887.5 213,-887.5 213,-621.5 55,-621.5"/>
<text text-anchor="middle" x="134" y="-875.5" font-family="Helvetica,sans-Serif" font-size="10.00">pocketmine\item\Item</text>
<polyline fill="none" stroke="#bfbfbf" points="55,-868.5 213,-868.5 "/>
<text text-anchor="start" x="63" y="-856.5" font-family="Helvetica,sans-Serif" font-size="10.00"># $canDestroy</text>
<text text-anchor="start" x="63" y="-845.5" font-family="Helvetica,sans-Serif" font-size="10.00"># $canPlaceOn</text>
<text text-anchor="start" x="63" y="-834.5" font-family="Helvetica,sans-Serif" font-size="10.00"># $count</text>
<text text-anchor="start" x="63" y="-823.5" font-family="Helvetica,sans-Serif" font-size="10.00"># $customName</text>
<text text-anchor="start" x="63" y="-812.5" font-family="Helvetica,sans-Serif" font-size="10.00"># $lore</text>
<polyline fill="none" stroke="#bfbfbf" points="55,-805.5 213,-805.5 "/>
<text text-anchor="start" x="63" y="-793.5" font-family="Helvetica,sans-Serif" font-size="10.00">+ __construct()</text>
<text text-anchor="start" x="63" y="-782.5" font-family="Helvetica,sans-Serif" font-size="10.00">+ __clone()</text>
<text text-anchor="start" x="63" y="-771.5" font-family="Helvetica,sans-Serif" font-size="10.00">+ __toString()</text>
<text text-anchor="start" x="63" y="-760.5" font-family="Helvetica,sans-Serif" font-size="10.00">+ canBePlaced()</text>
<text text-anchor="start" x="63" y="-749.5" font-family="Helvetica,sans-Serif" font-size="10.00">+ canStackWith()</text>
<text text-anchor="start" x="63" y="-738.5" font-family="Helvetica,sans-Serif" font-size="10.00">+ clearCustomBlockData()</text>
<text text-anchor="start" x="63" y="-727.5" font-family="Helvetica,sans-Serif" font-size="10.00">+ clearCustomName()</text>
<text text-anchor="start" x="63" y="-716.5" font-family="Helvetica,sans-Serif" font-size="10.00">+ clearNamedTag()</text>
<text text-anchor="start" x="63" y="-705.5" font-family="Helvetica,sans-Serif" font-size="10.00">+ computeTypeData()</text>
<text text-anchor="start" x="63" y="-694.5" font-family="Helvetica,sans-Serif" font-size="10.00">+ equals()</text>
<text text-anchor="start" x="63" y="-683.5" font-family="Helvetica,sans-Serif" font-size="10.00">and 41 more...</text>
<text text-anchor="start" x="63" y="-672.5" font-family="Helvetica,sans-Serif" font-size="10.00">+ legacyJsonDeserialize()</text>
<text text-anchor="start" x="63" y="-661.5" font-family="Helvetica,sans-Serif" font-size="10.00">+ nbtDeserialize()</text>
<text text-anchor="start" x="63" y="-650.5" font-family="Helvetica,sans-Serif" font-size="10.00"># deserializeCompoundTag()</text>
<text text-anchor="start" x="63" y="-639.5" font-family="Helvetica,sans-Serif" font-size="10.00"># encodeType()</text>
<text text-anchor="start" x="63" y="-628.5" font-family="Helvetica,sans-Serif" font-size="10.00"># serializeCompoundTag()</text>
</a>
</g>
</g>
<!-- Node5&#45;&gt;Node4 -->
<g id="edge4" class="edge">
<title>Node5&#45;&gt;Node4</title>
<path fill="none" stroke="midnightblue" d="M134,-611.19C134,-601.87 134,-592.67 134,-583.8"/>
<polygon fill="none" stroke="midnightblue" points="130.5,-611.33 134,-621.33 137.5,-611.33 130.5,-611.33"/>
</g>
<!-- Node6 -->
<g id="node6" class="node">
<title>Node6</title>
<g id="a_node6"><a xlink:title=" ">
<polygon fill="white" stroke="#bfbfbf" points="0,-1067.5 0,-1124.5 94,-1124.5 94,-1067.5 0,-1067.5"/>
<text text-anchor="middle" x="47" y="-1112.5" font-family="Helvetica,sans-Serif" font-size="10.00">JsonSerializable</text>
<polyline fill="none" stroke="#bfbfbf" points="0,-1105.5 94,-1105.5 "/>
<text text-anchor="middle" x="47" y="-1093.5" font-family="Helvetica,sans-Serif" font-size="10.00"> </text>
<polyline fill="none" stroke="#bfbfbf" points="0,-1086.5 94,-1086.5 "/>
<text text-anchor="middle" x="47" y="-1074.5" font-family="Helvetica,sans-Serif" font-size="10.00"> </text>
</a>
</g>
</g>
<!-- Node6&#45;&gt;Node5 -->
<g id="edge5" class="edge">
<title>Node6&#45;&gt;Node5</title>
<path fill="none" stroke="midnightblue" d="M56.63,-1057.41C67.12,-1016.49 84.49,-948.71 100.11,-887.74"/>
<polygon fill="none" stroke="midnightblue" points="53.21,-1056.66 54.12,-1067.22 59.99,-1058.4 53.21,-1056.66"/>
</g>
<!-- Node7 -->
<g id="node7" class="node">
<title>Node7</title>
<g id="a_node7"><a xlink:title=" ">
<polygon fill="white" stroke="#bfbfbf" points="112.5,-1067.5 112.5,-1124.5 155.5,-1124.5 155.5,-1067.5 112.5,-1067.5"/>
<text text-anchor="middle" x="134" y="-1112.5" font-family="Helvetica,sans-Serif" font-size="10.00">const</text>
<polyline fill="none" stroke="#bfbfbf" points="112.5,-1105.5 155.5,-1105.5 "/>
<text text-anchor="middle" x="134" y="-1093.5" font-family="Helvetica,sans-Serif" font-size="10.00"> </text>
<polyline fill="none" stroke="#bfbfbf" points="112.5,-1086.5 155.5,-1086.5 "/>
<text text-anchor="middle" x="134" y="-1074.5" font-family="Helvetica,sans-Serif" font-size="10.00"> </text>
</a>
</g>
</g>
<!-- Node7&#45;&gt;Node5 -->
<g id="edge6" class="edge">
<title>Node7&#45;&gt;Node5</title>
<path fill="none" stroke="#404040" d="M134,-1067.22C134,-1030.4 134,-962.73 134,-899.83"/>
<polygon fill="none" stroke="#404040" points="134,-899.74 130,-893.74 134,-887.74 138,-893.74 134,-899.74"/>
<text text-anchor="middle" x="201" y="-953" font-family="Helvetica,sans-Serif" font-size="10.00"> +TAG_BLOCK_ENTITY_TAG</text>
<text text-anchor="middle" x="201" y="-942" font-family="Helvetica,sans-Serif" font-size="10.00">+TAG_DISPLAY</text>
<text text-anchor="middle" x="201" y="-931" font-family="Helvetica,sans-Serif" font-size="10.00">+TAG_DISPLAY_LORE</text>
<text text-anchor="middle" x="201" y="-920" font-family="Helvetica,sans-Serif" font-size="10.00">+TAG_DISPLAY_NAME</text>
<text text-anchor="middle" x="201" y="-909" font-family="Helvetica,sans-Serif" font-size="10.00">+TAG_ENCH</text>
</g>
<!-- Node8 -->
<g id="node8" class="node">
<title>Node8</title>
<g id="a_node8"><a xlink:href="../../de/d67/classpocketmine_1_1nbt_1_1tag_1_1_compound_tag.html" target="_top" xlink:title=" ">
<polygon fill="white" stroke="black" points="231,-979.5 231,-1212.5 351,-1212.5 351,-979.5 231,-979.5"/>
<text text-anchor="start" x="239" y="-1200.5" font-family="Helvetica,sans-Serif" font-size="10.00">pocketmine\nbt\tag</text>
<text text-anchor="middle" x="291" y="-1189.5" font-family="Helvetica,sans-Serif" font-size="10.00">\CompoundTag</text>
<polyline fill="none" stroke="black" points="231,-1182.5 351,-1182.5 "/>
<text text-anchor="middle" x="291" y="-1170.5" font-family="Helvetica,sans-Serif" font-size="10.00"> </text>
<polyline fill="none" stroke="black" points="231,-1163.5 351,-1163.5 "/>
<text text-anchor="start" x="239" y="-1151.5" font-family="Helvetica,sans-Serif" font-size="10.00">+ __construct()</text>
<text text-anchor="start" x="239" y="-1140.5" font-family="Helvetica,sans-Serif" font-size="10.00">+ __clone()</text>
<text text-anchor="start" x="239" y="-1129.5" font-family="Helvetica,sans-Serif" font-size="10.00">+ count()</text>
<text text-anchor="start" x="239" y="-1118.5" font-family="Helvetica,sans-Serif" font-size="10.00">+ equals()</text>
<text text-anchor="start" x="239" y="-1107.5" font-family="Helvetica,sans-Serif" font-size="10.00">+ getByte()</text>
<text text-anchor="start" x="239" y="-1096.5" font-family="Helvetica,sans-Serif" font-size="10.00">+ getByteArray()</text>
<text text-anchor="start" x="239" y="-1085.5" font-family="Helvetica,sans-Serif" font-size="10.00">+ getCompoundTag()</text>
<text text-anchor="start" x="239" y="-1074.5" font-family="Helvetica,sans-Serif" font-size="10.00">+ getCount()</text>
<text text-anchor="start" x="239" y="-1063.5" font-family="Helvetica,sans-Serif" font-size="10.00">+ getDouble()</text>
<text text-anchor="start" x="239" y="-1052.5" font-family="Helvetica,sans-Serif" font-size="10.00">+ getFloat()</text>
<text text-anchor="start" x="239" y="-1041.5" font-family="Helvetica,sans-Serif" font-size="10.00">and 23 more...</text>
<text text-anchor="start" x="239" y="-1030.5" font-family="Helvetica,sans-Serif" font-size="10.00">+ create()</text>
<text text-anchor="start" x="239" y="-1019.5" font-family="Helvetica,sans-Serif" font-size="10.00">+ read()</text>
<text text-anchor="start" x="239" y="-1008.5" font-family="Helvetica,sans-Serif" font-size="10.00"># getTypeName()</text>
<text text-anchor="start" x="239" y="-997.5" font-family="Helvetica,sans-Serif" font-size="10.00"># makeCopy()</text>
<text text-anchor="start" x="239" y="-986.5" font-family="Helvetica,sans-Serif" font-size="10.00"># stringifyValue()</text>
</a>
</g>
</g>
<!-- Node8&#45;&gt;Node5 -->
<g id="edge7" class="edge">
<title>Node8&#45;&gt;Node5</title>
<path fill="none" stroke="#404040" d="M288.83,-979.03C285.29,-954.16 279.18,-928.59 269,-906 257.45,-880.38 239.92,-856.07 221.28,-834.75"/>
<polygon fill="none" stroke="#404040" points="221.26,-834.72 214.27,-832.93 213.24,-825.8 220.23,-827.59 221.26,-834.72"/>
<text text-anchor="middle" x="329.5" y="-931" font-family="Helvetica,sans-Serif" font-size="10.00"> #$blockEntityTag</text>
</g>
<!-- Node9 -->
<g id="node9" class="node">
<title>Node9</title>
<g id="a_node9"><a xlink:href="../../dc/d26/classpocketmine_1_1nbt_1_1tag_1_1_tag.html" target="_top" xlink:title=" ">
<polygon fill="white" stroke="#bfbfbf" points="108.5,-1250.5 108.5,-1417.5 239.5,-1417.5 239.5,-1250.5 108.5,-1250.5"/>
<text text-anchor="middle" x="174" y="-1405.5" font-family="Helvetica,sans-Serif" font-size="10.00">pocketmine\nbt\tag\Tag</text>
<polyline fill="none" stroke="#bfbfbf" points="108.5,-1398.5 239.5,-1398.5 "/>
<text text-anchor="start" x="116.5" y="-1386.5" font-family="Helvetica,sans-Serif" font-size="10.00"># $cloning</text>
<polyline fill="none" stroke="#bfbfbf" points="108.5,-1379.5 239.5,-1379.5 "/>
<text text-anchor="start" x="116.5" y="-1367.5" font-family="Helvetica,sans-Serif" font-size="10.00">+ __toString()</text>
<text text-anchor="start" x="116.5" y="-1356.5" font-family="Helvetica,sans-Serif" font-size="10.00">+ equals()</text>
<text text-anchor="start" x="116.5" y="-1345.5" font-family="Helvetica,sans-Serif" font-size="10.00">+ getType()</text>
<text text-anchor="start" x="116.5" y="-1334.5" font-family="Helvetica,sans-Serif" font-size="10.00">+ getValue()</text>
<text text-anchor="start" x="116.5" y="-1323.5" font-family="Helvetica,sans-Serif" font-size="10.00">+ safeClone()</text>
<text text-anchor="start" x="116.5" y="-1312.5" font-family="Helvetica,sans-Serif" font-size="10.00">+ toString()</text>
<text text-anchor="start" x="116.5" y="-1301.5" font-family="Helvetica,sans-Serif" font-size="10.00">+ write()</text>
<text text-anchor="start" x="116.5" y="-1290.5" font-family="Helvetica,sans-Serif" font-size="10.00"># getTypeName()</text>
<text text-anchor="start" x="116.5" y="-1279.5" font-family="Helvetica,sans-Serif" font-size="10.00"># makeCopy()</text>
<text text-anchor="start" x="116.5" y="-1268.5" font-family="Helvetica,sans-Serif" font-size="10.00"># stringifyValue()</text>
<text text-anchor="start" x="116.5" y="-1257.5" font-family="Helvetica,sans-Serif" font-size="10.00"># restrictArgCount()</text>
</a>
</g>
</g>
<!-- Node9&#45;&gt;Node8 -->
<g id="edge8" class="edge">
<title>Node9&#45;&gt;Node8</title>
<path fill="none" stroke="midnightblue" d="M219.37,-1241.48C224.05,-1232.04 228.85,-1222.35 233.65,-1212.69"/>
<polygon fill="none" stroke="midnightblue" points="216.23,-1239.94 214.92,-1250.46 222.5,-1243.05 216.23,-1239.94"/>
</g>
<!-- Node10 -->
<g id="node10" class="node">
<title>Node10</title>
<g id="a_node10"><a xlink:title=" ">
<polygon fill="white" stroke="#bfbfbf" points="258,-1305.5 258,-1362.5 324,-1362.5 324,-1305.5 258,-1305.5"/>
<text text-anchor="middle" x="291" y="-1350.5" font-family="Helvetica,sans-Serif" font-size="10.00">Countable</text>
<polyline fill="none" stroke="#bfbfbf" points="258,-1343.5 324,-1343.5 "/>
<text text-anchor="middle" x="291" y="-1331.5" font-family="Helvetica,sans-Serif" font-size="10.00"> </text>
<polyline fill="none" stroke="#bfbfbf" points="258,-1324.5 324,-1324.5 "/>
<text text-anchor="middle" x="291" y="-1312.5" font-family="Helvetica,sans-Serif" font-size="10.00"> </text>
</a>
</g>
</g>
<!-- Node10&#45;&gt;Node8 -->
<g id="edge9" class="edge">
<title>Node10&#45;&gt;Node8</title>
<path fill="none" stroke="midnightblue" d="M291,-1295.32C291,-1272.7 291,-1242.6 291,-1212.69"/>
<polygon fill="none" stroke="midnightblue" points="287.5,-1295.47 291,-1305.47 294.5,-1295.47 287.5,-1295.47"/>
</g>
<!-- Node11 -->
<g id="node11" class="node">
<title>Node11</title>
<g id="a_node11"><a xlink:title=" ">
<polygon fill="white" stroke="#bfbfbf" points="342.5,-1305.5 342.5,-1362.5 445.5,-1362.5 445.5,-1305.5 342.5,-1305.5"/>
<text text-anchor="middle" x="394" y="-1350.5" font-family="Helvetica,sans-Serif" font-size="10.00">IteratorAggregate</text>
<polyline fill="none" stroke="#bfbfbf" points="342.5,-1343.5 445.5,-1343.5 "/>
<text text-anchor="middle" x="394" y="-1331.5" font-family="Helvetica,sans-Serif" font-size="10.00"> </text>
<polyline fill="none" stroke="#bfbfbf" points="342.5,-1324.5 445.5,-1324.5 "/>
<text text-anchor="middle" x="394" y="-1312.5" font-family="Helvetica,sans-Serif" font-size="10.00"> </text>
</a>
</g>
</g>
<!-- Node11&#45;&gt;Node8 -->
<g id="edge10" class="edge">
<title>Node11&#45;&gt;Node8</title>
<path fill="none" stroke="midnightblue" d="M377.95,-1296.23C368.04,-1273.52 354.72,-1243 341.49,-1212.69"/>
<polygon fill="none" stroke="midnightblue" points="374.78,-1297.7 381.98,-1305.47 381.19,-1294.9 374.78,-1297.7"/>
</g>
<!-- Node12 -->
<g id="node12" class="node">
<title>Node12</title>
<g id="a_node12"><a xlink:href="../../d8/df8/classpocketmine_1_1item_1_1_tool_tier.html" target="_top" xlink:title=" ">
<polygon fill="white" stroke="black" points="230,-277.5 230,-378.5 370,-378.5 370,-277.5 230,-277.5"/>
<text text-anchor="middle" x="300" y="-366.5" font-family="Helvetica,sans-Serif" font-size="10.00">pocketmine\item\ToolTier</text>
<polyline fill="none" stroke="black" points="230,-359.5 370,-359.5 "/>
<text text-anchor="middle" x="300" y="-347.5" font-family="Helvetica,sans-Serif" font-size="10.00"> </text>
<polyline fill="none" stroke="black" points="230,-340.5 370,-340.5 "/>
<text text-anchor="start" x="238" y="-328.5" font-family="Helvetica,sans-Serif" font-size="10.00">+ getBaseAttackPoints()</text>
<text text-anchor="start" x="238" y="-317.5" font-family="Helvetica,sans-Serif" font-size="10.00">+ getBaseEfficiency()</text>
<text text-anchor="start" x="238" y="-306.5" font-family="Helvetica,sans-Serif" font-size="10.00">+ getHarvestLevel()</text>
<text text-anchor="start" x="238" y="-295.5" font-family="Helvetica,sans-Serif" font-size="10.00">+ getMaxDurability()</text>
<text text-anchor="start" x="238" y="-284.5" font-family="Helvetica,sans-Serif" font-size="10.00"># setup()</text>
</a>
</g>
</g>
<!-- Node12&#45;&gt;Node2 -->
<g id="edge11" class="edge">
<title>Node12&#45;&gt;Node2</title>
<path fill="none" stroke="#404040" d="M273.05,-277.49C266.61,-265.65 259.63,-252.83 252.85,-240.38"/>
<polygon fill="none" stroke="#404040" points="252.71,-240.11 246.33,-236.75 246.97,-229.57 253.35,-232.93 252.71,-240.11"/>
<text text-anchor="middle" x="278" y="-251" font-family="Helvetica,sans-Serif" font-size="10.00"> #$tier</text>
</g>
</g>
</svg>
