<?xml version="1.0" encoding="UTF-8" standalone="no"?>
<!DOCTYPE svg PUBLIC "-//W3C//DTD SVG 1.1//EN"
 "http://www.w3.org/Graphics/SVG/1.1/DTD/svg11.dtd">
<!-- Generated by graphviz version 2.43.0 (0)
 -->
<!-- Title: pocketmine\block\StainedHardenedGlass Pages: 1 -->
<svg width="801pt" height="1907pt"
 viewBox="0.00 0.00 800.59 1907.00" xmlns="http://www.w3.org/2000/svg" xmlns:xlink="http://www.w3.org/1999/xlink">
<g id="graph0" class="graph" transform="scale(1 1) rotate(0) translate(4 1903)">
<title>pocketmine\block\StainedHardenedGlass</title>
<polygon fill="white" stroke="transparent" points="-4,4 -4,-1903 796.59,-1903 796.59,4 -4,4"/>
<!-- Node1 -->
<g id="node1" class="node">
<title>Node1</title>
<g id="a_node1"><a xlink:title=" ">
<polygon fill="#bfbfbf" stroke="black" points="266.09,-0.5 266.09,-68.5 409.09,-68.5 409.09,-0.5 266.09,-0.5"/>
<text text-anchor="start" x="274.09" y="-56.5" font-family="Helvetica,sans-Serif" font-size="10.00">pocketmine\block\Stained</text>
<text text-anchor="middle" x="337.59" y="-45.5" font-family="Helvetica,sans-Serif" font-size="10.00">HardenedGlass</text>
<polyline fill="none" stroke="black" points="266.09,-38.5 409.09,-38.5 "/>
<text text-anchor="middle" x="337.59" y="-26.5" font-family="Helvetica,sans-Serif" font-size="10.00"> </text>
<polyline fill="none" stroke="black" points="266.09,-19.5 409.09,-19.5 "/>
<text text-anchor="start" x="274.09" y="-7.5" font-family="Helvetica,sans-Serif" font-size="10.00">+ __construct()</text>
</a>
</g>
</g>
<!-- Node2 -->
<g id="node2" class="node">
<title>Node2</title>
<g id="a_node2"><a xlink:href="../../d0/d1c/classpocketmine_1_1block_1_1_hardened_glass.html" target="_top" xlink:title=" ">
<polygon fill="white" stroke="#bfbfbf" points="261.09,-106.5 261.09,-174.5 414.09,-174.5 414.09,-106.5 261.09,-106.5"/>
<text text-anchor="start" x="269.09" y="-162.5" font-family="Helvetica,sans-Serif" font-size="10.00">pocketmine\block\Hardened</text>
<text text-anchor="middle" x="337.59" y="-151.5" font-family="Helvetica,sans-Serif" font-size="10.00">Glass</text>
<polyline fill="none" stroke="#bfbfbf" points="261.09,-144.5 414.09,-144.5 "/>
<text text-anchor="middle" x="337.59" y="-132.5" font-family="Helvetica,sans-Serif" font-size="10.00"> </text>
<polyline fill="none" stroke="#bfbfbf" points="261.09,-125.5 414.09,-125.5 "/>
<text text-anchor="middle" x="337.59" y="-113.5" font-family="Helvetica,sans-Serif" font-size="10.00"> </text>
</a>
</g>
</g>
<!-- Node2&#45;&gt;Node1 -->
<g id="edge1" class="edge">
<title>Node2&#45;&gt;Node1</title>
<path fill="none" stroke="midnightblue" d="M337.59,-96.17C337.59,-87 337.59,-77.46 337.59,-68.73"/>
<polygon fill="none" stroke="midnightblue" points="334.09,-96.31 337.59,-106.31 341.09,-96.31 334.09,-96.31"/>
</g>
<!-- Node3 -->
<g id="node3" class="node">
<title>Node3</title>
<g id="a_node3"><a xlink:href="../../d5/d1b/classpocketmine_1_1block_1_1_transparent.html" target="_top" xlink:title=" ">
<polygon fill="white" stroke="#bfbfbf" points="256.09,-212.5 256.09,-269.5 419.09,-269.5 419.09,-212.5 256.09,-212.5"/>
<text text-anchor="middle" x="337.59" y="-257.5" font-family="Helvetica,sans-Serif" font-size="10.00">pocketmine\block\Transparent</text>
<polyline fill="none" stroke="#bfbfbf" points="256.09,-250.5 419.09,-250.5 "/>
<text text-anchor="middle" x="337.59" y="-238.5" font-family="Helvetica,sans-Serif" font-size="10.00"> </text>
<polyline fill="none" stroke="#bfbfbf" points="256.09,-231.5 419.09,-231.5 "/>
<text text-anchor="start" x="264.09" y="-219.5" font-family="Helvetica,sans-Serif" font-size="10.00">+ isTransparent()</text>
</a>
</g>
</g>
<!-- Node3&#45;&gt;Node2 -->
<g id="edge2" class="edge">
<title>Node3&#45;&gt;Node2</title>
<path fill="none" stroke="midnightblue" d="M337.59,-202.01C337.59,-192.96 337.59,-183.38 337.59,-174.58"/>
<polygon fill="none" stroke="midnightblue" points="334.09,-202.3 337.59,-212.3 341.09,-202.3 334.09,-202.3"/>
</g>
<!-- Node4 -->
<g id="node4" class="node">
<title>Node4</title>
<g id="a_node4"><a xlink:href="../../d7/d27/classpocketmine_1_1block_1_1_block.html" target="_top" xlink:title=" ">
<polygon fill="white" stroke="#bfbfbf" points="257.09,-307.5 257.09,-529.5 418.09,-529.5 418.09,-307.5 257.09,-307.5"/>
<text text-anchor="middle" x="337.59" y="-517.5" font-family="Helvetica,sans-Serif" font-size="10.00">pocketmine\block\Block</text>
<polyline fill="none" stroke="#bfbfbf" points="257.09,-510.5 418.09,-510.5 "/>
<text text-anchor="start" x="265.09" y="-498.5" font-family="Helvetica,sans-Serif" font-size="10.00"># $collisionBoxes</text>
<text text-anchor="start" x="265.09" y="-487.5" font-family="Helvetica,sans-Serif" font-size="10.00"># $fallbackName</text>
<polyline fill="none" stroke="#bfbfbf" points="257.09,-480.5 418.09,-480.5 "/>
<text text-anchor="start" x="265.09" y="-468.5" font-family="Helvetica,sans-Serif" font-size="10.00">+ __construct()</text>
<text text-anchor="start" x="265.09" y="-457.5" font-family="Helvetica,sans-Serif" font-size="10.00">+ __clone()</text>
<text text-anchor="start" x="265.09" y="-446.5" font-family="Helvetica,sans-Serif" font-size="10.00">+ __toString()</text>
<text text-anchor="start" x="265.09" y="-435.5" font-family="Helvetica,sans-Serif" font-size="10.00">+ addVelocityToEntity()</text>
<text text-anchor="start" x="265.09" y="-424.5" font-family="Helvetica,sans-Serif" font-size="10.00">+ asItem()</text>
<text text-anchor="start" x="265.09" y="-413.5" font-family="Helvetica,sans-Serif" font-size="10.00">+ blocksDirectSkyLight()</text>
<text text-anchor="start" x="265.09" y="-402.5" font-family="Helvetica,sans-Serif" font-size="10.00">+ burnsForever()</text>
<text text-anchor="start" x="265.09" y="-391.5" font-family="Helvetica,sans-Serif" font-size="10.00">+ calculateIntercept()</text>
<text text-anchor="start" x="265.09" y="-380.5" font-family="Helvetica,sans-Serif" font-size="10.00">+ canBeFlowedInto()</text>
<text text-anchor="start" x="265.09" y="-369.5" font-family="Helvetica,sans-Serif" font-size="10.00">+ canBePlaced()</text>
<text text-anchor="start" x="265.09" y="-358.5" font-family="Helvetica,sans-Serif" font-size="10.00">and 57 more...</text>
<text text-anchor="start" x="265.09" y="-347.5" font-family="Helvetica,sans-Serif" font-size="10.00"># getXpDropAmount()</text>
<text text-anchor="start" x="265.09" y="-336.5" font-family="Helvetica,sans-Serif" font-size="10.00"># recalculateCollisionBoxes()</text>
<text text-anchor="start" x="265.09" y="-325.5" font-family="Helvetica,sans-Serif" font-size="10.00"># writeStateToItemMeta()</text>
<text text-anchor="start" x="265.09" y="-314.5" font-family="Helvetica,sans-Serif" font-size="10.00"># writeStateToMeta()</text>
</a>
</g>
</g>
<!-- Node4&#45;&gt;Node3 -->
<g id="edge3" class="edge">
<title>Node4&#45;&gt;Node3</title>
<path fill="none" stroke="midnightblue" d="M337.59,-297.09C337.59,-287.03 337.59,-277.64 337.59,-269.56"/>
<polygon fill="none" stroke="midnightblue" points="334.09,-297.35 337.59,-307.35 341.09,-297.35 334.09,-297.35"/>
</g>
<!-- Node5 -->
<g id="node5" class="node">
<title>Node5</title>
<g id="a_node5"><a xlink:title=" ">
<polygon fill="white" stroke="#bfbfbf" points="69.09,-1439.5 69.09,-1496.5 112.09,-1496.5 112.09,-1439.5 69.09,-1439.5"/>
<text text-anchor="middle" x="90.59" y="-1484.5" font-family="Helvetica,sans-Serif" font-size="10.00">const</text>
<polyline fill="none" stroke="#bfbfbf" points="69.09,-1477.5 112.09,-1477.5 "/>
<text text-anchor="middle" x="90.59" y="-1465.5" font-family="Helvetica,sans-Serif" font-size="10.00"> </text>
<polyline fill="none" stroke="#bfbfbf" points="69.09,-1458.5 112.09,-1458.5 "/>
<text text-anchor="middle" x="90.59" y="-1446.5" font-family="Helvetica,sans-Serif" font-size="10.00"> </text>
</a>
</g>
</g>
<!-- Node5&#45;&gt;Node4 -->
<g id="edge4" class="edge">
<title>Node5&#45;&gt;Node4</title>
<path fill="none" stroke="#404040" d="M80.68,-1439.24C46.59,-1339.13 -58.25,-988.83 44.59,-730 85.17,-627.87 177.04,-539.88 247.17,-483.92"/>
<polygon fill="none" stroke="#404040" points="247.49,-483.66 249.72,-476.81 256.91,-476.23 254.68,-483.09 247.49,-483.66"/>
<text text-anchor="start" x="44.59" y="-822.5" font-family="Helvetica,sans-Serif" font-size="10.00"> +INTERNAL_METADATA</text>
<text text-anchor="middle" x="119.09" y="-811.5" font-family="Helvetica,sans-Serif" font-size="10.00">_BITS</text>
<text text-anchor="middle" x="119.09" y="-800.5" font-family="Helvetica,sans-Serif" font-size="10.00">+INTERNAL_METADATA_MASK</text>
</g>
<!-- Node7 -->
<g id="node7" class="node">
<title>Node7</title>
<g id="a_node7"><a xlink:href="../../d3/d10/classpocketmine_1_1block_1_1_block_break_info.html" target="_top" xlink:title=" ">
<polygon fill="white" stroke="#bfbfbf" points="202.59,-730.5 202.59,-897.5 382.59,-897.5 382.59,-730.5 202.59,-730.5"/>
<text text-anchor="middle" x="292.59" y="-885.5" font-family="Helvetica,sans-Serif" font-size="10.00">pocketmine\block\BlockBreakInfo</text>
<polyline fill="none" stroke="#bfbfbf" points="202.59,-878.5 382.59,-878.5 "/>
<text text-anchor="middle" x="292.59" y="-866.5" font-family="Helvetica,sans-Serif" font-size="10.00"> </text>
<polyline fill="none" stroke="#bfbfbf" points="202.59,-859.5 382.59,-859.5 "/>
<text text-anchor="start" x="210.59" y="-847.5" font-family="Helvetica,sans-Serif" font-size="10.00">+ __construct()</text>
<text text-anchor="start" x="210.59" y="-836.5" font-family="Helvetica,sans-Serif" font-size="10.00">+ breaksInstantly()</text>
<text text-anchor="start" x="210.59" y="-825.5" font-family="Helvetica,sans-Serif" font-size="10.00">+ getBlastResistance()</text>
<text text-anchor="start" x="210.59" y="-814.5" font-family="Helvetica,sans-Serif" font-size="10.00">+ getBreakTime()</text>
<text text-anchor="start" x="210.59" y="-803.5" font-family="Helvetica,sans-Serif" font-size="10.00">+ getHardness()</text>
<text text-anchor="start" x="210.59" y="-792.5" font-family="Helvetica,sans-Serif" font-size="10.00">+ getToolHarvestLevel()</text>
<text text-anchor="start" x="210.59" y="-781.5" font-family="Helvetica,sans-Serif" font-size="10.00">+ getToolType()</text>
<text text-anchor="start" x="210.59" y="-770.5" font-family="Helvetica,sans-Serif" font-size="10.00">+ isBreakable()</text>
<text text-anchor="start" x="210.59" y="-759.5" font-family="Helvetica,sans-Serif" font-size="10.00">+ isToolCompatible()</text>
<text text-anchor="start" x="210.59" y="-748.5" font-family="Helvetica,sans-Serif" font-size="10.00">+ indestructible()</text>
<text text-anchor="start" x="210.59" y="-737.5" font-family="Helvetica,sans-Serif" font-size="10.00">+ instant()</text>
</a>
</g>
</g>
<!-- Node5&#45;&gt;Node7 -->
<g id="edge7" class="edge">
<title>Node5&#45;&gt;Node7</title>
<path fill="none" stroke="#404040" d="M86.11,-1439.23C80.16,-1396.76 72.12,-1313.42 87.59,-1245 115.48,-1121.68 183.17,-992.31 233.17,-908.08"/>
<polygon fill="none" stroke="#404040" points="233.17,-908.08 232.82,-900.88 239.33,-897.79 239.69,-904.99 233.17,-908.08"/>
<text text-anchor="middle" x="175.09" y="-1314" font-family="Helvetica,sans-Serif" font-size="10.00"> +COMPATIBLE_TOOL_MULTIPLIER</text>
<text text-anchor="middle" x="175.09" y="-1303" font-family="Helvetica,sans-Serif" font-size="10.00">+INCOMPATIBLE_TOOL_MULTIPLIER</text>
</g>
<!-- Node10 -->
<g id="node10" class="node">
<title>Node10</title>
<g id="a_node10"><a xlink:href="../../d4/d2b/classpocketmine_1_1world_1_1_world.html" target="_top" xlink:title=" ">
<polygon fill="white" stroke="#bfbfbf" points="357.59,-916.5 357.59,-1226.5 529.59,-1226.5 529.59,-916.5 357.59,-916.5"/>
<text text-anchor="middle" x="443.59" y="-1214.5" font-family="Helvetica,sans-Serif" font-size="10.00">pocketmine\world\World</text>
<polyline fill="none" stroke="#bfbfbf" points="357.59,-1207.5 529.59,-1207.5 "/>
<text text-anchor="start" x="365.59" y="-1195.5" font-family="Helvetica,sans-Serif" font-size="10.00">+ $stopTime</text>
<text text-anchor="start" x="365.59" y="-1184.5" font-family="Helvetica,sans-Serif" font-size="10.00">+ $tickRateTime</text>
<text text-anchor="start" x="365.59" y="-1173.5" font-family="Helvetica,sans-Serif" font-size="10.00">+ $updateEntities</text>
<text text-anchor="start" x="365.59" y="-1162.5" font-family="Helvetica,sans-Serif" font-size="10.00">+ TIME_SUNRISE</text>
<text text-anchor="start" x="365.59" y="-1151.5" font-family="Helvetica,sans-Serif" font-size="10.00">+ TIME_SUNSET</text>
<text text-anchor="start" x="365.59" y="-1140.5" font-family="Helvetica,sans-Serif" font-size="10.00">+ Y_MAX</text>
<text text-anchor="start" x="365.59" y="-1129.5" font-family="Helvetica,sans-Serif" font-size="10.00">+ Y_MIN</text>
<polyline fill="none" stroke="#bfbfbf" points="357.59,-1122.5 529.59,-1122.5 "/>
<text text-anchor="start" x="365.59" y="-1110.5" font-family="Helvetica,sans-Serif" font-size="10.00">+ __construct()</text>
<text text-anchor="start" x="365.59" y="-1099.5" font-family="Helvetica,sans-Serif" font-size="10.00">+ __debugInfo()</text>
<text text-anchor="start" x="365.59" y="-1088.5" font-family="Helvetica,sans-Serif" font-size="10.00">+ addEntity()</text>
<text text-anchor="start" x="365.59" y="-1077.5" font-family="Helvetica,sans-Serif" font-size="10.00">+ addOnUnloadCallback()</text>
<text text-anchor="start" x="365.59" y="-1066.5" font-family="Helvetica,sans-Serif" font-size="10.00">+ addParticle()</text>
<text text-anchor="start" x="365.59" y="-1055.5" font-family="Helvetica,sans-Serif" font-size="10.00">+ addRandomTickedBlock()</text>
<text text-anchor="start" x="365.59" y="-1044.5" font-family="Helvetica,sans-Serif" font-size="10.00">+ addSound()</text>
<text text-anchor="start" x="365.59" y="-1033.5" font-family="Helvetica,sans-Serif" font-size="10.00">+ addTile()</text>
<text text-anchor="start" x="365.59" y="-1022.5" font-family="Helvetica,sans-Serif" font-size="10.00">+ broadcastPacketToViewers()</text>
<text text-anchor="start" x="365.59" y="-1011.5" font-family="Helvetica,sans-Serif" font-size="10.00">+ cancelUnloadChunkRequest()</text>
<text text-anchor="start" x="365.59" y="-1000.5" font-family="Helvetica,sans-Serif" font-size="10.00">and 113 more...</text>
<text text-anchor="start" x="365.59" y="-989.5" font-family="Helvetica,sans-Serif" font-size="10.00">+ blockHash()</text>
<text text-anchor="start" x="365.59" y="-978.5" font-family="Helvetica,sans-Serif" font-size="10.00">+ chunkBlockHash()</text>
<text text-anchor="start" x="365.59" y="-967.5" font-family="Helvetica,sans-Serif" font-size="10.00">+ chunkHash()</text>
<text text-anchor="start" x="365.59" y="-956.5" font-family="Helvetica,sans-Serif" font-size="10.00">+ getBlockXYZ()</text>
<text text-anchor="start" x="365.59" y="-945.5" font-family="Helvetica,sans-Serif" font-size="10.00">+ getDifficultyFromString()</text>
<text text-anchor="start" x="365.59" y="-934.5" font-family="Helvetica,sans-Serif" font-size="10.00">+ getXZ()</text>
<text text-anchor="start" x="365.59" y="-923.5" font-family="Helvetica,sans-Serif" font-size="10.00"># actuallyDoTick()</text>
</a>
</g>
</g>
<!-- Node5&#45;&gt;Node10 -->
<g id="edge12" class="edge">
<title>Node5&#45;&gt;Node10</title>
<path fill="none" stroke="#404040" d="M112.16,-1462.17C149.54,-1452.63 226.24,-1427.78 266.59,-1377 304.22,-1329.66 272.19,-1298.91 299.59,-1245 312.95,-1218.71 330.98,-1192.91 349.75,-1169.6"/>
<polygon fill="none" stroke="#404040" points="349.92,-1169.39 350.64,-1162.21 357.54,-1160.11 356.82,-1167.29 349.92,-1169.39"/>
<text text-anchor="start" x="299.59" y="-1369" font-family="Helvetica,sans-Serif" font-size="10.00"> +DEFAULT_TICKED_BLOCKS</text>
<text text-anchor="middle" x="369.59" y="-1358" font-family="Helvetica,sans-Serif" font-size="10.00">_PER_SUBCHUNK_PER_TICK</text>
<text text-anchor="middle" x="369.59" y="-1347" font-family="Helvetica,sans-Serif" font-size="10.00">+DIFFICULTY_EASY</text>
<text text-anchor="middle" x="369.59" y="-1336" font-family="Helvetica,sans-Serif" font-size="10.00">+DIFFICULTY_HARD</text>
<text text-anchor="middle" x="369.59" y="-1325" font-family="Helvetica,sans-Serif" font-size="10.00">+DIFFICULTY_NORMAL</text>
<text text-anchor="middle" x="369.59" y="-1314" font-family="Helvetica,sans-Serif" font-size="10.00">+DIFFICULTY_PEACEFUL</text>
<text text-anchor="middle" x="369.59" y="-1303" font-family="Helvetica,sans-Serif" font-size="10.00">+TIME_DAY</text>
<text text-anchor="middle" x="369.59" y="-1292" font-family="Helvetica,sans-Serif" font-size="10.00">+TIME_FULL</text>
<text text-anchor="middle" x="369.59" y="-1281" font-family="Helvetica,sans-Serif" font-size="10.00">+TIME_MIDNIGHT</text>
<text text-anchor="middle" x="369.59" y="-1270" font-family="Helvetica,sans-Serif" font-size="10.00">+TIME_NIGHT</text>
<text text-anchor="middle" x="369.59" y="-1259" font-family="Helvetica,sans-Serif" font-size="10.00">+TIME_NOON</text>
<text text-anchor="middle" x="369.59" y="-1248" font-family="Helvetica,sans-Serif" font-size="10.00">...</text>
</g>
<!-- Node6 -->
<g id="node6" class="node">
<title>Node6</title>
<g id="a_node6"><a xlink:href="../../dd/d18/classpocketmine_1_1block_1_1_block_identifier.html" target="_top" xlink:title=" ">
<polygon fill="white" stroke="#bfbfbf" points="536.59,-588.5 536.59,-700.5 712.59,-700.5 712.59,-588.5 536.59,-588.5"/>
<text text-anchor="middle" x="624.59" y="-688.5" font-family="Helvetica,sans-Serif" font-size="10.00">pocketmine\block\BlockIdentifier</text>
<polyline fill="none" stroke="#bfbfbf" points="536.59,-681.5 712.59,-681.5 "/>
<text text-anchor="middle" x="624.59" y="-669.5" font-family="Helvetica,sans-Serif" font-size="10.00"> </text>
<polyline fill="none" stroke="#bfbfbf" points="536.59,-662.5 712.59,-662.5 "/>
<text text-anchor="start" x="544.59" y="-650.5" font-family="Helvetica,sans-Serif" font-size="10.00">+ __construct()</text>
<text text-anchor="start" x="544.59" y="-639.5" font-family="Helvetica,sans-Serif" font-size="10.00">+ getAllBlockIds()</text>
<text text-anchor="start" x="544.59" y="-628.5" font-family="Helvetica,sans-Serif" font-size="10.00">+ getBlockId()</text>
<text text-anchor="start" x="544.59" y="-617.5" font-family="Helvetica,sans-Serif" font-size="10.00">+ getItemId()</text>
<text text-anchor="start" x="544.59" y="-606.5" font-family="Helvetica,sans-Serif" font-size="10.00">+ getTileClass()</text>
<text text-anchor="start" x="544.59" y="-595.5" font-family="Helvetica,sans-Serif" font-size="10.00">+ getVariant()</text>
</a>
</g>
</g>
<!-- Node6&#45;&gt;Node4 -->
<g id="edge5" class="edge">
<title>Node6&#45;&gt;Node4</title>
<path fill="none" stroke="#404040" d="M554.02,-588.42C515.99,-558.74 468.65,-521.79 427.96,-490.03"/>
<polygon fill="none" stroke="#404040" points="427.76,-489.88 420.57,-489.34 418.3,-482.49 425.49,-483.03 427.76,-489.88"/>
<text text-anchor="middle" x="537.59" y="-551" font-family="Helvetica,sans-Serif" font-size="10.00"> #$idInfo</text>
</g>
<!-- Node7&#45;&gt;Node4 -->
<g id="edge6" class="edge">
<title>Node7&#45;&gt;Node4</title>
<path fill="none" stroke="#404040" d="M290.87,-730.47C290.97,-685.01 292.8,-627.68 299.59,-577 301.15,-565.4 303.2,-553.4 305.55,-541.45"/>
<polygon fill="none" stroke="#404040" points="305.58,-541.28 302.87,-534.6 307.99,-529.53 310.71,-536.21 305.58,-541.28"/>
<text text-anchor="middle" x="331.59" y="-642" font-family="Helvetica,sans-Serif" font-size="10.00"> #$breakInfo</text>
</g>
<!-- Node8 -->
<g id="node8" class="node">
<title>Node8</title>
<g id="a_node8"><a xlink:href="../../d5/dd2/classpocketmine_1_1world_1_1_position.html" target="_top" xlink:title=" ">
<polygon fill="white" stroke="#bfbfbf" points="372.59,-577.5 372.59,-711.5 518.59,-711.5 518.59,-577.5 372.59,-577.5"/>
<text text-anchor="middle" x="445.59" y="-699.5" font-family="Helvetica,sans-Serif" font-size="10.00">pocketmine\world\Position</text>
<polyline fill="none" stroke="#bfbfbf" points="372.59,-692.5 518.59,-692.5 "/>
<text text-anchor="middle" x="445.59" y="-680.5" font-family="Helvetica,sans-Serif" font-size="10.00"> </text>
<polyline fill="none" stroke="#bfbfbf" points="372.59,-673.5 518.59,-673.5 "/>
<text text-anchor="start" x="380.59" y="-661.5" font-family="Helvetica,sans-Serif" font-size="10.00">+ __construct()</text>
<text text-anchor="start" x="380.59" y="-650.5" font-family="Helvetica,sans-Serif" font-size="10.00">+ __toString()</text>
<text text-anchor="start" x="380.59" y="-639.5" font-family="Helvetica,sans-Serif" font-size="10.00">+ asPosition()</text>
<text text-anchor="start" x="380.59" y="-628.5" font-family="Helvetica,sans-Serif" font-size="10.00">+ equals()</text>
<text text-anchor="start" x="380.59" y="-617.5" font-family="Helvetica,sans-Serif" font-size="10.00">+ getSide()</text>
<text text-anchor="start" x="380.59" y="-606.5" font-family="Helvetica,sans-Serif" font-size="10.00">+ getWorld()</text>
<text text-anchor="start" x="380.59" y="-595.5" font-family="Helvetica,sans-Serif" font-size="10.00">+ isValid()</text>
<text text-anchor="start" x="380.59" y="-584.5" font-family="Helvetica,sans-Serif" font-size="10.00">+ fromObject()</text>
</a>
</g>
</g>
<!-- Node8&#45;&gt;Node4 -->
<g id="edge8" class="edge">
<title>Node8&#45;&gt;Node4</title>
<path fill="none" stroke="#404040" d="M413.63,-577.2C408.05,-565.63 402.09,-553.27 396.05,-540.75"/>
<polygon fill="none" stroke="#404040" points="395.95,-540.54 389.74,-536.87 390.74,-529.73 396.95,-533.4 395.95,-540.54"/>
<text text-anchor="middle" x="433.09" y="-551" font-family="Helvetica,sans-Serif" font-size="10.00"> #$position</text>
</g>
<!-- Node9 -->
<g id="node9" class="node">
<title>Node9</title>
<g id="a_node9"><a xlink:href="../../d2/d90/classpocketmine_1_1math_1_1_vector3.html" target="_top" xlink:title=" ">
<polygon fill="white" stroke="#bfbfbf" points="547.59,-955 547.59,-1188 689.59,-1188 689.59,-955 547.59,-955"/>
<text text-anchor="middle" x="618.59" y="-1176" font-family="Helvetica,sans-Serif" font-size="10.00">pocketmine\math\Vector3</text>
<polyline fill="none" stroke="#bfbfbf" points="547.59,-1169 689.59,-1169 "/>
<text text-anchor="start" x="555.59" y="-1157" font-family="Helvetica,sans-Serif" font-size="10.00">+ $x</text>
<text text-anchor="start" x="555.59" y="-1146" font-family="Helvetica,sans-Serif" font-size="10.00">+ $y</text>
<text text-anchor="start" x="555.59" y="-1135" font-family="Helvetica,sans-Serif" font-size="10.00">+ $z</text>
<polyline fill="none" stroke="#bfbfbf" points="547.59,-1128 689.59,-1128 "/>
<text text-anchor="start" x="555.59" y="-1116" font-family="Helvetica,sans-Serif" font-size="10.00">+ __construct()</text>
<text text-anchor="start" x="555.59" y="-1105" font-family="Helvetica,sans-Serif" font-size="10.00">+ __toString()</text>
<text text-anchor="start" x="555.59" y="-1094" font-family="Helvetica,sans-Serif" font-size="10.00">+ abs()</text>
<text text-anchor="start" x="555.59" y="-1083" font-family="Helvetica,sans-Serif" font-size="10.00">+ add()</text>
<text text-anchor="start" x="555.59" y="-1072" font-family="Helvetica,sans-Serif" font-size="10.00">+ addVector()</text>
<text text-anchor="start" x="555.59" y="-1061" font-family="Helvetica,sans-Serif" font-size="10.00">+ asVector3()</text>
<text text-anchor="start" x="555.59" y="-1050" font-family="Helvetica,sans-Serif" font-size="10.00">+ ceil()</text>
<text text-anchor="start" x="555.59" y="-1039" font-family="Helvetica,sans-Serif" font-size="10.00">+ cross()</text>
<text text-anchor="start" x="555.59" y="-1028" font-family="Helvetica,sans-Serif" font-size="10.00">+ distance()</text>
<text text-anchor="start" x="555.59" y="-1017" font-family="Helvetica,sans-Serif" font-size="10.00">+ distanceSquared()</text>
<text text-anchor="start" x="555.59" y="-1006" font-family="Helvetica,sans-Serif" font-size="10.00">and 32 more...</text>
<text text-anchor="start" x="555.59" y="-995" font-family="Helvetica,sans-Serif" font-size="10.00">+ maxComponents()</text>
<text text-anchor="start" x="555.59" y="-984" font-family="Helvetica,sans-Serif" font-size="10.00">+ minComponents()</text>
<text text-anchor="start" x="555.59" y="-973" font-family="Helvetica,sans-Serif" font-size="10.00">+ sum()</text>
<text text-anchor="start" x="555.59" y="-962" font-family="Helvetica,sans-Serif" font-size="10.00">+ zero()</text>
</a>
</g>
</g>
<!-- Node9&#45;&gt;Node8 -->
<g id="edge9" class="edge">
<title>Node9&#45;&gt;Node8</title>
<path fill="none" stroke="midnightblue" d="M578.96,-945.44C556.79,-880.12 527.1,-799.53 494.59,-730 491.79,-724.01 488.71,-717.88 485.49,-711.8"/>
<polygon fill="none" stroke="midnightblue" points="575.66,-946.61 582.17,-954.96 582.29,-944.37 575.66,-946.61"/>
</g>
<!-- Node10&#45;&gt;Node8 -->
<g id="edge10" class="edge">
<title>Node10&#45;&gt;Node8</title>
<path fill="none" stroke="#404040" d="M444.32,-916.46C444.63,-851.12 444.97,-777.78 445.22,-723.89"/>
<polygon fill="none" stroke="#404040" points="445.22,-723.67 441.25,-717.65 445.28,-711.67 449.25,-717.68 445.22,-723.67"/>
<text text-anchor="middle" x="468.09" y="-811.5" font-family="Helvetica,sans-Serif" font-size="10.00"> +$world</text>
</g>
<!-- Node11 -->
<g id="node11" class="node">
<title>Node11</title>
<g id="a_node11"><a xlink:href="../../d0/d03/interfacepocketmine_1_1world_1_1_chunk_manager.html" target="_top" xlink:title=" ">
<polygon fill="white" stroke="#bfbfbf" points="353.59,-1406.5 353.59,-1529.5 533.59,-1529.5 533.59,-1406.5 353.59,-1406.5"/>
<text text-anchor="middle" x="443.59" y="-1517.5" font-family="Helvetica,sans-Serif" font-size="10.00">pocketmine\world\ChunkManager</text>
<polyline fill="none" stroke="#bfbfbf" points="353.59,-1510.5 533.59,-1510.5 "/>
<text text-anchor="middle" x="443.59" y="-1498.5" font-family="Helvetica,sans-Serif" font-size="10.00"> </text>
<polyline fill="none" stroke="#bfbfbf" points="353.59,-1491.5 533.59,-1491.5 "/>
<text text-anchor="start" x="361.59" y="-1479.5" font-family="Helvetica,sans-Serif" font-size="10.00">+ getBlockAt()</text>
<text text-anchor="start" x="361.59" y="-1468.5" font-family="Helvetica,sans-Serif" font-size="10.00">+ getChunk()</text>
<text text-anchor="start" x="361.59" y="-1457.5" font-family="Helvetica,sans-Serif" font-size="10.00">+ getMaxY()</text>
<text text-anchor="start" x="361.59" y="-1446.5" font-family="Helvetica,sans-Serif" font-size="10.00">+ getMinY()</text>
<text text-anchor="start" x="361.59" y="-1435.5" font-family="Helvetica,sans-Serif" font-size="10.00">+ isInWorld()</text>
<text text-anchor="start" x="361.59" y="-1424.5" font-family="Helvetica,sans-Serif" font-size="10.00">+ setBlockAt()</text>
<text text-anchor="start" x="361.59" y="-1413.5" font-family="Helvetica,sans-Serif" font-size="10.00">+ setChunk()</text>
</a>
</g>
</g>
<!-- Node11&#45;&gt;Node10 -->
<g id="edge11" class="edge">
<title>Node11&#45;&gt;Node10</title>
<path fill="none" stroke="midnightblue" d="M443.59,-1396.12C443.59,-1348.96 443.59,-1285.15 443.59,-1226.65"/>
<polygon fill="none" stroke="midnightblue" points="440.09,-1396.22 443.59,-1406.22 447.09,-1396.22 440.09,-1396.22"/>
</g>
<!-- Node12 -->
<g id="node12" class="node">
<title>Node12</title>
<g id="a_node12"><a xlink:href="../../d7/d08/classpocketmine_1_1world_1_1_world_timings.html" target="_top" xlink:title=" ">
<polygon fill="white" stroke="#bfbfbf" points="552.09,-1395.5 552.09,-1540.5 725.09,-1540.5 725.09,-1395.5 552.09,-1395.5"/>
<text text-anchor="middle" x="638.59" y="-1528.5" font-family="Helvetica,sans-Serif" font-size="10.00">pocketmine\world\WorldTimings</text>
<polyline fill="none" stroke="#bfbfbf" points="552.09,-1521.5 725.09,-1521.5 "/>
<text text-anchor="start" x="560.09" y="-1509.5" font-family="Helvetica,sans-Serif" font-size="10.00">+ $syncChunkLoad</text>
<text text-anchor="start" x="560.09" y="-1498.5" font-family="Helvetica,sans-Serif" font-size="10.00">+ $syncChunkLoadData</text>
<text text-anchor="start" x="560.09" y="-1487.5" font-family="Helvetica,sans-Serif" font-size="10.00">+ $syncChunkLoadEntities</text>
<text text-anchor="start" x="560.09" y="-1476.5" font-family="Helvetica,sans-Serif" font-size="10.00">+ $syncChunkLoadFixInvalid</text>
<text text-anchor="start" x="560.09" y="-1465.5" font-family="Helvetica,sans-Serif" font-size="10.00">Blocks</text>
<text text-anchor="start" x="560.09" y="-1454.5" font-family="Helvetica,sans-Serif" font-size="10.00">+ $syncChunkLoadTileEntities</text>
<text text-anchor="start" x="560.09" y="-1443.5" font-family="Helvetica,sans-Serif" font-size="10.00">+ $syncChunkSave</text>
<text text-anchor="start" x="560.09" y="-1432.5" font-family="Helvetica,sans-Serif" font-size="10.00">+ $syncChunkSend</text>
<text text-anchor="start" x="560.09" y="-1421.5" font-family="Helvetica,sans-Serif" font-size="10.00">+ $syncChunkSendPrepare</text>
<polyline fill="none" stroke="#bfbfbf" points="552.09,-1414.5 725.09,-1414.5 "/>
<text text-anchor="start" x="560.09" y="-1402.5" font-family="Helvetica,sans-Serif" font-size="10.00">+ __construct()</text>
</a>
</g>
</g>
<!-- Node12&#45;&gt;Node10 -->
<g id="edge13" class="edge">
<title>Node12&#45;&gt;Node10</title>
<path fill="none" stroke="#404040" d="M603.05,-1395.1C581.27,-1351.04 552.45,-1292.72 525.3,-1237.79"/>
<polygon fill="none" stroke="#404040" points="525.21,-1237.62 518.97,-1234.01 519.89,-1226.86 526.14,-1230.47 525.21,-1237.62"/>
<text text-anchor="middle" x="618.09" y="-1308.5" font-family="Helvetica,sans-Serif" font-size="10.00"> +$timings</text>
</g>
<!-- Node13 -->
<g id="node13" class="node">
<title>Node13</title>
<g id="a_node13"><a xlink:href="../../d7/d9b/classpocketmine_1_1timings_1_1_timings_handler.html" target="_top" xlink:title=" ">
<polygon fill="white" stroke="#bfbfbf" points="582.09,-1709.5 582.09,-1898.5 695.09,-1898.5 695.09,-1709.5 582.09,-1709.5"/>
<text text-anchor="start" x="590.09" y="-1886.5" font-family="Helvetica,sans-Serif" font-size="10.00">pocketmine\timings</text>
<text text-anchor="middle" x="638.59" y="-1875.5" font-family="Helvetica,sans-Serif" font-size="10.00">\TimingsHandler</text>
<polyline fill="none" stroke="#bfbfbf" points="582.09,-1868.5 695.09,-1868.5 "/>
<text text-anchor="middle" x="638.59" y="-1856.5" font-family="Helvetica,sans-Serif" font-size="10.00"> </text>
<polyline fill="none" stroke="#bfbfbf" points="582.09,-1849.5 695.09,-1849.5 "/>
<text text-anchor="start" x="590.09" y="-1837.5" font-family="Helvetica,sans-Serif" font-size="10.00">+ __construct()</text>
<text text-anchor="start" x="590.09" y="-1826.5" font-family="Helvetica,sans-Serif" font-size="10.00">+ destroyCycles()</text>
<text text-anchor="start" x="590.09" y="-1815.5" font-family="Helvetica,sans-Serif" font-size="10.00">+ getName()</text>
<text text-anchor="start" x="590.09" y="-1804.5" font-family="Helvetica,sans-Serif" font-size="10.00">+ startTiming()</text>
<text text-anchor="start" x="590.09" y="-1793.5" font-family="Helvetica,sans-Serif" font-size="10.00">+ stopTiming()</text>
<text text-anchor="start" x="590.09" y="-1782.5" font-family="Helvetica,sans-Serif" font-size="10.00">+ time()</text>
<text text-anchor="start" x="590.09" y="-1771.5" font-family="Helvetica,sans-Serif" font-size="10.00">+ getStartTime()</text>
<text text-anchor="start" x="590.09" y="-1760.5" font-family="Helvetica,sans-Serif" font-size="10.00">+ isEnabled()</text>
<text text-anchor="start" x="590.09" y="-1749.5" font-family="Helvetica,sans-Serif" font-size="10.00">+ printTimings()</text>
<text text-anchor="start" x="590.09" y="-1738.5" font-family="Helvetica,sans-Serif" font-size="10.00">+ reload()</text>
<text text-anchor="start" x="590.09" y="-1727.5" font-family="Helvetica,sans-Serif" font-size="10.00">+ setEnabled()</text>
<text text-anchor="start" x="590.09" y="-1716.5" font-family="Helvetica,sans-Serif" font-size="10.00">+ tick()</text>
</a>
</g>
</g>
<!-- Node13&#45;&gt;Node12 -->
<g id="edge14" class="edge">
<title>Node13&#45;&gt;Node12</title>
<path fill="none" stroke="#404040" d="M638.59,-1709.07C638.59,-1659.91 638.59,-1600.21 638.59,-1552.65"/>
<polygon fill="none" stroke="#404040" points="638.59,-1552.52 634.59,-1546.52 638.59,-1540.52 642.59,-1546.52 638.59,-1552.52"/>
<text text-anchor="middle" x="715.59" y="-1683" font-family="Helvetica,sans-Serif" font-size="10.00"> +$doBlockLightUpdates</text>
<text text-anchor="middle" x="715.59" y="-1672" font-family="Helvetica,sans-Serif" font-size="10.00">+$doBlockSkyLightUpdates</text>
<text text-anchor="middle" x="715.59" y="-1661" font-family="Helvetica,sans-Serif" font-size="10.00">+$doChunkGC</text>
<text text-anchor="middle" x="715.59" y="-1650" font-family="Helvetica,sans-Serif" font-size="10.00">+$doChunkUnload</text>
<text text-anchor="middle" x="715.59" y="-1639" font-family="Helvetica,sans-Serif" font-size="10.00">+$doTick</text>
<text text-anchor="middle" x="715.59" y="-1628" font-family="Helvetica,sans-Serif" font-size="10.00">+$entityTick</text>
<text text-anchor="middle" x="715.59" y="-1617" font-family="Helvetica,sans-Serif" font-size="10.00">+$randomChunkUpdates</text>
<text text-anchor="start" x="638.59" y="-1606" font-family="Helvetica,sans-Serif" font-size="10.00">+$randomChunkUpdatesChunk</text>
<text text-anchor="middle" x="715.59" y="-1595" font-family="Helvetica,sans-Serif" font-size="10.00">Selection</text>
<text text-anchor="middle" x="715.59" y="-1584" font-family="Helvetica,sans-Serif" font-size="10.00">+$scheduledBlockUpdates</text>
<text text-anchor="middle" x="715.59" y="-1573" font-family="Helvetica,sans-Serif" font-size="10.00">+$setBlock</text>
<text text-anchor="middle" x="715.59" y="-1562" font-family="Helvetica,sans-Serif" font-size="10.00">...</text>
</g>
</g>
</svg>
