<?xml version="1.0" encoding="UTF-8" standalone="no"?>
<!DOCTYPE svg PUBLIC "-//W3C//DTD SVG 1.1//EN"
 "http://www.w3.org/Graphics/SVG/1.1/DTD/svg11.dtd">
<!-- Generated by graphviz version 2.43.0 (0)
 -->
<!-- Title: pocketmine\block\WoodenButton Pages: 1 -->
<svg width="660pt" height="2010pt"
 viewBox="0.00 0.00 660.39 2010.00" xmlns="http://www.w3.org/2000/svg" xmlns:xlink="http://www.w3.org/1999/xlink">
<g id="graph0" class="graph" transform="scale(1 1) rotate(0) translate(4 2006)">
<title>pocketmine\block\WoodenButton</title>
<polygon fill="white" stroke="transparent" points="-4,4 -4,-2006 656.39,-2006 656.39,4 -4,4"/>
<!-- Node1 -->
<g id="node1" class="node">
<title>Node1</title>
<g id="a_node1"><a xlink:title=" ">
<polygon fill="#bfbfbf" stroke="black" points="238.89,-0.5 238.89,-68.5 415.89,-68.5 415.89,-0.5 238.89,-0.5"/>
<text text-anchor="middle" x="327.39" y="-56.5" font-family="Helvetica,sans-Serif" font-size="10.00">pocketmine\block\WoodenButton</text>
<polyline fill="none" stroke="black" points="238.89,-49.5 415.89,-49.5 "/>
<text text-anchor="middle" x="327.39" y="-37.5" font-family="Helvetica,sans-Serif" font-size="10.00"> </text>
<polyline fill="none" stroke="black" points="238.89,-30.5 415.89,-30.5 "/>
<text text-anchor="start" x="246.89" y="-18.5" font-family="Helvetica,sans-Serif" font-size="10.00">+ hasEntityCollision()</text>
<text text-anchor="start" x="246.89" y="-7.5" font-family="Helvetica,sans-Serif" font-size="10.00"># getActivationTime()</text>
</a>
</g>
</g>
<!-- Node2 -->
<g id="node2" class="node">
<title>Node2</title>
<g id="a_node2"><a xlink:href="../../d2/da2/classpocketmine_1_1block_1_1_button.html" target="_top" xlink:title=" ">
<polygon fill="white" stroke="#bfbfbf" points="251.39,-106.5 251.39,-240.5 403.39,-240.5 403.39,-106.5 251.39,-106.5"/>
<text text-anchor="middle" x="327.39" y="-228.5" font-family="Helvetica,sans-Serif" font-size="10.00">pocketmine\block\Button</text>
<polyline fill="none" stroke="#bfbfbf" points="251.39,-221.5 403.39,-221.5 "/>
<text text-anchor="start" x="259.39" y="-209.5" font-family="Helvetica,sans-Serif" font-size="10.00"># $pressed</text>
<polyline fill="none" stroke="#bfbfbf" points="251.39,-202.5 403.39,-202.5 "/>
<text text-anchor="start" x="259.39" y="-190.5" font-family="Helvetica,sans-Serif" font-size="10.00">+ isPressed()</text>
<text text-anchor="start" x="259.39" y="-179.5" font-family="Helvetica,sans-Serif" font-size="10.00">+ onInteract()</text>
<text text-anchor="start" x="259.39" y="-168.5" font-family="Helvetica,sans-Serif" font-size="10.00">+ onNearbyBlockChange()</text>
<text text-anchor="start" x="259.39" y="-157.5" font-family="Helvetica,sans-Serif" font-size="10.00">+ onScheduledUpdate()</text>
<text text-anchor="start" x="259.39" y="-146.5" font-family="Helvetica,sans-Serif" font-size="10.00">+ place()</text>
<text text-anchor="start" x="259.39" y="-135.5" font-family="Helvetica,sans-Serif" font-size="10.00">+ setPressed()</text>
<text text-anchor="start" x="259.39" y="-124.5" font-family="Helvetica,sans-Serif" font-size="10.00"># describeBlockOnlyState()</text>
<text text-anchor="start" x="259.39" y="-113.5" font-family="Helvetica,sans-Serif" font-size="10.00"># getActivationTime()</text>
</a>
</g>
</g>
<!-- Node2&#45;&gt;Node1 -->
<g id="edge1" class="edge">
<title>Node2&#45;&gt;Node1</title>
<path fill="none" stroke="midnightblue" d="M327.39,-96.26C327.39,-86.56 327.39,-77.07 327.39,-68.58"/>
<polygon fill="none" stroke="midnightblue" points="323.89,-96.41 327.39,-106.41 330.89,-96.41 323.89,-96.41"/>
</g>
<!-- Node3 -->
<g id="node3" class="node">
<title>Node3</title>
<g id="a_node3"><a xlink:href="../../d3/d1e/classpocketmine_1_1block_1_1_flowable.html" target="_top" xlink:title=" ">
<polygon fill="white" stroke="black" points="246.89,-278.5 246.89,-368.5 407.89,-368.5 407.89,-278.5 246.89,-278.5"/>
<text text-anchor="middle" x="327.39" y="-356.5" font-family="Helvetica,sans-Serif" font-size="10.00">pocketmine\block\Flowable</text>
<polyline fill="none" stroke="black" points="246.89,-349.5 407.89,-349.5 "/>
<text text-anchor="middle" x="327.39" y="-337.5" font-family="Helvetica,sans-Serif" font-size="10.00"> </text>
<polyline fill="none" stroke="black" points="246.89,-330.5 407.89,-330.5 "/>
<text text-anchor="start" x="254.89" y="-318.5" font-family="Helvetica,sans-Serif" font-size="10.00">+ canBeFlowedInto()</text>
<text text-anchor="start" x="254.89" y="-307.5" font-family="Helvetica,sans-Serif" font-size="10.00">+ getSupportType()</text>
<text text-anchor="start" x="254.89" y="-296.5" font-family="Helvetica,sans-Serif" font-size="10.00">+ isSolid()</text>
<text text-anchor="start" x="254.89" y="-285.5" font-family="Helvetica,sans-Serif" font-size="10.00"># recalculateCollisionBoxes()</text>
</a>
</g>
</g>
<!-- Node3&#45;&gt;Node2 -->
<g id="edge2" class="edge">
<title>Node3&#45;&gt;Node2</title>
<path fill="none" stroke="midnightblue" d="M327.39,-268.46C327.39,-259.38 327.39,-249.87 327.39,-240.53"/>
<polygon fill="none" stroke="midnightblue" points="323.89,-268.5 327.39,-278.5 330.89,-268.5 323.89,-268.5"/>
</g>
<!-- Node4 -->
<g id="node4" class="node">
<title>Node4</title>
<g id="a_node4"><a xlink:href="../../d5/d1b/classpocketmine_1_1block_1_1_transparent.html" target="_top" xlink:title=" ">
<polygon fill="white" stroke="black" points="245.89,-406.5 245.89,-463.5 408.89,-463.5 408.89,-406.5 245.89,-406.5"/>
<text text-anchor="middle" x="327.39" y="-451.5" font-family="Helvetica,sans-Serif" font-size="10.00">pocketmine\block\Transparent</text>
<polyline fill="none" stroke="black" points="245.89,-444.5 408.89,-444.5 "/>
<text text-anchor="middle" x="327.39" y="-432.5" font-family="Helvetica,sans-Serif" font-size="10.00"> </text>
<polyline fill="none" stroke="black" points="245.89,-425.5 408.89,-425.5 "/>
<text text-anchor="start" x="253.89" y="-413.5" font-family="Helvetica,sans-Serif" font-size="10.00">+ isTransparent()</text>
</a>
</g>
</g>
<!-- Node4&#45;&gt;Node3 -->
<g id="edge3" class="edge">
<title>Node4&#45;&gt;Node3</title>
<path fill="none" stroke="midnightblue" d="M327.39,-396.31C327.39,-387.43 327.39,-377.88 327.39,-368.74"/>
<polygon fill="none" stroke="midnightblue" points="323.89,-396.37 327.39,-406.37 330.89,-396.37 323.89,-396.37"/>
</g>
<!-- Node5 -->
<g id="node5" class="node">
<title>Node5</title>
<g id="a_node5"><a xlink:href="../../d7/d27/classpocketmine_1_1block_1_1_block.html" target="_top" xlink:title=" ">
<polygon fill="white" stroke="#bfbfbf" points="246.89,-501.5 246.89,-712.5 407.89,-712.5 407.89,-501.5 246.89,-501.5"/>
<text text-anchor="middle" x="327.39" y="-700.5" font-family="Helvetica,sans-Serif" font-size="10.00">pocketmine\block\Block</text>
<polyline fill="none" stroke="#bfbfbf" points="246.89,-693.5 407.89,-693.5 "/>
<text text-anchor="start" x="254.89" y="-681.5" font-family="Helvetica,sans-Serif" font-size="10.00"># $collisionBoxes</text>
<text text-anchor="start" x="254.89" y="-670.5" font-family="Helvetica,sans-Serif" font-size="10.00"># $fallbackName</text>
<polyline fill="none" stroke="#bfbfbf" points="246.89,-663.5 407.89,-663.5 "/>
<text text-anchor="start" x="254.89" y="-651.5" font-family="Helvetica,sans-Serif" font-size="10.00">+ __construct()</text>
<text text-anchor="start" x="254.89" y="-640.5" font-family="Helvetica,sans-Serif" font-size="10.00">+ __clone()</text>
<text text-anchor="start" x="254.89" y="-629.5" font-family="Helvetica,sans-Serif" font-size="10.00">+ __toString()</text>
<text text-anchor="start" x="254.89" y="-618.5" font-family="Helvetica,sans-Serif" font-size="10.00">+ addVelocityToEntity()</text>
<text text-anchor="start" x="254.89" y="-607.5" font-family="Helvetica,sans-Serif" font-size="10.00">+ asItem()</text>
<text text-anchor="start" x="254.89" y="-596.5" font-family="Helvetica,sans-Serif" font-size="10.00">+ blocksDirectSkyLight()</text>
<text text-anchor="start" x="254.89" y="-585.5" font-family="Helvetica,sans-Serif" font-size="10.00">+ burnsForever()</text>
<text text-anchor="start" x="254.89" y="-574.5" font-family="Helvetica,sans-Serif" font-size="10.00">+ calculateIntercept()</text>
<text text-anchor="start" x="254.89" y="-563.5" font-family="Helvetica,sans-Serif" font-size="10.00">+ canBeFlowedInto()</text>
<text text-anchor="start" x="254.89" y="-552.5" font-family="Helvetica,sans-Serif" font-size="10.00">+ canBePlaced()</text>
<text text-anchor="start" x="254.89" y="-541.5" font-family="Helvetica,sans-Serif" font-size="10.00">and 59 more...</text>
<text text-anchor="start" x="254.89" y="-530.5" font-family="Helvetica,sans-Serif" font-size="10.00"># describeBlockOnlyState()</text>
<text text-anchor="start" x="254.89" y="-519.5" font-family="Helvetica,sans-Serif" font-size="10.00"># getXpDropAmount()</text>
<text text-anchor="start" x="254.89" y="-508.5" font-family="Helvetica,sans-Serif" font-size="10.00"># recalculateCollisionBoxes()</text>
</a>
</g>
</g>
<!-- Node5&#45;&gt;Node4 -->
<g id="edge4" class="edge">
<title>Node5&#45;&gt;Node4</title>
<path fill="none" stroke="midnightblue" d="M327.39,-491.05C327.39,-481.05 327.39,-471.68 327.39,-463.61"/>
<polygon fill="none" stroke="midnightblue" points="323.89,-491.24 327.39,-501.24 330.89,-491.24 323.89,-491.24"/>
</g>
<!-- Node6 -->
<g id="node6" class="node">
<title>Node6</title>
<g id="a_node6"><a xlink:title=" ">
<polygon fill="white" stroke="#bfbfbf" points="4.89,-1509.5 4.89,-1566.5 47.89,-1566.5 47.89,-1509.5 4.89,-1509.5"/>
<text text-anchor="middle" x="26.39" y="-1554.5" font-family="Helvetica,sans-Serif" font-size="10.00">const</text>
<polyline fill="none" stroke="#bfbfbf" points="4.89,-1547.5 47.89,-1547.5 "/>
<text text-anchor="middle" x="26.39" y="-1535.5" font-family="Helvetica,sans-Serif" font-size="10.00"> </text>
<polyline fill="none" stroke="#bfbfbf" points="4.89,-1528.5 47.89,-1528.5 "/>
<text text-anchor="middle" x="26.39" y="-1516.5" font-family="Helvetica,sans-Serif" font-size="10.00"> </text>
</a>
</g>
</g>
<!-- Node6&#45;&gt;Node5 -->
<g id="edge5" class="edge">
<title>Node6&#45;&gt;Node5</title>
<path fill="none" stroke="#404040" d="M22.05,-1509.33C9.13,-1420.75 -24.8,-1136.84 32.39,-913 51.34,-838.85 61.09,-817.68 111.39,-760 146.61,-719.61 194.69,-684.42 236.54,-658.1"/>
<polygon fill="none" stroke="#404040" points="236.56,-658.09 239.55,-651.53 246.76,-651.77 243.76,-658.33 236.56,-658.09"/>
<text text-anchor="start" x="32.39" y="-938" font-family="Helvetica,sans-Serif" font-size="10.00"> +INTERNAL_STATE_DATA</text>
<text text-anchor="middle" x="110.89" y="-927" font-family="Helvetica,sans-Serif" font-size="10.00">_BITS</text>
<text text-anchor="middle" x="110.89" y="-916" font-family="Helvetica,sans-Serif" font-size="10.00">+INTERNAL_STATE_DATA_MASK</text>
</g>
<!-- Node11 -->
<g id="node11" class="node">
<title>Node11</title>
<g id="a_node11"><a xlink:href="../../d4/d2b/classpocketmine_1_1world_1_1_world.html" target="_top" xlink:title=" ">
<polygon fill="white" stroke="black" points="107.39,-964.5 107.39,-1274.5 279.39,-1274.5 279.39,-964.5 107.39,-964.5"/>
<text text-anchor="middle" x="193.39" y="-1262.5" font-family="Helvetica,sans-Serif" font-size="10.00">pocketmine\world\World</text>
<polyline fill="none" stroke="black" points="107.39,-1255.5 279.39,-1255.5 "/>
<text text-anchor="start" x="115.39" y="-1243.5" font-family="Helvetica,sans-Serif" font-size="10.00">+ $stopTime</text>
<text text-anchor="start" x="115.39" y="-1232.5" font-family="Helvetica,sans-Serif" font-size="10.00">+ $tickRateTime</text>
<text text-anchor="start" x="115.39" y="-1221.5" font-family="Helvetica,sans-Serif" font-size="10.00">+ $updateEntities</text>
<text text-anchor="start" x="115.39" y="-1210.5" font-family="Helvetica,sans-Serif" font-size="10.00">+ TIME_SUNRISE</text>
<text text-anchor="start" x="115.39" y="-1199.5" font-family="Helvetica,sans-Serif" font-size="10.00">+ TIME_SUNSET</text>
<text text-anchor="start" x="115.39" y="-1188.5" font-family="Helvetica,sans-Serif" font-size="10.00">+ Y_MAX</text>
<text text-anchor="start" x="115.39" y="-1177.5" font-family="Helvetica,sans-Serif" font-size="10.00">+ Y_MIN</text>
<polyline fill="none" stroke="black" points="107.39,-1170.5 279.39,-1170.5 "/>
<text text-anchor="start" x="115.39" y="-1158.5" font-family="Helvetica,sans-Serif" font-size="10.00">+ __construct()</text>
<text text-anchor="start" x="115.39" y="-1147.5" font-family="Helvetica,sans-Serif" font-size="10.00">+ __debugInfo()</text>
<text text-anchor="start" x="115.39" y="-1136.5" font-family="Helvetica,sans-Serif" font-size="10.00">+ addEntity()</text>
<text text-anchor="start" x="115.39" y="-1125.5" font-family="Helvetica,sans-Serif" font-size="10.00">+ addOnUnloadCallback()</text>
<text text-anchor="start" x="115.39" y="-1114.5" font-family="Helvetica,sans-Serif" font-size="10.00">+ addParticle()</text>
<text text-anchor="start" x="115.39" y="-1103.5" font-family="Helvetica,sans-Serif" font-size="10.00">+ addRandomTickedBlock()</text>
<text text-anchor="start" x="115.39" y="-1092.5" font-family="Helvetica,sans-Serif" font-size="10.00">+ addSound()</text>
<text text-anchor="start" x="115.39" y="-1081.5" font-family="Helvetica,sans-Serif" font-size="10.00">+ addTile()</text>
<text text-anchor="start" x="115.39" y="-1070.5" font-family="Helvetica,sans-Serif" font-size="10.00">+ broadcastPacketToViewers()</text>
<text text-anchor="start" x="115.39" y="-1059.5" font-family="Helvetica,sans-Serif" font-size="10.00">+ cancelUnloadChunkRequest()</text>
<text text-anchor="start" x="115.39" y="-1048.5" font-family="Helvetica,sans-Serif" font-size="10.00">and 120 more...</text>
<text text-anchor="start" x="115.39" y="-1037.5" font-family="Helvetica,sans-Serif" font-size="10.00">+ blockHash()</text>
<text text-anchor="start" x="115.39" y="-1026.5" font-family="Helvetica,sans-Serif" font-size="10.00">+ chunkBlockHash()</text>
<text text-anchor="start" x="115.39" y="-1015.5" font-family="Helvetica,sans-Serif" font-size="10.00">+ chunkHash()</text>
<text text-anchor="start" x="115.39" y="-1004.5" font-family="Helvetica,sans-Serif" font-size="10.00">+ getBlockXYZ()</text>
<text text-anchor="start" x="115.39" y="-993.5" font-family="Helvetica,sans-Serif" font-size="10.00">+ getDifficultyFromString()</text>
<text text-anchor="start" x="115.39" y="-982.5" font-family="Helvetica,sans-Serif" font-size="10.00">+ getXZ()</text>
<text text-anchor="start" x="115.39" y="-971.5" font-family="Helvetica,sans-Serif" font-size="10.00"># actuallyDoTick()</text>
</a>
</g>
</g>
<!-- Node6&#45;&gt;Node11 -->
<g id="edge12" class="edge">
<title>Node6&#45;&gt;Node11</title>
<path fill="none" stroke="#404040" d="M24.18,-1509.39C21.52,-1462.81 20.72,-1366.49 51.39,-1293 63,-1265.19 80.64,-1238.37 99.58,-1214.51"/>
<polygon fill="none" stroke="#404040" points="99.61,-1214.47 100.29,-1207.29 107.18,-1205.16 106.5,-1212.34 99.61,-1214.47"/>
<text text-anchor="start" x="51.39" y="-1417" font-family="Helvetica,sans-Serif" font-size="10.00"> +DEFAULT_TICKED_BLOCKS</text>
<text text-anchor="middle" x="121.39" y="-1406" font-family="Helvetica,sans-Serif" font-size="10.00">_PER_SUBCHUNK_PER_TICK</text>
<text text-anchor="middle" x="121.39" y="-1395" font-family="Helvetica,sans-Serif" font-size="10.00">+DIFFICULTY_EASY</text>
<text text-anchor="middle" x="121.39" y="-1384" font-family="Helvetica,sans-Serif" font-size="10.00">+DIFFICULTY_HARD</text>
<text text-anchor="middle" x="121.39" y="-1373" font-family="Helvetica,sans-Serif" font-size="10.00">+DIFFICULTY_NORMAL</text>
<text text-anchor="middle" x="121.39" y="-1362" font-family="Helvetica,sans-Serif" font-size="10.00">+DIFFICULTY_PEACEFUL</text>
<text text-anchor="middle" x="121.39" y="-1351" font-family="Helvetica,sans-Serif" font-size="10.00">+TIME_DAY</text>
<text text-anchor="middle" x="121.39" y="-1340" font-family="Helvetica,sans-Serif" font-size="10.00">+TIME_FULL</text>
<text text-anchor="middle" x="121.39" y="-1329" font-family="Helvetica,sans-Serif" font-size="10.00">+TIME_MIDNIGHT</text>
<text text-anchor="middle" x="121.39" y="-1318" font-family="Helvetica,sans-Serif" font-size="10.00">+TIME_NIGHT</text>
<text text-anchor="middle" x="121.39" y="-1307" font-family="Helvetica,sans-Serif" font-size="10.00">+TIME_NOON</text>
<text text-anchor="middle" x="121.39" y="-1296" font-family="Helvetica,sans-Serif" font-size="10.00">...</text>
</g>
<!-- Node7 -->
<g id="node7" class="node">
<title>Node7</title>
<g id="a_node7"><a xlink:href="../../dd/d18/classpocketmine_1_1block_1_1_block_identifier.html" target="_top" xlink:title=" ">
<polygon fill="white" stroke="#bfbfbf" points="284.39,-788 284.39,-867 460.39,-867 460.39,-788 284.39,-788"/>
<text text-anchor="middle" x="372.39" y="-855" font-family="Helvetica,sans-Serif" font-size="10.00">pocketmine\block\BlockIdentifier</text>
<polyline fill="none" stroke="#bfbfbf" points="284.39,-848 460.39,-848 "/>
<text text-anchor="middle" x="372.39" y="-836" font-family="Helvetica,sans-Serif" font-size="10.00"> </text>
<polyline fill="none" stroke="#bfbfbf" points="284.39,-829 460.39,-829 "/>
<text text-anchor="start" x="292.39" y="-817" font-family="Helvetica,sans-Serif" font-size="10.00">+ __construct()</text>
<text text-anchor="start" x="292.39" y="-806" font-family="Helvetica,sans-Serif" font-size="10.00">+ getBlockTypeId()</text>
<text text-anchor="start" x="292.39" y="-795" font-family="Helvetica,sans-Serif" font-size="10.00">+ getTileClass()</text>
</a>
</g>
</g>
<!-- Node7&#45;&gt;Node5 -->
<g id="edge6" class="edge">
<title>Node7&#45;&gt;Node5</title>
<path fill="none" stroke="#404040" d="M364.45,-787.94C360.75,-770 356.14,-747.59 351.44,-724.75"/>
<polygon fill="none" stroke="#404040" points="351.39,-724.54 346.26,-719.47 348.97,-712.79 354.1,-717.85 351.39,-724.54"/>
<text text-anchor="middle" x="377.39" y="-734" font-family="Helvetica,sans-Serif" font-size="10.00"> #$idInfo</text>
</g>
<!-- Node8 -->
<g id="node8" class="node">
<title>Node8</title>
<g id="a_node8"><a xlink:href="../../de/d9a/classpocketmine_1_1block_1_1_block_type_info.html" target="_top" xlink:title=" ">
<polygon fill="white" stroke="#bfbfbf" points="478.39,-782.5 478.39,-872.5 652.39,-872.5 652.39,-782.5 478.39,-782.5"/>
<text text-anchor="middle" x="565.39" y="-860.5" font-family="Helvetica,sans-Serif" font-size="10.00">pocketmine\block\BlockTypeInfo</text>
<polyline fill="none" stroke="#bfbfbf" points="478.39,-853.5 652.39,-853.5 "/>
<text text-anchor="middle" x="565.39" y="-841.5" font-family="Helvetica,sans-Serif" font-size="10.00"> </text>
<polyline fill="none" stroke="#bfbfbf" points="478.39,-834.5 652.39,-834.5 "/>
<text text-anchor="start" x="486.39" y="-822.5" font-family="Helvetica,sans-Serif" font-size="10.00">+ __construct()</text>
<text text-anchor="start" x="486.39" y="-811.5" font-family="Helvetica,sans-Serif" font-size="10.00">+ getBreakInfo()</text>
<text text-anchor="start" x="486.39" y="-800.5" font-family="Helvetica,sans-Serif" font-size="10.00">+ getTypeTags()</text>
<text text-anchor="start" x="486.39" y="-789.5" font-family="Helvetica,sans-Serif" font-size="10.00">+ hasTypeTag()</text>
</a>
</g>
</g>
<!-- Node8&#45;&gt;Node5 -->
<g id="edge7" class="edge">
<title>Node8&#45;&gt;Node5</title>
<path fill="none" stroke="#404040" d="M517.23,-782.28C488.55,-755.96 451.24,-721.7 417.3,-690.54"/>
<polygon fill="none" stroke="#404040" points="417.13,-690.38 410,-689.27 408.29,-682.27 415.41,-683.38 417.13,-690.38"/>
<text text-anchor="middle" x="497.39" y="-734" font-family="Helvetica,sans-Serif" font-size="10.00"> #$typeInfo</text>
</g>
<!-- Node9 -->
<g id="node9" class="node">
<title>Node9</title>
<g id="a_node9"><a xlink:href="../../d5/dd2/classpocketmine_1_1world_1_1_position.html" target="_top" xlink:title=" ">
<polygon fill="white" stroke="#bfbfbf" points="120.39,-760.5 120.39,-894.5 266.39,-894.5 266.39,-760.5 120.39,-760.5"/>
<text text-anchor="middle" x="193.39" y="-882.5" font-family="Helvetica,sans-Serif" font-size="10.00">pocketmine\world\Position</text>
<polyline fill="none" stroke="#bfbfbf" points="120.39,-875.5 266.39,-875.5 "/>
<text text-anchor="middle" x="193.39" y="-863.5" font-family="Helvetica,sans-Serif" font-size="10.00"> </text>
<polyline fill="none" stroke="#bfbfbf" points="120.39,-856.5 266.39,-856.5 "/>
<text text-anchor="start" x="128.39" y="-844.5" font-family="Helvetica,sans-Serif" font-size="10.00">+ __construct()</text>
<text text-anchor="start" x="128.39" y="-833.5" font-family="Helvetica,sans-Serif" font-size="10.00">+ __toString()</text>
<text text-anchor="start" x="128.39" y="-822.5" font-family="Helvetica,sans-Serif" font-size="10.00">+ asPosition()</text>
<text text-anchor="start" x="128.39" y="-811.5" font-family="Helvetica,sans-Serif" font-size="10.00">+ equals()</text>
<text text-anchor="start" x="128.39" y="-800.5" font-family="Helvetica,sans-Serif" font-size="10.00">+ getSide()</text>
<text text-anchor="start" x="128.39" y="-789.5" font-family="Helvetica,sans-Serif" font-size="10.00">+ getWorld()</text>
<text text-anchor="start" x="128.39" y="-778.5" font-family="Helvetica,sans-Serif" font-size="10.00">+ isValid()</text>
<text text-anchor="start" x="128.39" y="-767.5" font-family="Helvetica,sans-Serif" font-size="10.00">+ fromObject()</text>
</a>
</g>
</g>
<!-- Node9&#45;&gt;Node5 -->
<g id="edge8" class="edge">
<title>Node9&#45;&gt;Node5</title>
<path fill="none" stroke="#404040" d="M233.96,-760.35C241.25,-748.46 249.04,-735.75 256.9,-722.94"/>
<polygon fill="none" stroke="#404040" points="256.93,-722.89 256.66,-715.68 263.21,-712.66 263.48,-719.87 256.93,-722.89"/>
<text text-anchor="middle" x="276.89" y="-734" font-family="Helvetica,sans-Serif" font-size="10.00"> #$position</text>
</g>
<!-- Node10 -->
<g id="node10" class="node">
<title>Node10</title>
<g id="a_node10"><a xlink:href="../../d2/d90/classpocketmine_1_1math_1_1_vector3.html" target="_top" xlink:title=" ">
<polygon fill="white" stroke="#bfbfbf" points="297.39,-1003 297.39,-1236 439.39,-1236 439.39,-1003 297.39,-1003"/>
<text text-anchor="middle" x="368.39" y="-1224" font-family="Helvetica,sans-Serif" font-size="10.00">pocketmine\math\Vector3</text>
<polyline fill="none" stroke="#bfbfbf" points="297.39,-1217 439.39,-1217 "/>
<text text-anchor="start" x="305.39" y="-1205" font-family="Helvetica,sans-Serif" font-size="10.00">+ $x</text>
<text text-anchor="start" x="305.39" y="-1194" font-family="Helvetica,sans-Serif" font-size="10.00">+ $y</text>
<text text-anchor="start" x="305.39" y="-1183" font-family="Helvetica,sans-Serif" font-size="10.00">+ $z</text>
<polyline fill="none" stroke="#bfbfbf" points="297.39,-1176 439.39,-1176 "/>
<text text-anchor="start" x="305.39" y="-1164" font-family="Helvetica,sans-Serif" font-size="10.00">+ __construct()</text>
<text text-anchor="start" x="305.39" y="-1153" font-family="Helvetica,sans-Serif" font-size="10.00">+ __toString()</text>
<text text-anchor="start" x="305.39" y="-1142" font-family="Helvetica,sans-Serif" font-size="10.00">+ abs()</text>
<text text-anchor="start" x="305.39" y="-1131" font-family="Helvetica,sans-Serif" font-size="10.00">+ add()</text>
<text text-anchor="start" x="305.39" y="-1120" font-family="Helvetica,sans-Serif" font-size="10.00">+ addVector()</text>
<text text-anchor="start" x="305.39" y="-1109" font-family="Helvetica,sans-Serif" font-size="10.00">+ asVector3()</text>
<text text-anchor="start" x="305.39" y="-1098" font-family="Helvetica,sans-Serif" font-size="10.00">+ ceil()</text>
<text text-anchor="start" x="305.39" y="-1087" font-family="Helvetica,sans-Serif" font-size="10.00">+ cross()</text>
<text text-anchor="start" x="305.39" y="-1076" font-family="Helvetica,sans-Serif" font-size="10.00">+ distance()</text>
<text text-anchor="start" x="305.39" y="-1065" font-family="Helvetica,sans-Serif" font-size="10.00">+ distanceSquared()</text>
<text text-anchor="start" x="305.39" y="-1054" font-family="Helvetica,sans-Serif" font-size="10.00">and 32 more...</text>
<text text-anchor="start" x="305.39" y="-1043" font-family="Helvetica,sans-Serif" font-size="10.00">+ maxComponents()</text>
<text text-anchor="start" x="305.39" y="-1032" font-family="Helvetica,sans-Serif" font-size="10.00">+ minComponents()</text>
<text text-anchor="start" x="305.39" y="-1021" font-family="Helvetica,sans-Serif" font-size="10.00">+ sum()</text>
<text text-anchor="start" x="305.39" y="-1010" font-family="Helvetica,sans-Serif" font-size="10.00">+ zero()</text>
</a>
</g>
</g>
<!-- Node10&#45;&gt;Node9 -->
<g id="edge9" class="edge">
<title>Node10&#45;&gt;Node9</title>
<path fill="none" stroke="midnightblue" d="M305.69,-993.84C300.01,-983.65 294.2,-973.59 288.39,-964 274.32,-940.78 257.7,-916.24 242.32,-894.51"/>
<polygon fill="none" stroke="midnightblue" points="302.75,-995.76 310.65,-1002.82 308.88,-992.37 302.75,-995.76"/>
</g>
<!-- Node11&#45;&gt;Node9 -->
<g id="edge10" class="edge">
<title>Node11&#45;&gt;Node9</title>
<path fill="none" stroke="#404040" d="M193.39,-964.16C193.39,-944.27 193.39,-924.61 193.39,-906.69"/>
<polygon fill="none" stroke="#404040" points="193.39,-906.59 189.39,-900.59 193.39,-894.59 197.39,-900.59 193.39,-906.59"/>
<text text-anchor="middle" x="215.89" y="-927" font-family="Helvetica,sans-Serif" font-size="10.00"> +$world</text>
</g>
<!-- Node12 -->
<g id="node12" class="node">
<title>Node12</title>
<g id="a_node12"><a xlink:href="../../d0/d03/interfacepocketmine_1_1world_1_1_chunk_manager.html" target="_top" xlink:title=" ">
<polygon fill="white" stroke="#bfbfbf" points="107.39,-1476.5 107.39,-1599.5 287.39,-1599.5 287.39,-1476.5 107.39,-1476.5"/>
<text text-anchor="middle" x="197.39" y="-1587.5" font-family="Helvetica,sans-Serif" font-size="10.00">pocketmine\world\ChunkManager</text>
<polyline fill="none" stroke="#bfbfbf" points="107.39,-1580.5 287.39,-1580.5 "/>
<text text-anchor="middle" x="197.39" y="-1568.5" font-family="Helvetica,sans-Serif" font-size="10.00"> </text>
<polyline fill="none" stroke="#bfbfbf" points="107.39,-1561.5 287.39,-1561.5 "/>
<text text-anchor="start" x="115.39" y="-1549.5" font-family="Helvetica,sans-Serif" font-size="10.00">+ getBlockAt()</text>
<text text-anchor="start" x="115.39" y="-1538.5" font-family="Helvetica,sans-Serif" font-size="10.00">+ getChunk()</text>
<text text-anchor="start" x="115.39" y="-1527.5" font-family="Helvetica,sans-Serif" font-size="10.00">+ getMaxY()</text>
<text text-anchor="start" x="115.39" y="-1516.5" font-family="Helvetica,sans-Serif" font-size="10.00">+ getMinY()</text>
<text text-anchor="start" x="115.39" y="-1505.5" font-family="Helvetica,sans-Serif" font-size="10.00">+ isInWorld()</text>
<text text-anchor="start" x="115.39" y="-1494.5" font-family="Helvetica,sans-Serif" font-size="10.00">+ setBlockAt()</text>
<text text-anchor="start" x="115.39" y="-1483.5" font-family="Helvetica,sans-Serif" font-size="10.00">+ setChunk()</text>
</a>
</g>
</g>
<!-- Node12&#45;&gt;Node11 -->
<g id="edge11" class="edge">
<title>Node12&#45;&gt;Node11</title>
<path fill="none" stroke="midnightblue" d="M196.71,-1466.24C196.21,-1413.82 195.5,-1340.38 194.87,-1274.66"/>
<polygon fill="none" stroke="midnightblue" points="193.21,-1466.47 196.81,-1476.44 200.21,-1466.4 193.21,-1466.47"/>
</g>
<!-- Node13 -->
<g id="node13" class="node">
<title>Node13</title>
<g id="a_node13"><a xlink:href="../../d7/d08/classpocketmine_1_1world_1_1_world_timings.html" target="_top" xlink:title=" ">
<polygon fill="white" stroke="#bfbfbf" points="305.89,-1443.5 305.89,-1632.5 478.89,-1632.5 478.89,-1443.5 305.89,-1443.5"/>
<text text-anchor="middle" x="392.39" y="-1620.5" font-family="Helvetica,sans-Serif" font-size="10.00">pocketmine\world\WorldTimings</text>
<polyline fill="none" stroke="#bfbfbf" points="305.89,-1613.5 478.89,-1613.5 "/>
<text text-anchor="start" x="313.89" y="-1601.5" font-family="Helvetica,sans-Serif" font-size="10.00">+ $scheduledBlockUpdates</text>
<text text-anchor="start" x="313.89" y="-1590.5" font-family="Helvetica,sans-Serif" font-size="10.00">+ $setBlock</text>
<text text-anchor="start" x="313.89" y="-1579.5" font-family="Helvetica,sans-Serif" font-size="10.00">+ $syncChunkLoad</text>
<text text-anchor="start" x="313.89" y="-1568.5" font-family="Helvetica,sans-Serif" font-size="10.00">+ $syncChunkLoadData</text>
<text text-anchor="start" x="313.89" y="-1557.5" font-family="Helvetica,sans-Serif" font-size="10.00">+ $syncChunkLoadEntities</text>
<text text-anchor="start" x="313.89" y="-1546.5" font-family="Helvetica,sans-Serif" font-size="10.00">+ $syncChunkLoadFixInvalid</text>
<text text-anchor="start" x="313.89" y="-1535.5" font-family="Helvetica,sans-Serif" font-size="10.00">Blocks</text>
<text text-anchor="start" x="313.89" y="-1524.5" font-family="Helvetica,sans-Serif" font-size="10.00">+ $syncChunkLoadTileEntities</text>
<text text-anchor="start" x="313.89" y="-1513.5" font-family="Helvetica,sans-Serif" font-size="10.00">+ $syncChunkSave</text>
<text text-anchor="start" x="313.89" y="-1502.5" font-family="Helvetica,sans-Serif" font-size="10.00">+ $syncChunkSend</text>
<text text-anchor="start" x="313.89" y="-1491.5" font-family="Helvetica,sans-Serif" font-size="10.00">+ $syncChunkSendPrepare</text>
<text text-anchor="start" x="313.89" y="-1480.5" font-family="Helvetica,sans-Serif" font-size="10.00">+ $syncDataSave</text>
<text text-anchor="start" x="313.89" y="-1469.5" font-family="Helvetica,sans-Serif" font-size="10.00">+ $tileTick</text>
<polyline fill="none" stroke="#bfbfbf" points="305.89,-1462.5 478.89,-1462.5 "/>
<text text-anchor="start" x="313.89" y="-1450.5" font-family="Helvetica,sans-Serif" font-size="10.00">+ __construct()</text>
</a>
</g>
</g>
<!-- Node13&#45;&gt;Node11 -->
<g id="edge13" class="edge">
<title>Node13&#45;&gt;Node11</title>
<path fill="none" stroke="#404040" d="M347.61,-1443.27C325.41,-1396.81 297.94,-1339.32 272.37,-1285.79"/>
<polygon fill="none" stroke="#404040" points="272.28,-1285.62 266.09,-1281.93 267.11,-1274.79 273.31,-1278.48 272.28,-1285.62"/>
<text text-anchor="middle" x="361.89" y="-1356.5" font-family="Helvetica,sans-Serif" font-size="10.00"> +$timings</text>
</g>
<!-- Node14 -->
<g id="node14" class="node">
<title>Node14</title>
<g id="a_node14"><a xlink:href="../../d7/d9b/classpocketmine_1_1timings_1_1_timings_handler.html" target="_top" xlink:title=" ">
<polygon fill="white" stroke="#bfbfbf" points="335.89,-1801.5 335.89,-2001.5 448.89,-2001.5 448.89,-1801.5 335.89,-1801.5"/>
<text text-anchor="start" x="343.89" y="-1989.5" font-family="Helvetica,sans-Serif" font-size="10.00">pocketmine\timings</text>
<text text-anchor="middle" x="392.39" y="-1978.5" font-family="Helvetica,sans-Serif" font-size="10.00">\TimingsHandler</text>
<polyline fill="none" stroke="#bfbfbf" points="335.89,-1971.5 448.89,-1971.5 "/>
<text text-anchor="middle" x="392.39" y="-1959.5" font-family="Helvetica,sans-Serif" font-size="10.00"> </text>
<polyline fill="none" stroke="#bfbfbf" points="335.89,-1952.5 448.89,-1952.5 "/>
<text text-anchor="start" x="343.89" y="-1940.5" font-family="Helvetica,sans-Serif" font-size="10.00">+ __construct()</text>
<text text-anchor="start" x="343.89" y="-1929.5" font-family="Helvetica,sans-Serif" font-size="10.00">+ getGroup()</text>
<text text-anchor="start" x="343.89" y="-1918.5" font-family="Helvetica,sans-Serif" font-size="10.00">+ getName()</text>
<text text-anchor="start" x="343.89" y="-1907.5" font-family="Helvetica,sans-Serif" font-size="10.00">+ reset()</text>
<text text-anchor="start" x="343.89" y="-1896.5" font-family="Helvetica,sans-Serif" font-size="10.00">+ startTiming()</text>
<text text-anchor="start" x="343.89" y="-1885.5" font-family="Helvetica,sans-Serif" font-size="10.00">+ stopTiming()</text>
<text text-anchor="start" x="343.89" y="-1874.5" font-family="Helvetica,sans-Serif" font-size="10.00">+ time()</text>
<text text-anchor="start" x="343.89" y="-1863.5" font-family="Helvetica,sans-Serif" font-size="10.00">+ getStartTime()</text>
<text text-anchor="start" x="343.89" y="-1852.5" font-family="Helvetica,sans-Serif" font-size="10.00">+ isEnabled()</text>
<text text-anchor="start" x="343.89" y="-1841.5" font-family="Helvetica,sans-Serif" font-size="10.00">+ printTimings()</text>
<text text-anchor="start" x="343.89" y="-1830.5" font-family="Helvetica,sans-Serif" font-size="10.00">+ reload()</text>
<text text-anchor="start" x="343.89" y="-1819.5" font-family="Helvetica,sans-Serif" font-size="10.00">+ setEnabled()</text>
<text text-anchor="start" x="343.89" y="-1808.5" font-family="Helvetica,sans-Serif" font-size="10.00">+ tick()</text>
</a>
</g>
</g>
<!-- Node14&#45;&gt;Node13 -->
<g id="edge14" class="edge">
<title>Node14&#45;&gt;Node13</title>
<path fill="none" stroke="#404040" d="M392.39,-1801.24C392.39,-1752.68 392.39,-1694.19 392.39,-1644.78"/>
<polygon fill="none" stroke="#404040" points="392.39,-1644.75 388.39,-1638.75 392.39,-1632.75 396.39,-1638.75 392.39,-1644.75"/>
<text text-anchor="middle" x="469.89" y="-1775" font-family="Helvetica,sans-Serif" font-size="10.00"> +$chunkPopulationCompletion</text>
<text text-anchor="middle" x="469.89" y="-1764" font-family="Helvetica,sans-Serif" font-size="10.00">+$chunkPopulationOrder</text>
<text text-anchor="middle" x="469.89" y="-1753" font-family="Helvetica,sans-Serif" font-size="10.00">+$doBlockLightUpdates</text>
<text text-anchor="middle" x="469.89" y="-1742" font-family="Helvetica,sans-Serif" font-size="10.00">+$doBlockSkyLightUpdates</text>
<text text-anchor="middle" x="469.89" y="-1731" font-family="Helvetica,sans-Serif" font-size="10.00">+$doChunkGC</text>
<text text-anchor="middle" x="469.89" y="-1720" font-family="Helvetica,sans-Serif" font-size="10.00">+$doChunkUnload</text>
<text text-anchor="middle" x="469.89" y="-1709" font-family="Helvetica,sans-Serif" font-size="10.00">+$doTick</text>
<text text-anchor="middle" x="469.89" y="-1698" font-family="Helvetica,sans-Serif" font-size="10.00">+$entityTick</text>
<text text-anchor="middle" x="469.89" y="-1687" font-family="Helvetica,sans-Serif" font-size="10.00">+$randomChunkUpdates</text>
<text text-anchor="start" x="392.39" y="-1676" font-family="Helvetica,sans-Serif" font-size="10.00">+$randomChunkUpdatesChunk</text>
<text text-anchor="middle" x="469.89" y="-1665" font-family="Helvetica,sans-Serif" font-size="10.00">Selection</text>
<text text-anchor="middle" x="469.89" y="-1654" font-family="Helvetica,sans-Serif" font-size="10.00">...</text>
</g>
</g>
</svg>
