<?xml version="1.0" encoding="UTF-8" standalone="no"?>
<!DOCTYPE svg PUBLIC "-//W3C//DTD SVG 1.1//EN"
 "http://www.w3.org/Graphics/SVG/1.1/DTD/svg11.dtd">
<!-- Generated by graphviz version 2.43.0 (0)
 -->
<!-- Title: pocketmine\block\MelonStem Pages: 1 -->
<svg width="828pt" height="2262pt"
 viewBox="0.00 0.00 828.00 2262.00" xmlns="http://www.w3.org/2000/svg" xmlns:xlink="http://www.w3.org/1999/xlink">
<g id="graph0" class="graph" transform="scale(1 1) rotate(0) translate(4 2258)">
<title>pocketmine\block\MelonStem</title>
<polygon fill="white" stroke="transparent" points="-4,4 -4,-2258 824,-2258 824,4 -4,4"/>
<!-- Node1 -->
<g id="node1" class="node">
<title>Node1</title>
<g id="a_node1"><a xlink:title=" ">
<polygon fill="#bfbfbf" stroke="black" points="4.5,-0.5 4.5,-68.5 165.5,-68.5 165.5,-0.5 4.5,-0.5"/>
<text text-anchor="middle" x="85" y="-56.5" font-family="Helvetica,sans-Serif" font-size="10.00">pocketmine\block\MelonStem</text>
<polyline fill="none" stroke="black" points="4.5,-49.5 165.5,-49.5 "/>
<text text-anchor="middle" x="85" y="-37.5" font-family="Helvetica,sans-Serif" font-size="10.00"> </text>
<polyline fill="none" stroke="black" points="4.5,-30.5 165.5,-30.5 "/>
<text text-anchor="start" x="12.5" y="-18.5" font-family="Helvetica,sans-Serif" font-size="10.00">+ asItem()</text>
<text text-anchor="start" x="12.5" y="-7.5" font-family="Helvetica,sans-Serif" font-size="10.00"># getPlant()</text>
</a>
</g>
</g>
<!-- Node2 -->
<g id="node2" class="node">
<title>Node2</title>
<g id="a_node2"><a xlink:href="../../dc/d0c/classpocketmine_1_1block_1_1_stem.html" target="_top" xlink:title=" ">
<polygon fill="white" stroke="#bfbfbf" points="0,-106.5 0,-185.5 170,-185.5 170,-106.5 0,-106.5"/>
<text text-anchor="middle" x="85" y="-173.5" font-family="Helvetica,sans-Serif" font-size="10.00">pocketmine\block\Stem</text>
<polyline fill="none" stroke="#bfbfbf" points="0,-166.5 170,-166.5 "/>
<text text-anchor="middle" x="85" y="-154.5" font-family="Helvetica,sans-Serif" font-size="10.00"> </text>
<polyline fill="none" stroke="#bfbfbf" points="0,-147.5 170,-147.5 "/>
<text text-anchor="start" x="8" y="-135.5" font-family="Helvetica,sans-Serif" font-size="10.00">+ getDropsForCompatibleTool()</text>
<text text-anchor="start" x="8" y="-124.5" font-family="Helvetica,sans-Serif" font-size="10.00">+ onRandomTick()</text>
<text text-anchor="start" x="8" y="-113.5" font-family="Helvetica,sans-Serif" font-size="10.00"># getPlant()</text>
</a>
</g>
</g>
<!-- Node2&#45;&gt;Node1 -->
<g id="edge1" class="edge">
<title>Node2&#45;&gt;Node1</title>
<path fill="none" stroke="midnightblue" d="M85,-96.38C85,-87.02 85,-77.41 85,-68.67"/>
<polygon fill="none" stroke="midnightblue" points="81.5,-96.39 85,-106.39 88.5,-96.39 81.5,-96.39"/>
</g>
<!-- Node3 -->
<g id="node3" class="node">
<title>Node3</title>
<g id="a_node3"><a xlink:href="../../d2/d70/classpocketmine_1_1block_1_1_crops.html" target="_top" xlink:title=" ">
<polygon fill="white" stroke="#bfbfbf" points="4,-223.5 4,-379.5 166,-379.5 166,-223.5 4,-223.5"/>
<text text-anchor="middle" x="85" y="-367.5" font-family="Helvetica,sans-Serif" font-size="10.00">pocketmine\block\Crops</text>
<polyline fill="none" stroke="#bfbfbf" points="4,-360.5 166,-360.5 "/>
<text text-anchor="start" x="12" y="-348.5" font-family="Helvetica,sans-Serif" font-size="10.00"># $age</text>
<polyline fill="none" stroke="#bfbfbf" points="4,-341.5 166,-341.5 "/>
<text text-anchor="start" x="12" y="-329.5" font-family="Helvetica,sans-Serif" font-size="10.00">+ getAge()</text>
<text text-anchor="start" x="12" y="-318.5" font-family="Helvetica,sans-Serif" font-size="10.00">+ getRequiredStateDataBits()</text>
<text text-anchor="start" x="12" y="-307.5" font-family="Helvetica,sans-Serif" font-size="10.00">+ onInteract()</text>
<text text-anchor="start" x="12" y="-296.5" font-family="Helvetica,sans-Serif" font-size="10.00">+ onNearbyBlockChange()</text>
<text text-anchor="start" x="12" y="-285.5" font-family="Helvetica,sans-Serif" font-size="10.00">+ onRandomTick()</text>
<text text-anchor="start" x="12" y="-274.5" font-family="Helvetica,sans-Serif" font-size="10.00">+ place()</text>
<text text-anchor="start" x="12" y="-263.5" font-family="Helvetica,sans-Serif" font-size="10.00">+ setAge()</text>
<text text-anchor="start" x="12" y="-252.5" font-family="Helvetica,sans-Serif" font-size="10.00">+ ticksRandomly()</text>
<text text-anchor="start" x="12" y="-241.5" font-family="Helvetica,sans-Serif" font-size="10.00"># decodeState()</text>
<text text-anchor="start" x="12" y="-230.5" font-family="Helvetica,sans-Serif" font-size="10.00"># encodeState()</text>
</a>
</g>
</g>
<!-- Node3&#45;&gt;Node2 -->
<g id="edge2" class="edge">
<title>Node3&#45;&gt;Node2</title>
<path fill="none" stroke="midnightblue" d="M85,-213.28C85,-203.72 85,-194.38 85,-185.87"/>
<polygon fill="none" stroke="midnightblue" points="81.5,-213.3 85,-223.3 88.5,-213.3 81.5,-213.3"/>
</g>
<!-- Node4 -->
<g id="node4" class="node">
<title>Node4</title>
<g id="a_node4"><a xlink:href="../../d3/d1e/classpocketmine_1_1block_1_1_flowable.html" target="_top" xlink:title=" ">
<polygon fill="white" stroke="#bfbfbf" points="108.5,-417.5 108.5,-507.5 269.5,-507.5 269.5,-417.5 108.5,-417.5"/>
<text text-anchor="middle" x="189" y="-495.5" font-family="Helvetica,sans-Serif" font-size="10.00">pocketmine\block\Flowable</text>
<polyline fill="none" stroke="#bfbfbf" points="108.5,-488.5 269.5,-488.5 "/>
<text text-anchor="middle" x="189" y="-476.5" font-family="Helvetica,sans-Serif" font-size="10.00"> </text>
<polyline fill="none" stroke="#bfbfbf" points="108.5,-469.5 269.5,-469.5 "/>
<text text-anchor="start" x="116.5" y="-457.5" font-family="Helvetica,sans-Serif" font-size="10.00">+ canBeFlowedInto()</text>
<text text-anchor="start" x="116.5" y="-446.5" font-family="Helvetica,sans-Serif" font-size="10.00">+ getSupportType()</text>
<text text-anchor="start" x="116.5" y="-435.5" font-family="Helvetica,sans-Serif" font-size="10.00">+ isSolid()</text>
<text text-anchor="start" x="116.5" y="-424.5" font-family="Helvetica,sans-Serif" font-size="10.00"># recalculateCollisionBoxes()</text>
</a>
</g>
</g>
<!-- Node4&#45;&gt;Node3 -->
<g id="edge3" class="edge">
<title>Node4&#45;&gt;Node3</title>
<path fill="none" stroke="midnightblue" d="M154.54,-408.81C148.43,-399.48 141.96,-389.59 135.52,-379.74"/>
<polygon fill="none" stroke="midnightblue" points="151.63,-410.76 160.03,-417.21 157.49,-406.92 151.63,-410.76"/>
</g>
<!-- Node5 -->
<g id="node5" class="node">
<title>Node5</title>
<g id="a_node5"><a xlink:href="../../d5/d1b/classpocketmine_1_1block_1_1_transparent.html" target="_top" xlink:title=" ">
<polygon fill="white" stroke="#bfbfbf" points="145.5,-545.5 145.5,-602.5 308.5,-602.5 308.5,-545.5 145.5,-545.5"/>
<text text-anchor="middle" x="227" y="-590.5" font-family="Helvetica,sans-Serif" font-size="10.00">pocketmine\block\Transparent</text>
<polyline fill="none" stroke="#bfbfbf" points="145.5,-583.5 308.5,-583.5 "/>
<text text-anchor="middle" x="227" y="-571.5" font-family="Helvetica,sans-Serif" font-size="10.00"> </text>
<polyline fill="none" stroke="#bfbfbf" points="145.5,-564.5 308.5,-564.5 "/>
<text text-anchor="start" x="153.5" y="-552.5" font-family="Helvetica,sans-Serif" font-size="10.00">+ isTransparent()</text>
</a>
</g>
</g>
<!-- Node5&#45;&gt;Node4 -->
<g id="edge4" class="edge">
<title>Node5&#45;&gt;Node4</title>
<path fill="none" stroke="midnightblue" d="M214.12,-535.89C210.98,-526.85 207.59,-517.08 204.35,-507.74"/>
<polygon fill="none" stroke="midnightblue" points="210.83,-537.07 217.41,-545.37 217.44,-534.77 210.83,-537.07"/>
</g>
<!-- Node6 -->
<g id="node6" class="node">
<title>Node6</title>
<g id="a_node6"><a xlink:href="../../d7/d27/classpocketmine_1_1block_1_1_block.html" target="_top" xlink:title=" ">
<polygon fill="white" stroke="#bfbfbf" points="222.5,-640.5 222.5,-884.5 383.5,-884.5 383.5,-640.5 222.5,-640.5"/>
<text text-anchor="middle" x="303" y="-872.5" font-family="Helvetica,sans-Serif" font-size="10.00">pocketmine\block\Block</text>
<polyline fill="none" stroke="#bfbfbf" points="222.5,-865.5 383.5,-865.5 "/>
<text text-anchor="start" x="230.5" y="-853.5" font-family="Helvetica,sans-Serif" font-size="10.00"># $collisionBoxes</text>
<text text-anchor="start" x="230.5" y="-842.5" font-family="Helvetica,sans-Serif" font-size="10.00"># $fallbackName</text>
<polyline fill="none" stroke="#bfbfbf" points="222.5,-835.5 383.5,-835.5 "/>
<text text-anchor="start" x="230.5" y="-823.5" font-family="Helvetica,sans-Serif" font-size="10.00">+ __construct()</text>
<text text-anchor="start" x="230.5" y="-812.5" font-family="Helvetica,sans-Serif" font-size="10.00">+ __clone()</text>
<text text-anchor="start" x="230.5" y="-801.5" font-family="Helvetica,sans-Serif" font-size="10.00">+ __toString()</text>
<text text-anchor="start" x="230.5" y="-790.5" font-family="Helvetica,sans-Serif" font-size="10.00">+ addVelocityToEntity()</text>
<text text-anchor="start" x="230.5" y="-779.5" font-family="Helvetica,sans-Serif" font-size="10.00">+ asItem()</text>
<text text-anchor="start" x="230.5" y="-768.5" font-family="Helvetica,sans-Serif" font-size="10.00">+ blocksDirectSkyLight()</text>
<text text-anchor="start" x="230.5" y="-757.5" font-family="Helvetica,sans-Serif" font-size="10.00">+ burnsForever()</text>
<text text-anchor="start" x="230.5" y="-746.5" font-family="Helvetica,sans-Serif" font-size="10.00">+ calculateIntercept()</text>
<text text-anchor="start" x="230.5" y="-735.5" font-family="Helvetica,sans-Serif" font-size="10.00">+ canBeFlowedInto()</text>
<text text-anchor="start" x="230.5" y="-724.5" font-family="Helvetica,sans-Serif" font-size="10.00">+ canBePlaced()</text>
<text text-anchor="start" x="230.5" y="-713.5" font-family="Helvetica,sans-Serif" font-size="10.00">and 61 more...</text>
<text text-anchor="start" x="230.5" y="-702.5" font-family="Helvetica,sans-Serif" font-size="10.00"># decodeState()</text>
<text text-anchor="start" x="230.5" y="-691.5" font-family="Helvetica,sans-Serif" font-size="10.00"># decodeType()</text>
<text text-anchor="start" x="230.5" y="-680.5" font-family="Helvetica,sans-Serif" font-size="10.00"># encodeState()</text>
<text text-anchor="start" x="230.5" y="-669.5" font-family="Helvetica,sans-Serif" font-size="10.00"># encodeType()</text>
<text text-anchor="start" x="230.5" y="-658.5" font-family="Helvetica,sans-Serif" font-size="10.00"># getXpDropAmount()</text>
<text text-anchor="start" x="230.5" y="-647.5" font-family="Helvetica,sans-Serif" font-size="10.00"># recalculateCollisionBoxes()</text>
</a>
</g>
</g>
<!-- Node6&#45;&gt;Node5 -->
<g id="edge5" class="edge">
<title>Node6&#45;&gt;Node5</title>
<path fill="none" stroke="midnightblue" d="M249.89,-631.16C245.64,-620.74 241.69,-611.06 238.32,-602.77"/>
<polygon fill="none" stroke="midnightblue" points="246.67,-632.55 253.69,-640.49 253.16,-629.91 246.67,-632.55"/>
</g>
<!-- Node7 -->
<g id="node7" class="node">
<title>Node7</title>
<g id="a_node7"><a xlink:title=" ">
<polygon fill="white" stroke="#bfbfbf" points="77.5,-1794.5 77.5,-1851.5 120.5,-1851.5 120.5,-1794.5 77.5,-1794.5"/>
<text text-anchor="middle" x="99" y="-1839.5" font-family="Helvetica,sans-Serif" font-size="10.00">const</text>
<polyline fill="none" stroke="#bfbfbf" points="77.5,-1832.5 120.5,-1832.5 "/>
<text text-anchor="middle" x="99" y="-1820.5" font-family="Helvetica,sans-Serif" font-size="10.00"> </text>
<polyline fill="none" stroke="#bfbfbf" points="77.5,-1813.5 120.5,-1813.5 "/>
<text text-anchor="middle" x="99" y="-1801.5" font-family="Helvetica,sans-Serif" font-size="10.00"> </text>
</a>
</g>
</g>
<!-- Node7&#45;&gt;Node3 -->
<g id="edge17" class="edge">
<title>Node7&#45;&gt;Node3</title>
<path fill="none" stroke="#404040" d="M89.69,-1794.33C84.09,-1776.68 77.23,-1753.21 73,-1732 46.37,-1598.6 42,-1563.53 42,-1427.5 42,-1427.5 42,-1427.5 42,-461.5 42,-438.37 46.29,-413.98 52.17,-391.43"/>
<polygon fill="none" stroke="#404040" points="52.18,-391.4 49.92,-384.55 55.37,-379.83 57.63,-386.68 52.18,-391.4"/>
<text text-anchor="middle" x="72" y="-760" font-family="Helvetica,sans-Serif" font-size="10.00"> +MAX_AGE</text>
</g>
<!-- Node7&#45;&gt;Node6 -->
<g id="edge6" class="edge">
<title>Node7&#45;&gt;Node6</title>
<path fill="none" stroke="#404040" d="M95.71,-1794.41C82.1,-1677.26 32.91,-1220.74 76,-1085 103.33,-998.92 162.95,-916.02 214.23,-855.97"/>
<polygon fill="none" stroke="#404040" points="214.54,-855.61 215.44,-848.45 222.39,-846.53 221.49,-853.68 214.54,-855.61"/>
<text text-anchor="start" x="76" y="-1177.5" font-family="Helvetica,sans-Serif" font-size="10.00"> +INTERNAL_STATE_DATA</text>
<text text-anchor="middle" x="154.5" y="-1166.5" font-family="Helvetica,sans-Serif" font-size="10.00">_BITS</text>
<text text-anchor="middle" x="154.5" y="-1155.5" font-family="Helvetica,sans-Serif" font-size="10.00">+INTERNAL_STATE_DATA_MASK</text>
</g>
<!-- Node9 -->
<g id="node9" class="node">
<title>Node9</title>
<g id="a_node9"><a xlink:href="../../d3/d10/classpocketmine_1_1block_1_1_block_break_info.html" target="_top" xlink:title=" ">
<polygon fill="white" stroke="#bfbfbf" points="242,-1085.5 242,-1252.5 422,-1252.5 422,-1085.5 242,-1085.5"/>
<text text-anchor="middle" x="332" y="-1240.5" font-family="Helvetica,sans-Serif" font-size="10.00">pocketmine\block\BlockBreakInfo</text>
<polyline fill="none" stroke="#bfbfbf" points="242,-1233.5 422,-1233.5 "/>
<text text-anchor="middle" x="332" y="-1221.5" font-family="Helvetica,sans-Serif" font-size="10.00"> </text>
<polyline fill="none" stroke="#bfbfbf" points="242,-1214.5 422,-1214.5 "/>
<text text-anchor="start" x="250" y="-1202.5" font-family="Helvetica,sans-Serif" font-size="10.00">+ __construct()</text>
<text text-anchor="start" x="250" y="-1191.5" font-family="Helvetica,sans-Serif" font-size="10.00">+ breaksInstantly()</text>
<text text-anchor="start" x="250" y="-1180.5" font-family="Helvetica,sans-Serif" font-size="10.00">+ getBlastResistance()</text>
<text text-anchor="start" x="250" y="-1169.5" font-family="Helvetica,sans-Serif" font-size="10.00">+ getBreakTime()</text>
<text text-anchor="start" x="250" y="-1158.5" font-family="Helvetica,sans-Serif" font-size="10.00">+ getHardness()</text>
<text text-anchor="start" x="250" y="-1147.5" font-family="Helvetica,sans-Serif" font-size="10.00">+ getToolHarvestLevel()</text>
<text text-anchor="start" x="250" y="-1136.5" font-family="Helvetica,sans-Serif" font-size="10.00">+ getToolType()</text>
<text text-anchor="start" x="250" y="-1125.5" font-family="Helvetica,sans-Serif" font-size="10.00">+ isBreakable()</text>
<text text-anchor="start" x="250" y="-1114.5" font-family="Helvetica,sans-Serif" font-size="10.00">+ isToolCompatible()</text>
<text text-anchor="start" x="250" y="-1103.5" font-family="Helvetica,sans-Serif" font-size="10.00">+ indestructible()</text>
<text text-anchor="start" x="250" y="-1092.5" font-family="Helvetica,sans-Serif" font-size="10.00">+ instant()</text>
</a>
</g>
</g>
<!-- Node7&#45;&gt;Node9 -->
<g id="edge9" class="edge">
<title>Node7&#45;&gt;Node9</title>
<path fill="none" stroke="#404040" d="M97.55,-1794.42C96.08,-1751.85 96.21,-1667.97 115,-1600 149.05,-1476.79 219.82,-1347.39 271.31,-1263.13"/>
<polygon fill="none" stroke="#404040" points="271.36,-1263.05 271.09,-1255.85 277.65,-1252.83 277.91,-1260.04 271.36,-1263.05"/>
<text text-anchor="middle" x="202.5" y="-1669" font-family="Helvetica,sans-Serif" font-size="10.00"> +COMPATIBLE_TOOL_MULTIPLIER</text>
<text text-anchor="middle" x="202.5" y="-1658" font-family="Helvetica,sans-Serif" font-size="10.00">+INCOMPATIBLE_TOOL_MULTIPLIER</text>
</g>
<!-- Node12 -->
<g id="node12" class="node">
<title>Node12</title>
<g id="a_node12"><a xlink:href="../../d4/d2b/classpocketmine_1_1world_1_1_world.html" target="_top" xlink:title=" ">
<polygon fill="white" stroke="#bfbfbf" points="372,-1271.5 372,-1581.5 544,-1581.5 544,-1271.5 372,-1271.5"/>
<text text-anchor="middle" x="458" y="-1569.5" font-family="Helvetica,sans-Serif" font-size="10.00">pocketmine\world\World</text>
<polyline fill="none" stroke="#bfbfbf" points="372,-1562.5 544,-1562.5 "/>
<text text-anchor="start" x="380" y="-1550.5" font-family="Helvetica,sans-Serif" font-size="10.00">+ $stopTime</text>
<text text-anchor="start" x="380" y="-1539.5" font-family="Helvetica,sans-Serif" font-size="10.00">+ $tickRateTime</text>
<text text-anchor="start" x="380" y="-1528.5" font-family="Helvetica,sans-Serif" font-size="10.00">+ $updateEntities</text>
<text text-anchor="start" x="380" y="-1517.5" font-family="Helvetica,sans-Serif" font-size="10.00">+ TIME_SUNRISE</text>
<text text-anchor="start" x="380" y="-1506.5" font-family="Helvetica,sans-Serif" font-size="10.00">+ TIME_SUNSET</text>
<text text-anchor="start" x="380" y="-1495.5" font-family="Helvetica,sans-Serif" font-size="10.00">+ Y_MAX</text>
<text text-anchor="start" x="380" y="-1484.5" font-family="Helvetica,sans-Serif" font-size="10.00">+ Y_MIN</text>
<polyline fill="none" stroke="#bfbfbf" points="372,-1477.5 544,-1477.5 "/>
<text text-anchor="start" x="380" y="-1465.5" font-family="Helvetica,sans-Serif" font-size="10.00">+ __construct()</text>
<text text-anchor="start" x="380" y="-1454.5" font-family="Helvetica,sans-Serif" font-size="10.00">+ __debugInfo()</text>
<text text-anchor="start" x="380" y="-1443.5" font-family="Helvetica,sans-Serif" font-size="10.00">+ addEntity()</text>
<text text-anchor="start" x="380" y="-1432.5" font-family="Helvetica,sans-Serif" font-size="10.00">+ addOnUnloadCallback()</text>
<text text-anchor="start" x="380" y="-1421.5" font-family="Helvetica,sans-Serif" font-size="10.00">+ addParticle()</text>
<text text-anchor="start" x="380" y="-1410.5" font-family="Helvetica,sans-Serif" font-size="10.00">+ addRandomTickedBlock()</text>
<text text-anchor="start" x="380" y="-1399.5" font-family="Helvetica,sans-Serif" font-size="10.00">+ addSound()</text>
<text text-anchor="start" x="380" y="-1388.5" font-family="Helvetica,sans-Serif" font-size="10.00">+ addTile()</text>
<text text-anchor="start" x="380" y="-1377.5" font-family="Helvetica,sans-Serif" font-size="10.00">+ broadcastPacketToViewers()</text>
<text text-anchor="start" x="380" y="-1366.5" font-family="Helvetica,sans-Serif" font-size="10.00">+ cancelUnloadChunkRequest()</text>
<text text-anchor="start" x="380" y="-1355.5" font-family="Helvetica,sans-Serif" font-size="10.00">and 113 more...</text>
<text text-anchor="start" x="380" y="-1344.5" font-family="Helvetica,sans-Serif" font-size="10.00">+ blockHash()</text>
<text text-anchor="start" x="380" y="-1333.5" font-family="Helvetica,sans-Serif" font-size="10.00">+ chunkBlockHash()</text>
<text text-anchor="start" x="380" y="-1322.5" font-family="Helvetica,sans-Serif" font-size="10.00">+ chunkHash()</text>
<text text-anchor="start" x="380" y="-1311.5" font-family="Helvetica,sans-Serif" font-size="10.00">+ getBlockXYZ()</text>
<text text-anchor="start" x="380" y="-1300.5" font-family="Helvetica,sans-Serif" font-size="10.00">+ getDifficultyFromString()</text>
<text text-anchor="start" x="380" y="-1289.5" font-family="Helvetica,sans-Serif" font-size="10.00">+ getXZ()</text>
<text text-anchor="start" x="380" y="-1278.5" font-family="Helvetica,sans-Serif" font-size="10.00"># actuallyDoTick()</text>
</a>
</g>
</g>
<!-- Node7&#45;&gt;Node12 -->
<g id="edge14" class="edge">
<title>Node7&#45;&gt;Node12</title>
<path fill="none" stroke="#404040" d="M120.53,-1818.61C161.27,-1810.99 249.51,-1788.56 294,-1732 330.96,-1685 294.82,-1654.24 320,-1600 331.53,-1575.15 347.38,-1550.74 364.22,-1528.46"/>
<polygon fill="none" stroke="#404040" points="364.42,-1528.2 364.92,-1521.01 371.76,-1518.71 371.25,-1525.9 364.42,-1528.2"/>
<text text-anchor="start" x="320" y="-1724" font-family="Helvetica,sans-Serif" font-size="10.00"> +DEFAULT_TICKED_BLOCKS</text>
<text text-anchor="middle" x="390" y="-1713" font-family="Helvetica,sans-Serif" font-size="10.00">_PER_SUBCHUNK_PER_TICK</text>
<text text-anchor="middle" x="390" y="-1702" font-family="Helvetica,sans-Serif" font-size="10.00">+DIFFICULTY_EASY</text>
<text text-anchor="middle" x="390" y="-1691" font-family="Helvetica,sans-Serif" font-size="10.00">+DIFFICULTY_HARD</text>
<text text-anchor="middle" x="390" y="-1680" font-family="Helvetica,sans-Serif" font-size="10.00">+DIFFICULTY_NORMAL</text>
<text text-anchor="middle" x="390" y="-1669" font-family="Helvetica,sans-Serif" font-size="10.00">+DIFFICULTY_PEACEFUL</text>
<text text-anchor="middle" x="390" y="-1658" font-family="Helvetica,sans-Serif" font-size="10.00">+TIME_DAY</text>
<text text-anchor="middle" x="390" y="-1647" font-family="Helvetica,sans-Serif" font-size="10.00">+TIME_FULL</text>
<text text-anchor="middle" x="390" y="-1636" font-family="Helvetica,sans-Serif" font-size="10.00">+TIME_MIDNIGHT</text>
<text text-anchor="middle" x="390" y="-1625" font-family="Helvetica,sans-Serif" font-size="10.00">+TIME_NIGHT</text>
<text text-anchor="middle" x="390" y="-1614" font-family="Helvetica,sans-Serif" font-size="10.00">+TIME_NOON</text>
<text text-anchor="middle" x="390" y="-1603" font-family="Helvetica,sans-Serif" font-size="10.00">...</text>
</g>
<!-- Node8 -->
<g id="node8" class="node">
<title>Node8</title>
<g id="a_node8"><a xlink:href="../../dd/d18/classpocketmine_1_1block_1_1_block_identifier.html" target="_top" xlink:title=" ">
<polygon fill="white" stroke="#bfbfbf" points="549,-960 549,-1039 725,-1039 725,-960 549,-960"/>
<text text-anchor="middle" x="637" y="-1027" font-family="Helvetica,sans-Serif" font-size="10.00">pocketmine\block\BlockIdentifier</text>
<polyline fill="none" stroke="#bfbfbf" points="549,-1020 725,-1020 "/>
<text text-anchor="middle" x="637" y="-1008" font-family="Helvetica,sans-Serif" font-size="10.00"> </text>
<polyline fill="none" stroke="#bfbfbf" points="549,-1001 725,-1001 "/>
<text text-anchor="start" x="557" y="-989" font-family="Helvetica,sans-Serif" font-size="10.00">+ __construct()</text>
<text text-anchor="start" x="557" y="-978" font-family="Helvetica,sans-Serif" font-size="10.00">+ getBlockTypeId()</text>
<text text-anchor="start" x="557" y="-967" font-family="Helvetica,sans-Serif" font-size="10.00">+ getTileClass()</text>
</a>
</g>
</g>
<!-- Node8&#45;&gt;Node6 -->
<g id="edge7" class="edge">
<title>Node8&#45;&gt;Node6</title>
<path fill="none" stroke="#404040" d="M582.22,-959.96C531.12,-924 453.92,-869.69 393.64,-827.28"/>
<polygon fill="none" stroke="#404040" points="393.55,-827.21 386.34,-827.03 383.74,-820.31 390.95,-820.49 393.55,-827.21"/>
<text text-anchor="middle" x="533" y="-906" font-family="Helvetica,sans-Serif" font-size="10.00"> #$idInfo</text>
</g>
<!-- Node9&#45;&gt;Node6 -->
<g id="edge8" class="edge">
<title>Node9&#45;&gt;Node6</title>
<path fill="none" stroke="#404040" d="M314.5,-1085.5C313.54,-1079.26 312.68,-1073.04 312,-1067 305.72,-1011.48 303.1,-949.91 302.18,-896.81"/>
<polygon fill="none" stroke="#404040" points="302.18,-896.56 298.09,-890.62 302,-884.56 306.09,-890.5 302.18,-896.56"/>
<text text-anchor="middle" x="344" y="-997" font-family="Helvetica,sans-Serif" font-size="10.00"> #$breakInfo</text>
</g>
<!-- Node10 -->
<g id="node10" class="node">
<title>Node10</title>
<g id="a_node10"><a xlink:href="../../d5/dd2/classpocketmine_1_1world_1_1_position.html" target="_top" xlink:title=" ">
<polygon fill="white" stroke="#bfbfbf" points="385,-932.5 385,-1066.5 531,-1066.5 531,-932.5 385,-932.5"/>
<text text-anchor="middle" x="458" y="-1054.5" font-family="Helvetica,sans-Serif" font-size="10.00">pocketmine\world\Position</text>
<polyline fill="none" stroke="#bfbfbf" points="385,-1047.5 531,-1047.5 "/>
<text text-anchor="middle" x="458" y="-1035.5" font-family="Helvetica,sans-Serif" font-size="10.00"> </text>
<polyline fill="none" stroke="#bfbfbf" points="385,-1028.5 531,-1028.5 "/>
<text text-anchor="start" x="393" y="-1016.5" font-family="Helvetica,sans-Serif" font-size="10.00">+ __construct()</text>
<text text-anchor="start" x="393" y="-1005.5" font-family="Helvetica,sans-Serif" font-size="10.00">+ __toString()</text>
<text text-anchor="start" x="393" y="-994.5" font-family="Helvetica,sans-Serif" font-size="10.00">+ asPosition()</text>
<text text-anchor="start" x="393" y="-983.5" font-family="Helvetica,sans-Serif" font-size="10.00">+ equals()</text>
<text text-anchor="start" x="393" y="-972.5" font-family="Helvetica,sans-Serif" font-size="10.00">+ getSide()</text>
<text text-anchor="start" x="393" y="-961.5" font-family="Helvetica,sans-Serif" font-size="10.00">+ getWorld()</text>
<text text-anchor="start" x="393" y="-950.5" font-family="Helvetica,sans-Serif" font-size="10.00">+ isValid()</text>
<text text-anchor="start" x="393" y="-939.5" font-family="Helvetica,sans-Serif" font-size="10.00">+ fromObject()</text>
</a>
</g>
</g>
<!-- Node10&#45;&gt;Node6 -->
<g id="edge10" class="edge">
<title>Node10&#45;&gt;Node6</title>
<path fill="none" stroke="#404040" d="M414.41,-932.41C406.64,-920.63 398.3,-907.99 389.81,-895.12"/>
<polygon fill="none" stroke="#404040" points="389.58,-894.77 382.94,-891.97 382.98,-884.76 389.62,-887.56 389.58,-894.77"/>
<text text-anchor="middle" x="427.5" y="-906" font-family="Helvetica,sans-Serif" font-size="10.00"> #$position</text>
</g>
<!-- Node11 -->
<g id="node11" class="node">
<title>Node11</title>
<g id="a_node11"><a xlink:href="../../d2/d90/classpocketmine_1_1math_1_1_vector3.html" target="_top" xlink:title=" ">
<polygon fill="white" stroke="#bfbfbf" points="562,-1310 562,-1543 704,-1543 704,-1310 562,-1310"/>
<text text-anchor="middle" x="633" y="-1531" font-family="Helvetica,sans-Serif" font-size="10.00">pocketmine\math\Vector3</text>
<polyline fill="none" stroke="#bfbfbf" points="562,-1524 704,-1524 "/>
<text text-anchor="start" x="570" y="-1512" font-family="Helvetica,sans-Serif" font-size="10.00">+ $x</text>
<text text-anchor="start" x="570" y="-1501" font-family="Helvetica,sans-Serif" font-size="10.00">+ $y</text>
<text text-anchor="start" x="570" y="-1490" font-family="Helvetica,sans-Serif" font-size="10.00">+ $z</text>
<polyline fill="none" stroke="#bfbfbf" points="562,-1483 704,-1483 "/>
<text text-anchor="start" x="570" y="-1471" font-family="Helvetica,sans-Serif" font-size="10.00">+ __construct()</text>
<text text-anchor="start" x="570" y="-1460" font-family="Helvetica,sans-Serif" font-size="10.00">+ __toString()</text>
<text text-anchor="start" x="570" y="-1449" font-family="Helvetica,sans-Serif" font-size="10.00">+ abs()</text>
<text text-anchor="start" x="570" y="-1438" font-family="Helvetica,sans-Serif" font-size="10.00">+ add()</text>
<text text-anchor="start" x="570" y="-1427" font-family="Helvetica,sans-Serif" font-size="10.00">+ addVector()</text>
<text text-anchor="start" x="570" y="-1416" font-family="Helvetica,sans-Serif" font-size="10.00">+ asVector3()</text>
<text text-anchor="start" x="570" y="-1405" font-family="Helvetica,sans-Serif" font-size="10.00">+ ceil()</text>
<text text-anchor="start" x="570" y="-1394" font-family="Helvetica,sans-Serif" font-size="10.00">+ cross()</text>
<text text-anchor="start" x="570" y="-1383" font-family="Helvetica,sans-Serif" font-size="10.00">+ distance()</text>
<text text-anchor="start" x="570" y="-1372" font-family="Helvetica,sans-Serif" font-size="10.00">+ distanceSquared()</text>
<text text-anchor="start" x="570" y="-1361" font-family="Helvetica,sans-Serif" font-size="10.00">and 32 more...</text>
<text text-anchor="start" x="570" y="-1350" font-family="Helvetica,sans-Serif" font-size="10.00">+ maxComponents()</text>
<text text-anchor="start" x="570" y="-1339" font-family="Helvetica,sans-Serif" font-size="10.00">+ minComponents()</text>
<text text-anchor="start" x="570" y="-1328" font-family="Helvetica,sans-Serif" font-size="10.00">+ sum()</text>
<text text-anchor="start" x="570" y="-1317" font-family="Helvetica,sans-Serif" font-size="10.00">+ zero()</text>
</a>
</g>
</g>
<!-- Node11&#45;&gt;Node10 -->
<g id="edge11" class="edge">
<title>Node11&#45;&gt;Node10</title>
<path fill="none" stroke="midnightblue" d="M592.49,-1300.48C569.9,-1235.17 539.75,-1154.58 507,-1085 504.18,-1079.02 501.09,-1072.89 497.86,-1066.82"/>
<polygon fill="none" stroke="midnightblue" points="589.21,-1301.68 595.77,-1310 595.83,-1299.4 589.21,-1301.68"/>
</g>
<!-- Node12&#45;&gt;Node10 -->
<g id="edge12" class="edge">
<title>Node12&#45;&gt;Node10</title>
<path fill="none" stroke="#404040" d="M458,-1271.46C458,-1206.12 458,-1132.78 458,-1078.89"/>
<polygon fill="none" stroke="#404040" points="458,-1078.67 454,-1072.67 458,-1066.67 462,-1072.67 458,-1078.67"/>
<text text-anchor="middle" x="480.5" y="-1166.5" font-family="Helvetica,sans-Serif" font-size="10.00"> +$world</text>
</g>
<!-- Node13 -->
<g id="node13" class="node">
<title>Node13</title>
<g id="a_node13"><a xlink:href="../../d0/d03/interfacepocketmine_1_1world_1_1_chunk_manager.html" target="_top" xlink:title=" ">
<polygon fill="white" stroke="#bfbfbf" points="381,-1761.5 381,-1884.5 561,-1884.5 561,-1761.5 381,-1761.5"/>
<text text-anchor="middle" x="471" y="-1872.5" font-family="Helvetica,sans-Serif" font-size="10.00">pocketmine\world\ChunkManager</text>
<polyline fill="none" stroke="#bfbfbf" points="381,-1865.5 561,-1865.5 "/>
<text text-anchor="middle" x="471" y="-1853.5" font-family="Helvetica,sans-Serif" font-size="10.00"> </text>
<polyline fill="none" stroke="#bfbfbf" points="381,-1846.5 561,-1846.5 "/>
<text text-anchor="start" x="389" y="-1834.5" font-family="Helvetica,sans-Serif" font-size="10.00">+ getBlockAt()</text>
<text text-anchor="start" x="389" y="-1823.5" font-family="Helvetica,sans-Serif" font-size="10.00">+ getChunk()</text>
<text text-anchor="start" x="389" y="-1812.5" font-family="Helvetica,sans-Serif" font-size="10.00">+ getMaxY()</text>
<text text-anchor="start" x="389" y="-1801.5" font-family="Helvetica,sans-Serif" font-size="10.00">+ getMinY()</text>
<text text-anchor="start" x="389" y="-1790.5" font-family="Helvetica,sans-Serif" font-size="10.00">+ isInWorld()</text>
<text text-anchor="start" x="389" y="-1779.5" font-family="Helvetica,sans-Serif" font-size="10.00">+ setBlockAt()</text>
<text text-anchor="start" x="389" y="-1768.5" font-family="Helvetica,sans-Serif" font-size="10.00">+ setChunk()</text>
</a>
</g>
</g>
<!-- Node13&#45;&gt;Node12 -->
<g id="edge13" class="edge">
<title>Node13&#45;&gt;Node12</title>
<path fill="none" stroke="midnightblue" d="M468.66,-1751.12C467.11,-1703.96 465.01,-1640.15 463.08,-1581.65"/>
<polygon fill="none" stroke="midnightblue" points="465.17,-1751.34 469,-1761.22 472.17,-1751.11 465.17,-1751.34"/>
</g>
<!-- Node14 -->
<g id="node14" class="node">
<title>Node14</title>
<g id="a_node14"><a xlink:href="../../d7/d08/classpocketmine_1_1world_1_1_world_timings.html" target="_top" xlink:title=" ">
<polygon fill="white" stroke="#bfbfbf" points="579.5,-1750.5 579.5,-1895.5 752.5,-1895.5 752.5,-1750.5 579.5,-1750.5"/>
<text text-anchor="middle" x="666" y="-1883.5" font-family="Helvetica,sans-Serif" font-size="10.00">pocketmine\world\WorldTimings</text>
<polyline fill="none" stroke="#bfbfbf" points="579.5,-1876.5 752.5,-1876.5 "/>
<text text-anchor="start" x="587.5" y="-1864.5" font-family="Helvetica,sans-Serif" font-size="10.00">+ $syncChunkLoad</text>
<text text-anchor="start" x="587.5" y="-1853.5" font-family="Helvetica,sans-Serif" font-size="10.00">+ $syncChunkLoadData</text>
<text text-anchor="start" x="587.5" y="-1842.5" font-family="Helvetica,sans-Serif" font-size="10.00">+ $syncChunkLoadEntities</text>
<text text-anchor="start" x="587.5" y="-1831.5" font-family="Helvetica,sans-Serif" font-size="10.00">+ $syncChunkLoadFixInvalid</text>
<text text-anchor="start" x="587.5" y="-1820.5" font-family="Helvetica,sans-Serif" font-size="10.00">Blocks</text>
<text text-anchor="start" x="587.5" y="-1809.5" font-family="Helvetica,sans-Serif" font-size="10.00">+ $syncChunkLoadTileEntities</text>
<text text-anchor="start" x="587.5" y="-1798.5" font-family="Helvetica,sans-Serif" font-size="10.00">+ $syncChunkSave</text>
<text text-anchor="start" x="587.5" y="-1787.5" font-family="Helvetica,sans-Serif" font-size="10.00">+ $syncChunkSend</text>
<text text-anchor="start" x="587.5" y="-1776.5" font-family="Helvetica,sans-Serif" font-size="10.00">+ $syncChunkSendPrepare</text>
<polyline fill="none" stroke="#bfbfbf" points="579.5,-1769.5 752.5,-1769.5 "/>
<text text-anchor="start" x="587.5" y="-1757.5" font-family="Helvetica,sans-Serif" font-size="10.00">+ __construct()</text>
</a>
</g>
</g>
<!-- Node14&#45;&gt;Node12 -->
<g id="edge15" class="edge">
<title>Node14&#45;&gt;Node12</title>
<path fill="none" stroke="#404040" d="M628.09,-1750.1C604.86,-1706.04 574.11,-1647.72 545.15,-1592.79"/>
<polygon fill="none" stroke="#404040" points="544.98,-1592.48 538.65,-1589.03 539.39,-1581.86 545.72,-1585.3 544.98,-1592.48"/>
<text text-anchor="middle" x="643.5" y="-1663.5" font-family="Helvetica,sans-Serif" font-size="10.00"> +$timings</text>
</g>
<!-- Node15 -->
<g id="node15" class="node">
<title>Node15</title>
<g id="a_node15"><a xlink:href="../../d7/d9b/classpocketmine_1_1timings_1_1_timings_handler.html" target="_top" xlink:title=" ">
<polygon fill="white" stroke="#bfbfbf" points="609.5,-2064.5 609.5,-2253.5 722.5,-2253.5 722.5,-2064.5 609.5,-2064.5"/>
<text text-anchor="start" x="617.5" y="-2241.5" font-family="Helvetica,sans-Serif" font-size="10.00">pocketmine\timings</text>
<text text-anchor="middle" x="666" y="-2230.5" font-family="Helvetica,sans-Serif" font-size="10.00">\TimingsHandler</text>
<polyline fill="none" stroke="#bfbfbf" points="609.5,-2223.5 722.5,-2223.5 "/>
<text text-anchor="middle" x="666" y="-2211.5" font-family="Helvetica,sans-Serif" font-size="10.00"> </text>
<polyline fill="none" stroke="#bfbfbf" points="609.5,-2204.5 722.5,-2204.5 "/>
<text text-anchor="start" x="617.5" y="-2192.5" font-family="Helvetica,sans-Serif" font-size="10.00">+ __construct()</text>
<text text-anchor="start" x="617.5" y="-2181.5" font-family="Helvetica,sans-Serif" font-size="10.00">+ destroyCycles()</text>
<text text-anchor="start" x="617.5" y="-2170.5" font-family="Helvetica,sans-Serif" font-size="10.00">+ getName()</text>
<text text-anchor="start" x="617.5" y="-2159.5" font-family="Helvetica,sans-Serif" font-size="10.00">+ startTiming()</text>
<text text-anchor="start" x="617.5" y="-2148.5" font-family="Helvetica,sans-Serif" font-size="10.00">+ stopTiming()</text>
<text text-anchor="start" x="617.5" y="-2137.5" font-family="Helvetica,sans-Serif" font-size="10.00">+ time()</text>
<text text-anchor="start" x="617.5" y="-2126.5" font-family="Helvetica,sans-Serif" font-size="10.00">+ getStartTime()</text>
<text text-anchor="start" x="617.5" y="-2115.5" font-family="Helvetica,sans-Serif" font-size="10.00">+ isEnabled()</text>
<text text-anchor="start" x="617.5" y="-2104.5" font-family="Helvetica,sans-Serif" font-size="10.00">+ printTimings()</text>
<text text-anchor="start" x="617.5" y="-2093.5" font-family="Helvetica,sans-Serif" font-size="10.00">+ reload()</text>
<text text-anchor="start" x="617.5" y="-2082.5" font-family="Helvetica,sans-Serif" font-size="10.00">+ setEnabled()</text>
<text text-anchor="start" x="617.5" y="-2071.5" font-family="Helvetica,sans-Serif" font-size="10.00">+ tick()</text>
</a>
</g>
</g>
<!-- Node15&#45;&gt;Node14 -->
<g id="edge16" class="edge">
<title>Node15&#45;&gt;Node14</title>
<path fill="none" stroke="#404040" d="M666,-2064.07C666,-2014.91 666,-1955.21 666,-1907.65"/>
<polygon fill="none" stroke="#404040" points="666,-1907.52 662,-1901.52 666,-1895.52 670,-1901.52 666,-1907.52"/>
<text text-anchor="middle" x="743" y="-2038" font-family="Helvetica,sans-Serif" font-size="10.00"> +$doBlockLightUpdates</text>
<text text-anchor="middle" x="743" y="-2027" font-family="Helvetica,sans-Serif" font-size="10.00">+$doBlockSkyLightUpdates</text>
<text text-anchor="middle" x="743" y="-2016" font-family="Helvetica,sans-Serif" font-size="10.00">+$doChunkGC</text>
<text text-anchor="middle" x="743" y="-2005" font-family="Helvetica,sans-Serif" font-size="10.00">+$doChunkUnload</text>
<text text-anchor="middle" x="743" y="-1994" font-family="Helvetica,sans-Serif" font-size="10.00">+$doTick</text>
<text text-anchor="middle" x="743" y="-1983" font-family="Helvetica,sans-Serif" font-size="10.00">+$entityTick</text>
<text text-anchor="middle" x="743" y="-1972" font-family="Helvetica,sans-Serif" font-size="10.00">+$randomChunkUpdates</text>
<text text-anchor="start" x="666" y="-1961" font-family="Helvetica,sans-Serif" font-size="10.00">+$randomChunkUpdatesChunk</text>
<text text-anchor="middle" x="743" y="-1950" font-family="Helvetica,sans-Serif" font-size="10.00">Selection</text>
<text text-anchor="middle" x="743" y="-1939" font-family="Helvetica,sans-Serif" font-size="10.00">+$scheduledBlockUpdates</text>
<text text-anchor="middle" x="743" y="-1928" font-family="Helvetica,sans-Serif" font-size="10.00">+$setBlock</text>
<text text-anchor="middle" x="743" y="-1917" font-family="Helvetica,sans-Serif" font-size="10.00">...</text>
</g>
</g>
</svg>
