<?xml version="1.0" encoding="UTF-8" standalone="no"?>
<!DOCTYPE svg PUBLIC "-//W3C//DTD SVG 1.1//EN"
 "http://www.w3.org/Graphics/SVG/1.1/DTD/svg11.dtd">
<!-- Generated by graphviz version 2.43.0 (0)
 -->
<!-- Title: pocketmine\block\MelonStem Pages: 1 -->
<svg width="799pt" height="1366pt"
 viewBox="0.00 0.00 799.00 1366.00" xmlns="http://www.w3.org/2000/svg" xmlns:xlink="http://www.w3.org/1999/xlink">
<g id="graph0" class="graph" transform="scale(1 1) rotate(0) translate(4 1362)">
<title>pocketmine\block\MelonStem</title>
<polygon fill="white" stroke="transparent" points="-4,4 -4,-1362 795,-1362 795,4 -4,4"/>
<!-- Node1 -->
<g id="node1" class="node">
<title>Node1</title>
<g id="a_node1"><a xlink:title=" ">
<polygon fill="#bfbfbf" stroke="black" points="4.5,-0.5 4.5,-57.5 165.5,-57.5 165.5,-0.5 4.5,-0.5"/>
<text text-anchor="middle" x="85" y="-45.5" font-family="Helvetica,sans-Serif" font-size="10.00">pocketmine\block\MelonStem</text>
<polyline fill="none" stroke="black" points="4.5,-38.5 165.5,-38.5 "/>
<text text-anchor="middle" x="85" y="-26.5" font-family="Helvetica,sans-Serif" font-size="10.00"> </text>
<polyline fill="none" stroke="black" points="4.5,-19.5 165.5,-19.5 "/>
<text text-anchor="start" x="12.5" y="-7.5" font-family="Helvetica,sans-Serif" font-size="10.00"># getPlant()</text>
</a>
</g>
</g>
<!-- Node2 -->
<g id="node2" class="node">
<title>Node2</title>
<g id="a_node2"><a xlink:href="../../dc/d0c/classpocketmine_1_1block_1_1_stem.html" target="_top" xlink:title=" ">
<polygon fill="white" stroke="#bfbfbf" points="0,-95.5 0,-174.5 170,-174.5 170,-95.5 0,-95.5"/>
<text text-anchor="middle" x="85" y="-162.5" font-family="Helvetica,sans-Serif" font-size="10.00">pocketmine\block\Stem</text>
<polyline fill="none" stroke="#bfbfbf" points="0,-155.5 170,-155.5 "/>
<text text-anchor="middle" x="85" y="-143.5" font-family="Helvetica,sans-Serif" font-size="10.00"> </text>
<polyline fill="none" stroke="#bfbfbf" points="0,-136.5 170,-136.5 "/>
<text text-anchor="start" x="8" y="-124.5" font-family="Helvetica,sans-Serif" font-size="10.00">+ getDropsForCompatibleTool()</text>
<text text-anchor="start" x="8" y="-113.5" font-family="Helvetica,sans-Serif" font-size="10.00">+ onRandomTick()</text>
<text text-anchor="start" x="8" y="-102.5" font-family="Helvetica,sans-Serif" font-size="10.00"># getPlant()</text>
</a>
</g>
</g>
<!-- Node2&#45;&gt;Node1 -->
<g id="edge1" class="edge">
<title>Node2&#45;&gt;Node1</title>
<path fill="none" stroke="midnightblue" d="M85,-85.16C85,-75.74 85,-66.17 85,-57.72"/>
<polygon fill="none" stroke="midnightblue" points="81.5,-85.27 85,-95.27 88.5,-85.27 81.5,-85.27"/>
</g>
<!-- Node3 -->
<g id="node3" class="node">
<title>Node3</title>
<g id="a_node3"><a xlink:href="../../d2/d70/classpocketmine_1_1block_1_1_crops.html" target="_top" xlink:title=" ">
<polygon fill="white" stroke="#bfbfbf" points="12,-212.5 12,-368.5 158,-368.5 158,-212.5 12,-212.5"/>
<text text-anchor="middle" x="85" y="-356.5" font-family="Helvetica,sans-Serif" font-size="10.00">pocketmine\block\Crops</text>
<polyline fill="none" stroke="#bfbfbf" points="12,-349.5 158,-349.5 "/>
<text text-anchor="start" x="20" y="-337.5" font-family="Helvetica,sans-Serif" font-size="10.00"># $age</text>
<polyline fill="none" stroke="#bfbfbf" points="12,-330.5 158,-330.5 "/>
<text text-anchor="start" x="20" y="-318.5" font-family="Helvetica,sans-Serif" font-size="10.00">+ getAge()</text>
<text text-anchor="start" x="20" y="-307.5" font-family="Helvetica,sans-Serif" font-size="10.00">+ getStateBitmask()</text>
<text text-anchor="start" x="20" y="-296.5" font-family="Helvetica,sans-Serif" font-size="10.00">+ onInteract()</text>
<text text-anchor="start" x="20" y="-285.5" font-family="Helvetica,sans-Serif" font-size="10.00">+ onNearbyBlockChange()</text>
<text text-anchor="start" x="20" y="-274.5" font-family="Helvetica,sans-Serif" font-size="10.00">+ onRandomTick()</text>
<text text-anchor="start" x="20" y="-263.5" font-family="Helvetica,sans-Serif" font-size="10.00">+ place()</text>
<text text-anchor="start" x="20" y="-252.5" font-family="Helvetica,sans-Serif" font-size="10.00">+ readStateFromData()</text>
<text text-anchor="start" x="20" y="-241.5" font-family="Helvetica,sans-Serif" font-size="10.00">+ setAge()</text>
<text text-anchor="start" x="20" y="-230.5" font-family="Helvetica,sans-Serif" font-size="10.00">+ ticksRandomly()</text>
<text text-anchor="start" x="20" y="-219.5" font-family="Helvetica,sans-Serif" font-size="10.00"># writeStateToMeta()</text>
</a>
</g>
</g>
<!-- Node3&#45;&gt;Node2 -->
<g id="edge2" class="edge">
<title>Node3&#45;&gt;Node2</title>
<path fill="none" stroke="midnightblue" d="M85,-202.28C85,-192.72 85,-183.38 85,-174.87"/>
<polygon fill="none" stroke="midnightblue" points="81.5,-202.3 85,-212.3 88.5,-202.3 81.5,-202.3"/>
</g>
<!-- Node4 -->
<g id="node4" class="node">
<title>Node4</title>
<g id="a_node4"><a xlink:href="../../d3/d1e/classpocketmine_1_1block_1_1_flowable.html" target="_top" xlink:title=" ">
<polygon fill="white" stroke="#bfbfbf" points="116.5,-406.5 116.5,-485.5 277.5,-485.5 277.5,-406.5 116.5,-406.5"/>
<text text-anchor="middle" x="197" y="-473.5" font-family="Helvetica,sans-Serif" font-size="10.00">pocketmine\block\Flowable</text>
<polyline fill="none" stroke="#bfbfbf" points="116.5,-466.5 277.5,-466.5 "/>
<text text-anchor="middle" x="197" y="-454.5" font-family="Helvetica,sans-Serif" font-size="10.00"> </text>
<polyline fill="none" stroke="#bfbfbf" points="116.5,-447.5 277.5,-447.5 "/>
<text text-anchor="start" x="124.5" y="-435.5" font-family="Helvetica,sans-Serif" font-size="10.00">+ canBeFlowedInto()</text>
<text text-anchor="start" x="124.5" y="-424.5" font-family="Helvetica,sans-Serif" font-size="10.00">+ isSolid()</text>
<text text-anchor="start" x="124.5" y="-413.5" font-family="Helvetica,sans-Serif" font-size="10.00"># recalculateCollisionBoxes()</text>
</a>
</g>
</g>
<!-- Node4&#45;&gt;Node3 -->
<g id="edge3" class="edge">
<title>Node4&#45;&gt;Node3</title>
<path fill="none" stroke="midnightblue" d="M162.64,-397.91C155.84,-388.59 148.53,-378.57 141.22,-368.55"/>
<polygon fill="none" stroke="midnightblue" points="160.02,-400.25 168.74,-406.27 165.67,-396.12 160.02,-400.25"/>
</g>
<!-- Node5 -->
<g id="node5" class="node">
<title>Node5</title>
<g id="a_node5"><a xlink:href="../../d5/d1b/classpocketmine_1_1block_1_1_transparent.html" target="_top" xlink:title=" ">
<polygon fill="white" stroke="#bfbfbf" points="164.5,-523.5 164.5,-580.5 327.5,-580.5 327.5,-523.5 164.5,-523.5"/>
<text text-anchor="middle" x="246" y="-568.5" font-family="Helvetica,sans-Serif" font-size="10.00">pocketmine\block\Transparent</text>
<polyline fill="none" stroke="#bfbfbf" points="164.5,-561.5 327.5,-561.5 "/>
<text text-anchor="middle" x="246" y="-549.5" font-family="Helvetica,sans-Serif" font-size="10.00"> </text>
<polyline fill="none" stroke="#bfbfbf" points="164.5,-542.5 327.5,-542.5 "/>
<text text-anchor="start" x="172.5" y="-530.5" font-family="Helvetica,sans-Serif" font-size="10.00">+ isTransparent()</text>
</a>
</g>
</g>
<!-- Node5&#45;&gt;Node4 -->
<g id="edge4" class="edge">
<title>Node5&#45;&gt;Node4</title>
<path fill="none" stroke="midnightblue" d="M228.62,-514.11C224.28,-504.89 219.61,-494.99 215.23,-485.69"/>
<polygon fill="none" stroke="midnightblue" points="225.57,-515.85 233,-523.4 231.9,-512.86 225.57,-515.85"/>
</g>
<!-- Node6 -->
<g id="node6" class="node">
<title>Node6</title>
<g id="a_node6"><a xlink:href="../../d7/d27/classpocketmine_1_1block_1_1_block.html" target="_top" xlink:title=" ">
<polygon fill="white" stroke="#bfbfbf" points="262.5,-628.5 262.5,-850.5 423.5,-850.5 423.5,-628.5 262.5,-628.5"/>
<text text-anchor="middle" x="343" y="-838.5" font-family="Helvetica,sans-Serif" font-size="10.00">pocketmine\block\Block</text>
<polyline fill="none" stroke="#bfbfbf" points="262.5,-831.5 423.5,-831.5 "/>
<text text-anchor="start" x="270.5" y="-819.5" font-family="Helvetica,sans-Serif" font-size="10.00"># $collisionBoxes</text>
<text text-anchor="start" x="270.5" y="-808.5" font-family="Helvetica,sans-Serif" font-size="10.00"># $fallbackName</text>
<polyline fill="none" stroke="#bfbfbf" points="262.5,-801.5 423.5,-801.5 "/>
<text text-anchor="start" x="270.5" y="-789.5" font-family="Helvetica,sans-Serif" font-size="10.00">+ __construct()</text>
<text text-anchor="start" x="270.5" y="-778.5" font-family="Helvetica,sans-Serif" font-size="10.00">+ __clone()</text>
<text text-anchor="start" x="270.5" y="-767.5" font-family="Helvetica,sans-Serif" font-size="10.00">+ __toString()</text>
<text text-anchor="start" x="270.5" y="-756.5" font-family="Helvetica,sans-Serif" font-size="10.00">+ addVelocityToEntity()</text>
<text text-anchor="start" x="270.5" y="-745.5" font-family="Helvetica,sans-Serif" font-size="10.00">+ asItem()</text>
<text text-anchor="start" x="270.5" y="-734.5" font-family="Helvetica,sans-Serif" font-size="10.00">+ blocksDirectSkyLight()</text>
<text text-anchor="start" x="270.5" y="-723.5" font-family="Helvetica,sans-Serif" font-size="10.00">+ burnsForever()</text>
<text text-anchor="start" x="270.5" y="-712.5" font-family="Helvetica,sans-Serif" font-size="10.00">+ calculateIntercept()</text>
<text text-anchor="start" x="270.5" y="-701.5" font-family="Helvetica,sans-Serif" font-size="10.00">+ canBeFlowedInto()</text>
<text text-anchor="start" x="270.5" y="-690.5" font-family="Helvetica,sans-Serif" font-size="10.00">+ canBePlaced()</text>
<text text-anchor="start" x="270.5" y="-679.5" font-family="Helvetica,sans-Serif" font-size="10.00">and 56 more...</text>
<text text-anchor="start" x="270.5" y="-668.5" font-family="Helvetica,sans-Serif" font-size="10.00"># getXpDropAmount()</text>
<text text-anchor="start" x="270.5" y="-657.5" font-family="Helvetica,sans-Serif" font-size="10.00"># recalculateCollisionBoxes()</text>
<text text-anchor="start" x="270.5" y="-646.5" font-family="Helvetica,sans-Serif" font-size="10.00"># writeStateToItemMeta()</text>
<text text-anchor="start" x="270.5" y="-635.5" font-family="Helvetica,sans-Serif" font-size="10.00"># writeStateToMeta()</text>
</a>
</g>
</g>
<!-- Node6&#45;&gt;Node5 -->
<g id="edge5" class="edge">
<title>Node6&#45;&gt;Node5</title>
<path fill="none" stroke="midnightblue" d="M280.75,-619.45C273.27,-605.16 266.28,-591.78 260.55,-580.82"/>
<polygon fill="none" stroke="midnightblue" points="277.72,-621.21 285.45,-628.45 283.92,-617.97 277.72,-621.21"/>
</g>
<!-- Node7 -->
<g id="node7" class="node">
<title>Node7</title>
<g id="a_node7"><a xlink:title=" ">
<polygon fill="white" stroke="#bfbfbf" points="64.5,-1212.5 64.5,-1269.5 107.5,-1269.5 107.5,-1212.5 64.5,-1212.5"/>
<text text-anchor="middle" x="86" y="-1257.5" font-family="Helvetica,sans-Serif" font-size="10.00">const</text>
<polyline fill="none" stroke="#bfbfbf" points="64.5,-1250.5 107.5,-1250.5 "/>
<text text-anchor="middle" x="86" y="-1238.5" font-family="Helvetica,sans-Serif" font-size="10.00"> </text>
<polyline fill="none" stroke="#bfbfbf" points="64.5,-1231.5 107.5,-1231.5 "/>
<text text-anchor="middle" x="86" y="-1219.5" font-family="Helvetica,sans-Serif" font-size="10.00"> </text>
</a>
</g>
</g>
<!-- Node7&#45;&gt;Node3 -->
<g id="edge12" class="edge">
<title>Node7&#45;&gt;Node3</title>
<path fill="none" stroke="#404040" d="M77.67,-1212.15C64.41,-1165.3 40,-1067.54 40,-983 40,-983 40,-983 40,-445 40,-423.66 44.05,-401.3 49.73,-380.45"/>
<polygon fill="none" stroke="#404040" points="49.79,-380.24 47.62,-373.36 53.14,-368.71 55.31,-375.59 49.79,-380.24"/>
<text text-anchor="middle" x="70" y="-602" font-family="Helvetica,sans-Serif" font-size="10.00"> +MAX_AGE</text>
</g>
<!-- Node7&#45;&gt;Node6 -->
<g id="edge6" class="edge">
<title>Node7&#45;&gt;Node6</title>
<path fill="none" stroke="#404040" d="M78.58,-1212.44C63.74,-1151.2 36.57,-1001.09 95,-898 128.76,-838.43 195.32,-798.02 250.99,-773.07"/>
<polygon fill="none" stroke="#404040" points="251.32,-772.92 255.22,-766.86 262.32,-768.13 258.42,-774.19 251.32,-772.92"/>
<text text-anchor="start" x="95" y="-990.5" font-family="Helvetica,sans-Serif" font-size="10.00"> +INTERNAL_METADATA</text>
<text text-anchor="middle" x="169.5" y="-979.5" font-family="Helvetica,sans-Serif" font-size="10.00">_BITS</text>
<text text-anchor="middle" x="169.5" y="-968.5" font-family="Helvetica,sans-Serif" font-size="10.00">+INTERNAL_METADATA_MASK</text>
</g>
<!-- Node9 -->
<g id="node9" class="node">
<title>Node9</title>
<g id="a_node9"><a xlink:href="../../d3/d10/classpocketmine_1_1block_1_1_block_break_info.html" target="_top" xlink:title=" ">
<polygon fill="white" stroke="#bfbfbf" points="253,-898.5 253,-1065.5 433,-1065.5 433,-898.5 253,-898.5"/>
<text text-anchor="middle" x="343" y="-1053.5" font-family="Helvetica,sans-Serif" font-size="10.00">pocketmine\block\BlockBreakInfo</text>
<polyline fill="none" stroke="#bfbfbf" points="253,-1046.5 433,-1046.5 "/>
<text text-anchor="middle" x="343" y="-1034.5" font-family="Helvetica,sans-Serif" font-size="10.00"> </text>
<polyline fill="none" stroke="#bfbfbf" points="253,-1027.5 433,-1027.5 "/>
<text text-anchor="start" x="261" y="-1015.5" font-family="Helvetica,sans-Serif" font-size="10.00">+ __construct()</text>
<text text-anchor="start" x="261" y="-1004.5" font-family="Helvetica,sans-Serif" font-size="10.00">+ breaksInstantly()</text>
<text text-anchor="start" x="261" y="-993.5" font-family="Helvetica,sans-Serif" font-size="10.00">+ getBlastResistance()</text>
<text text-anchor="start" x="261" y="-982.5" font-family="Helvetica,sans-Serif" font-size="10.00">+ getBreakTime()</text>
<text text-anchor="start" x="261" y="-971.5" font-family="Helvetica,sans-Serif" font-size="10.00">+ getHardness()</text>
<text text-anchor="start" x="261" y="-960.5" font-family="Helvetica,sans-Serif" font-size="10.00">+ getToolHarvestLevel()</text>
<text text-anchor="start" x="261" y="-949.5" font-family="Helvetica,sans-Serif" font-size="10.00">+ getToolType()</text>
<text text-anchor="start" x="261" y="-938.5" font-family="Helvetica,sans-Serif" font-size="10.00">+ isBreakable()</text>
<text text-anchor="start" x="261" y="-927.5" font-family="Helvetica,sans-Serif" font-size="10.00">+ isToolCompatible()</text>
<text text-anchor="start" x="261" y="-916.5" font-family="Helvetica,sans-Serif" font-size="10.00">+ indestructible()</text>
<text text-anchor="start" x="261" y="-905.5" font-family="Helvetica,sans-Serif" font-size="10.00">+ instant()</text>
</a>
</g>
</g>
<!-- Node7&#45;&gt;Node9 -->
<g id="edge9" class="edge">
<title>Node7&#45;&gt;Node9</title>
<path fill="none" stroke="#404040" d="M107.91,-1218.09C139.59,-1186.41 200.05,-1125.95 251.72,-1074.28"/>
<polygon fill="none" stroke="#404040" points="251.78,-1074.22 253.2,-1067.15 260.27,-1065.73 258.85,-1072.8 251.78,-1074.22"/>
<text text-anchor="middle" x="325.5" y="-1098" font-family="Helvetica,sans-Serif" font-size="10.00"> +COMPATIBLE_TOOL_MULTIPLIER</text>
<text text-anchor="middle" x="325.5" y="-1087" font-family="Helvetica,sans-Serif" font-size="10.00">+INCOMPATIBLE_TOOL_MULTIPLIER</text>
</g>
<!-- Node8 -->
<g id="node8" class="node">
<title>Node8</title>
<g id="a_node8"><a xlink:href="../../dd/d18/classpocketmine_1_1block_1_1_block_identifier.html" target="_top" xlink:title=" ">
<polygon fill="white" stroke="#bfbfbf" points="451,-926 451,-1038 627,-1038 627,-926 451,-926"/>
<text text-anchor="middle" x="539" y="-1026" font-family="Helvetica,sans-Serif" font-size="10.00">pocketmine\block\BlockIdentifier</text>
<polyline fill="none" stroke="#bfbfbf" points="451,-1019 627,-1019 "/>
<text text-anchor="middle" x="539" y="-1007" font-family="Helvetica,sans-Serif" font-size="10.00"> </text>
<polyline fill="none" stroke="#bfbfbf" points="451,-1000 627,-1000 "/>
<text text-anchor="start" x="459" y="-988" font-family="Helvetica,sans-Serif" font-size="10.00">+ __construct()</text>
<text text-anchor="start" x="459" y="-977" font-family="Helvetica,sans-Serif" font-size="10.00">+ getAllBlockIds()</text>
<text text-anchor="start" x="459" y="-966" font-family="Helvetica,sans-Serif" font-size="10.00">+ getBlockId()</text>
<text text-anchor="start" x="459" y="-955" font-family="Helvetica,sans-Serif" font-size="10.00">+ getItemId()</text>
<text text-anchor="start" x="459" y="-944" font-family="Helvetica,sans-Serif" font-size="10.00">+ getTileClass()</text>
<text text-anchor="start" x="459" y="-933" font-family="Helvetica,sans-Serif" font-size="10.00">+ getVariant()</text>
</a>
</g>
</g>
<!-- Node8&#45;&gt;Node6 -->
<g id="edge7" class="edge">
<title>Node8&#45;&gt;Node6</title>
<path fill="none" stroke="#404040" d="M494.03,-925.82C475.33,-902.87 452.94,-875.4 431.2,-848.72"/>
<polygon fill="none" stroke="#404040" points="431.12,-848.63 424.23,-846.51 423.54,-839.33 430.43,-841.45 431.12,-848.63"/>
<text text-anchor="middle" x="476" y="-872" font-family="Helvetica,sans-Serif" font-size="10.00"> #$idInfo</text>
</g>
<!-- Node9&#45;&gt;Node6 -->
<g id="edge8" class="edge">
<title>Node9&#45;&gt;Node6</title>
<path fill="none" stroke="#404040" d="M343,-898.23C343,-886.72 343,-874.69 343,-862.64"/>
<polygon fill="none" stroke="#404040" points="343,-862.6 339,-856.6 343,-850.6 347,-856.6 343,-862.6"/>
<text text-anchor="middle" x="375" y="-872" font-family="Helvetica,sans-Serif" font-size="10.00"> #$breakInfo</text>
</g>
<!-- Node10 -->
<g id="node10" class="node">
<title>Node10</title>
<g id="a_node10"><a xlink:href="../../d5/dd2/classpocketmine_1_1world_1_1_position.html" target="_top" xlink:title=" ">
<polygon fill="white" stroke="#bfbfbf" points="645,-915 645,-1049 791,-1049 791,-915 645,-915"/>
<text text-anchor="middle" x="718" y="-1037" font-family="Helvetica,sans-Serif" font-size="10.00">pocketmine\world\Position</text>
<polyline fill="none" stroke="#bfbfbf" points="645,-1030 791,-1030 "/>
<text text-anchor="start" x="653" y="-1018" font-family="Helvetica,sans-Serif" font-size="10.00">+ $world</text>
<polyline fill="none" stroke="#bfbfbf" points="645,-1011 791,-1011 "/>
<text text-anchor="start" x="653" y="-999" font-family="Helvetica,sans-Serif" font-size="10.00">+ __construct()</text>
<text text-anchor="start" x="653" y="-988" font-family="Helvetica,sans-Serif" font-size="10.00">+ __toString()</text>
<text text-anchor="start" x="653" y="-977" font-family="Helvetica,sans-Serif" font-size="10.00">+ asPosition()</text>
<text text-anchor="start" x="653" y="-966" font-family="Helvetica,sans-Serif" font-size="10.00">+ equals()</text>
<text text-anchor="start" x="653" y="-955" font-family="Helvetica,sans-Serif" font-size="10.00">+ getSide()</text>
<text text-anchor="start" x="653" y="-944" font-family="Helvetica,sans-Serif" font-size="10.00">+ getWorld()</text>
<text text-anchor="start" x="653" y="-933" font-family="Helvetica,sans-Serif" font-size="10.00">+ isValid()</text>
<text text-anchor="start" x="653" y="-922" font-family="Helvetica,sans-Serif" font-size="10.00">+ fromObject()</text>
</a>
</g>
</g>
<!-- Node10&#45;&gt;Node6 -->
<g id="edge10" class="edge">
<title>Node10&#45;&gt;Node6</title>
<path fill="none" stroke="#404040" d="M656.18,-914.65C649.6,-908.76 642.81,-903.1 636,-898 573.21,-851.02 494.58,-809.56 434.6,-780.99"/>
<polygon fill="none" stroke="#404040" points="434.47,-780.93 427.34,-781.98 423.62,-775.8 430.75,-774.75 434.47,-780.93"/>
<text text-anchor="middle" x="635.5" y="-872" font-family="Helvetica,sans-Serif" font-size="10.00"> #$position</text>
</g>
<!-- Node11 -->
<g id="node11" class="node">
<title>Node11</title>
<g id="a_node11"><a xlink:href="../../d2/d90/classpocketmine_1_1math_1_1_vector3.html" target="_top" xlink:title=" ">
<polygon fill="white" stroke="#bfbfbf" points="647,-1124.5 647,-1357.5 789,-1357.5 789,-1124.5 647,-1124.5"/>
<text text-anchor="middle" x="718" y="-1345.5" font-family="Helvetica,sans-Serif" font-size="10.00">pocketmine\math\Vector3</text>
<polyline fill="none" stroke="#bfbfbf" points="647,-1338.5 789,-1338.5 "/>
<text text-anchor="start" x="655" y="-1326.5" font-family="Helvetica,sans-Serif" font-size="10.00">+ $x</text>
<text text-anchor="start" x="655" y="-1315.5" font-family="Helvetica,sans-Serif" font-size="10.00">+ $y</text>
<text text-anchor="start" x="655" y="-1304.5" font-family="Helvetica,sans-Serif" font-size="10.00">+ $z</text>
<polyline fill="none" stroke="#bfbfbf" points="647,-1297.5 789,-1297.5 "/>
<text text-anchor="start" x="655" y="-1285.5" font-family="Helvetica,sans-Serif" font-size="10.00">+ __construct()</text>
<text text-anchor="start" x="655" y="-1274.5" font-family="Helvetica,sans-Serif" font-size="10.00">+ __toString()</text>
<text text-anchor="start" x="655" y="-1263.5" font-family="Helvetica,sans-Serif" font-size="10.00">+ abs()</text>
<text text-anchor="start" x="655" y="-1252.5" font-family="Helvetica,sans-Serif" font-size="10.00">+ add()</text>
<text text-anchor="start" x="655" y="-1241.5" font-family="Helvetica,sans-Serif" font-size="10.00">+ addVector()</text>
<text text-anchor="start" x="655" y="-1230.5" font-family="Helvetica,sans-Serif" font-size="10.00">+ asVector3()</text>
<text text-anchor="start" x="655" y="-1219.5" font-family="Helvetica,sans-Serif" font-size="10.00">+ ceil()</text>
<text text-anchor="start" x="655" y="-1208.5" font-family="Helvetica,sans-Serif" font-size="10.00">+ cross()</text>
<text text-anchor="start" x="655" y="-1197.5" font-family="Helvetica,sans-Serif" font-size="10.00">+ distance()</text>
<text text-anchor="start" x="655" y="-1186.5" font-family="Helvetica,sans-Serif" font-size="10.00">+ distanceSquared()</text>
<text text-anchor="start" x="655" y="-1175.5" font-family="Helvetica,sans-Serif" font-size="10.00">and 32 more...</text>
<text text-anchor="start" x="655" y="-1164.5" font-family="Helvetica,sans-Serif" font-size="10.00">+ maxComponents()</text>
<text text-anchor="start" x="655" y="-1153.5" font-family="Helvetica,sans-Serif" font-size="10.00">+ minComponents()</text>
<text text-anchor="start" x="655" y="-1142.5" font-family="Helvetica,sans-Serif" font-size="10.00">+ sum()</text>
<text text-anchor="start" x="655" y="-1131.5" font-family="Helvetica,sans-Serif" font-size="10.00">+ zero()</text>
</a>
</g>
</g>
<!-- Node11&#45;&gt;Node10 -->
<g id="edge11" class="edge">
<title>Node11&#45;&gt;Node10</title>
<path fill="none" stroke="midnightblue" d="M718,-1114.01C718,-1091.62 718,-1069.12 718,-1049.25"/>
<polygon fill="none" stroke="midnightblue" points="714.5,-1114.28 718,-1124.28 721.5,-1114.28 714.5,-1114.28"/>
</g>
</g>
</svg>
