<?xml version="1.0" encoding="UTF-8" standalone="no"?>
<!DOCTYPE svg PUBLIC "-//W3C//DTD SVG 1.1//EN"
 "http://www.w3.org/Graphics/SVG/1.1/DTD/svg11.dtd">
<!-- Generated by graphviz version 2.43.0 (0)
 -->
<!-- Title: pocketmine\world\format\io\WorldProvider Pages: 1 -->
<svg width="714pt" height="887pt"
 viewBox="0.00 0.00 713.50 887.00" xmlns="http://www.w3.org/2000/svg" xmlns:xlink="http://www.w3.org/1999/xlink">
<g id="graph0" class="graph" transform="scale(1 1) rotate(0) translate(4 883)">
<title>pocketmine\world\format\io\WorldProvider</title>
<polygon fill="white" stroke="transparent" points="-4,4 -4,-883 709.5,-883 709.5,4 -4,4"/>
<!-- Node1 -->
<g id="node1" class="node">
<title>Node1</title>
<g id="a_node1"><a xlink:title=" ">
<polygon fill="#bfbfbf" stroke="black" points="413.5,-722.5 413.5,-878.5 553.5,-878.5 553.5,-722.5 413.5,-722.5"/>
<text text-anchor="start" x="421.5" y="-866.5" font-family="Helvetica,sans-Serif" font-size="10.00">pocketmine\world\format</text>
<text text-anchor="middle" x="483.5" y="-855.5" font-family="Helvetica,sans-Serif" font-size="10.00">\io\WorldProvider</text>
<polyline fill="none" stroke="black" points="413.5,-848.5 553.5,-848.5 "/>
<text text-anchor="middle" x="483.5" y="-836.5" font-family="Helvetica,sans-Serif" font-size="10.00"> </text>
<polyline fill="none" stroke="black" points="413.5,-829.5 553.5,-829.5 "/>
<text text-anchor="start" x="421.5" y="-817.5" font-family="Helvetica,sans-Serif" font-size="10.00">+ calculateChunkCount()</text>
<text text-anchor="start" x="421.5" y="-806.5" font-family="Helvetica,sans-Serif" font-size="10.00">+ close()</text>
<text text-anchor="start" x="421.5" y="-795.5" font-family="Helvetica,sans-Serif" font-size="10.00">+ doGarbageCollection()</text>
<text text-anchor="start" x="421.5" y="-784.5" font-family="Helvetica,sans-Serif" font-size="10.00">+ getAllChunks()</text>
<text text-anchor="start" x="421.5" y="-773.5" font-family="Helvetica,sans-Serif" font-size="10.00">+ getPath()</text>
<text text-anchor="start" x="421.5" y="-762.5" font-family="Helvetica,sans-Serif" font-size="10.00">+ getWorldData()</text>
<text text-anchor="start" x="421.5" y="-751.5" font-family="Helvetica,sans-Serif" font-size="10.00">+ getWorldMaxY()</text>
<text text-anchor="start" x="421.5" y="-740.5" font-family="Helvetica,sans-Serif" font-size="10.00">+ getWorldMinY()</text>
<text text-anchor="start" x="421.5" y="-729.5" font-family="Helvetica,sans-Serif" font-size="10.00">+ loadChunk()</text>
</a>
</g>
</g>
<!-- Node2 -->
<g id="node2" class="node">
<title>Node2</title>
<g id="a_node2"><a xlink:href="../../d6/dfa/classpocketmine_1_1world_1_1format_1_1io_1_1_base_world_provider.html" target="_top" xlink:title=" ">
<polygon fill="white" stroke="#bfbfbf" points="334.5,-584.5 334.5,-685.5 474.5,-685.5 474.5,-584.5 334.5,-584.5"/>
<text text-anchor="start" x="342.5" y="-673.5" font-family="Helvetica,sans-Serif" font-size="10.00">pocketmine\world\format</text>
<text text-anchor="middle" x="404.5" y="-662.5" font-family="Helvetica,sans-Serif" font-size="10.00">\io\BaseWorldProvider</text>
<polyline fill="none" stroke="#bfbfbf" points="334.5,-655.5 474.5,-655.5 "/>
<text text-anchor="start" x="342.5" y="-643.5" font-family="Helvetica,sans-Serif" font-size="10.00"># $worldData</text>
<polyline fill="none" stroke="#bfbfbf" points="334.5,-636.5 474.5,-636.5 "/>
<text text-anchor="start" x="342.5" y="-624.5" font-family="Helvetica,sans-Serif" font-size="10.00">+ __construct()</text>
<text text-anchor="start" x="342.5" y="-613.5" font-family="Helvetica,sans-Serif" font-size="10.00">+ getPath()</text>
<text text-anchor="start" x="342.5" y="-602.5" font-family="Helvetica,sans-Serif" font-size="10.00">+ getWorldData()</text>
<text text-anchor="start" x="342.5" y="-591.5" font-family="Helvetica,sans-Serif" font-size="10.00"># loadLevelData()</text>
</a>
</g>
</g>
<!-- Node1&#45;&gt;Node2 -->
<g id="edge1" class="edge">
<title>Node1&#45;&gt;Node2</title>
<path fill="none" stroke="midnightblue" d="M441.59,-712.77C437.11,-703.49 432.66,-694.29 428.49,-685.66"/>
<polygon fill="none" stroke="midnightblue" points="438.58,-714.58 446.08,-722.06 444.88,-711.53 438.58,-714.58"/>
</g>
<!-- Node9 -->
<g id="node9" class="node">
<title>Node9</title>
<g id="a_node9"><a xlink:href="../../d1/d1b/interfacepocketmine_1_1world_1_1format_1_1io_1_1_writable_world_provider.html" target="_top" xlink:title=" ">
<polygon fill="white" stroke="#bfbfbf" points="493,-601 493,-669 634,-669 634,-601 493,-601"/>
<text text-anchor="start" x="501" y="-657" font-family="Helvetica,sans-Serif" font-size="10.00">pocketmine\world\format</text>
<text text-anchor="middle" x="563.5" y="-646" font-family="Helvetica,sans-Serif" font-size="10.00">\io\WritableWorldProvider</text>
<polyline fill="none" stroke="#bfbfbf" points="493,-639 634,-639 "/>
<text text-anchor="middle" x="563.5" y="-627" font-family="Helvetica,sans-Serif" font-size="10.00"> </text>
<polyline fill="none" stroke="#bfbfbf" points="493,-620 634,-620 "/>
<text text-anchor="start" x="501" y="-608" font-family="Helvetica,sans-Serif" font-size="10.00">+ saveChunk()</text>
</a>
</g>
</g>
<!-- Node1&#45;&gt;Node9 -->
<g id="edge8" class="edge">
<title>Node1&#45;&gt;Node9</title>
<path fill="none" stroke="midnightblue" d="M525.89,-712.87C533.51,-697.28 541.03,-681.93 547.31,-669.1"/>
<polygon fill="none" stroke="midnightblue" points="522.64,-711.54 521.39,-722.06 528.93,-714.62 522.64,-711.54"/>
</g>
<!-- Node3 -->
<g id="node3" class="node">
<title>Node3</title>
<g id="a_node3"><a xlink:href="../../df/d4c/classpocketmine_1_1world_1_1format_1_1io_1_1leveldb_1_1_level_d_b.html" target="_top" xlink:title=" ">
<polygon fill="white" stroke="#bfbfbf" points="420,-149.5 420,-547.5 593,-547.5 593,-149.5 420,-149.5"/>
<text text-anchor="start" x="428" y="-535.5" font-family="Helvetica,sans-Serif" font-size="10.00">pocketmine\world\format</text>
<text text-anchor="middle" x="506.5" y="-524.5" font-family="Helvetica,sans-Serif" font-size="10.00">\io\leveldb\LevelDB</text>
<polyline fill="none" stroke="#bfbfbf" points="420,-517.5 593,-517.5 "/>
<text text-anchor="start" x="428" y="-505.5" font-family="Helvetica,sans-Serif" font-size="10.00"># $db</text>
<text text-anchor="start" x="428" y="-494.5" font-family="Helvetica,sans-Serif" font-size="10.00"># CURRENT_LEVEL_CHUNK</text>
<text text-anchor="start" x="428" y="-483.5" font-family="Helvetica,sans-Serif" font-size="10.00">_VERSION</text>
<text text-anchor="start" x="428" y="-472.5" font-family="Helvetica,sans-Serif" font-size="10.00"># CURRENT_LEVEL_SUBCHUNK</text>
<text text-anchor="start" x="428" y="-461.5" font-family="Helvetica,sans-Serif" font-size="10.00">_VERSION</text>
<text text-anchor="start" x="428" y="-450.5" font-family="Helvetica,sans-Serif" font-size="10.00"># ENTRY_FLAT_WORLD_LAYERS</text>
<text text-anchor="start" x="428" y="-439.5" font-family="Helvetica,sans-Serif" font-size="10.00"># FINALISATION_DONE</text>
<text text-anchor="start" x="428" y="-428.5" font-family="Helvetica,sans-Serif" font-size="10.00"># FINALISATION_NEEDS</text>
<text text-anchor="start" x="428" y="-417.5" font-family="Helvetica,sans-Serif" font-size="10.00">_INSTATICKING</text>
<text text-anchor="start" x="428" y="-406.5" font-family="Helvetica,sans-Serif" font-size="10.00"># FINALISATION_NEEDS</text>
<text text-anchor="start" x="428" y="-395.5" font-family="Helvetica,sans-Serif" font-size="10.00">_POPULATION</text>
<text text-anchor="start" x="428" y="-384.5" font-family="Helvetica,sans-Serif" font-size="10.00"># TAG_BIOME_STATE</text>
<text text-anchor="start" x="428" y="-373.5" font-family="Helvetica,sans-Serif" font-size="10.00"># TAG_BLOCK_ENTITY</text>
<text text-anchor="start" x="428" y="-362.5" font-family="Helvetica,sans-Serif" font-size="10.00"># TAG_BLOCK_EXTRA_DATA</text>
<text text-anchor="start" x="428" y="-351.5" font-family="Helvetica,sans-Serif" font-size="10.00">and 10 more...</text>
<polyline fill="none" stroke="#bfbfbf" points="420,-344.5 593,-344.5 "/>
<text text-anchor="start" x="428" y="-332.5" font-family="Helvetica,sans-Serif" font-size="10.00">+ __construct()</text>
<text text-anchor="start" x="428" y="-321.5" font-family="Helvetica,sans-Serif" font-size="10.00">+ calculateChunkCount()</text>
<text text-anchor="start" x="428" y="-310.5" font-family="Helvetica,sans-Serif" font-size="10.00">+ close()</text>
<text text-anchor="start" x="428" y="-299.5" font-family="Helvetica,sans-Serif" font-size="10.00">+ doGarbageCollection()</text>
<text text-anchor="start" x="428" y="-288.5" font-family="Helvetica,sans-Serif" font-size="10.00">+ getAllChunks()</text>
<text text-anchor="start" x="428" y="-277.5" font-family="Helvetica,sans-Serif" font-size="10.00">+ getDatabase()</text>
<text text-anchor="start" x="428" y="-266.5" font-family="Helvetica,sans-Serif" font-size="10.00">+ getWorldMaxY()</text>
<text text-anchor="start" x="428" y="-255.5" font-family="Helvetica,sans-Serif" font-size="10.00">+ getWorldMinY()</text>
<text text-anchor="start" x="428" y="-244.5" font-family="Helvetica,sans-Serif" font-size="10.00">+ loadChunk()</text>
<text text-anchor="start" x="428" y="-233.5" font-family="Helvetica,sans-Serif" font-size="10.00">+ saveChunk()</text>
<text text-anchor="start" x="428" y="-222.5" font-family="Helvetica,sans-Serif" font-size="10.00">+ chunkIndex()</text>
<text text-anchor="start" x="428" y="-211.5" font-family="Helvetica,sans-Serif" font-size="10.00">+ generate()</text>
<text text-anchor="start" x="428" y="-200.5" font-family="Helvetica,sans-Serif" font-size="10.00">+ isValid()</text>
<text text-anchor="start" x="428" y="-189.5" font-family="Helvetica,sans-Serif" font-size="10.00"># deserializeLegacyExtraData()</text>
<text text-anchor="start" x="428" y="-178.5" font-family="Helvetica,sans-Serif" font-size="10.00"># deserializePaletted()</text>
<text text-anchor="start" x="428" y="-167.5" font-family="Helvetica,sans-Serif" font-size="10.00"># loadLevelData()</text>
<text text-anchor="start" x="428" y="-156.5" font-family="Helvetica,sans-Serif" font-size="10.00"># deserializeExtraDataKey()</text>
</a>
</g>
</g>
<!-- Node2&#45;&gt;Node3 -->
<g id="edge2" class="edge">
<title>Node2&#45;&gt;Node3</title>
<path fill="none" stroke="midnightblue" d="M425.65,-575.01C428.73,-566.41 432.04,-557.19 435.49,-547.55"/>
<polygon fill="none" stroke="midnightblue" points="422.35,-573.85 422.27,-584.44 428.94,-576.21 422.35,-573.85"/>
</g>
<!-- Node4 -->
<g id="node4" class="node">
<title>Node4</title>
<g id="a_node4"><a xlink:href="../../d6/d16/classpocketmine_1_1world_1_1format_1_1io_1_1region_1_1_region_world_provider.html" target="_top" xlink:title=" ">
<polygon fill="white" stroke="#bfbfbf" points="235,-226.5 235,-470.5 402,-470.5 402,-226.5 235,-226.5"/>
<text text-anchor="start" x="243" y="-458.5" font-family="Helvetica,sans-Serif" font-size="10.00">pocketmine\world\format</text>
<text text-anchor="middle" x="318.5" y="-447.5" font-family="Helvetica,sans-Serif" font-size="10.00">\io\region\RegionWorldProvider</text>
<polyline fill="none" stroke="#bfbfbf" points="235,-440.5 402,-440.5 "/>
<text text-anchor="start" x="243" y="-428.5" font-family="Helvetica,sans-Serif" font-size="10.00"># $regions</text>
<polyline fill="none" stroke="#bfbfbf" points="235,-421.5 402,-421.5 "/>
<text text-anchor="start" x="243" y="-409.5" font-family="Helvetica,sans-Serif" font-size="10.00">+ calculateChunkCount()</text>
<text text-anchor="start" x="243" y="-398.5" font-family="Helvetica,sans-Serif" font-size="10.00">+ close()</text>
<text text-anchor="start" x="243" y="-387.5" font-family="Helvetica,sans-Serif" font-size="10.00">+ doGarbageCollection()</text>
<text text-anchor="start" x="243" y="-376.5" font-family="Helvetica,sans-Serif" font-size="10.00">+ getAllChunks()</text>
<text text-anchor="start" x="243" y="-365.5" font-family="Helvetica,sans-Serif" font-size="10.00">+ loadChunk()</text>
<text text-anchor="start" x="243" y="-354.5" font-family="Helvetica,sans-Serif" font-size="10.00">+ getRegionIndex()</text>
<text text-anchor="start" x="243" y="-343.5" font-family="Helvetica,sans-Serif" font-size="10.00">+ isValid()</text>
<text text-anchor="start" x="243" y="-332.5" font-family="Helvetica,sans-Serif" font-size="10.00"># deserializeChunk()</text>
<text text-anchor="start" x="243" y="-321.5" font-family="Helvetica,sans-Serif" font-size="10.00"># getRegion()</text>
<text text-anchor="start" x="243" y="-310.5" font-family="Helvetica,sans-Serif" font-size="10.00"># loadLevelData()</text>
<text text-anchor="start" x="243" y="-299.5" font-family="Helvetica,sans-Serif" font-size="10.00"># loadRegion()</text>
<text text-anchor="start" x="243" y="-288.5" font-family="Helvetica,sans-Serif" font-size="10.00"># pathToRegion()</text>
<text text-anchor="start" x="243" y="-277.5" font-family="Helvetica,sans-Serif" font-size="10.00"># unloadRegion()</text>
<text text-anchor="start" x="243" y="-266.5" font-family="Helvetica,sans-Serif" font-size="10.00"># getCompoundList()</text>
<text text-anchor="start" x="243" y="-255.5" font-family="Helvetica,sans-Serif" font-size="10.00"># getPcWorldFormatVersion()</text>
<text text-anchor="start" x="243" y="-244.5" font-family="Helvetica,sans-Serif" font-size="10.00"># getRegionFileExtension()</text>
<text text-anchor="start" x="243" y="-233.5" font-family="Helvetica,sans-Serif" font-size="10.00"># readFixedSizeByteArray()</text>
</a>
</g>
</g>
<!-- Node2&#45;&gt;Node4 -->
<g id="edge3" class="edge">
<title>Node2&#45;&gt;Node4</title>
<path fill="none" stroke="midnightblue" d="M386.52,-574.52C377.4,-544.36 365.98,-506.58 355.12,-470.64"/>
<polygon fill="none" stroke="midnightblue" points="383.28,-575.88 389.52,-584.44 389.98,-573.86 383.28,-575.88"/>
</g>
<!-- Node5 -->
<g id="node5" class="node">
<title>Node5</title>
<g id="a_node5"><a xlink:href="../../d9/d75/classpocketmine_1_1world_1_1format_1_1io_1_1region_1_1_anvil.html" target="_top" xlink:title=" ">
<polygon fill="white" stroke="#bfbfbf" points="0,-0.5 0,-112.5 161,-112.5 161,-0.5 0,-0.5"/>
<text text-anchor="start" x="8" y="-100.5" font-family="Helvetica,sans-Serif" font-size="10.00">pocketmine\world\format</text>
<text text-anchor="middle" x="80.5" y="-89.5" font-family="Helvetica,sans-Serif" font-size="10.00">\io\region\Anvil</text>
<polyline fill="none" stroke="#bfbfbf" points="0,-82.5 161,-82.5 "/>
<text text-anchor="middle" x="80.5" y="-70.5" font-family="Helvetica,sans-Serif" font-size="10.00"> </text>
<polyline fill="none" stroke="#bfbfbf" points="0,-63.5 161,-63.5 "/>
<text text-anchor="start" x="8" y="-51.5" font-family="Helvetica,sans-Serif" font-size="10.00">+ getWorldMaxY()</text>
<text text-anchor="start" x="8" y="-40.5" font-family="Helvetica,sans-Serif" font-size="10.00">+ getWorldMinY()</text>
<text text-anchor="start" x="8" y="-29.5" font-family="Helvetica,sans-Serif" font-size="10.00"># deserializeSubChunk()</text>
<text text-anchor="start" x="8" y="-18.5" font-family="Helvetica,sans-Serif" font-size="10.00"># getPcWorldFormatVersion()</text>
<text text-anchor="start" x="8" y="-7.5" font-family="Helvetica,sans-Serif" font-size="10.00"># getRegionFileExtension()</text>
</a>
</g>
</g>
<!-- Node4&#45;&gt;Node5 -->
<g id="edge4" class="edge">
<title>Node4&#45;&gt;Node5</title>
<path fill="none" stroke="midnightblue" d="M228.43,-237.75C193.38,-195.05 154.78,-148 125.79,-112.69"/>
<polygon fill="none" stroke="midnightblue" points="225.88,-240.15 234.92,-245.66 231.29,-235.71 225.88,-240.15"/>
</g>
<!-- Node6 -->
<g id="node6" class="node">
<title>Node6</title>
<g id="a_node6"><a xlink:href="../../da/d3f/classpocketmine_1_1world_1_1format_1_1io_1_1region_1_1_mc_region.html" target="_top" xlink:title=" ">
<polygon fill="white" stroke="#bfbfbf" points="179,-0.5 179,-112.5 340,-112.5 340,-0.5 179,-0.5"/>
<text text-anchor="start" x="187" y="-100.5" font-family="Helvetica,sans-Serif" font-size="10.00">pocketmine\world\format</text>
<text text-anchor="middle" x="259.5" y="-89.5" font-family="Helvetica,sans-Serif" font-size="10.00">\io\region\McRegion</text>
<polyline fill="none" stroke="#bfbfbf" points="179,-82.5 340,-82.5 "/>
<text text-anchor="middle" x="259.5" y="-70.5" font-family="Helvetica,sans-Serif" font-size="10.00"> </text>
<polyline fill="none" stroke="#bfbfbf" points="179,-63.5 340,-63.5 "/>
<text text-anchor="start" x="187" y="-51.5" font-family="Helvetica,sans-Serif" font-size="10.00">+ getWorldMaxY()</text>
<text text-anchor="start" x="187" y="-40.5" font-family="Helvetica,sans-Serif" font-size="10.00">+ getWorldMinY()</text>
<text text-anchor="start" x="187" y="-29.5" font-family="Helvetica,sans-Serif" font-size="10.00"># deserializeChunk()</text>
<text text-anchor="start" x="187" y="-18.5" font-family="Helvetica,sans-Serif" font-size="10.00"># getPcWorldFormatVersion()</text>
<text text-anchor="start" x="187" y="-7.5" font-family="Helvetica,sans-Serif" font-size="10.00"># getRegionFileExtension()</text>
</a>
</g>
</g>
<!-- Node4&#45;&gt;Node6 -->
<g id="edge5" class="edge">
<title>Node4&#45;&gt;Node6</title>
<path fill="none" stroke="midnightblue" d="M291.74,-215.98C284.35,-179.65 276.73,-142.18 270.75,-112.8"/>
<polygon fill="none" stroke="midnightblue" points="288.4,-217.09 293.82,-226.19 295.26,-215.7 288.4,-217.09"/>
</g>
<!-- Node7 -->
<g id="node7" class="node">
<title>Node7</title>
<g id="a_node7"><a xlink:href="../../d6/df1/classpocketmine_1_1world_1_1format_1_1io_1_1region_1_1_p_m_anvil.html" target="_top" xlink:title=" ">
<polygon fill="white" stroke="black" points="358,-0.5 358,-112.5 519,-112.5 519,-0.5 358,-0.5"/>
<text text-anchor="start" x="366" y="-100.5" font-family="Helvetica,sans-Serif" font-size="10.00">pocketmine\world\format</text>
<text text-anchor="middle" x="438.5" y="-89.5" font-family="Helvetica,sans-Serif" font-size="10.00">\io\region\PMAnvil</text>
<polyline fill="none" stroke="black" points="358,-82.5 519,-82.5 "/>
<text text-anchor="middle" x="438.5" y="-70.5" font-family="Helvetica,sans-Serif" font-size="10.00"> </text>
<polyline fill="none" stroke="black" points="358,-63.5 519,-63.5 "/>
<text text-anchor="start" x="366" y="-51.5" font-family="Helvetica,sans-Serif" font-size="10.00">+ getWorldMaxY()</text>
<text text-anchor="start" x="366" y="-40.5" font-family="Helvetica,sans-Serif" font-size="10.00">+ getWorldMinY()</text>
<text text-anchor="start" x="366" y="-29.5" font-family="Helvetica,sans-Serif" font-size="10.00"># deserializeSubChunk()</text>
<text text-anchor="start" x="366" y="-18.5" font-family="Helvetica,sans-Serif" font-size="10.00"># getPcWorldFormatVersion()</text>
<text text-anchor="start" x="366" y="-7.5" font-family="Helvetica,sans-Serif" font-size="10.00"># getRegionFileExtension()</text>
</a>
</g>
</g>
<!-- Node4&#45;&gt;Node7 -->
<g id="edge6" class="edge">
<title>Node4&#45;&gt;Node7</title>
<path fill="none" stroke="midnightblue" d="M372.53,-216.92C387.69,-180.29 403.35,-142.43 415.62,-112.8"/>
<polygon fill="none" stroke="midnightblue" points="369.29,-215.62 368.7,-226.19 375.75,-218.29 369.29,-215.62"/>
</g>
<!-- Node8 -->
<g id="node8" class="node">
<title>Node8</title>
<g id="a_node8"><a xlink:href="../../df/da7/classpocketmine_1_1world_1_1format_1_1io_1_1region_1_1_writable_region_world_provider.html" target="_top" xlink:title=" ">
<polygon fill="white" stroke="black" points="537.5,-6 537.5,-107 705.5,-107 705.5,-6 537.5,-6"/>
<text text-anchor="start" x="545.5" y="-95" font-family="Helvetica,sans-Serif" font-size="10.00">pocketmine\world\format</text>
<text text-anchor="start" x="545.5" y="-84" font-family="Helvetica,sans-Serif" font-size="10.00">\io\region\WritableRegionWorld</text>
<text text-anchor="middle" x="621.5" y="-73" font-family="Helvetica,sans-Serif" font-size="10.00">Provider</text>
<polyline fill="none" stroke="black" points="537.5,-66 705.5,-66 "/>
<text text-anchor="middle" x="621.5" y="-54" font-family="Helvetica,sans-Serif" font-size="10.00"> </text>
<polyline fill="none" stroke="black" points="537.5,-47 705.5,-47 "/>
<text text-anchor="start" x="545.5" y="-35" font-family="Helvetica,sans-Serif" font-size="10.00">+ saveChunk()</text>
<text text-anchor="start" x="545.5" y="-24" font-family="Helvetica,sans-Serif" font-size="10.00">+ generate()</text>
<text text-anchor="start" x="545.5" y="-13" font-family="Helvetica,sans-Serif" font-size="10.00"># serializeChunk()</text>
</a>
</g>
</g>
<!-- Node4&#45;&gt;Node8 -->
<g id="edge7" class="edge">
<title>Node4&#45;&gt;Node8</title>
<path fill="none" stroke="midnightblue" d="M359.65,-217.45C372.59,-192.03 389.25,-167.55 410.5,-149 451.49,-113.22 477.73,-134.98 527.5,-113 531.66,-111.16 535.87,-109.18 540.07,-107.1"/>
<polygon fill="none" stroke="midnightblue" points="356.48,-215.95 355.22,-226.47 362.77,-219.04 356.48,-215.95"/>
</g>
<!-- Node9&#45;&gt;Node3 -->
<g id="edge9" class="edge">
<title>Node9&#45;&gt;Node3</title>
<path fill="none" stroke="midnightblue" d="M554.83,-590.71C552.3,-578.08 549.35,-563.4 546.19,-547.62"/>
<polygon fill="none" stroke="midnightblue" points="551.45,-591.69 556.85,-600.81 558.32,-590.31 551.45,-591.69"/>
</g>
<!-- Node9&#45;&gt;Node8 -->
<g id="edge10" class="edge">
<title>Node9&#45;&gt;Node8</title>
<path fill="none" stroke="midnightblue" d="M585.99,-591.62C592.16,-578.05 598.08,-562.73 601.5,-548 638.17,-390.27 631.42,-196.48 625.51,-107.05"/>
<polygon fill="none" stroke="midnightblue" points="582.81,-590.17 581.72,-600.7 589.14,-593.15 582.81,-590.17"/>
</g>
</g>
</svg>
