<?xml version="1.0" encoding="UTF-8" standalone="no"?>
<!DOCTYPE svg PUBLIC "-//W3C//DTD SVG 1.1//EN"
 "http://www.w3.org/Graphics/SVG/1.1/DTD/svg11.dtd">
<!-- Generated by graphviz version 2.43.0 (0)
 -->
<!-- Title: pocketmine\entity\projectile\Snowball Pages: 1 -->
<!--zoomable 1365 -->

<svg id="main" version="1.1" xmlns="http://www.w3.org/2000/svg" xmlns:xlink="http://www.w3.org/1999/xlink" xml:space="preserve" onload="init(evt)">

<style type="text/css"><![CDATA[
.node, .edge {opacity: 0.7;}
.node.selected, .edge.selected {opacity: 1;}
.edge:hover path { stroke: red; }
.edge:hover polygon { stroke: red; fill: red; }
]]></style>

<defs>
  <circle id="rim" cx="0" cy="0" r="7"/>
  <circle id="rim2" cx="0" cy="0" r="3.5"/>
  <g id="zoomPlus">
    <use xlink:href="#rim" fill="#404040"><set attributeName="fill" to="#808080" begin="zoomplus.mouseover" end="zoomplus.mouseout"/></use>
    <path d="M-4,0h8M0,-4v8" fill="none" stroke="white" stroke-width="1.5" pointer-events="none"/>
  </g>
  <g id="zoomMin">
    <use xlink:href="#rim" fill="#404040"><set attributeName="fill" to="#808080" begin="zoomminus.mouseover" end="zoomminus.mouseout"/></use>
    <path d="M-4,0h8" fill="none" stroke="white" stroke-width="1.5" pointer-events="none"/>
  </g>
  <g id="arrowUp" transform="translate(30 24)">
    <use xlink:href="#rim"/>
    <path pointer-events="none" fill="none" stroke="white" stroke-width="1.5" d="M0,-3.0v7 M-2.5,-0.5L0,-3.0L2.5,-0.5"/>
  </g>
  <g id="arrowRight" transform="rotate(90) translate(36 -43)">
    <use xlink:href="#rim"/>
    <path pointer-events="none" fill="none" stroke="white" stroke-width="1.5" d="M0,-3.0v7 M-2.5,-0.5L0,-3.0L2.5,-0.5"/>
  </g>
  <g id="arrowDown" transform="rotate(180) translate(-30 -48)">
    <use xlink:href="#rim"/>
    <path pointer-events="none" fill="none" stroke="white" stroke-width="1.5" d="M0,-3.0v7 M-2.5,-0.5L0,-3.0L2.5,-0.5"/>
  </g>
  <g id="arrowLeft" transform="rotate(270) translate(-36 17)">
    <use xlink:href="#rim"/>
    <path pointer-events="none" fill="none" stroke="white" stroke-width="1.5" d="M0,-3.0v7 M-2.5,-0.5L0,-3.0L2.5,-0.5"/>
  </g>
  <g id="resetDef">
    <use xlink:href="#rim2" fill="#404040"><set attributeName="fill" to="#808080" begin="reset.mouseover" end="reset.mouseout"/></use>
  </g>
</defs>
<script type="application/ecmascript">
var viewWidth = 174;
var viewHeight = 1365;
var sectionId = 'dynsection-0';
</script>
<script type="application/ecmascript" xlink:href="../../svg.min.js"/>
<svg id="graph" class="graph">
<g id="viewport">
<title>pocketmine\entity\projectile\Snowball</title>
<!-- Node1 -->
<g id="Node000001" class="node">
<title>Node1</title>
<g id="a_Node000001"><a xlink:title=" ">
<polygon fill="#999999" stroke="transparent" points="157,-75 9,-75 9,0 157,0 157,-75"/>
<text text-anchor="start" x="14" y="-62.5" font-family="Helvetica,sans-Serif" font-size="10.00">pocketmine\entity\projectile</text>
<text text-anchor="start" x="59" y="-51.5" font-family="Helvetica,sans-Serif" font-size="10.00">\Snowball</text>
<text text-anchor="start" x="81" y="-36.5" font-family="Helvetica,sans-Serif" font-size="10.00"> </text>
<text text-anchor="start" x="20.5" y="-21.5" font-family="Helvetica,sans-Serif" font-size="10.00">+</text>
<text text-anchor="start" x="41" y="-21.5" font-family="Helvetica,sans-Serif" font-size="10.00">getNetworkTypeId()</text>
<text text-anchor="start" x="20.5" y="-6.5" font-family="Helvetica,sans-Serif" font-size="10.00">#</text>
<text text-anchor="start" x="41" y="-6.5" font-family="Helvetica,sans-Serif" font-size="10.00">onHit()</text>
<polygon fill="#666666" stroke="#666666" points="9,-46.5 9,-46.5 157,-46.5 157,-46.5 9,-46.5"/>
<polygon fill="#666666" stroke="#666666" points="9,-31.5 9,-31.5 157,-31.5 157,-31.5 9,-31.5"/>
<polygon fill="none" stroke="#666666" points="9,0 9,-75 157,-75 157,0 9,0"/>
</a>
</g>
</g>
<!-- Node2 -->
<g id="Node000002" class="node">
<title>Node2</title>
<g id="a_Node000002"><a xlink:href="../../d0/d86/classpocketmine_1_1entity_1_1projectile_1_1_throwable.html" target="_top" xlink:title=" ">
<polygon fill="white" stroke="transparent" points="157,-216 9,-216 9,-111 157,-111 157,-216"/>
<text text-anchor="start" x="14" y="-203.5" font-family="Helvetica,sans-Serif" font-size="10.00">pocketmine\entity\projectile</text>
<text text-anchor="start" x="55.5" y="-192.5" font-family="Helvetica,sans-Serif" font-size="10.00">\Throwable</text>
<text text-anchor="start" x="81" y="-177.5" font-family="Helvetica,sans-Serif" font-size="10.00"> </text>
<text text-anchor="start" x="14.5" y="-162.5" font-family="Helvetica,sans-Serif" font-size="10.00">#</text>
<text text-anchor="start" x="29" y="-162.5" font-family="Helvetica,sans-Serif" font-size="10.00">getInitialDragMultiplier()</text>
<text text-anchor="start" x="14.5" y="-147.5" font-family="Helvetica,sans-Serif" font-size="10.00">#</text>
<text text-anchor="start" x="29" y="-147.5" font-family="Helvetica,sans-Serif" font-size="10.00">getInitialGravity()</text>
<text text-anchor="start" x="14.5" y="-132.5" font-family="Helvetica,sans-Serif" font-size="10.00">#</text>
<text text-anchor="start" x="29" y="-132.5" font-family="Helvetica,sans-Serif" font-size="10.00">getInitialSizeInfo()</text>
<text text-anchor="start" x="14.5" y="-117.5" font-family="Helvetica,sans-Serif" font-size="10.00">#</text>
<text text-anchor="start" x="29" y="-117.5" font-family="Helvetica,sans-Serif" font-size="10.00">onHitBlock()</text>
<polygon fill="#bfbfbf" stroke="#bfbfbf" points="9,-187.5 9,-187.5 157,-187.5 157,-187.5 9,-187.5"/>
<polygon fill="#bfbfbf" stroke="#bfbfbf" points="9,-172.5 9,-172.5 157,-172.5 157,-172.5 9,-172.5"/>
<polygon fill="none" stroke="#bfbfbf" points="9,-111 9,-216 157,-216 157,-111 9,-111"/>
</a>
</g>
</g>
<!-- Node2&#45;&gt;Node1 -->
<g id="edge1_Node000001_Node000002" class="edge">
<title>Node2&#45;&gt;Node1</title>
<g id="a_edge1_Node000001_Node000002"><a xlink:title=" ">
<path fill="none" stroke="#63b8ff" d="M83,-100.8C83,-92.08 83,-83.35 83,-75.3"/>
<polygon fill="none" stroke="#63b8ff" points="79.5,-100.99 83,-110.99 86.5,-100.99 79.5,-100.99"/>
</a>
</g>
</g>
<!-- Node3 -->
<g id="Node000003" class="node">
<title>Node3</title>
<g id="a_Node000003"><a xlink:href="../../dc/d01/classpocketmine_1_1entity_1_1projectile_1_1_projectile.html" target="_top" xlink:title=" ">
<polygon fill="white" stroke="transparent" points="166,-567 0,-567 0,-252 166,-252 166,-567"/>
<text text-anchor="start" x="14" y="-554.5" font-family="Helvetica,sans-Serif" font-size="10.00">pocketmine\entity\projectile</text>
<text text-anchor="start" x="58.5" y="-543.5" font-family="Helvetica,sans-Serif" font-size="10.00">\Projectile</text>
<text text-anchor="start" x="4" y="-528.5" font-family="Helvetica,sans-Serif" font-size="10.00">#</text>
<text text-anchor="start" x="17" y="-528.5" font-family="Helvetica,sans-Serif" font-size="10.00">$blockHit</text>
<text text-anchor="start" x="4" y="-513.5" font-family="Helvetica,sans-Serif" font-size="10.00">#</text>
<text text-anchor="start" x="17" y="-513.5" font-family="Helvetica,sans-Serif" font-size="10.00">$damage</text>
<text text-anchor="start" x="4" y="-498.5" font-family="Helvetica,sans-Serif" font-size="10.00">+</text>
<text text-anchor="start" x="17" y="-498.5" font-family="Helvetica,sans-Serif" font-size="10.00">__construct()</text>
<text text-anchor="start" x="4" y="-483.5" font-family="Helvetica,sans-Serif" font-size="10.00">+</text>
<text text-anchor="start" x="17" y="-483.5" font-family="Helvetica,sans-Serif" font-size="10.00">attack()</text>
<text text-anchor="start" x="4" y="-468.5" font-family="Helvetica,sans-Serif" font-size="10.00">+</text>
<text text-anchor="start" x="17" y="-468.5" font-family="Helvetica,sans-Serif" font-size="10.00">canBeCollidedWith()</text>
<text text-anchor="start" x="4" y="-453.5" font-family="Helvetica,sans-Serif" font-size="10.00">+</text>
<text text-anchor="start" x="17" y="-453.5" font-family="Helvetica,sans-Serif" font-size="10.00">canCollideWith()</text>
<text text-anchor="start" x="4" y="-438.5" font-family="Helvetica,sans-Serif" font-size="10.00">+</text>
<text text-anchor="start" x="17" y="-438.5" font-family="Helvetica,sans-Serif" font-size="10.00">getBaseDamage()</text>
<text text-anchor="start" x="4" y="-423.5" font-family="Helvetica,sans-Serif" font-size="10.00">+</text>
<text text-anchor="start" x="17" y="-423.5" font-family="Helvetica,sans-Serif" font-size="10.00">getResultDamage()</text>
<text text-anchor="start" x="4" y="-408.5" font-family="Helvetica,sans-Serif" font-size="10.00">+</text>
<text text-anchor="start" x="17" y="-408.5" font-family="Helvetica,sans-Serif" font-size="10.00">hasMovementUpdate()</text>
<text text-anchor="start" x="4" y="-393.5" font-family="Helvetica,sans-Serif" font-size="10.00">+</text>
<text text-anchor="start" x="17" y="-393.5" font-family="Helvetica,sans-Serif" font-size="10.00">onNearbyBlockChange()</text>
<text text-anchor="start" x="4" y="-378.5" font-family="Helvetica,sans-Serif" font-size="10.00">+</text>
<text text-anchor="start" x="17" y="-378.5" font-family="Helvetica,sans-Serif" font-size="10.00">saveNBT()</text>
<text text-anchor="start" x="4" y="-363.5" font-family="Helvetica,sans-Serif" font-size="10.00">+</text>
<text text-anchor="start" x="17" y="-363.5" font-family="Helvetica,sans-Serif" font-size="10.00">setBaseDamage()</text>
<text text-anchor="start" x="4" y="-348.5" font-family="Helvetica,sans-Serif" font-size="10.00">#</text>
<text text-anchor="start" x="17" y="-348.5" font-family="Helvetica,sans-Serif" font-size="10.00">applyDragBeforeGravity()</text>
<text text-anchor="start" x="4" y="-333.5" font-family="Helvetica,sans-Serif" font-size="10.00">#</text>
<text text-anchor="start" x="17" y="-333.5" font-family="Helvetica,sans-Serif" font-size="10.00">calculateInterceptWithBlock()</text>
<text text-anchor="start" x="4" y="-318.5" font-family="Helvetica,sans-Serif" font-size="10.00">#</text>
<text text-anchor="start" x="17" y="-318.5" font-family="Helvetica,sans-Serif" font-size="10.00">initEntity()</text>
<text text-anchor="start" x="4" y="-303.5" font-family="Helvetica,sans-Serif" font-size="10.00">#</text>
<text text-anchor="start" x="17" y="-303.5" font-family="Helvetica,sans-Serif" font-size="10.00">move()</text>
<text text-anchor="start" x="4" y="-288.5" font-family="Helvetica,sans-Serif" font-size="10.00">#</text>
<text text-anchor="start" x="17" y="-288.5" font-family="Helvetica,sans-Serif" font-size="10.00">onHit()</text>
<text text-anchor="start" x="4" y="-273.5" font-family="Helvetica,sans-Serif" font-size="10.00">#</text>
<text text-anchor="start" x="17" y="-273.5" font-family="Helvetica,sans-Serif" font-size="10.00">onHitBlock()</text>
<text text-anchor="start" x="4" y="-258.5" font-family="Helvetica,sans-Serif" font-size="10.00">#</text>
<text text-anchor="start" x="17" y="-258.5" font-family="Helvetica,sans-Serif" font-size="10.00">onHitEntity()</text>
<polygon fill="#bfbfbf" stroke="#bfbfbf" points="0,-538.5 0,-538.5 166,-538.5 166,-538.5 0,-538.5"/>
<polygon fill="#bfbfbf" stroke="#bfbfbf" points="0,-508.5 0,-508.5 15,-508.5 15,-508.5 0,-508.5"/>
<polygon fill="#bfbfbf" stroke="#bfbfbf" points="15,-508.5 15,-508.5 166,-508.5 166,-508.5 15,-508.5"/>
<polygon fill="none" stroke="#bfbfbf" points="0,-252 0,-567 166,-567 166,-252 0,-252"/>
</a>
</g>
</g>
<!-- Node3&#45;&gt;Node2 -->
<g id="edge2_Node000002_Node000003" class="edge">
<title>Node3&#45;&gt;Node2</title>
<g id="a_edge2_Node000002_Node000003"><a xlink:title=" ">
<path fill="none" stroke="#63b8ff" d="M83,-241.68C83,-232.76 83,-224.2 83,-216.26"/>
<polygon fill="none" stroke="#63b8ff" points="79.5,-241.9 83,-251.9 86.5,-241.9 79.5,-241.9"/>
</a>
</g>
</g>
<!-- Node4 -->
<g id="Node000004" class="node">
<title>Node4</title>
<g id="a_Node000004"><a xlink:href="../../d2/d3c/classpocketmine_1_1entity_1_1_entity.html" target="_top" xlink:title=" ">
<polygon fill="white" stroke="transparent" points="157,-1357 9,-1357 9,-603 157,-603 157,-1357"/>
<text text-anchor="start" x="22.5" y="-1345" font-family="Helvetica,sans-Serif" font-size="10.00">pocketmine\entity\Entity</text>
<text text-anchor="start" x="13" y="-1330" font-family="Helvetica,sans-Serif" font-size="10.00">+</text>
<text text-anchor="start" x="26" y="-1330" font-family="Helvetica,sans-Serif" font-size="10.00">$boundingBox</text>
<text text-anchor="start" x="13" y="-1315" font-family="Helvetica,sans-Serif" font-size="10.00">+</text>
<text text-anchor="start" x="26" y="-1315" font-family="Helvetica,sans-Serif" font-size="10.00">$fallDistance</text>
<text text-anchor="start" x="13" y="-1300" font-family="Helvetica,sans-Serif" font-size="10.00">+</text>
<text text-anchor="start" x="26" y="-1300" font-family="Helvetica,sans-Serif" font-size="10.00">$isCollided</text>
<text text-anchor="start" x="13" y="-1285" font-family="Helvetica,sans-Serif" font-size="10.00">+</text>
<text text-anchor="start" x="26" y="-1285" font-family="Helvetica,sans-Serif" font-size="10.00">$isCollidedHorizontally</text>
<text text-anchor="start" x="13" y="-1270" font-family="Helvetica,sans-Serif" font-size="10.00">+</text>
<text text-anchor="start" x="26" y="-1270" font-family="Helvetica,sans-Serif" font-size="10.00">$isCollidedVertically</text>
<text text-anchor="start" x="13" y="-1255" font-family="Helvetica,sans-Serif" font-size="10.00">+</text>
<text text-anchor="start" x="26" y="-1255" font-family="Helvetica,sans-Serif" font-size="10.00">$keepMovement</text>
<text text-anchor="start" x="13" y="-1240" font-family="Helvetica,sans-Serif" font-size="10.00">+</text>
<text text-anchor="start" x="26" y="-1240" font-family="Helvetica,sans-Serif" font-size="10.00">$lastUpdate</text>
<text text-anchor="start" x="13" y="-1225" font-family="Helvetica,sans-Serif" font-size="10.00">+</text>
<text text-anchor="start" x="26" y="-1225" font-family="Helvetica,sans-Serif" font-size="10.00">$noDamageTicks</text>
<text text-anchor="start" x="13" y="-1210" font-family="Helvetica,sans-Serif" font-size="10.00">+</text>
<text text-anchor="start" x="26" y="-1210" font-family="Helvetica,sans-Serif" font-size="10.00">$onGround</text>
<text text-anchor="start" x="13" y="-1195" font-family="Helvetica,sans-Serif" font-size="10.00">+</text>
<text text-anchor="start" x="26" y="-1195" font-family="Helvetica,sans-Serif" font-size="10.00">$size</text>
<text text-anchor="start" x="13" y="-1180" font-family="Helvetica,sans-Serif" font-size="10.00">+</text>
<text text-anchor="start" x="26" y="-1180" font-family="Helvetica,sans-Serif" font-size="10.00">$ticksLived</text>
<text text-anchor="start" x="13" y="-1165" font-family="Helvetica,sans-Serif" font-size="10.00">+</text>
<text text-anchor="start" x="26" y="-1165" font-family="Helvetica,sans-Serif" font-size="10.00">MOTION_THRESHOLD</text>
<text text-anchor="start" x="13" y="-1150" font-family="Helvetica,sans-Serif" font-size="10.00">+</text>
<text text-anchor="start" x="26" y="-1150" font-family="Helvetica,sans-Serif" font-size="10.00">TAG_MOTION</text>
<text text-anchor="start" x="13" y="-1135" font-family="Helvetica,sans-Serif" font-size="10.00">+</text>
<text text-anchor="start" x="26" y="-1135" font-family="Helvetica,sans-Serif" font-size="10.00">TAG_POS</text>
<text text-anchor="start" x="13" y="-1120" font-family="Helvetica,sans-Serif" font-size="10.00">+</text>
<text text-anchor="start" x="26" y="-1120" font-family="Helvetica,sans-Serif" font-size="10.00">TAG_ROTATION</text>
<text text-anchor="start" x="13" y="-1105" font-family="Helvetica,sans-Serif" font-size="10.00">#</text>
<text text-anchor="start" x="26" y="-1105" font-family="Helvetica,sans-Serif" font-size="10.00">$alwaysShowNameTag</text>
<text text-anchor="start" x="13" y="-1090" font-family="Helvetica,sans-Serif" font-size="10.00">#</text>
<text text-anchor="start" x="26" y="-1090" font-family="Helvetica,sans-Serif" font-size="10.00">$attributeMap</text>
<text text-anchor="start" x="13" y="-1075" font-family="Helvetica,sans-Serif" font-size="10.00">#</text>
<text text-anchor="start" x="26" y="-1075" font-family="Helvetica,sans-Serif" font-size="10.00">$blocksAround</text>
<text text-anchor="start" x="13" y="-1060" font-family="Helvetica,sans-Serif" font-size="10.00">#</text>
<text text-anchor="start" x="26" y="-1060" font-family="Helvetica,sans-Serif" font-size="10.00">$canClimb</text>
<text text-anchor="start" x="13" y="-1045" font-family="Helvetica,sans-Serif" font-size="10.00">#</text>
<text text-anchor="start" x="26" y="-1045" font-family="Helvetica,sans-Serif" font-size="10.00">$canClimbWalls</text>
<text text-anchor="start" x="13" y="-1030" font-family="Helvetica,sans-Serif" font-size="10.00">#</text>
<text text-anchor="start" x="26" y="-1030" font-family="Helvetica,sans-Serif" font-size="10.00">$closed</text>
<text text-anchor="start" x="13" y="-1015" font-family="Helvetica,sans-Serif" font-size="10.00">#</text>
<text text-anchor="start" x="26" y="-1015" font-family="Helvetica,sans-Serif" font-size="10.00">$drag</text>
<text text-anchor="start" x="13" y="-1000" font-family="Helvetica,sans-Serif" font-size="10.00">#</text>
<text text-anchor="start" x="26" y="-1000" font-family="Helvetica,sans-Serif" font-size="10.00">$fireTicks</text>
<text text-anchor="start" x="13" y="-985" font-family="Helvetica,sans-Serif" font-size="10.00">#</text>
<text text-anchor="start" x="26" y="-985" font-family="Helvetica,sans-Serif" font-size="10.00">$forceMovementUpdate</text>
<text text-anchor="start" x="13" y="-970" font-family="Helvetica,sans-Serif" font-size="10.00">#</text>
<text text-anchor="start" x="26" y="-970" font-family="Helvetica,sans-Serif" font-size="10.00">$gravity</text>
<text text-anchor="start" x="26" y="-955" font-family="Helvetica,sans-Serif" font-size="10.00">and 24 more...</text>
<text text-anchor="start" x="13" y="-940" font-family="Helvetica,sans-Serif" font-size="10.00">+</text>
<text text-anchor="start" x="26" y="-940" font-family="Helvetica,sans-Serif" font-size="10.00">__construct()</text>
<text text-anchor="start" x="13" y="-925" font-family="Helvetica,sans-Serif" font-size="10.00">+</text>
<text text-anchor="start" x="26" y="-925" font-family="Helvetica,sans-Serif" font-size="10.00">__destruct()</text>
<text text-anchor="start" x="13" y="-910" font-family="Helvetica,sans-Serif" font-size="10.00">+</text>
<text text-anchor="start" x="26" y="-910" font-family="Helvetica,sans-Serif" font-size="10.00">__toString()</text>
<text text-anchor="start" x="13" y="-895" font-family="Helvetica,sans-Serif" font-size="10.00">+</text>
<text text-anchor="start" x="26" y="-895" font-family="Helvetica,sans-Serif" font-size="10.00">addMotion()</text>
<text text-anchor="start" x="13" y="-880" font-family="Helvetica,sans-Serif" font-size="10.00">+</text>
<text text-anchor="start" x="26" y="-880" font-family="Helvetica,sans-Serif" font-size="10.00">attack()</text>
<text text-anchor="start" x="13" y="-865" font-family="Helvetica,sans-Serif" font-size="10.00">+</text>
<text text-anchor="start" x="26" y="-865" font-family="Helvetica,sans-Serif" font-size="10.00">broadcastAnimation()</text>
<text text-anchor="start" x="13" y="-850" font-family="Helvetica,sans-Serif" font-size="10.00">+</text>
<text text-anchor="start" x="26" y="-850" font-family="Helvetica,sans-Serif" font-size="10.00">broadcastSound()</text>
<text text-anchor="start" x="13" y="-835" font-family="Helvetica,sans-Serif" font-size="10.00">+</text>
<text text-anchor="start" x="26" y="-835" font-family="Helvetica,sans-Serif" font-size="10.00">canBeCollidedWith()</text>
<text text-anchor="start" x="13" y="-820" font-family="Helvetica,sans-Serif" font-size="10.00">+</text>
<text text-anchor="start" x="26" y="-820" font-family="Helvetica,sans-Serif" font-size="10.00">canBeMovedByCurrents()</text>
<text text-anchor="start" x="13" y="-805" font-family="Helvetica,sans-Serif" font-size="10.00">+</text>
<text text-anchor="start" x="26" y="-805" font-family="Helvetica,sans-Serif" font-size="10.00">canBeRenamed()</text>
<text text-anchor="start" x="26" y="-790" font-family="Helvetica,sans-Serif" font-size="10.00">and 96 more...</text>
<text text-anchor="start" x="13" y="-775" font-family="Helvetica,sans-Serif" font-size="10.00">+</text>
<text text-anchor="start" x="26" y="-775" font-family="Helvetica,sans-Serif" font-size="10.00">nextRuntimeId()</text>
<text text-anchor="start" x="13" y="-760" font-family="Helvetica,sans-Serif" font-size="10.00">#</text>
<text text-anchor="start" x="26" y="-760" font-family="Helvetica,sans-Serif" font-size="10.00">addAttributes()</text>
<text text-anchor="start" x="13" y="-745" font-family="Helvetica,sans-Serif" font-size="10.00">#</text>
<text text-anchor="start" x="26" y="-745" font-family="Helvetica,sans-Serif" font-size="10.00">applyDragBeforeGravity()</text>
<text text-anchor="start" x="13" y="-730" font-family="Helvetica,sans-Serif" font-size="10.00">#</text>
<text text-anchor="start" x="26" y="-730" font-family="Helvetica,sans-Serif" font-size="10.00">broadcastMotion()</text>
<text text-anchor="start" x="13" y="-715" font-family="Helvetica,sans-Serif" font-size="10.00">#</text>
<text text-anchor="start" x="26" y="-715" font-family="Helvetica,sans-Serif" font-size="10.00">broadcastMovement()</text>
<text text-anchor="start" x="13" y="-700" font-family="Helvetica,sans-Serif" font-size="10.00">#</text>
<text text-anchor="start" x="26" y="-700" font-family="Helvetica,sans-Serif" font-size="10.00">checkBlockIntersections()</text>
<text text-anchor="start" x="13" y="-685" font-family="Helvetica,sans-Serif" font-size="10.00">#</text>
<text text-anchor="start" x="26" y="-685" font-family="Helvetica,sans-Serif" font-size="10.00">checkGroundState()</text>
<text text-anchor="start" x="13" y="-670" font-family="Helvetica,sans-Serif" font-size="10.00">#</text>
<text text-anchor="start" x="26" y="-670" font-family="Helvetica,sans-Serif" font-size="10.00">checkObstruction()</text>
<text text-anchor="start" x="13" y="-655" font-family="Helvetica,sans-Serif" font-size="10.00">#</text>
<text text-anchor="start" x="26" y="-655" font-family="Helvetica,sans-Serif" font-size="10.00">dealFireDamage()</text>
<text text-anchor="start" x="13" y="-640" font-family="Helvetica,sans-Serif" font-size="10.00">#</text>
<text text-anchor="start" x="26" y="-640" font-family="Helvetica,sans-Serif" font-size="10.00">destroyCycles()</text>
<text text-anchor="start" x="13" y="-625" font-family="Helvetica,sans-Serif" font-size="10.00">#</text>
<text text-anchor="start" x="26" y="-625" font-family="Helvetica,sans-Serif" font-size="10.00">doOnFireTick()</text>
<text text-anchor="start" x="26" y="-610" font-family="Helvetica,sans-Serif" font-size="10.00">and 25 more...</text>
<polygon fill="#bfbfbf" stroke="#bfbfbf" points="9,-1340 9,-1340 157,-1340 157,-1340 9,-1340"/>
<polygon fill="#bfbfbf" stroke="#bfbfbf" points="9,-950 9,-950 24,-950 24,-950 9,-950"/>
<polygon fill="#bfbfbf" stroke="#bfbfbf" points="24,-950 24,-950 157,-950 157,-950 24,-950"/>
<polygon fill="none" stroke="#bfbfbf" points="9,-603 9,-1357 157,-1357 157,-603 9,-603"/>
</a>
</g>
</g>
<!-- Node4&#45;&gt;Node3 -->
<g id="edge3_Node000003_Node000004" class="edge">
<title>Node4&#45;&gt;Node3</title>
<g id="a_edge3_Node000003_Node000004"><a xlink:title=" ">
<path fill="none" stroke="#63b8ff" d="M83,-592.75C83,-584.1 83,-575.6 83,-567.28"/>
<polygon fill="none" stroke="#63b8ff" points="79.5,-592.97 83,-602.97 86.5,-592.97 79.5,-592.97"/>
</a>
</g>
</g>
</g>
</svg>

<g id="navigator" transform="translate(0 0)" fill="#404254">
  <rect fill="#f2f5e9" fill-opacity="0.5" stroke="#606060" stroke-width=".5" x="0" y="0" width="60" height="60"/>
  <use id="zoomplus" xlink:href="#zoomPlus" x="17" y="9" onmousedown="handleZoom(evt,'in')"/>
  <use id="zoomminus" xlink:href="#zoomMin" x="42" y="9" onmousedown="handleZoom(evt,'out')"/>
  <use id="reset" xlink:href="#resetDef" x="30" y="36" onmousedown="handleReset()"/>
   <use id="arrowup" xlink:href="#arrowUp" x="0" y="0" onmousedown="handlePan(0,-1)"/>
  <use id="arrowright" xlink:href="#arrowRight" x="0" y="0" onmousedown="handlePan(1,0)"/>
  <use id="arrowdown" xlink:href="#arrowDown" x="0" y="0" onmousedown="handlePan(0,1)"/>
  <use id="arrowleft" xlink:href="#arrowLeft" x="0" y="0" onmousedown="handlePan(-1,0)"/>
</g>
<svg viewBox="0 0 15 15" width="100%" height="30px" preserveAspectRatio="xMaxYMin meet">
 <g id="arrow_out" transform="scale(0.3 0.3)">
  <a xlink:href="classpocketmine_1_1entity_1_1projectile_1_1_snowball__inherit__graph_org.svg" target="_base">
   <rect id="button" ry="5" rx="5" y="6" x="6" height="38" width="38"
        fill="#f2f5e9" fill-opacity="0.5" stroke="#606060" stroke-width="1.0"/>
   <path id="arrow"
     d="M 11.500037,31.436501 C 11.940474,20.09759 22.043105,11.32322 32.158766,21.979434 L 37.068811,17.246167 C 37.068811,17.246167 37.088388,32 37.088388,32 L 22.160133,31.978069 C 22.160133,31.978069 26.997745,27.140456 26.997745,27.140456 C 18.528582,18.264221 13.291696,25.230495 11.500037,31.436501 z"
     style="fill:#404040;"/>
  </a>
 </g>
</svg>

<style type='text/css'>
<![CDATA[
[data-mouse-over-selected='false'] { opacity: 0.7; }
[data-mouse-over-selected='true']  { opacity: 1.0; }
]]>
</style>
<script type="application/ecmascript"><![CDATA[
document.addEventListener('DOMContentLoaded', (event) => {
  highlightEdges();
  highlightAdjacentNodes();
});
]]></script>
</svg>
