<?xml version="1.0" encoding="UTF-8" standalone="no"?>
<!DOCTYPE svg PUBLIC "-//W3C//DTD SVG 1.1//EN"
 "http://www.w3.org/Graphics/SVG/1.1/DTD/svg11.dtd">
<!-- Generated by graphviz version 2.43.0 (0)
 -->
<!-- Title: pocketmine\world\light\LightPopulationTask Pages: 1 -->
<svg width="130pt" height="459pt"
 viewBox="0.00 0.00 130.00 459.00" xmlns="http://www.w3.org/2000/svg" xmlns:xlink="http://www.w3.org/1999/xlink">
<g id="graph0" class="graph" transform="scale(1 1) rotate(0) translate(4 455)">
<title>pocketmine\world\light\LightPopulationTask</title>
<!-- Node1 -->
<g id="Node000001" class="node">
<title>Node1</title>
<g id="a_Node000001"><a xlink:title=" ">
<polygon fill="#999999" stroke="transparent" points="122,-90 0,-90 0,0 122,0 122,-90"/>
<text text-anchor="start" x="5" y="-78" font-family="Helvetica,sans-Serif" font-size="10.00">pocketmine\world\light</text>
<text text-anchor="start" x="10.5" y="-67" font-family="Helvetica,sans-Serif" font-size="10.00">\LightPopulationTask</text>
<text text-anchor="start" x="10" y="-52" font-family="Helvetica,sans-Serif" font-size="10.00">+</text>
<text text-anchor="start" x="29" y="-52" font-family="Helvetica,sans-Serif" font-size="10.00">$chunk</text>
<text text-anchor="start" x="10" y="-37" font-family="Helvetica,sans-Serif" font-size="10.00">+</text>
<text text-anchor="start" x="29" y="-37" font-family="Helvetica,sans-Serif" font-size="10.00">__construct()</text>
<text text-anchor="start" x="10" y="-22" font-family="Helvetica,sans-Serif" font-size="10.00">+</text>
<text text-anchor="start" x="29" y="-22" font-family="Helvetica,sans-Serif" font-size="10.00">onCompletion()</text>
<text text-anchor="start" x="10" y="-7" font-family="Helvetica,sans-Serif" font-size="10.00">+</text>
<text text-anchor="start" x="29" y="-7" font-family="Helvetica,sans-Serif" font-size="10.00">onRun()</text>
<polygon fill="#666666" stroke="#666666" points="0,-62 0,-62 122,-62 122,-62 0,-62"/>
<polygon fill="#666666" stroke="#666666" points="0,-47 0,-47 27,-47 27,-47 0,-47"/>
<polygon fill="#666666" stroke="#666666" points="27,-47 27,-47 122,-47 122,-47 27,-47"/>
<polygon fill="none" stroke="#666666" points="0,0 0,-90 122,-90 122,0 0,0"/>
</a>
</g>
</g>
<!-- Node2 -->
<g id="Node000002" class="node">
<title>Node2</title>
<g id="a_Node000002"><a xlink:href="../../df/dfa/classpocketmine_1_1scheduler_1_1_async_task.html" target="_top" xlink:title=" ">
<polygon fill="white" stroke="transparent" points="120,-366 2,-366 2,-126 120,-126 120,-366"/>
<text text-anchor="start" x="7" y="-354" font-family="Helvetica,sans-Serif" font-size="10.00">pocketmine\scheduler</text>
<text text-anchor="start" x="33.5" y="-343" font-family="Helvetica,sans-Serif" font-size="10.00">\AsyncTask</text>
<text text-anchor="start" x="59" y="-328" font-family="Helvetica,sans-Serif" font-size="10.00"> </text>
<text text-anchor="start" x="11" y="-313" font-family="Helvetica,sans-Serif" font-size="10.00">+</text>
<text text-anchor="start" x="29" y="-313" font-family="Helvetica,sans-Serif" font-size="10.00">__destruct()</text>
<text text-anchor="start" x="11" y="-298" font-family="Helvetica,sans-Serif" font-size="10.00">+</text>
<text text-anchor="start" x="29" y="-298" font-family="Helvetica,sans-Serif" font-size="10.00">getResult()</text>
<text text-anchor="start" x="11" y="-283" font-family="Helvetica,sans-Serif" font-size="10.00">+</text>
<text text-anchor="start" x="29" y="-283" font-family="Helvetica,sans-Serif" font-size="10.00">hasResult()</text>
<text text-anchor="start" x="11" y="-268" font-family="Helvetica,sans-Serif" font-size="10.00">+</text>
<text text-anchor="start" x="29" y="-268" font-family="Helvetica,sans-Serif" font-size="10.00">isFinished()</text>
<text text-anchor="start" x="11" y="-253" font-family="Helvetica,sans-Serif" font-size="10.00">+</text>
<text text-anchor="start" x="29" y="-253" font-family="Helvetica,sans-Serif" font-size="10.00">isSubmitted()</text>
<text text-anchor="start" x="11" y="-238" font-family="Helvetica,sans-Serif" font-size="10.00">+</text>
<text text-anchor="start" x="29" y="-238" font-family="Helvetica,sans-Serif" font-size="10.00">onCompletion()</text>
<text text-anchor="start" x="11" y="-223" font-family="Helvetica,sans-Serif" font-size="10.00">+</text>
<text text-anchor="start" x="29" y="-223" font-family="Helvetica,sans-Serif" font-size="10.00">onRun()</text>
<text text-anchor="start" x="11" y="-208" font-family="Helvetica,sans-Serif" font-size="10.00">+</text>
<text text-anchor="start" x="29" y="-208" font-family="Helvetica,sans-Serif" font-size="10.00">run()</text>
<text text-anchor="start" x="11" y="-193" font-family="Helvetica,sans-Serif" font-size="10.00">+</text>
<text text-anchor="start" x="29" y="-193" font-family="Helvetica,sans-Serif" font-size="10.00">setResult()</text>
<text text-anchor="start" x="11" y="-178" font-family="Helvetica,sans-Serif" font-size="10.00">+</text>
<text text-anchor="start" x="29" y="-178" font-family="Helvetica,sans-Serif" font-size="10.00">setSubmitted()</text>
<text text-anchor="start" x="11" y="-163" font-family="Helvetica,sans-Serif" font-size="10.00">#</text>
<text text-anchor="start" x="29" y="-163" font-family="Helvetica,sans-Serif" font-size="10.00">fetchLocal()</text>
<text text-anchor="start" x="11" y="-148" font-family="Helvetica,sans-Serif" font-size="10.00">#</text>
<text text-anchor="start" x="29" y="-148" font-family="Helvetica,sans-Serif" font-size="10.00">reallyDestruct()</text>
<text text-anchor="start" x="11" y="-133" font-family="Helvetica,sans-Serif" font-size="10.00">#</text>
<text text-anchor="start" x="29" y="-133" font-family="Helvetica,sans-Serif" font-size="10.00">storeLocal()</text>
<polygon fill="#666666" stroke="#666666" points="2,-338 2,-338 120,-338 120,-338 2,-338"/>
<polygon fill="#666666" stroke="#666666" points="2,-323 2,-323 120,-323 120,-323 2,-323"/>
<polygon fill="none" stroke="#666666" points="2,-126 2,-366 120,-366 120,-126 2,-126"/>
</a>
</g>
</g>
<!-- Node2&#45;&gt;Node1 -->
<g id="edge1_Node000001_Node000002" class="edge">
<title>Node2&#45;&gt;Node1</title>
<g id="a_edge1_Node000001_Node000002"><a xlink:title=" ">
<path fill="none" stroke="#63b8ff" d="M61,-115.59C61,-106.67 61,-98.1 61,-90.21"/>
<polygon fill="none" stroke="#63b8ff" points="57.5,-115.79 61,-125.79 64.5,-115.79 57.5,-115.79"/>
</a>
</g>
</g>
<!-- Node3 -->
<g id="Node000003" class="node">
<title>Node3</title>
<g id="a_Node000003"><a xlink:title=" ">
<polygon fill="white" stroke="transparent" points="89,-451 33,-451 33,-402 89,-402 89,-451"/>
<text text-anchor="start" x="38" y="-438.5" font-family="Helvetica,sans-Serif" font-size="10.00">Runnable</text>
<text text-anchor="start" x="59" y="-423.5" font-family="Helvetica,sans-Serif" font-size="10.00"> </text>
<text text-anchor="start" x="59" y="-408.5" font-family="Helvetica,sans-Serif" font-size="10.00"> </text>
<polygon fill="#bfbfbf" stroke="#bfbfbf" points="33,-433.5 33,-433.5 89,-433.5 89,-433.5 33,-433.5"/>
<polygon fill="#bfbfbf" stroke="#bfbfbf" points="33,-418.5 33,-418.5 89,-418.5 89,-418.5 33,-418.5"/>
<polygon fill="none" stroke="#bfbfbf" points="33,-402 33,-451 89,-451 89,-402 33,-402"/>
</a>
</g>
</g>
<!-- Node3&#45;&gt;Node2 -->
<g id="edge2_Node000002_Node000003" class="edge">
<title>Node3&#45;&gt;Node2</title>
<g id="a_edge2_Node000002_Node000003"><a xlink:title=" ">
<path fill="none" stroke="#63b8ff" d="M61,-391.79C61,-384 61,-375.27 61,-366.06"/>
<polygon fill="none" stroke="#63b8ff" points="57.5,-391.8 61,-401.8 64.5,-391.8 57.5,-391.8"/>
</a>
</g>
</g>
</g>
</svg>
