<?xml version="1.0" encoding="UTF-8" standalone="no"?>
<!DOCTYPE svg PUBLIC "-//W3C//DTD SVG 1.1//EN"
 "http://www.w3.org/Graphics/SVG/1.1/DTD/svg11.dtd">
<!-- Generated by graphviz version 2.43.0 (0)
 -->
<!-- Title: pocketmine\thread\Thread Pages: 1 -->
<!--zoomable 364 -->
<svg id="main" version="1.1" xmlns="http://www.w3.org/2000/svg" xmlns:xlink="http://www.w3.org/1999/xlink" xml:space="preserve" onload="init(evt)">
<style type="text/css"><![CDATA[
.edge:hover path { stroke: red; }
.edge:hover polygon { stroke: red; fill: red; }
]]></style>
<script type="text/javascript"><![CDATA[
var edges = document.getElementsByTagName('g');
if (edges && edges.length) {
  for (var i=0;i<edges.length;i++) {
    if (edges[i].id.substr(0,4)=='edge') {
      edges[i].setAttribute('class','edge');
    }
  }
}
]]></script>
        <defs>
                <circle id="rim" cx="0" cy="0" r="7"/>
                <circle id="rim2" cx="0" cy="0" r="3.5"/>
                <g id="zoomPlus">
                        <use xlink:href="#rim" fill="#404040">
                                <set attributeName="fill" to="#808080" begin="zoomplus.mouseover" end="zoomplus.mouseout"/>
                        </use>
                        <path d="M-4,0h8M0,-4v8" fill="none" stroke="white" stroke-width="1.5" pointer-events="none"/>
                </g>
                <g id="zoomMin">
                        <use xlink:href="#rim" fill="#404040">
                                <set attributeName="fill" to="#808080" begin="zoomminus.mouseover" end="zoomminus.mouseout"/>
                        </use>
                        <path d="M-4,0h8" fill="none" stroke="white" stroke-width="1.5" pointer-events="none"/>
                </g>
                <g id="dirArrow">
                        <path fill="none" stroke="white" stroke-width="1.5" d="M0,-3.0v7 M-2.5,-0.5L0,-3.0L2.5,-0.5"/>
                </g>
               <g id="resetDef">
                       <use xlink:href="#rim2" fill="#404040">
                               <set attributeName="fill" to="#808080" begin="reset.mouseover" end="reset.mouseout"/>
                       </use>
               </g>
        </defs>

<script type="text/javascript">
var viewWidth = 651;
var viewHeight = 364;
var sectionId = 'dynsection-0';
</script>
<script xlink:href="../../svgpan.js"/>
<svg id="graph" class="graph">
<g id="viewport">
<title>pocketmine\thread\Thread</title>
<polygon fill="white" stroke="transparent" points="-4,4 -4,-360 646.5,-360 646.5,4 -4,4"/>
<!-- Node1 -->
<g id="node1" class="node">
<title>Node1</title>
<g id="a_node1"><a xlink:title=" ">
<polygon fill="#bfbfbf" stroke="black" points="230,-193.5 230,-261.5 375,-261.5 375,-193.5 230,-193.5"/>
<text text-anchor="middle" x="302.5" y="-249.5" font-family="Helvetica,sans-Serif" font-size="10.00">pocketmine\thread\Thread</text>
<polyline fill="none" stroke="black" points="230,-242.5 375,-242.5 "/>
<text text-anchor="middle" x="302.5" y="-230.5" font-family="Helvetica,sans-Serif" font-size="10.00"> </text>
<polyline fill="none" stroke="black" points="230,-223.5 375,-223.5 "/>
<text text-anchor="start" x="238" y="-211.5" font-family="Helvetica,sans-Serif" font-size="10.00">+ quit()</text>
<text text-anchor="start" x="238" y="-200.5" font-family="Helvetica,sans-Serif" font-size="10.00">+ start()</text>
</a>
</g>
</g>
<!-- Node3 -->
<g id="node3" class="node">
<title>Node3</title>
<g id="a_node3"><a xlink:href="../../db/d0a/classpocketmine_1_1console_1_1_console_reader_thread.html" target="_top" xlink:title=" ">
<polygon fill="white" stroke="#bfbfbf" points="0,-33.5 0,-123.5 127,-123.5 127,-33.5 0,-33.5"/>
<text text-anchor="start" x="8" y="-111.5" font-family="Helvetica,sans-Serif" font-size="10.00">pocketmine\console</text>
<text text-anchor="middle" x="63.5" y="-100.5" font-family="Helvetica,sans-Serif" font-size="10.00">\ConsoleReaderThread</text>
<polyline fill="none" stroke="#bfbfbf" points="0,-93.5 127,-93.5 "/>
<text text-anchor="middle" x="63.5" y="-81.5" font-family="Helvetica,sans-Serif" font-size="10.00"> </text>
<polyline fill="none" stroke="#bfbfbf" points="0,-74.5 127,-74.5 "/>
<text text-anchor="start" x="8" y="-62.5" font-family="Helvetica,sans-Serif" font-size="10.00">+ __construct()</text>
<text text-anchor="start" x="8" y="-51.5" font-family="Helvetica,sans-Serif" font-size="10.00">+ getThreadName()</text>
<text text-anchor="start" x="8" y="-40.5" font-family="Helvetica,sans-Serif" font-size="10.00"># onRun()</text>
</a>
</g>
</g>
<!-- Node1&#45;&gt;Node3 -->
<g id="edge2" class="edge">
<title>Node1&#45;&gt;Node3</title>
<path fill="none" stroke="midnightblue" d="M220.52,-200.43C192.22,-189.4 161.2,-174.9 135.5,-157 122.24,-147.76 109.58,-135.72 98.69,-123.89"/>
<polygon fill="none" stroke="midnightblue" points="219.4,-203.75 229.99,-204.04 221.89,-197.21 219.4,-203.75"/>
</g>
<!-- Node4 -->
<g id="node4" class="node">
<title>Node4</title>
<g id="a_node4"><a xlink:href="../../de/dc9/classpocketmine_1_1network_1_1mcpe_1_1raklib_1_1_rak_lib_server.html" target="_top" xlink:title=" ">
<polygon fill="white" stroke="#bfbfbf" points="145,-0.5 145,-156.5 290,-156.5 290,-0.5 145,-0.5"/>
<text text-anchor="start" x="153" y="-144.5" font-family="Helvetica,sans-Serif" font-size="10.00">pocketmine\network</text>
<text text-anchor="middle" x="217.5" y="-133.5" font-family="Helvetica,sans-Serif" font-size="10.00">\mcpe\raklib\RakLibServer</text>
<polyline fill="none" stroke="#bfbfbf" points="145,-126.5 290,-126.5 "/>
<text text-anchor="start" x="153" y="-114.5" font-family="Helvetica,sans-Serif" font-size="10.00">+ $crashInfo</text>
<text text-anchor="start" x="153" y="-103.5" font-family="Helvetica,sans-Serif" font-size="10.00"># $cleanShutdown</text>
<text text-anchor="start" x="153" y="-92.5" font-family="Helvetica,sans-Serif" font-size="10.00"># $mainPath</text>
<text text-anchor="start" x="153" y="-81.5" font-family="Helvetica,sans-Serif" font-size="10.00"># $ready</text>
<polyline fill="none" stroke="#bfbfbf" points="145,-74.5 290,-74.5 "/>
<text text-anchor="start" x="153" y="-62.5" font-family="Helvetica,sans-Serif" font-size="10.00">+ __construct()</text>
<text text-anchor="start" x="153" y="-51.5" font-family="Helvetica,sans-Serif" font-size="10.00">+ getCrashInfo()</text>
<text text-anchor="start" x="153" y="-40.5" font-family="Helvetica,sans-Serif" font-size="10.00">+ getThreadName()</text>
<text text-anchor="start" x="153" y="-29.5" font-family="Helvetica,sans-Serif" font-size="10.00">+ shutdownHandler()</text>
<text text-anchor="start" x="153" y="-18.5" font-family="Helvetica,sans-Serif" font-size="10.00">+ startAndWait()</text>
<text text-anchor="start" x="153" y="-7.5" font-family="Helvetica,sans-Serif" font-size="10.00"># onRun()</text>
</a>
</g>
</g>
<!-- Node1&#45;&gt;Node4 -->
<g id="edge3" class="edge">
<title>Node1&#45;&gt;Node4</title>
<path fill="none" stroke="midnightblue" d="M278.14,-184.38C273.12,-175.69 267.68,-166.28 262.19,-156.79"/>
<polygon fill="none" stroke="midnightblue" points="275.18,-186.24 283.21,-193.14 281.24,-182.73 275.18,-186.24"/>
</g>
<!-- Node5 -->
<g id="node5" class="node">
<title>Node5</title>
<g id="a_node5"><a xlink:href="../../d7/d71/classpocketmine_1_1utils_1_1_main_logger_thread.html" target="_top" xlink:title=" ">
<polygon fill="white" stroke="#bfbfbf" points="308.5,-22.5 308.5,-134.5 466.5,-134.5 466.5,-22.5 308.5,-22.5"/>
<text text-anchor="start" x="316.5" y="-122.5" font-family="Helvetica,sans-Serif" font-size="10.00">pocketmine\utils\MainLogger</text>
<text text-anchor="middle" x="387.5" y="-111.5" font-family="Helvetica,sans-Serif" font-size="10.00">Thread</text>
<polyline fill="none" stroke="#bfbfbf" points="308.5,-104.5 466.5,-104.5 "/>
<text text-anchor="middle" x="387.5" y="-92.5" font-family="Helvetica,sans-Serif" font-size="10.00"> </text>
<polyline fill="none" stroke="#bfbfbf" points="308.5,-85.5 466.5,-85.5 "/>
<text text-anchor="start" x="316.5" y="-73.5" font-family="Helvetica,sans-Serif" font-size="10.00">+ __construct()</text>
<text text-anchor="start" x="316.5" y="-62.5" font-family="Helvetica,sans-Serif" font-size="10.00">+ run()</text>
<text text-anchor="start" x="316.5" y="-51.5" font-family="Helvetica,sans-Serif" font-size="10.00">+ shutdown()</text>
<text text-anchor="start" x="316.5" y="-40.5" font-family="Helvetica,sans-Serif" font-size="10.00">+ syncFlushBuffer()</text>
<text text-anchor="start" x="316.5" y="-29.5" font-family="Helvetica,sans-Serif" font-size="10.00">+ write()</text>
</a>
</g>
</g>
<!-- Node1&#45;&gt;Node5 -->
<g id="edge4" class="edge">
<title>Node1&#45;&gt;Node5</title>
<path fill="none" stroke="midnightblue" d="M326.89,-184.32C335.84,-168.84 346.11,-151.08 355.62,-134.64"/>
<polygon fill="none" stroke="midnightblue" points="323.76,-182.73 321.79,-193.14 329.82,-186.24 323.76,-182.73"/>
</g>
<!-- Node6 -->
<g id="node6" class="node">
<title>Node6</title>
<g id="a_node6"><a xlink:href="../../d2/d87/classpocketmine_1_1utils_1_1_server_killer.html" target="_top" xlink:title=" ">
<polygon fill="white" stroke="#bfbfbf" points="484.5,-33.5 484.5,-123.5 642.5,-123.5 642.5,-33.5 484.5,-33.5"/>
<text text-anchor="middle" x="563.5" y="-111.5" font-family="Helvetica,sans-Serif" font-size="10.00">pocketmine\utils\ServerKiller</text>
<polyline fill="none" stroke="#bfbfbf" points="484.5,-104.5 642.5,-104.5 "/>
<text text-anchor="middle" x="563.5" y="-92.5" font-family="Helvetica,sans-Serif" font-size="10.00"> </text>
<polyline fill="none" stroke="#bfbfbf" points="484.5,-85.5 642.5,-85.5 "/>
<text text-anchor="start" x="492.5" y="-73.5" font-family="Helvetica,sans-Serif" font-size="10.00">+ __construct()</text>
<text text-anchor="start" x="492.5" y="-62.5" font-family="Helvetica,sans-Serif" font-size="10.00">+ getThreadName()</text>
<text text-anchor="start" x="492.5" y="-51.5" font-family="Helvetica,sans-Serif" font-size="10.00">+ quit()</text>
<text text-anchor="start" x="492.5" y="-40.5" font-family="Helvetica,sans-Serif" font-size="10.00"># onRun()</text>
</a>
</g>
</g>
<!-- Node1&#45;&gt;Node6 -->
<g id="edge5" class="edge">
<title>Node1&#45;&gt;Node6</title>
<path fill="none" stroke="midnightblue" d="M384.9,-199.94C414.53,-188.72 447.52,-174.23 475.5,-157 490.75,-147.61 505.92,-135.51 519.25,-123.68"/>
<polygon fill="none" stroke="midnightblue" points="383.56,-196.71 375.41,-203.47 386,-203.27 383.56,-196.71"/>
</g>
<!-- Node2 -->
<g id="node2" class="node">
<title>Node2</title>
<g id="a_node2"><a xlink:title=" ">
<polygon fill="white" stroke="#bfbfbf" points="277.5,-298.5 277.5,-355.5 327.5,-355.5 327.5,-298.5 277.5,-298.5"/>
<text text-anchor="middle" x="302.5" y="-343.5" font-family="Helvetica,sans-Serif" font-size="10.00">Thread</text>
<polyline fill="none" stroke="#bfbfbf" points="277.5,-336.5 327.5,-336.5 "/>
<text text-anchor="middle" x="302.5" y="-324.5" font-family="Helvetica,sans-Serif" font-size="10.00"> </text>
<polyline fill="none" stroke="#bfbfbf" points="277.5,-317.5 327.5,-317.5 "/>
<text text-anchor="middle" x="302.5" y="-305.5" font-family="Helvetica,sans-Serif" font-size="10.00"> </text>
</a>
</g>
</g>
<!-- Node2&#45;&gt;Node1 -->
<g id="edge1" class="edge">
<title>Node2&#45;&gt;Node1</title>
<path fill="none" stroke="midnightblue" d="M302.5,-288.06C302.5,-279.39 302.5,-270.24 302.5,-261.79"/>
<polygon fill="none" stroke="midnightblue" points="299,-288.32 302.5,-298.32 306,-288.32 299,-288.32"/>
</g>
</g>
</svg>
        <g id="navigator" transform="translate(0 0)" fill="#404254">
                <rect fill="#f2f5e9" fill-opacity="0.5" stroke="#606060" stroke-width=".5" x="0" y="0" width="60" height="60"/>
                <use id="zoomplus" xlink:href="#zoomPlus" x="17" y="9" onmousedown="handleZoom(evt,'in')"/>
                <use id="zoomminus" xlink:href="#zoomMin" x="42" y="9" onmousedown="handleZoom(evt,'out')"/>
                <use id="reset" xlink:href="#resetDef" x="30" y="36" onmousedown="handleReset()"/>
                <g id="arrowUp" xlink:href="#dirArrow" transform="translate(30 24)" onmousedown="handlePan(0,-1)">
                  <use xlink:href="#rim" fill="#404040">
                        <set attributeName="fill" to="#808080" begin="arrowUp.mouseover" end="arrowUp.mouseout"/>
                  </use>
                  <path fill="none" stroke="white" stroke-width="1.5" d="M0,-3.0v7 M-2.5,-0.5L0,-3.0L2.5,-0.5"/>
                </g>
                <g id="arrowRight" xlink:href="#dirArrow" transform="rotate(90) translate(36 -43)" onmousedown="handlePan(1,0)">
                  <use xlink:href="#rim" fill="#404040">
                        <set attributeName="fill" to="#808080" begin="arrowRight.mouseover" end="arrowRight.mouseout"/>
                  </use>
                  <path fill="none" stroke="white" stroke-width="1.5" d="M0,-3.0v7 M-2.5,-0.5L0,-3.0L2.5,-0.5"/>
                </g>
                <g id="arrowDown" xlink:href="#dirArrow" transform="rotate(180) translate(-30 -48)" onmousedown="handlePan(0,1)">
                  <use xlink:href="#rim" fill="#404040">
                        <set attributeName="fill" to="#808080" begin="arrowDown.mouseover" end="arrowDown.mouseout"/>
                  </use>
                  <path fill="none" stroke="white" stroke-width="1.5" d="M0,-3.0v7 M-2.5,-0.5L0,-3.0L2.5,-0.5"/>
                </g>
                <g id="arrowLeft" xlink:href="#dirArrow" transform="rotate(270) translate(-36 17)" onmousedown="handlePan(-1,0)">
                  <use xlink:href="#rim" fill="#404040">
                        <set attributeName="fill" to="#808080" begin="arrowLeft.mouseover" end="arrowLeft.mouseout"/>
                  </use>
                  <path fill="none" stroke="white" stroke-width="1.5" d="M0,-3.0v7 M-2.5,-0.5L0,-3.0L2.5,-0.5"/>
                </g>
        </g>
        <svg viewBox="0 0 15 15" width="100%" height="30px" preserveAspectRatio="xMaxYMin meet">
         <g id="arrow_out" transform="scale(0.3 0.3)">
          <a xlink:href="classpocketmine_1_1thread_1_1_thread__inherit__graph_org.svg" target="_base">
           <rect id="button" ry="5" rx="5" y="6" x="6" height="38" width="38"
                fill="#f2f5e9" fill-opacity="0.5" stroke="#606060" stroke-width="1.0"/>
           <path id="arrow"
             d="M 11.500037,31.436501 C 11.940474,20.09759 22.043105,11.32322 32.158766,21.979434 L 37.068811,17.246167 C 37.068811,17.246167 37.088388,32 37.088388,32 L 22.160133,31.978069 C 22.160133,31.978069 26.997745,27.140456 26.997745,27.140456 C 18.528582,18.264221 13.291696,25.230495 11.500037,31.436501 z"
             style="fill:#404040;"/>
          </a>
         </g>
        </svg>
</svg>
