<?xml version="1.0" encoding="UTF-8" standalone="no"?>
<!DOCTYPE svg PUBLIC "-//W3C//DTD SVG 1.1//EN"
 "http://www.w3.org/Graphics/SVG/1.1/DTD/svg11.dtd">
<!-- Generated by graphviz version 2.43.0 (0)
 -->
<!-- Title: pocketmine\crafting\json\PotionContainerChangeRecipeData Pages: 1 -->
<svg width="221pt" height="353pt"
 viewBox="0.00 0.00 221.00 353.00" xmlns="http://www.w3.org/2000/svg" xmlns:xlink="http://www.w3.org/1999/xlink">
<g id="graph0" class="graph" transform="scale(1 1) rotate(0) translate(4 349)">
<title>pocketmine\crafting\json\PotionContainerChangeRecipeData</title>
<polygon fill="white" stroke="transparent" points="-4,4 -4,-349 217,-349 217,4 -4,4"/>
<!-- Node1 -->
<g id="node1" class="node">
<title>Node1</title>
<g id="a_node1"><a xlink:title=" ">
<polygon fill="#bfbfbf" stroke="black" points="0,-0.5 0,-90.5 158,-90.5 158,-0.5 0,-0.5"/>
<text text-anchor="start" x="8" y="-78.5" font-family="Helvetica,sans-Serif" font-size="10.00">pocketmine\crafting</text>
<text text-anchor="start" x="8" y="-67.5" font-family="Helvetica,sans-Serif" font-size="10.00">\json\PotionContainerChange</text>
<text text-anchor="middle" x="79" y="-56.5" font-family="Helvetica,sans-Serif" font-size="10.00">RecipeData</text>
<polyline fill="none" stroke="black" points="0,-49.5 158,-49.5 "/>
<text text-anchor="start" x="8" y="-37.5" font-family="Helvetica,sans-Serif" font-size="10.00">+ $input_item_name</text>
<text text-anchor="start" x="8" y="-26.5" font-family="Helvetica,sans-Serif" font-size="10.00">+ $output_item_name</text>
<polyline fill="none" stroke="black" points="0,-19.5 158,-19.5 "/>
<text text-anchor="start" x="8" y="-7.5" font-family="Helvetica,sans-Serif" font-size="10.00">+ __construct()</text>
</a>
</g>
</g>
<!-- Node2 -->
<g id="node2" class="node">
<title>Node2</title>
<g id="a_node2"><a xlink:href="../../d2/de3/classpocketmine_1_1crafting_1_1json_1_1_recipe_ingredient_data.html" target="_top" xlink:title=" ">
<polygon fill="white" stroke="#bfbfbf" points="4.5,-138.5 4.5,-239.5 153.5,-239.5 153.5,-138.5 4.5,-138.5"/>
<text text-anchor="start" x="12.5" y="-227.5" font-family="Helvetica,sans-Serif" font-size="10.00">pocketmine\crafting</text>
<text text-anchor="middle" x="79" y="-216.5" font-family="Helvetica,sans-Serif" font-size="10.00">\json\RecipeIngredientData</text>
<polyline fill="none" stroke="#bfbfbf" points="4.5,-209.5 153.5,-209.5 "/>
<text text-anchor="start" x="12.5" y="-197.5" font-family="Helvetica,sans-Serif" font-size="10.00">+ $block_states</text>
<text text-anchor="start" x="12.5" y="-186.5" font-family="Helvetica,sans-Serif" font-size="10.00">+ $count</text>
<text text-anchor="start" x="12.5" y="-175.5" font-family="Helvetica,sans-Serif" font-size="10.00">+ $meta</text>
<text text-anchor="start" x="12.5" y="-164.5" font-family="Helvetica,sans-Serif" font-size="10.00">+ $name</text>
<polyline fill="none" stroke="#bfbfbf" points="4.5,-157.5 153.5,-157.5 "/>
<text text-anchor="start" x="12.5" y="-145.5" font-family="Helvetica,sans-Serif" font-size="10.00">+ __construct()</text>
</a>
</g>
</g>
<!-- Node2&#45;&gt;Node1 -->
<g id="edge1" class="edge">
<title>Node2&#45;&gt;Node1</title>
<path fill="none" stroke="#404040" d="M79,-138.11C79,-126.78 79,-114.66 79,-103.06"/>
<polygon fill="none" stroke="#404040" points="79,-102.76 75,-96.76 79,-90.76 83,-96.76 79,-102.76"/>
<text text-anchor="middle" x="112.5" y="-112" font-family="Helvetica,sans-Serif" font-size="10.00"> +$ingredient</text>
</g>
<!-- Node3 -->
<g id="node3" class="node">
<title>Node3</title>
<g id="a_node3"><a xlink:title=" ">
<polygon fill="white" stroke="#bfbfbf" points="57.5,-287.5 57.5,-344.5 100.5,-344.5 100.5,-287.5 57.5,-287.5"/>
<text text-anchor="middle" x="79" y="-332.5" font-family="Helvetica,sans-Serif" font-size="10.00">const</text>
<polyline fill="none" stroke="#bfbfbf" points="57.5,-325.5 100.5,-325.5 "/>
<text text-anchor="middle" x="79" y="-313.5" font-family="Helvetica,sans-Serif" font-size="10.00"> </text>
<polyline fill="none" stroke="#bfbfbf" points="57.5,-306.5 100.5,-306.5 "/>
<text text-anchor="middle" x="79" y="-294.5" font-family="Helvetica,sans-Serif" font-size="10.00"> </text>
</a>
</g>
</g>
<!-- Node3&#45;&gt;Node2 -->
<g id="edge2" class="edge">
<title>Node3&#45;&gt;Node2</title>
<path fill="none" stroke="#404040" d="M79,-287.26C79,-276.79 79,-264.42 79,-252.07"/>
<polygon fill="none" stroke="#404040" points="79,-251.8 75,-245.8 79,-239.8 83,-245.8 79,-251.8"/>
<text text-anchor="middle" x="146" y="-261" font-family="Helvetica,sans-Serif" font-size="10.00"> +WILDCARD_META_VALUE</text>
</g>
</g>
</svg>
