<?xml version="1.0" encoding="UTF-8" standalone="no"?>
<!DOCTYPE svg PUBLIC "-//W3C//DTD SVG 1.1//EN"
 "http://www.w3.org/Graphics/SVG/1.1/DTD/svg11.dtd">
<!-- Generated by graphviz version 2.43.0 (0)
 -->
<!-- Title: pocketmine\data\bedrock\block\BlockTypeNames Pages: 1 -->
<svg width="229pt" height="402pt"
 viewBox="0.00 0.00 228.50 402.00" xmlns="http://www.w3.org/2000/svg" xmlns:xlink="http://www.w3.org/1999/xlink">
<g id="graph0" class="graph" transform="scale(1 1) rotate(0) translate(4 398)">
<title>pocketmine\data\bedrock\block\BlockTypeNames</title>
<polygon fill="white" stroke="transparent" points="-4,4 -4,-398 224.5,-398 224.5,4 -4,4"/>
<!-- Node1 -->
<g id="node1" class="node">
<title>Node1</title>
<g id="a_node1"><a xlink:title=" ">
<polygon fill="#bfbfbf" stroke="black" points="0,-0.5 0,-178.5 167,-178.5 167,-0.5 0,-0.5"/>
<text text-anchor="start" x="8" y="-166.5" font-family="Helvetica,sans-Serif" font-size="10.00">pocketmine\data\bedrock</text>
<text text-anchor="middle" x="83.5" y="-155.5" font-family="Helvetica,sans-Serif" font-size="10.00">\block\BlockTypeNames</text>
<polyline fill="none" stroke="black" points="0,-148.5 167,-148.5 "/>
<text text-anchor="start" x="8" y="-136.5" font-family="Helvetica,sans-Serif" font-size="10.00">+ AIR</text>
<text text-anchor="start" x="8" y="-125.5" font-family="Helvetica,sans-Serif" font-size="10.00">+ ALLOW</text>
<text text-anchor="start" x="8" y="-114.5" font-family="Helvetica,sans-Serif" font-size="10.00">+ AMETHYST_BLOCK</text>
<text text-anchor="start" x="8" y="-103.5" font-family="Helvetica,sans-Serif" font-size="10.00">+ AMETHYST_CLUSTER</text>
<text text-anchor="start" x="8" y="-92.5" font-family="Helvetica,sans-Serif" font-size="10.00">+ ANCIENT_DEBRIS</text>
<text text-anchor="start" x="8" y="-81.5" font-family="Helvetica,sans-Serif" font-size="10.00">+ ANDESITE_STAIRS</text>
<text text-anchor="start" x="8" y="-70.5" font-family="Helvetica,sans-Serif" font-size="10.00">+ ANVIL</text>
<text text-anchor="start" x="8" y="-59.5" font-family="Helvetica,sans-Serif" font-size="10.00">+ AZALEA</text>
<text text-anchor="start" x="8" y="-48.5" font-family="Helvetica,sans-Serif" font-size="10.00">+ AZALEA_LEAVES</text>
<text text-anchor="start" x="8" y="-37.5" font-family="Helvetica,sans-Serif" font-size="10.00">+ AZALEA_LEAVES_FLOWERED</text>
<text text-anchor="start" x="8" y="-26.5" font-family="Helvetica,sans-Serif" font-size="10.00">and 762 more...</text>
<polyline fill="none" stroke="black" points="0,-19.5 167,-19.5 "/>
<text text-anchor="middle" x="83.5" y="-7.5" font-family="Helvetica,sans-Serif" font-size="10.00"> </text>
</a>
</g>
</g>
<!-- Node2 -->
<g id="node2" class="node">
<title>Node2</title>
<g id="a_node2"><a xlink:title=" ">
<polygon fill="white" stroke="#bfbfbf" points="62,-336.5 62,-393.5 105,-393.5 105,-336.5 62,-336.5"/>
<text text-anchor="middle" x="83.5" y="-381.5" font-family="Helvetica,sans-Serif" font-size="10.00">const</text>
<polyline fill="none" stroke="#bfbfbf" points="62,-374.5 105,-374.5 "/>
<text text-anchor="middle" x="83.5" y="-362.5" font-family="Helvetica,sans-Serif" font-size="10.00"> </text>
<polyline fill="none" stroke="#bfbfbf" points="62,-355.5 105,-355.5 "/>
<text text-anchor="middle" x="83.5" y="-343.5" font-family="Helvetica,sans-Serif" font-size="10.00"> </text>
</a>
</g>
</g>
<!-- Node2&#45;&gt;Node1 -->
<g id="edge1" class="edge">
<title>Node2&#45;&gt;Node1</title>
<path fill="none" stroke="#404040" d="M83.5,-336.27C83.5,-302.32 83.5,-242.95 83.5,-191.06"/>
<polygon fill="none" stroke="#404040" points="83.5,-190.74 79.5,-184.74 83.5,-178.74 87.5,-184.74 83.5,-190.74"/>
<text text-anchor="middle" x="152" y="-310" font-family="Helvetica,sans-Serif" font-size="10.00"> +ACACIA_BUTTON</text>
<text text-anchor="middle" x="152" y="-299" font-family="Helvetica,sans-Serif" font-size="10.00">+ACACIA_DOOR</text>
<text text-anchor="middle" x="152" y="-288" font-family="Helvetica,sans-Serif" font-size="10.00">+ACACIA_FENCE_GATE</text>
<text text-anchor="middle" x="152" y="-277" font-family="Helvetica,sans-Serif" font-size="10.00">+ACACIA_HANGING_SIGN</text>
<text text-anchor="middle" x="152" y="-266" font-family="Helvetica,sans-Serif" font-size="10.00">+ACACIA_PRESSURE_PLATE</text>
<text text-anchor="middle" x="152" y="-255" font-family="Helvetica,sans-Serif" font-size="10.00">+ACACIA_STAIRS</text>
<text text-anchor="middle" x="152" y="-244" font-family="Helvetica,sans-Serif" font-size="10.00">+ACACIA_STANDING_SIGN</text>
<text text-anchor="middle" x="152" y="-233" font-family="Helvetica,sans-Serif" font-size="10.00">+ACACIA_TRAPDOOR</text>
<text text-anchor="middle" x="152" y="-222" font-family="Helvetica,sans-Serif" font-size="10.00">+ACACIA_WALL_SIGN</text>
<text text-anchor="middle" x="152" y="-211" font-family="Helvetica,sans-Serif" font-size="10.00">+ACTIVATOR_RAIL</text>
<text text-anchor="middle" x="152" y="-200" font-family="Helvetica,sans-Serif" font-size="10.00">...</text>
</g>
</g>
</svg>
