<?xml version="1.0" encoding="UTF-8" standalone="no"?>
<!DOCTYPE svg PUBLIC "-//W3C//DTD SVG 1.1//EN"
 "http://www.w3.org/Graphics/SVG/1.1/DTD/svg11.dtd">
<!-- Generated by graphviz version 2.43.0 (0)
 -->
<!-- Title: pocketmine\entity\projectile\IceBomb Pages: 1 -->
<svg width="174pt" height="1410pt"
 viewBox="0.00 0.00 174.00 1410.00" xmlns="http://www.w3.org/2000/svg" xmlns:xlink="http://www.w3.org/1999/xlink">
<g id="graph0" class="graph" transform="scale(1 1) rotate(0) translate(4 1406)">
<title>pocketmine\entity\projectile\IceBomb</title>
<!-- Node1 -->
<g id="Node000001" class="node">
<title>Node1</title>
<g id="a_Node000001"><a xlink:title=" ">
<polygon fill="#999999" stroke="transparent" points="166,-120 0,-120 0,0 166,0 166,-120"/>
<text text-anchor="start" x="14" y="-108" font-family="Helvetica,sans-Serif" font-size="10.00">pocketmine\entity\projectile</text>
<text text-anchor="start" x="60" y="-97" font-family="Helvetica,sans-Serif" font-size="10.00">\IceBomb</text>
<text text-anchor="start" x="81" y="-82" font-family="Helvetica,sans-Serif" font-size="10.00"> </text>
<text text-anchor="start" x="4" y="-67" font-family="Helvetica,sans-Serif" font-size="10.00">+</text>
<text text-anchor="start" x="17" y="-67" font-family="Helvetica,sans-Serif" font-size="10.00">getNetworkTypeId()</text>
<text text-anchor="start" x="4" y="-52" font-family="Helvetica,sans-Serif" font-size="10.00">+</text>
<text text-anchor="start" x="17" y="-52" font-family="Helvetica,sans-Serif" font-size="10.00">getResultDamage()</text>
<text text-anchor="start" x="4" y="-37" font-family="Helvetica,sans-Serif" font-size="10.00">#</text>
<text text-anchor="start" x="17" y="-37" font-family="Helvetica,sans-Serif" font-size="10.00">calculateInterceptWithBlock()</text>
<text text-anchor="start" x="4" y="-22" font-family="Helvetica,sans-Serif" font-size="10.00">#</text>
<text text-anchor="start" x="17" y="-22" font-family="Helvetica,sans-Serif" font-size="10.00">onHit()</text>
<text text-anchor="start" x="4" y="-7" font-family="Helvetica,sans-Serif" font-size="10.00">#</text>
<text text-anchor="start" x="17" y="-7" font-family="Helvetica,sans-Serif" font-size="10.00">onHitBlock()</text>
<polygon fill="#666666" stroke="#666666" points="0,-92 0,-92 166,-92 166,-92 0,-92"/>
<polygon fill="#666666" stroke="#666666" points="0,-77 0,-77 166,-77 166,-77 0,-77"/>
<polygon fill="none" stroke="#666666" points="0,0 0,-120 166,-120 166,0 0,0"/>
</a>
</g>
</g>
<!-- Node2 -->
<g id="Node000002" class="node">
<title>Node2</title>
<g id="a_Node000002"><a xlink:href="../../d0/d86/classpocketmine_1_1entity_1_1projectile_1_1_throwable.html" target="_top" xlink:title=" ">
<polygon fill="white" stroke="transparent" points="157,-261 9,-261 9,-156 157,-156 157,-261"/>
<text text-anchor="start" x="14" y="-248.5" font-family="Helvetica,sans-Serif" font-size="10.00">pocketmine\entity\projectile</text>
<text text-anchor="start" x="55.5" y="-237.5" font-family="Helvetica,sans-Serif" font-size="10.00">\Throwable</text>
<text text-anchor="start" x="81" y="-222.5" font-family="Helvetica,sans-Serif" font-size="10.00"> </text>
<text text-anchor="start" x="14.5" y="-207.5" font-family="Helvetica,sans-Serif" font-size="10.00">#</text>
<text text-anchor="start" x="29" y="-207.5" font-family="Helvetica,sans-Serif" font-size="10.00">getInitialDragMultiplier()</text>
<text text-anchor="start" x="14.5" y="-192.5" font-family="Helvetica,sans-Serif" font-size="10.00">#</text>
<text text-anchor="start" x="29" y="-192.5" font-family="Helvetica,sans-Serif" font-size="10.00">getInitialGravity()</text>
<text text-anchor="start" x="14.5" y="-177.5" font-family="Helvetica,sans-Serif" font-size="10.00">#</text>
<text text-anchor="start" x="29" y="-177.5" font-family="Helvetica,sans-Serif" font-size="10.00">getInitialSizeInfo()</text>
<text text-anchor="start" x="14.5" y="-162.5" font-family="Helvetica,sans-Serif" font-size="10.00">#</text>
<text text-anchor="start" x="29" y="-162.5" font-family="Helvetica,sans-Serif" font-size="10.00">onHitBlock()</text>
<polygon fill="#bfbfbf" stroke="#bfbfbf" points="9,-232.5 9,-232.5 157,-232.5 157,-232.5 9,-232.5"/>
<polygon fill="#bfbfbf" stroke="#bfbfbf" points="9,-217.5 9,-217.5 157,-217.5 157,-217.5 9,-217.5"/>
<polygon fill="none" stroke="#bfbfbf" points="9,-156 9,-261 157,-261 157,-156 9,-156"/>
</a>
</g>
</g>
<!-- Node2&#45;&gt;Node1 -->
<g id="edge1_Node000001_Node000002" class="edge">
<title>Node2&#45;&gt;Node1</title>
<g id="a_edge1_Node000001_Node000002"><a xlink:title=" ">
<path fill="none" stroke="#63b8ff" d="M83,-145.68C83,-137.24 83,-128.58 83,-120.19"/>
<polygon fill="none" stroke="#63b8ff" points="79.5,-145.85 83,-155.85 86.5,-145.85 79.5,-145.85"/>
</a>
</g>
</g>
<!-- Node3 -->
<g id="Node000003" class="node">
<title>Node3</title>
<g id="a_Node000003"><a xlink:href="../../dc/d01/classpocketmine_1_1entity_1_1projectile_1_1_projectile.html" target="_top" xlink:title=" ">
<polygon fill="white" stroke="transparent" points="166,-612 0,-612 0,-297 166,-297 166,-612"/>
<text text-anchor="start" x="14" y="-599.5" font-family="Helvetica,sans-Serif" font-size="10.00">pocketmine\entity\projectile</text>
<text text-anchor="start" x="58.5" y="-588.5" font-family="Helvetica,sans-Serif" font-size="10.00">\Projectile</text>
<text text-anchor="start" x="4" y="-573.5" font-family="Helvetica,sans-Serif" font-size="10.00">#</text>
<text text-anchor="start" x="17" y="-573.5" font-family="Helvetica,sans-Serif" font-size="10.00">$blockHit</text>
<text text-anchor="start" x="4" y="-558.5" font-family="Helvetica,sans-Serif" font-size="10.00">#</text>
<text text-anchor="start" x="17" y="-558.5" font-family="Helvetica,sans-Serif" font-size="10.00">$damage</text>
<text text-anchor="start" x="4" y="-543.5" font-family="Helvetica,sans-Serif" font-size="10.00">+</text>
<text text-anchor="start" x="17" y="-543.5" font-family="Helvetica,sans-Serif" font-size="10.00">__construct()</text>
<text text-anchor="start" x="4" y="-528.5" font-family="Helvetica,sans-Serif" font-size="10.00">+</text>
<text text-anchor="start" x="17" y="-528.5" font-family="Helvetica,sans-Serif" font-size="10.00">attack()</text>
<text text-anchor="start" x="4" y="-513.5" font-family="Helvetica,sans-Serif" font-size="10.00">+</text>
<text text-anchor="start" x="17" y="-513.5" font-family="Helvetica,sans-Serif" font-size="10.00">canBeCollidedWith()</text>
<text text-anchor="start" x="4" y="-498.5" font-family="Helvetica,sans-Serif" font-size="10.00">+</text>
<text text-anchor="start" x="17" y="-498.5" font-family="Helvetica,sans-Serif" font-size="10.00">canCollideWith()</text>
<text text-anchor="start" x="4" y="-483.5" font-family="Helvetica,sans-Serif" font-size="10.00">+</text>
<text text-anchor="start" x="17" y="-483.5" font-family="Helvetica,sans-Serif" font-size="10.00">getBaseDamage()</text>
<text text-anchor="start" x="4" y="-468.5" font-family="Helvetica,sans-Serif" font-size="10.00">+</text>
<text text-anchor="start" x="17" y="-468.5" font-family="Helvetica,sans-Serif" font-size="10.00">getResultDamage()</text>
<text text-anchor="start" x="4" y="-453.5" font-family="Helvetica,sans-Serif" font-size="10.00">+</text>
<text text-anchor="start" x="17" y="-453.5" font-family="Helvetica,sans-Serif" font-size="10.00">hasMovementUpdate()</text>
<text text-anchor="start" x="4" y="-438.5" font-family="Helvetica,sans-Serif" font-size="10.00">+</text>
<text text-anchor="start" x="17" y="-438.5" font-family="Helvetica,sans-Serif" font-size="10.00">onNearbyBlockChange()</text>
<text text-anchor="start" x="4" y="-423.5" font-family="Helvetica,sans-Serif" font-size="10.00">+</text>
<text text-anchor="start" x="17" y="-423.5" font-family="Helvetica,sans-Serif" font-size="10.00">saveNBT()</text>
<text text-anchor="start" x="4" y="-408.5" font-family="Helvetica,sans-Serif" font-size="10.00">+</text>
<text text-anchor="start" x="17" y="-408.5" font-family="Helvetica,sans-Serif" font-size="10.00">setBaseDamage()</text>
<text text-anchor="start" x="4" y="-393.5" font-family="Helvetica,sans-Serif" font-size="10.00">#</text>
<text text-anchor="start" x="17" y="-393.5" font-family="Helvetica,sans-Serif" font-size="10.00">applyDragBeforeGravity()</text>
<text text-anchor="start" x="4" y="-378.5" font-family="Helvetica,sans-Serif" font-size="10.00">#</text>
<text text-anchor="start" x="17" y="-378.5" font-family="Helvetica,sans-Serif" font-size="10.00">calculateInterceptWithBlock()</text>
<text text-anchor="start" x="4" y="-363.5" font-family="Helvetica,sans-Serif" font-size="10.00">#</text>
<text text-anchor="start" x="17" y="-363.5" font-family="Helvetica,sans-Serif" font-size="10.00">initEntity()</text>
<text text-anchor="start" x="4" y="-348.5" font-family="Helvetica,sans-Serif" font-size="10.00">#</text>
<text text-anchor="start" x="17" y="-348.5" font-family="Helvetica,sans-Serif" font-size="10.00">move()</text>
<text text-anchor="start" x="4" y="-333.5" font-family="Helvetica,sans-Serif" font-size="10.00">#</text>
<text text-anchor="start" x="17" y="-333.5" font-family="Helvetica,sans-Serif" font-size="10.00">onHit()</text>
<text text-anchor="start" x="4" y="-318.5" font-family="Helvetica,sans-Serif" font-size="10.00">#</text>
<text text-anchor="start" x="17" y="-318.5" font-family="Helvetica,sans-Serif" font-size="10.00">onHitBlock()</text>
<text text-anchor="start" x="4" y="-303.5" font-family="Helvetica,sans-Serif" font-size="10.00">#</text>
<text text-anchor="start" x="17" y="-303.5" font-family="Helvetica,sans-Serif" font-size="10.00">onHitEntity()</text>
<polygon fill="#bfbfbf" stroke="#bfbfbf" points="0,-583.5 0,-583.5 166,-583.5 166,-583.5 0,-583.5"/>
<polygon fill="#bfbfbf" stroke="#bfbfbf" points="0,-553.5 0,-553.5 15,-553.5 15,-553.5 0,-553.5"/>
<polygon fill="#bfbfbf" stroke="#bfbfbf" points="15,-553.5 15,-553.5 166,-553.5 166,-553.5 15,-553.5"/>
<polygon fill="none" stroke="#bfbfbf" points="0,-297 0,-612 166,-612 166,-297 0,-297"/>
</a>
</g>
</g>
<!-- Node3&#45;&gt;Node2 -->
<g id="edge2_Node000002_Node000003" class="edge">
<title>Node3&#45;&gt;Node2</title>
<g id="a_edge2_Node000002_Node000003"><a xlink:title=" ">
<path fill="none" stroke="#63b8ff" d="M83,-286.68C83,-277.76 83,-269.2 83,-261.26"/>
<polygon fill="none" stroke="#63b8ff" points="79.5,-286.9 83,-296.9 86.5,-286.9 79.5,-286.9"/>
</a>
</g>
</g>
<!-- Node4 -->
<g id="Node000004" class="node">
<title>Node4</title>
<g id="a_Node000004"><a xlink:href="../../d2/d3c/classpocketmine_1_1entity_1_1_entity.html" target="_top" xlink:title=" ">
<polygon fill="white" stroke="transparent" points="157,-1402 9,-1402 9,-648 157,-648 157,-1402"/>
<text text-anchor="start" x="22.5" y="-1390" font-family="Helvetica,sans-Serif" font-size="10.00">pocketmine\entity\Entity</text>
<text text-anchor="start" x="13" y="-1375" font-family="Helvetica,sans-Serif" font-size="10.00">+</text>
<text text-anchor="start" x="26" y="-1375" font-family="Helvetica,sans-Serif" font-size="10.00">$boundingBox</text>
<text text-anchor="start" x="13" y="-1360" font-family="Helvetica,sans-Serif" font-size="10.00">+</text>
<text text-anchor="start" x="26" y="-1360" font-family="Helvetica,sans-Serif" font-size="10.00">$fallDistance</text>
<text text-anchor="start" x="13" y="-1345" font-family="Helvetica,sans-Serif" font-size="10.00">+</text>
<text text-anchor="start" x="26" y="-1345" font-family="Helvetica,sans-Serif" font-size="10.00">$isCollided</text>
<text text-anchor="start" x="13" y="-1330" font-family="Helvetica,sans-Serif" font-size="10.00">+</text>
<text text-anchor="start" x="26" y="-1330" font-family="Helvetica,sans-Serif" font-size="10.00">$isCollidedHorizontally</text>
<text text-anchor="start" x="13" y="-1315" font-family="Helvetica,sans-Serif" font-size="10.00">+</text>
<text text-anchor="start" x="26" y="-1315" font-family="Helvetica,sans-Serif" font-size="10.00">$isCollidedVertically</text>
<text text-anchor="start" x="13" y="-1300" font-family="Helvetica,sans-Serif" font-size="10.00">+</text>
<text text-anchor="start" x="26" y="-1300" font-family="Helvetica,sans-Serif" font-size="10.00">$keepMovement</text>
<text text-anchor="start" x="13" y="-1285" font-family="Helvetica,sans-Serif" font-size="10.00">+</text>
<text text-anchor="start" x="26" y="-1285" font-family="Helvetica,sans-Serif" font-size="10.00">$lastUpdate</text>
<text text-anchor="start" x="13" y="-1270" font-family="Helvetica,sans-Serif" font-size="10.00">+</text>
<text text-anchor="start" x="26" y="-1270" font-family="Helvetica,sans-Serif" font-size="10.00">$noDamageTicks</text>
<text text-anchor="start" x="13" y="-1255" font-family="Helvetica,sans-Serif" font-size="10.00">+</text>
<text text-anchor="start" x="26" y="-1255" font-family="Helvetica,sans-Serif" font-size="10.00">$onGround</text>
<text text-anchor="start" x="13" y="-1240" font-family="Helvetica,sans-Serif" font-size="10.00">+</text>
<text text-anchor="start" x="26" y="-1240" font-family="Helvetica,sans-Serif" font-size="10.00">$size</text>
<text text-anchor="start" x="13" y="-1225" font-family="Helvetica,sans-Serif" font-size="10.00">+</text>
<text text-anchor="start" x="26" y="-1225" font-family="Helvetica,sans-Serif" font-size="10.00">$ticksLived</text>
<text text-anchor="start" x="13" y="-1210" font-family="Helvetica,sans-Serif" font-size="10.00">+</text>
<text text-anchor="start" x="26" y="-1210" font-family="Helvetica,sans-Serif" font-size="10.00">MOTION_THRESHOLD</text>
<text text-anchor="start" x="13" y="-1195" font-family="Helvetica,sans-Serif" font-size="10.00">+</text>
<text text-anchor="start" x="26" y="-1195" font-family="Helvetica,sans-Serif" font-size="10.00">TAG_MOTION</text>
<text text-anchor="start" x="13" y="-1180" font-family="Helvetica,sans-Serif" font-size="10.00">+</text>
<text text-anchor="start" x="26" y="-1180" font-family="Helvetica,sans-Serif" font-size="10.00">TAG_POS</text>
<text text-anchor="start" x="13" y="-1165" font-family="Helvetica,sans-Serif" font-size="10.00">+</text>
<text text-anchor="start" x="26" y="-1165" font-family="Helvetica,sans-Serif" font-size="10.00">TAG_ROTATION</text>
<text text-anchor="start" x="13" y="-1150" font-family="Helvetica,sans-Serif" font-size="10.00">#</text>
<text text-anchor="start" x="26" y="-1150" font-family="Helvetica,sans-Serif" font-size="10.00">$alwaysShowNameTag</text>
<text text-anchor="start" x="13" y="-1135" font-family="Helvetica,sans-Serif" font-size="10.00">#</text>
<text text-anchor="start" x="26" y="-1135" font-family="Helvetica,sans-Serif" font-size="10.00">$attributeMap</text>
<text text-anchor="start" x="13" y="-1120" font-family="Helvetica,sans-Serif" font-size="10.00">#</text>
<text text-anchor="start" x="26" y="-1120" font-family="Helvetica,sans-Serif" font-size="10.00">$blocksAround</text>
<text text-anchor="start" x="13" y="-1105" font-family="Helvetica,sans-Serif" font-size="10.00">#</text>
<text text-anchor="start" x="26" y="-1105" font-family="Helvetica,sans-Serif" font-size="10.00">$canClimb</text>
<text text-anchor="start" x="13" y="-1090" font-family="Helvetica,sans-Serif" font-size="10.00">#</text>
<text text-anchor="start" x="26" y="-1090" font-family="Helvetica,sans-Serif" font-size="10.00">$canClimbWalls</text>
<text text-anchor="start" x="13" y="-1075" font-family="Helvetica,sans-Serif" font-size="10.00">#</text>
<text text-anchor="start" x="26" y="-1075" font-family="Helvetica,sans-Serif" font-size="10.00">$closed</text>
<text text-anchor="start" x="13" y="-1060" font-family="Helvetica,sans-Serif" font-size="10.00">#</text>
<text text-anchor="start" x="26" y="-1060" font-family="Helvetica,sans-Serif" font-size="10.00">$drag</text>
<text text-anchor="start" x="13" y="-1045" font-family="Helvetica,sans-Serif" font-size="10.00">#</text>
<text text-anchor="start" x="26" y="-1045" font-family="Helvetica,sans-Serif" font-size="10.00">$fireTicks</text>
<text text-anchor="start" x="13" y="-1030" font-family="Helvetica,sans-Serif" font-size="10.00">#</text>
<text text-anchor="start" x="26" y="-1030" font-family="Helvetica,sans-Serif" font-size="10.00">$forceMovementUpdate</text>
<text text-anchor="start" x="13" y="-1015" font-family="Helvetica,sans-Serif" font-size="10.00">#</text>
<text text-anchor="start" x="26" y="-1015" font-family="Helvetica,sans-Serif" font-size="10.00">$gravity</text>
<text text-anchor="start" x="26" y="-1000" font-family="Helvetica,sans-Serif" font-size="10.00">and 24 more...</text>
<text text-anchor="start" x="13" y="-985" font-family="Helvetica,sans-Serif" font-size="10.00">+</text>
<text text-anchor="start" x="26" y="-985" font-family="Helvetica,sans-Serif" font-size="10.00">__construct()</text>
<text text-anchor="start" x="13" y="-970" font-family="Helvetica,sans-Serif" font-size="10.00">+</text>
<text text-anchor="start" x="26" y="-970" font-family="Helvetica,sans-Serif" font-size="10.00">__destruct()</text>
<text text-anchor="start" x="13" y="-955" font-family="Helvetica,sans-Serif" font-size="10.00">+</text>
<text text-anchor="start" x="26" y="-955" font-family="Helvetica,sans-Serif" font-size="10.00">__toString()</text>
<text text-anchor="start" x="13" y="-940" font-family="Helvetica,sans-Serif" font-size="10.00">+</text>
<text text-anchor="start" x="26" y="-940" font-family="Helvetica,sans-Serif" font-size="10.00">addMotion()</text>
<text text-anchor="start" x="13" y="-925" font-family="Helvetica,sans-Serif" font-size="10.00">+</text>
<text text-anchor="start" x="26" y="-925" font-family="Helvetica,sans-Serif" font-size="10.00">attack()</text>
<text text-anchor="start" x="13" y="-910" font-family="Helvetica,sans-Serif" font-size="10.00">+</text>
<text text-anchor="start" x="26" y="-910" font-family="Helvetica,sans-Serif" font-size="10.00">broadcastAnimation()</text>
<text text-anchor="start" x="13" y="-895" font-family="Helvetica,sans-Serif" font-size="10.00">+</text>
<text text-anchor="start" x="26" y="-895" font-family="Helvetica,sans-Serif" font-size="10.00">broadcastSound()</text>
<text text-anchor="start" x="13" y="-880" font-family="Helvetica,sans-Serif" font-size="10.00">+</text>
<text text-anchor="start" x="26" y="-880" font-family="Helvetica,sans-Serif" font-size="10.00">canBeCollidedWith()</text>
<text text-anchor="start" x="13" y="-865" font-family="Helvetica,sans-Serif" font-size="10.00">+</text>
<text text-anchor="start" x="26" y="-865" font-family="Helvetica,sans-Serif" font-size="10.00">canBeMovedByCurrents()</text>
<text text-anchor="start" x="13" y="-850" font-family="Helvetica,sans-Serif" font-size="10.00">+</text>
<text text-anchor="start" x="26" y="-850" font-family="Helvetica,sans-Serif" font-size="10.00">canBeRenamed()</text>
<text text-anchor="start" x="26" y="-835" font-family="Helvetica,sans-Serif" font-size="10.00">and 96 more...</text>
<text text-anchor="start" x="13" y="-820" font-family="Helvetica,sans-Serif" font-size="10.00">+</text>
<text text-anchor="start" x="26" y="-820" font-family="Helvetica,sans-Serif" font-size="10.00">nextRuntimeId()</text>
<text text-anchor="start" x="13" y="-805" font-family="Helvetica,sans-Serif" font-size="10.00">#</text>
<text text-anchor="start" x="26" y="-805" font-family="Helvetica,sans-Serif" font-size="10.00">addAttributes()</text>
<text text-anchor="start" x="13" y="-790" font-family="Helvetica,sans-Serif" font-size="10.00">#</text>
<text text-anchor="start" x="26" y="-790" font-family="Helvetica,sans-Serif" font-size="10.00">applyDragBeforeGravity()</text>
<text text-anchor="start" x="13" y="-775" font-family="Helvetica,sans-Serif" font-size="10.00">#</text>
<text text-anchor="start" x="26" y="-775" font-family="Helvetica,sans-Serif" font-size="10.00">broadcastMotion()</text>
<text text-anchor="start" x="13" y="-760" font-family="Helvetica,sans-Serif" font-size="10.00">#</text>
<text text-anchor="start" x="26" y="-760" font-family="Helvetica,sans-Serif" font-size="10.00">broadcastMovement()</text>
<text text-anchor="start" x="13" y="-745" font-family="Helvetica,sans-Serif" font-size="10.00">#</text>
<text text-anchor="start" x="26" y="-745" font-family="Helvetica,sans-Serif" font-size="10.00">checkBlockIntersections()</text>
<text text-anchor="start" x="13" y="-730" font-family="Helvetica,sans-Serif" font-size="10.00">#</text>
<text text-anchor="start" x="26" y="-730" font-family="Helvetica,sans-Serif" font-size="10.00">checkGroundState()</text>
<text text-anchor="start" x="13" y="-715" font-family="Helvetica,sans-Serif" font-size="10.00">#</text>
<text text-anchor="start" x="26" y="-715" font-family="Helvetica,sans-Serif" font-size="10.00">checkObstruction()</text>
<text text-anchor="start" x="13" y="-700" font-family="Helvetica,sans-Serif" font-size="10.00">#</text>
<text text-anchor="start" x="26" y="-700" font-family="Helvetica,sans-Serif" font-size="10.00">dealFireDamage()</text>
<text text-anchor="start" x="13" y="-685" font-family="Helvetica,sans-Serif" font-size="10.00">#</text>
<text text-anchor="start" x="26" y="-685" font-family="Helvetica,sans-Serif" font-size="10.00">destroyCycles()</text>
<text text-anchor="start" x="13" y="-670" font-family="Helvetica,sans-Serif" font-size="10.00">#</text>
<text text-anchor="start" x="26" y="-670" font-family="Helvetica,sans-Serif" font-size="10.00">doOnFireTick()</text>
<text text-anchor="start" x="26" y="-655" font-family="Helvetica,sans-Serif" font-size="10.00">and 25 more...</text>
<polygon fill="#bfbfbf" stroke="#bfbfbf" points="9,-1385 9,-1385 157,-1385 157,-1385 9,-1385"/>
<polygon fill="#bfbfbf" stroke="#bfbfbf" points="9,-995 9,-995 24,-995 24,-995 9,-995"/>
<polygon fill="#bfbfbf" stroke="#bfbfbf" points="24,-995 24,-995 157,-995 157,-995 24,-995"/>
<polygon fill="none" stroke="#bfbfbf" points="9,-648 9,-1402 157,-1402 157,-648 9,-648"/>
</a>
</g>
</g>
<!-- Node4&#45;&gt;Node3 -->
<g id="edge3_Node000003_Node000004" class="edge">
<title>Node4&#45;&gt;Node3</title>
<g id="a_edge3_Node000003_Node000004"><a xlink:title=" ">
<path fill="none" stroke="#63b8ff" d="M83,-637.75C83,-629.1 83,-620.6 83,-612.28"/>
<polygon fill="none" stroke="#63b8ff" points="79.5,-637.97 83,-647.97 86.5,-637.97 79.5,-637.97"/>
</a>
</g>
</g>
</g>
</svg>
