<?xml version="1.0" encoding="UTF-8" standalone="no"?>
<!DOCTYPE svg PUBLIC "-//W3C//DTD SVG 1.1//EN"
 "http://www.w3.org/Graphics/SVG/1.1/DTD/svg11.dtd">
<!-- Generated by graphviz version 2.43.0 (0)
 -->
<!-- Title: pocketmine\block\Leaves Pages: 1 -->
<svg width="661pt" height="1874pt"
 viewBox="0.00 0.00 660.89 1874.00" xmlns="http://www.w3.org/2000/svg" xmlns:xlink="http://www.w3.org/1999/xlink">
<g id="graph0" class="graph" transform="scale(1 1) rotate(0) translate(4 1870)">
<title>pocketmine\block\Leaves</title>
<polygon fill="white" stroke="transparent" points="-4,4 -4,-1870 656.89,-1870 656.89,4 -4,4"/>
<!-- Node1 -->
<g id="node1" class="node">
<title>Node1</title>
<g id="a_node1"><a xlink:title=" ">
<polygon fill="#bfbfbf" stroke="black" points="310.89,-0.5 310.89,-200.5 480.89,-200.5 480.89,-0.5 310.89,-0.5"/>
<text text-anchor="middle" x="395.89" y="-188.5" font-family="Helvetica,sans-Serif" font-size="10.00">pocketmine\block\Leaves</text>
<polyline fill="none" stroke="black" points="310.89,-181.5 480.89,-181.5 "/>
<text text-anchor="start" x="318.89" y="-169.5" font-family="Helvetica,sans-Serif" font-size="10.00"># $checkDecay</text>
<text text-anchor="start" x="318.89" y="-158.5" font-family="Helvetica,sans-Serif" font-size="10.00"># $noDecay</text>
<polyline fill="none" stroke="black" points="310.89,-151.5 480.89,-151.5 "/>
<text text-anchor="start" x="318.89" y="-139.5" font-family="Helvetica,sans-Serif" font-size="10.00">+ __construct()</text>
<text text-anchor="start" x="318.89" y="-128.5" font-family="Helvetica,sans-Serif" font-size="10.00">+ blocksDirectSkyLight()</text>
<text text-anchor="start" x="318.89" y="-117.5" font-family="Helvetica,sans-Serif" font-size="10.00">+ getDropsForCompatibleTool()</text>
<text text-anchor="start" x="318.89" y="-106.5" font-family="Helvetica,sans-Serif" font-size="10.00">+ getFlameEncouragement()</text>
<text text-anchor="start" x="318.89" y="-95.5" font-family="Helvetica,sans-Serif" font-size="10.00">+ getFlammability()</text>
<text text-anchor="start" x="318.89" y="-84.5" font-family="Helvetica,sans-Serif" font-size="10.00">+ getLeavesType()</text>
<text text-anchor="start" x="318.89" y="-73.5" font-family="Helvetica,sans-Serif" font-size="10.00">+ getSupportType()</text>
<text text-anchor="start" x="318.89" y="-62.5" font-family="Helvetica,sans-Serif" font-size="10.00">+ isAffectedBySilkTouch()</text>
<text text-anchor="start" x="318.89" y="-51.5" font-family="Helvetica,sans-Serif" font-size="10.00">+ isCheckDecay()</text>
<text text-anchor="start" x="318.89" y="-40.5" font-family="Helvetica,sans-Serif" font-size="10.00">+ isNoDecay()</text>
<text text-anchor="start" x="318.89" y="-29.5" font-family="Helvetica,sans-Serif" font-size="10.00">and 6 more...</text>
<text text-anchor="start" x="318.89" y="-18.5" font-family="Helvetica,sans-Serif" font-size="10.00"># describeBlockOnlyState()</text>
<text text-anchor="start" x="318.89" y="-7.5" font-family="Helvetica,sans-Serif" font-size="10.00"># findLog()</text>
</a>
</g>
</g>
<!-- Node2 -->
<g id="node2" class="node">
<title>Node2</title>
<g id="a_node2"><a xlink:href="../../d5/d1b/classpocketmine_1_1block_1_1_transparent.html" target="_top" xlink:title=" ">
<polygon fill="white" stroke="black" points="246.39,-248.5 246.39,-305.5 409.39,-305.5 409.39,-248.5 246.39,-248.5"/>
<text text-anchor="middle" x="327.89" y="-293.5" font-family="Helvetica,sans-Serif" font-size="10.00">pocketmine\block\Transparent</text>
<polyline fill="none" stroke="black" points="246.39,-286.5 409.39,-286.5 "/>
<text text-anchor="middle" x="327.89" y="-274.5" font-family="Helvetica,sans-Serif" font-size="10.00"> </text>
<polyline fill="none" stroke="black" points="246.39,-267.5 409.39,-267.5 "/>
<text text-anchor="start" x="254.39" y="-255.5" font-family="Helvetica,sans-Serif" font-size="10.00">+ isTransparent()</text>
</a>
</g>
</g>
<!-- Node2&#45;&gt;Node1 -->
<g id="edge1" class="edge">
<title>Node2&#45;&gt;Node1</title>
<path fill="none" stroke="midnightblue" d="M342.38,-238.83C346.81,-227.45 351.92,-214.36 357.17,-200.87"/>
<polygon fill="none" stroke="midnightblue" points="339.04,-237.76 338.67,-248.35 345.56,-240.3 339.04,-237.76"/>
</g>
<!-- Node3 -->
<g id="node3" class="node">
<title>Node3</title>
<g id="a_node3"><a xlink:href="../../d7/d27/classpocketmine_1_1block_1_1_block.html" target="_top" xlink:title=" ">
<polygon fill="white" stroke="#bfbfbf" points="247.39,-343.5 247.39,-565.5 408.39,-565.5 408.39,-343.5 247.39,-343.5"/>
<text text-anchor="middle" x="327.89" y="-553.5" font-family="Helvetica,sans-Serif" font-size="10.00">pocketmine\block\Block</text>
<polyline fill="none" stroke="#bfbfbf" points="247.39,-546.5 408.39,-546.5 "/>
<text text-anchor="start" x="255.39" y="-534.5" font-family="Helvetica,sans-Serif" font-size="10.00"># $collisionBoxes</text>
<text text-anchor="start" x="255.39" y="-523.5" font-family="Helvetica,sans-Serif" font-size="10.00"># $fallbackName</text>
<polyline fill="none" stroke="#bfbfbf" points="247.39,-516.5 408.39,-516.5 "/>
<text text-anchor="start" x="255.39" y="-504.5" font-family="Helvetica,sans-Serif" font-size="10.00">+ __construct()</text>
<text text-anchor="start" x="255.39" y="-493.5" font-family="Helvetica,sans-Serif" font-size="10.00">+ __clone()</text>
<text text-anchor="start" x="255.39" y="-482.5" font-family="Helvetica,sans-Serif" font-size="10.00">+ __toString()</text>
<text text-anchor="start" x="255.39" y="-471.5" font-family="Helvetica,sans-Serif" font-size="10.00">+ addVelocityToEntity()</text>
<text text-anchor="start" x="255.39" y="-460.5" font-family="Helvetica,sans-Serif" font-size="10.00">+ asItem()</text>
<text text-anchor="start" x="255.39" y="-449.5" font-family="Helvetica,sans-Serif" font-size="10.00">+ blocksDirectSkyLight()</text>
<text text-anchor="start" x="255.39" y="-438.5" font-family="Helvetica,sans-Serif" font-size="10.00">+ burnsForever()</text>
<text text-anchor="start" x="255.39" y="-427.5" font-family="Helvetica,sans-Serif" font-size="10.00">+ calculateIntercept()</text>
<text text-anchor="start" x="255.39" y="-416.5" font-family="Helvetica,sans-Serif" font-size="10.00">+ canBeFlowedInto()</text>
<text text-anchor="start" x="255.39" y="-405.5" font-family="Helvetica,sans-Serif" font-size="10.00">+ canBePlaced()</text>
<text text-anchor="start" x="255.39" y="-394.5" font-family="Helvetica,sans-Serif" font-size="10.00">and 60 more...</text>
<text text-anchor="start" x="255.39" y="-383.5" font-family="Helvetica,sans-Serif" font-size="10.00"># describeBlockOnlyState()</text>
<text text-anchor="start" x="255.39" y="-372.5" font-family="Helvetica,sans-Serif" font-size="10.00"># getAdjacentSupportType()</text>
<text text-anchor="start" x="255.39" y="-361.5" font-family="Helvetica,sans-Serif" font-size="10.00"># getXpDropAmount()</text>
<text text-anchor="start" x="255.39" y="-350.5" font-family="Helvetica,sans-Serif" font-size="10.00"># recalculateCollisionBoxes()</text>
</a>
</g>
</g>
<!-- Node3&#45;&gt;Node2 -->
<g id="edge2" class="edge">
<title>Node3&#45;&gt;Node2</title>
<path fill="none" stroke="midnightblue" d="M327.89,-333.09C327.89,-323.03 327.89,-313.64 327.89,-305.56"/>
<polygon fill="none" stroke="midnightblue" points="324.39,-333.35 327.89,-343.35 331.39,-333.35 324.39,-333.35"/>
</g>
<!-- Node4 -->
<g id="node4" class="node">
<title>Node4</title>
<g id="a_node4"><a xlink:title=" ">
<polygon fill="white" stroke="#bfbfbf" points="5.39,-1373.5 5.39,-1430.5 48.39,-1430.5 48.39,-1373.5 5.39,-1373.5"/>
<text text-anchor="middle" x="26.89" y="-1418.5" font-family="Helvetica,sans-Serif" font-size="10.00">const</text>
<polyline fill="none" stroke="#bfbfbf" points="5.39,-1411.5 48.39,-1411.5 "/>
<text text-anchor="middle" x="26.89" y="-1399.5" font-family="Helvetica,sans-Serif" font-size="10.00"> </text>
<polyline fill="none" stroke="#bfbfbf" points="5.39,-1392.5 48.39,-1392.5 "/>
<text text-anchor="middle" x="26.89" y="-1380.5" font-family="Helvetica,sans-Serif" font-size="10.00"> </text>
</a>
</g>
</g>
<!-- Node4&#45;&gt;Node3 -->
<g id="edge3" class="edge">
<title>Node4&#45;&gt;Node3</title>
<path fill="none" stroke="#404040" d="M22.57,-1373.48C9.48,-1284.07 -25.37,-994.34 32.89,-766 51.81,-691.85 62.09,-671.1 111.89,-613 147.19,-571.82 195.28,-535.42 237.12,-508.01"/>
<polygon fill="none" stroke="#404040" points="237.25,-507.93 240.12,-501.31 247.33,-501.42 244.46,-508.03 237.25,-507.93"/>
<text text-anchor="middle" x="111.39" y="-802" font-family="Helvetica,sans-Serif" font-size="10.00"> +EMPTY_STATE_ID</text>
<text text-anchor="start" x="32.89" y="-791" font-family="Helvetica,sans-Serif" font-size="10.00">+INTERNAL_STATE_DATA</text>
<text text-anchor="middle" x="111.39" y="-780" font-family="Helvetica,sans-Serif" font-size="10.00">_BITS</text>
<text text-anchor="middle" x="111.39" y="-769" font-family="Helvetica,sans-Serif" font-size="10.00">+INTERNAL_STATE_DATA_MASK</text>
</g>
<!-- Node9 -->
<g id="node9" class="node">
<title>Node9</title>
<g id="a_node9"><a xlink:href="../../d4/d2b/classpocketmine_1_1world_1_1_world.html" target="_top" xlink:title=" ">
<polygon fill="white" stroke="black" points="107.89,-828.5 107.89,-1138.5 279.89,-1138.5 279.89,-828.5 107.89,-828.5"/>
<text text-anchor="middle" x="193.89" y="-1126.5" font-family="Helvetica,sans-Serif" font-size="10.00">pocketmine\world\World</text>
<polyline fill="none" stroke="black" points="107.89,-1119.5 279.89,-1119.5 "/>
<text text-anchor="start" x="115.89" y="-1107.5" font-family="Helvetica,sans-Serif" font-size="10.00">+ $stopTime</text>
<text text-anchor="start" x="115.89" y="-1096.5" font-family="Helvetica,sans-Serif" font-size="10.00">+ $tickRateTime</text>
<text text-anchor="start" x="115.89" y="-1085.5" font-family="Helvetica,sans-Serif" font-size="10.00">+ $updateEntities</text>
<text text-anchor="start" x="115.89" y="-1074.5" font-family="Helvetica,sans-Serif" font-size="10.00">+ TIME_SUNRISE</text>
<text text-anchor="start" x="115.89" y="-1063.5" font-family="Helvetica,sans-Serif" font-size="10.00">+ TIME_SUNSET</text>
<text text-anchor="start" x="115.89" y="-1052.5" font-family="Helvetica,sans-Serif" font-size="10.00">+ Y_MAX</text>
<text text-anchor="start" x="115.89" y="-1041.5" font-family="Helvetica,sans-Serif" font-size="10.00">+ Y_MIN</text>
<polyline fill="none" stroke="black" points="107.89,-1034.5 279.89,-1034.5 "/>
<text text-anchor="start" x="115.89" y="-1022.5" font-family="Helvetica,sans-Serif" font-size="10.00">+ __construct()</text>
<text text-anchor="start" x="115.89" y="-1011.5" font-family="Helvetica,sans-Serif" font-size="10.00">+ __debugInfo()</text>
<text text-anchor="start" x="115.89" y="-1000.5" font-family="Helvetica,sans-Serif" font-size="10.00">+ addEntity()</text>
<text text-anchor="start" x="115.89" y="-989.5" font-family="Helvetica,sans-Serif" font-size="10.00">+ addOnUnloadCallback()</text>
<text text-anchor="start" x="115.89" y="-978.5" font-family="Helvetica,sans-Serif" font-size="10.00">+ addParticle()</text>
<text text-anchor="start" x="115.89" y="-967.5" font-family="Helvetica,sans-Serif" font-size="10.00">+ addRandomTickedBlock()</text>
<text text-anchor="start" x="115.89" y="-956.5" font-family="Helvetica,sans-Serif" font-size="10.00">+ addSound()</text>
<text text-anchor="start" x="115.89" y="-945.5" font-family="Helvetica,sans-Serif" font-size="10.00">+ addTile()</text>
<text text-anchor="start" x="115.89" y="-934.5" font-family="Helvetica,sans-Serif" font-size="10.00">+ broadcastPacketToViewers()</text>
<text text-anchor="start" x="115.89" y="-923.5" font-family="Helvetica,sans-Serif" font-size="10.00">+ cancelUnloadChunkRequest()</text>
<text text-anchor="start" x="115.89" y="-912.5" font-family="Helvetica,sans-Serif" font-size="10.00">and 120 more...</text>
<text text-anchor="start" x="115.89" y="-901.5" font-family="Helvetica,sans-Serif" font-size="10.00">+ blockHash()</text>
<text text-anchor="start" x="115.89" y="-890.5" font-family="Helvetica,sans-Serif" font-size="10.00">+ chunkBlockHash()</text>
<text text-anchor="start" x="115.89" y="-879.5" font-family="Helvetica,sans-Serif" font-size="10.00">+ chunkHash()</text>
<text text-anchor="start" x="115.89" y="-868.5" font-family="Helvetica,sans-Serif" font-size="10.00">+ getBlockXYZ()</text>
<text text-anchor="start" x="115.89" y="-857.5" font-family="Helvetica,sans-Serif" font-size="10.00">+ getDifficultyFromString()</text>
<text text-anchor="start" x="115.89" y="-846.5" font-family="Helvetica,sans-Serif" font-size="10.00">+ getXZ()</text>
<text text-anchor="start" x="115.89" y="-835.5" font-family="Helvetica,sans-Serif" font-size="10.00"># actuallyDoTick()</text>
</a>
</g>
</g>
<!-- Node4&#45;&gt;Node9 -->
<g id="edge10" class="edge">
<title>Node4&#45;&gt;Node9</title>
<path fill="none" stroke="#404040" d="M24.68,-1373.39C22.02,-1326.81 21.22,-1230.49 51.89,-1157 63.5,-1129.19 81.14,-1102.37 100.08,-1078.51"/>
<polygon fill="none" stroke="#404040" points="100.11,-1078.47 100.79,-1071.29 107.68,-1069.16 107,-1076.34 100.11,-1078.47"/>
<text text-anchor="start" x="51.89" y="-1281" font-family="Helvetica,sans-Serif" font-size="10.00"> +DEFAULT_TICKED_BLOCKS</text>
<text text-anchor="middle" x="121.89" y="-1270" font-family="Helvetica,sans-Serif" font-size="10.00">_PER_SUBCHUNK_PER_TICK</text>
<text text-anchor="middle" x="121.89" y="-1259" font-family="Helvetica,sans-Serif" font-size="10.00">+DIFFICULTY_EASY</text>
<text text-anchor="middle" x="121.89" y="-1248" font-family="Helvetica,sans-Serif" font-size="10.00">+DIFFICULTY_HARD</text>
<text text-anchor="middle" x="121.89" y="-1237" font-family="Helvetica,sans-Serif" font-size="10.00">+DIFFICULTY_NORMAL</text>
<text text-anchor="middle" x="121.89" y="-1226" font-family="Helvetica,sans-Serif" font-size="10.00">+DIFFICULTY_PEACEFUL</text>
<text text-anchor="middle" x="121.89" y="-1215" font-family="Helvetica,sans-Serif" font-size="10.00">+TIME_DAY</text>
<text text-anchor="middle" x="121.89" y="-1204" font-family="Helvetica,sans-Serif" font-size="10.00">+TIME_FULL</text>
<text text-anchor="middle" x="121.89" y="-1193" font-family="Helvetica,sans-Serif" font-size="10.00">+TIME_MIDNIGHT</text>
<text text-anchor="middle" x="121.89" y="-1182" font-family="Helvetica,sans-Serif" font-size="10.00">+TIME_NIGHT</text>
<text text-anchor="middle" x="121.89" y="-1171" font-family="Helvetica,sans-Serif" font-size="10.00">+TIME_NOON</text>
<text text-anchor="middle" x="121.89" y="-1160" font-family="Helvetica,sans-Serif" font-size="10.00">...</text>
</g>
<!-- Node5 -->
<g id="node5" class="node">
<title>Node5</title>
<g id="a_node5"><a xlink:href="../../dd/d18/classpocketmine_1_1block_1_1_block_identifier.html" target="_top" xlink:title=" ">
<polygon fill="white" stroke="#bfbfbf" points="284.89,-641 284.89,-720 460.89,-720 460.89,-641 284.89,-641"/>
<text text-anchor="middle" x="372.89" y="-708" font-family="Helvetica,sans-Serif" font-size="10.00">pocketmine\block\BlockIdentifier</text>
<polyline fill="none" stroke="#bfbfbf" points="284.89,-701 460.89,-701 "/>
<text text-anchor="middle" x="372.89" y="-689" font-family="Helvetica,sans-Serif" font-size="10.00"> </text>
<polyline fill="none" stroke="#bfbfbf" points="284.89,-682 460.89,-682 "/>
<text text-anchor="start" x="292.89" y="-670" font-family="Helvetica,sans-Serif" font-size="10.00">+ __construct()</text>
<text text-anchor="start" x="292.89" y="-659" font-family="Helvetica,sans-Serif" font-size="10.00">+ getBlockTypeId()</text>
<text text-anchor="start" x="292.89" y="-648" font-family="Helvetica,sans-Serif" font-size="10.00">+ getTileClass()</text>
</a>
</g>
</g>
<!-- Node5&#45;&gt;Node3 -->
<g id="edge4" class="edge">
<title>Node5&#45;&gt;Node3</title>
<path fill="none" stroke="#404040" d="M365.16,-640.99C361.56,-623.1 357.07,-600.72 352.46,-577.76"/>
<polygon fill="none" stroke="#404040" points="352.4,-577.49 347.3,-572.4 350.04,-565.73 355.14,-570.82 352.4,-577.49"/>
<text text-anchor="middle" x="378.89" y="-587" font-family="Helvetica,sans-Serif" font-size="10.00"> #$idInfo</text>
</g>
<!-- Node6 -->
<g id="node6" class="node">
<title>Node6</title>
<g id="a_node6"><a xlink:href="../../de/d9a/classpocketmine_1_1block_1_1_block_type_info.html" target="_top" xlink:title=" ">
<polygon fill="white" stroke="#bfbfbf" points="478.89,-630 478.89,-731 652.89,-731 652.89,-630 478.89,-630"/>
<text text-anchor="middle" x="565.89" y="-719" font-family="Helvetica,sans-Serif" font-size="10.00">pocketmine\block\BlockTypeInfo</text>
<polyline fill="none" stroke="#bfbfbf" points="478.89,-712 652.89,-712 "/>
<text text-anchor="middle" x="565.89" y="-700" font-family="Helvetica,sans-Serif" font-size="10.00"> </text>
<polyline fill="none" stroke="#bfbfbf" points="478.89,-693 652.89,-693 "/>
<text text-anchor="start" x="486.89" y="-681" font-family="Helvetica,sans-Serif" font-size="10.00">+ __construct()</text>
<text text-anchor="start" x="486.89" y="-670" font-family="Helvetica,sans-Serif" font-size="10.00">+ getBreakInfo()</text>
<text text-anchor="start" x="486.89" y="-659" font-family="Helvetica,sans-Serif" font-size="10.00">+ getEnchantmentTags()</text>
<text text-anchor="start" x="486.89" y="-648" font-family="Helvetica,sans-Serif" font-size="10.00">+ getTypeTags()</text>
<text text-anchor="start" x="486.89" y="-637" font-family="Helvetica,sans-Serif" font-size="10.00">+ hasTypeTag()</text>
</a>
</g>
</g>
<!-- Node6&#45;&gt;Node3 -->
<g id="edge5" class="edge">
<title>Node6&#45;&gt;Node3</title>
<path fill="none" stroke="#404040" d="M513.07,-629.79C485.03,-603.4 449.81,-570.24 417.62,-539.95"/>
<polygon fill="none" stroke="#404040" points="417.37,-539.72 410.26,-538.52 408.64,-531.49 415.75,-532.69 417.37,-539.72"/>
<text text-anchor="middle" x="503.89" y="-587" font-family="Helvetica,sans-Serif" font-size="10.00"> #$typeInfo</text>
</g>
<!-- Node7 -->
<g id="node7" class="node">
<title>Node7</title>
<g id="a_node7"><a xlink:href="../../d5/dd2/classpocketmine_1_1world_1_1_position.html" target="_top" xlink:title=" ">
<polygon fill="white" stroke="#bfbfbf" points="120.89,-613.5 120.89,-747.5 266.89,-747.5 266.89,-613.5 120.89,-613.5"/>
<text text-anchor="middle" x="193.89" y="-735.5" font-family="Helvetica,sans-Serif" font-size="10.00">pocketmine\world\Position</text>
<polyline fill="none" stroke="#bfbfbf" points="120.89,-728.5 266.89,-728.5 "/>
<text text-anchor="middle" x="193.89" y="-716.5" font-family="Helvetica,sans-Serif" font-size="10.00"> </text>
<polyline fill="none" stroke="#bfbfbf" points="120.89,-709.5 266.89,-709.5 "/>
<text text-anchor="start" x="128.89" y="-697.5" font-family="Helvetica,sans-Serif" font-size="10.00">+ __construct()</text>
<text text-anchor="start" x="128.89" y="-686.5" font-family="Helvetica,sans-Serif" font-size="10.00">+ __toString()</text>
<text text-anchor="start" x="128.89" y="-675.5" font-family="Helvetica,sans-Serif" font-size="10.00">+ asPosition()</text>
<text text-anchor="start" x="128.89" y="-664.5" font-family="Helvetica,sans-Serif" font-size="10.00">+ equals()</text>
<text text-anchor="start" x="128.89" y="-653.5" font-family="Helvetica,sans-Serif" font-size="10.00">+ getSide()</text>
<text text-anchor="start" x="128.89" y="-642.5" font-family="Helvetica,sans-Serif" font-size="10.00">+ getWorld()</text>
<text text-anchor="start" x="128.89" y="-631.5" font-family="Helvetica,sans-Serif" font-size="10.00">+ isValid()</text>
<text text-anchor="start" x="128.89" y="-620.5" font-family="Helvetica,sans-Serif" font-size="10.00">+ fromObject()</text>
</a>
</g>
</g>
<!-- Node7&#45;&gt;Node3 -->
<g id="edge6" class="edge">
<title>Node7&#45;&gt;Node3</title>
<path fill="none" stroke="#404040" d="M233.55,-613.2C240.55,-601.51 248.02,-589.02 255.59,-576.37"/>
<polygon fill="none" stroke="#404040" points="255.79,-576.03 255.44,-568.82 261.95,-565.73 262.31,-572.93 255.79,-576.03"/>
<text text-anchor="middle" x="277.39" y="-587" font-family="Helvetica,sans-Serif" font-size="10.00"> #$position</text>
</g>
<!-- Node8 -->
<g id="node8" class="node">
<title>Node8</title>
<g id="a_node8"><a xlink:href="../../d2/d90/classpocketmine_1_1math_1_1_vector3.html" target="_top" xlink:title=" ">
<polygon fill="white" stroke="#bfbfbf" points="297.89,-878 297.89,-1089 439.89,-1089 439.89,-878 297.89,-878"/>
<text text-anchor="middle" x="368.89" y="-1077" font-family="Helvetica,sans-Serif" font-size="10.00">pocketmine\math\Vector3</text>
<polyline fill="none" stroke="#bfbfbf" points="297.89,-1070 439.89,-1070 "/>
<text text-anchor="middle" x="368.89" y="-1058" font-family="Helvetica,sans-Serif" font-size="10.00"> </text>
<polyline fill="none" stroke="#bfbfbf" points="297.89,-1051 439.89,-1051 "/>
<text text-anchor="start" x="305.89" y="-1039" font-family="Helvetica,sans-Serif" font-size="10.00">+ __construct()</text>
<text text-anchor="start" x="305.89" y="-1028" font-family="Helvetica,sans-Serif" font-size="10.00">+ __toString()</text>
<text text-anchor="start" x="305.89" y="-1017" font-family="Helvetica,sans-Serif" font-size="10.00">+ abs()</text>
<text text-anchor="start" x="305.89" y="-1006" font-family="Helvetica,sans-Serif" font-size="10.00">+ add()</text>
<text text-anchor="start" x="305.89" y="-995" font-family="Helvetica,sans-Serif" font-size="10.00">+ addVector()</text>
<text text-anchor="start" x="305.89" y="-984" font-family="Helvetica,sans-Serif" font-size="10.00">+ asVector3()</text>
<text text-anchor="start" x="305.89" y="-973" font-family="Helvetica,sans-Serif" font-size="10.00">+ ceil()</text>
<text text-anchor="start" x="305.89" y="-962" font-family="Helvetica,sans-Serif" font-size="10.00">+ cross()</text>
<text text-anchor="start" x="305.89" y="-951" font-family="Helvetica,sans-Serif" font-size="10.00">+ distance()</text>
<text text-anchor="start" x="305.89" y="-940" font-family="Helvetica,sans-Serif" font-size="10.00">+ distanceSquared()</text>
<text text-anchor="start" x="305.89" y="-929" font-family="Helvetica,sans-Serif" font-size="10.00">and 32 more...</text>
<text text-anchor="start" x="305.89" y="-918" font-family="Helvetica,sans-Serif" font-size="10.00">+ maxComponents()</text>
<text text-anchor="start" x="305.89" y="-907" font-family="Helvetica,sans-Serif" font-size="10.00">+ minComponents()</text>
<text text-anchor="start" x="305.89" y="-896" font-family="Helvetica,sans-Serif" font-size="10.00">+ sum()</text>
<text text-anchor="start" x="305.89" y="-885" font-family="Helvetica,sans-Serif" font-size="10.00">+ zero()</text>
</a>
</g>
</g>
<!-- Node8&#45;&gt;Node7 -->
<g id="edge7" class="edge">
<title>Node8&#45;&gt;Node7</title>
<path fill="none" stroke="midnightblue" d="M311.62,-868.78C304.17,-854.93 296.49,-841.07 288.89,-828 273.36,-801.27 255.12,-772.58 238.8,-747.74"/>
<polygon fill="none" stroke="midnightblue" points="308.67,-870.69 316.47,-877.86 314.85,-867.39 308.67,-870.69"/>
</g>
<!-- Node9&#45;&gt;Node7 -->
<g id="edge8" class="edge">
<title>Node9&#45;&gt;Node7</title>
<path fill="none" stroke="#404040" d="M193.89,-828.47C193.89,-804.65 193.89,-780.95 193.89,-759.76"/>
<polygon fill="none" stroke="#404040" points="193.89,-759.58 189.89,-753.58 193.89,-747.58 197.89,-753.58 193.89,-759.58"/>
<text text-anchor="middle" x="216.39" y="-785.5" font-family="Helvetica,sans-Serif" font-size="10.00"> +$world</text>
</g>
<!-- Node10 -->
<g id="node10" class="node">
<title>Node10</title>
<g id="a_node10"><a xlink:href="../../d0/d03/interfacepocketmine_1_1world_1_1_chunk_manager.html" target="_top" xlink:title=" ">
<polygon fill="white" stroke="#bfbfbf" points="107.89,-1340.5 107.89,-1463.5 287.89,-1463.5 287.89,-1340.5 107.89,-1340.5"/>
<text text-anchor="middle" x="197.89" y="-1451.5" font-family="Helvetica,sans-Serif" font-size="10.00">pocketmine\world\ChunkManager</text>
<polyline fill="none" stroke="#bfbfbf" points="107.89,-1444.5 287.89,-1444.5 "/>
<text text-anchor="middle" x="197.89" y="-1432.5" font-family="Helvetica,sans-Serif" font-size="10.00"> </text>
<polyline fill="none" stroke="#bfbfbf" points="107.89,-1425.5 287.89,-1425.5 "/>
<text text-anchor="start" x="115.89" y="-1413.5" font-family="Helvetica,sans-Serif" font-size="10.00">+ getBlockAt()</text>
<text text-anchor="start" x="115.89" y="-1402.5" font-family="Helvetica,sans-Serif" font-size="10.00">+ getChunk()</text>
<text text-anchor="start" x="115.89" y="-1391.5" font-family="Helvetica,sans-Serif" font-size="10.00">+ getMaxY()</text>
<text text-anchor="start" x="115.89" y="-1380.5" font-family="Helvetica,sans-Serif" font-size="10.00">+ getMinY()</text>
<text text-anchor="start" x="115.89" y="-1369.5" font-family="Helvetica,sans-Serif" font-size="10.00">+ isInWorld()</text>
<text text-anchor="start" x="115.89" y="-1358.5" font-family="Helvetica,sans-Serif" font-size="10.00">+ setBlockAt()</text>
<text text-anchor="start" x="115.89" y="-1347.5" font-family="Helvetica,sans-Serif" font-size="10.00">+ setChunk()</text>
</a>
</g>
</g>
<!-- Node10&#45;&gt;Node9 -->
<g id="edge9" class="edge">
<title>Node10&#45;&gt;Node9</title>
<path fill="none" stroke="midnightblue" d="M197.21,-1330.24C196.71,-1277.82 196.01,-1204.38 195.37,-1138.66"/>
<polygon fill="none" stroke="midnightblue" points="193.72,-1330.47 197.31,-1340.44 200.72,-1330.4 193.72,-1330.47"/>
</g>
<!-- Node11 -->
<g id="node11" class="node">
<title>Node11</title>
<g id="a_node11"><a xlink:href="../../d7/d08/classpocketmine_1_1world_1_1_world_timings.html" target="_top" xlink:title=" ">
<polygon fill="white" stroke="#bfbfbf" points="306.39,-1307.5 306.39,-1496.5 479.39,-1496.5 479.39,-1307.5 306.39,-1307.5"/>
<text text-anchor="middle" x="392.89" y="-1484.5" font-family="Helvetica,sans-Serif" font-size="10.00">pocketmine\world\WorldTimings</text>
<polyline fill="none" stroke="#bfbfbf" points="306.39,-1477.5 479.39,-1477.5 "/>
<text text-anchor="start" x="314.39" y="-1465.5" font-family="Helvetica,sans-Serif" font-size="10.00">+ $scheduledBlockUpdates</text>
<text text-anchor="start" x="314.39" y="-1454.5" font-family="Helvetica,sans-Serif" font-size="10.00">+ $setBlock</text>
<text text-anchor="start" x="314.39" y="-1443.5" font-family="Helvetica,sans-Serif" font-size="10.00">+ $syncChunkLoad</text>
<text text-anchor="start" x="314.39" y="-1432.5" font-family="Helvetica,sans-Serif" font-size="10.00">+ $syncChunkLoadData</text>
<text text-anchor="start" x="314.39" y="-1421.5" font-family="Helvetica,sans-Serif" font-size="10.00">+ $syncChunkLoadEntities</text>
<text text-anchor="start" x="314.39" y="-1410.5" font-family="Helvetica,sans-Serif" font-size="10.00">+ $syncChunkLoadFixInvalid</text>
<text text-anchor="start" x="314.39" y="-1399.5" font-family="Helvetica,sans-Serif" font-size="10.00">Blocks</text>
<text text-anchor="start" x="314.39" y="-1388.5" font-family="Helvetica,sans-Serif" font-size="10.00">+ $syncChunkLoadTileEntities</text>
<text text-anchor="start" x="314.39" y="-1377.5" font-family="Helvetica,sans-Serif" font-size="10.00">+ $syncChunkSave</text>
<text text-anchor="start" x="314.39" y="-1366.5" font-family="Helvetica,sans-Serif" font-size="10.00">+ $syncChunkSend</text>
<text text-anchor="start" x="314.39" y="-1355.5" font-family="Helvetica,sans-Serif" font-size="10.00">+ $syncChunkSendPrepare</text>
<text text-anchor="start" x="314.39" y="-1344.5" font-family="Helvetica,sans-Serif" font-size="10.00">+ $syncDataSave</text>
<text text-anchor="start" x="314.39" y="-1333.5" font-family="Helvetica,sans-Serif" font-size="10.00">+ $tileTick</text>
<polyline fill="none" stroke="#bfbfbf" points="306.39,-1326.5 479.39,-1326.5 "/>
<text text-anchor="start" x="314.39" y="-1314.5" font-family="Helvetica,sans-Serif" font-size="10.00">+ __construct()</text>
</a>
</g>
</g>
<!-- Node11&#45;&gt;Node9 -->
<g id="edge11" class="edge">
<title>Node11&#45;&gt;Node9</title>
<path fill="none" stroke="#404040" d="M348.11,-1307.27C325.91,-1260.81 298.45,-1203.32 272.87,-1149.79"/>
<polygon fill="none" stroke="#404040" points="272.79,-1149.62 266.59,-1145.93 267.61,-1138.79 273.81,-1142.48 272.79,-1149.62"/>
<text text-anchor="middle" x="362.39" y="-1220.5" font-family="Helvetica,sans-Serif" font-size="10.00"> +$timings</text>
</g>
<!-- Node12 -->
<g id="node12" class="node">
<title>Node12</title>
<g id="a_node12"><a xlink:href="../../d7/d9b/classpocketmine_1_1timings_1_1_timings_handler.html" target="_top" xlink:title=" ">
<polygon fill="white" stroke="#bfbfbf" points="336.39,-1665.5 336.39,-1865.5 449.39,-1865.5 449.39,-1665.5 336.39,-1665.5"/>
<text text-anchor="start" x="344.39" y="-1853.5" font-family="Helvetica,sans-Serif" font-size="10.00">pocketmine\timings</text>
<text text-anchor="middle" x="392.89" y="-1842.5" font-family="Helvetica,sans-Serif" font-size="10.00">\TimingsHandler</text>
<polyline fill="none" stroke="#bfbfbf" points="336.39,-1835.5 449.39,-1835.5 "/>
<text text-anchor="middle" x="392.89" y="-1823.5" font-family="Helvetica,sans-Serif" font-size="10.00"> </text>
<polyline fill="none" stroke="#bfbfbf" points="336.39,-1816.5 449.39,-1816.5 "/>
<text text-anchor="start" x="344.39" y="-1804.5" font-family="Helvetica,sans-Serif" font-size="10.00">+ __construct()</text>
<text text-anchor="start" x="344.39" y="-1793.5" font-family="Helvetica,sans-Serif" font-size="10.00">+ getGroup()</text>
<text text-anchor="start" x="344.39" y="-1782.5" font-family="Helvetica,sans-Serif" font-size="10.00">+ getName()</text>
<text text-anchor="start" x="344.39" y="-1771.5" font-family="Helvetica,sans-Serif" font-size="10.00">+ reset()</text>
<text text-anchor="start" x="344.39" y="-1760.5" font-family="Helvetica,sans-Serif" font-size="10.00">+ startTiming()</text>
<text text-anchor="start" x="344.39" y="-1749.5" font-family="Helvetica,sans-Serif" font-size="10.00">+ stopTiming()</text>
<text text-anchor="start" x="344.39" y="-1738.5" font-family="Helvetica,sans-Serif" font-size="10.00">+ time()</text>
<text text-anchor="start" x="344.39" y="-1727.5" font-family="Helvetica,sans-Serif" font-size="10.00">+ getStartTime()</text>
<text text-anchor="start" x="344.39" y="-1716.5" font-family="Helvetica,sans-Serif" font-size="10.00">+ isEnabled()</text>
<text text-anchor="start" x="344.39" y="-1705.5" font-family="Helvetica,sans-Serif" font-size="10.00">+ printTimings()</text>
<text text-anchor="start" x="344.39" y="-1694.5" font-family="Helvetica,sans-Serif" font-size="10.00">+ reload()</text>
<text text-anchor="start" x="344.39" y="-1683.5" font-family="Helvetica,sans-Serif" font-size="10.00">+ setEnabled()</text>
<text text-anchor="start" x="344.39" y="-1672.5" font-family="Helvetica,sans-Serif" font-size="10.00">+ tick()</text>
</a>
</g>
</g>
<!-- Node12&#45;&gt;Node11 -->
<g id="edge12" class="edge">
<title>Node12&#45;&gt;Node11</title>
<path fill="none" stroke="#404040" d="M392.89,-1665.24C392.89,-1616.68 392.89,-1558.19 392.89,-1508.78"/>
<polygon fill="none" stroke="#404040" points="392.89,-1508.75 388.89,-1502.75 392.89,-1496.75 396.89,-1502.75 392.89,-1508.75"/>
<text text-anchor="middle" x="470.39" y="-1639" font-family="Helvetica,sans-Serif" font-size="10.00"> +$chunkPopulationCompletion</text>
<text text-anchor="middle" x="470.39" y="-1628" font-family="Helvetica,sans-Serif" font-size="10.00">+$chunkPopulationOrder</text>
<text text-anchor="middle" x="470.39" y="-1617" font-family="Helvetica,sans-Serif" font-size="10.00">+$doBlockLightUpdates</text>
<text text-anchor="middle" x="470.39" y="-1606" font-family="Helvetica,sans-Serif" font-size="10.00">+$doBlockSkyLightUpdates</text>
<text text-anchor="middle" x="470.39" y="-1595" font-family="Helvetica,sans-Serif" font-size="10.00">+$doChunkGC</text>
<text text-anchor="middle" x="470.39" y="-1584" font-family="Helvetica,sans-Serif" font-size="10.00">+$doChunkUnload</text>
<text text-anchor="middle" x="470.39" y="-1573" font-family="Helvetica,sans-Serif" font-size="10.00">+$doTick</text>
<text text-anchor="middle" x="470.39" y="-1562" font-family="Helvetica,sans-Serif" font-size="10.00">+$entityTick</text>
<text text-anchor="middle" x="470.39" y="-1551" font-family="Helvetica,sans-Serif" font-size="10.00">+$randomChunkUpdates</text>
<text text-anchor="start" x="392.89" y="-1540" font-family="Helvetica,sans-Serif" font-size="10.00">+$randomChunkUpdatesChunk</text>
<text text-anchor="middle" x="470.39" y="-1529" font-family="Helvetica,sans-Serif" font-size="10.00">Selection</text>
<text text-anchor="middle" x="470.39" y="-1518" font-family="Helvetica,sans-Serif" font-size="10.00">...</text>
</g>
<!-- Node13 -->
<g id="node13" class="node">
<title>Node13</title>
<g id="a_node13"><a xlink:title=" ">
<polygon fill="white" stroke="#bfbfbf" points="427.89,-248.5 427.89,-305.5 501.89,-305.5 501.89,-248.5 427.89,-248.5"/>
<text text-anchor="middle" x="464.89" y="-293.5" font-family="Helvetica,sans-Serif" font-size="10.00">LeavesType</text>
<polyline fill="none" stroke="#bfbfbf" points="427.89,-286.5 501.89,-286.5 "/>
<text text-anchor="middle" x="464.89" y="-274.5" font-family="Helvetica,sans-Serif" font-size="10.00"> </text>
<polyline fill="none" stroke="#bfbfbf" points="427.89,-267.5 501.89,-267.5 "/>
<text text-anchor="middle" x="464.89" y="-255.5" font-family="Helvetica,sans-Serif" font-size="10.00"> </text>
</a>
</g>
</g>
<!-- Node13&#45;&gt;Node1 -->
<g id="edge13" class="edge">
<title>Node13&#45;&gt;Node1</title>
<path fill="none" stroke="#404040" d="M453.96,-248.35C449.86,-237.99 444.92,-225.48 439.66,-212.19"/>
<polygon fill="none" stroke="#404040" points="439.6,-212.03 433.67,-207.92 435.19,-200.87 441.11,-204.98 439.6,-212.03"/>
<text text-anchor="middle" x="482.39" y="-222" font-family="Helvetica,sans-Serif" font-size="10.00"> #$leavesType</text>
</g>
</g>
</svg>
