<?xml version="1.0" encoding="UTF-8" standalone="no"?>
<!DOCTYPE svg PUBLIC "-//W3C//DTD SVG 1.1//EN"
 "http://www.w3.org/Graphics/SVG/1.1/DTD/svg11.dtd">
<!-- Generated by graphviz version 2.43.0 (0)
 -->
<!-- Title: pocketmine\network\mcpe\handler\InGamePacketHandler Pages: 1 -->
<svg width="869pt" height="837pt"
 viewBox="0.00 0.00 869.00 837.00" xmlns="http://www.w3.org/2000/svg" xmlns:xlink="http://www.w3.org/1999/xlink">
<g id="graph0" class="graph" transform="scale(1 1) rotate(0) translate(4 833)">
<title>pocketmine\network\mcpe\handler\InGamePacketHandler</title>
<polygon fill="white" stroke="transparent" points="-4,4 -4,-833 865,-833 865,4 -4,4"/>
<!-- Node1 -->
<g id="node1" class="node">
<title>Node1</title>
<g id="a_node1"><a xlink:title=" ">
<polygon fill="#bfbfbf" stroke="black" points="416.5,-0.5 416.5,-244.5 597.5,-244.5 597.5,-0.5 416.5,-0.5"/>
<text text-anchor="start" x="424.5" y="-232.5" font-family="Helvetica,sans-Serif" font-size="10.00">pocketmine\network</text>
<text text-anchor="start" x="424.5" y="-221.5" font-family="Helvetica,sans-Serif" font-size="10.00">\mcpe\handler\InGamePacket</text>
<text text-anchor="middle" x="507" y="-210.5" font-family="Helvetica,sans-Serif" font-size="10.00">Handler</text>
<polyline fill="none" stroke="black" points="416.5,-203.5 597.5,-203.5 "/>
<text text-anchor="start" x="424.5" y="-191.5" font-family="Helvetica,sans-Serif" font-size="10.00">+ $forceMoveSync</text>
<text text-anchor="start" x="424.5" y="-180.5" font-family="Helvetica,sans-Serif" font-size="10.00"># $lastPlayerAuthInputFlags</text>
<text text-anchor="start" x="424.5" y="-169.5" font-family="Helvetica,sans-Serif" font-size="10.00"># $lastPlayerAuthInputPitch</text>
<text text-anchor="start" x="424.5" y="-158.5" font-family="Helvetica,sans-Serif" font-size="10.00"># $lastPlayerAuthInputYaw</text>
<text text-anchor="start" x="424.5" y="-147.5" font-family="Helvetica,sans-Serif" font-size="10.00"># $lastRequestedFullSkinId</text>
<text text-anchor="start" x="424.5" y="-136.5" font-family="Helvetica,sans-Serif" font-size="10.00"># $lastRightClickTime</text>
<polyline fill="none" stroke="black" points="416.5,-129.5 597.5,-129.5 "/>
<text text-anchor="start" x="424.5" y="-117.5" font-family="Helvetica,sans-Serif" font-size="10.00">+ __construct()</text>
<text text-anchor="start" x="424.5" y="-106.5" font-family="Helvetica,sans-Serif" font-size="10.00">+ handleActorEvent()</text>
<text text-anchor="start" x="424.5" y="-95.5" font-family="Helvetica,sans-Serif" font-size="10.00">+ handleActorPickRequest()</text>
<text text-anchor="start" x="424.5" y="-84.5" font-family="Helvetica,sans-Serif" font-size="10.00">+ handleAnimate()</text>
<text text-anchor="start" x="424.5" y="-73.5" font-family="Helvetica,sans-Serif" font-size="10.00">+ handleBlockActorData()</text>
<text text-anchor="start" x="424.5" y="-62.5" font-family="Helvetica,sans-Serif" font-size="10.00">+ handleBlockPickRequest()</text>
<text text-anchor="start" x="424.5" y="-51.5" font-family="Helvetica,sans-Serif" font-size="10.00">+ handleBookEdit()</text>
<text text-anchor="start" x="424.5" y="-40.5" font-family="Helvetica,sans-Serif" font-size="10.00">+ handleBossEvent()</text>
<text text-anchor="start" x="424.5" y="-29.5" font-family="Helvetica,sans-Serif" font-size="10.00">+ handleCommandBlockUpdate()</text>
<text text-anchor="start" x="424.5" y="-18.5" font-family="Helvetica,sans-Serif" font-size="10.00">+ handleCommandRequest()</text>
<text text-anchor="start" x="424.5" y="-7.5" font-family="Helvetica,sans-Serif" font-size="10.00">and 30 more...</text>
</a>
</g>
</g>
<!-- Node2 -->
<g id="node2" class="node">
<title>Node2</title>
<g id="a_node2"><a xlink:href="../../d5/d23/classpocketmine_1_1network_1_1mcpe_1_1handler_1_1_packet_handler.html" target="_top" xlink:title=" ">
<polygon fill="white" stroke="black" points="73.5,-375 73.5,-443 232.5,-443 232.5,-375 73.5,-375"/>
<text text-anchor="start" x="81.5" y="-431" font-family="Helvetica,sans-Serif" font-size="10.00">pocketmine\network</text>
<text text-anchor="middle" x="153" y="-420" font-family="Helvetica,sans-Serif" font-size="10.00">\mcpe\handler\PacketHandler</text>
<polyline fill="none" stroke="black" points="73.5,-413 232.5,-413 "/>
<text text-anchor="middle" x="153" y="-401" font-family="Helvetica,sans-Serif" font-size="10.00"> </text>
<polyline fill="none" stroke="black" points="73.5,-394 232.5,-394 "/>
<text text-anchor="start" x="81.5" y="-382" font-family="Helvetica,sans-Serif" font-size="10.00">+ setUp()</text>
</a>
</g>
</g>
<!-- Node2&#45;&gt;Node1 -->
<g id="edge1" class="edge">
<title>Node2&#45;&gt;Node1</title>
<path fill="none" stroke="midnightblue" d="M202.18,-368.48C257.35,-324.13 348.04,-251.25 416.18,-196.49"/>
<polygon fill="none" stroke="midnightblue" points="199.9,-365.81 194.3,-374.81 204.29,-371.27 199.9,-365.81"/>
</g>
<!-- Node3 -->
<g id="node3" class="node">
<title>Node3</title>
<g id="a_node3"><a xlink:href="../../d1/d7c/interfacepocketmine_1_1network_1_1mcpe_1_1protocol_1_1_packet_handler_interface.html" target="_top" xlink:title=" ">
<polygon fill="white" stroke="black" points="0,-623 0,-812 162,-812 162,-623 0,-623"/>
<text text-anchor="start" x="8" y="-800" font-family="Helvetica,sans-Serif" font-size="10.00">pocketmine\network</text>
<text text-anchor="start" x="8" y="-789" font-family="Helvetica,sans-Serif" font-size="10.00">\mcpe\protocol\PacketHandler</text>
<text text-anchor="middle" x="81" y="-778" font-family="Helvetica,sans-Serif" font-size="10.00">Interface</text>
<polyline fill="none" stroke="black" points="0,-771 162,-771 "/>
<text text-anchor="middle" x="81" y="-759" font-family="Helvetica,sans-Serif" font-size="10.00"> </text>
<polyline fill="none" stroke="black" points="0,-752 162,-752 "/>
<text text-anchor="start" x="8" y="-740" font-family="Helvetica,sans-Serif" font-size="10.00">+ handleActorEvent()</text>
<text text-anchor="start" x="8" y="-729" font-family="Helvetica,sans-Serif" font-size="10.00">+ handleActorPickRequest()</text>
<text text-anchor="start" x="8" y="-718" font-family="Helvetica,sans-Serif" font-size="10.00">+ handleAddActor()</text>
<text text-anchor="start" x="8" y="-707" font-family="Helvetica,sans-Serif" font-size="10.00">+ handleAddBehaviorTree()</text>
<text text-anchor="start" x="8" y="-696" font-family="Helvetica,sans-Serif" font-size="10.00">+ handleAddEntity()</text>
<text text-anchor="start" x="8" y="-685" font-family="Helvetica,sans-Serif" font-size="10.00">+ handleAddItemActor()</text>
<text text-anchor="start" x="8" y="-674" font-family="Helvetica,sans-Serif" font-size="10.00">+ handleAddPainting()</text>
<text text-anchor="start" x="8" y="-663" font-family="Helvetica,sans-Serif" font-size="10.00">+ handleAddPlayer()</text>
<text text-anchor="start" x="8" y="-652" font-family="Helvetica,sans-Serif" font-size="10.00">+ handleAddVolumeEntity()</text>
<text text-anchor="start" x="8" y="-641" font-family="Helvetica,sans-Serif" font-size="10.00">+ handleAgentActionEvent()</text>
<text text-anchor="start" x="8" y="-630" font-family="Helvetica,sans-Serif" font-size="10.00">and 184 more...</text>
</a>
</g>
</g>
<!-- Node3&#45;&gt;Node2 -->
<g id="edge2" class="edge">
<title>Node3&#45;&gt;Node2</title>
<path fill="none" stroke="midnightblue" d="M105.29,-613.09C119.21,-553.86 135.74,-483.47 145.24,-443.04"/>
<polygon fill="none" stroke="midnightblue" points="101.87,-612.34 102.99,-622.87 108.69,-613.94 101.87,-612.34"/>
</g>
<!-- Node4 -->
<g id="node4" class="node">
<title>Node4</title>
<g id="a_node4"><a xlink:href="../../db/d5b/classpocketmine_1_1inventory_1_1transaction_1_1_crafting_transaction.html" target="_top" xlink:title=" ">
<polygon fill="white" stroke="black" points="322.5,-342 322.5,-476 493.5,-476 493.5,-342 322.5,-342"/>
<text text-anchor="start" x="330.5" y="-464" font-family="Helvetica,sans-Serif" font-size="10.00">pocketmine\inventory</text>
<text text-anchor="middle" x="408" y="-453" font-family="Helvetica,sans-Serif" font-size="10.00">\transaction\CraftingTransaction</text>
<polyline fill="none" stroke="black" points="322.5,-446 493.5,-446 "/>
<text text-anchor="start" x="330.5" y="-434" font-family="Helvetica,sans-Serif" font-size="10.00"># $inputs</text>
<text text-anchor="start" x="330.5" y="-423" font-family="Helvetica,sans-Serif" font-size="10.00"># $outputs</text>
<text text-anchor="start" x="330.5" y="-412" font-family="Helvetica,sans-Serif" font-size="10.00"># $repetitions</text>
<polyline fill="none" stroke="black" points="322.5,-405 493.5,-405 "/>
<text text-anchor="start" x="330.5" y="-393" font-family="Helvetica,sans-Serif" font-size="10.00">+ __construct()</text>
<text text-anchor="start" x="330.5" y="-382" font-family="Helvetica,sans-Serif" font-size="10.00">+ validate()</text>
<text text-anchor="start" x="330.5" y="-371" font-family="Helvetica,sans-Serif" font-size="10.00">+ matchIngredients()</text>
<text text-anchor="start" x="330.5" y="-360" font-family="Helvetica,sans-Serif" font-size="10.00"># callExecuteEvent()</text>
<text text-anchor="start" x="330.5" y="-349" font-family="Helvetica,sans-Serif" font-size="10.00"># matchOutputs()</text>
</a>
</g>
</g>
<!-- Node4&#45;&gt;Node1 -->
<g id="edge3" class="edge">
<title>Node4&#45;&gt;Node1</title>
<path fill="none" stroke="#404040" d="M420.5,-341.86C426.01,-316.83 433.25,-288.29 442,-263 442.82,-260.63 443.67,-258.25 444.54,-255.86"/>
<polygon fill="none" stroke="#404040" points="444.54,-255.85 442.91,-248.82 448.77,-244.62 450.4,-251.65 444.54,-255.85"/>
<text text-anchor="middle" x="497" y="-266" font-family="Helvetica,sans-Serif" font-size="10.00"> #$craftingTransaction</text>
</g>
<!-- Node5 -->
<g id="node5" class="node">
<title>Node5</title>
<g id="a_node5"><a xlink:href="../../d3/de1/classpocketmine_1_1inventory_1_1transaction_1_1_inventory_transaction.html" target="_top" xlink:title=" ">
<polygon fill="white" stroke="black" points="180.5,-606.5 180.5,-828.5 359.5,-828.5 359.5,-606.5 180.5,-606.5"/>
<text text-anchor="start" x="188.5" y="-816.5" font-family="Helvetica,sans-Serif" font-size="10.00">pocketmine\inventory</text>
<text text-anchor="middle" x="270" y="-805.5" font-family="Helvetica,sans-Serif" font-size="10.00">\transaction\InventoryTransaction</text>
<polyline fill="none" stroke="black" points="180.5,-798.5 359.5,-798.5 "/>
<text text-anchor="start" x="188.5" y="-786.5" font-family="Helvetica,sans-Serif" font-size="10.00"># $actions</text>
<text text-anchor="start" x="188.5" y="-775.5" font-family="Helvetica,sans-Serif" font-size="10.00"># $hasExecuted</text>
<text text-anchor="start" x="188.5" y="-764.5" font-family="Helvetica,sans-Serif" font-size="10.00"># $inventories</text>
<polyline fill="none" stroke="black" points="180.5,-757.5 359.5,-757.5 "/>
<text text-anchor="start" x="188.5" y="-745.5" font-family="Helvetica,sans-Serif" font-size="10.00">+ __construct()</text>
<text text-anchor="start" x="188.5" y="-734.5" font-family="Helvetica,sans-Serif" font-size="10.00">+ addAction()</text>
<text text-anchor="start" x="188.5" y="-723.5" font-family="Helvetica,sans-Serif" font-size="10.00">+ addInventory()</text>
<text text-anchor="start" x="188.5" y="-712.5" font-family="Helvetica,sans-Serif" font-size="10.00">+ execute()</text>
<text text-anchor="start" x="188.5" y="-701.5" font-family="Helvetica,sans-Serif" font-size="10.00">+ getActions()</text>
<text text-anchor="start" x="188.5" y="-690.5" font-family="Helvetica,sans-Serif" font-size="10.00">+ getInventories()</text>
<text text-anchor="start" x="188.5" y="-679.5" font-family="Helvetica,sans-Serif" font-size="10.00">+ getSource()</text>
<text text-anchor="start" x="188.5" y="-668.5" font-family="Helvetica,sans-Serif" font-size="10.00">+ hasExecuted()</text>
<text text-anchor="start" x="188.5" y="-657.5" font-family="Helvetica,sans-Serif" font-size="10.00">+ validate()</text>
<text text-anchor="start" x="188.5" y="-646.5" font-family="Helvetica,sans-Serif" font-size="10.00"># callExecuteEvent()</text>
<text text-anchor="start" x="188.5" y="-635.5" font-family="Helvetica,sans-Serif" font-size="10.00"># findResultItem()</text>
<text text-anchor="start" x="188.5" y="-624.5" font-family="Helvetica,sans-Serif" font-size="10.00"># matchItems()</text>
<text text-anchor="start" x="188.5" y="-613.5" font-family="Helvetica,sans-Serif" font-size="10.00"># squashDuplicateSlotChanges()</text>
</a>
</g>
</g>
<!-- Node5&#45;&gt;Node4 -->
<g id="edge4" class="edge">
<title>Node5&#45;&gt;Node4</title>
<path fill="none" stroke="midnightblue" d="M323.8,-597.01C342.31,-555.9 362.36,-511.37 378.25,-476.08"/>
<polygon fill="none" stroke="midnightblue" points="320.54,-595.72 319.63,-606.28 326.92,-598.6 320.54,-595.72"/>
</g>
<!-- Node6 -->
<g id="node6" class="node">
<title>Node6</title>
<g id="a_node6"><a xlink:href="../../d6/dd6/interfacepocketmine_1_1crafting_1_1_crafting_recipe.html" target="_top" xlink:title=" ">
<polygon fill="white" stroke="#bfbfbf" points="378,-672.5 378,-762.5 514,-762.5 514,-672.5 378,-672.5"/>
<text text-anchor="start" x="386" y="-750.5" font-family="Helvetica,sans-Serif" font-size="10.00">pocketmine\crafting</text>
<text text-anchor="middle" x="446" y="-739.5" font-family="Helvetica,sans-Serif" font-size="10.00">\CraftingRecipe</text>
<polyline fill="none" stroke="#bfbfbf" points="378,-732.5 514,-732.5 "/>
<text text-anchor="middle" x="446" y="-720.5" font-family="Helvetica,sans-Serif" font-size="10.00"> </text>
<polyline fill="none" stroke="#bfbfbf" points="378,-713.5 514,-713.5 "/>
<text text-anchor="start" x="386" y="-701.5" font-family="Helvetica,sans-Serif" font-size="10.00">+ getIngredientList()</text>
<text text-anchor="start" x="386" y="-690.5" font-family="Helvetica,sans-Serif" font-size="10.00">+ getResultsFor()</text>
<text text-anchor="start" x="386" y="-679.5" font-family="Helvetica,sans-Serif" font-size="10.00">+ matchesCraftingGrid()</text>
</a>
</g>
</g>
<!-- Node6&#45;&gt;Node4 -->
<g id="edge5" class="edge">
<title>Node6&#45;&gt;Node4</title>
<path fill="none" stroke="#404040" d="M440.52,-672.26C434.57,-624.28 424.95,-546.75 417.72,-488.4"/>
<polygon fill="none" stroke="#404040" points="417.69,-488.17 412.98,-482.7 416.21,-476.26 420.92,-481.72 417.69,-488.17"/>
<text text-anchor="middle" x="454" y="-563.5" font-family="Helvetica,sans-Serif" font-size="10.00"> #$recipe</text>
</g>
<!-- Node7 -->
<g id="node7" class="node">
<title>Node7</title>
<g id="a_node7"><a xlink:href="../../dd/d91/classpocketmine_1_1network_1_1mcpe_1_1protocol_1_1types_1_1inventory_1_1_use_item_transaction_data.html" target="_top" xlink:title=" ">
<polygon fill="white" stroke="#bfbfbf" points="511.5,-314.5 511.5,-503.5 700.5,-503.5 700.5,-314.5 511.5,-314.5"/>
<text text-anchor="start" x="519.5" y="-491.5" font-family="Helvetica,sans-Serif" font-size="10.00">pocketmine\network</text>
<text text-anchor="start" x="519.5" y="-480.5" font-family="Helvetica,sans-Serif" font-size="10.00">\mcpe\protocol\types</text>
<text text-anchor="middle" x="606" y="-469.5" font-family="Helvetica,sans-Serif" font-size="10.00">\inventory\UseItemTransactionData</text>
<polyline fill="none" stroke="#bfbfbf" points="511.5,-462.5 700.5,-462.5 "/>
<text text-anchor="middle" x="606" y="-450.5" font-family="Helvetica,sans-Serif" font-size="10.00"> </text>
<polyline fill="none" stroke="#bfbfbf" points="511.5,-443.5 700.5,-443.5 "/>
<text text-anchor="start" x="519.5" y="-431.5" font-family="Helvetica,sans-Serif" font-size="10.00">+ getActionType()</text>
<text text-anchor="start" x="519.5" y="-420.5" font-family="Helvetica,sans-Serif" font-size="10.00">+ getBlockPosition()</text>
<text text-anchor="start" x="519.5" y="-409.5" font-family="Helvetica,sans-Serif" font-size="10.00">+ getBlockRuntimeId()</text>
<text text-anchor="start" x="519.5" y="-398.5" font-family="Helvetica,sans-Serif" font-size="10.00">+ getClickPosition()</text>
<text text-anchor="start" x="519.5" y="-387.5" font-family="Helvetica,sans-Serif" font-size="10.00">+ getFace()</text>
<text text-anchor="start" x="519.5" y="-376.5" font-family="Helvetica,sans-Serif" font-size="10.00">+ getHotbarSlot()</text>
<text text-anchor="start" x="519.5" y="-365.5" font-family="Helvetica,sans-Serif" font-size="10.00">+ getItemInHand()</text>
<text text-anchor="start" x="519.5" y="-354.5" font-family="Helvetica,sans-Serif" font-size="10.00">+ getPlayerPosition()</text>
<text text-anchor="start" x="519.5" y="-343.5" font-family="Helvetica,sans-Serif" font-size="10.00">+ new()</text>
<text text-anchor="start" x="519.5" y="-332.5" font-family="Helvetica,sans-Serif" font-size="10.00"># decodeData()</text>
<text text-anchor="start" x="519.5" y="-321.5" font-family="Helvetica,sans-Serif" font-size="10.00"># encodeData()</text>
</a>
</g>
</g>
<!-- Node7&#45;&gt;Node1 -->
<g id="edge6" class="edge">
<title>Node7&#45;&gt;Node1</title>
<path fill="none" stroke="#404040" d="M573.45,-314.45C566.95,-295.77 560,-275.81 553.14,-256.1"/>
<polygon fill="none" stroke="#404040" points="553.06,-255.87 547.31,-251.52 549.12,-244.54 554.87,-248.89 553.06,-255.87"/>
<text text-anchor="middle" x="610.5" y="-266" font-family="Helvetica,sans-Serif" font-size="10.00"> #$lastRightClickData</text>
</g>
<!-- Node8 -->
<g id="node8" class="node">
<title>Node8</title>
<g id="a_node8"><a xlink:href="../../d6/da6/classpocketmine_1_1network_1_1mcpe_1_1protocol_1_1types_1_1inventory_1_1_transaction_data.html" target="_top" xlink:title=" ">
<polygon fill="white" stroke="#bfbfbf" points="532,-650.5 532,-784.5 680,-784.5 680,-650.5 532,-650.5"/>
<text text-anchor="start" x="540" y="-772.5" font-family="Helvetica,sans-Serif" font-size="10.00">pocketmine\network</text>
<text text-anchor="start" x="540" y="-761.5" font-family="Helvetica,sans-Serif" font-size="10.00">\mcpe\protocol\types</text>
<text text-anchor="middle" x="606" y="-750.5" font-family="Helvetica,sans-Serif" font-size="10.00">\inventory\TransactionData</text>
<polyline fill="none" stroke="#bfbfbf" points="532,-743.5 680,-743.5 "/>
<text text-anchor="start" x="540" y="-731.5" font-family="Helvetica,sans-Serif" font-size="10.00"># $actions</text>
<polyline fill="none" stroke="#bfbfbf" points="532,-724.5 680,-724.5 "/>
<text text-anchor="start" x="540" y="-712.5" font-family="Helvetica,sans-Serif" font-size="10.00">+ decode()</text>
<text text-anchor="start" x="540" y="-701.5" font-family="Helvetica,sans-Serif" font-size="10.00">+ encode()</text>
<text text-anchor="start" x="540" y="-690.5" font-family="Helvetica,sans-Serif" font-size="10.00">+ getActions()</text>
<text text-anchor="start" x="540" y="-679.5" font-family="Helvetica,sans-Serif" font-size="10.00">+ getTypeId()</text>
<text text-anchor="start" x="540" y="-668.5" font-family="Helvetica,sans-Serif" font-size="10.00"># decodeData()</text>
<text text-anchor="start" x="540" y="-657.5" font-family="Helvetica,sans-Serif" font-size="10.00"># encodeData()</text>
</a>
</g>
</g>
<!-- Node8&#45;&gt;Node7 -->
<g id="edge7" class="edge">
<title>Node8&#45;&gt;Node7</title>
<path fill="none" stroke="midnightblue" d="M606,-640.35C606,-598.97 606,-547.45 606,-503.63"/>
<polygon fill="none" stroke="midnightblue" points="602.5,-640.37 606,-650.37 609.5,-640.37 602.5,-640.37"/>
</g>
<!-- Node9 -->
<g id="node9" class="node">
<title>Node9</title>
<g id="a_node9"><a xlink:title=" ">
<polygon fill="white" stroke="#bfbfbf" points="698.5,-689 698.5,-746 741.5,-746 741.5,-689 698.5,-689"/>
<text text-anchor="middle" x="720" y="-734" font-family="Helvetica,sans-Serif" font-size="10.00">const</text>
<polyline fill="none" stroke="#bfbfbf" points="698.5,-727 741.5,-727 "/>
<text text-anchor="middle" x="720" y="-715" font-family="Helvetica,sans-Serif" font-size="10.00"> </text>
<polyline fill="none" stroke="#bfbfbf" points="698.5,-708 741.5,-708 "/>
<text text-anchor="middle" x="720" y="-696" font-family="Helvetica,sans-Serif" font-size="10.00"> </text>
</a>
</g>
</g>
<!-- Node9&#45;&gt;Node7 -->
<g id="edge8" class="edge">
<title>Node9&#45;&gt;Node7</title>
<path fill="none" stroke="#404040" d="M713.31,-688.95C707.59,-666.41 698.75,-633.83 689,-606 678.49,-576 665.67,-544.04 653.28,-514.81"/>
<polygon fill="none" stroke="#404040" points="653.28,-514.79 647.24,-510.85 648.56,-503.76 654.6,-507.7 653.28,-514.79"/>
<text text-anchor="middle" x="744" y="-580" font-family="Helvetica,sans-Serif" font-size="10.00"> +ACTION_BREAK_BLOCK</text>
<text text-anchor="middle" x="744" y="-569" font-family="Helvetica,sans-Serif" font-size="10.00">+ACTION_CLICK_AIR</text>
<text text-anchor="middle" x="744" y="-558" font-family="Helvetica,sans-Serif" font-size="10.00">+ACTION_CLICK_BLOCK</text>
<text text-anchor="middle" x="744" y="-547" font-family="Helvetica,sans-Serif" font-size="10.00">+ID</text>
</g>
<!-- Node10 -->
<g id="node10" class="node">
<title>Node10</title>
<g id="a_node10"><a xlink:href="../../d2/d90/classpocketmine_1_1math_1_1_vector3.html" target="_top" xlink:title=" ">
<polygon fill="white" stroke="#bfbfbf" points="719,-292.5 719,-525.5 861,-525.5 861,-292.5 719,-292.5"/>
<text text-anchor="middle" x="790" y="-513.5" font-family="Helvetica,sans-Serif" font-size="10.00">pocketmine\math\Vector3</text>
<polyline fill="none" stroke="#bfbfbf" points="719,-506.5 861,-506.5 "/>
<text text-anchor="start" x="727" y="-494.5" font-family="Helvetica,sans-Serif" font-size="10.00">+ $x</text>
<text text-anchor="start" x="727" y="-483.5" font-family="Helvetica,sans-Serif" font-size="10.00">+ $y</text>
<text text-anchor="start" x="727" y="-472.5" font-family="Helvetica,sans-Serif" font-size="10.00">+ $z</text>
<polyline fill="none" stroke="#bfbfbf" points="719,-465.5 861,-465.5 "/>
<text text-anchor="start" x="727" y="-453.5" font-family="Helvetica,sans-Serif" font-size="10.00">+ __construct()</text>
<text text-anchor="start" x="727" y="-442.5" font-family="Helvetica,sans-Serif" font-size="10.00">+ __toString()</text>
<text text-anchor="start" x="727" y="-431.5" font-family="Helvetica,sans-Serif" font-size="10.00">+ abs()</text>
<text text-anchor="start" x="727" y="-420.5" font-family="Helvetica,sans-Serif" font-size="10.00">+ add()</text>
<text text-anchor="start" x="727" y="-409.5" font-family="Helvetica,sans-Serif" font-size="10.00">+ addVector()</text>
<text text-anchor="start" x="727" y="-398.5" font-family="Helvetica,sans-Serif" font-size="10.00">+ asVector3()</text>
<text text-anchor="start" x="727" y="-387.5" font-family="Helvetica,sans-Serif" font-size="10.00">+ ceil()</text>
<text text-anchor="start" x="727" y="-376.5" font-family="Helvetica,sans-Serif" font-size="10.00">+ cross()</text>
<text text-anchor="start" x="727" y="-365.5" font-family="Helvetica,sans-Serif" font-size="10.00">+ distance()</text>
<text text-anchor="start" x="727" y="-354.5" font-family="Helvetica,sans-Serif" font-size="10.00">+ distanceSquared()</text>
<text text-anchor="start" x="727" y="-343.5" font-family="Helvetica,sans-Serif" font-size="10.00">and 32 more...</text>
<text text-anchor="start" x="727" y="-332.5" font-family="Helvetica,sans-Serif" font-size="10.00">+ maxComponents()</text>
<text text-anchor="start" x="727" y="-321.5" font-family="Helvetica,sans-Serif" font-size="10.00">+ minComponents()</text>
<text text-anchor="start" x="727" y="-310.5" font-family="Helvetica,sans-Serif" font-size="10.00">+ sum()</text>
<text text-anchor="start" x="727" y="-299.5" font-family="Helvetica,sans-Serif" font-size="10.00">+ zero()</text>
</a>
</g>
</g>
<!-- Node10&#45;&gt;Node1 -->
<g id="edge9" class="edge">
<title>Node10&#45;&gt;Node1</title>
<path fill="none" stroke="#404040" d="M718.84,-302.06C715.92,-298.62 712.97,-295.25 710,-292 679.2,-258.33 641.63,-225.34 607.22,-197.61"/>
<polygon fill="none" stroke="#404040" points="606.98,-197.42 599.79,-196.8 597.6,-189.93 604.79,-190.55 606.98,-197.42"/>
<text text-anchor="middle" x="766.5" y="-266" font-family="Helvetica,sans-Serif" font-size="10.00"> #$lastPlayerAuthInputPosition</text>
</g>
</g>
</svg>
