<?xml version="1.0" encoding="UTF-8" standalone="no"?>
<!DOCTYPE svg PUBLIC "-//W3C//DTD SVG 1.1//EN"
 "http://www.w3.org/Graphics/SVG/1.1/DTD/svg11.dtd">
<!-- Generated by graphviz version 2.43.0 (0)
 -->
<!-- Title: pocketmine\block\WeightedPressurePlateLight Pages: 1 -->
<!--zoomable 2068 -->
<svg id="main" version="1.1" xmlns="http://www.w3.org/2000/svg" xmlns:xlink="http://www.w3.org/1999/xlink" xml:space="preserve" onload="init(evt)">
<style type="text/css"><![CDATA[
.edge:hover path { stroke: red; }
.edge:hover polygon { stroke: red; fill: red; }
]]></style>
<script type="text/javascript"><![CDATA[
var edges = document.getElementsByTagName('g');
if (edges && edges.length) {
  for (var i=0;i<edges.length;i++) {
    if (edges[i].id.substr(0,4)=='edge') {
      edges[i].setAttribute('class','edge');
    }
  }
}
]]></script>
        <defs>
                <circle id="rim" cx="0" cy="0" r="7"/>
                <circle id="rim2" cx="0" cy="0" r="3.5"/>
                <g id="zoomPlus">
                        <use xlink:href="#rim" fill="#404040">
                                <set attributeName="fill" to="#808080" begin="zoomplus.mouseover" end="zoomplus.mouseout"/>
                        </use>
                        <path d="M-4,0h8M0,-4v8" fill="none" stroke="white" stroke-width="1.5" pointer-events="none"/>
                </g>
                <g id="zoomMin">
                        <use xlink:href="#rim" fill="#404040">
                                <set attributeName="fill" to="#808080" begin="zoomminus.mouseover" end="zoomminus.mouseout"/>
                        </use>
                        <path d="M-4,0h8" fill="none" stroke="white" stroke-width="1.5" pointer-events="none"/>
                </g>
                <g id="dirArrow">
                        <path fill="none" stroke="white" stroke-width="1.5" d="M0,-3.0v7 M-2.5,-0.5L0,-3.0L2.5,-0.5"/>
                </g>
               <g id="resetDef">
                       <use xlink:href="#rim2" fill="#404040">
                               <set attributeName="fill" to="#808080" begin="reset.mouseover" end="reset.mouseout"/>
                       </use>
               </g>
        </defs>

<script type="text/javascript">
var viewWidth = 801;
var viewHeight = 2068;
var sectionId = 'dynsection-1';
</script>
<script xlink:href="../../svgpan.js"/>
<svg id="graph" class="graph">
<g id="viewport">
<title>pocketmine\block\WeightedPressurePlateLight</title>
<polygon fill="white" stroke="transparent" points="-4,4 -4,-2064 796.59,-2064 796.59,4 -4,4"/>
<!-- Node1 -->
<g id="node1" class="node">
<title>Node1</title>
<g id="a_node1"><a xlink:title=" ">
<polygon fill="#bfbfbf" stroke="black" points="261.59,-0.5 261.59,-68.5 413.59,-68.5 413.59,-0.5 261.59,-0.5"/>
<text text-anchor="start" x="269.59" y="-56.5" font-family="Helvetica,sans-Serif" font-size="10.00">pocketmine\block\Weighted</text>
<text text-anchor="middle" x="337.59" y="-45.5" font-family="Helvetica,sans-Serif" font-size="10.00">PressurePlateLight</text>
<polyline fill="none" stroke="black" points="261.59,-38.5 413.59,-38.5 "/>
<text text-anchor="middle" x="337.59" y="-26.5" font-family="Helvetica,sans-Serif" font-size="10.00"> </text>
<polyline fill="none" stroke="black" points="261.59,-19.5 413.59,-19.5 "/>
<text text-anchor="middle" x="337.59" y="-7.5" font-family="Helvetica,sans-Serif" font-size="10.00"> </text>
</a>
</g>
</g>
<!-- Node2 -->
<g id="node2" class="node">
<title>Node2</title>
<g id="a_node2"><a xlink:href="../../d6/dc1/classpocketmine_1_1block_1_1_weighted_pressure_plate.html" target="_top" xlink:title=" ">
<polygon fill="white" stroke="#bfbfbf" points="261.59,-106.5 261.59,-196.5 413.59,-196.5 413.59,-106.5 261.59,-106.5"/>
<text text-anchor="start" x="269.59" y="-184.5" font-family="Helvetica,sans-Serif" font-size="10.00">pocketmine\block\Weighted</text>
<text text-anchor="middle" x="337.59" y="-173.5" font-family="Helvetica,sans-Serif" font-size="10.00">PressurePlate</text>
<polyline fill="none" stroke="#bfbfbf" points="261.59,-166.5 413.59,-166.5 "/>
<text text-anchor="middle" x="337.59" y="-154.5" font-family="Helvetica,sans-Serif" font-size="10.00"> </text>
<polyline fill="none" stroke="#bfbfbf" points="261.59,-147.5 413.59,-147.5 "/>
<text text-anchor="start" x="269.59" y="-135.5" font-family="Helvetica,sans-Serif" font-size="10.00">+ getStateBitmask()</text>
<text text-anchor="start" x="269.59" y="-124.5" font-family="Helvetica,sans-Serif" font-size="10.00">+ readStateFromData()</text>
<text text-anchor="start" x="269.59" y="-113.5" font-family="Helvetica,sans-Serif" font-size="10.00"># writeStateToMeta()</text>
</a>
</g>
</g>
<!-- Node2&#45;&gt;Node1 -->
<g id="edge1" class="edge">
<title>Node2&#45;&gt;Node1</title>
<path fill="none" stroke="midnightblue" d="M337.59,-96.23C337.59,-86.8 337.59,-77.26 337.59,-68.62"/>
<polygon fill="none" stroke="midnightblue" points="334.09,-96.37 337.59,-106.37 341.09,-96.37 334.09,-96.37"/>
</g>
<!-- Node3 -->
<g id="node3" class="node">
<title>Node3</title>
<g id="a_node3"><a xlink:href="../../de/d89/classpocketmine_1_1block_1_1_pressure_plate.html" target="_top" xlink:title=" ">
<polygon fill="white" stroke="#bfbfbf" points="257.09,-234.5 257.09,-335.5 418.09,-335.5 418.09,-234.5 257.09,-234.5"/>
<text text-anchor="start" x="265.09" y="-323.5" font-family="Helvetica,sans-Serif" font-size="10.00">pocketmine\block\Pressure</text>
<text text-anchor="middle" x="337.59" y="-312.5" font-family="Helvetica,sans-Serif" font-size="10.00">Plate</text>
<polyline fill="none" stroke="#bfbfbf" points="257.09,-305.5 418.09,-305.5 "/>
<text text-anchor="middle" x="337.59" y="-293.5" font-family="Helvetica,sans-Serif" font-size="10.00"> </text>
<polyline fill="none" stroke="#bfbfbf" points="257.09,-286.5 418.09,-286.5 "/>
<text text-anchor="start" x="265.09" y="-274.5" font-family="Helvetica,sans-Serif" font-size="10.00">+ getSupportType()</text>
<text text-anchor="start" x="265.09" y="-263.5" font-family="Helvetica,sans-Serif" font-size="10.00">+ isSolid()</text>
<text text-anchor="start" x="265.09" y="-252.5" font-family="Helvetica,sans-Serif" font-size="10.00">+ place()</text>
<text text-anchor="start" x="265.09" y="-241.5" font-family="Helvetica,sans-Serif" font-size="10.00"># recalculateCollisionBoxes()</text>
</a>
</g>
</g>
<!-- Node3&#45;&gt;Node2 -->
<g id="edge2" class="edge">
<title>Node3&#45;&gt;Node2</title>
<path fill="none" stroke="midnightblue" d="M337.59,-224C337.59,-214.8 337.59,-205.45 337.59,-196.67"/>
<polygon fill="none" stroke="midnightblue" points="334.09,-224.29 337.59,-234.29 341.09,-224.29 334.09,-224.29"/>
</g>
<!-- Node4 -->
<g id="node4" class="node">
<title>Node4</title>
<g id="a_node4"><a xlink:href="../../d5/d1b/classpocketmine_1_1block_1_1_transparent.html" target="_top" xlink:title=" ">
<polygon fill="white" stroke="#bfbfbf" points="256.09,-373.5 256.09,-430.5 419.09,-430.5 419.09,-373.5 256.09,-373.5"/>
<text text-anchor="middle" x="337.59" y="-418.5" font-family="Helvetica,sans-Serif" font-size="10.00">pocketmine\block\Transparent</text>
<polyline fill="none" stroke="#bfbfbf" points="256.09,-411.5 419.09,-411.5 "/>
<text text-anchor="middle" x="337.59" y="-399.5" font-family="Helvetica,sans-Serif" font-size="10.00"> </text>
<polyline fill="none" stroke="#bfbfbf" points="256.09,-392.5 419.09,-392.5 "/>
<text text-anchor="start" x="264.09" y="-380.5" font-family="Helvetica,sans-Serif" font-size="10.00">+ isTransparent()</text>
</a>
</g>
</g>
<!-- Node4&#45;&gt;Node3 -->
<g id="edge3" class="edge">
<title>Node4&#45;&gt;Node3</title>
<path fill="none" stroke="midnightblue" d="M337.59,-363.19C337.59,-354.43 337.59,-344.99 337.59,-335.81"/>
<polygon fill="none" stroke="midnightblue" points="334.09,-363.45 337.59,-373.45 341.09,-363.45 334.09,-363.45"/>
</g>
<!-- Node5 -->
<g id="node5" class="node">
<title>Node5</title>
<g id="a_node5"><a xlink:href="../../d7/d27/classpocketmine_1_1block_1_1_block.html" target="_top" xlink:title=" ">
<polygon fill="white" stroke="#bfbfbf" points="257.09,-468.5 257.09,-690.5 418.09,-690.5 418.09,-468.5 257.09,-468.5"/>
<text text-anchor="middle" x="337.59" y="-678.5" font-family="Helvetica,sans-Serif" font-size="10.00">pocketmine\block\Block</text>
<polyline fill="none" stroke="#bfbfbf" points="257.09,-671.5 418.09,-671.5 "/>
<text text-anchor="start" x="265.09" y="-659.5" font-family="Helvetica,sans-Serif" font-size="10.00"># $collisionBoxes</text>
<text text-anchor="start" x="265.09" y="-648.5" font-family="Helvetica,sans-Serif" font-size="10.00"># $fallbackName</text>
<polyline fill="none" stroke="#bfbfbf" points="257.09,-641.5 418.09,-641.5 "/>
<text text-anchor="start" x="265.09" y="-629.5" font-family="Helvetica,sans-Serif" font-size="10.00">+ __construct()</text>
<text text-anchor="start" x="265.09" y="-618.5" font-family="Helvetica,sans-Serif" font-size="10.00">+ __clone()</text>
<text text-anchor="start" x="265.09" y="-607.5" font-family="Helvetica,sans-Serif" font-size="10.00">+ __toString()</text>
<text text-anchor="start" x="265.09" y="-596.5" font-family="Helvetica,sans-Serif" font-size="10.00">+ addVelocityToEntity()</text>
<text text-anchor="start" x="265.09" y="-585.5" font-family="Helvetica,sans-Serif" font-size="10.00">+ asItem()</text>
<text text-anchor="start" x="265.09" y="-574.5" font-family="Helvetica,sans-Serif" font-size="10.00">+ blocksDirectSkyLight()</text>
<text text-anchor="start" x="265.09" y="-563.5" font-family="Helvetica,sans-Serif" font-size="10.00">+ burnsForever()</text>
<text text-anchor="start" x="265.09" y="-552.5" font-family="Helvetica,sans-Serif" font-size="10.00">+ calculateIntercept()</text>
<text text-anchor="start" x="265.09" y="-541.5" font-family="Helvetica,sans-Serif" font-size="10.00">+ canBeFlowedInto()</text>
<text text-anchor="start" x="265.09" y="-530.5" font-family="Helvetica,sans-Serif" font-size="10.00">+ canBePlaced()</text>
<text text-anchor="start" x="265.09" y="-519.5" font-family="Helvetica,sans-Serif" font-size="10.00">and 57 more...</text>
<text text-anchor="start" x="265.09" y="-508.5" font-family="Helvetica,sans-Serif" font-size="10.00"># getXpDropAmount()</text>
<text text-anchor="start" x="265.09" y="-497.5" font-family="Helvetica,sans-Serif" font-size="10.00"># recalculateCollisionBoxes()</text>
<text text-anchor="start" x="265.09" y="-486.5" font-family="Helvetica,sans-Serif" font-size="10.00"># writeStateToItemMeta()</text>
<text text-anchor="start" x="265.09" y="-475.5" font-family="Helvetica,sans-Serif" font-size="10.00"># writeStateToMeta()</text>
</a>
</g>
</g>
<!-- Node5&#45;&gt;Node4 -->
<g id="edge4" class="edge">
<title>Node5&#45;&gt;Node4</title>
<path fill="none" stroke="midnightblue" d="M337.59,-458.09C337.59,-448.03 337.59,-438.64 337.59,-430.56"/>
<polygon fill="none" stroke="midnightblue" points="334.09,-458.35 337.59,-468.35 341.09,-458.35 334.09,-458.35"/>
</g>
<!-- Node6 -->
<g id="node6" class="node">
<title>Node6</title>
<g id="a_node6"><a xlink:title=" ">
<polygon fill="white" stroke="#bfbfbf" points="69.09,-1600.5 69.09,-1657.5 112.09,-1657.5 112.09,-1600.5 69.09,-1600.5"/>
<text text-anchor="middle" x="90.59" y="-1645.5" font-family="Helvetica,sans-Serif" font-size="10.00">const</text>
<polyline fill="none" stroke="#bfbfbf" points="69.09,-1638.5 112.09,-1638.5 "/>
<text text-anchor="middle" x="90.59" y="-1626.5" font-family="Helvetica,sans-Serif" font-size="10.00"> </text>
<polyline fill="none" stroke="#bfbfbf" points="69.09,-1619.5 112.09,-1619.5 "/>
<text text-anchor="middle" x="90.59" y="-1607.5" font-family="Helvetica,sans-Serif" font-size="10.00"> </text>
</a>
</g>
</g>
<!-- Node6&#45;&gt;Node5 -->
<g id="edge5" class="edge">
<title>Node6&#45;&gt;Node5</title>
<path fill="none" stroke="#404040" d="M80.68,-1600.24C46.59,-1500.13 -58.25,-1149.83 44.59,-891 85.17,-788.87 177.04,-700.88 247.17,-644.92"/>
<polygon fill="none" stroke="#404040" points="247.49,-644.66 249.72,-637.81 256.91,-637.23 254.68,-644.09 247.49,-644.66"/>
<text text-anchor="start" x="44.59" y="-983.5" font-family="Helvetica,sans-Serif" font-size="10.00"> +INTERNAL_METADATA</text>
<text text-anchor="middle" x="119.09" y="-972.5" font-family="Helvetica,sans-Serif" font-size="10.00">_BITS</text>
<text text-anchor="middle" x="119.09" y="-961.5" font-family="Helvetica,sans-Serif" font-size="10.00">+INTERNAL_METADATA_MASK</text>
</g>
<!-- Node8 -->
<g id="node8" class="node">
<title>Node8</title>
<g id="a_node8"><a xlink:href="../../d3/d10/classpocketmine_1_1block_1_1_block_break_info.html" target="_top" xlink:title=" ">
<polygon fill="white" stroke="#bfbfbf" points="202.59,-891.5 202.59,-1058.5 382.59,-1058.5 382.59,-891.5 202.59,-891.5"/>
<text text-anchor="middle" x="292.59" y="-1046.5" font-family="Helvetica,sans-Serif" font-size="10.00">pocketmine\block\BlockBreakInfo</text>
<polyline fill="none" stroke="#bfbfbf" points="202.59,-1039.5 382.59,-1039.5 "/>
<text text-anchor="middle" x="292.59" y="-1027.5" font-family="Helvetica,sans-Serif" font-size="10.00"> </text>
<polyline fill="none" stroke="#bfbfbf" points="202.59,-1020.5 382.59,-1020.5 "/>
<text text-anchor="start" x="210.59" y="-1008.5" font-family="Helvetica,sans-Serif" font-size="10.00">+ __construct()</text>
<text text-anchor="start" x="210.59" y="-997.5" font-family="Helvetica,sans-Serif" font-size="10.00">+ breaksInstantly()</text>
<text text-anchor="start" x="210.59" y="-986.5" font-family="Helvetica,sans-Serif" font-size="10.00">+ getBlastResistance()</text>
<text text-anchor="start" x="210.59" y="-975.5" font-family="Helvetica,sans-Serif" font-size="10.00">+ getBreakTime()</text>
<text text-anchor="start" x="210.59" y="-964.5" font-family="Helvetica,sans-Serif" font-size="10.00">+ getHardness()</text>
<text text-anchor="start" x="210.59" y="-953.5" font-family="Helvetica,sans-Serif" font-size="10.00">+ getToolHarvestLevel()</text>
<text text-anchor="start" x="210.59" y="-942.5" font-family="Helvetica,sans-Serif" font-size="10.00">+ getToolType()</text>
<text text-anchor="start" x="210.59" y="-931.5" font-family="Helvetica,sans-Serif" font-size="10.00">+ isBreakable()</text>
<text text-anchor="start" x="210.59" y="-920.5" font-family="Helvetica,sans-Serif" font-size="10.00">+ isToolCompatible()</text>
<text text-anchor="start" x="210.59" y="-909.5" font-family="Helvetica,sans-Serif" font-size="10.00">+ indestructible()</text>
<text text-anchor="start" x="210.59" y="-898.5" font-family="Helvetica,sans-Serif" font-size="10.00">+ instant()</text>
</a>
</g>
</g>
<!-- Node6&#45;&gt;Node8 -->
<g id="edge8" class="edge">
<title>Node6&#45;&gt;Node8</title>
<path fill="none" stroke="#404040" d="M86.11,-1600.23C80.16,-1557.76 72.12,-1474.42 87.59,-1406 115.48,-1282.68 183.17,-1153.31 233.17,-1069.08"/>
<polygon fill="none" stroke="#404040" points="233.17,-1069.08 232.82,-1061.88 239.33,-1058.79 239.69,-1065.99 233.17,-1069.08"/>
<text text-anchor="middle" x="175.09" y="-1475" font-family="Helvetica,sans-Serif" font-size="10.00"> +COMPATIBLE_TOOL_MULTIPLIER</text>
<text text-anchor="middle" x="175.09" y="-1464" font-family="Helvetica,sans-Serif" font-size="10.00">+INCOMPATIBLE_TOOL_MULTIPLIER</text>
</g>
<!-- Node11 -->
<g id="node11" class="node">
<title>Node11</title>
<g id="a_node11"><a xlink:href="../../d4/d2b/classpocketmine_1_1world_1_1_world.html" target="_top" xlink:title=" ">
<polygon fill="white" stroke="#bfbfbf" points="357.59,-1077.5 357.59,-1387.5 529.59,-1387.5 529.59,-1077.5 357.59,-1077.5"/>
<text text-anchor="middle" x="443.59" y="-1375.5" font-family="Helvetica,sans-Serif" font-size="10.00">pocketmine\world\World</text>
<polyline fill="none" stroke="#bfbfbf" points="357.59,-1368.5 529.59,-1368.5 "/>
<text text-anchor="start" x="365.59" y="-1356.5" font-family="Helvetica,sans-Serif" font-size="10.00">+ $stopTime</text>
<text text-anchor="start" x="365.59" y="-1345.5" font-family="Helvetica,sans-Serif" font-size="10.00">+ $tickRateTime</text>
<text text-anchor="start" x="365.59" y="-1334.5" font-family="Helvetica,sans-Serif" font-size="10.00">+ $updateEntities</text>
<text text-anchor="start" x="365.59" y="-1323.5" font-family="Helvetica,sans-Serif" font-size="10.00">+ TIME_SUNRISE</text>
<text text-anchor="start" x="365.59" y="-1312.5" font-family="Helvetica,sans-Serif" font-size="10.00">+ TIME_SUNSET</text>
<text text-anchor="start" x="365.59" y="-1301.5" font-family="Helvetica,sans-Serif" font-size="10.00">+ Y_MAX</text>
<text text-anchor="start" x="365.59" y="-1290.5" font-family="Helvetica,sans-Serif" font-size="10.00">+ Y_MIN</text>
<polyline fill="none" stroke="#bfbfbf" points="357.59,-1283.5 529.59,-1283.5 "/>
<text text-anchor="start" x="365.59" y="-1271.5" font-family="Helvetica,sans-Serif" font-size="10.00">+ __construct()</text>
<text text-anchor="start" x="365.59" y="-1260.5" font-family="Helvetica,sans-Serif" font-size="10.00">+ __debugInfo()</text>
<text text-anchor="start" x="365.59" y="-1249.5" font-family="Helvetica,sans-Serif" font-size="10.00">+ addEntity()</text>
<text text-anchor="start" x="365.59" y="-1238.5" font-family="Helvetica,sans-Serif" font-size="10.00">+ addOnUnloadCallback()</text>
<text text-anchor="start" x="365.59" y="-1227.5" font-family="Helvetica,sans-Serif" font-size="10.00">+ addParticle()</text>
<text text-anchor="start" x="365.59" y="-1216.5" font-family="Helvetica,sans-Serif" font-size="10.00">+ addRandomTickedBlock()</text>
<text text-anchor="start" x="365.59" y="-1205.5" font-family="Helvetica,sans-Serif" font-size="10.00">+ addSound()</text>
<text text-anchor="start" x="365.59" y="-1194.5" font-family="Helvetica,sans-Serif" font-size="10.00">+ addTile()</text>
<text text-anchor="start" x="365.59" y="-1183.5" font-family="Helvetica,sans-Serif" font-size="10.00">+ broadcastPacketToViewers()</text>
<text text-anchor="start" x="365.59" y="-1172.5" font-family="Helvetica,sans-Serif" font-size="10.00">+ cancelUnloadChunkRequest()</text>
<text text-anchor="start" x="365.59" y="-1161.5" font-family="Helvetica,sans-Serif" font-size="10.00">and 113 more...</text>
<text text-anchor="start" x="365.59" y="-1150.5" font-family="Helvetica,sans-Serif" font-size="10.00">+ blockHash()</text>
<text text-anchor="start" x="365.59" y="-1139.5" font-family="Helvetica,sans-Serif" font-size="10.00">+ chunkBlockHash()</text>
<text text-anchor="start" x="365.59" y="-1128.5" font-family="Helvetica,sans-Serif" font-size="10.00">+ chunkHash()</text>
<text text-anchor="start" x="365.59" y="-1117.5" font-family="Helvetica,sans-Serif" font-size="10.00">+ getBlockXYZ()</text>
<text text-anchor="start" x="365.59" y="-1106.5" font-family="Helvetica,sans-Serif" font-size="10.00">+ getDifficultyFromString()</text>
<text text-anchor="start" x="365.59" y="-1095.5" font-family="Helvetica,sans-Serif" font-size="10.00">+ getXZ()</text>
<text text-anchor="start" x="365.59" y="-1084.5" font-family="Helvetica,sans-Serif" font-size="10.00"># actuallyDoTick()</text>
</a>
</g>
</g>
<!-- Node6&#45;&gt;Node11 -->
<g id="edge13" class="edge">
<title>Node6&#45;&gt;Node11</title>
<path fill="none" stroke="#404040" d="M112.16,-1623.17C149.54,-1613.63 226.24,-1588.78 266.59,-1538 304.22,-1490.66 272.19,-1459.91 299.59,-1406 312.95,-1379.71 330.98,-1353.91 349.75,-1330.6"/>
<polygon fill="none" stroke="#404040" points="349.92,-1330.39 350.64,-1323.21 357.54,-1321.11 356.82,-1328.29 349.92,-1330.39"/>
<text text-anchor="start" x="299.59" y="-1530" font-family="Helvetica,sans-Serif" font-size="10.00"> +DEFAULT_TICKED_BLOCKS</text>
<text text-anchor="middle" x="369.59" y="-1519" font-family="Helvetica,sans-Serif" font-size="10.00">_PER_SUBCHUNK_PER_TICK</text>
<text text-anchor="middle" x="369.59" y="-1508" font-family="Helvetica,sans-Serif" font-size="10.00">+DIFFICULTY_EASY</text>
<text text-anchor="middle" x="369.59" y="-1497" font-family="Helvetica,sans-Serif" font-size="10.00">+DIFFICULTY_HARD</text>
<text text-anchor="middle" x="369.59" y="-1486" font-family="Helvetica,sans-Serif" font-size="10.00">+DIFFICULTY_NORMAL</text>
<text text-anchor="middle" x="369.59" y="-1475" font-family="Helvetica,sans-Serif" font-size="10.00">+DIFFICULTY_PEACEFUL</text>
<text text-anchor="middle" x="369.59" y="-1464" font-family="Helvetica,sans-Serif" font-size="10.00">+TIME_DAY</text>
<text text-anchor="middle" x="369.59" y="-1453" font-family="Helvetica,sans-Serif" font-size="10.00">+TIME_FULL</text>
<text text-anchor="middle" x="369.59" y="-1442" font-family="Helvetica,sans-Serif" font-size="10.00">+TIME_MIDNIGHT</text>
<text text-anchor="middle" x="369.59" y="-1431" font-family="Helvetica,sans-Serif" font-size="10.00">+TIME_NIGHT</text>
<text text-anchor="middle" x="369.59" y="-1420" font-family="Helvetica,sans-Serif" font-size="10.00">+TIME_NOON</text>
<text text-anchor="middle" x="369.59" y="-1409" font-family="Helvetica,sans-Serif" font-size="10.00">...</text>
</g>
<!-- Node7 -->
<g id="node7" class="node">
<title>Node7</title>
<g id="a_node7"><a xlink:href="../../dd/d18/classpocketmine_1_1block_1_1_block_identifier.html" target="_top" xlink:title=" ">
<polygon fill="white" stroke="#bfbfbf" points="536.59,-749.5 536.59,-861.5 712.59,-861.5 712.59,-749.5 536.59,-749.5"/>
<text text-anchor="middle" x="624.59" y="-849.5" font-family="Helvetica,sans-Serif" font-size="10.00">pocketmine\block\BlockIdentifier</text>
<polyline fill="none" stroke="#bfbfbf" points="536.59,-842.5 712.59,-842.5 "/>
<text text-anchor="middle" x="624.59" y="-830.5" font-family="Helvetica,sans-Serif" font-size="10.00"> </text>
<polyline fill="none" stroke="#bfbfbf" points="536.59,-823.5 712.59,-823.5 "/>
<text text-anchor="start" x="544.59" y="-811.5" font-family="Helvetica,sans-Serif" font-size="10.00">+ __construct()</text>
<text text-anchor="start" x="544.59" y="-800.5" font-family="Helvetica,sans-Serif" font-size="10.00">+ getAllBlockIds()</text>
<text text-anchor="start" x="544.59" y="-789.5" font-family="Helvetica,sans-Serif" font-size="10.00">+ getBlockId()</text>
<text text-anchor="start" x="544.59" y="-778.5" font-family="Helvetica,sans-Serif" font-size="10.00">+ getItemId()</text>
<text text-anchor="start" x="544.59" y="-767.5" font-family="Helvetica,sans-Serif" font-size="10.00">+ getTileClass()</text>
<text text-anchor="start" x="544.59" y="-756.5" font-family="Helvetica,sans-Serif" font-size="10.00">+ getVariant()</text>
</a>
</g>
</g>
<!-- Node7&#45;&gt;Node5 -->
<g id="edge6" class="edge">
<title>Node7&#45;&gt;Node5</title>
<path fill="none" stroke="#404040" d="M554.02,-749.42C515.99,-719.74 468.65,-682.79 427.96,-651.03"/>
<polygon fill="none" stroke="#404040" points="427.76,-650.88 420.57,-650.34 418.3,-643.49 425.49,-644.03 427.76,-650.88"/>
<text text-anchor="middle" x="537.59" y="-712" font-family="Helvetica,sans-Serif" font-size="10.00"> #$idInfo</text>
</g>
<!-- Node8&#45;&gt;Node5 -->
<g id="edge7" class="edge">
<title>Node8&#45;&gt;Node5</title>
<path fill="none" stroke="#404040" d="M290.87,-891.47C290.97,-846.01 292.8,-788.68 299.59,-738 301.15,-726.4 303.2,-714.4 305.55,-702.45"/>
<polygon fill="none" stroke="#404040" points="305.58,-702.28 302.87,-695.6 307.99,-690.53 310.71,-697.21 305.58,-702.28"/>
<text text-anchor="middle" x="331.59" y="-803" font-family="Helvetica,sans-Serif" font-size="10.00"> #$breakInfo</text>
</g>
<!-- Node9 -->
<g id="node9" class="node">
<title>Node9</title>
<g id="a_node9"><a xlink:href="../../d5/dd2/classpocketmine_1_1world_1_1_position.html" target="_top" xlink:title=" ">
<polygon fill="white" stroke="#bfbfbf" points="372.59,-738.5 372.59,-872.5 518.59,-872.5 518.59,-738.5 372.59,-738.5"/>
<text text-anchor="middle" x="445.59" y="-860.5" font-family="Helvetica,sans-Serif" font-size="10.00">pocketmine\world\Position</text>
<polyline fill="none" stroke="#bfbfbf" points="372.59,-853.5 518.59,-853.5 "/>
<text text-anchor="middle" x="445.59" y="-841.5" font-family="Helvetica,sans-Serif" font-size="10.00"> </text>
<polyline fill="none" stroke="#bfbfbf" points="372.59,-834.5 518.59,-834.5 "/>
<text text-anchor="start" x="380.59" y="-822.5" font-family="Helvetica,sans-Serif" font-size="10.00">+ __construct()</text>
<text text-anchor="start" x="380.59" y="-811.5" font-family="Helvetica,sans-Serif" font-size="10.00">+ __toString()</text>
<text text-anchor="start" x="380.59" y="-800.5" font-family="Helvetica,sans-Serif" font-size="10.00">+ asPosition()</text>
<text text-anchor="start" x="380.59" y="-789.5" font-family="Helvetica,sans-Serif" font-size="10.00">+ equals()</text>
<text text-anchor="start" x="380.59" y="-778.5" font-family="Helvetica,sans-Serif" font-size="10.00">+ getSide()</text>
<text text-anchor="start" x="380.59" y="-767.5" font-family="Helvetica,sans-Serif" font-size="10.00">+ getWorld()</text>
<text text-anchor="start" x="380.59" y="-756.5" font-family="Helvetica,sans-Serif" font-size="10.00">+ isValid()</text>
<text text-anchor="start" x="380.59" y="-745.5" font-family="Helvetica,sans-Serif" font-size="10.00">+ fromObject()</text>
</a>
</g>
</g>
<!-- Node9&#45;&gt;Node5 -->
<g id="edge9" class="edge">
<title>Node9&#45;&gt;Node5</title>
<path fill="none" stroke="#404040" d="M413.63,-738.2C408.05,-726.63 402.09,-714.27 396.05,-701.75"/>
<polygon fill="none" stroke="#404040" points="395.95,-701.54 389.74,-697.87 390.74,-690.73 396.95,-694.4 395.95,-701.54"/>
<text text-anchor="middle" x="433.09" y="-712" font-family="Helvetica,sans-Serif" font-size="10.00"> #$position</text>
</g>
<!-- Node10 -->
<g id="node10" class="node">
<title>Node10</title>
<g id="a_node10"><a xlink:href="../../d2/d90/classpocketmine_1_1math_1_1_vector3.html" target="_top" xlink:title=" ">
<polygon fill="white" stroke="#bfbfbf" points="547.59,-1116 547.59,-1349 689.59,-1349 689.59,-1116 547.59,-1116"/>
<text text-anchor="middle" x="618.59" y="-1337" font-family="Helvetica,sans-Serif" font-size="10.00">pocketmine\math\Vector3</text>
<polyline fill="none" stroke="#bfbfbf" points="547.59,-1330 689.59,-1330 "/>
<text text-anchor="start" x="555.59" y="-1318" font-family="Helvetica,sans-Serif" font-size="10.00">+ $x</text>
<text text-anchor="start" x="555.59" y="-1307" font-family="Helvetica,sans-Serif" font-size="10.00">+ $y</text>
<text text-anchor="start" x="555.59" y="-1296" font-family="Helvetica,sans-Serif" font-size="10.00">+ $z</text>
<polyline fill="none" stroke="#bfbfbf" points="547.59,-1289 689.59,-1289 "/>
<text text-anchor="start" x="555.59" y="-1277" font-family="Helvetica,sans-Serif" font-size="10.00">+ __construct()</text>
<text text-anchor="start" x="555.59" y="-1266" font-family="Helvetica,sans-Serif" font-size="10.00">+ __toString()</text>
<text text-anchor="start" x="555.59" y="-1255" font-family="Helvetica,sans-Serif" font-size="10.00">+ abs()</text>
<text text-anchor="start" x="555.59" y="-1244" font-family="Helvetica,sans-Serif" font-size="10.00">+ add()</text>
<text text-anchor="start" x="555.59" y="-1233" font-family="Helvetica,sans-Serif" font-size="10.00">+ addVector()</text>
<text text-anchor="start" x="555.59" y="-1222" font-family="Helvetica,sans-Serif" font-size="10.00">+ asVector3()</text>
<text text-anchor="start" x="555.59" y="-1211" font-family="Helvetica,sans-Serif" font-size="10.00">+ ceil()</text>
<text text-anchor="start" x="555.59" y="-1200" font-family="Helvetica,sans-Serif" font-size="10.00">+ cross()</text>
<text text-anchor="start" x="555.59" y="-1189" font-family="Helvetica,sans-Serif" font-size="10.00">+ distance()</text>
<text text-anchor="start" x="555.59" y="-1178" font-family="Helvetica,sans-Serif" font-size="10.00">+ distanceSquared()</text>
<text text-anchor="start" x="555.59" y="-1167" font-family="Helvetica,sans-Serif" font-size="10.00">and 32 more...</text>
<text text-anchor="start" x="555.59" y="-1156" font-family="Helvetica,sans-Serif" font-size="10.00">+ maxComponents()</text>
<text text-anchor="start" x="555.59" y="-1145" font-family="Helvetica,sans-Serif" font-size="10.00">+ minComponents()</text>
<text text-anchor="start" x="555.59" y="-1134" font-family="Helvetica,sans-Serif" font-size="10.00">+ sum()</text>
<text text-anchor="start" x="555.59" y="-1123" font-family="Helvetica,sans-Serif" font-size="10.00">+ zero()</text>
</a>
</g>
</g>
<!-- Node10&#45;&gt;Node9 -->
<g id="edge10" class="edge">
<title>Node10&#45;&gt;Node9</title>
<path fill="none" stroke="midnightblue" d="M578.96,-1106.44C556.79,-1041.12 527.1,-960.53 494.59,-891 491.79,-885.01 488.71,-878.88 485.49,-872.8"/>
<polygon fill="none" stroke="midnightblue" points="575.66,-1107.61 582.17,-1115.96 582.29,-1105.37 575.66,-1107.61"/>
</g>
<!-- Node11&#45;&gt;Node9 -->
<g id="edge11" class="edge">
<title>Node11&#45;&gt;Node9</title>
<path fill="none" stroke="#404040" d="M444.32,-1077.46C444.63,-1012.12 444.97,-938.78 445.22,-884.89"/>
<polygon fill="none" stroke="#404040" points="445.22,-884.67 441.25,-878.65 445.28,-872.67 449.25,-878.68 445.22,-884.67"/>
<text text-anchor="middle" x="468.09" y="-972.5" font-family="Helvetica,sans-Serif" font-size="10.00"> +$world</text>
</g>
<!-- Node12 -->
<g id="node12" class="node">
<title>Node12</title>
<g id="a_node12"><a xlink:href="../../d0/d03/interfacepocketmine_1_1world_1_1_chunk_manager.html" target="_top" xlink:title=" ">
<polygon fill="white" stroke="#bfbfbf" points="353.59,-1567.5 353.59,-1690.5 533.59,-1690.5 533.59,-1567.5 353.59,-1567.5"/>
<text text-anchor="middle" x="443.59" y="-1678.5" font-family="Helvetica,sans-Serif" font-size="10.00">pocketmine\world\ChunkManager</text>
<polyline fill="none" stroke="#bfbfbf" points="353.59,-1671.5 533.59,-1671.5 "/>
<text text-anchor="middle" x="443.59" y="-1659.5" font-family="Helvetica,sans-Serif" font-size="10.00"> </text>
<polyline fill="none" stroke="#bfbfbf" points="353.59,-1652.5 533.59,-1652.5 "/>
<text text-anchor="start" x="361.59" y="-1640.5" font-family="Helvetica,sans-Serif" font-size="10.00">+ getBlockAt()</text>
<text text-anchor="start" x="361.59" y="-1629.5" font-family="Helvetica,sans-Serif" font-size="10.00">+ getChunk()</text>
<text text-anchor="start" x="361.59" y="-1618.5" font-family="Helvetica,sans-Serif" font-size="10.00">+ getMaxY()</text>
<text text-anchor="start" x="361.59" y="-1607.5" font-family="Helvetica,sans-Serif" font-size="10.00">+ getMinY()</text>
<text text-anchor="start" x="361.59" y="-1596.5" font-family="Helvetica,sans-Serif" font-size="10.00">+ isInWorld()</text>
<text text-anchor="start" x="361.59" y="-1585.5" font-family="Helvetica,sans-Serif" font-size="10.00">+ setBlockAt()</text>
<text text-anchor="start" x="361.59" y="-1574.5" font-family="Helvetica,sans-Serif" font-size="10.00">+ setChunk()</text>
</a>
</g>
</g>
<!-- Node12&#45;&gt;Node11 -->
<g id="edge12" class="edge">
<title>Node12&#45;&gt;Node11</title>
<path fill="none" stroke="midnightblue" d="M443.59,-1557.12C443.59,-1509.96 443.59,-1446.15 443.59,-1387.65"/>
<polygon fill="none" stroke="midnightblue" points="440.09,-1557.22 443.59,-1567.22 447.09,-1557.22 440.09,-1557.22"/>
</g>
<!-- Node13 -->
<g id="node13" class="node">
<title>Node13</title>
<g id="a_node13"><a xlink:href="../../d7/d08/classpocketmine_1_1world_1_1_world_timings.html" target="_top" xlink:title=" ">
<polygon fill="white" stroke="#bfbfbf" points="552.09,-1556.5 552.09,-1701.5 725.09,-1701.5 725.09,-1556.5 552.09,-1556.5"/>
<text text-anchor="middle" x="638.59" y="-1689.5" font-family="Helvetica,sans-Serif" font-size="10.00">pocketmine\world\WorldTimings</text>
<polyline fill="none" stroke="#bfbfbf" points="552.09,-1682.5 725.09,-1682.5 "/>
<text text-anchor="start" x="560.09" y="-1670.5" font-family="Helvetica,sans-Serif" font-size="10.00">+ $syncChunkLoad</text>
<text text-anchor="start" x="560.09" y="-1659.5" font-family="Helvetica,sans-Serif" font-size="10.00">+ $syncChunkLoadData</text>
<text text-anchor="start" x="560.09" y="-1648.5" font-family="Helvetica,sans-Serif" font-size="10.00">+ $syncChunkLoadEntities</text>
<text text-anchor="start" x="560.09" y="-1637.5" font-family="Helvetica,sans-Serif" font-size="10.00">+ $syncChunkLoadFixInvalid</text>
<text text-anchor="start" x="560.09" y="-1626.5" font-family="Helvetica,sans-Serif" font-size="10.00">Blocks</text>
<text text-anchor="start" x="560.09" y="-1615.5" font-family="Helvetica,sans-Serif" font-size="10.00">+ $syncChunkLoadTileEntities</text>
<text text-anchor="start" x="560.09" y="-1604.5" font-family="Helvetica,sans-Serif" font-size="10.00">+ $syncChunkSave</text>
<text text-anchor="start" x="560.09" y="-1593.5" font-family="Helvetica,sans-Serif" font-size="10.00">+ $syncChunkSend</text>
<text text-anchor="start" x="560.09" y="-1582.5" font-family="Helvetica,sans-Serif" font-size="10.00">+ $syncChunkSendPrepare</text>
<polyline fill="none" stroke="#bfbfbf" points="552.09,-1575.5 725.09,-1575.5 "/>
<text text-anchor="start" x="560.09" y="-1563.5" font-family="Helvetica,sans-Serif" font-size="10.00">+ __construct()</text>
</a>
</g>
</g>
<!-- Node13&#45;&gt;Node11 -->
<g id="edge14" class="edge">
<title>Node13&#45;&gt;Node11</title>
<path fill="none" stroke="#404040" d="M603.05,-1556.1C581.27,-1512.04 552.45,-1453.72 525.3,-1398.79"/>
<polygon fill="none" stroke="#404040" points="525.21,-1398.62 518.97,-1395.01 519.89,-1387.86 526.14,-1391.47 525.21,-1398.62"/>
<text text-anchor="middle" x="618.09" y="-1469.5" font-family="Helvetica,sans-Serif" font-size="10.00"> +$timings</text>
</g>
<!-- Node14 -->
<g id="node14" class="node">
<title>Node14</title>
<g id="a_node14"><a xlink:href="../../d7/d9b/classpocketmine_1_1timings_1_1_timings_handler.html" target="_top" xlink:title=" ">
<polygon fill="white" stroke="#bfbfbf" points="582.09,-1870.5 582.09,-2059.5 695.09,-2059.5 695.09,-1870.5 582.09,-1870.5"/>
<text text-anchor="start" x="590.09" y="-2047.5" font-family="Helvetica,sans-Serif" font-size="10.00">pocketmine\timings</text>
<text text-anchor="middle" x="638.59" y="-2036.5" font-family="Helvetica,sans-Serif" font-size="10.00">\TimingsHandler</text>
<polyline fill="none" stroke="#bfbfbf" points="582.09,-2029.5 695.09,-2029.5 "/>
<text text-anchor="middle" x="638.59" y="-2017.5" font-family="Helvetica,sans-Serif" font-size="10.00"> </text>
<polyline fill="none" stroke="#bfbfbf" points="582.09,-2010.5 695.09,-2010.5 "/>
<text text-anchor="start" x="590.09" y="-1998.5" font-family="Helvetica,sans-Serif" font-size="10.00">+ __construct()</text>
<text text-anchor="start" x="590.09" y="-1987.5" font-family="Helvetica,sans-Serif" font-size="10.00">+ destroyCycles()</text>
<text text-anchor="start" x="590.09" y="-1976.5" font-family="Helvetica,sans-Serif" font-size="10.00">+ getName()</text>
<text text-anchor="start" x="590.09" y="-1965.5" font-family="Helvetica,sans-Serif" font-size="10.00">+ startTiming()</text>
<text text-anchor="start" x="590.09" y="-1954.5" font-family="Helvetica,sans-Serif" font-size="10.00">+ stopTiming()</text>
<text text-anchor="start" x="590.09" y="-1943.5" font-family="Helvetica,sans-Serif" font-size="10.00">+ time()</text>
<text text-anchor="start" x="590.09" y="-1932.5" font-family="Helvetica,sans-Serif" font-size="10.00">+ getStartTime()</text>
<text text-anchor="start" x="590.09" y="-1921.5" font-family="Helvetica,sans-Serif" font-size="10.00">+ isEnabled()</text>
<text text-anchor="start" x="590.09" y="-1910.5" font-family="Helvetica,sans-Serif" font-size="10.00">+ printTimings()</text>
<text text-anchor="start" x="590.09" y="-1899.5" font-family="Helvetica,sans-Serif" font-size="10.00">+ reload()</text>
<text text-anchor="start" x="590.09" y="-1888.5" font-family="Helvetica,sans-Serif" font-size="10.00">+ setEnabled()</text>
<text text-anchor="start" x="590.09" y="-1877.5" font-family="Helvetica,sans-Serif" font-size="10.00">+ tick()</text>
</a>
</g>
</g>
<!-- Node14&#45;&gt;Node13 -->
<g id="edge15" class="edge">
<title>Node14&#45;&gt;Node13</title>
<path fill="none" stroke="#404040" d="M638.59,-1870.07C638.59,-1820.91 638.59,-1761.21 638.59,-1713.65"/>
<polygon fill="none" stroke="#404040" points="638.59,-1713.52 634.59,-1707.52 638.59,-1701.52 642.59,-1707.52 638.59,-1713.52"/>
<text text-anchor="middle" x="715.59" y="-1844" font-family="Helvetica,sans-Serif" font-size="10.00"> +$doBlockLightUpdates</text>
<text text-anchor="middle" x="715.59" y="-1833" font-family="Helvetica,sans-Serif" font-size="10.00">+$doBlockSkyLightUpdates</text>
<text text-anchor="middle" x="715.59" y="-1822" font-family="Helvetica,sans-Serif" font-size="10.00">+$doChunkGC</text>
<text text-anchor="middle" x="715.59" y="-1811" font-family="Helvetica,sans-Serif" font-size="10.00">+$doChunkUnload</text>
<text text-anchor="middle" x="715.59" y="-1800" font-family="Helvetica,sans-Serif" font-size="10.00">+$doTick</text>
<text text-anchor="middle" x="715.59" y="-1789" font-family="Helvetica,sans-Serif" font-size="10.00">+$entityTick</text>
<text text-anchor="middle" x="715.59" y="-1778" font-family="Helvetica,sans-Serif" font-size="10.00">+$randomChunkUpdates</text>
<text text-anchor="start" x="638.59" y="-1767" font-family="Helvetica,sans-Serif" font-size="10.00">+$randomChunkUpdatesChunk</text>
<text text-anchor="middle" x="715.59" y="-1756" font-family="Helvetica,sans-Serif" font-size="10.00">Selection</text>
<text text-anchor="middle" x="715.59" y="-1745" font-family="Helvetica,sans-Serif" font-size="10.00">+$scheduledBlockUpdates</text>
<text text-anchor="middle" x="715.59" y="-1734" font-family="Helvetica,sans-Serif" font-size="10.00">+$setBlock</text>
<text text-anchor="middle" x="715.59" y="-1723" font-family="Helvetica,sans-Serif" font-size="10.00">...</text>
</g>
</g>
</svg>
        <g id="navigator" transform="translate(0 0)" fill="#404254">
                <rect fill="#f2f5e9" fill-opacity="0.5" stroke="#606060" stroke-width=".5" x="0" y="0" width="60" height="60"/>
                <use id="zoomplus" xlink:href="#zoomPlus" x="17" y="9" onmousedown="handleZoom(evt,'in')"/>
                <use id="zoomminus" xlink:href="#zoomMin" x="42" y="9" onmousedown="handleZoom(evt,'out')"/>
                <use id="reset" xlink:href="#resetDef" x="30" y="36" onmousedown="handleReset()"/>
                <g id="arrowUp" xlink:href="#dirArrow" transform="translate(30 24)" onmousedown="handlePan(0,-1)">
                  <use xlink:href="#rim" fill="#404040">
                        <set attributeName="fill" to="#808080" begin="arrowUp.mouseover" end="arrowUp.mouseout"/>
                  </use>
                  <path fill="none" stroke="white" stroke-width="1.5" d="M0,-3.0v7 M-2.5,-0.5L0,-3.0L2.5,-0.5"/>
                </g>
                <g id="arrowRight" xlink:href="#dirArrow" transform="rotate(90) translate(36 -43)" onmousedown="handlePan(1,0)">
                  <use xlink:href="#rim" fill="#404040">
                        <set attributeName="fill" to="#808080" begin="arrowRight.mouseover" end="arrowRight.mouseout"/>
                  </use>
                  <path fill="none" stroke="white" stroke-width="1.5" d="M0,-3.0v7 M-2.5,-0.5L0,-3.0L2.5,-0.5"/>
                </g>
                <g id="arrowDown" xlink:href="#dirArrow" transform="rotate(180) translate(-30 -48)" onmousedown="handlePan(0,1)">
                  <use xlink:href="#rim" fill="#404040">
                        <set attributeName="fill" to="#808080" begin="arrowDown.mouseover" end="arrowDown.mouseout"/>
                  </use>
                  <path fill="none" stroke="white" stroke-width="1.5" d="M0,-3.0v7 M-2.5,-0.5L0,-3.0L2.5,-0.5"/>
                </g>
                <g id="arrowLeft" xlink:href="#dirArrow" transform="rotate(270) translate(-36 17)" onmousedown="handlePan(-1,0)">
                  <use xlink:href="#rim" fill="#404040">
                        <set attributeName="fill" to="#808080" begin="arrowLeft.mouseover" end="arrowLeft.mouseout"/>
                  </use>
                  <path fill="none" stroke="white" stroke-width="1.5" d="M0,-3.0v7 M-2.5,-0.5L0,-3.0L2.5,-0.5"/>
                </g>
        </g>
        <svg viewBox="0 0 15 15" width="100%" height="30px" preserveAspectRatio="xMaxYMin meet">
         <g id="arrow_out" transform="scale(0.3 0.3)">
          <a xlink:href="classpocketmine_1_1block_1_1_weighted_pressure_plate_light__coll__graph_org.svg" target="_base">
           <rect id="button" ry="5" rx="5" y="6" x="6" height="38" width="38"
                fill="#f2f5e9" fill-opacity="0.5" stroke="#606060" stroke-width="1.0"/>
           <path id="arrow"
             d="M 11.500037,31.436501 C 11.940474,20.09759 22.043105,11.32322 32.158766,21.979434 L 37.068811,17.246167 C 37.068811,17.246167 37.088388,32 37.088388,32 L 22.160133,31.978069 C 22.160133,31.978069 26.997745,27.140456 26.997745,27.140456 C 18.528582,18.264221 13.291696,25.230495 11.500037,31.436501 z"
             style="fill:#404040;"/>
          </a>
         </g>
        </svg>
</svg>
