<?xml version="1.0" encoding="UTF-8" standalone="no"?>
<!DOCTYPE svg PUBLIC "-//W3C//DTD SVG 1.1//EN"
 "http://www.w3.org/Graphics/SVG/1.1/DTD/svg11.dtd">
<!-- Generated by graphviz version 2.43.0 (0)
 -->
<!-- Title: pocketmine\data\runtime\RuntimeDataDescriber Pages: 1 -->
<svg width="460pt" height="539pt"
 viewBox="0.00 0.00 460.00 539.00" xmlns="http://www.w3.org/2000/svg" xmlns:xlink="http://www.w3.org/1999/xlink">
<g id="graph0" class="graph" transform="scale(1 1) rotate(0) translate(4 535)">
<title>pocketmine\data\runtime\RuntimeDataDescriber</title>
<!-- Node1 -->
<g id="Node000001" class="node">
<title>Node1</title>
<g id="a_Node000001"><a xlink:title=" ">
<polygon fill="#999999" stroke="transparent" points="295,-531 157,-531 157,-261 295,-261 295,-531"/>
<text text-anchor="start" x="164" y="-519" font-family="Helvetica,sans-Serif" font-size="10.00">pocketmine\data\runtime</text>
<text text-anchor="start" x="168.5" y="-508" font-family="Helvetica,sans-Serif" font-size="10.00">\RuntimeDataDescriber</text>
<text text-anchor="start" x="224" y="-493" font-family="Helvetica,sans-Serif" font-size="10.00"> </text>
<text text-anchor="start" x="161" y="-478" font-family="Helvetica,sans-Serif" font-size="10.00">+</text>
<text text-anchor="start" x="174" y="-478" font-family="Helvetica,sans-Serif" font-size="10.00">axis()</text>
<text text-anchor="start" x="161" y="-463" font-family="Helvetica,sans-Serif" font-size="10.00">+</text>
<text text-anchor="start" x="174" y="-463" font-family="Helvetica,sans-Serif" font-size="10.00">bool()</text>
<text text-anchor="start" x="161" y="-448" font-family="Helvetica,sans-Serif" font-size="10.00">+</text>
<text text-anchor="start" x="174" y="-448" font-family="Helvetica,sans-Serif" font-size="10.00">boundedIntAuto()</text>
<text text-anchor="start" x="161" y="-433" font-family="Helvetica,sans-Serif" font-size="10.00">+</text>
<text text-anchor="start" x="174" y="-433" font-family="Helvetica,sans-Serif" font-size="10.00">enum()</text>
<text text-anchor="start" x="161" y="-418" font-family="Helvetica,sans-Serif" font-size="10.00">+</text>
<text text-anchor="start" x="174" y="-418" font-family="Helvetica,sans-Serif" font-size="10.00">enumSet()</text>
<text text-anchor="start" x="161" y="-403" font-family="Helvetica,sans-Serif" font-size="10.00">+</text>
<text text-anchor="start" x="174" y="-403" font-family="Helvetica,sans-Serif" font-size="10.00">facing()</text>
<text text-anchor="start" x="161" y="-388" font-family="Helvetica,sans-Serif" font-size="10.00">+</text>
<text text-anchor="start" x="174" y="-388" font-family="Helvetica,sans-Serif" font-size="10.00">facingExcept()</text>
<text text-anchor="start" x="161" y="-373" font-family="Helvetica,sans-Serif" font-size="10.00">+</text>
<text text-anchor="start" x="174" y="-373" font-family="Helvetica,sans-Serif" font-size="10.00">facingFlags()</text>
<text text-anchor="start" x="161" y="-358" font-family="Helvetica,sans-Serif" font-size="10.00">+</text>
<text text-anchor="start" x="174" y="-358" font-family="Helvetica,sans-Serif" font-size="10.00">horizontalAxis()</text>
<text text-anchor="start" x="161" y="-343" font-family="Helvetica,sans-Serif" font-size="10.00">+</text>
<text text-anchor="start" x="174" y="-343" font-family="Helvetica,sans-Serif" font-size="10.00">horizontalFacing()</text>
<text text-anchor="start" x="161" y="-328" font-family="Helvetica,sans-Serif" font-size="10.00">+</text>
<text text-anchor="start" x="174" y="-328" font-family="Helvetica,sans-Serif" font-size="10.00">horizontalFacingFlags()</text>
<text text-anchor="start" x="161" y="-313" font-family="Helvetica,sans-Serif" font-size="10.00">+</text>
<text text-anchor="start" x="174" y="-313" font-family="Helvetica,sans-Serif" font-size="10.00">int()</text>
<text text-anchor="start" x="161" y="-298" font-family="Helvetica,sans-Serif" font-size="10.00">+</text>
<text text-anchor="start" x="174" y="-298" font-family="Helvetica,sans-Serif" font-size="10.00">railShape()</text>
<text text-anchor="start" x="161" y="-283" font-family="Helvetica,sans-Serif" font-size="10.00">+</text>
<text text-anchor="start" x="174" y="-283" font-family="Helvetica,sans-Serif" font-size="10.00">straightOnlyRailShape()</text>
<text text-anchor="start" x="161" y="-268" font-family="Helvetica,sans-Serif" font-size="10.00">+</text>
<text text-anchor="start" x="174" y="-268" font-family="Helvetica,sans-Serif" font-size="10.00">wallConnections()</text>
<polygon fill="#666666" stroke="#666666" points="157,-503 157,-503 295,-503 295,-503 157,-503"/>
<polygon fill="#666666" stroke="#666666" points="157,-488 157,-488 295,-488 295,-488 157,-488"/>
<polygon fill="none" stroke="#666666" points="157,-261 157,-531 295,-531 295,-261 157,-261"/>
</a>
</g>
</g>
<!-- Node2 -->
<g id="Node000002" class="node">
<title>Node2</title>
<g id="a_Node000002"><a xlink:href="../../de/d4d/classpocketmine_1_1data_1_1runtime_1_1_runtime_data_reader.html" target="_top" xlink:title=" ">
<polygon fill="white" stroke="transparent" points="134,-225 0,-225 0,0 134,0 134,-225"/>
<text text-anchor="start" x="5" y="-212.5" font-family="Helvetica,sans-Serif" font-size="10.00">pocketmine\data\runtime</text>
<text text-anchor="start" x="15.5" y="-201.5" font-family="Helvetica,sans-Serif" font-size="10.00">\RuntimeDataReader</text>
<text text-anchor="start" x="65" y="-186.5" font-family="Helvetica,sans-Serif" font-size="10.00"> </text>
<text text-anchor="start" x="11" y="-171.5" font-family="Helvetica,sans-Serif" font-size="10.00">+</text>
<text text-anchor="start" x="31" y="-171.5" font-family="Helvetica,sans-Serif" font-size="10.00">__construct()</text>
<text text-anchor="start" x="11" y="-156.5" font-family="Helvetica,sans-Serif" font-size="10.00">+</text>
<text text-anchor="start" x="31" y="-156.5" font-family="Helvetica,sans-Serif" font-size="10.00">axis()</text>
<text text-anchor="start" x="11" y="-141.5" font-family="Helvetica,sans-Serif" font-size="10.00">+</text>
<text text-anchor="start" x="31" y="-141.5" font-family="Helvetica,sans-Serif" font-size="10.00">bool()</text>
<text text-anchor="start" x="11" y="-126.5" font-family="Helvetica,sans-Serif" font-size="10.00">+</text>
<text text-anchor="start" x="31" y="-126.5" font-family="Helvetica,sans-Serif" font-size="10.00">boundedIntAuto()</text>
<text text-anchor="start" x="11" y="-111.5" font-family="Helvetica,sans-Serif" font-size="10.00">+</text>
<text text-anchor="start" x="31" y="-111.5" font-family="Helvetica,sans-Serif" font-size="10.00">enum()</text>
<text text-anchor="start" x="11" y="-96.5" font-family="Helvetica,sans-Serif" font-size="10.00">+</text>
<text text-anchor="start" x="31" y="-96.5" font-family="Helvetica,sans-Serif" font-size="10.00">enumSet()</text>
<text text-anchor="start" x="11" y="-81.5" font-family="Helvetica,sans-Serif" font-size="10.00">+</text>
<text text-anchor="start" x="31" y="-81.5" font-family="Helvetica,sans-Serif" font-size="10.00">facing()</text>
<text text-anchor="start" x="11" y="-66.5" font-family="Helvetica,sans-Serif" font-size="10.00">+</text>
<text text-anchor="start" x="31" y="-66.5" font-family="Helvetica,sans-Serif" font-size="10.00">facingExcept()</text>
<text text-anchor="start" x="11" y="-51.5" font-family="Helvetica,sans-Serif" font-size="10.00">+</text>
<text text-anchor="start" x="31" y="-51.5" font-family="Helvetica,sans-Serif" font-size="10.00">facingFlags()</text>
<text text-anchor="start" x="11" y="-36.5" font-family="Helvetica,sans-Serif" font-size="10.00">+</text>
<text text-anchor="start" x="31" y="-36.5" font-family="Helvetica,sans-Serif" font-size="10.00">getOffset()</text>
<text text-anchor="start" x="31" y="-21.5" font-family="Helvetica,sans-Serif" font-size="10.00">and 8 more...</text>
<text text-anchor="start" x="11" y="-6.5" font-family="Helvetica,sans-Serif" font-size="10.00">#</text>
<text text-anchor="start" x="31" y="-6.5" font-family="Helvetica,sans-Serif" font-size="10.00">readBool()</text>
<polygon fill="#bfbfbf" stroke="#bfbfbf" points="0,-196.5 0,-196.5 134,-196.5 134,-196.5 0,-196.5"/>
<polygon fill="#bfbfbf" stroke="#bfbfbf" points="0,-181.5 0,-181.5 134,-181.5 134,-181.5 0,-181.5"/>
<polygon fill="none" stroke="#bfbfbf" points="0,0 0,-225 134,-225 134,0 0,0"/>
</a>
</g>
</g>
<!-- Node1&#45;&gt;Node2 -->
<g id="edge1_Node000001_Node000002" class="edge">
<title>Node1&#45;&gt;Node2</title>
<g id="a_edge1_Node000001_Node000002"><a xlink:title=" ">
<path fill="none" stroke="#63b8ff" d="M151.94,-263.88C144.68,-251.03 137.36,-238.07 130.23,-225.44"/>
<polygon fill="none" stroke="#63b8ff" points="148.99,-265.77 156.95,-272.76 155.08,-262.33 148.99,-265.77"/>
</a>
</g>
</g>
<!-- Node3 -->
<g id="Node000003" class="node">
<title>Node3</title>
<g id="a_Node000003"><a xlink:href="../../db/dff/classpocketmine_1_1data_1_1runtime_1_1_runtime_data_size_calculator.html" target="_top" xlink:title=" ">
<polygon fill="white" stroke="transparent" points="300,-225 152,-225 152,0 300,0 300,-225"/>
<text text-anchor="start" x="157" y="-212.5" font-family="Helvetica,sans-Serif" font-size="10.00">pocketmine\data\runtime</text>
<text text-anchor="start" x="157" y="-201.5" font-family="Helvetica,sans-Serif" font-size="10.00">\RuntimeDataSizeCalculator</text>
<text text-anchor="start" x="224" y="-186.5" font-family="Helvetica,sans-Serif" font-size="10.00"> </text>
<text text-anchor="start" x="166.5" y="-171.5" font-family="Helvetica,sans-Serif" font-size="10.00">+</text>
<text text-anchor="start" x="190" y="-171.5" font-family="Helvetica,sans-Serif" font-size="10.00">axis()</text>
<text text-anchor="start" x="166.5" y="-156.5" font-family="Helvetica,sans-Serif" font-size="10.00">+</text>
<text text-anchor="start" x="190" y="-156.5" font-family="Helvetica,sans-Serif" font-size="10.00">bool()</text>
<text text-anchor="start" x="166.5" y="-141.5" font-family="Helvetica,sans-Serif" font-size="10.00">+</text>
<text text-anchor="start" x="190" y="-141.5" font-family="Helvetica,sans-Serif" font-size="10.00">boundedIntAuto()</text>
<text text-anchor="start" x="166.5" y="-126.5" font-family="Helvetica,sans-Serif" font-size="10.00">+</text>
<text text-anchor="start" x="190" y="-126.5" font-family="Helvetica,sans-Serif" font-size="10.00">enum()</text>
<text text-anchor="start" x="166.5" y="-111.5" font-family="Helvetica,sans-Serif" font-size="10.00">+</text>
<text text-anchor="start" x="190" y="-111.5" font-family="Helvetica,sans-Serif" font-size="10.00">enumSet()</text>
<text text-anchor="start" x="166.5" y="-96.5" font-family="Helvetica,sans-Serif" font-size="10.00">+</text>
<text text-anchor="start" x="190" y="-96.5" font-family="Helvetica,sans-Serif" font-size="10.00">facing()</text>
<text text-anchor="start" x="166.5" y="-81.5" font-family="Helvetica,sans-Serif" font-size="10.00">+</text>
<text text-anchor="start" x="190" y="-81.5" font-family="Helvetica,sans-Serif" font-size="10.00">facingExcept()</text>
<text text-anchor="start" x="166.5" y="-66.5" font-family="Helvetica,sans-Serif" font-size="10.00">+</text>
<text text-anchor="start" x="190" y="-66.5" font-family="Helvetica,sans-Serif" font-size="10.00">facingFlags()</text>
<text text-anchor="start" x="166.5" y="-51.5" font-family="Helvetica,sans-Serif" font-size="10.00">+</text>
<text text-anchor="start" x="190" y="-51.5" font-family="Helvetica,sans-Serif" font-size="10.00">getBitsUsed()</text>
<text text-anchor="start" x="166.5" y="-36.5" font-family="Helvetica,sans-Serif" font-size="10.00">+</text>
<text text-anchor="start" x="190" y="-36.5" font-family="Helvetica,sans-Serif" font-size="10.00">horizontalAxis()</text>
<text text-anchor="start" x="190" y="-21.5" font-family="Helvetica,sans-Serif" font-size="10.00">and 6 more...</text>
<text text-anchor="start" x="166.5" y="-6.5" font-family="Helvetica,sans-Serif" font-size="10.00">#</text>
<text text-anchor="start" x="190" y="-6.5" font-family="Helvetica,sans-Serif" font-size="10.00">addBits()</text>
<polygon fill="#bfbfbf" stroke="#bfbfbf" points="152,-196.5 152,-196.5 300,-196.5 300,-196.5 152,-196.5"/>
<polygon fill="#bfbfbf" stroke="#bfbfbf" points="152,-181.5 152,-181.5 300,-181.5 300,-181.5 152,-181.5"/>
<polygon fill="none" stroke="#bfbfbf" points="152,0 152,-225 300,-225 300,0 152,0"/>
</a>
</g>
</g>
<!-- Node1&#45;&gt;Node3 -->
<g id="edge2_Node000001_Node000003" class="edge">
<title>Node1&#45;&gt;Node3</title>
<g id="a_edge2_Node000001_Node000003"><a xlink:title=" ">
<path fill="none" stroke="#63b8ff" d="M226,-250.8C226,-242.25 226,-233.71 226,-225.31"/>
<polygon fill="none" stroke="#63b8ff" points="222.5,-250.85 226,-260.85 229.5,-250.85 222.5,-250.85"/>
</a>
</g>
</g>
<!-- Node4 -->
<g id="Node000004" class="node">
<title>Node4</title>
<g id="a_Node000004"><a xlink:href="../../dd/d76/classpocketmine_1_1data_1_1runtime_1_1_runtime_data_writer.html" target="_top" xlink:title=" ">
<polygon fill="white" stroke="transparent" points="452,-225 318,-225 318,0 452,0 452,-225"/>
<text text-anchor="start" x="323" y="-212.5" font-family="Helvetica,sans-Serif" font-size="10.00">pocketmine\data\runtime</text>
<text text-anchor="start" x="336" y="-201.5" font-family="Helvetica,sans-Serif" font-size="10.00">\RuntimeDataWriter</text>
<text text-anchor="start" x="383" y="-186.5" font-family="Helvetica,sans-Serif" font-size="10.00"> </text>
<text text-anchor="start" x="329" y="-171.5" font-family="Helvetica,sans-Serif" font-size="10.00">+</text>
<text text-anchor="start" x="349" y="-171.5" font-family="Helvetica,sans-Serif" font-size="10.00">__construct()</text>
<text text-anchor="start" x="329" y="-156.5" font-family="Helvetica,sans-Serif" font-size="10.00">+</text>
<text text-anchor="start" x="349" y="-156.5" font-family="Helvetica,sans-Serif" font-size="10.00">axis()</text>
<text text-anchor="start" x="329" y="-141.5" font-family="Helvetica,sans-Serif" font-size="10.00">+</text>
<text text-anchor="start" x="349" y="-141.5" font-family="Helvetica,sans-Serif" font-size="10.00">bool()</text>
<text text-anchor="start" x="329" y="-126.5" font-family="Helvetica,sans-Serif" font-size="10.00">+</text>
<text text-anchor="start" x="349" y="-126.5" font-family="Helvetica,sans-Serif" font-size="10.00">boundedIntAuto()</text>
<text text-anchor="start" x="329" y="-111.5" font-family="Helvetica,sans-Serif" font-size="10.00">+</text>
<text text-anchor="start" x="349" y="-111.5" font-family="Helvetica,sans-Serif" font-size="10.00">enum()</text>
<text text-anchor="start" x="329" y="-96.5" font-family="Helvetica,sans-Serif" font-size="10.00">+</text>
<text text-anchor="start" x="349" y="-96.5" font-family="Helvetica,sans-Serif" font-size="10.00">enumSet()</text>
<text text-anchor="start" x="329" y="-81.5" font-family="Helvetica,sans-Serif" font-size="10.00">+</text>
<text text-anchor="start" x="349" y="-81.5" font-family="Helvetica,sans-Serif" font-size="10.00">facing()</text>
<text text-anchor="start" x="329" y="-66.5" font-family="Helvetica,sans-Serif" font-size="10.00">+</text>
<text text-anchor="start" x="349" y="-66.5" font-family="Helvetica,sans-Serif" font-size="10.00">facingExcept()</text>
<text text-anchor="start" x="329" y="-51.5" font-family="Helvetica,sans-Serif" font-size="10.00">+</text>
<text text-anchor="start" x="349" y="-51.5" font-family="Helvetica,sans-Serif" font-size="10.00">facingFlags()</text>
<text text-anchor="start" x="329" y="-36.5" font-family="Helvetica,sans-Serif" font-size="10.00">+</text>
<text text-anchor="start" x="349" y="-36.5" font-family="Helvetica,sans-Serif" font-size="10.00">getOffset()</text>
<text text-anchor="start" x="349" y="-21.5" font-family="Helvetica,sans-Serif" font-size="10.00">and 9 more...</text>
<text text-anchor="start" x="329" y="-6.5" font-family="Helvetica,sans-Serif" font-size="10.00">#</text>
<text text-anchor="start" x="349" y="-6.5" font-family="Helvetica,sans-Serif" font-size="10.00">writeBool()</text>
<polygon fill="#bfbfbf" stroke="#bfbfbf" points="318,-196.5 318,-196.5 452,-196.5 452,-196.5 318,-196.5"/>
<polygon fill="#bfbfbf" stroke="#bfbfbf" points="318,-181.5 318,-181.5 452,-181.5 452,-181.5 318,-181.5"/>
<polygon fill="none" stroke="#bfbfbf" points="318,0 318,-225 452,-225 452,0 318,0"/>
</a>
</g>
</g>
<!-- Node1&#45;&gt;Node4 -->
<g id="edge3_Node000001_Node000004" class="edge">
<title>Node1&#45;&gt;Node4</title>
<g id="a_edge3_Node000001_Node000004"><a xlink:title=" ">
<path fill="none" stroke="#63b8ff" d="M300.06,-263.88C307.32,-251.03 314.64,-238.07 321.77,-225.44"/>
<polygon fill="none" stroke="#63b8ff" points="296.92,-262.33 295.05,-272.76 303.01,-265.77 296.92,-262.33"/>
</a>
</g>
</g>
</g>
</svg>
