<?xml version="1.0" encoding="UTF-8" standalone="no"?>
<!DOCTYPE svg PUBLIC "-//W3C//DTD SVG 1.1//EN"
 "http://www.w3.org/Graphics/SVG/1.1/DTD/svg11.dtd">
<!-- Generated by graphviz version 2.43.0 (0)
 -->
<!-- Title: pocketmine\inventory\BaseInventory Pages: 1 -->
<!--zoomable 632 -->

<svg id="main" version="1.1" xmlns="http://www.w3.org/2000/svg" xmlns:xlink="http://www.w3.org/1999/xlink" xml:space="preserve" onload="init(evt)">

<style type="text/css"><![CDATA[
.node, .edge {opacity: 0.7;}
.node.selected, .edge.selected {opacity: 1;}
.edge:hover path { stroke: red; }
.edge:hover polygon { stroke: red; fill: red; }
]]></style>

<defs>
  <circle id="rim" cx="0" cy="0" r="7"/>
  <circle id="rim2" cx="0" cy="0" r="3.5"/>
  <g id="zoomPlus">
    <use xlink:href="#rim" fill="#404040"><set attributeName="fill" to="#808080" begin="zoomplus.mouseover" end="zoomplus.mouseout"/></use>
    <path d="M-4,0h8M0,-4v8" fill="none" stroke="white" stroke-width="1.5" pointer-events="none"/>
  </g>
  <g id="zoomMin">
    <use xlink:href="#rim" fill="#404040"><set attributeName="fill" to="#808080" begin="zoomminus.mouseover" end="zoomminus.mouseout"/></use>
    <path d="M-4,0h8" fill="none" stroke="white" stroke-width="1.5" pointer-events="none"/>
  </g>
  <g id="arrowUp" transform="translate(30 24)">
    <use xlink:href="#rim"/>
    <path pointer-events="none" fill="none" stroke="white" stroke-width="1.5" d="M0,-3.0v7 M-2.5,-0.5L0,-3.0L2.5,-0.5"/>
  </g>
  <g id="arrowRight" transform="rotate(90) translate(36 -43)">
    <use xlink:href="#rim"/>
    <path pointer-events="none" fill="none" stroke="white" stroke-width="1.5" d="M0,-3.0v7 M-2.5,-0.5L0,-3.0L2.5,-0.5"/>
  </g>
  <g id="arrowDown" transform="rotate(180) translate(-30 -48)">
    <use xlink:href="#rim"/>
    <path pointer-events="none" fill="none" stroke="white" stroke-width="1.5" d="M0,-3.0v7 M-2.5,-0.5L0,-3.0L2.5,-0.5"/>
  </g>
  <g id="arrowLeft" transform="rotate(270) translate(-36 17)">
    <use xlink:href="#rim"/>
    <path pointer-events="none" fill="none" stroke="white" stroke-width="1.5" d="M0,-3.0v7 M-2.5,-0.5L0,-3.0L2.5,-0.5"/>
  </g>
  <g id="resetDef">
    <use xlink:href="#rim2" fill="#404040"><set attributeName="fill" to="#808080" begin="reset.mouseover" end="reset.mouseout"/></use>
  </g>
</defs>
<script type="application/ecmascript">
var viewWidth = 461;
var viewHeight = 632;
var sectionId = 'dynsection-1';
</script>
<script type="application/ecmascript" xlink:href="../../svg.min.js"/>
<svg id="graph" class="graph">
<g id="viewport">
<title>pocketmine\inventory\BaseInventory</title>
<!-- Node1 -->
<g id="Node000001" class="node">
<title>Node1</title>
<g id="a_Node000001"><a xlink:title=" ">
<polygon fill="#999999" stroke="transparent" points="304,-270 155,-270 155,0 304,0 304,-270"/>
<text text-anchor="start" x="176.5" y="-258" font-family="Helvetica,sans-Serif" font-size="10.00">pocketmine\inventory</text>
<text text-anchor="start" x="193" y="-247" font-family="Helvetica,sans-Serif" font-size="10.00">\BaseInventory</text>
<text text-anchor="start" x="159.5" y="-232" font-family="Helvetica,sans-Serif" font-size="10.00">#</text>
<text text-anchor="start" x="172.5" y="-232" font-family="Helvetica,sans-Serif" font-size="10.00">$maxStackSize</text>
<text text-anchor="start" x="159.5" y="-217" font-family="Helvetica,sans-Serif" font-size="10.00">+</text>
<text text-anchor="start" x="172.5" y="-217" font-family="Helvetica,sans-Serif" font-size="10.00">__construct()</text>
<text text-anchor="start" x="159.5" y="-202" font-family="Helvetica,sans-Serif" font-size="10.00">+</text>
<text text-anchor="start" x="172.5" y="-202" font-family="Helvetica,sans-Serif" font-size="10.00">addItem()</text>
<text text-anchor="start" x="159.5" y="-187" font-family="Helvetica,sans-Serif" font-size="10.00">+</text>
<text text-anchor="start" x="172.5" y="-187" font-family="Helvetica,sans-Serif" font-size="10.00">all()</text>
<text text-anchor="start" x="159.5" y="-172" font-family="Helvetica,sans-Serif" font-size="10.00">+</text>
<text text-anchor="start" x="172.5" y="-172" font-family="Helvetica,sans-Serif" font-size="10.00">canAddItem()</text>
<text text-anchor="start" x="159.5" y="-157" font-family="Helvetica,sans-Serif" font-size="10.00">+</text>
<text text-anchor="start" x="172.5" y="-157" font-family="Helvetica,sans-Serif" font-size="10.00">clear()</text>
<text text-anchor="start" x="159.5" y="-142" font-family="Helvetica,sans-Serif" font-size="10.00">+</text>
<text text-anchor="start" x="172.5" y="-142" font-family="Helvetica,sans-Serif" font-size="10.00">clearAll()</text>
<text text-anchor="start" x="159.5" y="-127" font-family="Helvetica,sans-Serif" font-size="10.00">+</text>
<text text-anchor="start" x="172.5" y="-127" font-family="Helvetica,sans-Serif" font-size="10.00">contains()</text>
<text text-anchor="start" x="159.5" y="-112" font-family="Helvetica,sans-Serif" font-size="10.00">+</text>
<text text-anchor="start" x="172.5" y="-112" font-family="Helvetica,sans-Serif" font-size="10.00">first()</text>
<text text-anchor="start" x="159.5" y="-97" font-family="Helvetica,sans-Serif" font-size="10.00">+</text>
<text text-anchor="start" x="172.5" y="-97" font-family="Helvetica,sans-Serif" font-size="10.00">firstEmpty()</text>
<text text-anchor="start" x="159.5" y="-82" font-family="Helvetica,sans-Serif" font-size="10.00">+</text>
<text text-anchor="start" x="172.5" y="-82" font-family="Helvetica,sans-Serif" font-size="10.00">getAddableItemQuantity()</text>
<text text-anchor="start" x="172.5" y="-67" font-family="Helvetica,sans-Serif" font-size="10.00">and 10 more...</text>
<text text-anchor="start" x="159.5" y="-52" font-family="Helvetica,sans-Serif" font-size="10.00">#</text>
<text text-anchor="start" x="172.5" y="-52" font-family="Helvetica,sans-Serif" font-size="10.00">internalSetContents()</text>
<text text-anchor="start" x="159.5" y="-37" font-family="Helvetica,sans-Serif" font-size="10.00">#</text>
<text text-anchor="start" x="172.5" y="-37" font-family="Helvetica,sans-Serif" font-size="10.00">internalSetItem()</text>
<text text-anchor="start" x="159.5" y="-22" font-family="Helvetica,sans-Serif" font-size="10.00">#</text>
<text text-anchor="start" x="172.5" y="-22" font-family="Helvetica,sans-Serif" font-size="10.00">onContentChange()</text>
<text text-anchor="start" x="159.5" y="-7" font-family="Helvetica,sans-Serif" font-size="10.00">#</text>
<text text-anchor="start" x="172.5" y="-7" font-family="Helvetica,sans-Serif" font-size="10.00">onSlotChange()</text>
<polygon fill="#666666" stroke="#666666" points="155.5,-242 155.5,-242 304.5,-242 304.5,-242 155.5,-242"/>
<polygon fill="#666666" stroke="#666666" points="155.5,-227 155.5,-227 170.5,-227 170.5,-227 155.5,-227"/>
<polygon fill="#666666" stroke="#666666" points="170.5,-227 170.5,-227 304.5,-227 304.5,-227 170.5,-227"/>
<polygon fill="none" stroke="#666666" points="155,0 155,-270 304,-270 304,0 155,0"/>
</a>
</g>
</g>
<!-- Node2 -->
<g id="Node000002" class="node">
<title>Node2</title>
<g id="a_Node000002"><a xlink:href="../../db/d39/interfacepocketmine_1_1inventory_1_1_inventory.html" target="_top" xlink:title=" ">
<polygon fill="white" stroke="transparent" points="149,-538 0,-538 0,-328 149,-328 149,-538"/>
<text text-anchor="start" x="21.5" y="-526" font-family="Helvetica,sans-Serif" font-size="10.00">pocketmine\inventory</text>
<text text-anchor="start" x="50" y="-515" font-family="Helvetica,sans-Serif" font-size="10.00">\Inventory</text>
<text text-anchor="start" x="4.5" y="-500" font-family="Helvetica,sans-Serif" font-size="10.00">+</text>
<text text-anchor="start" x="17.5" y="-500" font-family="Helvetica,sans-Serif" font-size="10.00">MAX_STACK</text>
<text text-anchor="start" x="4.5" y="-485" font-family="Helvetica,sans-Serif" font-size="10.00">+</text>
<text text-anchor="start" x="17.5" y="-485" font-family="Helvetica,sans-Serif" font-size="10.00">addItem()</text>
<text text-anchor="start" x="4.5" y="-470" font-family="Helvetica,sans-Serif" font-size="10.00">+</text>
<text text-anchor="start" x="17.5" y="-470" font-family="Helvetica,sans-Serif" font-size="10.00">all()</text>
<text text-anchor="start" x="4.5" y="-455" font-family="Helvetica,sans-Serif" font-size="10.00">+</text>
<text text-anchor="start" x="17.5" y="-455" font-family="Helvetica,sans-Serif" font-size="10.00">canAddItem()</text>
<text text-anchor="start" x="4.5" y="-440" font-family="Helvetica,sans-Serif" font-size="10.00">+</text>
<text text-anchor="start" x="17.5" y="-440" font-family="Helvetica,sans-Serif" font-size="10.00">clear()</text>
<text text-anchor="start" x="4.5" y="-425" font-family="Helvetica,sans-Serif" font-size="10.00">+</text>
<text text-anchor="start" x="17.5" y="-425" font-family="Helvetica,sans-Serif" font-size="10.00">clearAll()</text>
<text text-anchor="start" x="4.5" y="-410" font-family="Helvetica,sans-Serif" font-size="10.00">+</text>
<text text-anchor="start" x="17.5" y="-410" font-family="Helvetica,sans-Serif" font-size="10.00">contains()</text>
<text text-anchor="start" x="4.5" y="-395" font-family="Helvetica,sans-Serif" font-size="10.00">+</text>
<text text-anchor="start" x="17.5" y="-395" font-family="Helvetica,sans-Serif" font-size="10.00">first()</text>
<text text-anchor="start" x="4.5" y="-380" font-family="Helvetica,sans-Serif" font-size="10.00">+</text>
<text text-anchor="start" x="17.5" y="-380" font-family="Helvetica,sans-Serif" font-size="10.00">firstEmpty()</text>
<text text-anchor="start" x="4.5" y="-365" font-family="Helvetica,sans-Serif" font-size="10.00">+</text>
<text text-anchor="start" x="17.5" y="-365" font-family="Helvetica,sans-Serif" font-size="10.00">getAddableItemQuantity()</text>
<text text-anchor="start" x="4.5" y="-350" font-family="Helvetica,sans-Serif" font-size="10.00">+</text>
<text text-anchor="start" x="17.5" y="-350" font-family="Helvetica,sans-Serif" font-size="10.00">getContents()</text>
<text text-anchor="start" x="17.5" y="-335" font-family="Helvetica,sans-Serif" font-size="10.00">and 17 more...</text>
<polygon fill="#bfbfbf" stroke="#bfbfbf" points="0.5,-510 0.5,-510 149.5,-510 149.5,-510 0.5,-510"/>
<polygon fill="#bfbfbf" stroke="#bfbfbf" points="0.5,-495 0.5,-495 15.5,-495 15.5,-495 0.5,-495"/>
<polygon fill="#bfbfbf" stroke="#bfbfbf" points="15.5,-495 15.5,-495 149.5,-495 149.5,-495 15.5,-495"/>
<polygon fill="none" stroke="#bfbfbf" points="0,-328 0,-538 149,-538 149,-328 0,-328"/>
</a>
</g>
</g>
<!-- Node2&#45;&gt;Node1 -->
<g id="edge1_Node000001_Node000002" class="edge">
<title>Node2&#45;&gt;Node1</title>
<g id="a_edge1_Node000001_Node000002"><a xlink:title=" ">
<path fill="none" stroke="#63b8ff" d="M133.99,-318.39C142.28,-302.56 150.86,-286.17 159.33,-270.01"/>
<polygon fill="none" stroke="#63b8ff" points="130.69,-317.16 129.15,-327.64 136.89,-320.41 130.69,-317.16"/>
</a>
</g>
</g>
<!-- Node3 -->
<g id="Node000003" class="node">
<title>Node3</title>
<g id="a_Node000003"><a xlink:href="../../dd/d33/interfacepocketmine_1_1inventory_1_1_slot_validated_inventory.html" target="_top" xlink:title=" ">
<polygon fill="white" stroke="transparent" points="292,-463 167,-463 167,-403 292,-403 292,-463"/>
<text text-anchor="start" x="172.5" y="-451" font-family="Helvetica,sans-Serif" font-size="10.00">pocketmine\inventory</text>
<text text-anchor="start" x="172.5" y="-440" font-family="Helvetica,sans-Serif" font-size="10.00">\SlotValidatedInventory</text>
<text text-anchor="start" x="228" y="-425" font-family="Helvetica,sans-Serif" font-size="10.00"> </text>
<text text-anchor="start" x="174.5" y="-410" font-family="Helvetica,sans-Serif" font-size="10.00">+</text>
<text text-anchor="start" x="190.5" y="-410" font-family="Helvetica,sans-Serif" font-size="10.00">getSlotValidators()</text>
<polygon fill="#666666" stroke="#666666" points="167.5,-435 167.5,-435 292.5,-435 292.5,-435 167.5,-435"/>
<polygon fill="#666666" stroke="#666666" points="167.5,-420 167.5,-420 292.5,-420 292.5,-420 167.5,-420"/>
<polygon fill="none" stroke="#666666" points="167,-403 167,-463 292,-463 292,-403 167,-403"/>
</a>
</g>
</g>
<!-- Node3&#45;&gt;Node1 -->
<g id="edge2_Node000001_Node000003" class="edge">
<title>Node3&#45;&gt;Node1</title>
<g id="a_edge2_Node000001_Node000003"><a xlink:title=" ">
<path fill="none" stroke="#63b8ff" d="M229.5,-392.69C229.5,-361.11 229.5,-314.82 229.5,-270.22"/>
<polygon fill="none" stroke="#63b8ff" points="226,-392.81 229.5,-402.81 233,-392.81 226,-392.81"/>
</a>
</g>
</g>
<!-- Node4 -->
<g id="Node000004" class="node">
<title>Node4</title>
<g id="a_Node000004"><a xlink:href="../../dd/de5/classpocketmine_1_1utils_1_1_object_set.html" target="_top" xlink:title=" ">
<polygon fill="white" stroke="transparent" points="452.5,-495 310.5,-495 310.5,-371 452.5,-371 452.5,-495"/>
<text text-anchor="start" x="315.5" y="-483" font-family="Helvetica,sans-Serif" font-size="10.00">pocketmine\utils\ObjectSet</text>
<text text-anchor="start" x="379.5" y="-468" font-family="Helvetica,sans-Serif" font-size="10.00"> </text>
<text text-anchor="start" x="329.5" y="-453" font-family="Helvetica,sans-Serif" font-size="10.00">+</text>
<text text-anchor="start" x="357.5" y="-453" font-family="Helvetica,sans-Serif" font-size="10.00">add()</text>
<text text-anchor="start" x="329.5" y="-438" font-family="Helvetica,sans-Serif" font-size="10.00">+</text>
<text text-anchor="start" x="357.5" y="-438" font-family="Helvetica,sans-Serif" font-size="10.00">clear()</text>
<text text-anchor="start" x="329.5" y="-423" font-family="Helvetica,sans-Serif" font-size="10.00">+</text>
<text text-anchor="start" x="357.5" y="-423" font-family="Helvetica,sans-Serif" font-size="10.00">contains()</text>
<text text-anchor="start" x="329.5" y="-408" font-family="Helvetica,sans-Serif" font-size="10.00">+</text>
<text text-anchor="start" x="357.5" y="-408" font-family="Helvetica,sans-Serif" font-size="10.00">getIterator()</text>
<text text-anchor="start" x="329.5" y="-393" font-family="Helvetica,sans-Serif" font-size="10.00">+</text>
<text text-anchor="start" x="357.5" y="-393" font-family="Helvetica,sans-Serif" font-size="10.00">remove()</text>
<text text-anchor="start" x="329.5" y="-378" font-family="Helvetica,sans-Serif" font-size="10.00">+</text>
<text text-anchor="start" x="357.5" y="-378" font-family="Helvetica,sans-Serif" font-size="10.00">toArray()</text>
<polygon fill="#666666" stroke="#666666" points="310.5,-478 310.5,-478 452.5,-478 452.5,-478 310.5,-478"/>
<polygon fill="#666666" stroke="#666666" points="310.5,-463 310.5,-463 452.5,-463 452.5,-463 310.5,-463"/>
<polygon fill="none" stroke="#666666" points="310.5,-371 310.5,-495 452.5,-495 452.5,-371 310.5,-371"/>
</a>
</g>
</g>
<!-- Node4&#45;&gt;Node1 -->
<g id="edge3_Node000001_Node000004" class="edge">
<title>Node4&#45;&gt;Node1</title>
<g id="a_edge3_Node000001_Node000004"><a xlink:title=" ">
<path fill="none" stroke="#63b8ff" d="M350.01,-370.67C336.53,-344.42 320.17,-312.57 303.91,-280.9"/>
<polygon fill="none" stroke="#63b8ff" points="303.88,-280.85 297.58,-277.34 298.4,-270.18 304.7,-273.69 303.88,-280.85"/>
</a>
</g>
<text text-anchor="middle" x="346.5" y="-302" font-family="Helvetica,sans-Serif" font-size="10.00" fill="grey"> #$listeners</text>
<text text-anchor="middle" x="346.5" y="-291" font-family="Helvetica,sans-Serif" font-size="10.00" fill="grey">#$validators</text>
</g>
<!-- Node5 -->
<g id="Node000005" class="node">
<title>Node5</title>
<g id="a_Node000005"><a xlink:title=" ">
<polygon fill="white" stroke="transparent" points="430,-624 333,-624 333,-575 430,-575 430,-624"/>
<text text-anchor="start" x="338.5" y="-611.5" font-family="Helvetica,sans-Serif" font-size="10.00">IteratorAggregate</text>
<text text-anchor="start" x="380" y="-596.5" font-family="Helvetica,sans-Serif" font-size="10.00"> </text>
<text text-anchor="start" x="380" y="-581.5" font-family="Helvetica,sans-Serif" font-size="10.00"> </text>
<polygon fill="#bfbfbf" stroke="#bfbfbf" points="333.5,-606.5 333.5,-606.5 430.5,-606.5 430.5,-606.5 333.5,-606.5"/>
<polygon fill="#bfbfbf" stroke="#bfbfbf" points="333.5,-591.5 333.5,-591.5 430.5,-591.5 430.5,-591.5 333.5,-591.5"/>
<polygon fill="none" stroke="#bfbfbf" points="333,-575 333,-624 430,-624 430,-575 333,-575"/>
</a>
</g>
</g>
<!-- Node5&#45;&gt;Node4 -->
<g id="edge4_Node000004_Node000005" class="edge">
<title>Node5&#45;&gt;Node4</title>
<g id="a_edge4_Node000004_Node000005"><a xlink:title=" ">
<path fill="none" stroke="#63b8ff" d="M381.5,-564.75C381.5,-544.71 381.5,-518.69 381.5,-495.14"/>
<polygon fill="none" stroke="#63b8ff" points="378,-564.93 381.5,-574.93 385,-564.93 378,-564.93"/>
</a>
</g>
</g>
</g>
</svg>

<g id="navigator" transform="translate(0 0)" fill="#404254">
  <rect fill="#f2f5e9" fill-opacity="0.5" stroke="#606060" stroke-width=".5" x="0" y="0" width="60" height="60"/>
  <use id="zoomplus" xlink:href="#zoomPlus" x="17" y="9" onmousedown="handleZoom(evt,'in')"/>
  <use id="zoomminus" xlink:href="#zoomMin" x="42" y="9" onmousedown="handleZoom(evt,'out')"/>
  <use id="reset" xlink:href="#resetDef" x="30" y="36" onmousedown="handleReset()"/>
   <use id="arrowup" xlink:href="#arrowUp" x="0" y="0" onmousedown="handlePan(0,-1)"/>
  <use id="arrowright" xlink:href="#arrowRight" x="0" y="0" onmousedown="handlePan(1,0)"/>
  <use id="arrowdown" xlink:href="#arrowDown" x="0" y="0" onmousedown="handlePan(0,1)"/>
  <use id="arrowleft" xlink:href="#arrowLeft" x="0" y="0" onmousedown="handlePan(-1,0)"/>
</g>
<svg viewBox="0 0 15 15" width="100%" height="30px" preserveAspectRatio="xMaxYMin meet">
 <g id="arrow_out" transform="scale(0.3 0.3)">
  <a xlink:href="classpocketmine_1_1inventory_1_1_base_inventory__coll__graph_org.svg" target="_base">
   <rect id="button" ry="5" rx="5" y="6" x="6" height="38" width="38"
        fill="#f2f5e9" fill-opacity="0.5" stroke="#606060" stroke-width="1.0"/>
   <path id="arrow"
     d="M 11.500037,31.436501 C 11.940474,20.09759 22.043105,11.32322 32.158766,21.979434 L 37.068811,17.246167 C 37.068811,17.246167 37.088388,32 37.088388,32 L 22.160133,31.978069 C 22.160133,31.978069 26.997745,27.140456 26.997745,27.140456 C 18.528582,18.264221 13.291696,25.230495 11.500037,31.436501 z"
     style="fill:#404040;"/>
  </a>
 </g>
</svg>

<style type='text/css'>
<![CDATA[
[data-mouse-over-selected='false'] { opacity: 0.7; }
[data-mouse-over-selected='true']  { opacity: 1.0; }
]]>
</style>
<script type="application/ecmascript"><![CDATA[
document.addEventListener('DOMContentLoaded', (event) => {
  highlightEdges();
  highlightAdjacentNodes();
});
]]></script>
</svg>
