<?xml version="1.0" encoding="UTF-8" standalone="no"?>
<!DOCTYPE svg PUBLIC "-//W3C//DTD SVG 1.1//EN"
 "http://www.w3.org/Graphics/SVG/1.1/DTD/svg11.dtd">
<!-- Generated by graphviz version 2.43.0 (0)
 -->
<!-- Title: pocketmine\block\inventory\EnderChestInventory Pages: 1 -->
<svg width="406pt" height="917pt"
 viewBox="0.00 0.00 405.50 917.00" xmlns="http://www.w3.org/2000/svg" xmlns:xlink="http://www.w3.org/1999/xlink">
<g id="graph0" class="graph" transform="scale(1 1) rotate(0) translate(4 913)">
<title>pocketmine\block\inventory\EnderChestInventory</title>
<polygon fill="white" stroke="transparent" points="-4,4 -4,-913 401.5,-913 401.5,4 -4,4"/>
<!-- Node1 -->
<g id="node1" class="node">
<title>Node1</title>
<g id="a_node1"><a xlink:title=" ">
<polygon fill="#bfbfbf" stroke="black" points="165.5,-0.5 165.5,-134.5 317.5,-134.5 317.5,-0.5 165.5,-0.5"/>
<text text-anchor="start" x="173.5" y="-122.5" font-family="Helvetica,sans-Serif" font-size="10.00">pocketmine\block\inventory</text>
<text text-anchor="middle" x="241.5" y="-111.5" font-family="Helvetica,sans-Serif" font-size="10.00">\EnderChestInventory</text>
<polyline fill="none" stroke="black" points="165.5,-104.5 317.5,-104.5 "/>
<text text-anchor="middle" x="241.5" y="-92.5" font-family="Helvetica,sans-Serif" font-size="10.00"> </text>
<polyline fill="none" stroke="black" points="165.5,-85.5 317.5,-85.5 "/>
<text text-anchor="start" x="173.5" y="-73.5" font-family="Helvetica,sans-Serif" font-size="10.00">+ __construct()</text>
<text text-anchor="start" x="173.5" y="-62.5" font-family="Helvetica,sans-Serif" font-size="10.00">+ getEnderInventory()</text>
<text text-anchor="start" x="173.5" y="-51.5" font-family="Helvetica,sans-Serif" font-size="10.00">+ getViewerCount()</text>
<text text-anchor="start" x="173.5" y="-40.5" font-family="Helvetica,sans-Serif" font-size="10.00">+ onClose()</text>
<text text-anchor="start" x="173.5" y="-29.5" font-family="Helvetica,sans-Serif" font-size="10.00"># animateBlock()</text>
<text text-anchor="start" x="173.5" y="-18.5" font-family="Helvetica,sans-Serif" font-size="10.00"># getCloseSound()</text>
<text text-anchor="start" x="173.5" y="-7.5" font-family="Helvetica,sans-Serif" font-size="10.00"># getOpenSound()</text>
</a>
</g>
</g>
<!-- Node2 -->
<g id="node2" class="node">
<title>Node2</title>
<g id="a_node2"><a xlink:href="../../d2/d0e/classpocketmine_1_1inventory_1_1_delegate_inventory.html" target="_top" xlink:title=" ">
<polygon fill="white" stroke="black" points="95.5,-172.5 95.5,-306.5 227.5,-306.5 227.5,-172.5 95.5,-172.5"/>
<text text-anchor="start" x="103.5" y="-294.5" font-family="Helvetica,sans-Serif" font-size="10.00">pocketmine\inventory</text>
<text text-anchor="middle" x="161.5" y="-283.5" font-family="Helvetica,sans-Serif" font-size="10.00">\DelegateInventory</text>
<polyline fill="none" stroke="black" points="95.5,-276.5 227.5,-276.5 "/>
<text text-anchor="middle" x="161.5" y="-264.5" font-family="Helvetica,sans-Serif" font-size="10.00"> </text>
<polyline fill="none" stroke="black" points="95.5,-257.5 227.5,-257.5 "/>
<text text-anchor="start" x="103.5" y="-245.5" font-family="Helvetica,sans-Serif" font-size="10.00">+ __construct()</text>
<text text-anchor="start" x="103.5" y="-234.5" font-family="Helvetica,sans-Serif" font-size="10.00">+ getContents()</text>
<text text-anchor="start" x="103.5" y="-223.5" font-family="Helvetica,sans-Serif" font-size="10.00">+ getItem()</text>
<text text-anchor="start" x="103.5" y="-212.5" font-family="Helvetica,sans-Serif" font-size="10.00">+ getSize()</text>
<text text-anchor="start" x="103.5" y="-201.5" font-family="Helvetica,sans-Serif" font-size="10.00">+ onClose()</text>
<text text-anchor="start" x="103.5" y="-190.5" font-family="Helvetica,sans-Serif" font-size="10.00"># internalSetContents()</text>
<text text-anchor="start" x="103.5" y="-179.5" font-family="Helvetica,sans-Serif" font-size="10.00"># internalSetItem()</text>
</a>
</g>
</g>
<!-- Node2&#45;&gt;Node1 -->
<g id="edge1" class="edge">
<title>Node2&#45;&gt;Node1</title>
<path fill="none" stroke="midnightblue" d="M196.94,-163.2C201.43,-153.64 206.01,-143.92 210.43,-134.53"/>
<polygon fill="none" stroke="midnightblue" points="193.75,-161.75 192.66,-172.29 200.08,-164.73 193.75,-161.75"/>
</g>
<!-- Node3 -->
<g id="node3" class="node">
<title>Node3</title>
<g id="a_node3"><a xlink:href="../../d5/dc4/classpocketmine_1_1inventory_1_1_base_inventory.html" target="_top" xlink:title=" ">
<polygon fill="white" stroke="black" points="84,-344.5 84,-577.5 239,-577.5 239,-344.5 84,-344.5"/>
<text text-anchor="start" x="92" y="-565.5" font-family="Helvetica,sans-Serif" font-size="10.00">pocketmine\inventory</text>
<text text-anchor="middle" x="161.5" y="-554.5" font-family="Helvetica,sans-Serif" font-size="10.00">\BaseInventory</text>
<polyline fill="none" stroke="black" points="84,-547.5 239,-547.5 "/>
<text text-anchor="start" x="92" y="-535.5" font-family="Helvetica,sans-Serif" font-size="10.00"># $maxStackSize</text>
<text text-anchor="start" x="92" y="-524.5" font-family="Helvetica,sans-Serif" font-size="10.00"># $viewers</text>
<polyline fill="none" stroke="black" points="84,-517.5 239,-517.5 "/>
<text text-anchor="start" x="92" y="-505.5" font-family="Helvetica,sans-Serif" font-size="10.00">+ __construct()</text>
<text text-anchor="start" x="92" y="-494.5" font-family="Helvetica,sans-Serif" font-size="10.00">+ addItem()</text>
<text text-anchor="start" x="92" y="-483.5" font-family="Helvetica,sans-Serif" font-size="10.00">+ all()</text>
<text text-anchor="start" x="92" y="-472.5" font-family="Helvetica,sans-Serif" font-size="10.00">+ canAddItem()</text>
<text text-anchor="start" x="92" y="-461.5" font-family="Helvetica,sans-Serif" font-size="10.00">+ clear()</text>
<text text-anchor="start" x="92" y="-450.5" font-family="Helvetica,sans-Serif" font-size="10.00">+ clearAll()</text>
<text text-anchor="start" x="92" y="-439.5" font-family="Helvetica,sans-Serif" font-size="10.00">+ contains()</text>
<text text-anchor="start" x="92" y="-428.5" font-family="Helvetica,sans-Serif" font-size="10.00">+ first()</text>
<text text-anchor="start" x="92" y="-417.5" font-family="Helvetica,sans-Serif" font-size="10.00">+ firstEmpty()</text>
<text text-anchor="start" x="92" y="-406.5" font-family="Helvetica,sans-Serif" font-size="10.00">+ getAddableItemQuantity()</text>
<text text-anchor="start" x="92" y="-395.5" font-family="Helvetica,sans-Serif" font-size="10.00">and 14 more...</text>
<text text-anchor="start" x="92" y="-384.5" font-family="Helvetica,sans-Serif" font-size="10.00"># internalSetContents()</text>
<text text-anchor="start" x="92" y="-373.5" font-family="Helvetica,sans-Serif" font-size="10.00"># internalSetItem()</text>
<text text-anchor="start" x="92" y="-362.5" font-family="Helvetica,sans-Serif" font-size="10.00"># onContentChange()</text>
<text text-anchor="start" x="92" y="-351.5" font-family="Helvetica,sans-Serif" font-size="10.00"># onSlotChange()</text>
</a>
</g>
</g>
<!-- Node3&#45;&gt;Node2 -->
<g id="edge2" class="edge">
<title>Node3&#45;&gt;Node2</title>
<path fill="none" stroke="midnightblue" d="M161.5,-334.21C161.5,-324.81 161.5,-315.57 161.5,-306.77"/>
<polygon fill="none" stroke="midnightblue" points="158,-334.46 161.5,-344.46 165,-334.46 158,-334.46"/>
</g>
<!-- Node4 -->
<g id="node4" class="node">
<title>Node4</title>
<g id="a_node4"><a xlink:href="../../db/d39/interfacepocketmine_1_1inventory_1_1_inventory.html" target="_top" xlink:title=" ">
<polygon fill="white" stroke="#bfbfbf" points="0,-625.5 0,-803.5 155,-803.5 155,-625.5 0,-625.5"/>
<text text-anchor="start" x="8" y="-791.5" font-family="Helvetica,sans-Serif" font-size="10.00">pocketmine\inventory</text>
<text text-anchor="middle" x="77.5" y="-780.5" font-family="Helvetica,sans-Serif" font-size="10.00">\Inventory</text>
<polyline fill="none" stroke="#bfbfbf" points="0,-773.5 155,-773.5 "/>
<text text-anchor="middle" x="77.5" y="-761.5" font-family="Helvetica,sans-Serif" font-size="10.00"> </text>
<polyline fill="none" stroke="#bfbfbf" points="0,-754.5 155,-754.5 "/>
<text text-anchor="start" x="8" y="-742.5" font-family="Helvetica,sans-Serif" font-size="10.00">+ addItem()</text>
<text text-anchor="start" x="8" y="-731.5" font-family="Helvetica,sans-Serif" font-size="10.00">+ all()</text>
<text text-anchor="start" x="8" y="-720.5" font-family="Helvetica,sans-Serif" font-size="10.00">+ canAddItem()</text>
<text text-anchor="start" x="8" y="-709.5" font-family="Helvetica,sans-Serif" font-size="10.00">+ clear()</text>
<text text-anchor="start" x="8" y="-698.5" font-family="Helvetica,sans-Serif" font-size="10.00">+ clearAll()</text>
<text text-anchor="start" x="8" y="-687.5" font-family="Helvetica,sans-Serif" font-size="10.00">+ contains()</text>
<text text-anchor="start" x="8" y="-676.5" font-family="Helvetica,sans-Serif" font-size="10.00">+ first()</text>
<text text-anchor="start" x="8" y="-665.5" font-family="Helvetica,sans-Serif" font-size="10.00">+ firstEmpty()</text>
<text text-anchor="start" x="8" y="-654.5" font-family="Helvetica,sans-Serif" font-size="10.00">+ getAddableItemQuantity()</text>
<text text-anchor="start" x="8" y="-643.5" font-family="Helvetica,sans-Serif" font-size="10.00">+ getContents()</text>
<text text-anchor="start" x="8" y="-632.5" font-family="Helvetica,sans-Serif" font-size="10.00">and 15 more...</text>
</a>
</g>
</g>
<!-- Node4&#45;&gt;Node3 -->
<g id="edge3" class="edge">
<title>Node4&#45;&gt;Node3</title>
<path fill="none" stroke="midnightblue" d="M110.26,-615.41C114.37,-603.12 118.6,-590.45 122.79,-577.91"/>
<polygon fill="none" stroke="midnightblue" points="106.85,-614.59 107,-625.18 113.48,-616.81 106.85,-614.59"/>
</g>
<!-- Node5 -->
<g id="node5" class="node">
<title>Node5</title>
<g id="a_node5"><a xlink:title=" ">
<polygon fill="white" stroke="#bfbfbf" points="56,-851.5 56,-908.5 99,-908.5 99,-851.5 56,-851.5"/>
<text text-anchor="middle" x="77.5" y="-896.5" font-family="Helvetica,sans-Serif" font-size="10.00">const</text>
<polyline fill="none" stroke="#bfbfbf" points="56,-889.5 99,-889.5 "/>
<text text-anchor="middle" x="77.5" y="-877.5" font-family="Helvetica,sans-Serif" font-size="10.00"> </text>
<polyline fill="none" stroke="#bfbfbf" points="56,-870.5 99,-870.5 "/>
<text text-anchor="middle" x="77.5" y="-858.5" font-family="Helvetica,sans-Serif" font-size="10.00"> </text>
</a>
</g>
</g>
<!-- Node5&#45;&gt;Node4 -->
<g id="edge4" class="edge">
<title>Node5&#45;&gt;Node4</title>
<path fill="none" stroke="#404040" d="M77.5,-851.26C77.5,-841.01 77.5,-828.7 77.5,-815.74"/>
<polygon fill="none" stroke="#404040" points="77.5,-815.7 73.5,-809.7 77.5,-803.7 81.5,-809.7 77.5,-815.7"/>
<text text-anchor="middle" x="113" y="-825" font-family="Helvetica,sans-Serif" font-size="10.00"> +MAX_STACK</text>
</g>
<!-- Node6 -->
<g id="node6" class="node">
<title>Node6</title>
<g id="a_node6"><a xlink:href="../../dd/de5/classpocketmine_1_1utils_1_1_object_set.html" target="_top" xlink:title=" ">
<polygon fill="white" stroke="black" points="173.5,-658.5 173.5,-770.5 321.5,-770.5 321.5,-658.5 173.5,-658.5"/>
<text text-anchor="middle" x="247.5" y="-758.5" font-family="Helvetica,sans-Serif" font-size="10.00">pocketmine\utils\ObjectSet</text>
<polyline fill="none" stroke="black" points="173.5,-751.5 321.5,-751.5 "/>
<text text-anchor="middle" x="247.5" y="-739.5" font-family="Helvetica,sans-Serif" font-size="10.00"> </text>
<polyline fill="none" stroke="black" points="173.5,-732.5 321.5,-732.5 "/>
<text text-anchor="start" x="181.5" y="-720.5" font-family="Helvetica,sans-Serif" font-size="10.00">+ add()</text>
<text text-anchor="start" x="181.5" y="-709.5" font-family="Helvetica,sans-Serif" font-size="10.00">+ clear()</text>
<text text-anchor="start" x="181.5" y="-698.5" font-family="Helvetica,sans-Serif" font-size="10.00">+ contains()</text>
<text text-anchor="start" x="181.5" y="-687.5" font-family="Helvetica,sans-Serif" font-size="10.00">+ getIterator()</text>
<text text-anchor="start" x="181.5" y="-676.5" font-family="Helvetica,sans-Serif" font-size="10.00">+ remove()</text>
<text text-anchor="start" x="181.5" y="-665.5" font-family="Helvetica,sans-Serif" font-size="10.00">+ toArray()</text>
</a>
</g>
</g>
<!-- Node6&#45;&gt;Node3 -->
<g id="edge5" class="edge">
<title>Node6&#45;&gt;Node3</title>
<path fill="none" stroke="#404040" d="M228.63,-658.31C221.61,-637.77 213.31,-613.53 205,-589.21"/>
<polygon fill="none" stroke="#404040" points="204.93,-589.02 199.21,-584.64 201.05,-577.67 206.78,-582.05 204.93,-589.02"/>
<text text-anchor="middle" x="240.5" y="-599" font-family="Helvetica,sans-Serif" font-size="10.00"> #$listeners</text>
</g>
<!-- Node7 -->
<g id="node7" class="node">
<title>Node7</title>
<g id="a_node7"><a xlink:title=" ">
<polygon fill="white" stroke="#bfbfbf" points="196,-851.5 196,-908.5 299,-908.5 299,-851.5 196,-851.5"/>
<text text-anchor="middle" x="247.5" y="-896.5" font-family="Helvetica,sans-Serif" font-size="10.00">IteratorAggregate</text>
<polyline fill="none" stroke="#bfbfbf" points="196,-889.5 299,-889.5 "/>
<text text-anchor="middle" x="247.5" y="-877.5" font-family="Helvetica,sans-Serif" font-size="10.00"> </text>
<polyline fill="none" stroke="#bfbfbf" points="196,-870.5 299,-870.5 "/>
<text text-anchor="middle" x="247.5" y="-858.5" font-family="Helvetica,sans-Serif" font-size="10.00"> </text>
</a>
</g>
</g>
<!-- Node7&#45;&gt;Node6 -->
<g id="edge6" class="edge">
<title>Node7&#45;&gt;Node6</title>
<path fill="none" stroke="midnightblue" d="M247.5,-841.15C247.5,-820.19 247.5,-793.76 247.5,-770.55"/>
<polygon fill="none" stroke="midnightblue" points="244,-841.26 247.5,-851.26 251,-841.26 244,-841.26"/>
</g>
<!-- Node8 -->
<g id="node8" class="node">
<title>Node8</title>
<g id="a_node8"><a xlink:href="../../d4/d3a/interfacepocketmine_1_1block_1_1inventory_1_1_block_inventory.html" target="_top" xlink:title=" ">
<polygon fill="white" stroke="#bfbfbf" points="245.5,-205.5 245.5,-273.5 397.5,-273.5 397.5,-205.5 245.5,-205.5"/>
<text text-anchor="start" x="253.5" y="-261.5" font-family="Helvetica,sans-Serif" font-size="10.00">pocketmine\block\inventory</text>
<text text-anchor="middle" x="321.5" y="-250.5" font-family="Helvetica,sans-Serif" font-size="10.00">\BlockInventory</text>
<polyline fill="none" stroke="#bfbfbf" points="245.5,-243.5 397.5,-243.5 "/>
<text text-anchor="middle" x="321.5" y="-231.5" font-family="Helvetica,sans-Serif" font-size="10.00"> </text>
<polyline fill="none" stroke="#bfbfbf" points="245.5,-224.5 397.5,-224.5 "/>
<text text-anchor="start" x="253.5" y="-212.5" font-family="Helvetica,sans-Serif" font-size="10.00">+ getHolder()</text>
</a>
</g>
</g>
<!-- Node8&#45;&gt;Node1 -->
<g id="edge7" class="edge">
<title>Node8&#45;&gt;Node1</title>
<path fill="none" stroke="midnightblue" d="M301.61,-196.24C292.86,-177.65 282.38,-155.37 272.64,-134.67"/>
<polygon fill="none" stroke="midnightblue" points="298.46,-197.76 305.89,-205.32 304.79,-194.78 298.46,-197.76"/>
</g>
</g>
</svg>
