<?xml version="1.0" encoding="UTF-8" standalone="no"?>
<!DOCTYPE svg PUBLIC "-//W3C//DTD SVG 1.1//EN"
 "http://www.w3.org/Graphics/SVG/1.1/DTD/svg11.dtd">
<!-- Generated by graphviz version 2.43.0 (0)
 -->
<!-- Title: pocketmine\block\utils\Lightable Pages: 1 -->
<svg width="1220pt" height="523pt"
 viewBox="0.00 0.00 1220.00 523.00" xmlns="http://www.w3.org/2000/svg" xmlns:xlink="http://www.w3.org/1999/xlink">
<g id="graph0" class="graph" transform="scale(1 1) rotate(0) translate(4 519)">
<title>pocketmine\block\utils\Lightable</title>
<!-- Node1 -->
<g id="Node000001" class="node">
<title>Node1</title>
<g id="a_Node000001"><a xlink:title=" ">
<polygon fill="#999999" stroke="transparent" points="684.5,-515 563.5,-515 563.5,-440 684.5,-440 684.5,-515"/>
<text text-anchor="start" x="569" y="-502.5" font-family="Helvetica,sans-Serif" font-size="10.00">pocketmine\block\utils</text>
<text text-anchor="start" x="600" y="-491.5" font-family="Helvetica,sans-Serif" font-size="10.00">\Lightable</text>
<text text-anchor="start" x="622.5" y="-476.5" font-family="Helvetica,sans-Serif" font-size="10.00"> </text>
<text text-anchor="start" x="584" y="-461.5" font-family="Helvetica,sans-Serif" font-size="10.00">+</text>
<text text-anchor="start" x="613" y="-461.5" font-family="Helvetica,sans-Serif" font-size="10.00">isLit()</text>
<text text-anchor="start" x="584" y="-446.5" font-family="Helvetica,sans-Serif" font-size="10.00">+</text>
<text text-anchor="start" x="613" y="-446.5" font-family="Helvetica,sans-Serif" font-size="10.00">setLit()</text>
<polygon fill="#666666" stroke="#666666" points="564,-486.5 564,-486.5 685,-486.5 685,-486.5 564,-486.5"/>
<polygon fill="#666666" stroke="#666666" points="564,-471.5 564,-471.5 685,-471.5 685,-471.5 564,-471.5"/>
<polygon fill="none" stroke="#666666" points="563.5,-440 563.5,-515 684.5,-515 684.5,-440 563.5,-440"/>
</a>
</g>
</g>
<!-- Node2 -->
<g id="Node000002" class="node">
<title>Node2</title>
<g id="a_Node000002"><a xlink:href="../../da/d60/classpocketmine_1_1block_1_1_cake_with_candle.html" target="_top" xlink:title=" ">
<polygon fill="white" stroke="transparent" points="164,-342 0,-342 0,-192 164,-192 164,-342"/>
<text text-anchor="start" x="14" y="-330" font-family="Helvetica,sans-Serif" font-size="10.00">pocketmine\block\CakeWith</text>
<text text-anchor="start" x="65" y="-319" font-family="Helvetica,sans-Serif" font-size="10.00">Candle</text>
<text text-anchor="start" x="80" y="-304" font-family="Helvetica,sans-Serif" font-size="10.00"> </text>
<text text-anchor="start" x="4" y="-289" font-family="Helvetica,sans-Serif" font-size="10.00">+</text>
<text text-anchor="start" x="17" y="-289" font-family="Helvetica,sans-Serif" font-size="10.00">getCandle()</text>
<text text-anchor="start" x="4" y="-274" font-family="Helvetica,sans-Serif" font-size="10.00">+</text>
<text text-anchor="start" x="17" y="-274" font-family="Helvetica,sans-Serif" font-size="10.00">getDropsForCompatibleTool()</text>
<text text-anchor="start" x="4" y="-259" font-family="Helvetica,sans-Serif" font-size="10.00">+</text>
<text text-anchor="start" x="17" y="-259" font-family="Helvetica,sans-Serif" font-size="10.00">getPickedItem()</text>
<text text-anchor="start" x="4" y="-244" font-family="Helvetica,sans-Serif" font-size="10.00">+</text>
<text text-anchor="start" x="17" y="-244" font-family="Helvetica,sans-Serif" font-size="10.00">getResidue()</text>
<text text-anchor="start" x="4" y="-229" font-family="Helvetica,sans-Serif" font-size="10.00">+</text>
<text text-anchor="start" x="17" y="-229" font-family="Helvetica,sans-Serif" font-size="10.00">onConsume()</text>
<text text-anchor="start" x="4" y="-214" font-family="Helvetica,sans-Serif" font-size="10.00">+</text>
<text text-anchor="start" x="17" y="-214" font-family="Helvetica,sans-Serif" font-size="10.00">onInteract()</text>
<text text-anchor="start" x="4" y="-199" font-family="Helvetica,sans-Serif" font-size="10.00">#</text>
<text text-anchor="start" x="17" y="-199" font-family="Helvetica,sans-Serif" font-size="10.00">recalculateCollisionBoxes()</text>
<polygon fill="#bfbfbf" stroke="#bfbfbf" points="0,-314 0,-314 164,-314 164,-314 0,-314"/>
<polygon fill="#bfbfbf" stroke="#bfbfbf" points="0,-299 0,-299 164,-299 164,-299 0,-299"/>
<polygon fill="none" stroke="#bfbfbf" points="0,-192 0,-342 164,-342 164,-192 0,-192"/>
</a>
</g>
</g>
<!-- Node1&#45;&gt;Node2 -->
<g id="edge1_Node000001_Node000002" class="edge">
<title>Node1&#45;&gt;Node2</title>
<g id="a_edge1_Node000001_Node000002"><a xlink:title=" ">
<path fill="none" stroke="#63b8ff" d="M553.38,-472C442.72,-463.82 234.74,-443.6 173,-404 149.56,-388.97 130.74,-365.52 116.42,-342.29"/>
<polygon fill="none" stroke="#63b8ff" points="553.22,-475.5 563.45,-472.73 553.73,-468.51 553.22,-475.5"/>
</a>
</g>
</g>
<!-- Node4 -->
<g id="Node000004" class="node">
<title>Node4</title>
<g id="a_Node000004"><a xlink:href="../../d7/d9a/classpocketmine_1_1block_1_1_campfire.html" target="_top" xlink:title=" ">
<polygon fill="white" stroke="transparent" points="346,-404 182,-404 182,-130 346,-130 346,-404"/>
<text text-anchor="start" x="197" y="-392" font-family="Helvetica,sans-Serif" font-size="10.00">pocketmine\block\Campfire</text>
<text text-anchor="start" x="186" y="-377" font-family="Helvetica,sans-Serif" font-size="10.00">#</text>
<text text-anchor="start" x="199" y="-377" font-family="Helvetica,sans-Serif" font-size="10.00">$cookingTimes</text>
<text text-anchor="start" x="186" y="-362" font-family="Helvetica,sans-Serif" font-size="10.00">#</text>
<text text-anchor="start" x="199" y="-362" font-family="Helvetica,sans-Serif" font-size="10.00">$inventory</text>
<text text-anchor="start" x="186" y="-347" font-family="Helvetica,sans-Serif" font-size="10.00">+</text>
<text text-anchor="start" x="199" y="-347" font-family="Helvetica,sans-Serif" font-size="10.00">getCookingTime()</text>
<text text-anchor="start" x="186" y="-332" font-family="Helvetica,sans-Serif" font-size="10.00">+</text>
<text text-anchor="start" x="199" y="-332" font-family="Helvetica,sans-Serif" font-size="10.00">getDropsForCompatibleTool()</text>
<text text-anchor="start" x="186" y="-317" font-family="Helvetica,sans-Serif" font-size="10.00">+</text>
<text text-anchor="start" x="199" y="-317" font-family="Helvetica,sans-Serif" font-size="10.00">getInventory()</text>
<text text-anchor="start" x="186" y="-302" font-family="Helvetica,sans-Serif" font-size="10.00">+</text>
<text text-anchor="start" x="199" y="-302" font-family="Helvetica,sans-Serif" font-size="10.00">getLightLevel()</text>
<text text-anchor="start" x="186" y="-287" font-family="Helvetica,sans-Serif" font-size="10.00">+</text>
<text text-anchor="start" x="199" y="-287" font-family="Helvetica,sans-Serif" font-size="10.00">getSupportType()</text>
<text text-anchor="start" x="186" y="-272" font-family="Helvetica,sans-Serif" font-size="10.00">+</text>
<text text-anchor="start" x="199" y="-272" font-family="Helvetica,sans-Serif" font-size="10.00">hasEntityCollision()</text>
<text text-anchor="start" x="186" y="-257" font-family="Helvetica,sans-Serif" font-size="10.00">+</text>
<text text-anchor="start" x="199" y="-257" font-family="Helvetica,sans-Serif" font-size="10.00">isAffectedBySilkTouch()</text>
<text text-anchor="start" x="186" y="-242" font-family="Helvetica,sans-Serif" font-size="10.00">+</text>
<text text-anchor="start" x="199" y="-242" font-family="Helvetica,sans-Serif" font-size="10.00">onEntityInside()</text>
<text text-anchor="start" x="186" y="-227" font-family="Helvetica,sans-Serif" font-size="10.00">+</text>
<text text-anchor="start" x="199" y="-227" font-family="Helvetica,sans-Serif" font-size="10.00">onInteract()</text>
<text text-anchor="start" x="186" y="-212" font-family="Helvetica,sans-Serif" font-size="10.00">+</text>
<text text-anchor="start" x="199" y="-212" font-family="Helvetica,sans-Serif" font-size="10.00">onNearbyBlockChange()</text>
<text text-anchor="start" x="199" y="-197" font-family="Helvetica,sans-Serif" font-size="10.00">and 6 more...</text>
<text text-anchor="start" x="186" y="-182" font-family="Helvetica,sans-Serif" font-size="10.00">#</text>
<text text-anchor="start" x="199" y="-182" font-family="Helvetica,sans-Serif" font-size="10.00">describeBlockOnlyState()</text>
<text text-anchor="start" x="186" y="-167" font-family="Helvetica,sans-Serif" font-size="10.00">#</text>
<text text-anchor="start" x="199" y="-167" font-family="Helvetica,sans-Serif" font-size="10.00">getEntityCollisionDamage()</text>
<text text-anchor="start" x="186" y="-152" font-family="Helvetica,sans-Serif" font-size="10.00">#</text>
<text text-anchor="start" x="199" y="-152" font-family="Helvetica,sans-Serif" font-size="10.00">getFurnaceType()</text>
<text text-anchor="start" x="186" y="-137" font-family="Helvetica,sans-Serif" font-size="10.00">#</text>
<text text-anchor="start" x="199" y="-137" font-family="Helvetica,sans-Serif" font-size="10.00">recalculateCollisionBoxes()</text>
<polygon fill="#bfbfbf" stroke="#bfbfbf" points="182,-387 182,-387 346,-387 346,-387 182,-387"/>
<polygon fill="#bfbfbf" stroke="#bfbfbf" points="182,-357 182,-357 197,-357 197,-357 182,-357"/>
<polygon fill="#bfbfbf" stroke="#bfbfbf" points="197,-357 197,-357 346,-357 346,-357 197,-357"/>
<polygon fill="none" stroke="#bfbfbf" points="182,-130 182,-404 346,-404 346,-130 182,-130"/>
</a>
</g>
</g>
<!-- Node1&#45;&gt;Node4 -->
<g id="edge3_Node000001_Node000004" class="edge">
<title>Node1&#45;&gt;Node4</title>
<g id="a_edge3_Node000001_Node000004"><a xlink:title=" ">
<path fill="none" stroke="#63b8ff" d="M553.33,-471.15C495.4,-463.74 413.68,-446.08 355,-404 352,-401.85 349.07,-399.56 346.21,-397.17"/>
<polygon fill="none" stroke="#63b8ff" points="553.15,-474.65 563.5,-472.37 553.99,-467.7 553.15,-474.65"/>
</a>
</g>
</g>
<!-- Node6 -->
<g id="Node000006" class="node">
<title>Node6</title>
<g id="a_Node000006"><a xlink:href="../../d6/dd1/classpocketmine_1_1block_1_1_candle.html" target="_top" xlink:title=" ">
<polygon fill="white" stroke="transparent" points="528,-374 364,-374 364,-160 528,-160 528,-374"/>
<text text-anchor="start" x="384" y="-362" font-family="Helvetica,sans-Serif" font-size="10.00">pocketmine\block\Candle</text>
<text text-anchor="start" x="368" y="-347" font-family="Helvetica,sans-Serif" font-size="10.00">+</text>
<text text-anchor="start" x="381" y="-347" font-family="Helvetica,sans-Serif" font-size="10.00">getBaseLightLevel</text>
<text text-anchor="start" x="368" y="-332" font-family="Helvetica,sans-Serif" font-size="10.00">+</text>
<text text-anchor="start" x="381" y="-332" font-family="Helvetica,sans-Serif" font-size="10.00">MAX_COUNT</text>
<text text-anchor="start" x="368" y="-317" font-family="Helvetica,sans-Serif" font-size="10.00">+</text>
<text text-anchor="start" x="381" y="-317" font-family="Helvetica,sans-Serif" font-size="10.00">MIN_COUNT</text>
<text text-anchor="start" x="368" y="-302" font-family="Helvetica,sans-Serif" font-size="10.00">+</text>
<text text-anchor="start" x="381" y="-302" font-family="Helvetica,sans-Serif" font-size="10.00">canBePlacedAt()</text>
<text text-anchor="start" x="368" y="-287" font-family="Helvetica,sans-Serif" font-size="10.00">+</text>
<text text-anchor="start" x="381" y="-287" font-family="Helvetica,sans-Serif" font-size="10.00">getCount()</text>
<text text-anchor="start" x="368" y="-272" font-family="Helvetica,sans-Serif" font-size="10.00">+</text>
<text text-anchor="start" x="381" y="-272" font-family="Helvetica,sans-Serif" font-size="10.00">getDropsForCompatibleTool()</text>
<text text-anchor="start" x="368" y="-257" font-family="Helvetica,sans-Serif" font-size="10.00">+</text>
<text text-anchor="start" x="381" y="-257" font-family="Helvetica,sans-Serif" font-size="10.00">getLightLevel()</text>
<text text-anchor="start" x="368" y="-242" font-family="Helvetica,sans-Serif" font-size="10.00">+</text>
<text text-anchor="start" x="381" y="-242" font-family="Helvetica,sans-Serif" font-size="10.00">getSupportType()</text>
<text text-anchor="start" x="368" y="-227" font-family="Helvetica,sans-Serif" font-size="10.00">+</text>
<text text-anchor="start" x="381" y="-227" font-family="Helvetica,sans-Serif" font-size="10.00">place()</text>
<text text-anchor="start" x="368" y="-212" font-family="Helvetica,sans-Serif" font-size="10.00">+</text>
<text text-anchor="start" x="381" y="-212" font-family="Helvetica,sans-Serif" font-size="10.00">setCount()</text>
<text text-anchor="start" x="368" y="-197" font-family="Helvetica,sans-Serif" font-size="10.00">#</text>
<text text-anchor="start" x="381" y="-197" font-family="Helvetica,sans-Serif" font-size="10.00">describeBlockOnlyState()</text>
<text text-anchor="start" x="368" y="-182" font-family="Helvetica,sans-Serif" font-size="10.00">#</text>
<text text-anchor="start" x="381" y="-182" font-family="Helvetica,sans-Serif" font-size="10.00">getCandleIfCompatibleType()</text>
<text text-anchor="start" x="368" y="-167" font-family="Helvetica,sans-Serif" font-size="10.00">#</text>
<text text-anchor="start" x="381" y="-167" font-family="Helvetica,sans-Serif" font-size="10.00">recalculateCollisionBoxes()</text>
<polygon fill="#bfbfbf" stroke="#bfbfbf" points="364,-357 364,-357 528,-357 528,-357 364,-357"/>
<polygon fill="#bfbfbf" stroke="#bfbfbf" points="364,-312 364,-312 379,-312 379,-312 364,-312"/>
<polygon fill="#bfbfbf" stroke="#bfbfbf" points="379,-312 379,-312 528,-312 528,-312 379,-312"/>
<polygon fill="none" stroke="#bfbfbf" points="364,-160 364,-374 528,-374 528,-160 364,-160"/>
</a>
</g>
</g>
<!-- Node1&#45;&gt;Node6 -->
<g id="edge5_Node000001_Node000006" class="edge">
<title>Node1&#45;&gt;Node6</title>
<g id="a_edge5_Node000001_Node000006"><a xlink:title=" ">
<path fill="none" stroke="#63b8ff" d="M567.18,-433.18C556.64,-424.06 546.1,-414.11 537,-404 528.64,-394.71 520.46,-384.59 512.65,-374.21"/>
<polygon fill="none" stroke="#63b8ff" points="564.93,-435.87 574.82,-439.67 569.46,-430.53 564.93,-435.87"/>
</a>
</g>
</g>
<!-- Node8 -->
<g id="Node000008" class="node">
<title>Node8</title>
<g id="a_Node000008"><a xlink:href="../../d2/de7/classpocketmine_1_1block_1_1_copper_bulb.html" target="_top" xlink:title=" ">
<polygon fill="white" stroke="transparent" points="702,-306.5 546,-306.5 546,-227.5 702,-227.5 702,-306.5"/>
<text text-anchor="start" x="551" y="-294" font-family="Helvetica,sans-Serif" font-size="10.00">pocketmine\block\CopperBulb</text>
<text text-anchor="start" x="622" y="-279" font-family="Helvetica,sans-Serif" font-size="10.00"> </text>
<text text-anchor="start" x="552.5" y="-264" font-family="Helvetica,sans-Serif" font-size="10.00">+</text>
<text text-anchor="start" x="568" y="-264" font-family="Helvetica,sans-Serif" font-size="10.00">getLightLevel()</text>
<text text-anchor="start" x="552.5" y="-249" font-family="Helvetica,sans-Serif" font-size="10.00">+</text>
<text text-anchor="start" x="568" y="-249" font-family="Helvetica,sans-Serif" font-size="10.00">togglePowered()</text>
<text text-anchor="start" x="552.5" y="-234" font-family="Helvetica,sans-Serif" font-size="10.00">#</text>
<text text-anchor="start" x="568" y="-234" font-family="Helvetica,sans-Serif" font-size="10.00">describeBlockOnlyState()</text>
<polygon fill="#bfbfbf" stroke="#bfbfbf" points="546,-289 546,-289 702,-289 702,-289 546,-289"/>
<polygon fill="#bfbfbf" stroke="#bfbfbf" points="546,-274 546,-274 702,-274 702,-274 546,-274"/>
<polygon fill="none" stroke="#bfbfbf" points="546,-227.5 546,-306.5 702,-306.5 702,-227.5 546,-227.5"/>
</a>
</g>
</g>
<!-- Node1&#45;&gt;Node8 -->
<g id="edge7_Node000001_Node000008" class="edge">
<title>Node1&#45;&gt;Node8</title>
<g id="a_edge7_Node000001_Node000008"><a xlink:title=" ">
<path fill="none" stroke="#63b8ff" d="M624,-429.63C624,-392.52 624,-341.31 624,-306.55"/>
<polygon fill="none" stroke="#63b8ff" points="620.5,-429.7 624,-439.7 627.5,-429.7 620.5,-429.7"/>
</a>
</g>
</g>
<!-- Node9 -->
<g id="Node000009" class="node">
<title>Node9</title>
<g id="a_Node000009"><a xlink:href="../../d4/d66/classpocketmine_1_1block_1_1_furnace.html" target="_top" xlink:title=" ">
<polygon fill="white" stroke="transparent" points="865.5,-329 720.5,-329 720.5,-205 865.5,-205 865.5,-329"/>
<text text-anchor="start" x="729.5" y="-317" font-family="Helvetica,sans-Serif" font-size="10.00">pocketmine\block\Furnace</text>
<text text-anchor="start" x="725" y="-302" font-family="Helvetica,sans-Serif" font-size="10.00">#</text>
<text text-anchor="start" x="738" y="-302" font-family="Helvetica,sans-Serif" font-size="10.00">$furnaceType</text>
<text text-anchor="start" x="725" y="-287" font-family="Helvetica,sans-Serif" font-size="10.00">+</text>
<text text-anchor="start" x="738" y="-287" font-family="Helvetica,sans-Serif" font-size="10.00">__construct()</text>
<text text-anchor="start" x="725" y="-272" font-family="Helvetica,sans-Serif" font-size="10.00">+</text>
<text text-anchor="start" x="738" y="-272" font-family="Helvetica,sans-Serif" font-size="10.00">getFurnaceType()</text>
<text text-anchor="start" x="725" y="-257" font-family="Helvetica,sans-Serif" font-size="10.00">+</text>
<text text-anchor="start" x="738" y="-257" font-family="Helvetica,sans-Serif" font-size="10.00">getLightLevel()</text>
<text text-anchor="start" x="725" y="-242" font-family="Helvetica,sans-Serif" font-size="10.00">+</text>
<text text-anchor="start" x="738" y="-242" font-family="Helvetica,sans-Serif" font-size="10.00">onInteract()</text>
<text text-anchor="start" x="725" y="-227" font-family="Helvetica,sans-Serif" font-size="10.00">+</text>
<text text-anchor="start" x="738" y="-227" font-family="Helvetica,sans-Serif" font-size="10.00">onScheduledUpdate()</text>
<text text-anchor="start" x="725" y="-212" font-family="Helvetica,sans-Serif" font-size="10.00">#</text>
<text text-anchor="start" x="738" y="-212" font-family="Helvetica,sans-Serif" font-size="10.00">describeBlockOnlyState()</text>
<polygon fill="#bfbfbf" stroke="#bfbfbf" points="721,-312 721,-312 866,-312 866,-312 721,-312"/>
<polygon fill="#bfbfbf" stroke="#bfbfbf" points="721,-297 721,-297 736,-297 736,-297 721,-297"/>
<polygon fill="#bfbfbf" stroke="#bfbfbf" points="736,-297 736,-297 866,-297 866,-297 736,-297"/>
<polygon fill="none" stroke="#bfbfbf" points="720.5,-205 720.5,-329 865.5,-329 865.5,-205 720.5,-205"/>
</a>
</g>
</g>
<!-- Node1&#45;&gt;Node9 -->
<g id="edge8_Node000001_Node000009" class="edge">
<title>Node1&#45;&gt;Node9</title>
<g id="a_edge8_Node000001_Node000009"><a xlink:title=" ">
<path fill="none" stroke="#63b8ff" d="M681.88,-432.94C692.15,-423.94 702.33,-414.11 711,-404 730.39,-381.41 748.02,-353.67 761.91,-329.15"/>
<polygon fill="none" stroke="#63b8ff" points="679.36,-430.49 674.03,-439.64 683.9,-435.81 679.36,-430.49"/>
</a>
</g>
</g>
<!-- Node10 -->
<g id="Node000010" class="node">
<title>Node10</title>
<g id="a_Node000010"><a xlink:href="../../d6/d6a/classpocketmine_1_1block_1_1_redstone_ore.html" target="_top" xlink:title=" ">
<polygon fill="white" stroke="transparent" points="1048,-344 884,-344 884,-190 1048,-190 1048,-344"/>
<text text-anchor="start" x="889.5" y="-332" font-family="Helvetica,sans-Serif" font-size="10.00">pocketmine\block\RedstoneOre</text>
<text text-anchor="start" x="964" y="-317" font-family="Helvetica,sans-Serif" font-size="10.00"> </text>
<text text-anchor="start" x="888" y="-302" font-family="Helvetica,sans-Serif" font-size="10.00">+</text>
<text text-anchor="start" x="901" y="-302" font-family="Helvetica,sans-Serif" font-size="10.00">getDropsForCompatibleTool()</text>
<text text-anchor="start" x="888" y="-287" font-family="Helvetica,sans-Serif" font-size="10.00">+</text>
<text text-anchor="start" x="901" y="-287" font-family="Helvetica,sans-Serif" font-size="10.00">getLightLevel()</text>
<text text-anchor="start" x="888" y="-272" font-family="Helvetica,sans-Serif" font-size="10.00">+</text>
<text text-anchor="start" x="901" y="-272" font-family="Helvetica,sans-Serif" font-size="10.00">isAffectedBySilkTouch()</text>
<text text-anchor="start" x="888" y="-257" font-family="Helvetica,sans-Serif" font-size="10.00">+</text>
<text text-anchor="start" x="901" y="-257" font-family="Helvetica,sans-Serif" font-size="10.00">onInteract()</text>
<text text-anchor="start" x="888" y="-242" font-family="Helvetica,sans-Serif" font-size="10.00">+</text>
<text text-anchor="start" x="901" y="-242" font-family="Helvetica,sans-Serif" font-size="10.00">onNearbyBlockChange()</text>
<text text-anchor="start" x="888" y="-227" font-family="Helvetica,sans-Serif" font-size="10.00">+</text>
<text text-anchor="start" x="901" y="-227" font-family="Helvetica,sans-Serif" font-size="10.00">onRandomTick()</text>
<text text-anchor="start" x="888" y="-212" font-family="Helvetica,sans-Serif" font-size="10.00">+</text>
<text text-anchor="start" x="901" y="-212" font-family="Helvetica,sans-Serif" font-size="10.00">ticksRandomly()</text>
<text text-anchor="start" x="888" y="-197" font-family="Helvetica,sans-Serif" font-size="10.00">#</text>
<text text-anchor="start" x="901" y="-197" font-family="Helvetica,sans-Serif" font-size="10.00">getXpDropAmount()</text>
<polygon fill="#bfbfbf" stroke="#bfbfbf" points="884,-327 884,-327 1048,-327 1048,-327 884,-327"/>
<polygon fill="#bfbfbf" stroke="#bfbfbf" points="884,-312 884,-312 1048,-312 1048,-312 884,-312"/>
<polygon fill="none" stroke="#bfbfbf" points="884,-190 884,-344 1048,-344 1048,-190 884,-190"/>
</a>
</g>
</g>
<!-- Node1&#45;&gt;Node10 -->
<g id="edge9_Node000001_Node000010" class="edge">
<title>Node1&#45;&gt;Node10</title>
<g id="a_edge9_Node000001_Node000010"><a xlink:title=" ">
<path fill="none" stroke="#63b8ff" d="M694.8,-469.3C748.52,-460.89 821.93,-442.78 875,-404 896.33,-388.41 914.17,-366.2 928.25,-344.23"/>
<polygon fill="none" stroke="#63b8ff" points="694.04,-465.88 684.67,-470.81 695.07,-472.8 694.04,-465.88"/>
</a>
</g>
</g>
<!-- Node11 -->
<g id="Node000011" class="node">
<title>Node11</title>
<g id="a_Node000011"><a xlink:href="../../d6/d4f/classpocketmine_1_1block_1_1_redstone_torch.html" target="_top" xlink:title=" ">
<polygon fill="white" stroke="transparent" points="1212,-312 1066,-312 1066,-222 1212,-222 1212,-312"/>
<text text-anchor="start" x="1071" y="-300" font-family="Helvetica,sans-Serif" font-size="10.00">pocketmine\block\Redstone</text>
<text text-anchor="start" x="1126" y="-289" font-family="Helvetica,sans-Serif" font-size="10.00">Torch</text>
<text text-anchor="start" x="1137" y="-274" font-family="Helvetica,sans-Serif" font-size="10.00"> </text>
<text text-anchor="start" x="1070" y="-259" font-family="Helvetica,sans-Serif" font-size="10.00">+</text>
<text text-anchor="start" x="1083" y="-259" font-family="Helvetica,sans-Serif" font-size="10.00">__construct()</text>
<text text-anchor="start" x="1070" y="-244" font-family="Helvetica,sans-Serif" font-size="10.00">+</text>
<text text-anchor="start" x="1083" y="-244" font-family="Helvetica,sans-Serif" font-size="10.00">getLightLevel()</text>
<text text-anchor="start" x="1070" y="-229" font-family="Helvetica,sans-Serif" font-size="10.00">#</text>
<text text-anchor="start" x="1083" y="-229" font-family="Helvetica,sans-Serif" font-size="10.00">describeBlockOnlyState()</text>
<polygon fill="#bfbfbf" stroke="#bfbfbf" points="1066,-284 1066,-284 1212,-284 1212,-284 1066,-284"/>
<polygon fill="#bfbfbf" stroke="#bfbfbf" points="1066,-269 1066,-269 1212,-269 1212,-269 1066,-269"/>
<polygon fill="none" stroke="#bfbfbf" points="1066,-222 1066,-312 1212,-312 1212,-222 1066,-222"/>
</a>
</g>
</g>
<!-- Node1&#45;&gt;Node11 -->
<g id="edge10_Node000001_Node000011" class="edge">
<title>Node1&#45;&gt;Node11</title>
<g id="a_edge10_Node000001_Node000011"><a xlink:title=" ">
<path fill="none" stroke="#63b8ff" d="M694.89,-471.79C802.12,-463.48 999.22,-443.28 1057,-404 1089.26,-382.07 1110.91,-342.83 1123.82,-312.12"/>
<polygon fill="none" stroke="#63b8ff" points="694.5,-468.31 684.8,-472.55 695.03,-475.29 694.5,-468.31"/>
</a>
</g>
</g>
<!-- Node3 -->
<g id="Node000003" class="node">
<title>Node3</title>
<g id="a_Node000003"><a xlink:href="../../d1/d2e/classpocketmine_1_1block_1_1_cake_with_dyed_candle.html" target="_top" xlink:title=" ">
<polygon fill="white" stroke="transparent" points="155,-84.5 9,-84.5 9,-9.5 155,-9.5 155,-84.5"/>
<text text-anchor="start" x="14" y="-72" font-family="Helvetica,sans-Serif" font-size="10.00">pocketmine\block\CakeWith</text>
<text text-anchor="start" x="52" y="-61" font-family="Helvetica,sans-Serif" font-size="10.00">DyedCandle</text>
<text text-anchor="start" x="80" y="-46" font-family="Helvetica,sans-Serif" font-size="10.00"> </text>
<text text-anchor="start" x="28" y="-31" font-family="Helvetica,sans-Serif" font-size="10.00">+</text>
<text text-anchor="start" x="56" y="-31" font-family="Helvetica,sans-Serif" font-size="10.00">__construct()</text>
<text text-anchor="start" x="28" y="-16" font-family="Helvetica,sans-Serif" font-size="10.00">+</text>
<text text-anchor="start" x="56" y="-16" font-family="Helvetica,sans-Serif" font-size="10.00">getCandle()</text>
<polygon fill="#bfbfbf" stroke="#bfbfbf" points="9,-56 9,-56 155,-56 155,-56 9,-56"/>
<polygon fill="#bfbfbf" stroke="#bfbfbf" points="9,-41 9,-41 155,-41 155,-41 9,-41"/>
<polygon fill="none" stroke="#bfbfbf" points="9,-9.5 9,-84.5 155,-84.5 155,-9.5 9,-9.5"/>
</a>
</g>
</g>
<!-- Node2&#45;&gt;Node3 -->
<g id="edge2_Node000002_Node000003" class="edge">
<title>Node2&#45;&gt;Node3</title>
<g id="a_edge2_Node000002_Node000003"><a xlink:title=" ">
<path fill="none" stroke="#63b8ff" d="M82,-181.58C82,-147.98 82,-111.09 82,-84.61"/>
<polygon fill="none" stroke="#63b8ff" points="78.5,-181.89 82,-191.89 85.5,-181.89 78.5,-181.89"/>
</a>
</g>
</g>
<!-- Node5 -->
<g id="Node000005" class="node">
<title>Node5</title>
<g id="a_Node000005"><a xlink:href="../../dc/d3e/classpocketmine_1_1block_1_1_soul_campfire.html" target="_top" xlink:title=" ">
<polygon fill="white" stroke="transparent" points="345.5,-94 180.5,-94 180.5,0 345.5,0 345.5,-94"/>
<text text-anchor="start" x="186" y="-82" font-family="Helvetica,sans-Serif" font-size="10.00">pocketmine\block\SoulCampfire</text>
<text text-anchor="start" x="261.5" y="-67" font-family="Helvetica,sans-Serif" font-size="10.00"> </text>
<text text-anchor="start" x="185" y="-52" font-family="Helvetica,sans-Serif" font-size="10.00">+</text>
<text text-anchor="start" x="198" y="-52" font-family="Helvetica,sans-Serif" font-size="10.00">getDropsForCompatibleTool()</text>
<text text-anchor="start" x="185" y="-37" font-family="Helvetica,sans-Serif" font-size="10.00">+</text>
<text text-anchor="start" x="198" y="-37" font-family="Helvetica,sans-Serif" font-size="10.00">getLightLevel()</text>
<text text-anchor="start" x="185" y="-22" font-family="Helvetica,sans-Serif" font-size="10.00">#</text>
<text text-anchor="start" x="198" y="-22" font-family="Helvetica,sans-Serif" font-size="10.00">getEntityCollisionDamage()</text>
<text text-anchor="start" x="185" y="-7" font-family="Helvetica,sans-Serif" font-size="10.00">#</text>
<text text-anchor="start" x="198" y="-7" font-family="Helvetica,sans-Serif" font-size="10.00">getFurnaceType()</text>
<polygon fill="#bfbfbf" stroke="#bfbfbf" points="181,-77 181,-77 346,-77 346,-77 181,-77"/>
<polygon fill="#bfbfbf" stroke="#bfbfbf" points="181,-62 181,-62 346,-62 346,-62 181,-62"/>
<polygon fill="none" stroke="#bfbfbf" points="180.5,0 180.5,-94 345.5,-94 345.5,0 180.5,0"/>
</a>
</g>
</g>
<!-- Node4&#45;&gt;Node5 -->
<g id="edge4_Node000004_Node000005" class="edge">
<title>Node4&#45;&gt;Node5</title>
<g id="a_edge4_Node000004_Node000005"><a xlink:title=" ">
<path fill="none" stroke="#63b8ff" d="M263.33,-119.62C263.29,-110.73 263.25,-102.22 263.21,-94.37"/>
<polygon fill="none" stroke="#63b8ff" points="259.83,-119.81 263.38,-129.8 266.83,-119.78 259.83,-119.81"/>
</a>
</g>
</g>
<!-- Node7 -->
<g id="Node000007" class="node">
<title>Node7</title>
<g id="a_Node000007"><a xlink:href="../../dc/d10/classpocketmine_1_1block_1_1_dyed_candle.html" target="_top" xlink:title=" ">
<polygon fill="white" stroke="transparent" points="528,-71.5 364,-71.5 364,-22.5 528,-22.5 528,-71.5"/>
<text text-anchor="start" x="371.5" y="-59" font-family="Helvetica,sans-Serif" font-size="10.00">pocketmine\block\DyedCandle</text>
<text text-anchor="start" x="444" y="-44" font-family="Helvetica,sans-Serif" font-size="10.00"> </text>
<text text-anchor="start" x="368" y="-29" font-family="Helvetica,sans-Serif" font-size="10.00">#</text>
<text text-anchor="start" x="381" y="-29" font-family="Helvetica,sans-Serif" font-size="10.00">getCandleIfCompatibleType()</text>
<polygon fill="#bfbfbf" stroke="#bfbfbf" points="364,-54 364,-54 528,-54 528,-54 364,-54"/>
<polygon fill="#bfbfbf" stroke="#bfbfbf" points="364,-39 364,-39 528,-39 528,-39 364,-39"/>
<polygon fill="none" stroke="#bfbfbf" points="364,-22.5 364,-71.5 528,-71.5 528,-22.5 364,-22.5"/>
</a>
</g>
</g>
<!-- Node6&#45;&gt;Node7 -->
<g id="edge6_Node000006_Node000007" class="edge">
<title>Node6&#45;&gt;Node7</title>
<g id="a_edge6_Node000006_Node000007"><a xlink:title=" ">
<path fill="none" stroke="#63b8ff" d="M446,-149.78C446,-120.06 446,-91.06 446,-71.67"/>
<polygon fill="none" stroke="#63b8ff" points="442.5,-149.87 446,-159.87 449.5,-149.87 442.5,-149.87"/>
</a>
</g>
</g>
</g>
</svg>
