<?xml version="1.0" encoding="UTF-8" standalone="no"?>
<!DOCTYPE svg PUBLIC "-//W3C//DTD SVG 1.1//EN"
 "http://www.w3.org/Graphics/SVG/1.1/DTD/svg11.dtd">
<!-- Generated by graphviz version 2.43.0 (0)
 -->
<!-- Title: pocketmine\block\Skull Pages: 1 -->
<svg width="671pt" height="1958pt"
 viewBox="0.00 0.00 671.30 1958.00" xmlns="http://www.w3.org/2000/svg" xmlns:xlink="http://www.w3.org/1999/xlink">
<g id="graph0" class="graph" transform="scale(1 1) rotate(0) translate(4 1954)">
<title>pocketmine\block\Skull</title>
<polygon fill="white" stroke="transparent" points="-4,4 -4,-1954 667.3,-1954 667.3,4 -4,4"/>
<!-- Node1 -->
<g id="node1" class="node">
<title>Node1</title>
<g id="a_node1"><a xlink:title=" ">
<polygon fill="#bfbfbf" stroke="black" points="52.8,-0.5 52.8,-200.5 213.8,-200.5 213.8,-0.5 52.8,-0.5"/>
<text text-anchor="middle" x="133.3" y="-188.5" font-family="Helvetica,sans-Serif" font-size="10.00">pocketmine\block\Skull</text>
<polyline fill="none" stroke="black" points="52.8,-181.5 213.8,-181.5 "/>
<text text-anchor="start" x="60.8" y="-169.5" font-family="Helvetica,sans-Serif" font-size="10.00"># $facing</text>
<text text-anchor="start" x="60.8" y="-158.5" font-family="Helvetica,sans-Serif" font-size="10.00"># $rotation</text>
<polyline fill="none" stroke="black" points="52.8,-151.5 213.8,-151.5 "/>
<text text-anchor="start" x="60.8" y="-139.5" font-family="Helvetica,sans-Serif" font-size="10.00">+ __construct()</text>
<text text-anchor="start" x="60.8" y="-128.5" font-family="Helvetica,sans-Serif" font-size="10.00">+ getFacing()</text>
<text text-anchor="start" x="60.8" y="-117.5" font-family="Helvetica,sans-Serif" font-size="10.00">+ getRotation()</text>
<text text-anchor="start" x="60.8" y="-106.5" font-family="Helvetica,sans-Serif" font-size="10.00">+ getSkullType()</text>
<text text-anchor="start" x="60.8" y="-95.5" font-family="Helvetica,sans-Serif" font-size="10.00">+ place()</text>
<text text-anchor="start" x="60.8" y="-84.5" font-family="Helvetica,sans-Serif" font-size="10.00">+ readStateFromWorld()</text>
<text text-anchor="start" x="60.8" y="-73.5" font-family="Helvetica,sans-Serif" font-size="10.00">+ setFacing()</text>
<text text-anchor="start" x="60.8" y="-62.5" font-family="Helvetica,sans-Serif" font-size="10.00">+ setRotation()</text>
<text text-anchor="start" x="60.8" y="-51.5" font-family="Helvetica,sans-Serif" font-size="10.00">+ setSkullType()</text>
<text text-anchor="start" x="60.8" y="-40.5" font-family="Helvetica,sans-Serif" font-size="10.00">+ writeStateToWorld()</text>
<text text-anchor="start" x="60.8" y="-29.5" font-family="Helvetica,sans-Serif" font-size="10.00"># describeState()</text>
<text text-anchor="start" x="60.8" y="-18.5" font-family="Helvetica,sans-Serif" font-size="10.00"># describeType()</text>
<text text-anchor="start" x="60.8" y="-7.5" font-family="Helvetica,sans-Serif" font-size="10.00"># recalculateCollisionBoxes()</text>
</a>
</g>
</g>
<!-- Node2 -->
<g id="node2" class="node">
<title>Node2</title>
<g id="a_node2"><a xlink:href="../../d3/d1e/classpocketmine_1_1block_1_1_flowable.html" target="_top" xlink:title=" ">
<polygon fill="white" stroke="black" points="52.8,-259.5 52.8,-349.5 213.8,-349.5 213.8,-259.5 52.8,-259.5"/>
<text text-anchor="middle" x="133.3" y="-337.5" font-family="Helvetica,sans-Serif" font-size="10.00">pocketmine\block\Flowable</text>
<polyline fill="none" stroke="black" points="52.8,-330.5 213.8,-330.5 "/>
<text text-anchor="middle" x="133.3" y="-318.5" font-family="Helvetica,sans-Serif" font-size="10.00"> </text>
<polyline fill="none" stroke="black" points="52.8,-311.5 213.8,-311.5 "/>
<text text-anchor="start" x="60.8" y="-299.5" font-family="Helvetica,sans-Serif" font-size="10.00">+ canBeFlowedInto()</text>
<text text-anchor="start" x="60.8" y="-288.5" font-family="Helvetica,sans-Serif" font-size="10.00">+ getSupportType()</text>
<text text-anchor="start" x="60.8" y="-277.5" font-family="Helvetica,sans-Serif" font-size="10.00">+ isSolid()</text>
<text text-anchor="start" x="60.8" y="-266.5" font-family="Helvetica,sans-Serif" font-size="10.00"># recalculateCollisionBoxes()</text>
</a>
</g>
</g>
<!-- Node2&#45;&gt;Node1 -->
<g id="edge1" class="edge">
<title>Node2&#45;&gt;Node1</title>
<path fill="none" stroke="midnightblue" d="M133.3,-249.11C133.3,-234.15 133.3,-217.44 133.3,-200.79"/>
<polygon fill="none" stroke="midnightblue" points="129.8,-249.17 133.3,-259.17 136.8,-249.17 129.8,-249.17"/>
</g>
<!-- Node3 -->
<g id="node3" class="node">
<title>Node3</title>
<g id="a_node3"><a xlink:href="../../d5/d1b/classpocketmine_1_1block_1_1_transparent.html" target="_top" xlink:title=" ">
<polygon fill="white" stroke="black" points="75.8,-398.5 75.8,-455.5 238.8,-455.5 238.8,-398.5 75.8,-398.5"/>
<text text-anchor="middle" x="157.3" y="-443.5" font-family="Helvetica,sans-Serif" font-size="10.00">pocketmine\block\Transparent</text>
<polyline fill="none" stroke="black" points="75.8,-436.5 238.8,-436.5 "/>
<text text-anchor="middle" x="157.3" y="-424.5" font-family="Helvetica,sans-Serif" font-size="10.00"> </text>
<polyline fill="none" stroke="black" points="75.8,-417.5 238.8,-417.5 "/>
<text text-anchor="start" x="83.8" y="-405.5" font-family="Helvetica,sans-Serif" font-size="10.00">+ isTransparent()</text>
</a>
</g>
</g>
<!-- Node3&#45;&gt;Node2 -->
<g id="edge2" class="edge">
<title>Node3&#45;&gt;Node2</title>
<path fill="none" stroke="midnightblue" d="M149.82,-388.41C147.36,-376.09 144.61,-362.3 142.08,-349.55"/>
<polygon fill="none" stroke="midnightblue" points="146.41,-389.23 151.8,-398.35 153.28,-387.86 146.41,-389.23"/>
</g>
<!-- Node4 -->
<g id="node4" class="node">
<title>Node4</title>
<g id="a_node4"><a xlink:href="../../d7/d27/classpocketmine_1_1block_1_1_block.html" target="_top" xlink:title=" ">
<polygon fill="white" stroke="#bfbfbf" points="123.8,-493.5 123.8,-715.5 284.8,-715.5 284.8,-493.5 123.8,-493.5"/>
<text text-anchor="middle" x="204.3" y="-703.5" font-family="Helvetica,sans-Serif" font-size="10.00">pocketmine\block\Block</text>
<polyline fill="none" stroke="#bfbfbf" points="123.8,-696.5 284.8,-696.5 "/>
<text text-anchor="start" x="131.8" y="-684.5" font-family="Helvetica,sans-Serif" font-size="10.00"># $collisionBoxes</text>
<text text-anchor="start" x="131.8" y="-673.5" font-family="Helvetica,sans-Serif" font-size="10.00"># $fallbackName</text>
<polyline fill="none" stroke="#bfbfbf" points="123.8,-666.5 284.8,-666.5 "/>
<text text-anchor="start" x="131.8" y="-654.5" font-family="Helvetica,sans-Serif" font-size="10.00">+ __construct()</text>
<text text-anchor="start" x="131.8" y="-643.5" font-family="Helvetica,sans-Serif" font-size="10.00">+ __clone()</text>
<text text-anchor="start" x="131.8" y="-632.5" font-family="Helvetica,sans-Serif" font-size="10.00">+ __toString()</text>
<text text-anchor="start" x="131.8" y="-621.5" font-family="Helvetica,sans-Serif" font-size="10.00">+ addVelocityToEntity()</text>
<text text-anchor="start" x="131.8" y="-610.5" font-family="Helvetica,sans-Serif" font-size="10.00">+ asItem()</text>
<text text-anchor="start" x="131.8" y="-599.5" font-family="Helvetica,sans-Serif" font-size="10.00">+ blocksDirectSkyLight()</text>
<text text-anchor="start" x="131.8" y="-588.5" font-family="Helvetica,sans-Serif" font-size="10.00">+ burnsForever()</text>
<text text-anchor="start" x="131.8" y="-577.5" font-family="Helvetica,sans-Serif" font-size="10.00">+ calculateIntercept()</text>
<text text-anchor="start" x="131.8" y="-566.5" font-family="Helvetica,sans-Serif" font-size="10.00">+ canBeFlowedInto()</text>
<text text-anchor="start" x="131.8" y="-555.5" font-family="Helvetica,sans-Serif" font-size="10.00">+ canBePlaced()</text>
<text text-anchor="start" x="131.8" y="-544.5" font-family="Helvetica,sans-Serif" font-size="10.00">and 63 more...</text>
<text text-anchor="start" x="131.8" y="-533.5" font-family="Helvetica,sans-Serif" font-size="10.00"># describeState()</text>
<text text-anchor="start" x="131.8" y="-522.5" font-family="Helvetica,sans-Serif" font-size="10.00"># describeType()</text>
<text text-anchor="start" x="131.8" y="-511.5" font-family="Helvetica,sans-Serif" font-size="10.00"># getXpDropAmount()</text>
<text text-anchor="start" x="131.8" y="-500.5" font-family="Helvetica,sans-Serif" font-size="10.00"># recalculateCollisionBoxes()</text>
</a>
</g>
</g>
<!-- Node4&#45;&gt;Node3 -->
<g id="edge3" class="edge">
<title>Node4&#45;&gt;Node3</title>
<path fill="none" stroke="midnightblue" d="M172.14,-483.41C169.41,-473.23 166.87,-463.72 164.68,-455.56"/>
<polygon fill="none" stroke="midnightblue" points="168.84,-484.6 174.8,-493.35 175.6,-482.78 168.84,-484.6"/>
</g>
<!-- Node5 -->
<g id="node5" class="node">
<title>Node5</title>
<g id="a_node5"><a xlink:title=" ">
<polygon fill="white" stroke="#bfbfbf" points="17.8,-1490.5 17.8,-1547.5 60.8,-1547.5 60.8,-1490.5 17.8,-1490.5"/>
<text text-anchor="middle" x="39.3" y="-1535.5" font-family="Helvetica,sans-Serif" font-size="10.00">const</text>
<polyline fill="none" stroke="#bfbfbf" points="17.8,-1528.5 60.8,-1528.5 "/>
<text text-anchor="middle" x="39.3" y="-1516.5" font-family="Helvetica,sans-Serif" font-size="10.00"> </text>
<polyline fill="none" stroke="#bfbfbf" points="17.8,-1509.5 60.8,-1509.5 "/>
<text text-anchor="middle" x="39.3" y="-1497.5" font-family="Helvetica,sans-Serif" font-size="10.00"> </text>
</a>
</g>
</g>
<!-- Node5&#45;&gt;Node1 -->
<g id="edge14" class="edge">
<title>Node5&#45;&gt;Node1</title>
<path fill="none" stroke="#404040" d="M30.69,-1490.32C25.58,-1472.67 19.5,-1449.21 16.3,-1428 -3.91,-1294.02 1.3,-1259 1.3,-1123.5 1.3,-1123.5 1.3,-1123.5 1.3,-303.5 1.3,-261.94 21.13,-222.25 45.41,-189.23"/>
<polygon fill="none" stroke="#404040" points="45.44,-189.19 45.9,-182 52.72,-179.65 52.26,-186.85 45.44,-189.19"/>
<text text-anchor="middle" x="45.8" y="-607.5" font-family="Helvetica,sans-Serif" font-size="10.00"> +MAX_ROTATION</text>
<text text-anchor="middle" x="45.8" y="-596.5" font-family="Helvetica,sans-Serif" font-size="10.00">+MIN_ROTATION</text>
</g>
<!-- Node5&#45;&gt;Node4 -->
<g id="edge4" class="edge">
<title>Node5&#45;&gt;Node4</title>
<path fill="none" stroke="#404040" d="M35.56,-1490.48C24.69,-1404.25 -2.92,-1132.13 48.3,-916 63.99,-849.82 96.11,-781.72 127.15,-726.21"/>
<polygon fill="none" stroke="#404040" points="127.22,-726.09 126.7,-718.9 133.14,-715.64 133.66,-722.84 127.22,-726.09"/>
<text text-anchor="start" x="48.3" y="-941" font-family="Helvetica,sans-Serif" font-size="10.00"> +INTERNAL_STATE_DATA</text>
<text text-anchor="middle" x="126.8" y="-930" font-family="Helvetica,sans-Serif" font-size="10.00">_BITS</text>
<text text-anchor="middle" x="126.8" y="-919" font-family="Helvetica,sans-Serif" font-size="10.00">+INTERNAL_STATE_DATA_MASK</text>
</g>
<!-- Node10 -->
<g id="node10" class="node">
<title>Node10</title>
<g id="a_node10"><a xlink:href="../../d4/d2b/classpocketmine_1_1world_1_1_world.html" target="_top" xlink:title=" ">
<polygon fill="white" stroke="black" points="133.3,-967.5 133.3,-1277.5 305.3,-1277.5 305.3,-967.5 133.3,-967.5"/>
<text text-anchor="middle" x="219.3" y="-1265.5" font-family="Helvetica,sans-Serif" font-size="10.00">pocketmine\world\World</text>
<polyline fill="none" stroke="black" points="133.3,-1258.5 305.3,-1258.5 "/>
<text text-anchor="start" x="141.3" y="-1246.5" font-family="Helvetica,sans-Serif" font-size="10.00">+ $stopTime</text>
<text text-anchor="start" x="141.3" y="-1235.5" font-family="Helvetica,sans-Serif" font-size="10.00">+ $tickRateTime</text>
<text text-anchor="start" x="141.3" y="-1224.5" font-family="Helvetica,sans-Serif" font-size="10.00">+ $updateEntities</text>
<text text-anchor="start" x="141.3" y="-1213.5" font-family="Helvetica,sans-Serif" font-size="10.00">+ TIME_SUNRISE</text>
<text text-anchor="start" x="141.3" y="-1202.5" font-family="Helvetica,sans-Serif" font-size="10.00">+ TIME_SUNSET</text>
<text text-anchor="start" x="141.3" y="-1191.5" font-family="Helvetica,sans-Serif" font-size="10.00">+ Y_MAX</text>
<text text-anchor="start" x="141.3" y="-1180.5" font-family="Helvetica,sans-Serif" font-size="10.00">+ Y_MIN</text>
<polyline fill="none" stroke="black" points="133.3,-1173.5 305.3,-1173.5 "/>
<text text-anchor="start" x="141.3" y="-1161.5" font-family="Helvetica,sans-Serif" font-size="10.00">+ __construct()</text>
<text text-anchor="start" x="141.3" y="-1150.5" font-family="Helvetica,sans-Serif" font-size="10.00">+ __debugInfo()</text>
<text text-anchor="start" x="141.3" y="-1139.5" font-family="Helvetica,sans-Serif" font-size="10.00">+ addEntity()</text>
<text text-anchor="start" x="141.3" y="-1128.5" font-family="Helvetica,sans-Serif" font-size="10.00">+ addOnUnloadCallback()</text>
<text text-anchor="start" x="141.3" y="-1117.5" font-family="Helvetica,sans-Serif" font-size="10.00">+ addParticle()</text>
<text text-anchor="start" x="141.3" y="-1106.5" font-family="Helvetica,sans-Serif" font-size="10.00">+ addRandomTickedBlock()</text>
<text text-anchor="start" x="141.3" y="-1095.5" font-family="Helvetica,sans-Serif" font-size="10.00">+ addSound()</text>
<text text-anchor="start" x="141.3" y="-1084.5" font-family="Helvetica,sans-Serif" font-size="10.00">+ addTile()</text>
<text text-anchor="start" x="141.3" y="-1073.5" font-family="Helvetica,sans-Serif" font-size="10.00">+ broadcastPacketToViewers()</text>
<text text-anchor="start" x="141.3" y="-1062.5" font-family="Helvetica,sans-Serif" font-size="10.00">+ cancelUnloadChunkRequest()</text>
<text text-anchor="start" x="141.3" y="-1051.5" font-family="Helvetica,sans-Serif" font-size="10.00">and 116 more...</text>
<text text-anchor="start" x="141.3" y="-1040.5" font-family="Helvetica,sans-Serif" font-size="10.00">+ blockHash()</text>
<text text-anchor="start" x="141.3" y="-1029.5" font-family="Helvetica,sans-Serif" font-size="10.00">+ chunkBlockHash()</text>
<text text-anchor="start" x="141.3" y="-1018.5" font-family="Helvetica,sans-Serif" font-size="10.00">+ chunkHash()</text>
<text text-anchor="start" x="141.3" y="-1007.5" font-family="Helvetica,sans-Serif" font-size="10.00">+ getBlockXYZ()</text>
<text text-anchor="start" x="141.3" y="-996.5" font-family="Helvetica,sans-Serif" font-size="10.00">+ getDifficultyFromString()</text>
<text text-anchor="start" x="141.3" y="-985.5" font-family="Helvetica,sans-Serif" font-size="10.00">+ getXZ()</text>
<text text-anchor="start" x="141.3" y="-974.5" font-family="Helvetica,sans-Serif" font-size="10.00"># actuallyDoTick()</text>
</a>
</g>
</g>
<!-- Node5&#45;&gt;Node10 -->
<g id="edge11" class="edge">
<title>Node5&#45;&gt;Node10</title>
<path fill="none" stroke="#404040" d="M42.56,-1490.12C48.89,-1438.52 63.59,-1330.26 79.3,-1296 91.19,-1270.08 107.89,-1244.74 125.63,-1221.81"/>
<polygon fill="none" stroke="#404040" points="125.84,-1221.55 126.43,-1214.36 133.29,-1212.14 132.7,-1219.33 125.84,-1221.55"/>
<text text-anchor="start" x="79.3" y="-1420" font-family="Helvetica,sans-Serif" font-size="10.00"> +DEFAULT_TICKED_BLOCKS</text>
<text text-anchor="middle" x="149.3" y="-1409" font-family="Helvetica,sans-Serif" font-size="10.00">_PER_SUBCHUNK_PER_TICK</text>
<text text-anchor="middle" x="149.3" y="-1398" font-family="Helvetica,sans-Serif" font-size="10.00">+DIFFICULTY_EASY</text>
<text text-anchor="middle" x="149.3" y="-1387" font-family="Helvetica,sans-Serif" font-size="10.00">+DIFFICULTY_HARD</text>
<text text-anchor="middle" x="149.3" y="-1376" font-family="Helvetica,sans-Serif" font-size="10.00">+DIFFICULTY_NORMAL</text>
<text text-anchor="middle" x="149.3" y="-1365" font-family="Helvetica,sans-Serif" font-size="10.00">+DIFFICULTY_PEACEFUL</text>
<text text-anchor="middle" x="149.3" y="-1354" font-family="Helvetica,sans-Serif" font-size="10.00">+TIME_DAY</text>
<text text-anchor="middle" x="149.3" y="-1343" font-family="Helvetica,sans-Serif" font-size="10.00">+TIME_FULL</text>
<text text-anchor="middle" x="149.3" y="-1332" font-family="Helvetica,sans-Serif" font-size="10.00">+TIME_MIDNIGHT</text>
<text text-anchor="middle" x="149.3" y="-1321" font-family="Helvetica,sans-Serif" font-size="10.00">+TIME_NIGHT</text>
<text text-anchor="middle" x="149.3" y="-1310" font-family="Helvetica,sans-Serif" font-size="10.00">+TIME_NOON</text>
<text text-anchor="middle" x="149.3" y="-1299" font-family="Helvetica,sans-Serif" font-size="10.00">...</text>
</g>
<!-- Node6 -->
<g id="node6" class="node">
<title>Node6</title>
<g id="a_node6"><a xlink:href="../../dd/d18/classpocketmine_1_1block_1_1_block_identifier.html" target="_top" xlink:title=" ">
<polygon fill="white" stroke="#bfbfbf" points="295.3,-791 295.3,-870 471.3,-870 471.3,-791 295.3,-791"/>
<text text-anchor="middle" x="383.3" y="-858" font-family="Helvetica,sans-Serif" font-size="10.00">pocketmine\block\BlockIdentifier</text>
<polyline fill="none" stroke="#bfbfbf" points="295.3,-851 471.3,-851 "/>
<text text-anchor="middle" x="383.3" y="-839" font-family="Helvetica,sans-Serif" font-size="10.00"> </text>
<polyline fill="none" stroke="#bfbfbf" points="295.3,-832 471.3,-832 "/>
<text text-anchor="start" x="303.3" y="-820" font-family="Helvetica,sans-Serif" font-size="10.00">+ __construct()</text>
<text text-anchor="start" x="303.3" y="-809" font-family="Helvetica,sans-Serif" font-size="10.00">+ getBlockTypeId()</text>
<text text-anchor="start" x="303.3" y="-798" font-family="Helvetica,sans-Serif" font-size="10.00">+ getTileClass()</text>
</a>
</g>
</g>
<!-- Node6&#45;&gt;Node4 -->
<g id="edge5" class="edge">
<title>Node6&#45;&gt;Node4</title>
<path fill="none" stroke="#404040" d="M352.53,-790.99C335.81,-770.07 314.19,-743.02 292.66,-716.08"/>
<polygon fill="none" stroke="#404040" points="292.55,-715.94 285.68,-713.74 285.06,-706.56 291.93,-708.75 292.55,-715.94"/>
<text text-anchor="middle" x="337.3" y="-737" font-family="Helvetica,sans-Serif" font-size="10.00"> #$idInfo</text>
</g>
<!-- Node7 -->
<g id="node7" class="node">
<title>Node7</title>
<g id="a_node7"><a xlink:href="../../de/d9a/classpocketmine_1_1block_1_1_block_type_info.html" target="_top" xlink:title=" ">
<polygon fill="white" stroke="#bfbfbf" points="489.3,-785.5 489.3,-875.5 663.3,-875.5 663.3,-785.5 489.3,-785.5"/>
<text text-anchor="middle" x="576.3" y="-863.5" font-family="Helvetica,sans-Serif" font-size="10.00">pocketmine\block\BlockTypeInfo</text>
<polyline fill="none" stroke="#bfbfbf" points="489.3,-856.5 663.3,-856.5 "/>
<text text-anchor="middle" x="576.3" y="-844.5" font-family="Helvetica,sans-Serif" font-size="10.00"> </text>
<polyline fill="none" stroke="#bfbfbf" points="489.3,-837.5 663.3,-837.5 "/>
<text text-anchor="start" x="497.3" y="-825.5" font-family="Helvetica,sans-Serif" font-size="10.00">+ __construct()</text>
<text text-anchor="start" x="497.3" y="-814.5" font-family="Helvetica,sans-Serif" font-size="10.00">+ getBreakInfo()</text>
<text text-anchor="start" x="497.3" y="-803.5" font-family="Helvetica,sans-Serif" font-size="10.00">+ getTypeTags()</text>
<text text-anchor="start" x="497.3" y="-792.5" font-family="Helvetica,sans-Serif" font-size="10.00">+ hasTypeTag()</text>
</a>
</g>
</g>
<!-- Node7&#45;&gt;Node4 -->
<g id="edge6" class="edge">
<title>Node7&#45;&gt;Node4</title>
<path fill="none" stroke="#404040" d="M514.35,-785.42C503.13,-777.77 491.45,-770.02 480.3,-763 419.8,-724.89 349.82,-684.99 295.46,-654.89"/>
<polygon fill="none" stroke="#404040" points="295.31,-654.81 288.12,-655.41 284.8,-649.01 291.99,-648.41 295.31,-654.81"/>
<text text-anchor="middle" x="479.3" y="-737" font-family="Helvetica,sans-Serif" font-size="10.00"> #$typeInfo</text>
</g>
<!-- Node8 -->
<g id="node8" class="node">
<title>Node8</title>
<g id="a_node8"><a xlink:href="../../d5/dd2/classpocketmine_1_1world_1_1_position.html" target="_top" xlink:title=" ">
<polygon fill="white" stroke="#bfbfbf" points="131.3,-763.5 131.3,-897.5 277.3,-897.5 277.3,-763.5 131.3,-763.5"/>
<text text-anchor="middle" x="204.3" y="-885.5" font-family="Helvetica,sans-Serif" font-size="10.00">pocketmine\world\Position</text>
<polyline fill="none" stroke="#bfbfbf" points="131.3,-878.5 277.3,-878.5 "/>
<text text-anchor="middle" x="204.3" y="-866.5" font-family="Helvetica,sans-Serif" font-size="10.00"> </text>
<polyline fill="none" stroke="#bfbfbf" points="131.3,-859.5 277.3,-859.5 "/>
<text text-anchor="start" x="139.3" y="-847.5" font-family="Helvetica,sans-Serif" font-size="10.00">+ __construct()</text>
<text text-anchor="start" x="139.3" y="-836.5" font-family="Helvetica,sans-Serif" font-size="10.00">+ __toString()</text>
<text text-anchor="start" x="139.3" y="-825.5" font-family="Helvetica,sans-Serif" font-size="10.00">+ asPosition()</text>
<text text-anchor="start" x="139.3" y="-814.5" font-family="Helvetica,sans-Serif" font-size="10.00">+ equals()</text>
<text text-anchor="start" x="139.3" y="-803.5" font-family="Helvetica,sans-Serif" font-size="10.00">+ getSide()</text>
<text text-anchor="start" x="139.3" y="-792.5" font-family="Helvetica,sans-Serif" font-size="10.00">+ getWorld()</text>
<text text-anchor="start" x="139.3" y="-781.5" font-family="Helvetica,sans-Serif" font-size="10.00">+ isValid()</text>
<text text-anchor="start" x="139.3" y="-770.5" font-family="Helvetica,sans-Serif" font-size="10.00">+ fromObject()</text>
</a>
</g>
</g>
<!-- Node8&#45;&gt;Node4 -->
<g id="edge7" class="edge">
<title>Node8&#45;&gt;Node4</title>
<path fill="none" stroke="#404040" d="M204.3,-763.2C204.3,-751.98 204.3,-740.02 204.3,-727.89"/>
<polygon fill="none" stroke="#404040" points="204.3,-727.73 200.3,-721.73 204.3,-715.73 208.3,-721.73 204.3,-727.73"/>
<text text-anchor="middle" x="232.8" y="-737" font-family="Helvetica,sans-Serif" font-size="10.00"> #$position</text>
</g>
<!-- Node9 -->
<g id="node9" class="node">
<title>Node9</title>
<g id="a_node9"><a xlink:href="../../d2/d90/classpocketmine_1_1math_1_1_vector3.html" target="_top" xlink:title=" ">
<polygon fill="white" stroke="#bfbfbf" points="323.3,-1006 323.3,-1239 465.3,-1239 465.3,-1006 323.3,-1006"/>
<text text-anchor="middle" x="394.3" y="-1227" font-family="Helvetica,sans-Serif" font-size="10.00">pocketmine\math\Vector3</text>
<polyline fill="none" stroke="#bfbfbf" points="323.3,-1220 465.3,-1220 "/>
<text text-anchor="start" x="331.3" y="-1208" font-family="Helvetica,sans-Serif" font-size="10.00">+ $x</text>
<text text-anchor="start" x="331.3" y="-1197" font-family="Helvetica,sans-Serif" font-size="10.00">+ $y</text>
<text text-anchor="start" x="331.3" y="-1186" font-family="Helvetica,sans-Serif" font-size="10.00">+ $z</text>
<polyline fill="none" stroke="#bfbfbf" points="323.3,-1179 465.3,-1179 "/>
<text text-anchor="start" x="331.3" y="-1167" font-family="Helvetica,sans-Serif" font-size="10.00">+ __construct()</text>
<text text-anchor="start" x="331.3" y="-1156" font-family="Helvetica,sans-Serif" font-size="10.00">+ __toString()</text>
<text text-anchor="start" x="331.3" y="-1145" font-family="Helvetica,sans-Serif" font-size="10.00">+ abs()</text>
<text text-anchor="start" x="331.3" y="-1134" font-family="Helvetica,sans-Serif" font-size="10.00">+ add()</text>
<text text-anchor="start" x="331.3" y="-1123" font-family="Helvetica,sans-Serif" font-size="10.00">+ addVector()</text>
<text text-anchor="start" x="331.3" y="-1112" font-family="Helvetica,sans-Serif" font-size="10.00">+ asVector3()</text>
<text text-anchor="start" x="331.3" y="-1101" font-family="Helvetica,sans-Serif" font-size="10.00">+ ceil()</text>
<text text-anchor="start" x="331.3" y="-1090" font-family="Helvetica,sans-Serif" font-size="10.00">+ cross()</text>
<text text-anchor="start" x="331.3" y="-1079" font-family="Helvetica,sans-Serif" font-size="10.00">+ distance()</text>
<text text-anchor="start" x="331.3" y="-1068" font-family="Helvetica,sans-Serif" font-size="10.00">+ distanceSquared()</text>
<text text-anchor="start" x="331.3" y="-1057" font-family="Helvetica,sans-Serif" font-size="10.00">and 32 more...</text>
<text text-anchor="start" x="331.3" y="-1046" font-family="Helvetica,sans-Serif" font-size="10.00">+ maxComponents()</text>
<text text-anchor="start" x="331.3" y="-1035" font-family="Helvetica,sans-Serif" font-size="10.00">+ minComponents()</text>
<text text-anchor="start" x="331.3" y="-1024" font-family="Helvetica,sans-Serif" font-size="10.00">+ sum()</text>
<text text-anchor="start" x="331.3" y="-1013" font-family="Helvetica,sans-Serif" font-size="10.00">+ zero()</text>
</a>
</g>
</g>
<!-- Node9&#45;&gt;Node8 -->
<g id="edge8" class="edge">
<title>Node9&#45;&gt;Node8</title>
<path fill="none" stroke="midnightblue" d="M332.52,-996.69C326.62,-986.5 320.51,-976.48 314.3,-967 298.86,-943.43 280.12,-919.1 262.52,-897.68"/>
<polygon fill="none" stroke="midnightblue" points="329.65,-998.74 337.65,-1005.69 335.74,-995.27 329.65,-998.74"/>
</g>
<!-- Node10&#45;&gt;Node8 -->
<g id="edge9" class="edge">
<title>Node10&#45;&gt;Node8</title>
<path fill="none" stroke="#404040" d="M211.32,-967.16C210.29,-947.27 209.27,-927.61 208.35,-909.69"/>
<polygon fill="none" stroke="#404040" points="208.34,-909.57 204.04,-903.79 207.72,-897.59 212.03,-903.37 208.34,-909.57"/>
<text text-anchor="middle" x="232.8" y="-930" font-family="Helvetica,sans-Serif" font-size="10.00"> +$world</text>
</g>
<!-- Node11 -->
<g id="node11" class="node">
<title>Node11</title>
<g id="a_node11"><a xlink:href="../../d0/d03/interfacepocketmine_1_1world_1_1_chunk_manager.html" target="_top" xlink:title=" ">
<polygon fill="white" stroke="#bfbfbf" points="137.3,-1457.5 137.3,-1580.5 317.3,-1580.5 317.3,-1457.5 137.3,-1457.5"/>
<text text-anchor="middle" x="227.3" y="-1568.5" font-family="Helvetica,sans-Serif" font-size="10.00">pocketmine\world\ChunkManager</text>
<polyline fill="none" stroke="#bfbfbf" points="137.3,-1561.5 317.3,-1561.5 "/>
<text text-anchor="middle" x="227.3" y="-1549.5" font-family="Helvetica,sans-Serif" font-size="10.00"> </text>
<polyline fill="none" stroke="#bfbfbf" points="137.3,-1542.5 317.3,-1542.5 "/>
<text text-anchor="start" x="145.3" y="-1530.5" font-family="Helvetica,sans-Serif" font-size="10.00">+ getBlockAt()</text>
<text text-anchor="start" x="145.3" y="-1519.5" font-family="Helvetica,sans-Serif" font-size="10.00">+ getChunk()</text>
<text text-anchor="start" x="145.3" y="-1508.5" font-family="Helvetica,sans-Serif" font-size="10.00">+ getMaxY()</text>
<text text-anchor="start" x="145.3" y="-1497.5" font-family="Helvetica,sans-Serif" font-size="10.00">+ getMinY()</text>
<text text-anchor="start" x="145.3" y="-1486.5" font-family="Helvetica,sans-Serif" font-size="10.00">+ isInWorld()</text>
<text text-anchor="start" x="145.3" y="-1475.5" font-family="Helvetica,sans-Serif" font-size="10.00">+ setBlockAt()</text>
<text text-anchor="start" x="145.3" y="-1464.5" font-family="Helvetica,sans-Serif" font-size="10.00">+ setChunk()</text>
</a>
</g>
</g>
<!-- Node11&#45;&gt;Node10 -->
<g id="edge10" class="edge">
<title>Node11&#45;&gt;Node10</title>
<path fill="none" stroke="midnightblue" d="M225.87,-1447.12C224.91,-1399.96 223.61,-1336.15 222.43,-1277.65"/>
<polygon fill="none" stroke="midnightblue" points="222.37,-1447.3 226.07,-1457.22 229.37,-1447.15 222.37,-1447.3"/>
</g>
<!-- Node12 -->
<g id="node12" class="node">
<title>Node12</title>
<g id="a_node12"><a xlink:href="../../d7/d08/classpocketmine_1_1world_1_1_world_timings.html" target="_top" xlink:title=" ">
<polygon fill="white" stroke="#bfbfbf" points="335.8,-1446.5 335.8,-1591.5 508.8,-1591.5 508.8,-1446.5 335.8,-1446.5"/>
<text text-anchor="middle" x="422.3" y="-1579.5" font-family="Helvetica,sans-Serif" font-size="10.00">pocketmine\world\WorldTimings</text>
<polyline fill="none" stroke="#bfbfbf" points="335.8,-1572.5 508.8,-1572.5 "/>
<text text-anchor="start" x="343.8" y="-1560.5" font-family="Helvetica,sans-Serif" font-size="10.00">+ $syncChunkLoad</text>
<text text-anchor="start" x="343.8" y="-1549.5" font-family="Helvetica,sans-Serif" font-size="10.00">+ $syncChunkLoadData</text>
<text text-anchor="start" x="343.8" y="-1538.5" font-family="Helvetica,sans-Serif" font-size="10.00">+ $syncChunkLoadEntities</text>
<text text-anchor="start" x="343.8" y="-1527.5" font-family="Helvetica,sans-Serif" font-size="10.00">+ $syncChunkLoadFixInvalid</text>
<text text-anchor="start" x="343.8" y="-1516.5" font-family="Helvetica,sans-Serif" font-size="10.00">Blocks</text>
<text text-anchor="start" x="343.8" y="-1505.5" font-family="Helvetica,sans-Serif" font-size="10.00">+ $syncChunkLoadTileEntities</text>
<text text-anchor="start" x="343.8" y="-1494.5" font-family="Helvetica,sans-Serif" font-size="10.00">+ $syncChunkSave</text>
<text text-anchor="start" x="343.8" y="-1483.5" font-family="Helvetica,sans-Serif" font-size="10.00">+ $syncChunkSend</text>
<text text-anchor="start" x="343.8" y="-1472.5" font-family="Helvetica,sans-Serif" font-size="10.00">+ $syncChunkSendPrepare</text>
<polyline fill="none" stroke="#bfbfbf" points="335.8,-1465.5 508.8,-1465.5 "/>
<text text-anchor="start" x="343.8" y="-1453.5" font-family="Helvetica,sans-Serif" font-size="10.00">+ __construct()</text>
</a>
</g>
</g>
<!-- Node12&#45;&gt;Node10 -->
<g id="edge12" class="edge">
<title>Node12&#45;&gt;Node10</title>
<path fill="none" stroke="#404040" d="M385.31,-1446.1C362.63,-1402.04 332.62,-1343.72 304.36,-1288.79"/>
<polygon fill="none" stroke="#404040" points="304.22,-1288.53 297.92,-1285.03 298.73,-1277.86 305.03,-1281.37 304.22,-1288.53"/>
<text text-anchor="middle" x="399.8" y="-1359.5" font-family="Helvetica,sans-Serif" font-size="10.00"> +$timings</text>
</g>
<!-- Node13 -->
<g id="node13" class="node">
<title>Node13</title>
<g id="a_node13"><a xlink:href="../../d7/d9b/classpocketmine_1_1timings_1_1_timings_handler.html" target="_top" xlink:title=" ">
<polygon fill="white" stroke="#bfbfbf" points="365.8,-1760.5 365.8,-1949.5 478.8,-1949.5 478.8,-1760.5 365.8,-1760.5"/>
<text text-anchor="start" x="373.8" y="-1937.5" font-family="Helvetica,sans-Serif" font-size="10.00">pocketmine\timings</text>
<text text-anchor="middle" x="422.3" y="-1926.5" font-family="Helvetica,sans-Serif" font-size="10.00">\TimingsHandler</text>
<polyline fill="none" stroke="#bfbfbf" points="365.8,-1919.5 478.8,-1919.5 "/>
<text text-anchor="middle" x="422.3" y="-1907.5" font-family="Helvetica,sans-Serif" font-size="10.00"> </text>
<polyline fill="none" stroke="#bfbfbf" points="365.8,-1900.5 478.8,-1900.5 "/>
<text text-anchor="start" x="373.8" y="-1888.5" font-family="Helvetica,sans-Serif" font-size="10.00">+ __construct()</text>
<text text-anchor="start" x="373.8" y="-1877.5" font-family="Helvetica,sans-Serif" font-size="10.00">+ destroyCycles()</text>
<text text-anchor="start" x="373.8" y="-1866.5" font-family="Helvetica,sans-Serif" font-size="10.00">+ getName()</text>
<text text-anchor="start" x="373.8" y="-1855.5" font-family="Helvetica,sans-Serif" font-size="10.00">+ startTiming()</text>
<text text-anchor="start" x="373.8" y="-1844.5" font-family="Helvetica,sans-Serif" font-size="10.00">+ stopTiming()</text>
<text text-anchor="start" x="373.8" y="-1833.5" font-family="Helvetica,sans-Serif" font-size="10.00">+ time()</text>
<text text-anchor="start" x="373.8" y="-1822.5" font-family="Helvetica,sans-Serif" font-size="10.00">+ getStartTime()</text>
<text text-anchor="start" x="373.8" y="-1811.5" font-family="Helvetica,sans-Serif" font-size="10.00">+ isEnabled()</text>
<text text-anchor="start" x="373.8" y="-1800.5" font-family="Helvetica,sans-Serif" font-size="10.00">+ printTimings()</text>
<text text-anchor="start" x="373.8" y="-1789.5" font-family="Helvetica,sans-Serif" font-size="10.00">+ reload()</text>
<text text-anchor="start" x="373.8" y="-1778.5" font-family="Helvetica,sans-Serif" font-size="10.00">+ setEnabled()</text>
<text text-anchor="start" x="373.8" y="-1767.5" font-family="Helvetica,sans-Serif" font-size="10.00">+ tick()</text>
</a>
</g>
</g>
<!-- Node13&#45;&gt;Node12 -->
<g id="edge13" class="edge">
<title>Node13&#45;&gt;Node12</title>
<path fill="none" stroke="#404040" d="M422.3,-1760.07C422.3,-1710.91 422.3,-1651.21 422.3,-1603.65"/>
<polygon fill="none" stroke="#404040" points="422.3,-1603.52 418.3,-1597.52 422.3,-1591.52 426.3,-1597.52 422.3,-1603.52"/>
<text text-anchor="middle" x="499.3" y="-1734" font-family="Helvetica,sans-Serif" font-size="10.00"> +$doBlockLightUpdates</text>
<text text-anchor="middle" x="499.3" y="-1723" font-family="Helvetica,sans-Serif" font-size="10.00">+$doBlockSkyLightUpdates</text>
<text text-anchor="middle" x="499.3" y="-1712" font-family="Helvetica,sans-Serif" font-size="10.00">+$doChunkGC</text>
<text text-anchor="middle" x="499.3" y="-1701" font-family="Helvetica,sans-Serif" font-size="10.00">+$doChunkUnload</text>
<text text-anchor="middle" x="499.3" y="-1690" font-family="Helvetica,sans-Serif" font-size="10.00">+$doTick</text>
<text text-anchor="middle" x="499.3" y="-1679" font-family="Helvetica,sans-Serif" font-size="10.00">+$entityTick</text>
<text text-anchor="middle" x="499.3" y="-1668" font-family="Helvetica,sans-Serif" font-size="10.00">+$randomChunkUpdates</text>
<text text-anchor="start" x="422.3" y="-1657" font-family="Helvetica,sans-Serif" font-size="10.00">+$randomChunkUpdatesChunk</text>
<text text-anchor="middle" x="499.3" y="-1646" font-family="Helvetica,sans-Serif" font-size="10.00">Selection</text>
<text text-anchor="middle" x="499.3" y="-1635" font-family="Helvetica,sans-Serif" font-size="10.00">+$scheduledBlockUpdates</text>
<text text-anchor="middle" x="499.3" y="-1624" font-family="Helvetica,sans-Serif" font-size="10.00">+$setBlock</text>
<text text-anchor="middle" x="499.3" y="-1613" font-family="Helvetica,sans-Serif" font-size="10.00">...</text>
</g>
<!-- Node14 -->
<g id="node14" class="node">
<title>Node14</title>
<g id="a_node14"><a xlink:href="../../d8/dbc/classpocketmine_1_1block_1_1utils_1_1_skull_type.html" target="_top" xlink:title=" ">
<polygon fill="white" stroke="black" points="231.8,-248.5 231.8,-360.5 358.8,-360.5 358.8,-248.5 231.8,-248.5"/>
<text text-anchor="start" x="239.8" y="-348.5" font-family="Helvetica,sans-Serif" font-size="10.00">pocketmine\block\utils</text>
<text text-anchor="middle" x="295.3" y="-337.5" font-family="Helvetica,sans-Serif" font-size="10.00">\SkullType</text>
<polyline fill="none" stroke="black" points="231.8,-330.5 358.8,-330.5 "/>
<text text-anchor="start" x="239.8" y="-318.5" font-family="Helvetica,sans-Serif" font-size="10.00">+ Enum___construct</text>
<polyline fill="none" stroke="black" points="231.8,-311.5 358.8,-311.5 "/>
<text text-anchor="start" x="239.8" y="-299.5" font-family="Helvetica,sans-Serif" font-size="10.00">+ getDisplayName()</text>
<text text-anchor="start" x="239.8" y="-288.5" font-family="Helvetica,sans-Serif" font-size="10.00">+ getMagicNumber()</text>
<text text-anchor="start" x="239.8" y="-277.5" font-family="Helvetica,sans-Serif" font-size="10.00">+ fromMagicNumber()</text>
<text text-anchor="start" x="239.8" y="-266.5" font-family="Helvetica,sans-Serif" font-size="10.00"># register()</text>
<text text-anchor="start" x="239.8" y="-255.5" font-family="Helvetica,sans-Serif" font-size="10.00"># setup()</text>
</a>
</g>
</g>
<!-- Node14&#45;&gt;Node1 -->
<g id="edge15" class="edge">
<title>Node14&#45;&gt;Node1</title>
<path fill="none" stroke="#404040" d="M251.04,-248.3C241.46,-236.36 231.02,-223.34 220.44,-210.15"/>
<polygon fill="none" stroke="#404040" points="220.22,-209.88 213.35,-207.7 212.72,-200.52 219.59,-202.7 220.22,-209.88"/>
<text text-anchor="middle" x="265.8" y="-222" font-family="Helvetica,sans-Serif" font-size="10.00"> #$skullType</text>
</g>
</g>
</svg>
