<?xml version="1.0" encoding="UTF-8" standalone="no"?>
<!DOCTYPE svg PUBLIC "-//W3C//DTD SVG 1.1//EN"
 "http://www.w3.org/Graphics/SVG/1.1/DTD/svg11.dtd">
<!-- Generated by graphviz version 2.43.0 (0)
 -->
<!-- Title: pocketmine\plugin\Plugin Pages: 1 -->
<svg width="166pt" height="457pt"
 viewBox="0.00 0.00 166.00 457.00" xmlns="http://www.w3.org/2000/svg" xmlns:xlink="http://www.w3.org/1999/xlink">
<g id="graph0" class="graph" transform="scale(1 1) rotate(0) translate(4 453)">
<title>pocketmine\plugin\Plugin</title>
<!-- Node1 -->
<g id="Node000001" class="node">
<title>Node1</title>
<g id="a_Node000001"><a xlink:title=" ">
<polygon fill="#999999" stroke="transparent" points="147,-449 11,-449 11,-280 147,-280 147,-449"/>
<text text-anchor="start" x="17" y="-436.5" font-family="Helvetica,sans-Serif" font-size="10.00">pocketmine\plugin\Plugin</text>
<text text-anchor="start" x="77" y="-421.5" font-family="Helvetica,sans-Serif" font-size="10.00"> </text>
<text text-anchor="start" x="15" y="-406.5" font-family="Helvetica,sans-Serif" font-size="10.00">+</text>
<text text-anchor="start" x="28" y="-406.5" font-family="Helvetica,sans-Serif" font-size="10.00">__construct()</text>
<text text-anchor="start" x="15" y="-391.5" font-family="Helvetica,sans-Serif" font-size="10.00">+</text>
<text text-anchor="start" x="28" y="-391.5" font-family="Helvetica,sans-Serif" font-size="10.00">getDataFolder()</text>
<text text-anchor="start" x="15" y="-376.5" font-family="Helvetica,sans-Serif" font-size="10.00">+</text>
<text text-anchor="start" x="28" y="-376.5" font-family="Helvetica,sans-Serif" font-size="10.00">getDescription()</text>
<text text-anchor="start" x="15" y="-361.5" font-family="Helvetica,sans-Serif" font-size="10.00">+</text>
<text text-anchor="start" x="28" y="-361.5" font-family="Helvetica,sans-Serif" font-size="10.00">getFile()</text>
<text text-anchor="start" x="15" y="-346.5" font-family="Helvetica,sans-Serif" font-size="10.00">+</text>
<text text-anchor="start" x="28" y="-346.5" font-family="Helvetica,sans-Serif" font-size="10.00">getLogger()</text>
<text text-anchor="start" x="15" y="-331.5" font-family="Helvetica,sans-Serif" font-size="10.00">+</text>
<text text-anchor="start" x="28" y="-331.5" font-family="Helvetica,sans-Serif" font-size="10.00">getName()</text>
<text text-anchor="start" x="15" y="-316.5" font-family="Helvetica,sans-Serif" font-size="10.00">+</text>
<text text-anchor="start" x="28" y="-316.5" font-family="Helvetica,sans-Serif" font-size="10.00">getScheduler()</text>
<text text-anchor="start" x="15" y="-301.5" font-family="Helvetica,sans-Serif" font-size="10.00">+</text>
<text text-anchor="start" x="28" y="-301.5" font-family="Helvetica,sans-Serif" font-size="10.00">isEnabled()</text>
<text text-anchor="start" x="15" y="-286.5" font-family="Helvetica,sans-Serif" font-size="10.00">+</text>
<text text-anchor="start" x="28" y="-286.5" font-family="Helvetica,sans-Serif" font-size="10.00">onEnableStateChange()</text>
<polygon fill="#666666" stroke="#666666" points="11,-431.5 11,-431.5 147,-431.5 147,-431.5 11,-431.5"/>
<polygon fill="#666666" stroke="#666666" points="11,-416.5 11,-416.5 147,-416.5 147,-416.5 11,-416.5"/>
<polygon fill="none" stroke="#666666" points="11,-280 11,-449 147,-449 147,-280 11,-280"/>
</a>
</g>
</g>
<!-- Node2 -->
<g id="Node000002" class="node">
<title>Node2</title>
<g id="a_Node000002"><a xlink:href="../../d1/d8e/classpocketmine_1_1plugin_1_1_plugin_base.html" target="_top" xlink:title=" ">
<polygon fill="white" stroke="transparent" points="158,-244 0,-244 0,0 158,0 158,-244"/>
<text text-anchor="start" x="5" y="-232" font-family="Helvetica,sans-Serif" font-size="10.00">pocketmine\plugin\PluginBase</text>
<text text-anchor="start" x="77" y="-217" font-family="Helvetica,sans-Serif" font-size="10.00"> </text>
<text text-anchor="start" x="13.5" y="-202" font-family="Helvetica,sans-Serif" font-size="10.00">+</text>
<text text-anchor="start" x="36" y="-202" font-family="Helvetica,sans-Serif" font-size="10.00">__construct()</text>
<text text-anchor="start" x="13.5" y="-187" font-family="Helvetica,sans-Serif" font-size="10.00">+</text>
<text text-anchor="start" x="36" y="-187" font-family="Helvetica,sans-Serif" font-size="10.00">getCommand()</text>
<text text-anchor="start" x="13.5" y="-172" font-family="Helvetica,sans-Serif" font-size="10.00">+</text>
<text text-anchor="start" x="36" y="-172" font-family="Helvetica,sans-Serif" font-size="10.00">getConfig()</text>
<text text-anchor="start" x="13.5" y="-157" font-family="Helvetica,sans-Serif" font-size="10.00">+</text>
<text text-anchor="start" x="36" y="-157" font-family="Helvetica,sans-Serif" font-size="10.00">getDataFolder()</text>
<text text-anchor="start" x="13.5" y="-142" font-family="Helvetica,sans-Serif" font-size="10.00">+</text>
<text text-anchor="start" x="36" y="-142" font-family="Helvetica,sans-Serif" font-size="10.00">getDescription()</text>
<text text-anchor="start" x="13.5" y="-127" font-family="Helvetica,sans-Serif" font-size="10.00">+</text>
<text text-anchor="start" x="36" y="-127" font-family="Helvetica,sans-Serif" font-size="10.00">getFile()</text>
<text text-anchor="start" x="13.5" y="-112" font-family="Helvetica,sans-Serif" font-size="10.00">+</text>
<text text-anchor="start" x="36" y="-112" font-family="Helvetica,sans-Serif" font-size="10.00">getFullName()</text>
<text text-anchor="start" x="13.5" y="-97" font-family="Helvetica,sans-Serif" font-size="10.00">+</text>
<text text-anchor="start" x="36" y="-97" font-family="Helvetica,sans-Serif" font-size="10.00">getLogger()</text>
<text text-anchor="start" x="13.5" y="-82" font-family="Helvetica,sans-Serif" font-size="10.00">+</text>
<text text-anchor="start" x="36" y="-82" font-family="Helvetica,sans-Serif" font-size="10.00">getName()</text>
<text text-anchor="start" x="13.5" y="-67" font-family="Helvetica,sans-Serif" font-size="10.00">+</text>
<text text-anchor="start" x="36" y="-67" font-family="Helvetica,sans-Serif" font-size="10.00">getResourceFolder()</text>
<text text-anchor="start" x="36" y="-52" font-family="Helvetica,sans-Serif" font-size="10.00">and 12 more...</text>
<text text-anchor="start" x="13.5" y="-37" font-family="Helvetica,sans-Serif" font-size="10.00">#</text>
<text text-anchor="start" x="36" y="-37" font-family="Helvetica,sans-Serif" font-size="10.00">onDisable()</text>
<text text-anchor="start" x="13.5" y="-22" font-family="Helvetica,sans-Serif" font-size="10.00">#</text>
<text text-anchor="start" x="36" y="-22" font-family="Helvetica,sans-Serif" font-size="10.00">onEnable()</text>
<text text-anchor="start" x="13.5" y="-7" font-family="Helvetica,sans-Serif" font-size="10.00">#</text>
<text text-anchor="start" x="36" y="-7" font-family="Helvetica,sans-Serif" font-size="10.00">onLoad()</text>
<polygon fill="#bfbfbf" stroke="#bfbfbf" points="0,-227 0,-227 158,-227 158,-227 0,-227"/>
<polygon fill="#bfbfbf" stroke="#bfbfbf" points="0,-212 0,-212 158,-212 158,-212 0,-212"/>
<polygon fill="none" stroke="#bfbfbf" points="0,0 0,-244 158,-244 158,0 0,0"/>
</a>
</g>
</g>
<!-- Node1&#45;&gt;Node2 -->
<g id="edge1_Node000001_Node000002" class="edge">
<title>Node1&#45;&gt;Node2</title>
<g id="a_edge1_Node000001_Node000002"><a xlink:title=" ">
<path fill="none" stroke="#63b8ff" d="M79,-269.62C79,-261.25 79,-252.71 79,-244.15"/>
<polygon fill="none" stroke="#63b8ff" points="75.5,-269.72 79,-279.72 82.5,-269.72 75.5,-269.72"/>
</a>
</g>
</g>
</g>
</svg>
