<?xml version="1.0" encoding="UTF-8" standalone="no"?>
<!DOCTYPE svg PUBLIC "-//W3C//DTD SVG 1.1//EN"
 "http://www.w3.org/Graphics/SVG/1.1/DTD/svg11.dtd">
<!-- Generated by graphviz version 2.43.0 (0)
 -->
<!-- Title: pocketmine\nbt\tag\CompoundTag\setTag Pages: 1 -->
<svg width="361pt" height="386pt"
 viewBox="0.00 0.00 361.00 386.00" xmlns="http://www.w3.org/2000/svg" xmlns:xlink="http://www.w3.org/1999/xlink">
<g id="graph0" class="graph" transform="scale(1 1) rotate(0) translate(4 382)">
<title>pocketmine\nbt\tag\CompoundTag\setTag</title>
<!-- Node1 -->
<g id="Node000001" class="node">
<title>Node1</title>
<g id="a_Node000001"><a xlink:title=" ">
<polygon fill="#999999" stroke="#666666" points="353,-201 230,-201 230,-171 353,-171 353,-201"/>
<text text-anchor="start" x="238" y="-189" font-family="Helvetica,sans-Serif" font-size="10.00">pocketmine\nbt\tag</text>
<text text-anchor="middle" x="291.5" y="-178" font-family="Helvetica,sans-Serif" font-size="10.00">\CompoundTag\setTag</text>
</a>
</g>
</g>
<!-- Node2 -->
<g id="Node000002" class="node">
<title>Node2</title>
<g id="a_Node000002"><a xlink:href="../../d5/d8b/classpocketmine_1_1block_1_1tile_1_1_flower_pot.html#a8b4eac803a6bf3d6b4953615d8e5ab46" target="_top" xlink:title=" ">
<polygon fill="white" stroke="#666666" points="194,-378 0,-378 0,-348 194,-348 194,-378"/>
<text text-anchor="start" x="8" y="-366" font-family="Helvetica,sans-Serif" font-size="10.00">pocketmine\block\tile</text>
<text text-anchor="middle" x="97" y="-355" font-family="Helvetica,sans-Serif" font-size="10.00">\FlowerPot\addAdditionalSpawnData</text>
</a>
</g>
</g>
<!-- Node1&#45;&gt;Node2 -->
<g id="edge1_Node000001_Node000002" class="edge">
<title>Node1&#45;&gt;Node2</title>
<g id="a_edge1_Node000001_Node000002"><a xlink:title=" ">
<path fill="none" stroke="#63b8ff" d="M281.61,-211.04C268.13,-245.32 239.19,-306.29 194,-339 189.27,-342.42 184.1,-345.36 178.69,-347.88"/>
<polygon fill="#63b8ff" stroke="#63b8ff" points="285.02,-211.92 285.3,-201.33 278.48,-209.43 285.02,-211.92"/>
</a>
</g>
</g>
<!-- Node3 -->
<g id="Node000003" class="node">
<title>Node3</title>
<g id="a_Node000003"><a xlink:href="../../d4/d77/classpocketmine_1_1block_1_1tile_1_1_jukebox.html#a5e2e9f5d8228016ce9f04fd3ff2c62e6" target="_top" xlink:title=" ">
<polygon fill="white" stroke="#666666" points="189,-330 5,-330 5,-300 189,-300 189,-330"/>
<text text-anchor="start" x="13" y="-318" font-family="Helvetica,sans-Serif" font-size="10.00">pocketmine\block\tile</text>
<text text-anchor="middle" x="97" y="-307" font-family="Helvetica,sans-Serif" font-size="10.00">\Jukebox\addAdditionalSpawnData</text>
</a>
</g>
</g>
<!-- Node1&#45;&gt;Node3 -->
<g id="edge2_Node000001_Node000003" class="edge">
<title>Node1&#45;&gt;Node3</title>
<g id="a_edge2_Node000001_Node000003"><a xlink:title=" ">
<path fill="none" stroke="#63b8ff" d="M275.28,-209.35C258.32,-233.46 228.69,-270.38 194,-291 188.24,-294.42 182.01,-297.36 175.58,-299.88"/>
<polygon fill="#63b8ff" stroke="#63b8ff" points="278.17,-211.32 280.94,-201.1 272.39,-207.36 278.17,-211.32"/>
</a>
</g>
</g>
<!-- Node4 -->
<g id="Node000004" class="node">
<title>Node4</title>
<g id="a_Node000004"><a xlink:href="../../d0/dc1/classpocketmine_1_1block_1_1tile_1_1_lectern.html#ac00f467ced69b610bd246a9262eac24b" target="_top" xlink:title=" ">
<polygon fill="white" stroke="#666666" points="188,-282 6,-282 6,-252 188,-252 188,-282"/>
<text text-anchor="start" x="14" y="-270" font-family="Helvetica,sans-Serif" font-size="10.00">pocketmine\block\tile</text>
<text text-anchor="middle" x="97" y="-259" font-family="Helvetica,sans-Serif" font-size="10.00">\Lectern\addAdditionalSpawnData</text>
</a>
</g>
</g>
<!-- Node1&#45;&gt;Node4 -->
<g id="edge3_Node000001_Node000004" class="edge">
<title>Node1&#45;&gt;Node4</title>
<g id="a_edge3_Node000001_Node000004"><a xlink:title=" ">
<path fill="none" stroke="#63b8ff" d="M260.65,-206.68C242.16,-218.71 217.52,-233.35 194,-243 185.81,-246.36 177.04,-249.34 168.24,-251.95"/>
<polygon fill="#63b8ff" stroke="#63b8ff" points="262.8,-209.46 269.21,-201.02 258.94,-203.62 262.8,-209.46"/>
</a>
</g>
</g>
<!-- Node5 -->
<g id="Node000005" class="node">
<title>Node5</title>
<g id="a_Node000005"><a xlink:href="../../d8/d07/classpocketmine_1_1network_1_1mcpe_1_1convert_1_1_type_converter.html#a00af4c1a452cd9453c8d30b440bd9da9" target="_top" xlink:title=" ">
<polygon fill="white" stroke="#666666" points="188.5,-233.5 5.5,-233.5 5.5,-192.5 188.5,-192.5 188.5,-233.5"/>
<text text-anchor="start" x="13.5" y="-221.5" font-family="Helvetica,sans-Serif" font-size="10.00">pocketmine\network</text>
<text text-anchor="start" x="13.5" y="-210.5" font-family="Helvetica,sans-Serif" font-size="10.00">\mcpe\convert\TypeConverter</text>
<text text-anchor="middle" x="97" y="-199.5" font-family="Helvetica,sans-Serif" font-size="10.00">\stripContainedItemNonVisualNBT</text>
</a>
</g>
</g>
<!-- Node1&#45;&gt;Node5 -->
<g id="edge4_Node000001_Node000005" class="edge">
<title>Node1&#45;&gt;Node5</title>
<g id="a_edge4_Node000001_Node000005"><a xlink:title=" ">
<path fill="none" stroke="#63b8ff" d="M219.85,-195.91C209.68,-197.34 199.1,-198.82 188.62,-200.29"/>
<polygon fill="#63b8ff" stroke="#63b8ff" points="220.44,-199.36 229.86,-194.51 219.47,-192.43 220.44,-199.36"/>
</a>
</g>
</g>
<!-- Node6 -->
<g id="Node000006" class="node">
<title>Node6</title>
<g id="a_Node000006"><a xlink:href="../../d5/d8b/classpocketmine_1_1block_1_1tile_1_1_flower_pot.html#abca554fae3d02455a9f630b96102faa0" target="_top" xlink:title=" ">
<polygon fill="white" stroke="#666666" points="168.5,-174 25.5,-174 25.5,-144 168.5,-144 168.5,-174"/>
<text text-anchor="start" x="33.5" y="-162" font-family="Helvetica,sans-Serif" font-size="10.00">pocketmine\block\tile</text>
<text text-anchor="middle" x="97" y="-151" font-family="Helvetica,sans-Serif" font-size="10.00">\FlowerPot\writeSaveData</text>
</a>
</g>
</g>
<!-- Node1&#45;&gt;Node6 -->
<g id="edge5_Node000001_Node000006" class="edge">
<title>Node1&#45;&gt;Node6</title>
<g id="a_edge5_Node000001_Node000006"><a xlink:title=" ">
<path fill="none" stroke="#63b8ff" d="M219.68,-176.07C203.07,-173.74 185.37,-171.25 168.77,-168.93"/>
<polygon fill="#63b8ff" stroke="#63b8ff" points="219.47,-179.57 229.86,-177.49 220.44,-172.64 219.47,-179.57"/>
</a>
</g>
</g>
<!-- Node7 -->
<g id="Node000007" class="node">
<title>Node7</title>
<g id="a_Node000007"><a xlink:href="../../d4/d77/classpocketmine_1_1block_1_1tile_1_1_jukebox.html#a5cdf6d4674d9a7d3bc038c0ff9b60374" target="_top" xlink:title=" ">
<polygon fill="white" stroke="#666666" points="163.5,-126 30.5,-126 30.5,-96 163.5,-96 163.5,-126"/>
<text text-anchor="start" x="38.5" y="-114" font-family="Helvetica,sans-Serif" font-size="10.00">pocketmine\block\tile</text>
<text text-anchor="middle" x="97" y="-103" font-family="Helvetica,sans-Serif" font-size="10.00">\Jukebox\writeSaveData</text>
</a>
</g>
</g>
<!-- Node1&#45;&gt;Node7 -->
<g id="edge6_Node000001_Node000007" class="edge">
<title>Node1&#45;&gt;Node7</title>
<g id="a_edge6_Node000001_Node000007"><a xlink:title=" ">
<path fill="none" stroke="#63b8ff" d="M256.88,-165.66C238.75,-155.36 215.7,-143.31 194,-135 184.37,-131.32 173.99,-128.04 163.72,-125.18"/>
<polygon fill="#63b8ff" stroke="#63b8ff" points="255.47,-168.89 265.88,-170.86 258.97,-162.82 255.47,-168.89"/>
</a>
</g>
</g>
<!-- Node8 -->
<g id="Node000008" class="node">
<title>Node8</title>
<g id="a_Node000008"><a xlink:href="../../d0/dc1/classpocketmine_1_1block_1_1tile_1_1_lectern.html#a02d88d6cb332835e5a3049fe52f7f224" target="_top" xlink:title=" ">
<polygon fill="white" stroke="#666666" points="162.5,-78 31.5,-78 31.5,-48 162.5,-48 162.5,-78"/>
<text text-anchor="start" x="39.5" y="-66" font-family="Helvetica,sans-Serif" font-size="10.00">pocketmine\block\tile</text>
<text text-anchor="middle" x="97" y="-55" font-family="Helvetica,sans-Serif" font-size="10.00">\Lectern\writeSaveData</text>
</a>
</g>
</g>
<!-- Node1&#45;&gt;Node8 -->
<g id="edge7_Node000001_Node000008" class="edge">
<title>Node1&#45;&gt;Node8</title>
<g id="a_edge7_Node000001_Node000008"><a xlink:title=" ">
<path fill="none" stroke="#63b8ff" d="M273.89,-162.58C256.52,-139.86 227.22,-106.09 194,-87 184.39,-81.48 173.53,-77.22 162.66,-73.93"/>
<polygon fill="#63b8ff" stroke="#63b8ff" points="271.15,-164.77 279.94,-170.7 276.77,-160.59 271.15,-164.77"/>
</a>
</g>
</g>
<!-- Node9 -->
<g id="Node000009" class="node">
<title>Node9</title>
<g id="a_Node000009"><a xlink:href="../../d6/d8f/classpocketmine_1_1block_1_1tile_1_1_monster_spawner.html#afc393709a4fbdaa6381dd6606ef43fb0" target="_top" xlink:title=" ">
<polygon fill="white" stroke="#666666" points="185,-30 9,-30 9,0 185,0 185,-30"/>
<text text-anchor="start" x="17" y="-18" font-family="Helvetica,sans-Serif" font-size="10.00">pocketmine\block\tile</text>
<text text-anchor="middle" x="97" y="-7" font-family="Helvetica,sans-Serif" font-size="10.00">\MonsterSpawner\writeSaveData</text>
</a>
</g>
</g>
<!-- Node1&#45;&gt;Node9 -->
<g id="edge8_Node000001_Node000009" class="edge">
<title>Node1&#45;&gt;Node9</title>
<g id="a_edge8_Node000001_Node000009"><a xlink:title=" ">
<path fill="none" stroke="#63b8ff" d="M281.12,-161.42C267.23,-128.39 237.99,-70.23 194,-39 189.24,-35.62 184.05,-32.71 178.63,-30.21"/>
<polygon fill="#63b8ff" stroke="#63b8ff" points="277.93,-162.87 284.94,-170.81 284.42,-160.23 277.93,-162.87"/>
</a>
</g>
</g>
</g>
</svg>
