<?xml version="1.0" encoding="UTF-8" standalone="no"?>
<!DOCTYPE svg PUBLIC "-//W3C//DTD SVG 1.1//EN"
 "http://www.w3.org/Graphics/SVG/1.1/DTD/svg11.dtd">
<!-- Generated by graphviz version 2.43.0 (0)
 -->
<!-- Title: pocketmine\block\BaseRail Pages: 1 -->
<svg width="572pt" height="976pt"
 viewBox="0.00 0.00 571.50 976.00" xmlns="http://www.w3.org/2000/svg" xmlns:xlink="http://www.w3.org/1999/xlink">
<g id="graph0" class="graph" transform="scale(1 1) rotate(0) translate(4 972)">
<title>pocketmine\block\BaseRail</title>
<polygon fill="white" stroke="transparent" points="-4,4 -4,-972 567.5,-972 567.5,4 -4,4"/>
<!-- Node1 -->
<g id="node1" class="node">
<title>Node1</title>
<g id="a_node1"><a xlink:title=" ">
<polygon fill="#bfbfbf" stroke="black" points="100,-298.5 100,-432.5 288,-432.5 288,-298.5 100,-298.5"/>
<text text-anchor="middle" x="194" y="-420.5" font-family="Helvetica,sans-Serif" font-size="10.00">pocketmine\block\BaseRail</text>
<polyline fill="none" stroke="black" points="100,-413.5 288,-413.5 "/>
<text text-anchor="middle" x="194" y="-401.5" font-family="Helvetica,sans-Serif" font-size="10.00"> </text>
<polyline fill="none" stroke="black" points="100,-394.5 288,-394.5 "/>
<text text-anchor="start" x="108" y="-382.5" font-family="Helvetica,sans-Serif" font-size="10.00">+ onNearbyBlockChange()</text>
<text text-anchor="start" x="108" y="-371.5" font-family="Helvetica,sans-Serif" font-size="10.00">+ onPostPlace()</text>
<text text-anchor="start" x="108" y="-360.5" font-family="Helvetica,sans-Serif" font-size="10.00">+ place()</text>
<text text-anchor="start" x="108" y="-349.5" font-family="Helvetica,sans-Serif" font-size="10.00"># getCurrentShapeConnections()</text>
<text text-anchor="start" x="108" y="-338.5" font-family="Helvetica,sans-Serif" font-size="10.00"># getPossibleConnectionDirections</text>
<text text-anchor="start" x="108" y="-327.5" font-family="Helvetica,sans-Serif" font-size="10.00">OneConstraint()</text>
<text text-anchor="start" x="108" y="-316.5" font-family="Helvetica,sans-Serif" font-size="10.00"># setShapeFromConnections()</text>
<text text-anchor="start" x="108" y="-305.5" font-family="Helvetica,sans-Serif" font-size="10.00"># searchState()</text>
</a>
</g>
</g>
<!-- Node5 -->
<g id="node5" class="node">
<title>Node5</title>
<g id="a_node5"><a xlink:href="../../d7/d21/classpocketmine_1_1block_1_1_rail.html" target="_top" xlink:title=" ">
<polygon fill="white" stroke="#bfbfbf" points="0,-127.5 0,-261.5 188,-261.5 188,-127.5 0,-127.5"/>
<text text-anchor="middle" x="94" y="-249.5" font-family="Helvetica,sans-Serif" font-size="10.00">pocketmine\block\Rail</text>
<polyline fill="none" stroke="#bfbfbf" points="0,-242.5 188,-242.5 "/>
<text text-anchor="middle" x="94" y="-230.5" font-family="Helvetica,sans-Serif" font-size="10.00"> </text>
<polyline fill="none" stroke="#bfbfbf" points="0,-223.5 188,-223.5 "/>
<text text-anchor="start" x="8" y="-211.5" font-family="Helvetica,sans-Serif" font-size="10.00">+ getRequiredStateDataBits()</text>
<text text-anchor="start" x="8" y="-200.5" font-family="Helvetica,sans-Serif" font-size="10.00">+ getShape()</text>
<text text-anchor="start" x="8" y="-189.5" font-family="Helvetica,sans-Serif" font-size="10.00">+ setShape()</text>
<text text-anchor="start" x="8" y="-178.5" font-family="Helvetica,sans-Serif" font-size="10.00"># describeState()</text>
<text text-anchor="start" x="8" y="-167.5" font-family="Helvetica,sans-Serif" font-size="10.00"># getCurrentShapeConnections()</text>
<text text-anchor="start" x="8" y="-156.5" font-family="Helvetica,sans-Serif" font-size="10.00"># getPossibleConnectionDirections</text>
<text text-anchor="start" x="8" y="-145.5" font-family="Helvetica,sans-Serif" font-size="10.00">OneConstraint()</text>
<text text-anchor="start" x="8" y="-134.5" font-family="Helvetica,sans-Serif" font-size="10.00"># setShapeFromConnections()</text>
</a>
</g>
</g>
<!-- Node1&#45;&gt;Node5 -->
<g id="edge4" class="edge">
<title>Node1&#45;&gt;Node5</title>
<path fill="none" stroke="midnightblue" d="M149.55,-289.38C144.08,-280.13 138.51,-270.72 133.12,-261.62"/>
<polygon fill="none" stroke="midnightblue" points="146.66,-291.37 154.76,-298.19 152.68,-287.8 146.66,-291.37"/>
</g>
<!-- Node6 -->
<g id="node6" class="node">
<title>Node6</title>
<g id="a_node6"><a xlink:href="../../d7/d52/classpocketmine_1_1block_1_1_straight_only_rail.html" target="_top" xlink:title=" ">
<polygon fill="white" stroke="black" points="206.5,-133 206.5,-256 383.5,-256 383.5,-133 206.5,-133"/>
<text text-anchor="start" x="214.5" y="-244" font-family="Helvetica,sans-Serif" font-size="10.00">pocketmine\block\Straight</text>
<text text-anchor="middle" x="295" y="-233" font-family="Helvetica,sans-Serif" font-size="10.00">OnlyRail</text>
<polyline fill="none" stroke="black" points="206.5,-226 383.5,-226 "/>
<text text-anchor="middle" x="295" y="-214" font-family="Helvetica,sans-Serif" font-size="10.00"> </text>
<polyline fill="none" stroke="black" points="206.5,-207 383.5,-207 "/>
<text text-anchor="start" x="214.5" y="-195" font-family="Helvetica,sans-Serif" font-size="10.00">+ getRequiredStateDataBits()</text>
<text text-anchor="start" x="214.5" y="-184" font-family="Helvetica,sans-Serif" font-size="10.00">+ getShape()</text>
<text text-anchor="start" x="214.5" y="-173" font-family="Helvetica,sans-Serif" font-size="10.00">+ setShape()</text>
<text text-anchor="start" x="214.5" y="-162" font-family="Helvetica,sans-Serif" font-size="10.00"># describeState()</text>
<text text-anchor="start" x="214.5" y="-151" font-family="Helvetica,sans-Serif" font-size="10.00"># getCurrentShapeConnections()</text>
<text text-anchor="start" x="214.5" y="-140" font-family="Helvetica,sans-Serif" font-size="10.00"># setShapeFromConnections()</text>
</a>
</g>
</g>
<!-- Node1&#45;&gt;Node6 -->
<g id="edge5" class="edge">
<title>Node1&#45;&gt;Node6</title>
<path fill="none" stroke="midnightblue" d="M238.92,-289.34C245.56,-278.22 252.34,-266.88 258.78,-256.11"/>
<polygon fill="none" stroke="midnightblue" points="235.75,-287.81 233.63,-298.19 241.76,-291.4 235.75,-287.81"/>
</g>
<!-- Node2 -->
<g id="node2" class="node">
<title>Node2</title>
<g id="a_node2"><a xlink:href="../../d3/d1e/classpocketmine_1_1block_1_1_flowable.html" target="_top" xlink:title=" ">
<polygon fill="white" stroke="black" points="113.5,-469.5 113.5,-559.5 274.5,-559.5 274.5,-469.5 113.5,-469.5"/>
<text text-anchor="middle" x="194" y="-547.5" font-family="Helvetica,sans-Serif" font-size="10.00">pocketmine\block\Flowable</text>
<polyline fill="none" stroke="black" points="113.5,-540.5 274.5,-540.5 "/>
<text text-anchor="middle" x="194" y="-528.5" font-family="Helvetica,sans-Serif" font-size="10.00"> </text>
<polyline fill="none" stroke="black" points="113.5,-521.5 274.5,-521.5 "/>
<text text-anchor="start" x="121.5" y="-509.5" font-family="Helvetica,sans-Serif" font-size="10.00">+ canBeFlowedInto()</text>
<text text-anchor="start" x="121.5" y="-498.5" font-family="Helvetica,sans-Serif" font-size="10.00">+ getSupportType()</text>
<text text-anchor="start" x="121.5" y="-487.5" font-family="Helvetica,sans-Serif" font-size="10.00">+ isSolid()</text>
<text text-anchor="start" x="121.5" y="-476.5" font-family="Helvetica,sans-Serif" font-size="10.00"># recalculateCollisionBoxes()</text>
</a>
</g>
</g>
<!-- Node2&#45;&gt;Node1 -->
<g id="edge1" class="edge">
<title>Node2&#45;&gt;Node1</title>
<path fill="none" stroke="midnightblue" d="M194,-459.37C194,-450.66 194,-441.55 194,-432.59"/>
<polygon fill="none" stroke="midnightblue" points="190.5,-459.4 194,-469.4 197.5,-459.4 190.5,-459.4"/>
</g>
<!-- Node3 -->
<g id="node3" class="node">
<title>Node3</title>
<g id="a_node3"><a xlink:href="../../d5/d1b/classpocketmine_1_1block_1_1_transparent.html" target="_top" xlink:title=" ">
<polygon fill="white" stroke="black" points="112.5,-596.5 112.5,-653.5 275.5,-653.5 275.5,-596.5 112.5,-596.5"/>
<text text-anchor="middle" x="194" y="-641.5" font-family="Helvetica,sans-Serif" font-size="10.00">pocketmine\block\Transparent</text>
<polyline fill="none" stroke="black" points="112.5,-634.5 275.5,-634.5 "/>
<text text-anchor="middle" x="194" y="-622.5" font-family="Helvetica,sans-Serif" font-size="10.00"> </text>
<polyline fill="none" stroke="black" points="112.5,-615.5 275.5,-615.5 "/>
<text text-anchor="start" x="120.5" y="-603.5" font-family="Helvetica,sans-Serif" font-size="10.00">+ isTransparent()</text>
</a>
</g>
</g>
<!-- Node3&#45;&gt;Node2 -->
<g id="edge2" class="edge">
<title>Node3&#45;&gt;Node2</title>
<path fill="none" stroke="midnightblue" d="M194,-586.21C194,-577.61 194,-568.39 194,-559.55"/>
<polygon fill="none" stroke="midnightblue" points="190.5,-586.34 194,-596.34 197.5,-586.34 190.5,-586.34"/>
</g>
<!-- Node4 -->
<g id="node4" class="node">
<title>Node4</title>
<g id="a_node4"><a xlink:href="../../d7/d27/classpocketmine_1_1block_1_1_block.html" target="_top" xlink:title=" ">
<polygon fill="white" stroke="#bfbfbf" points="106,-690.5 106,-967.5 282,-967.5 282,-690.5 106,-690.5"/>
<text text-anchor="middle" x="194" y="-955.5" font-family="Helvetica,sans-Serif" font-size="10.00">pocketmine\block\Block</text>
<polyline fill="none" stroke="#bfbfbf" points="106,-948.5 282,-948.5 "/>
<text text-anchor="start" x="114" y="-936.5" font-family="Helvetica,sans-Serif" font-size="10.00">+ INTERNAL_STATE_DATA_BITS</text>
<text text-anchor="start" x="114" y="-925.5" font-family="Helvetica,sans-Serif" font-size="10.00">+ INTERNAL_STATE_DATA_MASK</text>
<text text-anchor="start" x="114" y="-914.5" font-family="Helvetica,sans-Serif" font-size="10.00"># $collisionBoxes</text>
<text text-anchor="start" x="114" y="-903.5" font-family="Helvetica,sans-Serif" font-size="10.00"># $fallbackName</text>
<text text-anchor="start" x="114" y="-892.5" font-family="Helvetica,sans-Serif" font-size="10.00"># $idInfo</text>
<text text-anchor="start" x="114" y="-881.5" font-family="Helvetica,sans-Serif" font-size="10.00"># $position</text>
<text text-anchor="start" x="114" y="-870.5" font-family="Helvetica,sans-Serif" font-size="10.00"># $typeInfo</text>
<polyline fill="none" stroke="#bfbfbf" points="106,-863.5 282,-863.5 "/>
<text text-anchor="start" x="114" y="-851.5" font-family="Helvetica,sans-Serif" font-size="10.00">+ __construct()</text>
<text text-anchor="start" x="114" y="-840.5" font-family="Helvetica,sans-Serif" font-size="10.00">+ __clone()</text>
<text text-anchor="start" x="114" y="-829.5" font-family="Helvetica,sans-Serif" font-size="10.00">+ __toString()</text>
<text text-anchor="start" x="114" y="-818.5" font-family="Helvetica,sans-Serif" font-size="10.00">+ addVelocityToEntity()</text>
<text text-anchor="start" x="114" y="-807.5" font-family="Helvetica,sans-Serif" font-size="10.00">+ asItem()</text>
<text text-anchor="start" x="114" y="-796.5" font-family="Helvetica,sans-Serif" font-size="10.00">+ blocksDirectSkyLight()</text>
<text text-anchor="start" x="114" y="-785.5" font-family="Helvetica,sans-Serif" font-size="10.00">+ burnsForever()</text>
<text text-anchor="start" x="114" y="-774.5" font-family="Helvetica,sans-Serif" font-size="10.00">+ calculateIntercept()</text>
<text text-anchor="start" x="114" y="-763.5" font-family="Helvetica,sans-Serif" font-size="10.00">+ canBeFlowedInto()</text>
<text text-anchor="start" x="114" y="-752.5" font-family="Helvetica,sans-Serif" font-size="10.00">+ canBePlaced()</text>
<text text-anchor="start" x="114" y="-741.5" font-family="Helvetica,sans-Serif" font-size="10.00">and 63 more...</text>
<text text-anchor="start" x="114" y="-730.5" font-family="Helvetica,sans-Serif" font-size="10.00"># describeState()</text>
<text text-anchor="start" x="114" y="-719.5" font-family="Helvetica,sans-Serif" font-size="10.00"># describeType()</text>
<text text-anchor="start" x="114" y="-708.5" font-family="Helvetica,sans-Serif" font-size="10.00"># getXpDropAmount()</text>
<text text-anchor="start" x="114" y="-697.5" font-family="Helvetica,sans-Serif" font-size="10.00"># recalculateCollisionBoxes()</text>
</a>
</g>
</g>
<!-- Node4&#45;&gt;Node3 -->
<g id="edge3" class="edge">
<title>Node4&#45;&gt;Node3</title>
<path fill="none" stroke="midnightblue" d="M194,-680.41C194,-670.59 194,-661.52 194,-653.71"/>
<polygon fill="none" stroke="midnightblue" points="190.5,-680.47 194,-690.47 197.5,-680.47 190.5,-680.47"/>
</g>
<!-- Node7 -->
<g id="node7" class="node">
<title>Node7</title>
<g id="a_node7"><a xlink:href="../../d6/d7d/classpocketmine_1_1block_1_1_activator_rail.html" target="_top" xlink:title=" ">
<polygon fill="white" stroke="#bfbfbf" points="24.5,-17 24.5,-74 193.5,-74 193.5,-17 24.5,-17"/>
<text text-anchor="middle" x="109" y="-62" font-family="Helvetica,sans-Serif" font-size="10.00">pocketmine\block\ActivatorRail</text>
<polyline fill="none" stroke="#bfbfbf" points="24.5,-55 193.5,-55 "/>
<text text-anchor="middle" x="109" y="-43" font-family="Helvetica,sans-Serif" font-size="10.00"> </text>
<polyline fill="none" stroke="#bfbfbf" points="24.5,-36 193.5,-36 "/>
<text text-anchor="middle" x="109" y="-24" font-family="Helvetica,sans-Serif" font-size="10.00"> </text>
</a>
</g>
</g>
<!-- Node6&#45;&gt;Node7 -->
<g id="edge6" class="edge">
<title>Node6&#45;&gt;Node7</title>
<path fill="none" stroke="midnightblue" d="M210.36,-126.61C186.93,-108.09 162.78,-89 143.93,-74.11"/>
<polygon fill="none" stroke="midnightblue" points="208.26,-129.41 218.27,-132.86 212.6,-123.91 208.26,-129.41"/>
</g>
<!-- Node8 -->
<g id="node8" class="node">
<title>Node8</title>
<g id="a_node8"><a xlink:href="../../d4/dba/classpocketmine_1_1block_1_1_detector_rail.html" target="_top" xlink:title=" ">
<polygon fill="white" stroke="#bfbfbf" points="211.5,-0.5 211.5,-90.5 378.5,-90.5 378.5,-0.5 211.5,-0.5"/>
<text text-anchor="middle" x="295" y="-78.5" font-family="Helvetica,sans-Serif" font-size="10.00">pocketmine\block\DetectorRail</text>
<polyline fill="none" stroke="#bfbfbf" points="211.5,-71.5 378.5,-71.5 "/>
<text text-anchor="start" x="219.5" y="-59.5" font-family="Helvetica,sans-Serif" font-size="10.00"># $activated</text>
<polyline fill="none" stroke="#bfbfbf" points="211.5,-52.5 378.5,-52.5 "/>
<text text-anchor="start" x="219.5" y="-40.5" font-family="Helvetica,sans-Serif" font-size="10.00">+ getRequiredStateDataBits()</text>
<text text-anchor="start" x="219.5" y="-29.5" font-family="Helvetica,sans-Serif" font-size="10.00">+ isActivated()</text>
<text text-anchor="start" x="219.5" y="-18.5" font-family="Helvetica,sans-Serif" font-size="10.00">+ setActivated()</text>
<text text-anchor="start" x="219.5" y="-7.5" font-family="Helvetica,sans-Serif" font-size="10.00"># describeState()</text>
</a>
</g>
</g>
<!-- Node6&#45;&gt;Node8 -->
<g id="edge7" class="edge">
<title>Node6&#45;&gt;Node8</title>
<path fill="none" stroke="midnightblue" d="M295,-122.55C295,-111.74 295,-100.85 295,-90.83"/>
<polygon fill="none" stroke="midnightblue" points="291.5,-122.86 295,-132.86 298.5,-122.86 291.5,-122.86"/>
</g>
<!-- Node9 -->
<g id="node9" class="node">
<title>Node9</title>
<g id="a_node9"><a xlink:href="../../d8/dee/classpocketmine_1_1block_1_1_powered_rail.html" target="_top" xlink:title=" ">
<polygon fill="white" stroke="#bfbfbf" points="396.5,-17 396.5,-74 563.5,-74 563.5,-17 396.5,-17"/>
<text text-anchor="middle" x="480" y="-62" font-family="Helvetica,sans-Serif" font-size="10.00">pocketmine\block\PoweredRail</text>
<polyline fill="none" stroke="#bfbfbf" points="396.5,-55 563.5,-55 "/>
<text text-anchor="middle" x="480" y="-43" font-family="Helvetica,sans-Serif" font-size="10.00"> </text>
<polyline fill="none" stroke="#bfbfbf" points="396.5,-36 563.5,-36 "/>
<text text-anchor="middle" x="480" y="-24" font-family="Helvetica,sans-Serif" font-size="10.00"> </text>
</a>
</g>
</g>
<!-- Node6&#45;&gt;Node9 -->
<g id="edge8" class="edge">
<title>Node6&#45;&gt;Node9</title>
<path fill="none" stroke="midnightblue" d="M379.18,-126.61C402.49,-108.09 426.51,-89 445.25,-74.11"/>
<polygon fill="none" stroke="midnightblue" points="376.97,-123.9 371.31,-132.86 381.32,-129.38 376.97,-123.9"/>
</g>
</g>
</svg>
