<?xml version="1.0" encoding="UTF-8" standalone="no"?>
<!DOCTYPE svg PUBLIC "-//W3C//DTD SVG 1.1//EN"
 "http://www.w3.org/Graphics/SVG/1.1/DTD/svg11.dtd">
<!-- Generated by graphviz version 2.43.0 (0)
 -->
<!-- Title: pocketmine\block\DyedShulkerBox Pages: 1 -->
<!--zoomable 833 -->

<svg id="main" version="1.1" xmlns="http://www.w3.org/2000/svg" xmlns:xlink="http://www.w3.org/1999/xlink" xml:space="preserve" onload="init(evt)">

<style type="text/css"><![CDATA[
.node, .edge {opacity: 0.7;}
.node.selected, .edge.selected {opacity: 1;}
.edge:hover path { stroke: red; }
.edge:hover polygon { stroke: red; fill: red; }
]]></style>

<defs>
  <circle id="rim" cx="0" cy="0" r="7"/>
  <circle id="rim2" cx="0" cy="0" r="3.5"/>
  <g id="zoomPlus">
    <use xlink:href="#rim" fill="#404040"><set attributeName="fill" to="#808080" begin="zoomplus.mouseover" end="zoomplus.mouseout"/></use>
    <path d="M-4,0h8M0,-4v8" fill="none" stroke="white" stroke-width="1.5" pointer-events="none"/>
  </g>
  <g id="zoomMin">
    <use xlink:href="#rim" fill="#404040"><set attributeName="fill" to="#808080" begin="zoomminus.mouseover" end="zoomminus.mouseout"/></use>
    <path d="M-4,0h8" fill="none" stroke="white" stroke-width="1.5" pointer-events="none"/>
  </g>
  <g id="arrowUp" transform="translate(30 24)">
    <use xlink:href="#rim"/>
    <path pointer-events="none" fill="none" stroke="white" stroke-width="1.5" d="M0,-3.0v7 M-2.5,-0.5L0,-3.0L2.5,-0.5"/>
  </g>
  <g id="arrowRight" transform="rotate(90) translate(36 -43)">
    <use xlink:href="#rim"/>
    <path pointer-events="none" fill="none" stroke="white" stroke-width="1.5" d="M0,-3.0v7 M-2.5,-0.5L0,-3.0L2.5,-0.5"/>
  </g>
  <g id="arrowDown" transform="rotate(180) translate(-30 -48)">
    <use xlink:href="#rim"/>
    <path pointer-events="none" fill="none" stroke="white" stroke-width="1.5" d="M0,-3.0v7 M-2.5,-0.5L0,-3.0L2.5,-0.5"/>
  </g>
  <g id="arrowLeft" transform="rotate(270) translate(-36 17)">
    <use xlink:href="#rim"/>
    <path pointer-events="none" fill="none" stroke="white" stroke-width="1.5" d="M0,-3.0v7 M-2.5,-0.5L0,-3.0L2.5,-0.5"/>
  </g>
  <g id="resetDef">
    <use xlink:href="#rim2" fill="#404040"><set attributeName="fill" to="#808080" begin="reset.mouseover" end="reset.mouseout"/></use>
  </g>
</defs>
<script type="application/ecmascript">
var viewWidth = 586;
var viewHeight = 833;
var sectionId = 'dynsection-0';
</script>
<script type="application/ecmascript" xlink:href="../../svg.min.js"/>
<svg id="graph" class="graph">
<g id="viewport">
<title>pocketmine\block\DyedShulkerBox</title>
<!-- Node1 -->
<g id="Node000001" class="node">
<title>Node1</title>
<g id="a_Node000001"><a xlink:title=" ">
<polygon fill="#999999" stroke="transparent" points="476.5,-49 296.5,-49 296.5,0 476.5,0 476.5,-49"/>
<text text-anchor="start" x="301.5" y="-36.5" font-family="Helvetica,sans-Serif" font-size="10.00">pocketmine\block\DyedShulkerBox</text>
<text text-anchor="start" x="384.5" y="-21.5" font-family="Helvetica,sans-Serif" font-size="10.00"> </text>
<text text-anchor="start" x="384.5" y="-6.5" font-family="Helvetica,sans-Serif" font-size="10.00"> </text>
<polygon fill="#666666" stroke="#666666" points="296.5,-31.5 296.5,-31.5 476.5,-31.5 476.5,-31.5 296.5,-31.5"/>
<polygon fill="#666666" stroke="#666666" points="296.5,-16.5 296.5,-16.5 476.5,-16.5 476.5,-16.5 296.5,-16.5"/>
<polygon fill="none" stroke="#666666" points="296.5,0 296.5,-49 476.5,-49 476.5,0 296.5,0"/>
</a>
</g>
</g>
<!-- Node2 -->
<g id="Node000002" class="node">
<title>Node2</title>
<g id="a_Node000002"><a xlink:href="../../d3/da7/classpocketmine_1_1block_1_1_shulker_box.html" target="_top" xlink:title=" ">
<polygon fill="white" stroke="transparent" points="388.5,-314 224.5,-314 224.5,-85 388.5,-85 388.5,-314"/>
<text text-anchor="start" x="234" y="-301.5" font-family="Helvetica,sans-Serif" font-size="10.00">pocketmine\block\ShulkerBox</text>
<text text-anchor="start" x="304.5" y="-286.5" font-family="Helvetica,sans-Serif" font-size="10.00"> </text>
<text text-anchor="start" x="228.5" y="-271.5" font-family="Helvetica,sans-Serif" font-size="10.00">+</text>
<text text-anchor="start" x="241.5" y="-271.5" font-family="Helvetica,sans-Serif" font-size="10.00">getDropsForCompatibleTool()</text>
<text text-anchor="start" x="228.5" y="-256.5" font-family="Helvetica,sans-Serif" font-size="10.00">+</text>
<text text-anchor="start" x="241.5" y="-256.5" font-family="Helvetica,sans-Serif" font-size="10.00">getMaxStackSize()</text>
<text text-anchor="start" x="228.5" y="-241.5" font-family="Helvetica,sans-Serif" font-size="10.00">+</text>
<text text-anchor="start" x="241.5" y="-241.5" font-family="Helvetica,sans-Serif" font-size="10.00">getPickedItem()</text>
<text text-anchor="start" x="228.5" y="-226.5" font-family="Helvetica,sans-Serif" font-size="10.00">+</text>
<text text-anchor="start" x="241.5" y="-226.5" font-family="Helvetica,sans-Serif" font-size="10.00">getSupportType()</text>
<text text-anchor="start" x="228.5" y="-211.5" font-family="Helvetica,sans-Serif" font-size="10.00">+</text>
<text text-anchor="start" x="241.5" y="-211.5" font-family="Helvetica,sans-Serif" font-size="10.00">isOpeningObstructed()</text>
<text text-anchor="start" x="228.5" y="-196.5" font-family="Helvetica,sans-Serif" font-size="10.00">+</text>
<text text-anchor="start" x="241.5" y="-196.5" font-family="Helvetica,sans-Serif" font-size="10.00">place()</text>
<text text-anchor="start" x="228.5" y="-181.5" font-family="Helvetica,sans-Serif" font-size="10.00">+</text>
<text text-anchor="start" x="241.5" y="-181.5" font-family="Helvetica,sans-Serif" font-size="10.00">readStateFromWorld()</text>
<text text-anchor="start" x="228.5" y="-166.5" font-family="Helvetica,sans-Serif" font-size="10.00">+</text>
<text text-anchor="start" x="241.5" y="-166.5" font-family="Helvetica,sans-Serif" font-size="10.00">writeStateToWorld()</text>
<text text-anchor="start" x="228.5" y="-151.5" font-family="Helvetica,sans-Serif" font-size="10.00">#</text>
<text text-anchor="start" x="241.5" y="-151.5" font-family="Helvetica,sans-Serif" font-size="10.00">describeBlockOnlyState()</text>
<text text-anchor="start" x="228.5" y="-136.5" font-family="Helvetica,sans-Serif" font-size="10.00">#</text>
<text text-anchor="start" x="241.5" y="-136.5" font-family="Helvetica,sans-Serif" font-size="10.00">getCloseSound()</text>
<text text-anchor="start" x="228.5" y="-121.5" font-family="Helvetica,sans-Serif" font-size="10.00">#</text>
<text text-anchor="start" x="241.5" y="-121.5" font-family="Helvetica,sans-Serif" font-size="10.00">getOpenSound()</text>
<text text-anchor="start" x="228.5" y="-106.5" font-family="Helvetica,sans-Serif" font-size="10.00">#</text>
<text text-anchor="start" x="241.5" y="-106.5" font-family="Helvetica,sans-Serif" font-size="10.00">newMenu()</text>
<text text-anchor="start" x="228.5" y="-91.5" font-family="Helvetica,sans-Serif" font-size="10.00">#</text>
<text text-anchor="start" x="241.5" y="-91.5" font-family="Helvetica,sans-Serif" font-size="10.00">playAnimationVisual()</text>
<polygon fill="#bfbfbf" stroke="#bfbfbf" points="224.5,-296.5 224.5,-296.5 388.5,-296.5 388.5,-296.5 224.5,-296.5"/>
<polygon fill="#bfbfbf" stroke="#bfbfbf" points="224.5,-281.5 224.5,-281.5 388.5,-281.5 388.5,-281.5 224.5,-281.5"/>
<polygon fill="none" stroke="#bfbfbf" points="224.5,-85 224.5,-314 388.5,-314 388.5,-85 224.5,-85"/>
</a>
</g>
</g>
<!-- Node2&#45;&gt;Node1 -->
<g id="edge1_Node000001_Node000002" class="edge">
<title>Node2&#45;&gt;Node1</title>
<g id="a_edge1_Node000001_Node000002"><a xlink:title=" ">
<path fill="none" stroke="#63b8ff" d="M363.43,-75.39C367.95,-65.62 372.11,-56.62 375.62,-49.03"/>
<polygon fill="none" stroke="#63b8ff" points="360.21,-74.01 359.19,-84.55 366.57,-76.95 360.21,-74.01"/>
</a>
</g>
</g>
<!-- Node3 -->
<g id="Node000003" class="node">
<title>Node3</title>
<g id="a_Node000003"><a xlink:href="../../db/dc5/classpocketmine_1_1block_1_1_opaque.html" target="_top" xlink:title=" ">
<polygon fill="white" stroke="transparent" points="153,-412 16,-412 16,-363 153,-363 153,-412"/>
<text text-anchor="start" x="21.5" y="-399.5" font-family="Helvetica,sans-Serif" font-size="10.00">pocketmine\block\Opaque</text>
<text text-anchor="start" x="83" y="-384.5" font-family="Helvetica,sans-Serif" font-size="10.00"> </text>
<text text-anchor="start" x="39.5" y="-369.5" font-family="Helvetica,sans-Serif" font-size="10.00">+</text>
<text text-anchor="start" x="71.5" y="-369.5" font-family="Helvetica,sans-Serif" font-size="10.00">isSolid()</text>
<polygon fill="#666666" stroke="#666666" points="16.5,-394.5 16.5,-394.5 153.5,-394.5 153.5,-394.5 16.5,-394.5"/>
<polygon fill="#666666" stroke="#666666" points="16.5,-379.5 16.5,-379.5 153.5,-379.5 153.5,-379.5 16.5,-379.5"/>
<polygon fill="none" stroke="#666666" points="16,-363 16,-412 153,-412 153,-363 16,-363"/>
</a>
</g>
</g>
<!-- Node3&#45;&gt;Node2 -->
<g id="edge2_Node000002_Node000003" class="edge">
<title>Node3&#45;&gt;Node2</title>
<g id="a_edge2_Node000002_Node000003"><a xlink:title=" ">
<path fill="none" stroke="#63b8ff" d="M120.54,-356.3C148.55,-332.84 188.49,-299.37 224.19,-269.46"/>
<polygon fill="none" stroke="#63b8ff" points="118.03,-353.84 112.62,-362.94 122.53,-359.2 118.03,-353.84"/>
</a>
</g>
</g>
<!-- Node4 -->
<g id="Node000004" class="node">
<title>Node4</title>
<g id="a_Node000004"><a xlink:href="../../d7/d27/classpocketmine_1_1block_1_1_block.html" target="_top" xlink:title=" ">
<polygon fill="white" stroke="transparent" points="169,-825 0,-825 0,-461 169,-461 169,-825"/>
<text text-anchor="start" x="26.5" y="-813" font-family="Helvetica,sans-Serif" font-size="10.00">pocketmine\block\Block</text>
<text text-anchor="start" x="4.5" y="-798" font-family="Helvetica,sans-Serif" font-size="10.00">+</text>
<text text-anchor="start" x="17.5" y="-798" font-family="Helvetica,sans-Serif" font-size="10.00">EMPTY_STATE_ID</text>
<text text-anchor="start" x="4.5" y="-783" font-family="Helvetica,sans-Serif" font-size="10.00">+</text>
<text text-anchor="start" x="17.5" y="-783" font-family="Helvetica,sans-Serif" font-size="10.00">INTERNAL_STATE_DATA_BITS</text>
<text text-anchor="start" x="4.5" y="-768" font-family="Helvetica,sans-Serif" font-size="10.00">+</text>
<text text-anchor="start" x="17.5" y="-768" font-family="Helvetica,sans-Serif" font-size="10.00">INTERNAL_STATE_DATA_MASK</text>
<text text-anchor="start" x="4.5" y="-753" font-family="Helvetica,sans-Serif" font-size="10.00">#</text>
<text text-anchor="start" x="17.5" y="-753" font-family="Helvetica,sans-Serif" font-size="10.00">$collisionBoxes</text>
<text text-anchor="start" x="4.5" y="-738" font-family="Helvetica,sans-Serif" font-size="10.00">#</text>
<text text-anchor="start" x="17.5" y="-738" font-family="Helvetica,sans-Serif" font-size="10.00">$fallbackName</text>
<text text-anchor="start" x="4.5" y="-723" font-family="Helvetica,sans-Serif" font-size="10.00">#</text>
<text text-anchor="start" x="17.5" y="-723" font-family="Helvetica,sans-Serif" font-size="10.00">$idInfo</text>
<text text-anchor="start" x="4.5" y="-708" font-family="Helvetica,sans-Serif" font-size="10.00">#</text>
<text text-anchor="start" x="17.5" y="-708" font-family="Helvetica,sans-Serif" font-size="10.00">$position</text>
<text text-anchor="start" x="4.5" y="-693" font-family="Helvetica,sans-Serif" font-size="10.00">#</text>
<text text-anchor="start" x="17.5" y="-693" font-family="Helvetica,sans-Serif" font-size="10.00">$typeInfo</text>
<text text-anchor="start" x="4.5" y="-678" font-family="Helvetica,sans-Serif" font-size="10.00">+</text>
<text text-anchor="start" x="17.5" y="-678" font-family="Helvetica,sans-Serif" font-size="10.00">__construct()</text>
<text text-anchor="start" x="4.5" y="-663" font-family="Helvetica,sans-Serif" font-size="10.00">+</text>
<text text-anchor="start" x="17.5" y="-663" font-family="Helvetica,sans-Serif" font-size="10.00">__clone()</text>
<text text-anchor="start" x="4.5" y="-648" font-family="Helvetica,sans-Serif" font-size="10.00">+</text>
<text text-anchor="start" x="17.5" y="-648" font-family="Helvetica,sans-Serif" font-size="10.00">__toString()</text>
<text text-anchor="start" x="4.5" y="-633" font-family="Helvetica,sans-Serif" font-size="10.00">+</text>
<text text-anchor="start" x="17.5" y="-633" font-family="Helvetica,sans-Serif" font-size="10.00">addVelocityToEntity()</text>
<text text-anchor="start" x="4.5" y="-618" font-family="Helvetica,sans-Serif" font-size="10.00">+</text>
<text text-anchor="start" x="17.5" y="-618" font-family="Helvetica,sans-Serif" font-size="10.00">asItem()</text>
<text text-anchor="start" x="4.5" y="-603" font-family="Helvetica,sans-Serif" font-size="10.00">+</text>
<text text-anchor="start" x="17.5" y="-603" font-family="Helvetica,sans-Serif" font-size="10.00">blocksDirectSkyLight()</text>
<text text-anchor="start" x="4.5" y="-588" font-family="Helvetica,sans-Serif" font-size="10.00">+</text>
<text text-anchor="start" x="17.5" y="-588" font-family="Helvetica,sans-Serif" font-size="10.00">burnsForever()</text>
<text text-anchor="start" x="4.5" y="-573" font-family="Helvetica,sans-Serif" font-size="10.00">+</text>
<text text-anchor="start" x="17.5" y="-573" font-family="Helvetica,sans-Serif" font-size="10.00">calculateIntercept()</text>
<text text-anchor="start" x="4.5" y="-558" font-family="Helvetica,sans-Serif" font-size="10.00">+</text>
<text text-anchor="start" x="17.5" y="-558" font-family="Helvetica,sans-Serif" font-size="10.00">canBeFlowedInto()</text>
<text text-anchor="start" x="4.5" y="-543" font-family="Helvetica,sans-Serif" font-size="10.00">+</text>
<text text-anchor="start" x="17.5" y="-543" font-family="Helvetica,sans-Serif" font-size="10.00">canBePlaced()</text>
<text text-anchor="start" x="17.5" y="-528" font-family="Helvetica,sans-Serif" font-size="10.00">and 60 more...</text>
<text text-anchor="start" x="4.5" y="-513" font-family="Helvetica,sans-Serif" font-size="10.00">#</text>
<text text-anchor="start" x="17.5" y="-513" font-family="Helvetica,sans-Serif" font-size="10.00">describeBlockOnlyState()</text>
<text text-anchor="start" x="4.5" y="-498" font-family="Helvetica,sans-Serif" font-size="10.00">#</text>
<text text-anchor="start" x="17.5" y="-498" font-family="Helvetica,sans-Serif" font-size="10.00">getAdjacentSupportType()</text>
<text text-anchor="start" x="4.5" y="-483" font-family="Helvetica,sans-Serif" font-size="10.00">#</text>
<text text-anchor="start" x="17.5" y="-483" font-family="Helvetica,sans-Serif" font-size="10.00">getXpDropAmount()</text>
<text text-anchor="start" x="4.5" y="-468" font-family="Helvetica,sans-Serif" font-size="10.00">#</text>
<text text-anchor="start" x="17.5" y="-468" font-family="Helvetica,sans-Serif" font-size="10.00">recalculateCollisionBoxes()</text>
<polygon fill="#bfbfbf" stroke="#bfbfbf" points="0.5,-808 0.5,-808 169.5,-808 169.5,-808 0.5,-808"/>
<polygon fill="#bfbfbf" stroke="#bfbfbf" points="0.5,-688 0.5,-688 15.5,-688 15.5,-688 0.5,-688"/>
<polygon fill="#bfbfbf" stroke="#bfbfbf" points="15.5,-688 15.5,-688 169.5,-688 169.5,-688 15.5,-688"/>
<polygon fill="none" stroke="#bfbfbf" points="0,-461 0,-825 169,-825 169,-461 0,-461"/>
</a>
</g>
</g>
<!-- Node4&#45;&gt;Node3 -->
<g id="edge3_Node000003_Node000004" class="edge">
<title>Node4&#45;&gt;Node3</title>
<g id="a_edge3_Node000003_Node000004"><a xlink:title=" ">
<path fill="none" stroke="#63b8ff" d="M84.5,-450.79C84.5,-435.88 84.5,-422.6 84.5,-412.16"/>
<polygon fill="none" stroke="#63b8ff" points="81,-450.8 84.5,-460.8 88,-450.8 81,-450.8"/>
</a>
</g>
</g>
<!-- Node5 -->
<g id="Node000005" class="node">
<title>Node5</title>
<g id="a_Node000005"><a xlink:href="../../d4/d7f/interfacepocketmine_1_1block_1_1utils_1_1_animated_container_like.html" target="_top" xlink:title=" ">
<polygon fill="white" stroke="transparent" points="299.5,-425 171.5,-425 171.5,-350 299.5,-350 299.5,-425"/>
<text text-anchor="start" x="176.5" y="-412.5" font-family="Helvetica,sans-Serif" font-size="10.00">pocketmine\block\utils</text>
<text text-anchor="start" x="176.5" y="-401.5" font-family="Helvetica,sans-Serif" font-size="10.00">\AnimatedContainerLike</text>
<text text-anchor="start" x="233.5" y="-386.5" font-family="Helvetica,sans-Serif" font-size="10.00"> </text>
<text text-anchor="start" x="177" y="-371.5" font-family="Helvetica,sans-Serif" font-size="10.00">+</text>
<text text-anchor="start" x="191.5" y="-371.5" font-family="Helvetica,sans-Serif" font-size="10.00">onViewerAdded()</text>
<text text-anchor="start" x="177" y="-356.5" font-family="Helvetica,sans-Serif" font-size="10.00">+</text>
<text text-anchor="start" x="191.5" y="-356.5" font-family="Helvetica,sans-Serif" font-size="10.00">onViewerRemoved()</text>
<polygon fill="#666666" stroke="#666666" points="171.5,-396.5 171.5,-396.5 299.5,-396.5 299.5,-396.5 171.5,-396.5"/>
<polygon fill="#666666" stroke="#666666" points="171.5,-381.5 171.5,-381.5 299.5,-381.5 299.5,-381.5 171.5,-381.5"/>
<polygon fill="none" stroke="#666666" points="171.5,-350 171.5,-425 299.5,-425 299.5,-350 171.5,-350"/>
</a>
</g>
</g>
<!-- Node5&#45;&gt;Node2 -->
<g id="edge4_Node000002_Node000005" class="edge">
<title>Node5&#45;&gt;Node2</title>
<g id="a_edge4_Node000002_Node000005"><a xlink:title=" ">
<path fill="none" stroke="#63b8ff" d="M253.17,-340.21C256.27,-332.1 259.6,-323.35 263.05,-314.33"/>
<polygon fill="none" stroke="#63b8ff" points="249.82,-339.16 249.53,-349.75 256.36,-341.66 249.82,-339.16"/>
</a>
</g>
</g>
<!-- Node6 -->
<g id="Node000006" class="node">
<title>Node6</title>
<g id="a_Node000006"><a xlink:href="../../d2/dc0/interfacepocketmine_1_1block_1_1utils_1_1_menu_accessor.html" target="_top" xlink:title=" ">
<polygon fill="white" stroke="transparent" points="381,-680.5 250,-680.5 250,-605.5 381,-605.5 381,-680.5"/>
<text text-anchor="start" x="260.5" y="-668" font-family="Helvetica,sans-Serif" font-size="10.00">pocketmine\block\utils</text>
<text text-anchor="start" x="279" y="-657" font-family="Helvetica,sans-Serif" font-size="10.00">\MenuAccessor</text>
<text text-anchor="start" x="314" y="-642" font-family="Helvetica,sans-Serif" font-size="10.00"> </text>
<text text-anchor="start" x="254.5" y="-627" font-family="Helvetica,sans-Serif" font-size="10.00">+</text>
<text text-anchor="start" x="267.5" y="-627" font-family="Helvetica,sans-Serif" font-size="10.00">isOpeningObstructed()</text>
<text text-anchor="start" x="254.5" y="-612" font-family="Helvetica,sans-Serif" font-size="10.00">+</text>
<text text-anchor="start" x="267.5" y="-612" font-family="Helvetica,sans-Serif" font-size="10.00">openToUnchecked()</text>
<polygon fill="#666666" stroke="#666666" points="250.5,-652 250.5,-652 381.5,-652 381.5,-652 250.5,-652"/>
<polygon fill="#666666" stroke="#666666" points="250.5,-637 250.5,-637 381.5,-637 381.5,-637 250.5,-637"/>
<polygon fill="none" stroke="#666666" points="250,-605.5 250,-680.5 381,-680.5 381,-605.5 250,-605.5"/>
</a>
</g>
</g>
<!-- Node6&#45;&gt;Node5 -->
<g id="edge5_Node000005_Node000006" class="edge">
<title>Node6&#45;&gt;Node5</title>
<g id="a_edge5_Node000005_Node000006"><a xlink:title=" ">
<path fill="none" stroke="#63b8ff" d="M300.88,-595.68C285.39,-546.59 261.25,-470.1 247.04,-425.08"/>
<polygon fill="none" stroke="#63b8ff" points="297.61,-596.93 303.95,-605.41 304.28,-594.82 297.61,-596.93"/>
</a>
</g>
</g>
<!-- Node8 -->
<g id="Node000008" class="node">
<title>Node8</title>
<g id="a_Node000008"><a xlink:href="../../d6/dbd/interfacepocketmine_1_1block_1_1utils_1_1_container.html" target="_top" xlink:title=" ">
<polygon fill="white" stroke="transparent" points="439,-425 318,-425 318,-350 439,-350 439,-425"/>
<text text-anchor="start" x="323.5" y="-412.5" font-family="Helvetica,sans-Serif" font-size="10.00">pocketmine\block\utils</text>
<text text-anchor="start" x="353.5" y="-401.5" font-family="Helvetica,sans-Serif" font-size="10.00">\Container</text>
<text text-anchor="start" x="377" y="-386.5" font-family="Helvetica,sans-Serif" font-size="10.00"> </text>
<text text-anchor="start" x="329" y="-371.5" font-family="Helvetica,sans-Serif" font-size="10.00">+</text>
<text text-anchor="start" x="348.5" y="-371.5" font-family="Helvetica,sans-Serif" font-size="10.00">canOpenWith()</text>
<text text-anchor="start" x="329" y="-356.5" font-family="Helvetica,sans-Serif" font-size="10.00">+</text>
<text text-anchor="start" x="348.5" y="-356.5" font-family="Helvetica,sans-Serif" font-size="10.00">getInventory()</text>
<polygon fill="#666666" stroke="#666666" points="318.5,-396.5 318.5,-396.5 439.5,-396.5 439.5,-396.5 318.5,-396.5"/>
<polygon fill="#666666" stroke="#666666" points="318.5,-381.5 318.5,-381.5 439.5,-381.5 439.5,-381.5 318.5,-381.5"/>
<polygon fill="none" stroke="#666666" points="318,-350 318,-425 439,-425 439,-350 318,-350"/>
</a>
</g>
</g>
<!-- Node6&#45;&gt;Node8 -->
<g id="edge8_Node000008_Node000006" class="edge">
<title>Node6&#45;&gt;Node8</title>
<g id="a_edge8_Node000008_Node000006"><a xlink:title=" ">
<path fill="none" stroke="#63b8ff" d="M327.01,-595.68C339.21,-546.59 358.22,-470.1 369.41,-425.08"/>
<polygon fill="none" stroke="#63b8ff" points="323.61,-594.86 324.59,-605.41 330.4,-596.55 323.61,-594.86"/>
</a>
</g>
</g>
<!-- Node7 -->
<g id="Node000007" class="node">
<title>Node7</title>
<g id="a_Node000007"><a xlink:href="../../d2/df5/interfacepocketmine_1_1block_1_1utils_1_1_any_facing.html" target="_top" xlink:title=" ">
<polygon fill="white" stroke="transparent" points="578,-425 457,-425 457,-350 578,-350 578,-425"/>
<text text-anchor="start" x="462.5" y="-412.5" font-family="Helvetica,sans-Serif" font-size="10.00">pocketmine\block\utils</text>
<text text-anchor="start" x="491.5" y="-401.5" font-family="Helvetica,sans-Serif" font-size="10.00">\AnyFacing</text>
<text text-anchor="start" x="516" y="-386.5" font-family="Helvetica,sans-Serif" font-size="10.00"> </text>
<text text-anchor="start" x="472.5" y="-371.5" font-family="Helvetica,sans-Serif" font-size="10.00">+</text>
<text text-anchor="start" x="496.5" y="-371.5" font-family="Helvetica,sans-Serif" font-size="10.00">getFacing()</text>
<text text-anchor="start" x="472.5" y="-356.5" font-family="Helvetica,sans-Serif" font-size="10.00">+</text>
<text text-anchor="start" x="496.5" y="-356.5" font-family="Helvetica,sans-Serif" font-size="10.00">setFacing()</text>
<polygon fill="#bfbfbf" stroke="#bfbfbf" points="457.5,-396.5 457.5,-396.5 578.5,-396.5 578.5,-396.5 457.5,-396.5"/>
<polygon fill="#bfbfbf" stroke="#bfbfbf" points="457.5,-381.5 457.5,-381.5 578.5,-381.5 578.5,-381.5 457.5,-381.5"/>
<polygon fill="none" stroke="#bfbfbf" points="457,-350 457,-425 578,-425 578,-350 457,-350"/>
</a>
</g>
</g>
<!-- Node7&#45;&gt;Node2 -->
<g id="edge6_Node000002_Node000007" class="edge">
<title>Node7&#45;&gt;Node2</title>
<g id="a_edge6_Node000002_Node000007"><a xlink:title=" ">
<path fill="none" stroke="#63b8ff" d="M448,-350.17C430.67,-339.62 412.7,-327.31 397.5,-314 394.55,-311.42 391.63,-308.74 388.74,-305.97"/>
<polygon fill="none" stroke="#63b8ff" points="446.61,-353.41 456.99,-355.52 450.19,-347.4 446.61,-353.41"/>
</a>
</g>
</g>
<!-- Node8&#45;&gt;Node2 -->
<g id="edge7_Node000002_Node000008" class="edge">
<title>Node8&#45;&gt;Node2</title>
<g id="a_edge7_Node000002_Node000008"><a xlink:title=" ">
<path fill="none" stroke="#63b8ff" d="M360.58,-340.21C357.44,-332.1 354.06,-323.35 350.56,-314.33"/>
<polygon fill="none" stroke="#63b8ff" points="357.4,-341.69 364.28,-349.75 363.93,-339.16 357.4,-341.69"/>
</a>
</g>
</g>
<!-- Node9 -->
<g id="Node000009" class="node">
<title>Node9</title>
<g id="a_Node000009"><a xlink:href="../../d8/d7d/interfacepocketmine_1_1block_1_1utils_1_1_colored.html" target="_top" xlink:title=" ">
<polygon fill="white" stroke="transparent" points="528,-237 407,-237 407,-162 528,-162 528,-237"/>
<text text-anchor="start" x="412.5" y="-224.5" font-family="Helvetica,sans-Serif" font-size="10.00">pocketmine\block\utils</text>
<text text-anchor="start" x="447.5" y="-213.5" font-family="Helvetica,sans-Serif" font-size="10.00">\Colored</text>
<text text-anchor="start" x="466" y="-198.5" font-family="Helvetica,sans-Serif" font-size="10.00"> </text>
<text text-anchor="start" x="424" y="-183.5" font-family="Helvetica,sans-Serif" font-size="10.00">+</text>
<text text-anchor="start" x="449.5" y="-183.5" font-family="Helvetica,sans-Serif" font-size="10.00">getColor()</text>
<text text-anchor="start" x="424" y="-168.5" font-family="Helvetica,sans-Serif" font-size="10.00">+</text>
<text text-anchor="start" x="449.5" y="-168.5" font-family="Helvetica,sans-Serif" font-size="10.00">setColor()</text>
<polygon fill="#bfbfbf" stroke="#bfbfbf" points="407.5,-208.5 407.5,-208.5 528.5,-208.5 528.5,-208.5 407.5,-208.5"/>
<polygon fill="#bfbfbf" stroke="#bfbfbf" points="407.5,-193.5 407.5,-193.5 528.5,-193.5 528.5,-193.5 407.5,-193.5"/>
<polygon fill="none" stroke="#bfbfbf" points="407,-162 407,-237 528,-237 528,-162 407,-162"/>
</a>
</g>
</g>
<!-- Node9&#45;&gt;Node1 -->
<g id="edge9_Node000001_Node000009" class="edge">
<title>Node9&#45;&gt;Node1</title>
<g id="a_edge9_Node000001_Node000009"><a xlink:title=" ">
<path fill="none" stroke="#63b8ff" d="M446.06,-152.72C430.47,-119.42 409.99,-75.68 397.56,-49.13"/>
<polygon fill="none" stroke="#63b8ff" points="442.91,-154.24 450.32,-161.81 449.25,-151.27 442.91,-154.24"/>
</a>
</g>
</g>
</g>
</svg>

<g id="navigator" transform="translate(0 0)" fill="#404254">
  <rect fill="#f2f5e9" fill-opacity="0.5" stroke="#606060" stroke-width=".5" x="0" y="0" width="60" height="60"/>
  <use id="zoomplus" xlink:href="#zoomPlus" x="17" y="9" onmousedown="handleZoom(evt,'in')"/>
  <use id="zoomminus" xlink:href="#zoomMin" x="42" y="9" onmousedown="handleZoom(evt,'out')"/>
  <use id="reset" xlink:href="#resetDef" x="30" y="36" onmousedown="handleReset()"/>
   <use id="arrowup" xlink:href="#arrowUp" x="0" y="0" onmousedown="handlePan(0,-1)"/>
  <use id="arrowright" xlink:href="#arrowRight" x="0" y="0" onmousedown="handlePan(1,0)"/>
  <use id="arrowdown" xlink:href="#arrowDown" x="0" y="0" onmousedown="handlePan(0,1)"/>
  <use id="arrowleft" xlink:href="#arrowLeft" x="0" y="0" onmousedown="handlePan(-1,0)"/>
</g>
<svg viewBox="0 0 15 15" width="100%" height="30px" preserveAspectRatio="xMaxYMin meet">
 <g id="arrow_out" transform="scale(0.3 0.3)">
  <a xlink:href="classpocketmine_1_1block_1_1_dyed_shulker_box__inherit__graph_org.svg" target="_base">
   <rect id="button" ry="5" rx="5" y="6" x="6" height="38" width="38"
        fill="#f2f5e9" fill-opacity="0.5" stroke="#606060" stroke-width="1.0"/>
   <path id="arrow"
     d="M 11.500037,31.436501 C 11.940474,20.09759 22.043105,11.32322 32.158766,21.979434 L 37.068811,17.246167 C 37.068811,17.246167 37.088388,32 37.088388,32 L 22.160133,31.978069 C 22.160133,31.978069 26.997745,27.140456 26.997745,27.140456 C 18.528582,18.264221 13.291696,25.230495 11.500037,31.436501 z"
     style="fill:#404040;"/>
  </a>
 </g>
</svg>

<style type='text/css'>
<![CDATA[
[data-mouse-over-selected='false'] { opacity: 0.7; }
[data-mouse-over-selected='true']  { opacity: 1.0; }
]]>
</style>
<script type="application/ecmascript"><![CDATA[
document.addEventListener('DOMContentLoaded', (event) => {
  highlightEdges();
  highlightAdjacentNodes();
});
]]></script>
</svg>
