<?xml version="1.0" encoding="UTF-8" standalone="no"?>
<!DOCTYPE svg PUBLIC "-//W3C//DTD SVG 1.1//EN"
 "http://www.w3.org/Graphics/SVG/1.1/DTD/svg11.dtd">
<!-- Generated by graphviz version 2.43.0 (0)
 -->
<!-- Title: pocketmine\block\tile\Banner Pages: 1 -->
<svg width="485pt" height="2255pt"
 viewBox="0.00 0.00 485.00 2255.00" xmlns="http://www.w3.org/2000/svg" xmlns:xlink="http://www.w3.org/1999/xlink">
<g id="graph0" class="graph" transform="scale(1 1) rotate(0) translate(4 2251)">
<title>pocketmine\block\tile\Banner</title>
<!-- Node1 -->
<g id="Node000001" class="node">
<title>Node1</title>
<g id="a_Node000001"><a xlink:title=" ">
<polygon fill="#999999" stroke="transparent" points="413,-285 261,-285 261,0 413,0 413,-285"/>
<text text-anchor="start" x="284" y="-272.5" font-family="Helvetica,sans-Serif" font-size="10.00">pocketmine\block\tile</text>
<text text-anchor="start" x="318" y="-261.5" font-family="Helvetica,sans-Serif" font-size="10.00">\Banner</text>
<text text-anchor="start" x="265" y="-246.5" font-family="Helvetica,sans-Serif" font-size="10.00">+</text>
<text text-anchor="start" x="278" y="-246.5" font-family="Helvetica,sans-Serif" font-size="10.00">TAG_BASE</text>
<text text-anchor="start" x="265" y="-231.5" font-family="Helvetica,sans-Serif" font-size="10.00">+</text>
<text text-anchor="start" x="278" y="-231.5" font-family="Helvetica,sans-Serif" font-size="10.00">TAG_PATTERN_COLOR</text>
<text text-anchor="start" x="265" y="-216.5" font-family="Helvetica,sans-Serif" font-size="10.00">+</text>
<text text-anchor="start" x="278" y="-216.5" font-family="Helvetica,sans-Serif" font-size="10.00">TAG_PATTERN_NAME</text>
<text text-anchor="start" x="265" y="-201.5" font-family="Helvetica,sans-Serif" font-size="10.00">+</text>
<text text-anchor="start" x="278" y="-201.5" font-family="Helvetica,sans-Serif" font-size="10.00">TAG_PATTERNS</text>
<text text-anchor="start" x="265" y="-186.5" font-family="Helvetica,sans-Serif" font-size="10.00">+</text>
<text text-anchor="start" x="278" y="-186.5" font-family="Helvetica,sans-Serif" font-size="10.00">TAG_TYPE</text>
<text text-anchor="start" x="265" y="-171.5" font-family="Helvetica,sans-Serif" font-size="10.00">+</text>
<text text-anchor="start" x="278" y="-171.5" font-family="Helvetica,sans-Serif" font-size="10.00">TYPE_NORMAL</text>
<text text-anchor="start" x="265" y="-156.5" font-family="Helvetica,sans-Serif" font-size="10.00">+</text>
<text text-anchor="start" x="278" y="-156.5" font-family="Helvetica,sans-Serif" font-size="10.00">TYPE_OMINOUS</text>
<text text-anchor="start" x="265" y="-141.5" font-family="Helvetica,sans-Serif" font-size="10.00">+</text>
<text text-anchor="start" x="278" y="-141.5" font-family="Helvetica,sans-Serif" font-size="10.00">getBaseColor()</text>
<text text-anchor="start" x="265" y="-126.5" font-family="Helvetica,sans-Serif" font-size="10.00">+</text>
<text text-anchor="start" x="278" y="-126.5" font-family="Helvetica,sans-Serif" font-size="10.00">getDefaultName()</text>
<text text-anchor="start" x="265" y="-111.5" font-family="Helvetica,sans-Serif" font-size="10.00">+</text>
<text text-anchor="start" x="278" y="-111.5" font-family="Helvetica,sans-Serif" font-size="10.00">getPatterns()</text>
<text text-anchor="start" x="265" y="-96.5" font-family="Helvetica,sans-Serif" font-size="10.00">+</text>
<text text-anchor="start" x="278" y="-96.5" font-family="Helvetica,sans-Serif" font-size="10.00">getType()</text>
<text text-anchor="start" x="265" y="-81.5" font-family="Helvetica,sans-Serif" font-size="10.00">+</text>
<text text-anchor="start" x="278" y="-81.5" font-family="Helvetica,sans-Serif" font-size="10.00">readSaveData()</text>
<text text-anchor="start" x="265" y="-66.5" font-family="Helvetica,sans-Serif" font-size="10.00">+</text>
<text text-anchor="start" x="278" y="-66.5" font-family="Helvetica,sans-Serif" font-size="10.00">setBaseColor()</text>
<text text-anchor="start" x="265" y="-51.5" font-family="Helvetica,sans-Serif" font-size="10.00">+</text>
<text text-anchor="start" x="278" y="-51.5" font-family="Helvetica,sans-Serif" font-size="10.00">setPatterns()</text>
<text text-anchor="start" x="265" y="-36.5" font-family="Helvetica,sans-Serif" font-size="10.00">+</text>
<text text-anchor="start" x="278" y="-36.5" font-family="Helvetica,sans-Serif" font-size="10.00">setType()</text>
<text text-anchor="start" x="265" y="-21.5" font-family="Helvetica,sans-Serif" font-size="10.00">#</text>
<text text-anchor="start" x="278" y="-21.5" font-family="Helvetica,sans-Serif" font-size="10.00">addAdditionalSpawnData()</text>
<text text-anchor="start" x="265" y="-6.5" font-family="Helvetica,sans-Serif" font-size="10.00">#</text>
<text text-anchor="start" x="278" y="-6.5" font-family="Helvetica,sans-Serif" font-size="10.00">writeSaveData()</text>
<polygon fill="#666666" stroke="#666666" points="261,-256.5 261,-256.5 413,-256.5 413,-256.5 261,-256.5"/>
<polygon fill="#666666" stroke="#666666" points="261,-151.5 261,-151.5 276,-151.5 276,-151.5 261,-151.5"/>
<polygon fill="#666666" stroke="#666666" points="276,-151.5 276,-151.5 413,-151.5 413,-151.5 276,-151.5"/>
<polygon fill="none" stroke="#666666" points="261,0 261,-285 413,-285 413,0 261,0"/>
</a>
</g>
</g>
<!-- Node2 -->
<g id="Node000002" class="node">
<title>Node2</title>
<g id="a_Node000002"><a xlink:href="../../dc/d0b/classpocketmine_1_1block_1_1tile_1_1_spawnable.html" target="_top" xlink:title=" ">
<polygon fill="white" stroke="transparent" points="429,-453 245,-453 245,-322 429,-322 429,-453"/>
<text text-anchor="start" x="284" y="-440.5" font-family="Helvetica,sans-Serif" font-size="10.00">pocketmine\block\tile</text>
<text text-anchor="start" x="308.5" y="-429.5" font-family="Helvetica,sans-Serif" font-size="10.00">\Spawnable</text>
<text text-anchor="start" x="335" y="-414.5" font-family="Helvetica,sans-Serif" font-size="10.00"> </text>
<text text-anchor="start" x="249" y="-399.5" font-family="Helvetica,sans-Serif" font-size="10.00">+</text>
<text text-anchor="start" x="262" y="-399.5" font-family="Helvetica,sans-Serif" font-size="10.00">clearSpawnCompoundCache()</text>
<text text-anchor="start" x="249" y="-384.5" font-family="Helvetica,sans-Serif" font-size="10.00">+</text>
<text text-anchor="start" x="262" y="-384.5" font-family="Helvetica,sans-Serif" font-size="10.00">getRenderUpdateBugWorkaround</text>
<text text-anchor="start" x="262" y="-373.5" font-family="Helvetica,sans-Serif" font-size="10.00">StateProperties()</text>
<text text-anchor="start" x="249" y="-358.5" font-family="Helvetica,sans-Serif" font-size="10.00">+</text>
<text text-anchor="start" x="262" y="-358.5" font-family="Helvetica,sans-Serif" font-size="10.00">getSerializedSpawnCompound()</text>
<text text-anchor="start" x="249" y="-343.5" font-family="Helvetica,sans-Serif" font-size="10.00">+</text>
<text text-anchor="start" x="262" y="-343.5" font-family="Helvetica,sans-Serif" font-size="10.00">getSpawnCompound()</text>
<text text-anchor="start" x="249" y="-328.5" font-family="Helvetica,sans-Serif" font-size="10.00">#</text>
<text text-anchor="start" x="262" y="-328.5" font-family="Helvetica,sans-Serif" font-size="10.00">addAdditionalSpawnData()</text>
<polygon fill="#bfbfbf" stroke="#bfbfbf" points="245,-424.5 245,-424.5 429,-424.5 429,-424.5 245,-424.5"/>
<polygon fill="#bfbfbf" stroke="#bfbfbf" points="245,-409.5 245,-409.5 429,-409.5 429,-409.5 245,-409.5"/>
<polygon fill="none" stroke="#bfbfbf" points="245,-322 245,-453 429,-453 429,-322 245,-322"/>
</a>
</g>
</g>
<!-- Node2&#45;&gt;Node1 -->
<g id="edge1_Node000001_Node000002" class="edge">
<title>Node2&#45;&gt;Node1</title>
<g id="a_edge1_Node000001_Node000002"><a xlink:title=" ">
<path fill="none" stroke="#63b8ff" d="M337,-311.5C337,-302.97 337,-294.09 337,-285.06"/>
<polygon fill="none" stroke="#63b8ff" points="333.5,-311.7 337,-321.7 340.5,-311.7 333.5,-311.7"/>
</a>
</g>
</g>
<!-- Node3 -->
<g id="Node000003" class="node">
<title>Node3</title>
<g id="a_Node000003"><a xlink:href="../../d9/d74/classpocketmine_1_1block_1_1tile_1_1_tile.html" target="_top" xlink:title=" ">
<polygon fill="white" stroke="transparent" points="409,-779 265,-779 265,-490 409,-490 409,-779"/>
<text text-anchor="start" x="273.5" y="-766.5" font-family="Helvetica,sans-Serif" font-size="10.00">pocketmine\block\tile\Tile</text>
<text text-anchor="start" x="269" y="-751.5" font-family="Helvetica,sans-Serif" font-size="10.00">+</text>
<text text-anchor="start" x="282" y="-751.5" font-family="Helvetica,sans-Serif" font-size="10.00">$closed</text>
<text text-anchor="start" x="269" y="-736.5" font-family="Helvetica,sans-Serif" font-size="10.00">+</text>
<text text-anchor="start" x="282" y="-736.5" font-family="Helvetica,sans-Serif" font-size="10.00">TAG_ID</text>
<text text-anchor="start" x="269" y="-721.5" font-family="Helvetica,sans-Serif" font-size="10.00">+</text>
<text text-anchor="start" x="282" y="-721.5" font-family="Helvetica,sans-Serif" font-size="10.00">TAG_X</text>
<text text-anchor="start" x="269" y="-706.5" font-family="Helvetica,sans-Serif" font-size="10.00">+</text>
<text text-anchor="start" x="282" y="-706.5" font-family="Helvetica,sans-Serif" font-size="10.00">TAG_Y</text>
<text text-anchor="start" x="269" y="-691.5" font-family="Helvetica,sans-Serif" font-size="10.00">+</text>
<text text-anchor="start" x="282" y="-691.5" font-family="Helvetica,sans-Serif" font-size="10.00">TAG_Z</text>
<text text-anchor="start" x="269" y="-676.5" font-family="Helvetica,sans-Serif" font-size="10.00">+</text>
<text text-anchor="start" x="282" y="-676.5" font-family="Helvetica,sans-Serif" font-size="10.00">__construct()</text>
<text text-anchor="start" x="269" y="-661.5" font-family="Helvetica,sans-Serif" font-size="10.00">+</text>
<text text-anchor="start" x="282" y="-661.5" font-family="Helvetica,sans-Serif" font-size="10.00">__destruct()</text>
<text text-anchor="start" x="269" y="-646.5" font-family="Helvetica,sans-Serif" font-size="10.00">+</text>
<text text-anchor="start" x="282" y="-646.5" font-family="Helvetica,sans-Serif" font-size="10.00">close()</text>
<text text-anchor="start" x="269" y="-631.5" font-family="Helvetica,sans-Serif" font-size="10.00">+</text>
<text text-anchor="start" x="282" y="-631.5" font-family="Helvetica,sans-Serif" font-size="10.00">copyDataFromItem()</text>
<text text-anchor="start" x="269" y="-616.5" font-family="Helvetica,sans-Serif" font-size="10.00">+</text>
<text text-anchor="start" x="282" y="-616.5" font-family="Helvetica,sans-Serif" font-size="10.00">getBlock()</text>
<text text-anchor="start" x="269" y="-601.5" font-family="Helvetica,sans-Serif" font-size="10.00">+</text>
<text text-anchor="start" x="282" y="-601.5" font-family="Helvetica,sans-Serif" font-size="10.00">getCleanedNBT()</text>
<text text-anchor="start" x="269" y="-586.5" font-family="Helvetica,sans-Serif" font-size="10.00">+</text>
<text text-anchor="start" x="282" y="-586.5" font-family="Helvetica,sans-Serif" font-size="10.00">getPosition()</text>
<text text-anchor="start" x="269" y="-571.5" font-family="Helvetica,sans-Serif" font-size="10.00">+</text>
<text text-anchor="start" x="282" y="-571.5" font-family="Helvetica,sans-Serif" font-size="10.00">isClosed()</text>
<text text-anchor="start" x="269" y="-556.5" font-family="Helvetica,sans-Serif" font-size="10.00">+</text>
<text text-anchor="start" x="282" y="-556.5" font-family="Helvetica,sans-Serif" font-size="10.00">onBlockDestroyed()</text>
<text text-anchor="start" x="269" y="-541.5" font-family="Helvetica,sans-Serif" font-size="10.00">+</text>
<text text-anchor="start" x="282" y="-541.5" font-family="Helvetica,sans-Serif" font-size="10.00">readSaveData()</text>
<text text-anchor="start" x="269" y="-526.5" font-family="Helvetica,sans-Serif" font-size="10.00">+</text>
<text text-anchor="start" x="282" y="-526.5" font-family="Helvetica,sans-Serif" font-size="10.00">saveNBT()</text>
<text text-anchor="start" x="269" y="-511.5" font-family="Helvetica,sans-Serif" font-size="10.00">#</text>
<text text-anchor="start" x="282" y="-511.5" font-family="Helvetica,sans-Serif" font-size="10.00">onBlockDestroyedHook()</text>
<text text-anchor="start" x="269" y="-496.5" font-family="Helvetica,sans-Serif" font-size="10.00">#</text>
<text text-anchor="start" x="282" y="-496.5" font-family="Helvetica,sans-Serif" font-size="10.00">writeSaveData()</text>
<polygon fill="#bfbfbf" stroke="#bfbfbf" points="265,-761.5 265,-761.5 409,-761.5 409,-761.5 265,-761.5"/>
<polygon fill="#bfbfbf" stroke="#bfbfbf" points="265,-686.5 265,-686.5 280,-686.5 280,-686.5 265,-686.5"/>
<polygon fill="#bfbfbf" stroke="#bfbfbf" points="280,-686.5 280,-686.5 409,-686.5 409,-686.5 280,-686.5"/>
<polygon fill="none" stroke="#bfbfbf" points="265,-490 265,-779 409,-779 409,-490 265,-490"/>
</a>
</g>
</g>
<!-- Node3&#45;&gt;Node2 -->
<g id="edge2_Node000002_Node000003" class="edge">
<title>Node3&#45;&gt;Node2</title>
<g id="a_edge2_Node000002_Node000003"><a xlink:title=" ">
<path fill="none" stroke="#63b8ff" d="M337,-479.84C337,-470.64 337,-461.68 337,-453.21"/>
<polygon fill="none" stroke="#63b8ff" points="333.5,-479.92 337,-489.92 340.5,-479.92 333.5,-479.92"/>
</a>
</g>
</g>
<!-- Node4 -->
<g id="Node000004" class="node">
<title>Node4</title>
<g id="a_Node000004"><a xlink:href="../../d5/dd2/classpocketmine_1_1world_1_1_position.html" target="_top" xlink:title=" ">
<polygon fill="white" stroke="transparent" points="346,-980 206,-980 206,-826 346,-826 346,-980"/>
<text text-anchor="start" x="211" y="-968" font-family="Helvetica,sans-Serif" font-size="10.00">pocketmine\world\Position</text>
<text text-anchor="start" x="274" y="-953" font-family="Helvetica,sans-Serif" font-size="10.00"> </text>
<text text-anchor="start" x="223.5" y="-938" font-family="Helvetica,sans-Serif" font-size="10.00">+</text>
<text text-anchor="start" x="250" y="-938" font-family="Helvetica,sans-Serif" font-size="10.00">__construct()</text>
<text text-anchor="start" x="223.5" y="-923" font-family="Helvetica,sans-Serif" font-size="10.00">+</text>
<text text-anchor="start" x="250" y="-923" font-family="Helvetica,sans-Serif" font-size="10.00">__toString()</text>
<text text-anchor="start" x="223.5" y="-908" font-family="Helvetica,sans-Serif" font-size="10.00">+</text>
<text text-anchor="start" x="250" y="-908" font-family="Helvetica,sans-Serif" font-size="10.00">asPosition()</text>
<text text-anchor="start" x="223.5" y="-893" font-family="Helvetica,sans-Serif" font-size="10.00">+</text>
<text text-anchor="start" x="250" y="-893" font-family="Helvetica,sans-Serif" font-size="10.00">equals()</text>
<text text-anchor="start" x="223.5" y="-878" font-family="Helvetica,sans-Serif" font-size="10.00">+</text>
<text text-anchor="start" x="250" y="-878" font-family="Helvetica,sans-Serif" font-size="10.00">getSide()</text>
<text text-anchor="start" x="223.5" y="-863" font-family="Helvetica,sans-Serif" font-size="10.00">+</text>
<text text-anchor="start" x="250" y="-863" font-family="Helvetica,sans-Serif" font-size="10.00">getWorld()</text>
<text text-anchor="start" x="223.5" y="-848" font-family="Helvetica,sans-Serif" font-size="10.00">+</text>
<text text-anchor="start" x="250" y="-848" font-family="Helvetica,sans-Serif" font-size="10.00">isValid()</text>
<text text-anchor="start" x="223.5" y="-833" font-family="Helvetica,sans-Serif" font-size="10.00">+</text>
<text text-anchor="start" x="250" y="-833" font-family="Helvetica,sans-Serif" font-size="10.00">fromObject()</text>
<polygon fill="#bfbfbf" stroke="#bfbfbf" points="206,-963 206,-963 346,-963 346,-963 206,-963"/>
<polygon fill="#bfbfbf" stroke="#bfbfbf" points="206,-948 206,-948 346,-948 346,-948 206,-948"/>
<polygon fill="none" stroke="#bfbfbf" points="206,-826 206,-980 346,-980 346,-826 206,-826"/>
</a>
</g>
</g>
<!-- Node4&#45;&gt;Node3 -->
<g id="edge3_Node000003_Node000004" class="edge">
<title>Node4&#45;&gt;Node3</title>
<g id="a_edge3_Node000003_Node000004"><a xlink:title=" ">
<path fill="none" stroke="#63b8ff" d="M293.4,-825.99C295.93,-814.91 298.62,-803.18 301.36,-791.2"/>
<polygon fill="none" stroke="#63b8ff" points="301.44,-790.86 298.88,-784.12 304.12,-779.16 306.68,-785.9 301.44,-790.86"/>
</a>
</g>
<text text-anchor="middle" x="328.5" y="-800" font-family="Helvetica,sans-Serif" font-size="10.00" fill="grey"> #$position</text>
</g>
<!-- Node5 -->
<g id="Node000005" class="node">
<title>Node5</title>
<g id="a_Node000005"><a xlink:href="../../d2/d90/classpocketmine_1_1math_1_1_vector3.html" target="_top" xlink:title=" ">
<polygon fill="white" stroke="transparent" points="175,-1389 39,-1389 39,-1130 175,-1130 175,-1389"/>
<text text-anchor="start" x="44" y="-1376.5" font-family="Helvetica,sans-Serif" font-size="10.00">pocketmine\math\Vector3</text>
<text text-anchor="start" x="105" y="-1361.5" font-family="Helvetica,sans-Serif" font-size="10.00"> </text>
<text text-anchor="start" x="49" y="-1346.5" font-family="Helvetica,sans-Serif" font-size="10.00">+</text>
<text text-anchor="start" x="68" y="-1346.5" font-family="Helvetica,sans-Serif" font-size="10.00">__construct()</text>
<text text-anchor="start" x="49" y="-1331.5" font-family="Helvetica,sans-Serif" font-size="10.00">+</text>
<text text-anchor="start" x="68" y="-1331.5" font-family="Helvetica,sans-Serif" font-size="10.00">__toString()</text>
<text text-anchor="start" x="49" y="-1316.5" font-family="Helvetica,sans-Serif" font-size="10.00">+</text>
<text text-anchor="start" x="68" y="-1316.5" font-family="Helvetica,sans-Serif" font-size="10.00">abs()</text>
<text text-anchor="start" x="49" y="-1301.5" font-family="Helvetica,sans-Serif" font-size="10.00">+</text>
<text text-anchor="start" x="68" y="-1301.5" font-family="Helvetica,sans-Serif" font-size="10.00">add()</text>
<text text-anchor="start" x="49" y="-1286.5" font-family="Helvetica,sans-Serif" font-size="10.00">+</text>
<text text-anchor="start" x="68" y="-1286.5" font-family="Helvetica,sans-Serif" font-size="10.00">addVector()</text>
<text text-anchor="start" x="49" y="-1271.5" font-family="Helvetica,sans-Serif" font-size="10.00">+</text>
<text text-anchor="start" x="68" y="-1271.5" font-family="Helvetica,sans-Serif" font-size="10.00">asVector3()</text>
<text text-anchor="start" x="49" y="-1256.5" font-family="Helvetica,sans-Serif" font-size="10.00">+</text>
<text text-anchor="start" x="68" y="-1256.5" font-family="Helvetica,sans-Serif" font-size="10.00">ceil()</text>
<text text-anchor="start" x="49" y="-1241.5" font-family="Helvetica,sans-Serif" font-size="10.00">+</text>
<text text-anchor="start" x="68" y="-1241.5" font-family="Helvetica,sans-Serif" font-size="10.00">cross()</text>
<text text-anchor="start" x="49" y="-1226.5" font-family="Helvetica,sans-Serif" font-size="10.00">+</text>
<text text-anchor="start" x="68" y="-1226.5" font-family="Helvetica,sans-Serif" font-size="10.00">distance()</text>
<text text-anchor="start" x="49" y="-1211.5" font-family="Helvetica,sans-Serif" font-size="10.00">+</text>
<text text-anchor="start" x="68" y="-1211.5" font-family="Helvetica,sans-Serif" font-size="10.00">distanceSquared()</text>
<text text-anchor="start" x="68" y="-1196.5" font-family="Helvetica,sans-Serif" font-size="10.00">and 32 more...</text>
<text text-anchor="start" x="49" y="-1181.5" font-family="Helvetica,sans-Serif" font-size="10.00">+</text>
<text text-anchor="start" x="68" y="-1181.5" font-family="Helvetica,sans-Serif" font-size="10.00">maxComponents()</text>
<text text-anchor="start" x="49" y="-1166.5" font-family="Helvetica,sans-Serif" font-size="10.00">+</text>
<text text-anchor="start" x="68" y="-1166.5" font-family="Helvetica,sans-Serif" font-size="10.00">minComponents()</text>
<text text-anchor="start" x="49" y="-1151.5" font-family="Helvetica,sans-Serif" font-size="10.00">+</text>
<text text-anchor="start" x="68" y="-1151.5" font-family="Helvetica,sans-Serif" font-size="10.00">sum()</text>
<text text-anchor="start" x="49" y="-1136.5" font-family="Helvetica,sans-Serif" font-size="10.00">+</text>
<text text-anchor="start" x="68" y="-1136.5" font-family="Helvetica,sans-Serif" font-size="10.00">zero()</text>
<polygon fill="#bfbfbf" stroke="#bfbfbf" points="39,-1371.5 39,-1371.5 175,-1371.5 175,-1371.5 39,-1371.5"/>
<polygon fill="#bfbfbf" stroke="#bfbfbf" points="39,-1356.5 39,-1356.5 175,-1356.5 175,-1356.5 39,-1356.5"/>
<polygon fill="none" stroke="#bfbfbf" points="39,-1130 39,-1389 175,-1389 175,-1130 39,-1130"/>
</a>
</g>
</g>
<!-- Node5&#45;&gt;Node4 -->
<g id="edge4_Node000004_Node000005" class="edge">
<title>Node5&#45;&gt;Node4</title>
<g id="a_edge4_Node000004_Node000005"><a xlink:title=" ">
<path fill="none" stroke="#63b8ff" d="M144.93,-1120.22C155.74,-1088.77 168.8,-1056.09 184,-1027 192.28,-1011.17 202.52,-995.19 213.14,-980.24"/>
<polygon fill="none" stroke="#63b8ff" points="141.53,-1119.33 141.65,-1129.93 148.16,-1121.58 141.53,-1119.33"/>
</a>
</g>
</g>
<!-- Node6 -->
<g id="Node000006" class="node">
<title>Node6</title>
<g id="a_Node000006"><a xlink:href="../../d4/d2b/classpocketmine_1_1world_1_1_world.html" target="_top" xlink:title=" ">
<polygon fill="white" stroke="transparent" points="359,-1492 193,-1492 193,-1027 359,-1027 359,-1492"/>
<text text-anchor="start" x="217" y="-1479.5" font-family="Helvetica,sans-Serif" font-size="10.00">pocketmine\world\World</text>
<text text-anchor="start" x="197" y="-1464.5" font-family="Helvetica,sans-Serif" font-size="10.00">+</text>
<text text-anchor="start" x="210" y="-1464.5" font-family="Helvetica,sans-Serif" font-size="10.00">$stopTime</text>
<text text-anchor="start" x="197" y="-1449.5" font-family="Helvetica,sans-Serif" font-size="10.00">+</text>
<text text-anchor="start" x="210" y="-1449.5" font-family="Helvetica,sans-Serif" font-size="10.00">$tickRateTime</text>
<text text-anchor="start" x="197" y="-1434.5" font-family="Helvetica,sans-Serif" font-size="10.00">+</text>
<text text-anchor="start" x="210" y="-1434.5" font-family="Helvetica,sans-Serif" font-size="10.00">$updateEntities</text>
<text text-anchor="start" x="197" y="-1419.5" font-family="Helvetica,sans-Serif" font-size="10.00">+</text>
<text text-anchor="start" x="210" y="-1419.5" font-family="Helvetica,sans-Serif" font-size="10.00">DEFAULT_TICKED_BLOCKS</text>
<text text-anchor="start" x="210" y="-1408.5" font-family="Helvetica,sans-Serif" font-size="10.00">_PER_SUBCHUNK_PER_TICK</text>
<text text-anchor="start" x="197" y="-1393.5" font-family="Helvetica,sans-Serif" font-size="10.00">+</text>
<text text-anchor="start" x="210" y="-1393.5" font-family="Helvetica,sans-Serif" font-size="10.00">DIFFICULTY_EASY</text>
<text text-anchor="start" x="197" y="-1378.5" font-family="Helvetica,sans-Serif" font-size="10.00">+</text>
<text text-anchor="start" x="210" y="-1378.5" font-family="Helvetica,sans-Serif" font-size="10.00">DIFFICULTY_HARD</text>
<text text-anchor="start" x="197" y="-1363.5" font-family="Helvetica,sans-Serif" font-size="10.00">+</text>
<text text-anchor="start" x="210" y="-1363.5" font-family="Helvetica,sans-Serif" font-size="10.00">DIFFICULTY_NORMAL</text>
<text text-anchor="start" x="197" y="-1348.5" font-family="Helvetica,sans-Serif" font-size="10.00">+</text>
<text text-anchor="start" x="210" y="-1348.5" font-family="Helvetica,sans-Serif" font-size="10.00">DIFFICULTY_PEACEFUL</text>
<text text-anchor="start" x="197" y="-1333.5" font-family="Helvetica,sans-Serif" font-size="10.00">+</text>
<text text-anchor="start" x="210" y="-1333.5" font-family="Helvetica,sans-Serif" font-size="10.00">TIME_DAY</text>
<text text-anchor="start" x="197" y="-1318.5" font-family="Helvetica,sans-Serif" font-size="10.00">+</text>
<text text-anchor="start" x="210" y="-1318.5" font-family="Helvetica,sans-Serif" font-size="10.00">TIME_FULL</text>
<text text-anchor="start" x="210" y="-1303.5" font-family="Helvetica,sans-Serif" font-size="10.00">and 7 more...</text>
<text text-anchor="start" x="197" y="-1288.5" font-family="Helvetica,sans-Serif" font-size="10.00">+</text>
<text text-anchor="start" x="210" y="-1288.5" font-family="Helvetica,sans-Serif" font-size="10.00">__construct()</text>
<text text-anchor="start" x="197" y="-1273.5" font-family="Helvetica,sans-Serif" font-size="10.00">+</text>
<text text-anchor="start" x="210" y="-1273.5" font-family="Helvetica,sans-Serif" font-size="10.00">__debugInfo()</text>
<text text-anchor="start" x="197" y="-1258.5" font-family="Helvetica,sans-Serif" font-size="10.00">+</text>
<text text-anchor="start" x="210" y="-1258.5" font-family="Helvetica,sans-Serif" font-size="10.00">addEntity()</text>
<text text-anchor="start" x="197" y="-1243.5" font-family="Helvetica,sans-Serif" font-size="10.00">+</text>
<text text-anchor="start" x="210" y="-1243.5" font-family="Helvetica,sans-Serif" font-size="10.00">addOnUnloadCallback()</text>
<text text-anchor="start" x="197" y="-1228.5" font-family="Helvetica,sans-Serif" font-size="10.00">+</text>
<text text-anchor="start" x="210" y="-1228.5" font-family="Helvetica,sans-Serif" font-size="10.00">addParticle()</text>
<text text-anchor="start" x="197" y="-1213.5" font-family="Helvetica,sans-Serif" font-size="10.00">+</text>
<text text-anchor="start" x="210" y="-1213.5" font-family="Helvetica,sans-Serif" font-size="10.00">addRandomTickedBlock()</text>
<text text-anchor="start" x="197" y="-1198.5" font-family="Helvetica,sans-Serif" font-size="10.00">+</text>
<text text-anchor="start" x="210" y="-1198.5" font-family="Helvetica,sans-Serif" font-size="10.00">addSound()</text>
<text text-anchor="start" x="197" y="-1183.5" font-family="Helvetica,sans-Serif" font-size="10.00">+</text>
<text text-anchor="start" x="210" y="-1183.5" font-family="Helvetica,sans-Serif" font-size="10.00">addTile()</text>
<text text-anchor="start" x="197" y="-1168.5" font-family="Helvetica,sans-Serif" font-size="10.00">+</text>
<text text-anchor="start" x="210" y="-1168.5" font-family="Helvetica,sans-Serif" font-size="10.00">broadcastPacketToViewers()</text>
<text text-anchor="start" x="197" y="-1153.5" font-family="Helvetica,sans-Serif" font-size="10.00">+</text>
<text text-anchor="start" x="210" y="-1153.5" font-family="Helvetica,sans-Serif" font-size="10.00">cancelUnloadChunkRequest()</text>
<text text-anchor="start" x="210" y="-1138.5" font-family="Helvetica,sans-Serif" font-size="10.00">and 121 more...</text>
<text text-anchor="start" x="197" y="-1123.5" font-family="Helvetica,sans-Serif" font-size="10.00">+</text>
<text text-anchor="start" x="210" y="-1123.5" font-family="Helvetica,sans-Serif" font-size="10.00">blockHash()</text>
<text text-anchor="start" x="197" y="-1108.5" font-family="Helvetica,sans-Serif" font-size="10.00">+</text>
<text text-anchor="start" x="210" y="-1108.5" font-family="Helvetica,sans-Serif" font-size="10.00">chunkBlockHash()</text>
<text text-anchor="start" x="197" y="-1093.5" font-family="Helvetica,sans-Serif" font-size="10.00">+</text>
<text text-anchor="start" x="210" y="-1093.5" font-family="Helvetica,sans-Serif" font-size="10.00">chunkHash()</text>
<text text-anchor="start" x="197" y="-1078.5" font-family="Helvetica,sans-Serif" font-size="10.00">+</text>
<text text-anchor="start" x="210" y="-1078.5" font-family="Helvetica,sans-Serif" font-size="10.00">getBlockXYZ()</text>
<text text-anchor="start" x="197" y="-1063.5" font-family="Helvetica,sans-Serif" font-size="10.00">+</text>
<text text-anchor="start" x="210" y="-1063.5" font-family="Helvetica,sans-Serif" font-size="10.00">getDifficultyFromString()</text>
<text text-anchor="start" x="197" y="-1048.5" font-family="Helvetica,sans-Serif" font-size="10.00">+</text>
<text text-anchor="start" x="210" y="-1048.5" font-family="Helvetica,sans-Serif" font-size="10.00">getXZ()</text>
<text text-anchor="start" x="197" y="-1033.5" font-family="Helvetica,sans-Serif" font-size="10.00">#</text>
<text text-anchor="start" x="210" y="-1033.5" font-family="Helvetica,sans-Serif" font-size="10.00">actuallyDoTick()</text>
<polygon fill="#666666" stroke="#666666" points="193,-1474.5 193,-1474.5 359,-1474.5 359,-1474.5 193,-1474.5"/>
<polygon fill="#666666" stroke="#666666" points="193,-1298.5 193,-1298.5 208,-1298.5 208,-1298.5 193,-1298.5"/>
<polygon fill="#666666" stroke="#666666" points="208,-1298.5 208,-1298.5 359,-1298.5 359,-1298.5 208,-1298.5"/>
<polygon fill="none" stroke="#666666" points="193,-1027 193,-1492 359,-1492 359,-1027 193,-1027"/>
</a>
</g>
</g>
<!-- Node6&#45;&gt;Node4 -->
<g id="edge5_Node000004_Node000006" class="edge">
<title>Node6&#45;&gt;Node4</title>
<g id="a_edge5_Node000004_Node000006"><a xlink:title=" ">
<path fill="none" stroke="#63b8ff" d="M276,-1026.99C276,-1014.96 276,-1003.31 276,-992.27"/>
<polygon fill="none" stroke="#63b8ff" points="276,-992.09 272,-986.09 276,-980.09 280,-986.09 276,-992.09"/>
</a>
</g>
<text text-anchor="middle" x="298.5" y="-1001" font-family="Helvetica,sans-Serif" font-size="10.00" fill="grey"> +$world</text>
</g>
<!-- Node7 -->
<g id="Node000007" class="node">
<title>Node7</title>
<g id="a_Node000007"><a xlink:href="../../d0/d03/interfacepocketmine_1_1world_1_1_chunk_manager.html" target="_top" xlink:title=" ">
<polygon fill="white" stroke="transparent" points="174,-1734 0,-1734 0,-1595 174,-1595 174,-1734"/>
<text text-anchor="start" x="5" y="-1721.5" font-family="Helvetica,sans-Serif" font-size="10.00">pocketmine\world\ChunkManager</text>
<text text-anchor="start" x="85" y="-1706.5" font-family="Helvetica,sans-Serif" font-size="10.00"> </text>
<text text-anchor="start" x="27" y="-1691.5" font-family="Helvetica,sans-Serif" font-size="10.00">+</text>
<text text-anchor="start" x="63" y="-1691.5" font-family="Helvetica,sans-Serif" font-size="10.00">getBlockAt()</text>
<text text-anchor="start" x="27" y="-1676.5" font-family="Helvetica,sans-Serif" font-size="10.00">+</text>
<text text-anchor="start" x="63" y="-1676.5" font-family="Helvetica,sans-Serif" font-size="10.00">getChunk()</text>
<text text-anchor="start" x="27" y="-1661.5" font-family="Helvetica,sans-Serif" font-size="10.00">+</text>
<text text-anchor="start" x="63" y="-1661.5" font-family="Helvetica,sans-Serif" font-size="10.00">getMaxY()</text>
<text text-anchor="start" x="27" y="-1646.5" font-family="Helvetica,sans-Serif" font-size="10.00">+</text>
<text text-anchor="start" x="63" y="-1646.5" font-family="Helvetica,sans-Serif" font-size="10.00">getMinY()</text>
<text text-anchor="start" x="27" y="-1631.5" font-family="Helvetica,sans-Serif" font-size="10.00">+</text>
<text text-anchor="start" x="63" y="-1631.5" font-family="Helvetica,sans-Serif" font-size="10.00">isInWorld()</text>
<text text-anchor="start" x="27" y="-1616.5" font-family="Helvetica,sans-Serif" font-size="10.00">+</text>
<text text-anchor="start" x="63" y="-1616.5" font-family="Helvetica,sans-Serif" font-size="10.00">setBlockAt()</text>
<text text-anchor="start" x="27" y="-1601.5" font-family="Helvetica,sans-Serif" font-size="10.00">+</text>
<text text-anchor="start" x="63" y="-1601.5" font-family="Helvetica,sans-Serif" font-size="10.00">setChunk()</text>
<polygon fill="#bfbfbf" stroke="#bfbfbf" points="0,-1716.5 0,-1716.5 174,-1716.5 174,-1716.5 0,-1716.5"/>
<polygon fill="#bfbfbf" stroke="#bfbfbf" points="0,-1701.5 0,-1701.5 174,-1701.5 174,-1701.5 0,-1701.5"/>
<polygon fill="none" stroke="#bfbfbf" points="0,-1595 0,-1734 174,-1734 174,-1595 0,-1595"/>
</a>
</g>
</g>
<!-- Node7&#45;&gt;Node6 -->
<g id="edge6_Node000006_Node000007" class="edge">
<title>Node7&#45;&gt;Node6</title>
<g id="a_edge6_Node000006_Node000007"><a xlink:title=" ">
<path fill="none" stroke="#63b8ff" d="M133.74,-1586.11C150.49,-1557.06 168.94,-1523.46 184,-1492 186.99,-1485.76 189.96,-1479.39 192.91,-1472.94"/>
<polygon fill="none" stroke="#63b8ff" points="130.59,-1584.56 128.6,-1594.97 136.65,-1588.07 130.59,-1584.56"/>
</a>
</g>
</g>
<!-- Node8 -->
<g id="Node000008" class="node">
<title>Node8</title>
<g id="a_Node000008"><a xlink:href="../../d7/d08/classpocketmine_1_1world_1_1_world_timings.html" target="_top" xlink:title=" ">
<polygon fill="white" stroke="transparent" points="359.5,-1790 192.5,-1790 192.5,-1539 359.5,-1539 359.5,-1790"/>
<text text-anchor="start" x="198" y="-1777.5" font-family="Helvetica,sans-Serif" font-size="10.00">pocketmine\world\WorldTimings</text>
<text text-anchor="start" x="197" y="-1762.5" font-family="Helvetica,sans-Serif" font-size="10.00">+</text>
<text text-anchor="start" x="210" y="-1762.5" font-family="Helvetica,sans-Serif" font-size="10.00">$randomChunkUpdatesChunk</text>
<text text-anchor="start" x="210" y="-1751.5" font-family="Helvetica,sans-Serif" font-size="10.00">Selection</text>
<text text-anchor="start" x="197" y="-1736.5" font-family="Helvetica,sans-Serif" font-size="10.00">+</text>
<text text-anchor="start" x="210" y="-1736.5" font-family="Helvetica,sans-Serif" font-size="10.00">$scheduledBlockUpdates</text>
<text text-anchor="start" x="197" y="-1721.5" font-family="Helvetica,sans-Serif" font-size="10.00">+</text>
<text text-anchor="start" x="210" y="-1721.5" font-family="Helvetica,sans-Serif" font-size="10.00">$setBlock</text>
<text text-anchor="start" x="197" y="-1706.5" font-family="Helvetica,sans-Serif" font-size="10.00">+</text>
<text text-anchor="start" x="210" y="-1706.5" font-family="Helvetica,sans-Serif" font-size="10.00">$syncChunkLoad</text>
<text text-anchor="start" x="197" y="-1691.5" font-family="Helvetica,sans-Serif" font-size="10.00">+</text>
<text text-anchor="start" x="210" y="-1691.5" font-family="Helvetica,sans-Serif" font-size="10.00">$syncChunkLoadData</text>
<text text-anchor="start" x="197" y="-1676.5" font-family="Helvetica,sans-Serif" font-size="10.00">+</text>
<text text-anchor="start" x="210" y="-1676.5" font-family="Helvetica,sans-Serif" font-size="10.00">$syncChunkLoadEntities</text>
<text text-anchor="start" x="197" y="-1661.5" font-family="Helvetica,sans-Serif" font-size="10.00">+</text>
<text text-anchor="start" x="210" y="-1661.5" font-family="Helvetica,sans-Serif" font-size="10.00">$syncChunkLoadFixInvalid</text>
<text text-anchor="start" x="210" y="-1650.5" font-family="Helvetica,sans-Serif" font-size="10.00">Blocks</text>
<text text-anchor="start" x="197" y="-1635.5" font-family="Helvetica,sans-Serif" font-size="10.00">+</text>
<text text-anchor="start" x="210" y="-1635.5" font-family="Helvetica,sans-Serif" font-size="10.00">$syncChunkLoadTileEntities</text>
<text text-anchor="start" x="197" y="-1620.5" font-family="Helvetica,sans-Serif" font-size="10.00">+</text>
<text text-anchor="start" x="210" y="-1620.5" font-family="Helvetica,sans-Serif" font-size="10.00">$syncChunkSave</text>
<text text-anchor="start" x="197" y="-1605.5" font-family="Helvetica,sans-Serif" font-size="10.00">+</text>
<text text-anchor="start" x="210" y="-1605.5" font-family="Helvetica,sans-Serif" font-size="10.00">$syncChunkSend</text>
<text text-anchor="start" x="197" y="-1590.5" font-family="Helvetica,sans-Serif" font-size="10.00">+</text>
<text text-anchor="start" x="210" y="-1590.5" font-family="Helvetica,sans-Serif" font-size="10.00">$syncChunkSendPrepare</text>
<text text-anchor="start" x="197" y="-1575.5" font-family="Helvetica,sans-Serif" font-size="10.00">+</text>
<text text-anchor="start" x="210" y="-1575.5" font-family="Helvetica,sans-Serif" font-size="10.00">$syncDataSave</text>
<text text-anchor="start" x="197" y="-1560.5" font-family="Helvetica,sans-Serif" font-size="10.00">+</text>
<text text-anchor="start" x="210" y="-1560.5" font-family="Helvetica,sans-Serif" font-size="10.00">$tileTick</text>
<text text-anchor="start" x="197" y="-1545.5" font-family="Helvetica,sans-Serif" font-size="10.00">+</text>
<text text-anchor="start" x="210" y="-1545.5" font-family="Helvetica,sans-Serif" font-size="10.00">__construct()</text>
<polygon fill="#bfbfbf" stroke="#bfbfbf" points="193,-1772.5 193,-1772.5 360,-1772.5 360,-1772.5 193,-1772.5"/>
<polygon fill="#bfbfbf" stroke="#bfbfbf" points="193,-1555.5 193,-1555.5 208,-1555.5 208,-1555.5 193,-1555.5"/>
<polygon fill="#bfbfbf" stroke="#bfbfbf" points="208,-1555.5 208,-1555.5 360,-1555.5 360,-1555.5 208,-1555.5"/>
<polygon fill="none" stroke="#bfbfbf" points="192.5,-1539 192.5,-1790 359.5,-1790 359.5,-1539 192.5,-1539"/>
</a>
</g>
</g>
<!-- Node8&#45;&gt;Node6 -->
<g id="edge7_Node000006_Node000008" class="edge">
<title>Node8&#45;&gt;Node6</title>
<g id="a_edge7_Node000006_Node000008"><a xlink:title=" ">
<path fill="none" stroke="#63b8ff" d="M276,-1538.75C276,-1527.6 276,-1516.08 276,-1504.35"/>
<polygon fill="none" stroke="#63b8ff" points="276,-1504.07 272,-1498.07 276,-1492.07 280,-1498.07 276,-1504.07"/>
</a>
</g>
<text text-anchor="middle" x="303.5" y="-1513" font-family="Helvetica,sans-Serif" font-size="10.00" fill="grey"> +$timings</text>
</g>
<!-- Node9 -->
<g id="Node000009" class="node">
<title>Node9</title>
<g id="a_Node000009"><a xlink:href="../../d7/d9b/classpocketmine_1_1timings_1_1_timings_handler.html" target="_top" xlink:title=" ">
<polygon fill="white" stroke="transparent" points="417,-2247 257,-2247 257,-1947 417,-1947 417,-2247"/>
<text text-anchor="start" x="288.5" y="-2235" font-family="Helvetica,sans-Serif" font-size="10.00">pocketmine\timings</text>
<text text-anchor="start" x="296.5" y="-2224" font-family="Helvetica,sans-Serif" font-size="10.00">\TimingsHandler</text>
<text text-anchor="start" x="335" y="-2209" font-family="Helvetica,sans-Serif" font-size="10.00"> </text>
<text text-anchor="start" x="261" y="-2194" font-family="Helvetica,sans-Serif" font-size="10.00">+</text>
<text text-anchor="start" x="274" y="-2194" font-family="Helvetica,sans-Serif" font-size="10.00">__construct()</text>
<text text-anchor="start" x="261" y="-2179" font-family="Helvetica,sans-Serif" font-size="10.00">+</text>
<text text-anchor="start" x="274" y="-2179" font-family="Helvetica,sans-Serif" font-size="10.00">getGroup()</text>
<text text-anchor="start" x="261" y="-2164" font-family="Helvetica,sans-Serif" font-size="10.00">+</text>
<text text-anchor="start" x="274" y="-2164" font-family="Helvetica,sans-Serif" font-size="10.00">getName()</text>
<text text-anchor="start" x="261" y="-2149" font-family="Helvetica,sans-Serif" font-size="10.00">+</text>
<text text-anchor="start" x="274" y="-2149" font-family="Helvetica,sans-Serif" font-size="10.00">reset()</text>
<text text-anchor="start" x="261" y="-2134" font-family="Helvetica,sans-Serif" font-size="10.00">+</text>
<text text-anchor="start" x="274" y="-2134" font-family="Helvetica,sans-Serif" font-size="10.00">startTiming()</text>
<text text-anchor="start" x="261" y="-2119" font-family="Helvetica,sans-Serif" font-size="10.00">+</text>
<text text-anchor="start" x="274" y="-2119" font-family="Helvetica,sans-Serif" font-size="10.00">stopTiming()</text>
<text text-anchor="start" x="261" y="-2104" font-family="Helvetica,sans-Serif" font-size="10.00">+</text>
<text text-anchor="start" x="274" y="-2104" font-family="Helvetica,sans-Serif" font-size="10.00">time()</text>
<text text-anchor="start" x="261" y="-2089" font-family="Helvetica,sans-Serif" font-size="10.00">+</text>
<text text-anchor="start" x="274" y="-2089" font-family="Helvetica,sans-Serif" font-size="10.00">getCollectCallbacks()</text>
<text text-anchor="start" x="261" y="-2074" font-family="Helvetica,sans-Serif" font-size="10.00">+</text>
<text text-anchor="start" x="274" y="-2074" font-family="Helvetica,sans-Serif" font-size="10.00">getReloadCallbacks()</text>
<text text-anchor="start" x="261" y="-2059" font-family="Helvetica,sans-Serif" font-size="10.00">+</text>
<text text-anchor="start" x="274" y="-2059" font-family="Helvetica,sans-Serif" font-size="10.00">getStartTime()</text>
<text text-anchor="start" x="261" y="-2044" font-family="Helvetica,sans-Serif" font-size="10.00">+</text>
<text text-anchor="start" x="274" y="-2044" font-family="Helvetica,sans-Serif" font-size="10.00">getToggleCallbacks()</text>
<text text-anchor="start" x="261" y="-2029" font-family="Helvetica,sans-Serif" font-size="10.00">+</text>
<text text-anchor="start" x="274" y="-2029" font-family="Helvetica,sans-Serif" font-size="10.00">isEnabled()</text>
<text text-anchor="start" x="261" y="-2014" font-family="Helvetica,sans-Serif" font-size="10.00">+</text>
<text text-anchor="start" x="274" y="-2014" font-family="Helvetica,sans-Serif" font-size="10.00">printCurrentThreadRecords()</text>
<text text-anchor="start" x="261" y="-1999" font-family="Helvetica,sans-Serif" font-size="10.00">+</text>
<text text-anchor="start" x="274" y="-1999" font-family="Helvetica,sans-Serif" font-size="10.00">reload()</text>
<text text-anchor="start" x="261" y="-1984" font-family="Helvetica,sans-Serif" font-size="10.00">+</text>
<text text-anchor="start" x="274" y="-1984" font-family="Helvetica,sans-Serif" font-size="10.00">requestPrintTimings()</text>
<text text-anchor="start" x="261" y="-1969" font-family="Helvetica,sans-Serif" font-size="10.00">+</text>
<text text-anchor="start" x="274" y="-1969" font-family="Helvetica,sans-Serif" font-size="10.00">setEnabled()</text>
<text text-anchor="start" x="261" y="-1954" font-family="Helvetica,sans-Serif" font-size="10.00">+</text>
<text text-anchor="start" x="274" y="-1954" font-family="Helvetica,sans-Serif" font-size="10.00">tick()</text>
<polygon fill="#666666" stroke="#666666" points="257,-2219 257,-2219 417,-2219 417,-2219 257,-2219"/>
<polygon fill="#666666" stroke="#666666" points="257,-2204 257,-2204 417,-2204 417,-2204 257,-2204"/>
<polygon fill="none" stroke="#666666" points="257,-1947 257,-2247 417,-2247 417,-1947 257,-1947"/>
</a>
</g>
</g>
<!-- Node9&#45;&gt;Node3 -->
<g id="edge9_Node000003_Node000009" class="edge">
<title>Node9&#45;&gt;Node3</title>
<g id="a_edge9_Node000003_Node000009"><a xlink:title=" ">
<path fill="none" stroke="#63b8ff" d="M403.41,-1946.62C405.11,-1940.72 406.65,-1934.83 408,-1929 434.46,-1814.75 422,-1782.78 422,-1665.5 422,-1665.5 422,-1665.5 422,-902 422,-865.08 414.5,-826.59 403.96,-790.71"/>
<polygon fill="none" stroke="#63b8ff" points="403.94,-790.64 398.37,-786.06 400.44,-779.16 406.02,-783.73 403.94,-790.64"/>
</a>
</g>
<text text-anchor="middle" x="449.5" y="-1257" font-family="Helvetica,sans-Serif" font-size="10.00" fill="grey"> #$timings</text>
</g>
<!-- Node9&#45;&gt;Node8 -->
<g id="edge8_Node000008_Node000009" class="edge">
<title>Node9&#45;&gt;Node8</title>
<g id="a_edge8_Node000008_Node000009"><a xlink:title=" ">
<path fill="none" stroke="#63b8ff" d="M257.83,-1946.57C256.01,-1940.71 254.39,-1934.84 253,-1929 243.35,-1888.33 243.47,-1843.28 247.63,-1802.09"/>
<polygon fill="none" stroke="#63b8ff" points="247.65,-1801.94 244.33,-1795.54 248.97,-1790.02 252.29,-1796.42 247.65,-1801.94"/>
</a>
</g>
<text text-anchor="middle" x="330.5" y="-1921" font-family="Helvetica,sans-Serif" font-size="10.00" fill="grey"> +$chunkPopulationCompletion</text>
<text text-anchor="middle" x="330.5" y="-1910" font-family="Helvetica,sans-Serif" font-size="10.00" fill="grey">+$chunkPopulationOrder</text>
<text text-anchor="middle" x="330.5" y="-1899" font-family="Helvetica,sans-Serif" font-size="10.00" fill="grey">+$doBlockLightUpdates</text>
<text text-anchor="middle" x="330.5" y="-1888" font-family="Helvetica,sans-Serif" font-size="10.00" fill="grey">+$doBlockSkyLightUpdates</text>
<text text-anchor="middle" x="330.5" y="-1877" font-family="Helvetica,sans-Serif" font-size="10.00" fill="grey">+$doChunkGC</text>
<text text-anchor="middle" x="330.5" y="-1866" font-family="Helvetica,sans-Serif" font-size="10.00" fill="grey">+$doChunkUnload</text>
<text text-anchor="middle" x="330.5" y="-1855" font-family="Helvetica,sans-Serif" font-size="10.00" fill="grey">+$doTick</text>
<text text-anchor="middle" x="330.5" y="-1844" font-family="Helvetica,sans-Serif" font-size="10.00" fill="grey">+$entityTick</text>
<text text-anchor="middle" x="330.5" y="-1833" font-family="Helvetica,sans-Serif" font-size="10.00" fill="grey">+$neighbourBlockUpdates</text>
<text text-anchor="middle" x="330.5" y="-1822" font-family="Helvetica,sans-Serif" font-size="10.00" fill="grey">+$randomChunkUpdates</text>
<text text-anchor="middle" x="330.5" y="-1811" font-family="Helvetica,sans-Serif" font-size="10.00" fill="grey">...</text>
</g>
</g>
</svg>
