<?xml version="1.0" encoding="UTF-8" standalone="no"?>
<!DOCTYPE svg PUBLIC "-//W3C//DTD SVG 1.1//EN"
 "http://www.w3.org/Graphics/SVG/1.1/DTD/svg11.dtd">
<!-- Generated by graphviz version 2.43.0 (0)
 -->
<!-- Title: pocketmine\block\utils\AnalogRedstoneSignalEmitter Pages: 1 -->
<svg width="684pt" height="284pt"
 viewBox="0.00 0.00 684.00 284.00" xmlns="http://www.w3.org/2000/svg" xmlns:xlink="http://www.w3.org/1999/xlink">
<g id="graph0" class="graph" transform="scale(1 1) rotate(0) translate(4 280)">
<title>pocketmine\block\utils\AnalogRedstoneSignalEmitter</title>
<!-- Node1 -->
<g id="Node000001" class="node">
<title>Node1</title>
<g id="a_Node000001"><a xlink:title=" ">
<polygon fill="#999999" stroke="transparent" points="417.5,-276 258.5,-276 258.5,-201 417.5,-201 417.5,-276"/>
<text text-anchor="start" x="264" y="-263.5" font-family="Helvetica,sans-Serif" font-size="10.00">pocketmine\block\utils</text>
<text text-anchor="start" x="264" y="-252.5" font-family="Helvetica,sans-Serif" font-size="10.00">\AnalogRedstoneSignalEmitter</text>
<text text-anchor="start" x="336.5" y="-237.5" font-family="Helvetica,sans-Serif" font-size="10.00"> </text>
<text text-anchor="start" x="265.5" y="-222.5" font-family="Helvetica,sans-Serif" font-size="10.00">+</text>
<text text-anchor="start" x="281" y="-222.5" font-family="Helvetica,sans-Serif" font-size="10.00">getOutputSignalStrength()</text>
<text text-anchor="start" x="265.5" y="-207.5" font-family="Helvetica,sans-Serif" font-size="10.00">+</text>
<text text-anchor="start" x="281" y="-207.5" font-family="Helvetica,sans-Serif" font-size="10.00">setOutputSignalStrength()</text>
<polygon fill="#666666" stroke="#666666" points="259,-247.5 259,-247.5 418,-247.5 418,-247.5 259,-247.5"/>
<polygon fill="#666666" stroke="#666666" points="259,-232.5 259,-232.5 418,-232.5 418,-232.5 259,-232.5"/>
<polygon fill="none" stroke="#666666" points="258.5,-201 258.5,-276 417.5,-276 417.5,-201 258.5,-201"/>
</a>
</g>
</g>
<!-- Node2 -->
<g id="Node000002" class="node">
<title>Node2</title>
<g id="a_Node000002"><a xlink:href="../../d1/d6d/classpocketmine_1_1block_1_1_daylight_sensor.html" target="_top" xlink:title=" ">
<polygon fill="white" stroke="transparent" points="154,-165 0,-165 0,0 154,0 154,-165"/>
<text text-anchor="start" x="11.5" y="-152.5" font-family="Helvetica,sans-Serif" font-size="10.00">pocketmine\block\Daylight</text>
<text text-anchor="start" x="60" y="-141.5" font-family="Helvetica,sans-Serif" font-size="10.00">Sensor</text>
<text text-anchor="start" x="4" y="-126.5" font-family="Helvetica,sans-Serif" font-size="10.00">#</text>
<text text-anchor="start" x="17" y="-126.5" font-family="Helvetica,sans-Serif" font-size="10.00">$inverted</text>
<text text-anchor="start" x="4" y="-111.5" font-family="Helvetica,sans-Serif" font-size="10.00">+</text>
<text text-anchor="start" x="17" y="-111.5" font-family="Helvetica,sans-Serif" font-size="10.00">getFuelTime()</text>
<text text-anchor="start" x="4" y="-96.5" font-family="Helvetica,sans-Serif" font-size="10.00">+</text>
<text text-anchor="start" x="17" y="-96.5" font-family="Helvetica,sans-Serif" font-size="10.00">getSupportType()</text>
<text text-anchor="start" x="4" y="-81.5" font-family="Helvetica,sans-Serif" font-size="10.00">+</text>
<text text-anchor="start" x="17" y="-81.5" font-family="Helvetica,sans-Serif" font-size="10.00">isInverted()</text>
<text text-anchor="start" x="4" y="-66.5" font-family="Helvetica,sans-Serif" font-size="10.00">+</text>
<text text-anchor="start" x="17" y="-66.5" font-family="Helvetica,sans-Serif" font-size="10.00">onInteract()</text>
<text text-anchor="start" x="4" y="-51.5" font-family="Helvetica,sans-Serif" font-size="10.00">+</text>
<text text-anchor="start" x="17" y="-51.5" font-family="Helvetica,sans-Serif" font-size="10.00">onScheduledUpdate()</text>
<text text-anchor="start" x="4" y="-36.5" font-family="Helvetica,sans-Serif" font-size="10.00">+</text>
<text text-anchor="start" x="17" y="-36.5" font-family="Helvetica,sans-Serif" font-size="10.00">setInverted()</text>
<text text-anchor="start" x="4" y="-21.5" font-family="Helvetica,sans-Serif" font-size="10.00">#</text>
<text text-anchor="start" x="17" y="-21.5" font-family="Helvetica,sans-Serif" font-size="10.00">describeBlockOnlyState()</text>
<text text-anchor="start" x="4" y="-6.5" font-family="Helvetica,sans-Serif" font-size="10.00">#</text>
<text text-anchor="start" x="17" y="-6.5" font-family="Helvetica,sans-Serif" font-size="10.00">recalculateCollisionBoxes()</text>
<polygon fill="#bfbfbf" stroke="#bfbfbf" points="0,-136.5 0,-136.5 154,-136.5 154,-136.5 0,-136.5"/>
<polygon fill="#bfbfbf" stroke="#bfbfbf" points="0,-121.5 0,-121.5 15,-121.5 15,-121.5 0,-121.5"/>
<polygon fill="#bfbfbf" stroke="#bfbfbf" points="15,-121.5 15,-121.5 154,-121.5 154,-121.5 15,-121.5"/>
<polygon fill="none" stroke="#bfbfbf" points="0,0 0,-165 154,-165 154,0 0,0"/>
</a>
</g>
</g>
<!-- Node1&#45;&gt;Node2 -->
<g id="edge1_Node000001_Node000002" class="edge">
<title>Node1&#45;&gt;Node2</title>
<g id="a_edge1_Node000001_Node000002"><a xlink:title=" ">
<path fill="none" stroke="#63b8ff" d="M248.72,-207.81C220.21,-196.45 189.27,-182.05 163,-165 160.07,-163.1 157.14,-161.09 154.24,-158.99"/>
<polygon fill="none" stroke="#63b8ff" points="247.69,-211.16 258.28,-211.54 250.24,-204.64 247.69,-211.16"/>
</a>
</g>
</g>
<!-- Node3 -->
<g id="Node000003" class="node">
<title>Node3</title>
<g id="a_Node000003"><a xlink:href="../../dc/dc1/classpocketmine_1_1block_1_1_redstone_comparator.html" target="_top" xlink:title=" ">
<polygon fill="white" stroke="transparent" points="326,-157.5 172,-157.5 172,-7.5 326,-7.5 326,-157.5"/>
<text text-anchor="start" x="181" y="-145.5" font-family="Helvetica,sans-Serif" font-size="10.00">pocketmine\block\Redstone</text>
<text text-anchor="start" x="220" y="-134.5" font-family="Helvetica,sans-Serif" font-size="10.00">Comparator</text>
<text text-anchor="start" x="176" y="-119.5" font-family="Helvetica,sans-Serif" font-size="10.00">#</text>
<text text-anchor="start" x="189" y="-119.5" font-family="Helvetica,sans-Serif" font-size="10.00">$isSubtractMode</text>
<text text-anchor="start" x="176" y="-104.5" font-family="Helvetica,sans-Serif" font-size="10.00">+</text>
<text text-anchor="start" x="189" y="-104.5" font-family="Helvetica,sans-Serif" font-size="10.00">isSubtractMode()</text>
<text text-anchor="start" x="176" y="-89.5" font-family="Helvetica,sans-Serif" font-size="10.00">+</text>
<text text-anchor="start" x="189" y="-89.5" font-family="Helvetica,sans-Serif" font-size="10.00">onInteract()</text>
<text text-anchor="start" x="176" y="-74.5" font-family="Helvetica,sans-Serif" font-size="10.00">+</text>
<text text-anchor="start" x="189" y="-74.5" font-family="Helvetica,sans-Serif" font-size="10.00">readStateFromWorld()</text>
<text text-anchor="start" x="176" y="-59.5" font-family="Helvetica,sans-Serif" font-size="10.00">+</text>
<text text-anchor="start" x="189" y="-59.5" font-family="Helvetica,sans-Serif" font-size="10.00">setSubtractMode()</text>
<text text-anchor="start" x="176" y="-44.5" font-family="Helvetica,sans-Serif" font-size="10.00">+</text>
<text text-anchor="start" x="189" y="-44.5" font-family="Helvetica,sans-Serif" font-size="10.00">writeStateToWorld()</text>
<text text-anchor="start" x="176" y="-29.5" font-family="Helvetica,sans-Serif" font-size="10.00">#</text>
<text text-anchor="start" x="189" y="-29.5" font-family="Helvetica,sans-Serif" font-size="10.00">describeBlockOnlyState()</text>
<text text-anchor="start" x="176" y="-14.5" font-family="Helvetica,sans-Serif" font-size="10.00">#</text>
<text text-anchor="start" x="189" y="-14.5" font-family="Helvetica,sans-Serif" font-size="10.00">recalculateCollisionBoxes()</text>
<polygon fill="#bfbfbf" stroke="#bfbfbf" points="172,-129.5 172,-129.5 326,-129.5 326,-129.5 172,-129.5"/>
<polygon fill="#bfbfbf" stroke="#bfbfbf" points="172,-114.5 172,-114.5 187,-114.5 187,-114.5 172,-114.5"/>
<polygon fill="#bfbfbf" stroke="#bfbfbf" points="187,-114.5 187,-114.5 326,-114.5 326,-114.5 187,-114.5"/>
<polygon fill="none" stroke="#bfbfbf" points="172,-7.5 172,-157.5 326,-157.5 326,-7.5 172,-7.5"/>
</a>
</g>
</g>
<!-- Node1&#45;&gt;Node3 -->
<g id="edge2_Node000001_Node000003" class="edge">
<title>Node1&#45;&gt;Node3</title>
<g id="a_edge2_Node000001_Node000003"><a xlink:title=" ">
<path fill="none" stroke="#63b8ff" d="M311.59,-191.81C305.36,-181.02 298.55,-169.24 291.8,-157.56"/>
<polygon fill="none" stroke="#63b8ff" points="308.65,-193.71 316.68,-200.61 314.71,-190.2 308.65,-193.71"/>
</a>
</g>
</g>
<!-- Node4 -->
<g id="Node000004" class="node">
<title>Node4</title>
<g id="a_Node000004"><a xlink:href="../../d4/dae/classpocketmine_1_1block_1_1_redstone_wire.html" target="_top" xlink:title=" ">
<polygon fill="white" stroke="transparent" points="512,-114.5 344,-114.5 344,-50.5 512,-50.5 512,-114.5"/>
<text text-anchor="start" x="349" y="-102.5" font-family="Helvetica,sans-Serif" font-size="10.00">pocketmine\block\RedstoneWire</text>
<text text-anchor="start" x="426" y="-87.5" font-family="Helvetica,sans-Serif" font-size="10.00"> </text>
<text text-anchor="start" x="357.5" y="-72.5" font-family="Helvetica,sans-Serif" font-size="10.00">+</text>
<text text-anchor="start" x="380" y="-72.5" font-family="Helvetica,sans-Serif" font-size="10.00">asItem()</text>
<text text-anchor="start" x="357.5" y="-57.5" font-family="Helvetica,sans-Serif" font-size="10.00">+</text>
<text text-anchor="start" x="380" y="-57.5" font-family="Helvetica,sans-Serif" font-size="10.00">readStateFromWorld()</text>
<polygon fill="#bfbfbf" stroke="#bfbfbf" points="344,-97.5 344,-97.5 512,-97.5 512,-97.5 344,-97.5"/>
<polygon fill="#bfbfbf" stroke="#bfbfbf" points="344,-82.5 344,-82.5 512,-82.5 512,-82.5 344,-82.5"/>
<polygon fill="none" stroke="#bfbfbf" points="344,-50.5 344,-114.5 512,-114.5 512,-50.5 344,-50.5"/>
</a>
</g>
</g>
<!-- Node1&#45;&gt;Node4 -->
<g id="edge3_Node000001_Node000004" class="edge">
<title>Node1&#45;&gt;Node4</title>
<g id="a_edge3_Node000001_Node000004"><a xlink:title=" ">
<path fill="none" stroke="#63b8ff" d="M364.76,-191.71C379.29,-166.85 396.87,-136.77 409.81,-114.63"/>
<polygon fill="none" stroke="#63b8ff" points="361.58,-190.21 359.56,-200.61 367.62,-193.75 361.58,-190.21"/>
</a>
</g>
</g>
<!-- Node5 -->
<g id="Node000005" class="node">
<title>Node5</title>
<g id="a_Node000005"><a xlink:href="../../d6/dc1/classpocketmine_1_1block_1_1_weighted_pressure_plate.html" target="_top" xlink:title=" ">
<polygon fill="white" stroke="transparent" points="676,-127.5 530,-127.5 530,-37.5 676,-37.5 676,-127.5"/>
<text text-anchor="start" x="535" y="-115.5" font-family="Helvetica,sans-Serif" font-size="10.00">pocketmine\block\Weighted</text>
<text text-anchor="start" x="569.5" y="-104.5" font-family="Helvetica,sans-Serif" font-size="10.00">PressurePlate</text>
<text text-anchor="start" x="601" y="-89.5" font-family="Helvetica,sans-Serif" font-size="10.00"> </text>
<text text-anchor="start" x="539.5" y="-74.5" font-family="Helvetica,sans-Serif" font-size="10.00">+</text>
<text text-anchor="start" x="558" y="-74.5" font-family="Helvetica,sans-Serif" font-size="10.00">__construct()</text>
<text text-anchor="start" x="539.5" y="-59.5" font-family="Helvetica,sans-Serif" font-size="10.00">#</text>
<text text-anchor="start" x="558" y="-59.5" font-family="Helvetica,sans-Serif" font-size="10.00">calculatePlateState()</text>
<text text-anchor="start" x="539.5" y="-44.5" font-family="Helvetica,sans-Serif" font-size="10.00">#</text>
<text text-anchor="start" x="558" y="-44.5" font-family="Helvetica,sans-Serif" font-size="10.00">hasOutputSignal()</text>
<polygon fill="#bfbfbf" stroke="#bfbfbf" points="530,-99.5 530,-99.5 676,-99.5 676,-99.5 530,-99.5"/>
<polygon fill="#bfbfbf" stroke="#bfbfbf" points="530,-84.5 530,-84.5 676,-84.5 676,-84.5 530,-84.5"/>
<polygon fill="none" stroke="#bfbfbf" points="530,-37.5 530,-127.5 676,-127.5 676,-37.5 530,-37.5"/>
</a>
</g>
</g>
<!-- Node1&#45;&gt;Node5 -->
<g id="edge4_Node000001_Node000005" class="edge">
<title>Node1&#45;&gt;Node5</title>
<g id="a_edge4_Node000001_Node000005"><a xlink:title=" ">
<path fill="none" stroke="#63b8ff" d="M427.07,-210.45C458.14,-198.92 492.37,-183.75 521,-165 536.78,-154.66 552.03,-140.93 565.01,-127.69"/>
<polygon fill="none" stroke="#63b8ff" points="425.74,-207.21 417.53,-213.91 428.13,-213.79 425.74,-207.21"/>
</a>
</g>
</g>
</g>
</svg>
