<?xml version="1.0" encoding="UTF-8" standalone="no"?>
<!DOCTYPE svg PUBLIC "-//W3C//DTD SVG 1.1//EN"
 "http://www.w3.org/Graphics/SVG/1.1/DTD/svg11.dtd">
<!-- Generated by graphviz version 2.43.0 (0)
 -->
<!-- Title: pocketmine\scheduler\AsyncTask Pages: 1 -->
<svg width="2199pt" height="496pt"
 viewBox="0.00 0.00 2199.00 496.00" xmlns="http://www.w3.org/2000/svg" xmlns:xlink="http://www.w3.org/1999/xlink">
<g id="graph0" class="graph" transform="scale(1 1) rotate(0) translate(4 492)">
<title>pocketmine\scheduler\AsyncTask</title>
<polygon fill="white" stroke="transparent" points="-4,4 -4,-492 2195,-492 2195,4 -4,4"/>
<!-- Node1 -->
<g id="node1" class="node">
<title>Node1</title>
<g id="a_node1"><a xlink:title=" ">
<polygon fill="#bfbfbf" stroke="black" points="1060,-160.5 1060,-393.5 1206,-393.5 1206,-160.5 1060,-160.5"/>
<text text-anchor="start" x="1068" y="-381.5" font-family="Helvetica,sans-Serif" font-size="10.00">pocketmine\scheduler</text>
<text text-anchor="middle" x="1133" y="-370.5" font-family="Helvetica,sans-Serif" font-size="10.00">\AsyncTask</text>
<polyline fill="none" stroke="black" points="1060,-363.5 1206,-363.5 "/>
<text text-anchor="middle" x="1133" y="-351.5" font-family="Helvetica,sans-Serif" font-size="10.00"> </text>
<polyline fill="none" stroke="black" points="1060,-344.5 1206,-344.5 "/>
<text text-anchor="start" x="1068" y="-332.5" font-family="Helvetica,sans-Serif" font-size="10.00">+ __destruct()</text>
<text text-anchor="start" x="1068" y="-321.5" font-family="Helvetica,sans-Serif" font-size="10.00">+ checkProgressUpdates()</text>
<text text-anchor="start" x="1068" y="-310.5" font-family="Helvetica,sans-Serif" font-size="10.00">+ getResult()</text>
<text text-anchor="start" x="1068" y="-299.5" font-family="Helvetica,sans-Serif" font-size="10.00">+ hasResult()</text>
<text text-anchor="start" x="1068" y="-288.5" font-family="Helvetica,sans-Serif" font-size="10.00">+ isFinished()</text>
<text text-anchor="start" x="1068" y="-277.5" font-family="Helvetica,sans-Serif" font-size="10.00">+ isSubmitted()</text>
<text text-anchor="start" x="1068" y="-266.5" font-family="Helvetica,sans-Serif" font-size="10.00">+ onCompletion()</text>
<text text-anchor="start" x="1068" y="-255.5" font-family="Helvetica,sans-Serif" font-size="10.00">+ onProgressUpdate()</text>
<text text-anchor="start" x="1068" y="-244.5" font-family="Helvetica,sans-Serif" font-size="10.00">+ onRun()</text>
<text text-anchor="start" x="1068" y="-233.5" font-family="Helvetica,sans-Serif" font-size="10.00">+ publishProgress()</text>
<text text-anchor="start" x="1068" y="-222.5" font-family="Helvetica,sans-Serif" font-size="10.00">+ run()</text>
<text text-anchor="start" x="1068" y="-211.5" font-family="Helvetica,sans-Serif" font-size="10.00">+ setResult()</text>
<text text-anchor="start" x="1068" y="-200.5" font-family="Helvetica,sans-Serif" font-size="10.00">+ setSubmitted()</text>
<text text-anchor="start" x="1068" y="-189.5" font-family="Helvetica,sans-Serif" font-size="10.00"># fetchLocal()</text>
<text text-anchor="start" x="1068" y="-178.5" font-family="Helvetica,sans-Serif" font-size="10.00"># reallyDestruct()</text>
<text text-anchor="start" x="1068" y="-167.5" font-family="Helvetica,sans-Serif" font-size="10.00"># storeLocal()</text>
</a>
</g>
</g>
<!-- Node3 -->
<g id="node3" class="node">
<title>Node3</title>
<g id="a_node3"><a xlink:href="../../d2/d46/classpocketmine_1_1network_1_1mcpe_1_1_chunk_request_task.html" target="_top" xlink:title=" ">
<polygon fill="white" stroke="#bfbfbf" points="0,-0.5 0,-123.5 142,-123.5 142,-0.5 0,-0.5"/>
<text text-anchor="start" x="8" y="-111.5" font-family="Helvetica,sans-Serif" font-size="10.00">pocketmine\network</text>
<text text-anchor="middle" x="71" y="-100.5" font-family="Helvetica,sans-Serif" font-size="10.00">\mcpe\ChunkRequestTask</text>
<polyline fill="none" stroke="#bfbfbf" points="0,-93.5 142,-93.5 "/>
<text text-anchor="start" x="8" y="-81.5" font-family="Helvetica,sans-Serif" font-size="10.00"># $chunk</text>
<text text-anchor="start" x="8" y="-70.5" font-family="Helvetica,sans-Serif" font-size="10.00"># $chunkX</text>
<text text-anchor="start" x="8" y="-59.5" font-family="Helvetica,sans-Serif" font-size="10.00"># $chunkZ</text>
<text text-anchor="start" x="8" y="-48.5" font-family="Helvetica,sans-Serif" font-size="10.00"># $compressor</text>
<polyline fill="none" stroke="#bfbfbf" points="0,-41.5 142,-41.5 "/>
<text text-anchor="start" x="8" y="-29.5" font-family="Helvetica,sans-Serif" font-size="10.00">+ __construct()</text>
<text text-anchor="start" x="8" y="-18.5" font-family="Helvetica,sans-Serif" font-size="10.00">+ onCompletion()</text>
<text text-anchor="start" x="8" y="-7.5" font-family="Helvetica,sans-Serif" font-size="10.00">+ onRun()</text>
</a>
</g>
</g>
<!-- Node1&#45;&gt;Node3 -->
<g id="edge2" class="edge">
<title>Node1&#45;&gt;Node3</title>
<path fill="none" stroke="midnightblue" d="M1049.61,-276.71C875.42,-275.32 463.23,-256.93 151,-124 148.11,-122.77 145.23,-121.41 142.37,-119.94"/>
<polygon fill="none" stroke="midnightblue" points="1049.71,-280.21 1059.74,-276.77 1049.76,-273.21 1049.71,-280.21"/>
</g>
<!-- Node4 -->
<g id="node4" class="node">
<title>Node4</title>
<g id="a_node4"><a xlink:href="../../df/df7/classpocketmine_1_1network_1_1mcpe_1_1auth_1_1_process_login_task.html" target="_top" xlink:title=" ">
<polygon fill="white" stroke="#bfbfbf" points="160.5,-17 160.5,-107 327.5,-107 327.5,-17 160.5,-17"/>
<text text-anchor="start" x="168.5" y="-95" font-family="Helvetica,sans-Serif" font-size="10.00">pocketmine\network</text>
<text text-anchor="middle" x="244" y="-84" font-family="Helvetica,sans-Serif" font-size="10.00">\mcpe\auth\ProcessLoginTask</text>
<polyline fill="none" stroke="#bfbfbf" points="160.5,-77 327.5,-77 "/>
<text text-anchor="start" x="168.5" y="-65" font-family="Helvetica,sans-Serif" font-size="10.00">+ MOJANG_ROOT_PUBLIC_KEY</text>
<polyline fill="none" stroke="#bfbfbf" points="160.5,-58 327.5,-58 "/>
<text text-anchor="start" x="168.5" y="-46" font-family="Helvetica,sans-Serif" font-size="10.00">+ __construct()</text>
<text text-anchor="start" x="168.5" y="-35" font-family="Helvetica,sans-Serif" font-size="10.00">+ onCompletion()</text>
<text text-anchor="start" x="168.5" y="-24" font-family="Helvetica,sans-Serif" font-size="10.00">+ onRun()</text>
</a>
</g>
</g>
<!-- Node1&#45;&gt;Node4 -->
<g id="edge3" class="edge">
<title>Node1&#45;&gt;Node4</title>
<path fill="none" stroke="midnightblue" d="M1049.4,-270.78C900.99,-259.19 583.91,-223.94 337,-124 325.81,-119.47 314.55,-113.52 303.9,-107.11"/>
<polygon fill="none" stroke="midnightblue" points="1049.55,-274.3 1059.79,-271.57 1050.09,-267.32 1049.55,-274.3"/>
</g>
<!-- Node5 -->
<g id="node5" class="node">
<title>Node5</title>
<g id="a_node5"><a xlink:href="../../d6/dda/classpocketmine_1_1network_1_1mcpe_1_1compression_1_1_compress_batch_task.html" target="_top" xlink:title=" ">
<polygon fill="white" stroke="#bfbfbf" points="346,-11.5 346,-112.5 510,-112.5 510,-11.5 346,-11.5"/>
<text text-anchor="start" x="354" y="-100.5" font-family="Helvetica,sans-Serif" font-size="10.00">pocketmine\network</text>
<text text-anchor="start" x="354" y="-89.5" font-family="Helvetica,sans-Serif" font-size="10.00">\mcpe\compression\Compress</text>
<text text-anchor="middle" x="428" y="-78.5" font-family="Helvetica,sans-Serif" font-size="10.00">BatchTask</text>
<polyline fill="none" stroke="#bfbfbf" points="346,-71.5 510,-71.5 "/>
<text text-anchor="middle" x="428" y="-59.5" font-family="Helvetica,sans-Serif" font-size="10.00"> </text>
<polyline fill="none" stroke="#bfbfbf" points="346,-52.5 510,-52.5 "/>
<text text-anchor="start" x="354" y="-40.5" font-family="Helvetica,sans-Serif" font-size="10.00">+ __construct()</text>
<text text-anchor="start" x="354" y="-29.5" font-family="Helvetica,sans-Serif" font-size="10.00">+ onCompletion()</text>
<text text-anchor="start" x="354" y="-18.5" font-family="Helvetica,sans-Serif" font-size="10.00">+ onRun()</text>
</a>
</g>
</g>
<!-- Node1&#45;&gt;Node5 -->
<g id="edge4" class="edge">
<title>Node1&#45;&gt;Node5</title>
<path fill="none" stroke="midnightblue" d="M1049.97,-264.82C929.11,-246.5 699.46,-203.85 519,-124 511.52,-120.69 503.99,-116.77 496.63,-112.54"/>
<polygon fill="none" stroke="midnightblue" points="1049.5,-268.29 1059.9,-266.31 1050.53,-261.37 1049.5,-268.29"/>
</g>
<!-- Node6 -->
<g id="node6" class="node">
<title>Node6</title>
<g id="a_node6"><a xlink:href="../../d7/d18/classpocketmine_1_1network_1_1mcpe_1_1encryption_1_1_prepare_encryption_task.html" target="_top" xlink:title=" ">
<polygon fill="white" stroke="#bfbfbf" points="528.5,-17 528.5,-107 743.5,-107 743.5,-17 528.5,-17"/>
<text text-anchor="start" x="536.5" y="-95" font-family="Helvetica,sans-Serif" font-size="10.00">pocketmine\network</text>
<text text-anchor="middle" x="636" y="-84" font-family="Helvetica,sans-Serif" font-size="10.00">\mcpe\encryption\PrepareEncryptionTask</text>
<polyline fill="none" stroke="#bfbfbf" points="528.5,-77 743.5,-77 "/>
<text text-anchor="middle" x="636" y="-65" font-family="Helvetica,sans-Serif" font-size="10.00"> </text>
<polyline fill="none" stroke="#bfbfbf" points="528.5,-58 743.5,-58 "/>
<text text-anchor="start" x="536.5" y="-46" font-family="Helvetica,sans-Serif" font-size="10.00">+ __construct()</text>
<text text-anchor="start" x="536.5" y="-35" font-family="Helvetica,sans-Serif" font-size="10.00">+ onCompletion()</text>
<text text-anchor="start" x="536.5" y="-24" font-family="Helvetica,sans-Serif" font-size="10.00">+ onRun()</text>
</a>
</g>
</g>
<!-- Node1&#45;&gt;Node6 -->
<g id="edge5" class="edge">
<title>Node1&#45;&gt;Node6</title>
<path fill="none" stroke="midnightblue" d="M1050.21,-245.62C972.55,-216.49 853.62,-170.21 753,-124 741.55,-118.74 729.62,-112.93 717.94,-107.04"/>
<polygon fill="none" stroke="midnightblue" points="1049.35,-249.04 1059.95,-249.27 1051.81,-242.48 1049.35,-249.04"/>
</g>
<!-- Node7 -->
<g id="node7" class="node">
<title>Node7</title>
<g id="a_node7"><a xlink:href="../../df/d18/classpocketmine_1_1scheduler_1_1_bulk_curl_task.html" target="_top" xlink:title=" ">
<polygon fill="white" stroke="black" points="762,-17 762,-107 886,-107 886,-17 762,-17"/>
<text text-anchor="start" x="770" y="-95" font-family="Helvetica,sans-Serif" font-size="10.00">pocketmine\scheduler</text>
<text text-anchor="middle" x="824" y="-84" font-family="Helvetica,sans-Serif" font-size="10.00">\BulkCurlTask</text>
<polyline fill="none" stroke="black" points="762,-77 886,-77 "/>
<text text-anchor="middle" x="824" y="-65" font-family="Helvetica,sans-Serif" font-size="10.00"> </text>
<polyline fill="none" stroke="black" points="762,-58 886,-58 "/>
<text text-anchor="start" x="770" y="-46" font-family="Helvetica,sans-Serif" font-size="10.00">+ __construct()</text>
<text text-anchor="start" x="770" y="-35" font-family="Helvetica,sans-Serif" font-size="10.00">+ onCompletion()</text>
<text text-anchor="start" x="770" y="-24" font-family="Helvetica,sans-Serif" font-size="10.00">+ onRun()</text>
</a>
</g>
</g>
<!-- Node1&#45;&gt;Node7 -->
<g id="edge6" class="edge">
<title>Node1&#45;&gt;Node7</title>
<path fill="none" stroke="midnightblue" d="M1051.29,-227.78C1004.46,-199.17 945.2,-161.3 895,-124 887.96,-118.77 880.73,-113.03 873.7,-107.23"/>
<polygon fill="none" stroke="midnightblue" points="1049.53,-230.8 1059.89,-233.01 1053.17,-224.82 1049.53,-230.8"/>
</g>
<!-- Node8 -->
<g id="node8" class="node">
<title>Node8</title>
<g id="a_node8"><a xlink:href="../../d7/d53/classpocketmine_1_1scheduler_1_1_dump_worker_memory_task.html" target="_top" xlink:title=" ">
<polygon fill="white" stroke="black" points="904.5,-22.5 904.5,-101.5 1049.5,-101.5 1049.5,-22.5 904.5,-22.5"/>
<text text-anchor="start" x="912.5" y="-89.5" font-family="Helvetica,sans-Serif" font-size="10.00">pocketmine\scheduler</text>
<text text-anchor="middle" x="977" y="-78.5" font-family="Helvetica,sans-Serif" font-size="10.00">\DumpWorkerMemoryTask</text>
<polyline fill="none" stroke="black" points="904.5,-71.5 1049.5,-71.5 "/>
<text text-anchor="middle" x="977" y="-59.5" font-family="Helvetica,sans-Serif" font-size="10.00"> </text>
<polyline fill="none" stroke="black" points="904.5,-52.5 1049.5,-52.5 "/>
<text text-anchor="start" x="912.5" y="-40.5" font-family="Helvetica,sans-Serif" font-size="10.00">+ __construct()</text>
<text text-anchor="start" x="912.5" y="-29.5" font-family="Helvetica,sans-Serif" font-size="10.00">+ onRun()</text>
</a>
</g>
</g>
<!-- Node1&#45;&gt;Node8 -->
<g id="edge7" class="edge">
<title>Node1&#45;&gt;Node8</title>
<path fill="none" stroke="midnightblue" d="M1053.88,-167.97C1036.43,-144.14 1019.05,-120.41 1005.24,-101.56"/>
<polygon fill="none" stroke="midnightblue" points="1051.06,-170.05 1059.8,-176.05 1056.71,-165.91 1051.06,-170.05"/>
</g>
<!-- Node9 -->
<g id="node9" class="node">
<title>Node9</title>
<g id="a_node9"><a xlink:href="../../d9/dae/classpocketmine_1_1scheduler_1_1_garbage_collection_task.html" target="_top" xlink:title=" ">
<polygon fill="white" stroke="#bfbfbf" points="1067.5,-28 1067.5,-96 1198.5,-96 1198.5,-28 1067.5,-28"/>
<text text-anchor="start" x="1075.5" y="-84" font-family="Helvetica,sans-Serif" font-size="10.00">pocketmine\scheduler</text>
<text text-anchor="middle" x="1133" y="-73" font-family="Helvetica,sans-Serif" font-size="10.00">\GarbageCollectionTask</text>
<polyline fill="none" stroke="#bfbfbf" points="1067.5,-66 1198.5,-66 "/>
<text text-anchor="middle" x="1133" y="-54" font-family="Helvetica,sans-Serif" font-size="10.00"> </text>
<polyline fill="none" stroke="#bfbfbf" points="1067.5,-47 1198.5,-47 "/>
<text text-anchor="start" x="1075.5" y="-35" font-family="Helvetica,sans-Serif" font-size="10.00">+ onRun()</text>
</a>
</g>
</g>
<!-- Node1&#45;&gt;Node9 -->
<g id="edge8" class="edge">
<title>Node1&#45;&gt;Node9</title>
<path fill="none" stroke="midnightblue" d="M1133,-150.34C1133,-130.48 1133,-111.55 1133,-96.42"/>
<polygon fill="none" stroke="midnightblue" points="1129.5,-150.46 1133,-160.46 1136.5,-150.46 1129.5,-150.46"/>
</g>
<!-- Node10 -->
<g id="node10" class="node">
<title>Node10</title>
<g id="a_node10"><a xlink:href="../../df/d2c/classpocketmine_1_1stats_1_1_send_usage_task.html" target="_top" xlink:title=" ">
<polygon fill="white" stroke="#bfbfbf" points="1217,-6 1217,-118 1397,-118 1397,-6 1217,-6"/>
<text text-anchor="middle" x="1307" y="-106" font-family="Helvetica,sans-Serif" font-size="10.00">pocketmine\stats\SendUsageTask</text>
<polyline fill="none" stroke="#bfbfbf" points="1217,-99 1397,-99 "/>
<text text-anchor="start" x="1225" y="-87" font-family="Helvetica,sans-Serif" font-size="10.00">+ $data</text>
<text text-anchor="start" x="1225" y="-76" font-family="Helvetica,sans-Serif" font-size="10.00">+ $endpoint</text>
<text text-anchor="start" x="1225" y="-65" font-family="Helvetica,sans-Serif" font-size="10.00">+ TYPE_CLOSE</text>
<text text-anchor="start" x="1225" y="-54" font-family="Helvetica,sans-Serif" font-size="10.00">+ TYPE_OPEN</text>
<text text-anchor="start" x="1225" y="-43" font-family="Helvetica,sans-Serif" font-size="10.00">+ TYPE_STATUS</text>
<polyline fill="none" stroke="#bfbfbf" points="1217,-36 1397,-36 "/>
<text text-anchor="start" x="1225" y="-24" font-family="Helvetica,sans-Serif" font-size="10.00">+ __construct()</text>
<text text-anchor="start" x="1225" y="-13" font-family="Helvetica,sans-Serif" font-size="10.00">+ onRun()</text>
</a>
</g>
</g>
<!-- Node1&#45;&gt;Node10 -->
<g id="edge9" class="edge">
<title>Node1&#45;&gt;Node10</title>
<path fill="none" stroke="midnightblue" d="M1212.51,-178.67C1229.48,-157.9 1246.82,-136.67 1261.94,-118.15"/>
<polygon fill="none" stroke="midnightblue" points="1209.65,-176.64 1206.04,-186.59 1215.07,-181.06 1209.65,-176.64"/>
</g>
<!-- Node11 -->
<g id="node11" class="node">
<title>Node11</title>
<g id="a_node11"><a xlink:href="../../d7/d6f/classpocketmine_1_1updater_1_1_update_check_task.html" target="_top" xlink:title=" ">
<polygon fill="white" stroke="#bfbfbf" points="1415,-17 1415,-107 1529,-107 1529,-17 1415,-17"/>
<text text-anchor="start" x="1423" y="-95" font-family="Helvetica,sans-Serif" font-size="10.00">pocketmine\updater</text>
<text text-anchor="middle" x="1472" y="-84" font-family="Helvetica,sans-Serif" font-size="10.00">\UpdateCheckTask</text>
<polyline fill="none" stroke="#bfbfbf" points="1415,-77 1529,-77 "/>
<text text-anchor="middle" x="1472" y="-65" font-family="Helvetica,sans-Serif" font-size="10.00"> </text>
<polyline fill="none" stroke="#bfbfbf" points="1415,-58 1529,-58 "/>
<text text-anchor="start" x="1423" y="-46" font-family="Helvetica,sans-Serif" font-size="10.00">+ __construct()</text>
<text text-anchor="start" x="1423" y="-35" font-family="Helvetica,sans-Serif" font-size="10.00">+ onCompletion()</text>
<text text-anchor="start" x="1423" y="-24" font-family="Helvetica,sans-Serif" font-size="10.00">+ onRun()</text>
</a>
</g>
</g>
<!-- Node1&#45;&gt;Node11 -->
<g id="edge10" class="edge">
<title>Node1&#45;&gt;Node11</title>
<path fill="none" stroke="midnightblue" d="M1215.4,-236.63C1271.23,-208.42 1345.56,-167.79 1406,-124 1413.08,-118.87 1420.21,-113.07 1427.05,-107.13"/>
<polygon fill="none" stroke="midnightblue" points="1213.61,-233.61 1206.25,-241.23 1216.76,-239.87 1213.61,-233.61"/>
</g>
<!-- Node12 -->
<g id="node12" class="node">
<title>Node12</title>
<g id="a_node12"><a xlink:href="../../d2/d88/classpocketmine_1_1world_1_1generator_1_1_generator_register_task.html" target="_top" xlink:title=" ">
<polygon fill="white" stroke="#bfbfbf" points="1547,-6 1547,-118 1701,-118 1701,-6 1547,-6"/>
<text text-anchor="start" x="1555" y="-106" font-family="Helvetica,sans-Serif" font-size="10.00">pocketmine\world\generator</text>
<text text-anchor="middle" x="1624" y="-95" font-family="Helvetica,sans-Serif" font-size="10.00">\GeneratorRegisterTask</text>
<polyline fill="none" stroke="#bfbfbf" points="1547,-88 1701,-88 "/>
<text text-anchor="start" x="1555" y="-76" font-family="Helvetica,sans-Serif" font-size="10.00">+ $seed</text>
<text text-anchor="start" x="1555" y="-65" font-family="Helvetica,sans-Serif" font-size="10.00">+ $worldId</text>
<text text-anchor="start" x="1555" y="-54" font-family="Helvetica,sans-Serif" font-size="10.00">+ $worldMaxY</text>
<text text-anchor="start" x="1555" y="-43" font-family="Helvetica,sans-Serif" font-size="10.00">+ $worldMinY</text>
<polyline fill="none" stroke="#bfbfbf" points="1547,-36 1701,-36 "/>
<text text-anchor="start" x="1555" y="-24" font-family="Helvetica,sans-Serif" font-size="10.00">+ __construct()</text>
<text text-anchor="start" x="1555" y="-13" font-family="Helvetica,sans-Serif" font-size="10.00">+ onRun()</text>
</a>
</g>
</g>
<!-- Node1&#45;&gt;Node12 -->
<g id="edge11" class="edge">
<title>Node1&#45;&gt;Node12</title>
<path fill="none" stroke="midnightblue" d="M1215.74,-251.87C1299.54,-225.85 1431.6,-180.48 1538,-124 1541.4,-122.2 1544.81,-120.28 1548.22,-118.28"/>
<polygon fill="none" stroke="midnightblue" points="1214.54,-248.58 1206.02,-254.87 1216.61,-255.26 1214.54,-248.58"/>
</g>
<!-- Node13 -->
<g id="node13" class="node">
<title>Node13</title>
<g id="a_node13"><a xlink:href="../../d0/dac/classpocketmine_1_1world_1_1generator_1_1_generator_unregister_task.html" target="_top" xlink:title=" ">
<polygon fill="white" stroke="#bfbfbf" points="1719,-22.5 1719,-101.5 1873,-101.5 1873,-22.5 1719,-22.5"/>
<text text-anchor="start" x="1727" y="-89.5" font-family="Helvetica,sans-Serif" font-size="10.00">pocketmine\world\generator</text>
<text text-anchor="middle" x="1796" y="-78.5" font-family="Helvetica,sans-Serif" font-size="10.00">\GeneratorUnregisterTask</text>
<polyline fill="none" stroke="#bfbfbf" points="1719,-71.5 1873,-71.5 "/>
<text text-anchor="start" x="1727" y="-59.5" font-family="Helvetica,sans-Serif" font-size="10.00">+ $worldId</text>
<polyline fill="none" stroke="#bfbfbf" points="1719,-52.5 1873,-52.5 "/>
<text text-anchor="start" x="1727" y="-40.5" font-family="Helvetica,sans-Serif" font-size="10.00">+ __construct()</text>
<text text-anchor="start" x="1727" y="-29.5" font-family="Helvetica,sans-Serif" font-size="10.00">+ onRun()</text>
</a>
</g>
</g>
<!-- Node1&#45;&gt;Node13 -->
<g id="edge12" class="edge">
<title>Node1&#45;&gt;Node13</title>
<path fill="none" stroke="midnightblue" d="M1216.18,-263.74C1331.28,-244.66 1543.75,-201.71 1710,-124 1722.93,-117.95 1735.97,-109.93 1747.85,-101.69"/>
<polygon fill="none" stroke="midnightblue" points="1215.33,-260.33 1206.02,-265.4 1216.46,-267.24 1215.33,-260.33"/>
</g>
<!-- Node14 -->
<g id="node14" class="node">
<title>Node14</title>
<g id="a_node14"><a xlink:href="../../d9/d4a/classpocketmine_1_1world_1_1generator_1_1_population_task.html" target="_top" xlink:title=" ">
<polygon fill="white" stroke="black" points="1891,-17 1891,-107 2045,-107 2045,-17 1891,-17"/>
<text text-anchor="start" x="1899" y="-95" font-family="Helvetica,sans-Serif" font-size="10.00">pocketmine\world\generator</text>
<text text-anchor="middle" x="1968" y="-84" font-family="Helvetica,sans-Serif" font-size="10.00">\PopulationTask</text>
<polyline fill="none" stroke="black" points="1891,-77 2045,-77 "/>
<text text-anchor="middle" x="1968" y="-65" font-family="Helvetica,sans-Serif" font-size="10.00"> </text>
<polyline fill="none" stroke="black" points="1891,-58 2045,-58 "/>
<text text-anchor="start" x="1899" y="-46" font-family="Helvetica,sans-Serif" font-size="10.00">+ __construct()</text>
<text text-anchor="start" x="1899" y="-35" font-family="Helvetica,sans-Serif" font-size="10.00">+ onCompletion()</text>
<text text-anchor="start" x="1899" y="-24" font-family="Helvetica,sans-Serif" font-size="10.00">+ onRun()</text>
</a>
</g>
</g>
<!-- Node1&#45;&gt;Node14 -->
<g id="edge13" class="edge">
<title>Node1&#45;&gt;Node14</title>
<path fill="none" stroke="midnightblue" d="M1216.57,-270.37C1358.62,-258.36 1653.92,-222.75 1882,-124 1892.41,-119.49 1902.83,-113.59 1912.63,-107.23"/>
<polygon fill="none" stroke="midnightblue" points="1215.87,-266.92 1206.2,-271.23 1216.45,-273.89 1215.87,-266.92"/>
</g>
<!-- Node15 -->
<g id="node15" class="node">
<title>Node15</title>
<g id="a_node15"><a xlink:href="../../d9/d7c/classpocketmine_1_1world_1_1light_1_1_light_population_task.html" target="_top" xlink:title=" ">
<polygon fill="white" stroke="#bfbfbf" points="2063,-17 2063,-107 2191,-107 2191,-17 2063,-17"/>
<text text-anchor="start" x="2071" y="-95" font-family="Helvetica,sans-Serif" font-size="10.00">pocketmine\world\light</text>
<text text-anchor="middle" x="2127" y="-84" font-family="Helvetica,sans-Serif" font-size="10.00">\LightPopulationTask</text>
<polyline fill="none" stroke="#bfbfbf" points="2063,-77 2191,-77 "/>
<text text-anchor="start" x="2071" y="-65" font-family="Helvetica,sans-Serif" font-size="10.00">+ $chunk</text>
<polyline fill="none" stroke="#bfbfbf" points="2063,-58 2191,-58 "/>
<text text-anchor="start" x="2071" y="-46" font-family="Helvetica,sans-Serif" font-size="10.00">+ __construct()</text>
<text text-anchor="start" x="2071" y="-35" font-family="Helvetica,sans-Serif" font-size="10.00">+ onCompletion()</text>
<text text-anchor="start" x="2071" y="-24" font-family="Helvetica,sans-Serif" font-size="10.00">+ onRun()</text>
</a>
</g>
</g>
<!-- Node1&#45;&gt;Node15 -->
<g id="edge14" class="edge">
<title>Node1&#45;&gt;Node15</title>
<path fill="none" stroke="midnightblue" d="M1216.23,-276.65C1383.04,-274.93 1766.85,-255.63 2054,-124 2063.61,-119.6 2072.98,-113.58 2081.62,-107.04"/>
<polygon fill="none" stroke="midnightblue" points="1216.01,-273.15 1206.04,-276.74 1216.07,-280.15 1216.01,-273.15"/>
</g>
<!-- Node2 -->
<g id="node2" class="node">
<title>Node2</title>
<g id="a_node2"><a xlink:title=" ">
<polygon fill="white" stroke="#bfbfbf" points="1102,-430.5 1102,-487.5 1164,-487.5 1164,-430.5 1102,-430.5"/>
<text text-anchor="middle" x="1133" y="-475.5" font-family="Helvetica,sans-Serif" font-size="10.00">Runnable</text>
<polyline fill="none" stroke="#bfbfbf" points="1102,-468.5 1164,-468.5 "/>
<text text-anchor="middle" x="1133" y="-456.5" font-family="Helvetica,sans-Serif" font-size="10.00"> </text>
<polyline fill="none" stroke="#bfbfbf" points="1102,-449.5 1164,-449.5 "/>
<text text-anchor="middle" x="1133" y="-437.5" font-family="Helvetica,sans-Serif" font-size="10.00"> </text>
</a>
</g>
</g>
<!-- Node2&#45;&gt;Node1 -->
<g id="edge1" class="edge">
<title>Node2&#45;&gt;Node1</title>
<path fill="none" stroke="midnightblue" d="M1133,-420.14C1133,-412.03 1133,-403.05 1133,-393.67"/>
<polygon fill="none" stroke="midnightblue" points="1129.5,-420.27 1133,-430.27 1136.5,-420.27 1129.5,-420.27"/>
</g>
</g>
</svg>
