<?xml version="1.0" encoding="UTF-8" standalone="no"?>
<!DOCTYPE svg PUBLIC "-//W3C//DTD SVG 1.1//EN"
 "http://www.w3.org/Graphics/SVG/1.1/DTD/svg11.dtd">
<!-- Generated by graphviz version 2.43.0 (0)
 -->
<!-- Title: pocketmine\block\tile\ChiseledBookshelf Pages: 1 -->
<svg width="299pt" height="518pt"
 viewBox="0.00 0.00 298.50 518.00" xmlns="http://www.w3.org/2000/svg" xmlns:xlink="http://www.w3.org/1999/xlink">
<g id="graph0" class="graph" transform="scale(1 1) rotate(0) translate(4 514)">
<title>pocketmine\block\tile\ChiseledBookshelf</title>
<polygon fill="white" stroke="transparent" points="-4,4 -4,-514 294.5,-514 294.5,4 -4,4"/>
<!-- Node1 -->
<g id="node1" class="node">
<title>Node1</title>
<g id="a_node1"><a xlink:title=" ">
<polygon fill="#bfbfbf" stroke="black" points="91,-0.5 91,-112.5 213,-112.5 213,-0.5 91,-0.5"/>
<text text-anchor="start" x="99" y="-100.5" font-family="Helvetica,sans-Serif" font-size="10.00">pocketmine\block\tile</text>
<text text-anchor="middle" x="152" y="-89.5" font-family="Helvetica,sans-Serif" font-size="10.00">\ChiseledBookshelf</text>
<polyline fill="none" stroke="black" points="91,-82.5 213,-82.5 "/>
<text text-anchor="middle" x="152" y="-70.5" font-family="Helvetica,sans-Serif" font-size="10.00"> </text>
<polyline fill="none" stroke="black" points="91,-63.5 213,-63.5 "/>
<text text-anchor="start" x="99" y="-51.5" font-family="Helvetica,sans-Serif" font-size="10.00">+ __construct()</text>
<text text-anchor="start" x="99" y="-40.5" font-family="Helvetica,sans-Serif" font-size="10.00">+ getInventory()</text>
<text text-anchor="start" x="99" y="-29.5" font-family="Helvetica,sans-Serif" font-size="10.00">+ getRealInventory()</text>
<text text-anchor="start" x="99" y="-18.5" font-family="Helvetica,sans-Serif" font-size="10.00">+ readSaveData()</text>
<text text-anchor="start" x="99" y="-7.5" font-family="Helvetica,sans-Serif" font-size="10.00">+ writeSaveData()</text>
</a>
</g>
</g>
<!-- Node2 -->
<g id="node2" class="node">
<title>Node2</title>
<g id="a_node2"><a xlink:href="../../d9/d74/classpocketmine_1_1block_1_1tile_1_1_tile.html" target="_top" xlink:title=" ">
<polygon fill="white" stroke="#bfbfbf" points="0,-149.5 0,-404.5 150,-404.5 150,-149.5 0,-149.5"/>
<text text-anchor="middle" x="75" y="-392.5" font-family="Helvetica,sans-Serif" font-size="10.00">pocketmine\block\tile\Tile</text>
<polyline fill="none" stroke="#bfbfbf" points="0,-385.5 150,-385.5 "/>
<text text-anchor="start" x="8" y="-373.5" font-family="Helvetica,sans-Serif" font-size="10.00">+ $closed</text>
<text text-anchor="start" x="8" y="-362.5" font-family="Helvetica,sans-Serif" font-size="10.00">+ TAG_ID</text>
<text text-anchor="start" x="8" y="-351.5" font-family="Helvetica,sans-Serif" font-size="10.00">+ TAG_X</text>
<text text-anchor="start" x="8" y="-340.5" font-family="Helvetica,sans-Serif" font-size="10.00">+ TAG_Y</text>
<text text-anchor="start" x="8" y="-329.5" font-family="Helvetica,sans-Serif" font-size="10.00">+ TAG_Z</text>
<text text-anchor="start" x="8" y="-318.5" font-family="Helvetica,sans-Serif" font-size="10.00"># $position</text>
<text text-anchor="start" x="8" y="-307.5" font-family="Helvetica,sans-Serif" font-size="10.00"># $timings</text>
<polyline fill="none" stroke="#bfbfbf" points="0,-300.5 150,-300.5 "/>
<text text-anchor="start" x="8" y="-288.5" font-family="Helvetica,sans-Serif" font-size="10.00">+ __construct()</text>
<text text-anchor="start" x="8" y="-277.5" font-family="Helvetica,sans-Serif" font-size="10.00">+ __destruct()</text>
<text text-anchor="start" x="8" y="-266.5" font-family="Helvetica,sans-Serif" font-size="10.00">+ close()</text>
<text text-anchor="start" x="8" y="-255.5" font-family="Helvetica,sans-Serif" font-size="10.00">+ copyDataFromItem()</text>
<text text-anchor="start" x="8" y="-244.5" font-family="Helvetica,sans-Serif" font-size="10.00">+ getBlock()</text>
<text text-anchor="start" x="8" y="-233.5" font-family="Helvetica,sans-Serif" font-size="10.00">+ getCleanedNBT()</text>
<text text-anchor="start" x="8" y="-222.5" font-family="Helvetica,sans-Serif" font-size="10.00">+ getPosition()</text>
<text text-anchor="start" x="8" y="-211.5" font-family="Helvetica,sans-Serif" font-size="10.00">+ isClosed()</text>
<text text-anchor="start" x="8" y="-200.5" font-family="Helvetica,sans-Serif" font-size="10.00">+ onBlockDestroyed()</text>
<text text-anchor="start" x="8" y="-189.5" font-family="Helvetica,sans-Serif" font-size="10.00">+ readSaveData()</text>
<text text-anchor="start" x="8" y="-178.5" font-family="Helvetica,sans-Serif" font-size="10.00">+ saveNBT()</text>
<text text-anchor="start" x="8" y="-167.5" font-family="Helvetica,sans-Serif" font-size="10.00"># onBlockDestroyedHook()</text>
<text text-anchor="start" x="8" y="-156.5" font-family="Helvetica,sans-Serif" font-size="10.00"># writeSaveData()</text>
</a>
</g>
</g>
<!-- Node2&#45;&gt;Node1 -->
<g id="edge1" class="edge">
<title>Node2&#45;&gt;Node1</title>
<path fill="none" stroke="midnightblue" d="M123.04,-139.69C126.37,-130.24 129.59,-121.09 132.61,-112.53"/>
<polygon fill="none" stroke="midnightblue" points="119.7,-138.62 119.68,-149.21 126.3,-140.95 119.7,-138.62"/>
</g>
<!-- Node3 -->
<g id="node3" class="node">
<title>Node3</title>
<g id="a_node3"><a xlink:href="../../d9/de1/interfacepocketmine_1_1block_1_1tile_1_1_container.html" target="_top" xlink:title=" ">
<polygon fill="white" stroke="#bfbfbf" points="168,-232 168,-322 290,-322 290,-232 168,-232"/>
<text text-anchor="start" x="176" y="-310" font-family="Helvetica,sans-Serif" font-size="10.00">pocketmine\block\tile</text>
<text text-anchor="middle" x="229" y="-299" font-family="Helvetica,sans-Serif" font-size="10.00">\Container</text>
<polyline fill="none" stroke="#bfbfbf" points="168,-292 290,-292 "/>
<text text-anchor="start" x="176" y="-280" font-family="Helvetica,sans-Serif" font-size="10.00">+ TAG_ITEMS</text>
<text text-anchor="start" x="176" y="-269" font-family="Helvetica,sans-Serif" font-size="10.00">+ TAG_LOCK</text>
<polyline fill="none" stroke="#bfbfbf" points="168,-262 290,-262 "/>
<text text-anchor="start" x="176" y="-250" font-family="Helvetica,sans-Serif" font-size="10.00">+ canOpenWith()</text>
<text text-anchor="start" x="176" y="-239" font-family="Helvetica,sans-Serif" font-size="10.00">+ getRealInventory()</text>
</a>
</g>
</g>
<!-- Node3&#45;&gt;Node1 -->
<g id="edge2" class="edge">
<title>Node3&#45;&gt;Node1</title>
<path fill="none" stroke="midnightblue" d="M210.04,-222.2C198.28,-188.84 183.22,-146.1 171.39,-112.51"/>
<polygon fill="none" stroke="midnightblue" points="206.79,-223.52 213.42,-231.78 213.4,-221.19 206.79,-223.52"/>
</g>
<!-- Node4 -->
<g id="node4" class="node">
<title>Node4</title>
<g id="a_node4"><a xlink:href="../../d2/d91/interfacepocketmine_1_1inventory_1_1_inventory_holder.html" target="_top" xlink:title=" ">
<polygon fill="white" stroke="#bfbfbf" points="167.5,-441.5 167.5,-509.5 290.5,-509.5 290.5,-441.5 167.5,-441.5"/>
<text text-anchor="start" x="175.5" y="-497.5" font-family="Helvetica,sans-Serif" font-size="10.00">pocketmine\inventory</text>
<text text-anchor="middle" x="229" y="-486.5" font-family="Helvetica,sans-Serif" font-size="10.00">\InventoryHolder</text>
<polyline fill="none" stroke="#bfbfbf" points="167.5,-479.5 290.5,-479.5 "/>
<text text-anchor="middle" x="229" y="-467.5" font-family="Helvetica,sans-Serif" font-size="10.00"> </text>
<polyline fill="none" stroke="#bfbfbf" points="167.5,-460.5 290.5,-460.5 "/>
<text text-anchor="start" x="175.5" y="-448.5" font-family="Helvetica,sans-Serif" font-size="10.00">+ getInventory()</text>
</a>
</g>
</g>
<!-- Node4&#45;&gt;Node3 -->
<g id="edge3" class="edge">
<title>Node4&#45;&gt;Node3</title>
<path fill="none" stroke="midnightblue" d="M229,-431.11C229,-398.77 229,-354.76 229,-322.22"/>
<polygon fill="none" stroke="midnightblue" points="225.5,-431.17 229,-441.17 232.5,-431.17 225.5,-431.17"/>
</g>
</g>
</svg>
