<?xml version="1.0" encoding="UTF-8" standalone="no"?>
<!DOCTYPE svg PUBLIC "-//W3C//DTD SVG 1.1//EN"
 "http://www.w3.org/Graphics/SVG/1.1/DTD/svg11.dtd">
<!-- Generated by graphviz version 2.43.0 (0)
 -->
<!-- Title: pocketmine\block\DoubleTallGrass Pages: 1 -->
<svg width="186pt" height="827pt"
 viewBox="0.00 0.00 186.00 827.00" xmlns="http://www.w3.org/2000/svg" xmlns:xlink="http://www.w3.org/1999/xlink">
<g id="graph0" class="graph" transform="scale(1 1) rotate(0) translate(4 823)">
<title>pocketmine\block\DoubleTallGrass</title>
<polygon fill="white" stroke="transparent" points="-4,4 -4,-823 182,-823 182,4 -4,4"/>
<!-- Node1 -->
<g id="node1" class="node">
<title>Node1</title>
<g id="a_node1"><a xlink:title=" ">
<polygon fill="#bfbfbf" stroke="black" points="0,-0.5 0,-79.5 178,-79.5 178,-0.5 0,-0.5"/>
<text text-anchor="start" x="8" y="-67.5" font-family="Helvetica,sans-Serif" font-size="10.00">pocketmine\block\DoubleTall</text>
<text text-anchor="middle" x="89" y="-56.5" font-family="Helvetica,sans-Serif" font-size="10.00">Grass</text>
<polyline fill="none" stroke="black" points="0,-49.5 178,-49.5 "/>
<text text-anchor="middle" x="89" y="-37.5" font-family="Helvetica,sans-Serif" font-size="10.00"> </text>
<polyline fill="none" stroke="black" points="0,-30.5 178,-30.5 "/>
<text text-anchor="start" x="8" y="-18.5" font-family="Helvetica,sans-Serif" font-size="10.00">+ canBeReplaced()</text>
<text text-anchor="start" x="8" y="-7.5" font-family="Helvetica,sans-Serif" font-size="10.00">+ getDropsForIncompatibleTool()</text>
</a>
</g>
</g>
<!-- Node2 -->
<g id="node2" class="node">
<title>Node2</title>
<g id="a_node2"><a xlink:href="../../dd/d6a/classpocketmine_1_1block_1_1_double_plant.html" target="_top" xlink:title=" ">
<polygon fill="white" stroke="#bfbfbf" points="6.5,-116.5 6.5,-283.5 171.5,-283.5 171.5,-116.5 6.5,-116.5"/>
<text text-anchor="middle" x="89" y="-271.5" font-family="Helvetica,sans-Serif" font-size="10.00">pocketmine\block\DoublePlant</text>
<polyline fill="none" stroke="#bfbfbf" points="6.5,-264.5 171.5,-264.5 "/>
<text text-anchor="start" x="14.5" y="-252.5" font-family="Helvetica,sans-Serif" font-size="10.00"># $top</text>
<polyline fill="none" stroke="#bfbfbf" points="6.5,-245.5 171.5,-245.5 "/>
<text text-anchor="start" x="14.5" y="-233.5" font-family="Helvetica,sans-Serif" font-size="10.00">+ getAffectedBlocks()</text>
<text text-anchor="start" x="14.5" y="-222.5" font-family="Helvetica,sans-Serif" font-size="10.00">+ getDrops()</text>
<text text-anchor="start" x="14.5" y="-211.5" font-family="Helvetica,sans-Serif" font-size="10.00">+ getFlameEncouragement()</text>
<text text-anchor="start" x="14.5" y="-200.5" font-family="Helvetica,sans-Serif" font-size="10.00">+ getFlammability()</text>
<text text-anchor="start" x="14.5" y="-189.5" font-family="Helvetica,sans-Serif" font-size="10.00">+ getRequiredStateDataBits()</text>
<text text-anchor="start" x="14.5" y="-178.5" font-family="Helvetica,sans-Serif" font-size="10.00">+ isTop()</text>
<text text-anchor="start" x="14.5" y="-167.5" font-family="Helvetica,sans-Serif" font-size="10.00">+ isValidHalfPlant()</text>
<text text-anchor="start" x="14.5" y="-156.5" font-family="Helvetica,sans-Serif" font-size="10.00">+ onNearbyBlockChange()</text>
<text text-anchor="start" x="14.5" y="-145.5" font-family="Helvetica,sans-Serif" font-size="10.00">+ place()</text>
<text text-anchor="start" x="14.5" y="-134.5" font-family="Helvetica,sans-Serif" font-size="10.00">+ setTop()</text>
<text text-anchor="start" x="14.5" y="-123.5" font-family="Helvetica,sans-Serif" font-size="10.00"># describeState()</text>
</a>
</g>
</g>
<!-- Node2&#45;&gt;Node1 -->
<g id="edge1" class="edge">
<title>Node2&#45;&gt;Node1</title>
<path fill="none" stroke="midnightblue" d="M89,-106.12C89,-96.81 89,-87.76 89,-79.52"/>
<polygon fill="none" stroke="midnightblue" points="85.5,-106.3 89,-116.3 92.5,-106.3 85.5,-106.3"/>
</g>
<!-- Node3 -->
<g id="node3" class="node">
<title>Node3</title>
<g id="a_node3"><a xlink:href="../../d3/d1e/classpocketmine_1_1block_1_1_flowable.html" target="_top" xlink:title=" ">
<polygon fill="white" stroke="#bfbfbf" points="8.5,-320.5 8.5,-410.5 169.5,-410.5 169.5,-320.5 8.5,-320.5"/>
<text text-anchor="middle" x="89" y="-398.5" font-family="Helvetica,sans-Serif" font-size="10.00">pocketmine\block\Flowable</text>
<polyline fill="none" stroke="#bfbfbf" points="8.5,-391.5 169.5,-391.5 "/>
<text text-anchor="middle" x="89" y="-379.5" font-family="Helvetica,sans-Serif" font-size="10.00"> </text>
<polyline fill="none" stroke="#bfbfbf" points="8.5,-372.5 169.5,-372.5 "/>
<text text-anchor="start" x="16.5" y="-360.5" font-family="Helvetica,sans-Serif" font-size="10.00">+ canBeFlowedInto()</text>
<text text-anchor="start" x="16.5" y="-349.5" font-family="Helvetica,sans-Serif" font-size="10.00">+ getSupportType()</text>
<text text-anchor="start" x="16.5" y="-338.5" font-family="Helvetica,sans-Serif" font-size="10.00">+ isSolid()</text>
<text text-anchor="start" x="16.5" y="-327.5" font-family="Helvetica,sans-Serif" font-size="10.00"># recalculateCollisionBoxes()</text>
</a>
</g>
</g>
<!-- Node3&#45;&gt;Node2 -->
<g id="edge2" class="edge">
<title>Node3&#45;&gt;Node2</title>
<path fill="none" stroke="midnightblue" d="M89,-310.13C89,-301.63 89,-292.68 89,-283.72"/>
<polygon fill="none" stroke="midnightblue" points="85.5,-310.25 89,-320.25 92.5,-310.25 85.5,-310.25"/>
</g>
<!-- Node4 -->
<g id="node4" class="node">
<title>Node4</title>
<g id="a_node4"><a xlink:href="../../d5/d1b/classpocketmine_1_1block_1_1_transparent.html" target="_top" xlink:title=" ">
<polygon fill="white" stroke="#bfbfbf" points="7.5,-447.5 7.5,-504.5 170.5,-504.5 170.5,-447.5 7.5,-447.5"/>
<text text-anchor="middle" x="89" y="-492.5" font-family="Helvetica,sans-Serif" font-size="10.00">pocketmine\block\Transparent</text>
<polyline fill="none" stroke="#bfbfbf" points="7.5,-485.5 170.5,-485.5 "/>
<text text-anchor="middle" x="89" y="-473.5" font-family="Helvetica,sans-Serif" font-size="10.00"> </text>
<polyline fill="none" stroke="#bfbfbf" points="7.5,-466.5 170.5,-466.5 "/>
<text text-anchor="start" x="15.5" y="-454.5" font-family="Helvetica,sans-Serif" font-size="10.00">+ isTransparent()</text>
</a>
</g>
</g>
<!-- Node4&#45;&gt;Node3 -->
<g id="edge3" class="edge">
<title>Node4&#45;&gt;Node3</title>
<path fill="none" stroke="midnightblue" d="M89,-437.21C89,-428.61 89,-419.39 89,-410.55"/>
<polygon fill="none" stroke="midnightblue" points="85.5,-437.34 89,-447.34 92.5,-437.34 85.5,-437.34"/>
</g>
<!-- Node5 -->
<g id="node5" class="node">
<title>Node5</title>
<g id="a_node5"><a xlink:href="../../d7/d27/classpocketmine_1_1block_1_1_block.html" target="_top" xlink:title=" ">
<polygon fill="white" stroke="#bfbfbf" points="1,-541.5 1,-818.5 177,-818.5 177,-541.5 1,-541.5"/>
<text text-anchor="middle" x="89" y="-806.5" font-family="Helvetica,sans-Serif" font-size="10.00">pocketmine\block\Block</text>
<polyline fill="none" stroke="#bfbfbf" points="1,-799.5 177,-799.5 "/>
<text text-anchor="start" x="9" y="-787.5" font-family="Helvetica,sans-Serif" font-size="10.00">+ INTERNAL_STATE_DATA_BITS</text>
<text text-anchor="start" x="9" y="-776.5" font-family="Helvetica,sans-Serif" font-size="10.00">+ INTERNAL_STATE_DATA_MASK</text>
<text text-anchor="start" x="9" y="-765.5" font-family="Helvetica,sans-Serif" font-size="10.00"># $collisionBoxes</text>
<text text-anchor="start" x="9" y="-754.5" font-family="Helvetica,sans-Serif" font-size="10.00"># $fallbackName</text>
<text text-anchor="start" x="9" y="-743.5" font-family="Helvetica,sans-Serif" font-size="10.00"># $idInfo</text>
<text text-anchor="start" x="9" y="-732.5" font-family="Helvetica,sans-Serif" font-size="10.00"># $position</text>
<text text-anchor="start" x="9" y="-721.5" font-family="Helvetica,sans-Serif" font-size="10.00"># $typeInfo</text>
<polyline fill="none" stroke="#bfbfbf" points="1,-714.5 177,-714.5 "/>
<text text-anchor="start" x="9" y="-702.5" font-family="Helvetica,sans-Serif" font-size="10.00">+ __construct()</text>
<text text-anchor="start" x="9" y="-691.5" font-family="Helvetica,sans-Serif" font-size="10.00">+ __clone()</text>
<text text-anchor="start" x="9" y="-680.5" font-family="Helvetica,sans-Serif" font-size="10.00">+ __toString()</text>
<text text-anchor="start" x="9" y="-669.5" font-family="Helvetica,sans-Serif" font-size="10.00">+ addVelocityToEntity()</text>
<text text-anchor="start" x="9" y="-658.5" font-family="Helvetica,sans-Serif" font-size="10.00">+ asItem()</text>
<text text-anchor="start" x="9" y="-647.5" font-family="Helvetica,sans-Serif" font-size="10.00">+ blocksDirectSkyLight()</text>
<text text-anchor="start" x="9" y="-636.5" font-family="Helvetica,sans-Serif" font-size="10.00">+ burnsForever()</text>
<text text-anchor="start" x="9" y="-625.5" font-family="Helvetica,sans-Serif" font-size="10.00">+ calculateIntercept()</text>
<text text-anchor="start" x="9" y="-614.5" font-family="Helvetica,sans-Serif" font-size="10.00">+ canBeFlowedInto()</text>
<text text-anchor="start" x="9" y="-603.5" font-family="Helvetica,sans-Serif" font-size="10.00">+ canBePlaced()</text>
<text text-anchor="start" x="9" y="-592.5" font-family="Helvetica,sans-Serif" font-size="10.00">and 63 more...</text>
<text text-anchor="start" x="9" y="-581.5" font-family="Helvetica,sans-Serif" font-size="10.00"># describeState()</text>
<text text-anchor="start" x="9" y="-570.5" font-family="Helvetica,sans-Serif" font-size="10.00"># describeType()</text>
<text text-anchor="start" x="9" y="-559.5" font-family="Helvetica,sans-Serif" font-size="10.00"># getXpDropAmount()</text>
<text text-anchor="start" x="9" y="-548.5" font-family="Helvetica,sans-Serif" font-size="10.00"># recalculateCollisionBoxes()</text>
</a>
</g>
</g>
<!-- Node5&#45;&gt;Node4 -->
<g id="edge4" class="edge">
<title>Node5&#45;&gt;Node4</title>
<path fill="none" stroke="midnightblue" d="M89,-531.41C89,-521.59 89,-512.52 89,-504.71"/>
<polygon fill="none" stroke="midnightblue" points="85.5,-531.47 89,-541.47 92.5,-531.47 85.5,-531.47"/>
</g>
</g>
</svg>
