<?xml version="1.0" encoding="UTF-8" standalone="no"?>
<!DOCTYPE svg PUBLIC "-//W3C//DTD SVG 1.1//EN"
 "http://www.w3.org/Graphics/SVG/1.1/DTD/svg11.dtd">
<!-- Generated by graphviz version 2.43.0 (0)
 -->
<!-- Title: pocketmine\world\format\io\region\WritableRegionWorldProvider Pages: 1 -->
<!--zoomable 869 -->
<svg id="main" version="1.1" xmlns="http://www.w3.org/2000/svg" xmlns:xlink="http://www.w3.org/1999/xlink" xml:space="preserve" onload="init(evt)">
<style type="text/css"><![CDATA[
.edge:hover path { stroke: red; }
.edge:hover polygon { stroke: red; fill: red; }
]]></style>
<script type="text/javascript"><![CDATA[
var edges = document.getElementsByTagName('g');
if (edges && edges.length) {
  for (var i=0;i<edges.length;i++) {
    if (edges[i].id.substr(0,4)=='edge') {
      edges[i].setAttribute('class','edge');
    }
  }
}
]]></script>
        <defs>
                <circle id="rim" cx="0" cy="0" r="7"/>
                <circle id="rim2" cx="0" cy="0" r="3.5"/>
                <g id="zoomPlus">
                        <use xlink:href="#rim" fill="#404040">
                                <set attributeName="fill" to="#808080" begin="zoomplus.mouseover" end="zoomplus.mouseout"/>
                        </use>
                        <path d="M-4,0h8M0,-4v8" fill="none" stroke="white" stroke-width="1.5" pointer-events="none"/>
                </g>
                <g id="zoomMin">
                        <use xlink:href="#rim" fill="#404040">
                                <set attributeName="fill" to="#808080" begin="zoomminus.mouseover" end="zoomminus.mouseout"/>
                        </use>
                        <path d="M-4,0h8" fill="none" stroke="white" stroke-width="1.5" pointer-events="none"/>
                </g>
                <g id="dirArrow">
                        <path fill="none" stroke="white" stroke-width="1.5" d="M0,-3.0v7 M-2.5,-0.5L0,-3.0L2.5,-0.5"/>
                </g>
               <g id="resetDef">
                       <use xlink:href="#rim2" fill="#404040">
                               <set attributeName="fill" to="#808080" begin="reset.mouseover" end="reset.mouseout"/>
                       </use>
               </g>
        </defs>

<script type="text/javascript">
var viewWidth = 306;
var viewHeight = 869;
var sectionId = 'dynsection-1';
</script>
<script xlink:href="../../svgpan.js"/>
<svg id="graph" class="graph">
<g id="viewport">
<title>pocketmine\world\format\io\region\WritableRegionWorldProvider</title>
<polygon fill="white" stroke="transparent" points="-4,4 -4,-865 302,-865 302,4 -4,4"/>
<!-- Node1 -->
<g id="node1" class="node">
<title>Node1</title>
<g id="a_node1"><a xlink:title=" ">
<polygon fill="#bfbfbf" stroke="black" points="26,-0.5 26,-101.5 194,-101.5 194,-0.5 26,-0.5"/>
<text text-anchor="start" x="34" y="-89.5" font-family="Helvetica,sans-Serif" font-size="10.00">pocketmine\world\format</text>
<text text-anchor="start" x="34" y="-78.5" font-family="Helvetica,sans-Serif" font-size="10.00">\io\region\WritableRegionWorld</text>
<text text-anchor="middle" x="110" y="-67.5" font-family="Helvetica,sans-Serif" font-size="10.00">Provider</text>
<polyline fill="none" stroke="black" points="26,-60.5 194,-60.5 "/>
<text text-anchor="middle" x="110" y="-48.5" font-family="Helvetica,sans-Serif" font-size="10.00"> </text>
<polyline fill="none" stroke="black" points="26,-41.5 194,-41.5 "/>
<text text-anchor="start" x="34" y="-29.5" font-family="Helvetica,sans-Serif" font-size="10.00">+ saveChunk()</text>
<text text-anchor="start" x="34" y="-18.5" font-family="Helvetica,sans-Serif" font-size="10.00">+ generate()</text>
<text text-anchor="start" x="34" y="-7.5" font-family="Helvetica,sans-Serif" font-size="10.00"># serializeChunk()</text>
</a>
</g>
</g>
<!-- Node2 -->
<g id="node2" class="node">
<title>Node2</title>
<g id="a_node2"><a xlink:href="../../d6/d16/classpocketmine_1_1world_1_1format_1_1io_1_1region_1_1_region_world_provider.html" target="_top" xlink:title=" ">
<polygon fill="white" stroke="#bfbfbf" points="104.5,-139.5 104.5,-383.5 271.5,-383.5 271.5,-139.5 104.5,-139.5"/>
<text text-anchor="start" x="112.5" y="-371.5" font-family="Helvetica,sans-Serif" font-size="10.00">pocketmine\world\format</text>
<text text-anchor="middle" x="188" y="-360.5" font-family="Helvetica,sans-Serif" font-size="10.00">\io\region\RegionWorldProvider</text>
<polyline fill="none" stroke="#bfbfbf" points="104.5,-353.5 271.5,-353.5 "/>
<text text-anchor="start" x="112.5" y="-341.5" font-family="Helvetica,sans-Serif" font-size="10.00"># $regions</text>
<polyline fill="none" stroke="#bfbfbf" points="104.5,-334.5 271.5,-334.5 "/>
<text text-anchor="start" x="112.5" y="-322.5" font-family="Helvetica,sans-Serif" font-size="10.00">+ calculateChunkCount()</text>
<text text-anchor="start" x="112.5" y="-311.5" font-family="Helvetica,sans-Serif" font-size="10.00">+ close()</text>
<text text-anchor="start" x="112.5" y="-300.5" font-family="Helvetica,sans-Serif" font-size="10.00">+ doGarbageCollection()</text>
<text text-anchor="start" x="112.5" y="-289.5" font-family="Helvetica,sans-Serif" font-size="10.00">+ getAllChunks()</text>
<text text-anchor="start" x="112.5" y="-278.5" font-family="Helvetica,sans-Serif" font-size="10.00">+ loadChunk()</text>
<text text-anchor="start" x="112.5" y="-267.5" font-family="Helvetica,sans-Serif" font-size="10.00">+ getRegionIndex()</text>
<text text-anchor="start" x="112.5" y="-256.5" font-family="Helvetica,sans-Serif" font-size="10.00">+ isValid()</text>
<text text-anchor="start" x="112.5" y="-245.5" font-family="Helvetica,sans-Serif" font-size="10.00"># deserializeChunk()</text>
<text text-anchor="start" x="112.5" y="-234.5" font-family="Helvetica,sans-Serif" font-size="10.00"># getRegion()</text>
<text text-anchor="start" x="112.5" y="-223.5" font-family="Helvetica,sans-Serif" font-size="10.00"># loadLevelData()</text>
<text text-anchor="start" x="112.5" y="-212.5" font-family="Helvetica,sans-Serif" font-size="10.00"># loadRegion()</text>
<text text-anchor="start" x="112.5" y="-201.5" font-family="Helvetica,sans-Serif" font-size="10.00"># pathToRegion()</text>
<text text-anchor="start" x="112.5" y="-190.5" font-family="Helvetica,sans-Serif" font-size="10.00"># unloadRegion()</text>
<text text-anchor="start" x="112.5" y="-179.5" font-family="Helvetica,sans-Serif" font-size="10.00"># getCompoundList()</text>
<text text-anchor="start" x="112.5" y="-168.5" font-family="Helvetica,sans-Serif" font-size="10.00"># getPcWorldFormatVersion()</text>
<text text-anchor="start" x="112.5" y="-157.5" font-family="Helvetica,sans-Serif" font-size="10.00"># getRegionFileExtension()</text>
<text text-anchor="start" x="112.5" y="-146.5" font-family="Helvetica,sans-Serif" font-size="10.00"># readFixedSizeByteArray()</text>
</a>
</g>
</g>
<!-- Node2&#45;&gt;Node1 -->
<g id="edge1" class="edge">
<title>Node2&#45;&gt;Node1</title>
<path fill="none" stroke="midnightblue" d="M139.1,-129.79C135.46,-120.05 131.94,-110.64 128.68,-101.93"/>
<polygon fill="none" stroke="midnightblue" points="135.85,-131.07 142.63,-139.21 142.4,-128.62 135.85,-131.07"/>
</g>
<!-- Node3 -->
<g id="node3" class="node">
<title>Node3</title>
<g id="a_node3"><a xlink:href="../../d6/dfa/classpocketmine_1_1world_1_1format_1_1io_1_1_base_world_provider.html" target="_top" xlink:title=" ">
<polygon fill="white" stroke="#bfbfbf" points="98.5,-489.5 98.5,-634.5 279.5,-634.5 279.5,-489.5 98.5,-489.5"/>
<text text-anchor="start" x="106.5" y="-622.5" font-family="Helvetica,sans-Serif" font-size="10.00">pocketmine\world\format</text>
<text text-anchor="middle" x="189" y="-611.5" font-family="Helvetica,sans-Serif" font-size="10.00">\io\BaseWorldProvider</text>
<polyline fill="none" stroke="#bfbfbf" points="98.5,-604.5 279.5,-604.5 "/>
<text text-anchor="middle" x="189" y="-592.5" font-family="Helvetica,sans-Serif" font-size="10.00"> </text>
<polyline fill="none" stroke="#bfbfbf" points="98.5,-585.5 279.5,-585.5 "/>
<text text-anchor="start" x="106.5" y="-573.5" font-family="Helvetica,sans-Serif" font-size="10.00">+ __construct()</text>
<text text-anchor="start" x="106.5" y="-562.5" font-family="Helvetica,sans-Serif" font-size="10.00">+ getPath()</text>
<text text-anchor="start" x="106.5" y="-551.5" font-family="Helvetica,sans-Serif" font-size="10.00">+ getWorldData()</text>
<text text-anchor="start" x="106.5" y="-540.5" font-family="Helvetica,sans-Serif" font-size="10.00"># loadLevelData()</text>
<text text-anchor="start" x="106.5" y="-529.5" font-family="Helvetica,sans-Serif" font-size="10.00"># palettizeLegacySubChunkFrom</text>
<text text-anchor="start" x="106.5" y="-518.5" font-family="Helvetica,sans-Serif" font-size="10.00">Column()</text>
<text text-anchor="start" x="106.5" y="-507.5" font-family="Helvetica,sans-Serif" font-size="10.00"># palettizeLegacySubChunkXZY()</text>
<text text-anchor="start" x="106.5" y="-496.5" font-family="Helvetica,sans-Serif" font-size="10.00"># palettizeLegacySubChunkYZX()</text>
</a>
</g>
</g>
<!-- Node3&#45;&gt;Node2 -->
<g id="edge2" class="edge">
<title>Node3&#45;&gt;Node2</title>
<path fill="none" stroke="midnightblue" d="M188.72,-478.9C188.63,-449.46 188.51,-415.61 188.41,-383.57"/>
<polygon fill="none" stroke="midnightblue" points="185.23,-479.13 188.76,-489.12 192.23,-479.11 185.23,-479.13"/>
</g>
<!-- Node4 -->
<g id="node4" class="node">
<title>Node4</title>
<g id="a_node4"><a xlink:href="../../d8/d94/interfacepocketmine_1_1world_1_1format_1_1io_1_1_world_provider.html" target="_top" xlink:title=" ">
<polygon fill="white" stroke="#bfbfbf" points="0,-693.5 0,-849.5 140,-849.5 140,-693.5 0,-693.5"/>
<text text-anchor="start" x="8" y="-837.5" font-family="Helvetica,sans-Serif" font-size="10.00">pocketmine\world\format</text>
<text text-anchor="middle" x="70" y="-826.5" font-family="Helvetica,sans-Serif" font-size="10.00">\io\WorldProvider</text>
<polyline fill="none" stroke="#bfbfbf" points="0,-819.5 140,-819.5 "/>
<text text-anchor="middle" x="70" y="-807.5" font-family="Helvetica,sans-Serif" font-size="10.00"> </text>
<polyline fill="none" stroke="#bfbfbf" points="0,-800.5 140,-800.5 "/>
<text text-anchor="start" x="8" y="-788.5" font-family="Helvetica,sans-Serif" font-size="10.00">+ calculateChunkCount()</text>
<text text-anchor="start" x="8" y="-777.5" font-family="Helvetica,sans-Serif" font-size="10.00">+ close()</text>
<text text-anchor="start" x="8" y="-766.5" font-family="Helvetica,sans-Serif" font-size="10.00">+ doGarbageCollection()</text>
<text text-anchor="start" x="8" y="-755.5" font-family="Helvetica,sans-Serif" font-size="10.00">+ getAllChunks()</text>
<text text-anchor="start" x="8" y="-744.5" font-family="Helvetica,sans-Serif" font-size="10.00">+ getPath()</text>
<text text-anchor="start" x="8" y="-733.5" font-family="Helvetica,sans-Serif" font-size="10.00">+ getWorldData()</text>
<text text-anchor="start" x="8" y="-722.5" font-family="Helvetica,sans-Serif" font-size="10.00">+ getWorldMaxY()</text>
<text text-anchor="start" x="8" y="-711.5" font-family="Helvetica,sans-Serif" font-size="10.00">+ getWorldMinY()</text>
<text text-anchor="start" x="8" y="-700.5" font-family="Helvetica,sans-Serif" font-size="10.00">+ loadChunk()</text>
</a>
</g>
</g>
<!-- Node4&#45;&gt;Node3 -->
<g id="edge3" class="edge">
<title>Node4&#45;&gt;Node3</title>
<path fill="none" stroke="midnightblue" d="M119.5,-684.19C128.92,-667.77 138.68,-650.75 147.8,-634.84"/>
<polygon fill="none" stroke="midnightblue" points="116.25,-682.82 114.31,-693.23 122.32,-686.3 116.25,-682.82"/>
</g>
<!-- Node6 -->
<g id="node6" class="node">
<title>Node6</title>
<g id="a_node6"><a xlink:href="../../d1/d1b/interfacepocketmine_1_1world_1_1format_1_1io_1_1_writable_world_provider.html" target="_top" xlink:title=" ">
<polygon fill="white" stroke="#bfbfbf" points="1.5,-402.5 1.5,-470.5 142.5,-470.5 142.5,-402.5 1.5,-402.5"/>
<text text-anchor="start" x="9.5" y="-458.5" font-family="Helvetica,sans-Serif" font-size="10.00">pocketmine\world\format</text>
<text text-anchor="middle" x="72" y="-447.5" font-family="Helvetica,sans-Serif" font-size="10.00">\io\WritableWorldProvider</text>
<polyline fill="none" stroke="#bfbfbf" points="1.5,-440.5 142.5,-440.5 "/>
<text text-anchor="middle" x="72" y="-428.5" font-family="Helvetica,sans-Serif" font-size="10.00"> </text>
<polyline fill="none" stroke="#bfbfbf" points="1.5,-421.5 142.5,-421.5 "/>
<text text-anchor="start" x="9.5" y="-409.5" font-family="Helvetica,sans-Serif" font-size="10.00">+ saveChunk()</text>
</a>
</g>
</g>
<!-- Node4&#45;&gt;Node6 -->
<g id="edge6" class="edge">
<title>Node4&#45;&gt;Node6</title>
<path fill="none" stroke="midnightblue" d="M70.52,-683.19C70.94,-613.63 71.5,-520.05 71.8,-470.88"/>
<polygon fill="none" stroke="midnightblue" points="67.02,-683.25 70.46,-693.27 74.02,-683.29 67.02,-683.25"/>
</g>
<!-- Node5 -->
<g id="node5" class="node">
<title>Node5</title>
<g id="a_node5"><a xlink:href="../../d7/d4e/interfacepocketmine_1_1world_1_1format_1_1io_1_1_world_data.html" target="_top" xlink:title=" ">
<polygon fill="white" stroke="#bfbfbf" points="158,-682.5 158,-860.5 298,-860.5 298,-682.5 158,-682.5"/>
<text text-anchor="start" x="166" y="-848.5" font-family="Helvetica,sans-Serif" font-size="10.00">pocketmine\world\format</text>
<text text-anchor="middle" x="228" y="-837.5" font-family="Helvetica,sans-Serif" font-size="10.00">\io\WorldData</text>
<polyline fill="none" stroke="#bfbfbf" points="158,-830.5 298,-830.5 "/>
<text text-anchor="middle" x="228" y="-818.5" font-family="Helvetica,sans-Serif" font-size="10.00"> </text>
<polyline fill="none" stroke="#bfbfbf" points="158,-811.5 298,-811.5 "/>
<text text-anchor="start" x="166" y="-799.5" font-family="Helvetica,sans-Serif" font-size="10.00">+ getDifficulty()</text>
<text text-anchor="start" x="166" y="-788.5" font-family="Helvetica,sans-Serif" font-size="10.00">+ getGenerator()</text>
<text text-anchor="start" x="166" y="-777.5" font-family="Helvetica,sans-Serif" font-size="10.00">+ getGeneratorOptions()</text>
<text text-anchor="start" x="166" y="-766.5" font-family="Helvetica,sans-Serif" font-size="10.00">+ getLightningLevel()</text>
<text text-anchor="start" x="166" y="-755.5" font-family="Helvetica,sans-Serif" font-size="10.00">+ getLightningTime()</text>
<text text-anchor="start" x="166" y="-744.5" font-family="Helvetica,sans-Serif" font-size="10.00">+ getName()</text>
<text text-anchor="start" x="166" y="-733.5" font-family="Helvetica,sans-Serif" font-size="10.00">+ getRainLevel()</text>
<text text-anchor="start" x="166" y="-722.5" font-family="Helvetica,sans-Serif" font-size="10.00">+ getRainTime()</text>
<text text-anchor="start" x="166" y="-711.5" font-family="Helvetica,sans-Serif" font-size="10.00">+ getSeed()</text>
<text text-anchor="start" x="166" y="-700.5" font-family="Helvetica,sans-Serif" font-size="10.00">+ getSpawn()</text>
<text text-anchor="start" x="166" y="-689.5" font-family="Helvetica,sans-Serif" font-size="10.00">and 9 more...</text>
</a>
</g>
</g>
<!-- Node5&#45;&gt;Node3 -->
<g id="edge4" class="edge">
<title>Node5&#45;&gt;Node3</title>
<path fill="none" stroke="#404040" d="M211.4,-682.2C209.19,-670.41 206.92,-658.35 204.72,-646.64"/>
<polygon fill="none" stroke="#404040" points="204.67,-646.39 199.63,-641.24 202.46,-634.6 207.5,-639.76 204.67,-646.39"/>
<text text-anchor="middle" x="242" y="-656" font-family="Helvetica,sans-Serif" font-size="10.00"> #$worldData</text>
</g>
<!-- Node6&#45;&gt;Node1 -->
<g id="edge5" class="edge">
<title>Node6&#45;&gt;Node1</title>
<path fill="none" stroke="midnightblue" d="M74.09,-392.26C77.17,-334.41 83.81,-228.71 95,-139 96.52,-126.83 98.55,-113.77 100.63,-101.57"/>
<polygon fill="none" stroke="midnightblue" points="70.58,-392.32 73.55,-402.49 77.57,-392.69 70.58,-392.32"/>
</g>
</g>
</svg>
        <g id="navigator" transform="translate(0 0)" fill="#404254">
                <rect fill="#f2f5e9" fill-opacity="0.5" stroke="#606060" stroke-width=".5" x="0" y="0" width="60" height="60"/>
                <use id="zoomplus" xlink:href="#zoomPlus" x="17" y="9" onmousedown="handleZoom(evt,'in')"/>
                <use id="zoomminus" xlink:href="#zoomMin" x="42" y="9" onmousedown="handleZoom(evt,'out')"/>
                <use id="reset" xlink:href="#resetDef" x="30" y="36" onmousedown="handleReset()"/>
                <g id="arrowUp" xlink:href="#dirArrow" transform="translate(30 24)" onmousedown="handlePan(0,-1)">
                  <use xlink:href="#rim" fill="#404040">
                        <set attributeName="fill" to="#808080" begin="arrowUp.mouseover" end="arrowUp.mouseout"/>
                  </use>
                  <path fill="none" stroke="white" stroke-width="1.5" d="M0,-3.0v7 M-2.5,-0.5L0,-3.0L2.5,-0.5"/>
                </g>
                <g id="arrowRight" xlink:href="#dirArrow" transform="rotate(90) translate(36 -43)" onmousedown="handlePan(1,0)">
                  <use xlink:href="#rim" fill="#404040">
                        <set attributeName="fill" to="#808080" begin="arrowRight.mouseover" end="arrowRight.mouseout"/>
                  </use>
                  <path fill="none" stroke="white" stroke-width="1.5" d="M0,-3.0v7 M-2.5,-0.5L0,-3.0L2.5,-0.5"/>
                </g>
                <g id="arrowDown" xlink:href="#dirArrow" transform="rotate(180) translate(-30 -48)" onmousedown="handlePan(0,1)">
                  <use xlink:href="#rim" fill="#404040">
                        <set attributeName="fill" to="#808080" begin="arrowDown.mouseover" end="arrowDown.mouseout"/>
                  </use>
                  <path fill="none" stroke="white" stroke-width="1.5" d="M0,-3.0v7 M-2.5,-0.5L0,-3.0L2.5,-0.5"/>
                </g>
                <g id="arrowLeft" xlink:href="#dirArrow" transform="rotate(270) translate(-36 17)" onmousedown="handlePan(-1,0)">
                  <use xlink:href="#rim" fill="#404040">
                        <set attributeName="fill" to="#808080" begin="arrowLeft.mouseover" end="arrowLeft.mouseout"/>
                  </use>
                  <path fill="none" stroke="white" stroke-width="1.5" d="M0,-3.0v7 M-2.5,-0.5L0,-3.0L2.5,-0.5"/>
                </g>
        </g>
        <svg viewBox="0 0 15 15" width="100%" height="30px" preserveAspectRatio="xMaxYMin meet">
         <g id="arrow_out" transform="scale(0.3 0.3)">
          <a xlink:href="classpocketmine_1_1world_1_1format_1_1io_1_1region_1_1_writable_region_world_provider__coll__graph_org.svg" target="_base">
           <rect id="button" ry="5" rx="5" y="6" x="6" height="38" width="38"
                fill="#f2f5e9" fill-opacity="0.5" stroke="#606060" stroke-width="1.0"/>
           <path id="arrow"
             d="M 11.500037,31.436501 C 11.940474,20.09759 22.043105,11.32322 32.158766,21.979434 L 37.068811,17.246167 C 37.068811,17.246167 37.088388,32 37.088388,32 L 22.160133,31.978069 C 22.160133,31.978069 26.997745,27.140456 26.997745,27.140456 C 18.528582,18.264221 13.291696,25.230495 11.500037,31.436501 z"
             style="fill:#404040;"/>
          </a>
         </g>
        </svg>
</svg>
