<?xml version="1.0" encoding="UTF-8" standalone="no"?>
<!DOCTYPE svg PUBLIC "-//W3C//DTD SVG 1.1//EN"
 "http://www.w3.org/Graphics/SVG/1.1/DTD/svg11.dtd">
<!-- Generated by graphviz version 2.43.0 (0)
 -->
<!-- Title: pocketmine\block\inventory\BlockInventory Pages: 1 -->
<!--zoomable 303 -->
<svg id="main" version="1.1" xmlns="http://www.w3.org/2000/svg" xmlns:xlink="http://www.w3.org/1999/xlink" xml:space="preserve" onload="init(evt)">
<style type="text/css"><![CDATA[
.edge:hover path { stroke: red; }
.edge:hover polygon { stroke: red; fill: red; }
]]></style>
<script type="text/javascript"><![CDATA[
var edges = document.getElementsByTagName('g');
if (edges && edges.length) {
  for (var i=0;i<edges.length;i++) {
    if (edges[i].id.substr(0,4)=='edge') {
      edges[i].setAttribute('class','edge');
    }
  }
}
]]></script>
        <defs>
                <circle id="rim" cx="0" cy="0" r="7"/>
                <circle id="rim2" cx="0" cy="0" r="3.5"/>
                <g id="zoomPlus">
                        <use xlink:href="#rim" fill="#404040">
                                <set attributeName="fill" to="#808080" begin="zoomplus.mouseover" end="zoomplus.mouseout"/>
                        </use>
                        <path d="M-4,0h8M0,-4v8" fill="none" stroke="white" stroke-width="1.5" pointer-events="none"/>
                </g>
                <g id="zoomMin">
                        <use xlink:href="#rim" fill="#404040">
                                <set attributeName="fill" to="#808080" begin="zoomminus.mouseover" end="zoomminus.mouseout"/>
                        </use>
                        <path d="M-4,0h8" fill="none" stroke="white" stroke-width="1.5" pointer-events="none"/>
                </g>
                <g id="dirArrow">
                        <path fill="none" stroke="white" stroke-width="1.5" d="M0,-3.0v7 M-2.5,-0.5L0,-3.0L2.5,-0.5"/>
                </g>
               <g id="resetDef">
                       <use xlink:href="#rim2" fill="#404040">
                               <set attributeName="fill" to="#808080" begin="reset.mouseover" end="reset.mouseout"/>
                       </use>
               </g>
        </defs>

<script type="text/javascript">
var viewWidth = 2540;
var viewHeight = 303;
var sectionId = 'dynsection-0';
</script>
<script xlink:href="../../svgpan.js"/>
<svg id="graph" class="graph">
<g id="viewport">
<title>pocketmine\block\inventory\BlockInventory</title>
<polygon fill="white" stroke="transparent" points="-4,4 -4,-299 2536,-299 2536,4 -4,4"/>
<!-- Node1 -->
<g id="node1" class="node">
<title>Node1</title>
<g id="a_node1"><a xlink:title=" ">
<polygon fill="#bfbfbf" stroke="black" points="1190,-226.5 1190,-294.5 1342,-294.5 1342,-226.5 1190,-226.5"/>
<text text-anchor="start" x="1198" y="-282.5" font-family="Helvetica,sans-Serif" font-size="10.00">pocketmine\block\inventory</text>
<text text-anchor="middle" x="1266" y="-271.5" font-family="Helvetica,sans-Serif" font-size="10.00">\BlockInventory</text>
<polyline fill="none" stroke="black" points="1190,-264.5 1342,-264.5 "/>
<text text-anchor="middle" x="1266" y="-252.5" font-family="Helvetica,sans-Serif" font-size="10.00"> </text>
<polyline fill="none" stroke="black" points="1190,-245.5 1342,-245.5 "/>
<text text-anchor="start" x="1198" y="-233.5" font-family="Helvetica,sans-Serif" font-size="10.00">+ getHolder()</text>
</a>
</g>
</g>
<!-- Node2 -->
<g id="node2" class="node">
<title>Node2</title>
<g id="a_node2"><a xlink:href="../../d6/d6d/classpocketmine_1_1block_1_1inventory_1_1_anvil_inventory.html" target="_top" xlink:title=" ">
<polygon fill="white" stroke="#bfbfbf" points="0,-55.5 0,-134.5 152,-134.5 152,-55.5 0,-55.5"/>
<text text-anchor="start" x="8" y="-122.5" font-family="Helvetica,sans-Serif" font-size="10.00">pocketmine\block\inventory</text>
<text text-anchor="middle" x="76" y="-111.5" font-family="Helvetica,sans-Serif" font-size="10.00">\AnvilInventory</text>
<polyline fill="none" stroke="#bfbfbf" points="0,-104.5 152,-104.5 "/>
<text text-anchor="start" x="8" y="-92.5" font-family="Helvetica,sans-Serif" font-size="10.00">+ SLOT_INPUT</text>
<text text-anchor="start" x="8" y="-81.5" font-family="Helvetica,sans-Serif" font-size="10.00">+ SLOT_MATERIAL</text>
<polyline fill="none" stroke="#bfbfbf" points="0,-74.5 152,-74.5 "/>
<text text-anchor="start" x="8" y="-62.5" font-family="Helvetica,sans-Serif" font-size="10.00">+ __construct()</text>
</a>
</g>
</g>
<!-- Node1&#45;&gt;Node2 -->
<g id="edge1" class="edge">
<title>Node1&#45;&gt;Node2</title>
<path fill="none" stroke="midnightblue" d="M1179.68,-257.8C935.52,-252.47 251.79,-233.77 161,-190 136.03,-177.96 115.05,-155 100.18,-134.79"/>
<polygon fill="none" stroke="midnightblue" points="1179.85,-261.3 1189.92,-258.02 1180,-254.31 1179.85,-261.3"/>
</g>
<!-- Node3 -->
<g id="node3" class="node">
<title>Node3</title>
<g id="a_node3"><a xlink:href="../../d6/d7b/classpocketmine_1_1block_1_1inventory_1_1_barrel_inventory.html" target="_top" xlink:title=" ">
<polygon fill="white" stroke="#bfbfbf" points="170,-44.5 170,-145.5 322,-145.5 322,-44.5 170,-44.5"/>
<text text-anchor="start" x="178" y="-133.5" font-family="Helvetica,sans-Serif" font-size="10.00">pocketmine\block\inventory</text>
<text text-anchor="middle" x="246" y="-122.5" font-family="Helvetica,sans-Serif" font-size="10.00">\BarrelInventory</text>
<polyline fill="none" stroke="#bfbfbf" points="170,-115.5 322,-115.5 "/>
<text text-anchor="middle" x="246" y="-103.5" font-family="Helvetica,sans-Serif" font-size="10.00"> </text>
<polyline fill="none" stroke="#bfbfbf" points="170,-96.5 322,-96.5 "/>
<text text-anchor="start" x="178" y="-84.5" font-family="Helvetica,sans-Serif" font-size="10.00">+ __construct()</text>
<text text-anchor="start" x="178" y="-73.5" font-family="Helvetica,sans-Serif" font-size="10.00"># animateBlock()</text>
<text text-anchor="start" x="178" y="-62.5" font-family="Helvetica,sans-Serif" font-size="10.00"># getCloseSound()</text>
<text text-anchor="start" x="178" y="-51.5" font-family="Helvetica,sans-Serif" font-size="10.00"># getOpenSound()</text>
</a>
</g>
</g>
<!-- Node1&#45;&gt;Node3 -->
<g id="edge2" class="edge">
<title>Node1&#45;&gt;Node3</title>
<path fill="none" stroke="midnightblue" d="M1179.54,-256.73C962.4,-249.25 406.07,-226.72 331,-190 310.64,-180.04 292.91,-162.88 278.98,-145.92"/>
<polygon fill="none" stroke="midnightblue" points="1179.51,-260.23 1189.62,-257.07 1179.75,-253.23 1179.51,-260.23"/>
</g>
<!-- Node4 -->
<g id="node4" class="node">
<title>Node4</title>
<g id="a_node4"><a xlink:href="../../db/d3b/classpocketmine_1_1block_1_1inventory_1_1_brewing_stand_inventory.html" target="_top" xlink:title=" ">
<polygon fill="white" stroke="#bfbfbf" points="340,-39 340,-151 492,-151 492,-39 340,-39"/>
<text text-anchor="start" x="348" y="-139" font-family="Helvetica,sans-Serif" font-size="10.00">pocketmine\block\inventory</text>
<text text-anchor="middle" x="416" y="-128" font-family="Helvetica,sans-Serif" font-size="10.00">\BrewingStandInventory</text>
<polyline fill="none" stroke="#bfbfbf" points="340,-121 492,-121 "/>
<text text-anchor="start" x="348" y="-109" font-family="Helvetica,sans-Serif" font-size="10.00">+ SLOT_BOTTLE_LEFT</text>
<text text-anchor="start" x="348" y="-98" font-family="Helvetica,sans-Serif" font-size="10.00">+ SLOT_BOTTLE_MIDDLE</text>
<text text-anchor="start" x="348" y="-87" font-family="Helvetica,sans-Serif" font-size="10.00">+ SLOT_BOTTLE_RIGHT</text>
<text text-anchor="start" x="348" y="-76" font-family="Helvetica,sans-Serif" font-size="10.00">+ SLOT_FUEL</text>
<text text-anchor="start" x="348" y="-65" font-family="Helvetica,sans-Serif" font-size="10.00">+ SLOT_INGREDIENT</text>
<polyline fill="none" stroke="#bfbfbf" points="340,-58 492,-58 "/>
<text text-anchor="start" x="348" y="-46" font-family="Helvetica,sans-Serif" font-size="10.00">+ __construct()</text>
</a>
</g>
</g>
<!-- Node1&#45;&gt;Node4 -->
<g id="edge3" class="edge">
<title>Node1&#45;&gt;Node4</title>
<path fill="none" stroke="midnightblue" d="M1179.8,-259.46C1005.57,-258.14 618.13,-248.49 501,-190 482.89,-180.96 466.82,-166.27 453.66,-151.17"/>
<polygon fill="none" stroke="midnightblue" points="1179.93,-262.97 1189.96,-259.53 1179.98,-255.97 1179.93,-262.97"/>
</g>
<!-- Node5 -->
<g id="node5" class="node">
<title>Node5</title>
<g id="a_node5"><a xlink:href="../../db/d85/classpocketmine_1_1block_1_1inventory_1_1_cartography_table_inventory.html" target="_top" xlink:title=" ">
<polygon fill="white" stroke="#bfbfbf" points="510,-61 510,-129 662,-129 662,-61 510,-61"/>
<text text-anchor="start" x="518" y="-117" font-family="Helvetica,sans-Serif" font-size="10.00">pocketmine\block\inventory</text>
<text text-anchor="middle" x="586" y="-106" font-family="Helvetica,sans-Serif" font-size="10.00">\CartographyTableInventory</text>
<polyline fill="none" stroke="#bfbfbf" points="510,-99 662,-99 "/>
<text text-anchor="middle" x="586" y="-87" font-family="Helvetica,sans-Serif" font-size="10.00"> </text>
<polyline fill="none" stroke="#bfbfbf" points="510,-80 662,-80 "/>
<text text-anchor="start" x="518" y="-68" font-family="Helvetica,sans-Serif" font-size="10.00">+ __construct()</text>
</a>
</g>
</g>
<!-- Node1&#45;&gt;Node5 -->
<g id="edge4" class="edge">
<title>Node1&#45;&gt;Node5</title>
<path fill="none" stroke="midnightblue" d="M1179.89,-256.84C1036.92,-251.21 757.72,-234.7 671,-190 644.21,-176.19 621.75,-150.24 606.66,-129.1"/>
<polygon fill="none" stroke="midnightblue" points="1179.82,-260.34 1189.94,-257.23 1180.09,-253.35 1179.82,-260.34"/>
</g>
<!-- Node6 -->
<g id="node6" class="node">
<title>Node6</title>
<g id="a_node6"><a xlink:href="../../da/d24/classpocketmine_1_1block_1_1inventory_1_1_chest_inventory.html" target="_top" xlink:title=" ">
<polygon fill="white" stroke="#bfbfbf" points="680,-44.5 680,-145.5 832,-145.5 832,-44.5 680,-44.5"/>
<text text-anchor="start" x="688" y="-133.5" font-family="Helvetica,sans-Serif" font-size="10.00">pocketmine\block\inventory</text>
<text text-anchor="middle" x="756" y="-122.5" font-family="Helvetica,sans-Serif" font-size="10.00">\ChestInventory</text>
<polyline fill="none" stroke="#bfbfbf" points="680,-115.5 832,-115.5 "/>
<text text-anchor="middle" x="756" y="-103.5" font-family="Helvetica,sans-Serif" font-size="10.00"> </text>
<polyline fill="none" stroke="#bfbfbf" points="680,-96.5 832,-96.5 "/>
<text text-anchor="start" x="688" y="-84.5" font-family="Helvetica,sans-Serif" font-size="10.00">+ __construct()</text>
<text text-anchor="start" x="688" y="-73.5" font-family="Helvetica,sans-Serif" font-size="10.00">+ animateBlock()</text>
<text text-anchor="start" x="688" y="-62.5" font-family="Helvetica,sans-Serif" font-size="10.00"># getCloseSound()</text>
<text text-anchor="start" x="688" y="-51.5" font-family="Helvetica,sans-Serif" font-size="10.00"># getOpenSound()</text>
</a>
</g>
</g>
<!-- Node1&#45;&gt;Node6 -->
<g id="edge5" class="edge">
<title>Node1&#45;&gt;Node6</title>
<path fill="none" stroke="midnightblue" d="M1179.6,-252.15C1072.73,-241.9 897.92,-221.01 841,-190 821.49,-179.37 804.14,-162.49 790.29,-145.96"/>
<polygon fill="none" stroke="midnightblue" points="1179.44,-255.65 1189.73,-253.11 1180.1,-248.68 1179.44,-255.65"/>
</g>
<!-- Node7 -->
<g id="node7" class="node">
<title>Node7</title>
<g id="a_node7"><a xlink:href="../../de/def/classpocketmine_1_1block_1_1inventory_1_1_crafting_table_inventory.html" target="_top" xlink:title=" ">
<polygon fill="white" stroke="#bfbfbf" points="850,-61 850,-129 1002,-129 1002,-61 850,-61"/>
<text text-anchor="start" x="858" y="-117" font-family="Helvetica,sans-Serif" font-size="10.00">pocketmine\block\inventory</text>
<text text-anchor="middle" x="926" y="-106" font-family="Helvetica,sans-Serif" font-size="10.00">\CraftingTableInventory</text>
<polyline fill="none" stroke="#bfbfbf" points="850,-99 1002,-99 "/>
<text text-anchor="middle" x="926" y="-87" font-family="Helvetica,sans-Serif" font-size="10.00"> </text>
<polyline fill="none" stroke="#bfbfbf" points="850,-80 1002,-80 "/>
<text text-anchor="start" x="858" y="-68" font-family="Helvetica,sans-Serif" font-size="10.00">+ __construct()</text>
</a>
</g>
</g>
<!-- Node1&#45;&gt;Node7 -->
<g id="edge6" class="edge">
<title>Node1&#45;&gt;Node7</title>
<path fill="none" stroke="midnightblue" d="M1179.96,-248.54C1128.08,-239 1062.33,-221.53 1011,-190 985.88,-174.57 963.77,-149.54 948.4,-129.18"/>
<polygon fill="none" stroke="midnightblue" points="1179.35,-251.99 1189.81,-250.29 1180.57,-245.09 1179.35,-251.99"/>
</g>
<!-- Node8 -->
<g id="node8" class="node">
<title>Node8</title>
<g id="a_node8"><a xlink:href="../../d3/d26/classpocketmine_1_1block_1_1inventory_1_1_double_chest_inventory.html" target="_top" xlink:title=" ">
<polygon fill="white" stroke="#bfbfbf" points="1020,-0.5 1020,-189.5 1172,-189.5 1172,-0.5 1020,-0.5"/>
<text text-anchor="start" x="1028" y="-177.5" font-family="Helvetica,sans-Serif" font-size="10.00">pocketmine\block\inventory</text>
<text text-anchor="middle" x="1096" y="-166.5" font-family="Helvetica,sans-Serif" font-size="10.00">\DoubleChestInventory</text>
<polyline fill="none" stroke="#bfbfbf" points="1020,-159.5 1172,-159.5 "/>
<text text-anchor="middle" x="1096" y="-147.5" font-family="Helvetica,sans-Serif" font-size="10.00"> </text>
<polyline fill="none" stroke="#bfbfbf" points="1020,-140.5 1172,-140.5 "/>
<text text-anchor="start" x="1028" y="-128.5" font-family="Helvetica,sans-Serif" font-size="10.00">+ __construct()</text>
<text text-anchor="start" x="1028" y="-117.5" font-family="Helvetica,sans-Serif" font-size="10.00">+ getContents()</text>
<text text-anchor="start" x="1028" y="-106.5" font-family="Helvetica,sans-Serif" font-size="10.00">+ getInventory()</text>
<text text-anchor="start" x="1028" y="-95.5" font-family="Helvetica,sans-Serif" font-size="10.00">+ getItem()</text>
<text text-anchor="start" x="1028" y="-84.5" font-family="Helvetica,sans-Serif" font-size="10.00">+ getLeftSide()</text>
<text text-anchor="start" x="1028" y="-73.5" font-family="Helvetica,sans-Serif" font-size="10.00">+ getRightSide()</text>
<text text-anchor="start" x="1028" y="-62.5" font-family="Helvetica,sans-Serif" font-size="10.00">+ getSize()</text>
<text text-anchor="start" x="1028" y="-51.5" font-family="Helvetica,sans-Serif" font-size="10.00"># animateBlock()</text>
<text text-anchor="start" x="1028" y="-40.5" font-family="Helvetica,sans-Serif" font-size="10.00"># getCloseSound()</text>
<text text-anchor="start" x="1028" y="-29.5" font-family="Helvetica,sans-Serif" font-size="10.00"># getOpenSound()</text>
<text text-anchor="start" x="1028" y="-18.5" font-family="Helvetica,sans-Serif" font-size="10.00"># internalSetContents()</text>
<text text-anchor="start" x="1028" y="-7.5" font-family="Helvetica,sans-Serif" font-size="10.00"># internalSetItem()</text>
</a>
</g>
</g>
<!-- Node1&#45;&gt;Node8 -->
<g id="edge7" class="edge">
<title>Node1&#45;&gt;Node8</title>
<path fill="none" stroke="midnightblue" d="M1215.12,-219.99C1203.62,-210.49 1191.66,-200.14 1181,-190 1178.13,-187.27 1175.24,-184.46 1172.36,-181.59"/>
<polygon fill="none" stroke="midnightblue" points="1213.04,-222.8 1223,-226.42 1217.47,-217.38 1213.04,-222.8"/>
</g>
<!-- Node9 -->
<g id="node9" class="node">
<title>Node9</title>
<g id="a_node9"><a xlink:href="../../d6/d4e/classpocketmine_1_1block_1_1inventory_1_1_enchant_inventory.html" target="_top" xlink:title=" ">
<polygon fill="white" stroke="#bfbfbf" points="1190,-55.5 1190,-134.5 1342,-134.5 1342,-55.5 1190,-55.5"/>
<text text-anchor="start" x="1198" y="-122.5" font-family="Helvetica,sans-Serif" font-size="10.00">pocketmine\block\inventory</text>
<text text-anchor="middle" x="1266" y="-111.5" font-family="Helvetica,sans-Serif" font-size="10.00">\EnchantInventory</text>
<polyline fill="none" stroke="#bfbfbf" points="1190,-104.5 1342,-104.5 "/>
<text text-anchor="start" x="1198" y="-92.5" font-family="Helvetica,sans-Serif" font-size="10.00">+ SLOT_INPUT</text>
<text text-anchor="start" x="1198" y="-81.5" font-family="Helvetica,sans-Serif" font-size="10.00">+ SLOT_LAPIS</text>
<polyline fill="none" stroke="#bfbfbf" points="1190,-74.5 1342,-74.5 "/>
<text text-anchor="start" x="1198" y="-62.5" font-family="Helvetica,sans-Serif" font-size="10.00">+ __construct()</text>
</a>
</g>
</g>
<!-- Node1&#45;&gt;Node9 -->
<g id="edge8" class="edge">
<title>Node1&#45;&gt;Node9</title>
<path fill="none" stroke="midnightblue" d="M1266,-216.35C1266,-191.03 1266,-159.31 1266,-134.79"/>
<polygon fill="none" stroke="midnightblue" points="1262.5,-216.41 1266,-226.41 1269.5,-216.41 1262.5,-216.41"/>
</g>
<!-- Node10 -->
<g id="node10" class="node">
<title>Node10</title>
<g id="a_node10"><a xlink:href="../../d5/dd0/classpocketmine_1_1block_1_1inventory_1_1_ender_chest_inventory.html" target="_top" xlink:title=" ">
<polygon fill="white" stroke="black" points="1360,-28 1360,-162 1512,-162 1512,-28 1360,-28"/>
<text text-anchor="start" x="1368" y="-150" font-family="Helvetica,sans-Serif" font-size="10.00">pocketmine\block\inventory</text>
<text text-anchor="middle" x="1436" y="-139" font-family="Helvetica,sans-Serif" font-size="10.00">\EnderChestInventory</text>
<polyline fill="none" stroke="black" points="1360,-132 1512,-132 "/>
<text text-anchor="middle" x="1436" y="-120" font-family="Helvetica,sans-Serif" font-size="10.00"> </text>
<polyline fill="none" stroke="black" points="1360,-113 1512,-113 "/>
<text text-anchor="start" x="1368" y="-101" font-family="Helvetica,sans-Serif" font-size="10.00">+ __construct()</text>
<text text-anchor="start" x="1368" y="-90" font-family="Helvetica,sans-Serif" font-size="10.00">+ getEnderInventory()</text>
<text text-anchor="start" x="1368" y="-79" font-family="Helvetica,sans-Serif" font-size="10.00">+ getViewerCount()</text>
<text text-anchor="start" x="1368" y="-68" font-family="Helvetica,sans-Serif" font-size="10.00">+ onClose()</text>
<text text-anchor="start" x="1368" y="-57" font-family="Helvetica,sans-Serif" font-size="10.00"># animateBlock()</text>
<text text-anchor="start" x="1368" y="-46" font-family="Helvetica,sans-Serif" font-size="10.00"># getCloseSound()</text>
<text text-anchor="start" x="1368" y="-35" font-family="Helvetica,sans-Serif" font-size="10.00"># getOpenSound()</text>
</a>
</g>
</g>
<!-- Node1&#45;&gt;Node10 -->
<g id="edge9" class="edge">
<title>Node1&#45;&gt;Node10</title>
<path fill="none" stroke="midnightblue" d="M1316.88,-219.99C1328.38,-210.49 1340.34,-200.14 1351,-190 1360.09,-181.36 1369.34,-171.9 1378.24,-162.42"/>
<polygon fill="none" stroke="midnightblue" points="1314.53,-217.38 1309,-226.42 1318.96,-222.8 1314.53,-217.38"/>
</g>
<!-- Node11 -->
<g id="node11" class="node">
<title>Node11</title>
<g id="a_node11"><a xlink:href="../../d8/d69/classpocketmine_1_1block_1_1inventory_1_1_furnace_inventory.html" target="_top" xlink:title=" ">
<polygon fill="white" stroke="#bfbfbf" points="1530,-11.5 1530,-178.5 1682,-178.5 1682,-11.5 1530,-11.5"/>
<text text-anchor="start" x="1538" y="-166.5" font-family="Helvetica,sans-Serif" font-size="10.00">pocketmine\block\inventory</text>
<text text-anchor="middle" x="1606" y="-155.5" font-family="Helvetica,sans-Serif" font-size="10.00">\FurnaceInventory</text>
<polyline fill="none" stroke="#bfbfbf" points="1530,-148.5 1682,-148.5 "/>
<text text-anchor="start" x="1538" y="-136.5" font-family="Helvetica,sans-Serif" font-size="10.00">+ SLOT_FUEL</text>
<text text-anchor="start" x="1538" y="-125.5" font-family="Helvetica,sans-Serif" font-size="10.00">+ SLOT_INPUT</text>
<text text-anchor="start" x="1538" y="-114.5" font-family="Helvetica,sans-Serif" font-size="10.00">+ SLOT_RESULT</text>
<polyline fill="none" stroke="#bfbfbf" points="1530,-107.5 1682,-107.5 "/>
<text text-anchor="start" x="1538" y="-95.5" font-family="Helvetica,sans-Serif" font-size="10.00">+ __construct()</text>
<text text-anchor="start" x="1538" y="-84.5" font-family="Helvetica,sans-Serif" font-size="10.00">+ getFuel()</text>
<text text-anchor="start" x="1538" y="-73.5" font-family="Helvetica,sans-Serif" font-size="10.00">+ getFurnaceType()</text>
<text text-anchor="start" x="1538" y="-62.5" font-family="Helvetica,sans-Serif" font-size="10.00">+ getResult()</text>
<text text-anchor="start" x="1538" y="-51.5" font-family="Helvetica,sans-Serif" font-size="10.00">+ getSmelting()</text>
<text text-anchor="start" x="1538" y="-40.5" font-family="Helvetica,sans-Serif" font-size="10.00">+ setFuel()</text>
<text text-anchor="start" x="1538" y="-29.5" font-family="Helvetica,sans-Serif" font-size="10.00">+ setResult()</text>
<text text-anchor="start" x="1538" y="-18.5" font-family="Helvetica,sans-Serif" font-size="10.00">+ setSmelting()</text>
</a>
</g>
</g>
<!-- Node1&#45;&gt;Node11 -->
<g id="edge10" class="edge">
<title>Node1&#45;&gt;Node11</title>
<path fill="none" stroke="midnightblue" d="M1352.04,-248.54C1403.92,-239 1469.67,-221.53 1521,-190 1526.53,-186.6 1531.92,-182.74 1537.11,-178.56"/>
<polygon fill="none" stroke="midnightblue" points="1351.43,-245.09 1342.19,-250.29 1352.65,-251.99 1351.43,-245.09"/>
</g>
<!-- Node12 -->
<g id="node12" class="node">
<title>Node12</title>
<g id="a_node12"><a xlink:href="../../d0/dc5/classpocketmine_1_1block_1_1inventory_1_1_hopper_inventory.html" target="_top" xlink:title=" ">
<polygon fill="white" stroke="#bfbfbf" points="1700,-61 1700,-129 1852,-129 1852,-61 1700,-61"/>
<text text-anchor="start" x="1708" y="-117" font-family="Helvetica,sans-Serif" font-size="10.00">pocketmine\block\inventory</text>
<text text-anchor="middle" x="1776" y="-106" font-family="Helvetica,sans-Serif" font-size="10.00">\HopperInventory</text>
<polyline fill="none" stroke="#bfbfbf" points="1700,-99 1852,-99 "/>
<text text-anchor="middle" x="1776" y="-87" font-family="Helvetica,sans-Serif" font-size="10.00"> </text>
<polyline fill="none" stroke="#bfbfbf" points="1700,-80 1852,-80 "/>
<text text-anchor="start" x="1708" y="-68" font-family="Helvetica,sans-Serif" font-size="10.00">+ __construct()</text>
</a>
</g>
</g>
<!-- Node1&#45;&gt;Node12 -->
<g id="edge11" class="edge">
<title>Node1&#45;&gt;Node12</title>
<path fill="none" stroke="midnightblue" d="M1352.4,-252.15C1459.27,-241.9 1634.08,-221.01 1691,-190 1717.28,-175.68 1739.62,-150.05 1754.8,-129.16"/>
<polygon fill="none" stroke="midnightblue" points="1351.9,-248.68 1342.27,-253.11 1352.56,-255.65 1351.9,-248.68"/>
</g>
<!-- Node13 -->
<g id="node13" class="node">
<title>Node13</title>
<g id="a_node13"><a xlink:href="../../db/d8d/classpocketmine_1_1block_1_1inventory_1_1_loom_inventory.html" target="_top" xlink:title=" ">
<polygon fill="white" stroke="#bfbfbf" points="1870,-50 1870,-140 2022,-140 2022,-50 1870,-50"/>
<text text-anchor="start" x="1878" y="-128" font-family="Helvetica,sans-Serif" font-size="10.00">pocketmine\block\inventory</text>
<text text-anchor="middle" x="1946" y="-117" font-family="Helvetica,sans-Serif" font-size="10.00">\LoomInventory</text>
<polyline fill="none" stroke="#bfbfbf" points="1870,-110 2022,-110 "/>
<text text-anchor="start" x="1878" y="-98" font-family="Helvetica,sans-Serif" font-size="10.00">+ SLOT_BANNER</text>
<text text-anchor="start" x="1878" y="-87" font-family="Helvetica,sans-Serif" font-size="10.00">+ SLOT_DYE</text>
<text text-anchor="start" x="1878" y="-76" font-family="Helvetica,sans-Serif" font-size="10.00">+ SLOT_PATTERN</text>
<polyline fill="none" stroke="#bfbfbf" points="1870,-69 2022,-69 "/>
<text text-anchor="start" x="1878" y="-57" font-family="Helvetica,sans-Serif" font-size="10.00">+ __construct()</text>
</a>
</g>
</g>
<!-- Node1&#45;&gt;Node13 -->
<g id="edge12" class="edge">
<title>Node1&#45;&gt;Node13</title>
<path fill="none" stroke="midnightblue" d="M1352.11,-256.84C1495.08,-251.21 1774.28,-234.7 1861,-190 1883.29,-178.51 1902.59,-158.61 1917.13,-140.07"/>
<polygon fill="none" stroke="midnightblue" points="1351.91,-253.35 1342.06,-257.23 1352.18,-260.34 1351.91,-253.35"/>
</g>
<!-- Node14 -->
<g id="node14" class="node">
<title>Node14</title>
<g id="a_node14"><a xlink:href="../../d4/db4/classpocketmine_1_1block_1_1inventory_1_1_shulker_box_inventory.html" target="_top" xlink:title=" ">
<polygon fill="white" stroke="#bfbfbf" points="2040,-39 2040,-151 2192,-151 2192,-39 2040,-39"/>
<text text-anchor="start" x="2048" y="-139" font-family="Helvetica,sans-Serif" font-size="10.00">pocketmine\block\inventory</text>
<text text-anchor="middle" x="2116" y="-128" font-family="Helvetica,sans-Serif" font-size="10.00">\ShulkerBoxInventory</text>
<polyline fill="none" stroke="#bfbfbf" points="2040,-121 2192,-121 "/>
<text text-anchor="middle" x="2116" y="-109" font-family="Helvetica,sans-Serif" font-size="10.00"> </text>
<polyline fill="none" stroke="#bfbfbf" points="2040,-102 2192,-102 "/>
<text text-anchor="start" x="2048" y="-90" font-family="Helvetica,sans-Serif" font-size="10.00">+ __construct()</text>
<text text-anchor="start" x="2048" y="-79" font-family="Helvetica,sans-Serif" font-size="10.00">+ canAddItem()</text>
<text text-anchor="start" x="2048" y="-68" font-family="Helvetica,sans-Serif" font-size="10.00"># animateBlock()</text>
<text text-anchor="start" x="2048" y="-57" font-family="Helvetica,sans-Serif" font-size="10.00"># getCloseSound()</text>
<text text-anchor="start" x="2048" y="-46" font-family="Helvetica,sans-Serif" font-size="10.00"># getOpenSound()</text>
</a>
</g>
</g>
<!-- Node1&#45;&gt;Node14 -->
<g id="edge13" class="edge">
<title>Node1&#45;&gt;Node14</title>
<path fill="none" stroke="midnightblue" d="M1352.2,-259.46C1526.43,-258.14 1913.87,-248.49 2031,-190 2049.11,-180.96 2065.18,-166.27 2078.34,-151.17"/>
<polygon fill="none" stroke="midnightblue" points="1352.02,-255.97 1342.04,-259.53 1352.07,-262.97 1352.02,-255.97"/>
</g>
<!-- Node15 -->
<g id="node15" class="node">
<title>Node15</title>
<g id="a_node15"><a xlink:href="../../dd/d95/classpocketmine_1_1block_1_1inventory_1_1_smithing_table_inventory.html" target="_top" xlink:title=" ">
<polygon fill="white" stroke="#bfbfbf" points="2210,-61 2210,-129 2362,-129 2362,-61 2210,-61"/>
<text text-anchor="start" x="2218" y="-117" font-family="Helvetica,sans-Serif" font-size="10.00">pocketmine\block\inventory</text>
<text text-anchor="middle" x="2286" y="-106" font-family="Helvetica,sans-Serif" font-size="10.00">\SmithingTableInventory</text>
<polyline fill="none" stroke="#bfbfbf" points="2210,-99 2362,-99 "/>
<text text-anchor="middle" x="2286" y="-87" font-family="Helvetica,sans-Serif" font-size="10.00"> </text>
<polyline fill="none" stroke="#bfbfbf" points="2210,-80 2362,-80 "/>
<text text-anchor="start" x="2218" y="-68" font-family="Helvetica,sans-Serif" font-size="10.00">+ __construct()</text>
</a>
</g>
</g>
<!-- Node1&#45;&gt;Node15 -->
<g id="edge14" class="edge">
<title>Node1&#45;&gt;Node15</title>
<path fill="none" stroke="midnightblue" d="M1352.46,-256.73C1569.6,-249.25 2125.93,-226.72 2201,-190 2228.08,-176.76 2250.52,-150.77 2265.53,-129.47"/>
<polygon fill="none" stroke="midnightblue" points="1352.25,-253.23 1342.38,-257.07 1352.49,-260.23 1352.25,-253.23"/>
</g>
<!-- Node16 -->
<g id="node16" class="node">
<title>Node16</title>
<g id="a_node16"><a xlink:href="../../db/d21/classpocketmine_1_1block_1_1inventory_1_1_stonecutter_inventory.html" target="_top" xlink:title=" ">
<polygon fill="white" stroke="#bfbfbf" points="2380,-61 2380,-129 2532,-129 2532,-61 2380,-61"/>
<text text-anchor="start" x="2388" y="-117" font-family="Helvetica,sans-Serif" font-size="10.00">pocketmine\block\inventory</text>
<text text-anchor="middle" x="2456" y="-106" font-family="Helvetica,sans-Serif" font-size="10.00">\StonecutterInventory</text>
<polyline fill="none" stroke="#bfbfbf" points="2380,-99 2532,-99 "/>
<text text-anchor="start" x="2388" y="-87" font-family="Helvetica,sans-Serif" font-size="10.00">+ SLOT_INPUT</text>
<polyline fill="none" stroke="#bfbfbf" points="2380,-80 2532,-80 "/>
<text text-anchor="start" x="2388" y="-68" font-family="Helvetica,sans-Serif" font-size="10.00">+ __construct()</text>
</a>
</g>
</g>
<!-- Node1&#45;&gt;Node16 -->
<g id="edge15" class="edge">
<title>Node1&#45;&gt;Node16</title>
<path fill="none" stroke="midnightblue" d="M1352.32,-257.8C1596.48,-252.47 2280.21,-233.77 2371,-190 2398.35,-176.81 2420.91,-150.53 2435.9,-129.1"/>
<polygon fill="none" stroke="midnightblue" points="1352,-254.31 1342.08,-258.02 1352.15,-261.3 1352,-254.31"/>
</g>
</g>
</svg>
        <g id="navigator" transform="translate(0 0)" fill="#404254">
                <rect fill="#f2f5e9" fill-opacity="0.5" stroke="#606060" stroke-width=".5" x="0" y="0" width="60" height="60"/>
                <use id="zoomplus" xlink:href="#zoomPlus" x="17" y="9" onmousedown="handleZoom(evt,'in')"/>
                <use id="zoomminus" xlink:href="#zoomMin" x="42" y="9" onmousedown="handleZoom(evt,'out')"/>
                <use id="reset" xlink:href="#resetDef" x="30" y="36" onmousedown="handleReset()"/>
                <g id="arrowUp" xlink:href="#dirArrow" transform="translate(30 24)" onmousedown="handlePan(0,-1)">
                  <use xlink:href="#rim" fill="#404040">
                        <set attributeName="fill" to="#808080" begin="arrowUp.mouseover" end="arrowUp.mouseout"/>
                  </use>
                  <path fill="none" stroke="white" stroke-width="1.5" d="M0,-3.0v7 M-2.5,-0.5L0,-3.0L2.5,-0.5"/>
                </g>
                <g id="arrowRight" xlink:href="#dirArrow" transform="rotate(90) translate(36 -43)" onmousedown="handlePan(1,0)">
                  <use xlink:href="#rim" fill="#404040">
                        <set attributeName="fill" to="#808080" begin="arrowRight.mouseover" end="arrowRight.mouseout"/>
                  </use>
                  <path fill="none" stroke="white" stroke-width="1.5" d="M0,-3.0v7 M-2.5,-0.5L0,-3.0L2.5,-0.5"/>
                </g>
                <g id="arrowDown" xlink:href="#dirArrow" transform="rotate(180) translate(-30 -48)" onmousedown="handlePan(0,1)">
                  <use xlink:href="#rim" fill="#404040">
                        <set attributeName="fill" to="#808080" begin="arrowDown.mouseover" end="arrowDown.mouseout"/>
                  </use>
                  <path fill="none" stroke="white" stroke-width="1.5" d="M0,-3.0v7 M-2.5,-0.5L0,-3.0L2.5,-0.5"/>
                </g>
                <g id="arrowLeft" xlink:href="#dirArrow" transform="rotate(270) translate(-36 17)" onmousedown="handlePan(-1,0)">
                  <use xlink:href="#rim" fill="#404040">
                        <set attributeName="fill" to="#808080" begin="arrowLeft.mouseover" end="arrowLeft.mouseout"/>
                  </use>
                  <path fill="none" stroke="white" stroke-width="1.5" d="M0,-3.0v7 M-2.5,-0.5L0,-3.0L2.5,-0.5"/>
                </g>
        </g>
        <svg viewBox="0 0 15 15" width="100%" height="30px" preserveAspectRatio="xMaxYMin meet">
         <g id="arrow_out" transform="scale(0.3 0.3)">
          <a xlink:href="interfacepocketmine_1_1block_1_1inventory_1_1_block_inventory__inherit__graph_org.svg" target="_base">
           <rect id="button" ry="5" rx="5" y="6" x="6" height="38" width="38"
                fill="#f2f5e9" fill-opacity="0.5" stroke="#606060" stroke-width="1.0"/>
           <path id="arrow"
             d="M 11.500037,31.436501 C 11.940474,20.09759 22.043105,11.32322 32.158766,21.979434 L 37.068811,17.246167 C 37.068811,17.246167 37.088388,32 37.088388,32 L 22.160133,31.978069 C 22.160133,31.978069 26.997745,27.140456 26.997745,27.140456 C 18.528582,18.264221 13.291696,25.230495 11.500037,31.436501 z"
             style="fill:#404040;"/>
          </a>
         </g>
        </svg>
</svg>
