<?xml version="1.0" encoding="UTF-8" standalone="no"?>
<!DOCTYPE svg PUBLIC "-//W3C//DTD SVG 1.1//EN"
 "http://www.w3.org/Graphics/SVG/1.1/DTD/svg11.dtd">
<!-- Generated by graphviz version 2.43.0 (0)
 -->
<!-- Title: pocketmine\block\FenceGate Pages: 1 -->
<svg width="659pt" height="1798pt"
 viewBox="0.00 0.00 659.30 1798.00" xmlns="http://www.w3.org/2000/svg" xmlns:xlink="http://www.w3.org/1999/xlink">
<g id="graph0" class="graph" transform="scale(1 1) rotate(0) translate(4 1794)">
<title>pocketmine\block\FenceGate</title>
<polygon fill="white" stroke="transparent" points="-4,4 -4,-1794 655.3,-1794 655.3,4 -4,4"/>
<!-- Node1 -->
<g id="node1" class="node">
<title>Node1</title>
<g id="a_node1"><a xlink:title=" ">
<polygon fill="#bfbfbf" stroke="black" points="245.8,-0.5 245.8,-200.5 406.8,-200.5 406.8,-0.5 245.8,-0.5"/>
<text text-anchor="middle" x="326.3" y="-188.5" font-family="Helvetica,sans-Serif" font-size="10.00">pocketmine\block\FenceGate</text>
<polyline fill="none" stroke="black" points="245.8,-181.5 406.8,-181.5 "/>
<text text-anchor="start" x="253.8" y="-169.5" font-family="Helvetica,sans-Serif" font-size="10.00"># $inWall</text>
<text text-anchor="start" x="253.8" y="-158.5" font-family="Helvetica,sans-Serif" font-size="10.00"># $open</text>
<polyline fill="none" stroke="black" points="245.8,-151.5 406.8,-151.5 "/>
<text text-anchor="start" x="253.8" y="-139.5" font-family="Helvetica,sans-Serif" font-size="10.00">+ getFlameEncouragement()</text>
<text text-anchor="start" x="253.8" y="-128.5" font-family="Helvetica,sans-Serif" font-size="10.00">+ getFlammability()</text>
<text text-anchor="start" x="253.8" y="-117.5" font-family="Helvetica,sans-Serif" font-size="10.00">+ getFuelTime()</text>
<text text-anchor="start" x="253.8" y="-106.5" font-family="Helvetica,sans-Serif" font-size="10.00">+ getSupportType()</text>
<text text-anchor="start" x="253.8" y="-95.5" font-family="Helvetica,sans-Serif" font-size="10.00">+ isInWall()</text>
<text text-anchor="start" x="253.8" y="-84.5" font-family="Helvetica,sans-Serif" font-size="10.00">+ isOpen()</text>
<text text-anchor="start" x="253.8" y="-73.5" font-family="Helvetica,sans-Serif" font-size="10.00">+ onInteract()</text>
<text text-anchor="start" x="253.8" y="-62.5" font-family="Helvetica,sans-Serif" font-size="10.00">+ onNearbyBlockChange()</text>
<text text-anchor="start" x="253.8" y="-51.5" font-family="Helvetica,sans-Serif" font-size="10.00">+ place()</text>
<text text-anchor="start" x="253.8" y="-40.5" font-family="Helvetica,sans-Serif" font-size="10.00">+ setInWall()</text>
<text text-anchor="start" x="253.8" y="-29.5" font-family="Helvetica,sans-Serif" font-size="10.00">+ setOpen()</text>
<text text-anchor="start" x="253.8" y="-18.5" font-family="Helvetica,sans-Serif" font-size="10.00"># describeState()</text>
<text text-anchor="start" x="253.8" y="-7.5" font-family="Helvetica,sans-Serif" font-size="10.00"># recalculateCollisionBoxes()</text>
</a>
</g>
</g>
<!-- Node2 -->
<g id="node2" class="node">
<title>Node2</title>
<g id="a_node2"><a xlink:href="../../d5/d1b/classpocketmine_1_1block_1_1_transparent.html" target="_top" xlink:title=" ">
<polygon fill="white" stroke="black" points="244.8,-238.5 244.8,-295.5 407.8,-295.5 407.8,-238.5 244.8,-238.5"/>
<text text-anchor="middle" x="326.3" y="-283.5" font-family="Helvetica,sans-Serif" font-size="10.00">pocketmine\block\Transparent</text>
<polyline fill="none" stroke="black" points="244.8,-276.5 407.8,-276.5 "/>
<text text-anchor="middle" x="326.3" y="-264.5" font-family="Helvetica,sans-Serif" font-size="10.00"> </text>
<polyline fill="none" stroke="black" points="244.8,-257.5 407.8,-257.5 "/>
<text text-anchor="start" x="252.8" y="-245.5" font-family="Helvetica,sans-Serif" font-size="10.00">+ isTransparent()</text>
</a>
</g>
</g>
<!-- Node2&#45;&gt;Node1 -->
<g id="edge1" class="edge">
<title>Node2&#45;&gt;Node1</title>
<path fill="none" stroke="midnightblue" d="M326.3,-228.29C326.3,-219.84 326.3,-210.5 326.3,-200.82"/>
<polygon fill="none" stroke="midnightblue" points="322.8,-228.47 326.3,-238.47 329.8,-228.47 322.8,-228.47"/>
</g>
<!-- Node3 -->
<g id="node3" class="node">
<title>Node3</title>
<g id="a_node3"><a xlink:href="../../d7/d27/classpocketmine_1_1block_1_1_block.html" target="_top" xlink:title=" ">
<polygon fill="white" stroke="#bfbfbf" points="245.8,-333.5 245.8,-555.5 406.8,-555.5 406.8,-333.5 245.8,-333.5"/>
<text text-anchor="middle" x="326.3" y="-543.5" font-family="Helvetica,sans-Serif" font-size="10.00">pocketmine\block\Block</text>
<polyline fill="none" stroke="#bfbfbf" points="245.8,-536.5 406.8,-536.5 "/>
<text text-anchor="start" x="253.8" y="-524.5" font-family="Helvetica,sans-Serif" font-size="10.00"># $collisionBoxes</text>
<text text-anchor="start" x="253.8" y="-513.5" font-family="Helvetica,sans-Serif" font-size="10.00"># $fallbackName</text>
<polyline fill="none" stroke="#bfbfbf" points="245.8,-506.5 406.8,-506.5 "/>
<text text-anchor="start" x="253.8" y="-494.5" font-family="Helvetica,sans-Serif" font-size="10.00">+ __construct()</text>
<text text-anchor="start" x="253.8" y="-483.5" font-family="Helvetica,sans-Serif" font-size="10.00">+ __clone()</text>
<text text-anchor="start" x="253.8" y="-472.5" font-family="Helvetica,sans-Serif" font-size="10.00">+ __toString()</text>
<text text-anchor="start" x="253.8" y="-461.5" font-family="Helvetica,sans-Serif" font-size="10.00">+ addVelocityToEntity()</text>
<text text-anchor="start" x="253.8" y="-450.5" font-family="Helvetica,sans-Serif" font-size="10.00">+ asItem()</text>
<text text-anchor="start" x="253.8" y="-439.5" font-family="Helvetica,sans-Serif" font-size="10.00">+ blocksDirectSkyLight()</text>
<text text-anchor="start" x="253.8" y="-428.5" font-family="Helvetica,sans-Serif" font-size="10.00">+ burnsForever()</text>
<text text-anchor="start" x="253.8" y="-417.5" font-family="Helvetica,sans-Serif" font-size="10.00">+ calculateIntercept()</text>
<text text-anchor="start" x="253.8" y="-406.5" font-family="Helvetica,sans-Serif" font-size="10.00">+ canBeFlowedInto()</text>
<text text-anchor="start" x="253.8" y="-395.5" font-family="Helvetica,sans-Serif" font-size="10.00">+ canBePlaced()</text>
<text text-anchor="start" x="253.8" y="-384.5" font-family="Helvetica,sans-Serif" font-size="10.00">and 63 more...</text>
<text text-anchor="start" x="253.8" y="-373.5" font-family="Helvetica,sans-Serif" font-size="10.00"># describeState()</text>
<text text-anchor="start" x="253.8" y="-362.5" font-family="Helvetica,sans-Serif" font-size="10.00"># describeType()</text>
<text text-anchor="start" x="253.8" y="-351.5" font-family="Helvetica,sans-Serif" font-size="10.00"># getXpDropAmount()</text>
<text text-anchor="start" x="253.8" y="-340.5" font-family="Helvetica,sans-Serif" font-size="10.00"># recalculateCollisionBoxes()</text>
</a>
</g>
</g>
<!-- Node3&#45;&gt;Node2 -->
<g id="edge2" class="edge">
<title>Node3&#45;&gt;Node2</title>
<path fill="none" stroke="midnightblue" d="M326.3,-323.09C326.3,-313.03 326.3,-303.64 326.3,-295.56"/>
<polygon fill="none" stroke="midnightblue" points="322.8,-323.35 326.3,-333.35 329.8,-323.35 322.8,-323.35"/>
</g>
<!-- Node4 -->
<g id="node4" class="node">
<title>Node4</title>
<g id="a_node4"><a xlink:title=" ">
<polygon fill="white" stroke="#bfbfbf" points="3.8,-1330.5 3.8,-1387.5 46.8,-1387.5 46.8,-1330.5 3.8,-1330.5"/>
<text text-anchor="middle" x="25.3" y="-1375.5" font-family="Helvetica,sans-Serif" font-size="10.00">const</text>
<polyline fill="none" stroke="#bfbfbf" points="3.8,-1368.5 46.8,-1368.5 "/>
<text text-anchor="middle" x="25.3" y="-1356.5" font-family="Helvetica,sans-Serif" font-size="10.00"> </text>
<polyline fill="none" stroke="#bfbfbf" points="3.8,-1349.5 46.8,-1349.5 "/>
<text text-anchor="middle" x="25.3" y="-1337.5" font-family="Helvetica,sans-Serif" font-size="10.00"> </text>
</a>
</g>
</g>
<!-- Node4&#45;&gt;Node3 -->
<g id="edge3" class="edge">
<title>Node4&#45;&gt;Node3</title>
<path fill="none" stroke="#404040" d="M21,-1330.4C8.48,-1243.93 -23.68,-971.19 31.3,-756 50.25,-681.85 60.49,-661.1 110.3,-603 145.6,-561.82 193.69,-525.42 235.53,-498.01"/>
<polygon fill="none" stroke="#404040" points="235.66,-497.93 238.53,-491.31 245.74,-491.42 242.87,-498.03 235.66,-497.93"/>
<text text-anchor="start" x="31.3" y="-781" font-family="Helvetica,sans-Serif" font-size="10.00"> +INTERNAL_STATE_DATA</text>
<text text-anchor="middle" x="109.8" y="-770" font-family="Helvetica,sans-Serif" font-size="10.00">_BITS</text>
<text text-anchor="middle" x="109.8" y="-759" font-family="Helvetica,sans-Serif" font-size="10.00">+INTERNAL_STATE_DATA_MASK</text>
</g>
<!-- Node9 -->
<g id="node9" class="node">
<title>Node9</title>
<g id="a_node9"><a xlink:href="../../d4/d2b/classpocketmine_1_1world_1_1_world.html" target="_top" xlink:title=" ">
<polygon fill="white" stroke="black" points="106.3,-807.5 106.3,-1117.5 278.3,-1117.5 278.3,-807.5 106.3,-807.5"/>
<text text-anchor="middle" x="192.3" y="-1105.5" font-family="Helvetica,sans-Serif" font-size="10.00">pocketmine\world\World</text>
<polyline fill="none" stroke="black" points="106.3,-1098.5 278.3,-1098.5 "/>
<text text-anchor="start" x="114.3" y="-1086.5" font-family="Helvetica,sans-Serif" font-size="10.00">+ $stopTime</text>
<text text-anchor="start" x="114.3" y="-1075.5" font-family="Helvetica,sans-Serif" font-size="10.00">+ $tickRateTime</text>
<text text-anchor="start" x="114.3" y="-1064.5" font-family="Helvetica,sans-Serif" font-size="10.00">+ $updateEntities</text>
<text text-anchor="start" x="114.3" y="-1053.5" font-family="Helvetica,sans-Serif" font-size="10.00">+ TIME_SUNRISE</text>
<text text-anchor="start" x="114.3" y="-1042.5" font-family="Helvetica,sans-Serif" font-size="10.00">+ TIME_SUNSET</text>
<text text-anchor="start" x="114.3" y="-1031.5" font-family="Helvetica,sans-Serif" font-size="10.00">+ Y_MAX</text>
<text text-anchor="start" x="114.3" y="-1020.5" font-family="Helvetica,sans-Serif" font-size="10.00">+ Y_MIN</text>
<polyline fill="none" stroke="black" points="106.3,-1013.5 278.3,-1013.5 "/>
<text text-anchor="start" x="114.3" y="-1001.5" font-family="Helvetica,sans-Serif" font-size="10.00">+ __construct()</text>
<text text-anchor="start" x="114.3" y="-990.5" font-family="Helvetica,sans-Serif" font-size="10.00">+ __debugInfo()</text>
<text text-anchor="start" x="114.3" y="-979.5" font-family="Helvetica,sans-Serif" font-size="10.00">+ addEntity()</text>
<text text-anchor="start" x="114.3" y="-968.5" font-family="Helvetica,sans-Serif" font-size="10.00">+ addOnUnloadCallback()</text>
<text text-anchor="start" x="114.3" y="-957.5" font-family="Helvetica,sans-Serif" font-size="10.00">+ addParticle()</text>
<text text-anchor="start" x="114.3" y="-946.5" font-family="Helvetica,sans-Serif" font-size="10.00">+ addRandomTickedBlock()</text>
<text text-anchor="start" x="114.3" y="-935.5" font-family="Helvetica,sans-Serif" font-size="10.00">+ addSound()</text>
<text text-anchor="start" x="114.3" y="-924.5" font-family="Helvetica,sans-Serif" font-size="10.00">+ addTile()</text>
<text text-anchor="start" x="114.3" y="-913.5" font-family="Helvetica,sans-Serif" font-size="10.00">+ broadcastPacketToViewers()</text>
<text text-anchor="start" x="114.3" y="-902.5" font-family="Helvetica,sans-Serif" font-size="10.00">+ cancelUnloadChunkRequest()</text>
<text text-anchor="start" x="114.3" y="-891.5" font-family="Helvetica,sans-Serif" font-size="10.00">and 116 more...</text>
<text text-anchor="start" x="114.3" y="-880.5" font-family="Helvetica,sans-Serif" font-size="10.00">+ blockHash()</text>
<text text-anchor="start" x="114.3" y="-869.5" font-family="Helvetica,sans-Serif" font-size="10.00">+ chunkBlockHash()</text>
<text text-anchor="start" x="114.3" y="-858.5" font-family="Helvetica,sans-Serif" font-size="10.00">+ chunkHash()</text>
<text text-anchor="start" x="114.3" y="-847.5" font-family="Helvetica,sans-Serif" font-size="10.00">+ getBlockXYZ()</text>
<text text-anchor="start" x="114.3" y="-836.5" font-family="Helvetica,sans-Serif" font-size="10.00">+ getDifficultyFromString()</text>
<text text-anchor="start" x="114.3" y="-825.5" font-family="Helvetica,sans-Serif" font-size="10.00">+ getXZ()</text>
<text text-anchor="start" x="114.3" y="-814.5" font-family="Helvetica,sans-Serif" font-size="10.00"># actuallyDoTick()</text>
</a>
</g>
</g>
<!-- Node4&#45;&gt;Node9 -->
<g id="edge10" class="edge">
<title>Node4&#45;&gt;Node9</title>
<path fill="none" stroke="#404040" d="M23.51,-1330.44C21.74,-1287.19 22.56,-1201.54 50.3,-1136 62.05,-1108.25 79.74,-1081.46 98.69,-1057.59"/>
<polygon fill="none" stroke="#404040" points="98.72,-1057.56 99.41,-1050.38 106.3,-1048.25 105.61,-1055.43 98.72,-1057.56"/>
<text text-anchor="start" x="50.3" y="-1260" font-family="Helvetica,sans-Serif" font-size="10.00"> +DEFAULT_TICKED_BLOCKS</text>
<text text-anchor="middle" x="120.3" y="-1249" font-family="Helvetica,sans-Serif" font-size="10.00">_PER_SUBCHUNK_PER_TICK</text>
<text text-anchor="middle" x="120.3" y="-1238" font-family="Helvetica,sans-Serif" font-size="10.00">+DIFFICULTY_EASY</text>
<text text-anchor="middle" x="120.3" y="-1227" font-family="Helvetica,sans-Serif" font-size="10.00">+DIFFICULTY_HARD</text>
<text text-anchor="middle" x="120.3" y="-1216" font-family="Helvetica,sans-Serif" font-size="10.00">+DIFFICULTY_NORMAL</text>
<text text-anchor="middle" x="120.3" y="-1205" font-family="Helvetica,sans-Serif" font-size="10.00">+DIFFICULTY_PEACEFUL</text>
<text text-anchor="middle" x="120.3" y="-1194" font-family="Helvetica,sans-Serif" font-size="10.00">+TIME_DAY</text>
<text text-anchor="middle" x="120.3" y="-1183" font-family="Helvetica,sans-Serif" font-size="10.00">+TIME_FULL</text>
<text text-anchor="middle" x="120.3" y="-1172" font-family="Helvetica,sans-Serif" font-size="10.00">+TIME_MIDNIGHT</text>
<text text-anchor="middle" x="120.3" y="-1161" font-family="Helvetica,sans-Serif" font-size="10.00">+TIME_NIGHT</text>
<text text-anchor="middle" x="120.3" y="-1150" font-family="Helvetica,sans-Serif" font-size="10.00">+TIME_NOON</text>
<text text-anchor="middle" x="120.3" y="-1139" font-family="Helvetica,sans-Serif" font-size="10.00">...</text>
</g>
<!-- Node5 -->
<g id="node5" class="node">
<title>Node5</title>
<g id="a_node5"><a xlink:href="../../dd/d18/classpocketmine_1_1block_1_1_block_identifier.html" target="_top" xlink:title=" ">
<polygon fill="white" stroke="#bfbfbf" points="283.3,-631 283.3,-710 459.3,-710 459.3,-631 283.3,-631"/>
<text text-anchor="middle" x="371.3" y="-698" font-family="Helvetica,sans-Serif" font-size="10.00">pocketmine\block\BlockIdentifier</text>
<polyline fill="none" stroke="#bfbfbf" points="283.3,-691 459.3,-691 "/>
<text text-anchor="middle" x="371.3" y="-679" font-family="Helvetica,sans-Serif" font-size="10.00"> </text>
<polyline fill="none" stroke="#bfbfbf" points="283.3,-672 459.3,-672 "/>
<text text-anchor="start" x="291.3" y="-660" font-family="Helvetica,sans-Serif" font-size="10.00">+ __construct()</text>
<text text-anchor="start" x="291.3" y="-649" font-family="Helvetica,sans-Serif" font-size="10.00">+ getBlockTypeId()</text>
<text text-anchor="start" x="291.3" y="-638" font-family="Helvetica,sans-Serif" font-size="10.00">+ getTileClass()</text>
</a>
</g>
</g>
<!-- Node5&#45;&gt;Node3 -->
<g id="edge4" class="edge">
<title>Node5&#45;&gt;Node3</title>
<path fill="none" stroke="#404040" d="M363.57,-630.99C359.97,-613.1 355.48,-590.72 350.86,-567.76"/>
<polygon fill="none" stroke="#404040" points="350.81,-567.49 345.71,-562.4 348.45,-555.73 353.55,-560.82 350.81,-567.49"/>
<text text-anchor="middle" x="377.3" y="-577" font-family="Helvetica,sans-Serif" font-size="10.00"> #$idInfo</text>
</g>
<!-- Node6 -->
<g id="node6" class="node">
<title>Node6</title>
<g id="a_node6"><a xlink:href="../../de/d9a/classpocketmine_1_1block_1_1_block_type_info.html" target="_top" xlink:title=" ">
<polygon fill="white" stroke="#bfbfbf" points="477.3,-625.5 477.3,-715.5 651.3,-715.5 651.3,-625.5 477.3,-625.5"/>
<text text-anchor="middle" x="564.3" y="-703.5" font-family="Helvetica,sans-Serif" font-size="10.00">pocketmine\block\BlockTypeInfo</text>
<polyline fill="none" stroke="#bfbfbf" points="477.3,-696.5 651.3,-696.5 "/>
<text text-anchor="middle" x="564.3" y="-684.5" font-family="Helvetica,sans-Serif" font-size="10.00"> </text>
<polyline fill="none" stroke="#bfbfbf" points="477.3,-677.5 651.3,-677.5 "/>
<text text-anchor="start" x="485.3" y="-665.5" font-family="Helvetica,sans-Serif" font-size="10.00">+ __construct()</text>
<text text-anchor="start" x="485.3" y="-654.5" font-family="Helvetica,sans-Serif" font-size="10.00">+ getBreakInfo()</text>
<text text-anchor="start" x="485.3" y="-643.5" font-family="Helvetica,sans-Serif" font-size="10.00">+ getTypeTags()</text>
<text text-anchor="start" x="485.3" y="-632.5" font-family="Helvetica,sans-Serif" font-size="10.00">+ hasTypeTag()</text>
</a>
</g>
</g>
<!-- Node6&#45;&gt;Node3 -->
<g id="edge5" class="edge">
<title>Node6&#45;&gt;Node3</title>
<path fill="none" stroke="#404040" d="M517.28,-625.24C488.43,-598.09 450.54,-562.43 416.12,-530.03"/>
<polygon fill="none" stroke="#404040" points="415.72,-529.66 408.61,-528.46 406.98,-521.43 414.09,-522.63 415.72,-529.66"/>
<text text-anchor="middle" x="503.3" y="-577" font-family="Helvetica,sans-Serif" font-size="10.00"> #$typeInfo</text>
</g>
<!-- Node7 -->
<g id="node7" class="node">
<title>Node7</title>
<g id="a_node7"><a xlink:href="../../d5/dd2/classpocketmine_1_1world_1_1_position.html" target="_top" xlink:title=" ">
<polygon fill="white" stroke="#bfbfbf" points="119.3,-603.5 119.3,-737.5 265.3,-737.5 265.3,-603.5 119.3,-603.5"/>
<text text-anchor="middle" x="192.3" y="-725.5" font-family="Helvetica,sans-Serif" font-size="10.00">pocketmine\world\Position</text>
<polyline fill="none" stroke="#bfbfbf" points="119.3,-718.5 265.3,-718.5 "/>
<text text-anchor="middle" x="192.3" y="-706.5" font-family="Helvetica,sans-Serif" font-size="10.00"> </text>
<polyline fill="none" stroke="#bfbfbf" points="119.3,-699.5 265.3,-699.5 "/>
<text text-anchor="start" x="127.3" y="-687.5" font-family="Helvetica,sans-Serif" font-size="10.00">+ __construct()</text>
<text text-anchor="start" x="127.3" y="-676.5" font-family="Helvetica,sans-Serif" font-size="10.00">+ __toString()</text>
<text text-anchor="start" x="127.3" y="-665.5" font-family="Helvetica,sans-Serif" font-size="10.00">+ asPosition()</text>
<text text-anchor="start" x="127.3" y="-654.5" font-family="Helvetica,sans-Serif" font-size="10.00">+ equals()</text>
<text text-anchor="start" x="127.3" y="-643.5" font-family="Helvetica,sans-Serif" font-size="10.00">+ getSide()</text>
<text text-anchor="start" x="127.3" y="-632.5" font-family="Helvetica,sans-Serif" font-size="10.00">+ getWorld()</text>
<text text-anchor="start" x="127.3" y="-621.5" font-family="Helvetica,sans-Serif" font-size="10.00">+ isValid()</text>
<text text-anchor="start" x="127.3" y="-610.5" font-family="Helvetica,sans-Serif" font-size="10.00">+ fromObject()</text>
</a>
</g>
</g>
<!-- Node7&#45;&gt;Node3 -->
<g id="edge6" class="edge">
<title>Node7&#45;&gt;Node3</title>
<path fill="none" stroke="#404040" d="M231.96,-603.2C238.96,-591.51 246.43,-579.02 254,-566.37"/>
<polygon fill="none" stroke="#404040" points="254.2,-566.03 253.85,-558.82 260.36,-555.73 260.71,-562.93 254.2,-566.03"/>
<text text-anchor="middle" x="275.8" y="-577" font-family="Helvetica,sans-Serif" font-size="10.00"> #$position</text>
</g>
<!-- Node8 -->
<g id="node8" class="node">
<title>Node8</title>
<g id="a_node8"><a xlink:href="../../d2/d90/classpocketmine_1_1math_1_1_vector3.html" target="_top" xlink:title=" ">
<polygon fill="white" stroke="#bfbfbf" points="296.3,-846 296.3,-1079 438.3,-1079 438.3,-846 296.3,-846"/>
<text text-anchor="middle" x="367.3" y="-1067" font-family="Helvetica,sans-Serif" font-size="10.00">pocketmine\math\Vector3</text>
<polyline fill="none" stroke="#bfbfbf" points="296.3,-1060 438.3,-1060 "/>
<text text-anchor="start" x="304.3" y="-1048" font-family="Helvetica,sans-Serif" font-size="10.00">+ $x</text>
<text text-anchor="start" x="304.3" y="-1037" font-family="Helvetica,sans-Serif" font-size="10.00">+ $y</text>
<text text-anchor="start" x="304.3" y="-1026" font-family="Helvetica,sans-Serif" font-size="10.00">+ $z</text>
<polyline fill="none" stroke="#bfbfbf" points="296.3,-1019 438.3,-1019 "/>
<text text-anchor="start" x="304.3" y="-1007" font-family="Helvetica,sans-Serif" font-size="10.00">+ __construct()</text>
<text text-anchor="start" x="304.3" y="-996" font-family="Helvetica,sans-Serif" font-size="10.00">+ __toString()</text>
<text text-anchor="start" x="304.3" y="-985" font-family="Helvetica,sans-Serif" font-size="10.00">+ abs()</text>
<text text-anchor="start" x="304.3" y="-974" font-family="Helvetica,sans-Serif" font-size="10.00">+ add()</text>
<text text-anchor="start" x="304.3" y="-963" font-family="Helvetica,sans-Serif" font-size="10.00">+ addVector()</text>
<text text-anchor="start" x="304.3" y="-952" font-family="Helvetica,sans-Serif" font-size="10.00">+ asVector3()</text>
<text text-anchor="start" x="304.3" y="-941" font-family="Helvetica,sans-Serif" font-size="10.00">+ ceil()</text>
<text text-anchor="start" x="304.3" y="-930" font-family="Helvetica,sans-Serif" font-size="10.00">+ cross()</text>
<text text-anchor="start" x="304.3" y="-919" font-family="Helvetica,sans-Serif" font-size="10.00">+ distance()</text>
<text text-anchor="start" x="304.3" y="-908" font-family="Helvetica,sans-Serif" font-size="10.00">+ distanceSquared()</text>
<text text-anchor="start" x="304.3" y="-897" font-family="Helvetica,sans-Serif" font-size="10.00">and 32 more...</text>
<text text-anchor="start" x="304.3" y="-886" font-family="Helvetica,sans-Serif" font-size="10.00">+ maxComponents()</text>
<text text-anchor="start" x="304.3" y="-875" font-family="Helvetica,sans-Serif" font-size="10.00">+ minComponents()</text>
<text text-anchor="start" x="304.3" y="-864" font-family="Helvetica,sans-Serif" font-size="10.00">+ sum()</text>
<text text-anchor="start" x="304.3" y="-853" font-family="Helvetica,sans-Serif" font-size="10.00">+ zero()</text>
</a>
</g>
</g>
<!-- Node8&#45;&gt;Node7 -->
<g id="edge7" class="edge">
<title>Node8&#45;&gt;Node7</title>
<path fill="none" stroke="midnightblue" d="M304.6,-836.84C298.92,-826.65 293.11,-816.59 287.3,-807 273.24,-783.78 256.61,-759.24 241.23,-737.51"/>
<polygon fill="none" stroke="midnightblue" points="301.66,-838.76 309.56,-845.82 307.79,-835.37 301.66,-838.76"/>
</g>
<!-- Node9&#45;&gt;Node7 -->
<g id="edge8" class="edge">
<title>Node9&#45;&gt;Node7</title>
<path fill="none" stroke="#404040" d="M192.3,-807.16C192.3,-787.27 192.3,-767.61 192.3,-749.69"/>
<polygon fill="none" stroke="#404040" points="192.3,-749.59 188.3,-743.59 192.3,-737.59 196.3,-743.59 192.3,-749.59"/>
<text text-anchor="middle" x="214.8" y="-770" font-family="Helvetica,sans-Serif" font-size="10.00"> +$world</text>
</g>
<!-- Node10 -->
<g id="node10" class="node">
<title>Node10</title>
<g id="a_node10"><a xlink:href="../../d0/d03/interfacepocketmine_1_1world_1_1_chunk_manager.html" target="_top" xlink:title=" ">
<polygon fill="white" stroke="#bfbfbf" points="106.3,-1297.5 106.3,-1420.5 286.3,-1420.5 286.3,-1297.5 106.3,-1297.5"/>
<text text-anchor="middle" x="196.3" y="-1408.5" font-family="Helvetica,sans-Serif" font-size="10.00">pocketmine\world\ChunkManager</text>
<polyline fill="none" stroke="#bfbfbf" points="106.3,-1401.5 286.3,-1401.5 "/>
<text text-anchor="middle" x="196.3" y="-1389.5" font-family="Helvetica,sans-Serif" font-size="10.00"> </text>
<polyline fill="none" stroke="#bfbfbf" points="106.3,-1382.5 286.3,-1382.5 "/>
<text text-anchor="start" x="114.3" y="-1370.5" font-family="Helvetica,sans-Serif" font-size="10.00">+ getBlockAt()</text>
<text text-anchor="start" x="114.3" y="-1359.5" font-family="Helvetica,sans-Serif" font-size="10.00">+ getChunk()</text>
<text text-anchor="start" x="114.3" y="-1348.5" font-family="Helvetica,sans-Serif" font-size="10.00">+ getMaxY()</text>
<text text-anchor="start" x="114.3" y="-1337.5" font-family="Helvetica,sans-Serif" font-size="10.00">+ getMinY()</text>
<text text-anchor="start" x="114.3" y="-1326.5" font-family="Helvetica,sans-Serif" font-size="10.00">+ isInWorld()</text>
<text text-anchor="start" x="114.3" y="-1315.5" font-family="Helvetica,sans-Serif" font-size="10.00">+ setBlockAt()</text>
<text text-anchor="start" x="114.3" y="-1304.5" font-family="Helvetica,sans-Serif" font-size="10.00">+ setChunk()</text>
</a>
</g>
</g>
<!-- Node10&#45;&gt;Node9 -->
<g id="edge9" class="edge">
<title>Node10&#45;&gt;Node9</title>
<path fill="none" stroke="midnightblue" d="M195.58,-1287.12C195.11,-1239.96 194.46,-1176.15 193.87,-1117.65"/>
<polygon fill="none" stroke="midnightblue" points="192.09,-1287.26 195.69,-1297.22 199.08,-1287.19 192.09,-1287.26"/>
</g>
<!-- Node11 -->
<g id="node11" class="node">
<title>Node11</title>
<g id="a_node11"><a xlink:href="../../d7/d08/classpocketmine_1_1world_1_1_world_timings.html" target="_top" xlink:title=" ">
<polygon fill="white" stroke="#bfbfbf" points="304.8,-1286.5 304.8,-1431.5 477.8,-1431.5 477.8,-1286.5 304.8,-1286.5"/>
<text text-anchor="middle" x="391.3" y="-1419.5" font-family="Helvetica,sans-Serif" font-size="10.00">pocketmine\world\WorldTimings</text>
<polyline fill="none" stroke="#bfbfbf" points="304.8,-1412.5 477.8,-1412.5 "/>
<text text-anchor="start" x="312.8" y="-1400.5" font-family="Helvetica,sans-Serif" font-size="10.00">+ $syncChunkLoad</text>
<text text-anchor="start" x="312.8" y="-1389.5" font-family="Helvetica,sans-Serif" font-size="10.00">+ $syncChunkLoadData</text>
<text text-anchor="start" x="312.8" y="-1378.5" font-family="Helvetica,sans-Serif" font-size="10.00">+ $syncChunkLoadEntities</text>
<text text-anchor="start" x="312.8" y="-1367.5" font-family="Helvetica,sans-Serif" font-size="10.00">+ $syncChunkLoadFixInvalid</text>
<text text-anchor="start" x="312.8" y="-1356.5" font-family="Helvetica,sans-Serif" font-size="10.00">Blocks</text>
<text text-anchor="start" x="312.8" y="-1345.5" font-family="Helvetica,sans-Serif" font-size="10.00">+ $syncChunkLoadTileEntities</text>
<text text-anchor="start" x="312.8" y="-1334.5" font-family="Helvetica,sans-Serif" font-size="10.00">+ $syncChunkSave</text>
<text text-anchor="start" x="312.8" y="-1323.5" font-family="Helvetica,sans-Serif" font-size="10.00">+ $syncChunkSend</text>
<text text-anchor="start" x="312.8" y="-1312.5" font-family="Helvetica,sans-Serif" font-size="10.00">+ $syncChunkSendPrepare</text>
<polyline fill="none" stroke="#bfbfbf" points="304.8,-1305.5 477.8,-1305.5 "/>
<text text-anchor="start" x="312.8" y="-1293.5" font-family="Helvetica,sans-Serif" font-size="10.00">+ __construct()</text>
</a>
</g>
</g>
<!-- Node11&#45;&gt;Node9 -->
<g id="edge11" class="edge">
<title>Node11&#45;&gt;Node9</title>
<path fill="none" stroke="#404040" d="M355.03,-1286.1C332.81,-1242.04 303.39,-1183.72 275.68,-1128.79"/>
<polygon fill="none" stroke="#404040" points="275.57,-1128.57 269.3,-1125.02 270.17,-1117.86 276.44,-1121.42 275.57,-1128.57"/>
<text text-anchor="middle" x="370.8" y="-1199.5" font-family="Helvetica,sans-Serif" font-size="10.00"> +$timings</text>
</g>
<!-- Node12 -->
<g id="node12" class="node">
<title>Node12</title>
<g id="a_node12"><a xlink:href="../../d7/d9b/classpocketmine_1_1timings_1_1_timings_handler.html" target="_top" xlink:title=" ">
<polygon fill="white" stroke="#bfbfbf" points="334.8,-1600.5 334.8,-1789.5 447.8,-1789.5 447.8,-1600.5 334.8,-1600.5"/>
<text text-anchor="start" x="342.8" y="-1777.5" font-family="Helvetica,sans-Serif" font-size="10.00">pocketmine\timings</text>
<text text-anchor="middle" x="391.3" y="-1766.5" font-family="Helvetica,sans-Serif" font-size="10.00">\TimingsHandler</text>
<polyline fill="none" stroke="#bfbfbf" points="334.8,-1759.5 447.8,-1759.5 "/>
<text text-anchor="middle" x="391.3" y="-1747.5" font-family="Helvetica,sans-Serif" font-size="10.00"> </text>
<polyline fill="none" stroke="#bfbfbf" points="334.8,-1740.5 447.8,-1740.5 "/>
<text text-anchor="start" x="342.8" y="-1728.5" font-family="Helvetica,sans-Serif" font-size="10.00">+ __construct()</text>
<text text-anchor="start" x="342.8" y="-1717.5" font-family="Helvetica,sans-Serif" font-size="10.00">+ destroyCycles()</text>
<text text-anchor="start" x="342.8" y="-1706.5" font-family="Helvetica,sans-Serif" font-size="10.00">+ getName()</text>
<text text-anchor="start" x="342.8" y="-1695.5" font-family="Helvetica,sans-Serif" font-size="10.00">+ startTiming()</text>
<text text-anchor="start" x="342.8" y="-1684.5" font-family="Helvetica,sans-Serif" font-size="10.00">+ stopTiming()</text>
<text text-anchor="start" x="342.8" y="-1673.5" font-family="Helvetica,sans-Serif" font-size="10.00">+ time()</text>
<text text-anchor="start" x="342.8" y="-1662.5" font-family="Helvetica,sans-Serif" font-size="10.00">+ getStartTime()</text>
<text text-anchor="start" x="342.8" y="-1651.5" font-family="Helvetica,sans-Serif" font-size="10.00">+ isEnabled()</text>
<text text-anchor="start" x="342.8" y="-1640.5" font-family="Helvetica,sans-Serif" font-size="10.00">+ printTimings()</text>
<text text-anchor="start" x="342.8" y="-1629.5" font-family="Helvetica,sans-Serif" font-size="10.00">+ reload()</text>
<text text-anchor="start" x="342.8" y="-1618.5" font-family="Helvetica,sans-Serif" font-size="10.00">+ setEnabled()</text>
<text text-anchor="start" x="342.8" y="-1607.5" font-family="Helvetica,sans-Serif" font-size="10.00">+ tick()</text>
</a>
</g>
</g>
<!-- Node12&#45;&gt;Node11 -->
<g id="edge12" class="edge">
<title>Node12&#45;&gt;Node11</title>
<path fill="none" stroke="#404040" d="M391.3,-1600.07C391.3,-1550.91 391.3,-1491.21 391.3,-1443.65"/>
<polygon fill="none" stroke="#404040" points="391.3,-1443.52 387.3,-1437.52 391.3,-1431.52 395.3,-1437.52 391.3,-1443.52"/>
<text text-anchor="middle" x="468.3" y="-1574" font-family="Helvetica,sans-Serif" font-size="10.00"> +$doBlockLightUpdates</text>
<text text-anchor="middle" x="468.3" y="-1563" font-family="Helvetica,sans-Serif" font-size="10.00">+$doBlockSkyLightUpdates</text>
<text text-anchor="middle" x="468.3" y="-1552" font-family="Helvetica,sans-Serif" font-size="10.00">+$doChunkGC</text>
<text text-anchor="middle" x="468.3" y="-1541" font-family="Helvetica,sans-Serif" font-size="10.00">+$doChunkUnload</text>
<text text-anchor="middle" x="468.3" y="-1530" font-family="Helvetica,sans-Serif" font-size="10.00">+$doTick</text>
<text text-anchor="middle" x="468.3" y="-1519" font-family="Helvetica,sans-Serif" font-size="10.00">+$entityTick</text>
<text text-anchor="middle" x="468.3" y="-1508" font-family="Helvetica,sans-Serif" font-size="10.00">+$randomChunkUpdates</text>
<text text-anchor="start" x="391.3" y="-1497" font-family="Helvetica,sans-Serif" font-size="10.00">+$randomChunkUpdatesChunk</text>
<text text-anchor="middle" x="468.3" y="-1486" font-family="Helvetica,sans-Serif" font-size="10.00">Selection</text>
<text text-anchor="middle" x="468.3" y="-1475" font-family="Helvetica,sans-Serif" font-size="10.00">+$scheduledBlockUpdates</text>
<text text-anchor="middle" x="468.3" y="-1464" font-family="Helvetica,sans-Serif" font-size="10.00">+$setBlock</text>
<text text-anchor="middle" x="468.3" y="-1453" font-family="Helvetica,sans-Serif" font-size="10.00">...</text>
</g>
</g>
</svg>
