<?xml version="1.0" encoding="UTF-8" standalone="no"?>
<!DOCTYPE svg PUBLIC "-//W3C//DTD SVG 1.1//EN"
 "http://www.w3.org/Graphics/SVG/1.1/DTD/svg11.dtd">
<!-- Generated by graphviz version 2.43.0 (0)
 -->
<!-- Title: pocketmine\block\NetherWartPlant Pages: 1 -->
<svg width="702pt" height="1882pt"
 viewBox="0.00 0.00 702.00 1882.00" xmlns="http://www.w3.org/2000/svg" xmlns:xlink="http://www.w3.org/1999/xlink">
<g id="graph0" class="graph" transform="scale(1 1) rotate(0) translate(4 1878)">
<title>pocketmine\block\NetherWartPlant</title>
<polygon fill="white" stroke="transparent" points="-4,4 -4,-1878 698,-1878 698,4 -4,4"/>
<!-- Node1 -->
<g id="node1" class="node">
<title>Node1</title>
<g id="a_node1"><a xlink:title=" ">
<polygon fill="#bfbfbf" stroke="black" points="0,-0.5 0,-156.5 170,-156.5 170,-0.5 0,-0.5"/>
<text text-anchor="start" x="8" y="-144.5" font-family="Helvetica,sans-Serif" font-size="10.00">pocketmine\block\NetherWart</text>
<text text-anchor="middle" x="85" y="-133.5" font-family="Helvetica,sans-Serif" font-size="10.00">Plant</text>
<polyline fill="none" stroke="black" points="0,-126.5 170,-126.5 "/>
<text text-anchor="start" x="8" y="-114.5" font-family="Helvetica,sans-Serif" font-size="10.00"># $age</text>
<polyline fill="none" stroke="black" points="0,-107.5 170,-107.5 "/>
<text text-anchor="start" x="8" y="-95.5" font-family="Helvetica,sans-Serif" font-size="10.00">+ getAge()</text>
<text text-anchor="start" x="8" y="-84.5" font-family="Helvetica,sans-Serif" font-size="10.00">+ getDropsForCompatibleTool()</text>
<text text-anchor="start" x="8" y="-73.5" font-family="Helvetica,sans-Serif" font-size="10.00">+ getRequiredStateDataBits()</text>
<text text-anchor="start" x="8" y="-62.5" font-family="Helvetica,sans-Serif" font-size="10.00">+ onNearbyBlockChange()</text>
<text text-anchor="start" x="8" y="-51.5" font-family="Helvetica,sans-Serif" font-size="10.00">+ onRandomTick()</text>
<text text-anchor="start" x="8" y="-40.5" font-family="Helvetica,sans-Serif" font-size="10.00">+ place()</text>
<text text-anchor="start" x="8" y="-29.5" font-family="Helvetica,sans-Serif" font-size="10.00">+ setAge()</text>
<text text-anchor="start" x="8" y="-18.5" font-family="Helvetica,sans-Serif" font-size="10.00">+ ticksRandomly()</text>
<text text-anchor="start" x="8" y="-7.5" font-family="Helvetica,sans-Serif" font-size="10.00"># describeState()</text>
</a>
</g>
</g>
<!-- Node2 -->
<g id="node2" class="node">
<title>Node2</title>
<g id="a_node2"><a xlink:href="../../d3/d1e/classpocketmine_1_1block_1_1_flowable.html" target="_top" xlink:title=" ">
<polygon fill="white" stroke="black" points="95.5,-194.5 95.5,-284.5 256.5,-284.5 256.5,-194.5 95.5,-194.5"/>
<text text-anchor="middle" x="176" y="-272.5" font-family="Helvetica,sans-Serif" font-size="10.00">pocketmine\block\Flowable</text>
<polyline fill="none" stroke="black" points="95.5,-265.5 256.5,-265.5 "/>
<text text-anchor="middle" x="176" y="-253.5" font-family="Helvetica,sans-Serif" font-size="10.00"> </text>
<polyline fill="none" stroke="black" points="95.5,-246.5 256.5,-246.5 "/>
<text text-anchor="start" x="103.5" y="-234.5" font-family="Helvetica,sans-Serif" font-size="10.00">+ canBeFlowedInto()</text>
<text text-anchor="start" x="103.5" y="-223.5" font-family="Helvetica,sans-Serif" font-size="10.00">+ getSupportType()</text>
<text text-anchor="start" x="103.5" y="-212.5" font-family="Helvetica,sans-Serif" font-size="10.00">+ isSolid()</text>
<text text-anchor="start" x="103.5" y="-201.5" font-family="Helvetica,sans-Serif" font-size="10.00"># recalculateCollisionBoxes()</text>
</a>
</g>
</g>
<!-- Node2&#45;&gt;Node1 -->
<g id="edge1" class="edge">
<title>Node2&#45;&gt;Node1</title>
<path fill="none" stroke="midnightblue" d="M145.68,-185.53C140.39,-176.28 134.79,-166.49 129.21,-156.74"/>
<polygon fill="none" stroke="midnightblue" points="142.65,-187.27 150.65,-194.21 148.72,-183.79 142.65,-187.27"/>
</g>
<!-- Node3 -->
<g id="node3" class="node">
<title>Node3</title>
<g id="a_node3"><a xlink:href="../../d5/d1b/classpocketmine_1_1block_1_1_transparent.html" target="_top" xlink:title=" ">
<polygon fill="white" stroke="black" points="114.5,-322.5 114.5,-379.5 277.5,-379.5 277.5,-322.5 114.5,-322.5"/>
<text text-anchor="middle" x="196" y="-367.5" font-family="Helvetica,sans-Serif" font-size="10.00">pocketmine\block\Transparent</text>
<polyline fill="none" stroke="black" points="114.5,-360.5 277.5,-360.5 "/>
<text text-anchor="middle" x="196" y="-348.5" font-family="Helvetica,sans-Serif" font-size="10.00"> </text>
<polyline fill="none" stroke="black" points="114.5,-341.5 277.5,-341.5 "/>
<text text-anchor="start" x="122.5" y="-329.5" font-family="Helvetica,sans-Serif" font-size="10.00">+ isTransparent()</text>
</a>
</g>
</g>
<!-- Node3&#45;&gt;Node2 -->
<g id="edge2" class="edge">
<title>Node3&#45;&gt;Node2</title>
<path fill="none" stroke="midnightblue" d="M189.12,-312.31C187.49,-303.43 185.75,-293.88 184.08,-284.74"/>
<polygon fill="none" stroke="midnightblue" points="185.71,-313.16 190.95,-322.37 192.6,-311.9 185.71,-313.16"/>
</g>
<!-- Node4 -->
<g id="node4" class="node">
<title>Node4</title>
<g id="a_node4"><a xlink:href="../../d7/d27/classpocketmine_1_1block_1_1_block.html" target="_top" xlink:title=" ">
<polygon fill="white" stroke="#bfbfbf" points="154.5,-417.5 154.5,-639.5 315.5,-639.5 315.5,-417.5 154.5,-417.5"/>
<text text-anchor="middle" x="235" y="-627.5" font-family="Helvetica,sans-Serif" font-size="10.00">pocketmine\block\Block</text>
<polyline fill="none" stroke="#bfbfbf" points="154.5,-620.5 315.5,-620.5 "/>
<text text-anchor="start" x="162.5" y="-608.5" font-family="Helvetica,sans-Serif" font-size="10.00"># $collisionBoxes</text>
<text text-anchor="start" x="162.5" y="-597.5" font-family="Helvetica,sans-Serif" font-size="10.00"># $fallbackName</text>
<polyline fill="none" stroke="#bfbfbf" points="154.5,-590.5 315.5,-590.5 "/>
<text text-anchor="start" x="162.5" y="-578.5" font-family="Helvetica,sans-Serif" font-size="10.00">+ __construct()</text>
<text text-anchor="start" x="162.5" y="-567.5" font-family="Helvetica,sans-Serif" font-size="10.00">+ __clone()</text>
<text text-anchor="start" x="162.5" y="-556.5" font-family="Helvetica,sans-Serif" font-size="10.00">+ __toString()</text>
<text text-anchor="start" x="162.5" y="-545.5" font-family="Helvetica,sans-Serif" font-size="10.00">+ addVelocityToEntity()</text>
<text text-anchor="start" x="162.5" y="-534.5" font-family="Helvetica,sans-Serif" font-size="10.00">+ asItem()</text>
<text text-anchor="start" x="162.5" y="-523.5" font-family="Helvetica,sans-Serif" font-size="10.00">+ blocksDirectSkyLight()</text>
<text text-anchor="start" x="162.5" y="-512.5" font-family="Helvetica,sans-Serif" font-size="10.00">+ burnsForever()</text>
<text text-anchor="start" x="162.5" y="-501.5" font-family="Helvetica,sans-Serif" font-size="10.00">+ calculateIntercept()</text>
<text text-anchor="start" x="162.5" y="-490.5" font-family="Helvetica,sans-Serif" font-size="10.00">+ canBeFlowedInto()</text>
<text text-anchor="start" x="162.5" y="-479.5" font-family="Helvetica,sans-Serif" font-size="10.00">+ canBePlaced()</text>
<text text-anchor="start" x="162.5" y="-468.5" font-family="Helvetica,sans-Serif" font-size="10.00">and 63 more...</text>
<text text-anchor="start" x="162.5" y="-457.5" font-family="Helvetica,sans-Serif" font-size="10.00"># describeState()</text>
<text text-anchor="start" x="162.5" y="-446.5" font-family="Helvetica,sans-Serif" font-size="10.00"># describeType()</text>
<text text-anchor="start" x="162.5" y="-435.5" font-family="Helvetica,sans-Serif" font-size="10.00"># getXpDropAmount()</text>
<text text-anchor="start" x="162.5" y="-424.5" font-family="Helvetica,sans-Serif" font-size="10.00"># recalculateCollisionBoxes()</text>
</a>
</g>
</g>
<!-- Node4&#45;&gt;Node3 -->
<g id="edge3" class="edge">
<title>Node4&#45;&gt;Node3</title>
<path fill="none" stroke="midnightblue" d="M208.31,-407.41C206.05,-397.23 203.94,-387.72 202.12,-379.56"/>
<polygon fill="none" stroke="midnightblue" points="204.94,-408.35 210.52,-417.35 211.77,-406.83 204.94,-408.35"/>
</g>
<!-- Node5 -->
<g id="node5" class="node">
<title>Node5</title>
<g id="a_node5"><a xlink:title=" ">
<polygon fill="white" stroke="#bfbfbf" points="63.5,-1414.5 63.5,-1471.5 106.5,-1471.5 106.5,-1414.5 63.5,-1414.5"/>
<text text-anchor="middle" x="85" y="-1459.5" font-family="Helvetica,sans-Serif" font-size="10.00">const</text>
<polyline fill="none" stroke="#bfbfbf" points="63.5,-1452.5 106.5,-1452.5 "/>
<text text-anchor="middle" x="85" y="-1440.5" font-family="Helvetica,sans-Serif" font-size="10.00"> </text>
<polyline fill="none" stroke="#bfbfbf" points="63.5,-1433.5 106.5,-1433.5 "/>
<text text-anchor="middle" x="85" y="-1421.5" font-family="Helvetica,sans-Serif" font-size="10.00"> </text>
</a>
</g>
</g>
<!-- Node5&#45;&gt;Node1 -->
<g id="edge14" class="edge">
<title>Node5&#45;&gt;Node1</title>
<path fill="none" stroke="#404040" d="M80.1,-1414.1C77.13,-1396.36 73.44,-1372.89 71,-1352 55.22,-1217.17 47,-1183.25 47,-1047.5 47,-1047.5 47,-1047.5 47,-238.5 47,-215.52 50.8,-191.18 56,-168.63"/>
<polygon fill="none" stroke="#404040" points="56.07,-168.32 53.61,-161.55 58.92,-156.67 61.38,-163.44 56.07,-168.32"/>
<text text-anchor="middle" x="77" y="-526" font-family="Helvetica,sans-Serif" font-size="10.00"> +MAX_AGE</text>
</g>
<!-- Node5&#45;&gt;Node4 -->
<g id="edge4" class="edge">
<title>Node5&#45;&gt;Node4</title>
<path fill="none" stroke="#404040" d="M83.32,-1414.21C77.34,-1311.24 58.69,-951.56 83,-840 97.41,-773.89 128.6,-705.79 159,-650.28"/>
<polygon fill="none" stroke="#404040" points="159.05,-650.2 158.46,-643.01 164.87,-639.7 165.45,-646.89 159.05,-650.2"/>
<text text-anchor="start" x="83" y="-865" font-family="Helvetica,sans-Serif" font-size="10.00"> +INTERNAL_STATE_DATA</text>
<text text-anchor="middle" x="161.5" y="-854" font-family="Helvetica,sans-Serif" font-size="10.00">_BITS</text>
<text text-anchor="middle" x="161.5" y="-843" font-family="Helvetica,sans-Serif" font-size="10.00">+INTERNAL_STATE_DATA_MASK</text>
</g>
<!-- Node10 -->
<g id="node10" class="node">
<title>Node10</title>
<g id="a_node10"><a xlink:href="../../d4/d2b/classpocketmine_1_1world_1_1_world.html" target="_top" xlink:title=" ">
<polygon fill="white" stroke="black" points="179,-891.5 179,-1201.5 351,-1201.5 351,-891.5 179,-891.5"/>
<text text-anchor="middle" x="265" y="-1189.5" font-family="Helvetica,sans-Serif" font-size="10.00">pocketmine\world\World</text>
<polyline fill="none" stroke="black" points="179,-1182.5 351,-1182.5 "/>
<text text-anchor="start" x="187" y="-1170.5" font-family="Helvetica,sans-Serif" font-size="10.00">+ $stopTime</text>
<text text-anchor="start" x="187" y="-1159.5" font-family="Helvetica,sans-Serif" font-size="10.00">+ $tickRateTime</text>
<text text-anchor="start" x="187" y="-1148.5" font-family="Helvetica,sans-Serif" font-size="10.00">+ $updateEntities</text>
<text text-anchor="start" x="187" y="-1137.5" font-family="Helvetica,sans-Serif" font-size="10.00">+ TIME_SUNRISE</text>
<text text-anchor="start" x="187" y="-1126.5" font-family="Helvetica,sans-Serif" font-size="10.00">+ TIME_SUNSET</text>
<text text-anchor="start" x="187" y="-1115.5" font-family="Helvetica,sans-Serif" font-size="10.00">+ Y_MAX</text>
<text text-anchor="start" x="187" y="-1104.5" font-family="Helvetica,sans-Serif" font-size="10.00">+ Y_MIN</text>
<polyline fill="none" stroke="black" points="179,-1097.5 351,-1097.5 "/>
<text text-anchor="start" x="187" y="-1085.5" font-family="Helvetica,sans-Serif" font-size="10.00">+ __construct()</text>
<text text-anchor="start" x="187" y="-1074.5" font-family="Helvetica,sans-Serif" font-size="10.00">+ __debugInfo()</text>
<text text-anchor="start" x="187" y="-1063.5" font-family="Helvetica,sans-Serif" font-size="10.00">+ addEntity()</text>
<text text-anchor="start" x="187" y="-1052.5" font-family="Helvetica,sans-Serif" font-size="10.00">+ addOnUnloadCallback()</text>
<text text-anchor="start" x="187" y="-1041.5" font-family="Helvetica,sans-Serif" font-size="10.00">+ addParticle()</text>
<text text-anchor="start" x="187" y="-1030.5" font-family="Helvetica,sans-Serif" font-size="10.00">+ addRandomTickedBlock()</text>
<text text-anchor="start" x="187" y="-1019.5" font-family="Helvetica,sans-Serif" font-size="10.00">+ addSound()</text>
<text text-anchor="start" x="187" y="-1008.5" font-family="Helvetica,sans-Serif" font-size="10.00">+ addTile()</text>
<text text-anchor="start" x="187" y="-997.5" font-family="Helvetica,sans-Serif" font-size="10.00">+ broadcastPacketToViewers()</text>
<text text-anchor="start" x="187" y="-986.5" font-family="Helvetica,sans-Serif" font-size="10.00">+ cancelUnloadChunkRequest()</text>
<text text-anchor="start" x="187" y="-975.5" font-family="Helvetica,sans-Serif" font-size="10.00">and 116 more...</text>
<text text-anchor="start" x="187" y="-964.5" font-family="Helvetica,sans-Serif" font-size="10.00">+ blockHash()</text>
<text text-anchor="start" x="187" y="-953.5" font-family="Helvetica,sans-Serif" font-size="10.00">+ chunkBlockHash()</text>
<text text-anchor="start" x="187" y="-942.5" font-family="Helvetica,sans-Serif" font-size="10.00">+ chunkHash()</text>
<text text-anchor="start" x="187" y="-931.5" font-family="Helvetica,sans-Serif" font-size="10.00">+ getBlockXYZ()</text>
<text text-anchor="start" x="187" y="-920.5" font-family="Helvetica,sans-Serif" font-size="10.00">+ getDifficultyFromString()</text>
<text text-anchor="start" x="187" y="-909.5" font-family="Helvetica,sans-Serif" font-size="10.00">+ getXZ()</text>
<text text-anchor="start" x="187" y="-898.5" font-family="Helvetica,sans-Serif" font-size="10.00"># actuallyDoTick()</text>
</a>
</g>
</g>
<!-- Node5&#45;&gt;Node10 -->
<g id="edge11" class="edge">
<title>Node5&#45;&gt;Node10</title>
<path fill="none" stroke="#404040" d="M88.26,-1414.12C94.59,-1362.52 109.29,-1254.26 125,-1220 136.89,-1194.08 153.59,-1168.74 171.33,-1145.81"/>
<polygon fill="none" stroke="#404040" points="171.54,-1145.55 172.12,-1138.36 178.98,-1136.14 178.4,-1143.33 171.54,-1145.55"/>
<text text-anchor="start" x="125" y="-1344" font-family="Helvetica,sans-Serif" font-size="10.00"> +DEFAULT_TICKED_BLOCKS</text>
<text text-anchor="middle" x="195" y="-1333" font-family="Helvetica,sans-Serif" font-size="10.00">_PER_SUBCHUNK_PER_TICK</text>
<text text-anchor="middle" x="195" y="-1322" font-family="Helvetica,sans-Serif" font-size="10.00">+DIFFICULTY_EASY</text>
<text text-anchor="middle" x="195" y="-1311" font-family="Helvetica,sans-Serif" font-size="10.00">+DIFFICULTY_HARD</text>
<text text-anchor="middle" x="195" y="-1300" font-family="Helvetica,sans-Serif" font-size="10.00">+DIFFICULTY_NORMAL</text>
<text text-anchor="middle" x="195" y="-1289" font-family="Helvetica,sans-Serif" font-size="10.00">+DIFFICULTY_PEACEFUL</text>
<text text-anchor="middle" x="195" y="-1278" font-family="Helvetica,sans-Serif" font-size="10.00">+TIME_DAY</text>
<text text-anchor="middle" x="195" y="-1267" font-family="Helvetica,sans-Serif" font-size="10.00">+TIME_FULL</text>
<text text-anchor="middle" x="195" y="-1256" font-family="Helvetica,sans-Serif" font-size="10.00">+TIME_MIDNIGHT</text>
<text text-anchor="middle" x="195" y="-1245" font-family="Helvetica,sans-Serif" font-size="10.00">+TIME_NIGHT</text>
<text text-anchor="middle" x="195" y="-1234" font-family="Helvetica,sans-Serif" font-size="10.00">+TIME_NOON</text>
<text text-anchor="middle" x="195" y="-1223" font-family="Helvetica,sans-Serif" font-size="10.00">...</text>
</g>
<!-- Node6 -->
<g id="node6" class="node">
<title>Node6</title>
<g id="a_node6"><a xlink:href="../../dd/d18/classpocketmine_1_1block_1_1_block_identifier.html" target="_top" xlink:title=" ">
<polygon fill="white" stroke="#bfbfbf" points="326,-715 326,-794 502,-794 502,-715 326,-715"/>
<text text-anchor="middle" x="414" y="-782" font-family="Helvetica,sans-Serif" font-size="10.00">pocketmine\block\BlockIdentifier</text>
<polyline fill="none" stroke="#bfbfbf" points="326,-775 502,-775 "/>
<text text-anchor="middle" x="414" y="-763" font-family="Helvetica,sans-Serif" font-size="10.00"> </text>
<polyline fill="none" stroke="#bfbfbf" points="326,-756 502,-756 "/>
<text text-anchor="start" x="334" y="-744" font-family="Helvetica,sans-Serif" font-size="10.00">+ __construct()</text>
<text text-anchor="start" x="334" y="-733" font-family="Helvetica,sans-Serif" font-size="10.00">+ getBlockTypeId()</text>
<text text-anchor="start" x="334" y="-722" font-family="Helvetica,sans-Serif" font-size="10.00">+ getTileClass()</text>
</a>
</g>
</g>
<!-- Node6&#45;&gt;Node4 -->
<g id="edge5" class="edge">
<title>Node6&#45;&gt;Node4</title>
<path fill="none" stroke="#404040" d="M383.23,-714.99C366.51,-694.07 344.89,-667.02 323.36,-640.08"/>
<polygon fill="none" stroke="#404040" points="323.25,-639.94 316.38,-637.74 315.76,-630.56 322.63,-632.75 323.25,-639.94"/>
<text text-anchor="middle" x="369" y="-661" font-family="Helvetica,sans-Serif" font-size="10.00"> #$idInfo</text>
</g>
<!-- Node7 -->
<g id="node7" class="node">
<title>Node7</title>
<g id="a_node7"><a xlink:href="../../de/d9a/classpocketmine_1_1block_1_1_block_type_info.html" target="_top" xlink:title=" ">
<polygon fill="white" stroke="#bfbfbf" points="520,-709.5 520,-799.5 694,-799.5 694,-709.5 520,-709.5"/>
<text text-anchor="middle" x="607" y="-787.5" font-family="Helvetica,sans-Serif" font-size="10.00">pocketmine\block\BlockTypeInfo</text>
<polyline fill="none" stroke="#bfbfbf" points="520,-780.5 694,-780.5 "/>
<text text-anchor="middle" x="607" y="-768.5" font-family="Helvetica,sans-Serif" font-size="10.00"> </text>
<polyline fill="none" stroke="#bfbfbf" points="520,-761.5 694,-761.5 "/>
<text text-anchor="start" x="528" y="-749.5" font-family="Helvetica,sans-Serif" font-size="10.00">+ __construct()</text>
<text text-anchor="start" x="528" y="-738.5" font-family="Helvetica,sans-Serif" font-size="10.00">+ getBreakInfo()</text>
<text text-anchor="start" x="528" y="-727.5" font-family="Helvetica,sans-Serif" font-size="10.00">+ getTypeTags()</text>
<text text-anchor="start" x="528" y="-716.5" font-family="Helvetica,sans-Serif" font-size="10.00">+ hasTypeTag()</text>
</a>
</g>
</g>
<!-- Node7&#45;&gt;Node4 -->
<g id="edge6" class="edge">
<title>Node7&#45;&gt;Node4</title>
<path fill="none" stroke="#404040" d="M545.04,-709.42C533.83,-701.77 522.15,-694.02 511,-687 450.5,-648.89 380.51,-608.99 326.16,-578.89"/>
<polygon fill="none" stroke="#404040" points="326,-578.81 318.82,-579.41 315.5,-573.01 322.69,-572.41 326,-578.81"/>
<text text-anchor="middle" x="511" y="-661" font-family="Helvetica,sans-Serif" font-size="10.00"> #$typeInfo</text>
</g>
<!-- Node8 -->
<g id="node8" class="node">
<title>Node8</title>
<g id="a_node8"><a xlink:href="../../d5/dd2/classpocketmine_1_1world_1_1_position.html" target="_top" xlink:title=" ">
<polygon fill="white" stroke="#bfbfbf" points="162,-687.5 162,-821.5 308,-821.5 308,-687.5 162,-687.5"/>
<text text-anchor="middle" x="235" y="-809.5" font-family="Helvetica,sans-Serif" font-size="10.00">pocketmine\world\Position</text>
<polyline fill="none" stroke="#bfbfbf" points="162,-802.5 308,-802.5 "/>
<text text-anchor="middle" x="235" y="-790.5" font-family="Helvetica,sans-Serif" font-size="10.00"> </text>
<polyline fill="none" stroke="#bfbfbf" points="162,-783.5 308,-783.5 "/>
<text text-anchor="start" x="170" y="-771.5" font-family="Helvetica,sans-Serif" font-size="10.00">+ __construct()</text>
<text text-anchor="start" x="170" y="-760.5" font-family="Helvetica,sans-Serif" font-size="10.00">+ __toString()</text>
<text text-anchor="start" x="170" y="-749.5" font-family="Helvetica,sans-Serif" font-size="10.00">+ asPosition()</text>
<text text-anchor="start" x="170" y="-738.5" font-family="Helvetica,sans-Serif" font-size="10.00">+ equals()</text>
<text text-anchor="start" x="170" y="-727.5" font-family="Helvetica,sans-Serif" font-size="10.00">+ getSide()</text>
<text text-anchor="start" x="170" y="-716.5" font-family="Helvetica,sans-Serif" font-size="10.00">+ getWorld()</text>
<text text-anchor="start" x="170" y="-705.5" font-family="Helvetica,sans-Serif" font-size="10.00">+ isValid()</text>
<text text-anchor="start" x="170" y="-694.5" font-family="Helvetica,sans-Serif" font-size="10.00">+ fromObject()</text>
</a>
</g>
</g>
<!-- Node8&#45;&gt;Node4 -->
<g id="edge7" class="edge">
<title>Node8&#45;&gt;Node4</title>
<path fill="none" stroke="#404040" d="M235,-687.2C235,-675.98 235,-664.02 235,-651.89"/>
<polygon fill="none" stroke="#404040" points="235,-651.73 231,-645.73 235,-639.73 239,-645.73 235,-651.73"/>
<text text-anchor="middle" x="263.5" y="-661" font-family="Helvetica,sans-Serif" font-size="10.00"> #$position</text>
</g>
<!-- Node9 -->
<g id="node9" class="node">
<title>Node9</title>
<g id="a_node9"><a xlink:href="../../d2/d90/classpocketmine_1_1math_1_1_vector3.html" target="_top" xlink:title=" ">
<polygon fill="white" stroke="#bfbfbf" points="369,-930 369,-1163 511,-1163 511,-930 369,-930"/>
<text text-anchor="middle" x="440" y="-1151" font-family="Helvetica,sans-Serif" font-size="10.00">pocketmine\math\Vector3</text>
<polyline fill="none" stroke="#bfbfbf" points="369,-1144 511,-1144 "/>
<text text-anchor="start" x="377" y="-1132" font-family="Helvetica,sans-Serif" font-size="10.00">+ $x</text>
<text text-anchor="start" x="377" y="-1121" font-family="Helvetica,sans-Serif" font-size="10.00">+ $y</text>
<text text-anchor="start" x="377" y="-1110" font-family="Helvetica,sans-Serif" font-size="10.00">+ $z</text>
<polyline fill="none" stroke="#bfbfbf" points="369,-1103 511,-1103 "/>
<text text-anchor="start" x="377" y="-1091" font-family="Helvetica,sans-Serif" font-size="10.00">+ __construct()</text>
<text text-anchor="start" x="377" y="-1080" font-family="Helvetica,sans-Serif" font-size="10.00">+ __toString()</text>
<text text-anchor="start" x="377" y="-1069" font-family="Helvetica,sans-Serif" font-size="10.00">+ abs()</text>
<text text-anchor="start" x="377" y="-1058" font-family="Helvetica,sans-Serif" font-size="10.00">+ add()</text>
<text text-anchor="start" x="377" y="-1047" font-family="Helvetica,sans-Serif" font-size="10.00">+ addVector()</text>
<text text-anchor="start" x="377" y="-1036" font-family="Helvetica,sans-Serif" font-size="10.00">+ asVector3()</text>
<text text-anchor="start" x="377" y="-1025" font-family="Helvetica,sans-Serif" font-size="10.00">+ ceil()</text>
<text text-anchor="start" x="377" y="-1014" font-family="Helvetica,sans-Serif" font-size="10.00">+ cross()</text>
<text text-anchor="start" x="377" y="-1003" font-family="Helvetica,sans-Serif" font-size="10.00">+ distance()</text>
<text text-anchor="start" x="377" y="-992" font-family="Helvetica,sans-Serif" font-size="10.00">+ distanceSquared()</text>
<text text-anchor="start" x="377" y="-981" font-family="Helvetica,sans-Serif" font-size="10.00">and 32 more...</text>
<text text-anchor="start" x="377" y="-970" font-family="Helvetica,sans-Serif" font-size="10.00">+ maxComponents()</text>
<text text-anchor="start" x="377" y="-959" font-family="Helvetica,sans-Serif" font-size="10.00">+ minComponents()</text>
<text text-anchor="start" x="377" y="-948" font-family="Helvetica,sans-Serif" font-size="10.00">+ sum()</text>
<text text-anchor="start" x="377" y="-937" font-family="Helvetica,sans-Serif" font-size="10.00">+ zero()</text>
</a>
</g>
</g>
<!-- Node9&#45;&gt;Node8 -->
<g id="edge8" class="edge">
<title>Node9&#45;&gt;Node8</title>
<path fill="none" stroke="midnightblue" d="M379.42,-921.19C373.21,-910.77 366.71,-900.56 360,-891 343.19,-867.02 322.43,-842.87 302.68,-821.74"/>
<polygon fill="none" stroke="midnightblue" points="376.5,-923.13 384.57,-929.99 382.54,-919.59 376.5,-923.13"/>
</g>
<!-- Node10&#45;&gt;Node8 -->
<g id="edge9" class="edge">
<title>Node10&#45;&gt;Node8</title>
<path fill="none" stroke="#404040" d="M249.03,-891.16C246.98,-871.27 244.94,-851.61 243.09,-833.69"/>
<polygon fill="none" stroke="#404040" points="243.07,-833.52 238.48,-827.97 241.84,-821.59 246.43,-827.14 243.07,-833.52"/>
<text text-anchor="middle" x="269.5" y="-854" font-family="Helvetica,sans-Serif" font-size="10.00"> +$world</text>
</g>
<!-- Node11 -->
<g id="node11" class="node">
<title>Node11</title>
<g id="a_node11"><a xlink:href="../../d0/d03/interfacepocketmine_1_1world_1_1_chunk_manager.html" target="_top" xlink:title=" ">
<polygon fill="white" stroke="#bfbfbf" points="183,-1381.5 183,-1504.5 363,-1504.5 363,-1381.5 183,-1381.5"/>
<text text-anchor="middle" x="273" y="-1492.5" font-family="Helvetica,sans-Serif" font-size="10.00">pocketmine\world\ChunkManager</text>
<polyline fill="none" stroke="#bfbfbf" points="183,-1485.5 363,-1485.5 "/>
<text text-anchor="middle" x="273" y="-1473.5" font-family="Helvetica,sans-Serif" font-size="10.00"> </text>
<polyline fill="none" stroke="#bfbfbf" points="183,-1466.5 363,-1466.5 "/>
<text text-anchor="start" x="191" y="-1454.5" font-family="Helvetica,sans-Serif" font-size="10.00">+ getBlockAt()</text>
<text text-anchor="start" x="191" y="-1443.5" font-family="Helvetica,sans-Serif" font-size="10.00">+ getChunk()</text>
<text text-anchor="start" x="191" y="-1432.5" font-family="Helvetica,sans-Serif" font-size="10.00">+ getMaxY()</text>
<text text-anchor="start" x="191" y="-1421.5" font-family="Helvetica,sans-Serif" font-size="10.00">+ getMinY()</text>
<text text-anchor="start" x="191" y="-1410.5" font-family="Helvetica,sans-Serif" font-size="10.00">+ isInWorld()</text>
<text text-anchor="start" x="191" y="-1399.5" font-family="Helvetica,sans-Serif" font-size="10.00">+ setBlockAt()</text>
<text text-anchor="start" x="191" y="-1388.5" font-family="Helvetica,sans-Serif" font-size="10.00">+ setChunk()</text>
</a>
</g>
</g>
<!-- Node11&#45;&gt;Node10 -->
<g id="edge10" class="edge">
<title>Node11&#45;&gt;Node10</title>
<path fill="none" stroke="midnightblue" d="M271.56,-1371.12C270.61,-1323.96 269.31,-1260.15 268.13,-1201.65"/>
<polygon fill="none" stroke="midnightblue" points="268.07,-1371.3 271.77,-1381.22 275.06,-1371.15 268.07,-1371.3"/>
</g>
<!-- Node12 -->
<g id="node12" class="node">
<title>Node12</title>
<g id="a_node12"><a xlink:href="../../d7/d08/classpocketmine_1_1world_1_1_world_timings.html" target="_top" xlink:title=" ">
<polygon fill="white" stroke="#bfbfbf" points="381.5,-1370.5 381.5,-1515.5 554.5,-1515.5 554.5,-1370.5 381.5,-1370.5"/>
<text text-anchor="middle" x="468" y="-1503.5" font-family="Helvetica,sans-Serif" font-size="10.00">pocketmine\world\WorldTimings</text>
<polyline fill="none" stroke="#bfbfbf" points="381.5,-1496.5 554.5,-1496.5 "/>
<text text-anchor="start" x="389.5" y="-1484.5" font-family="Helvetica,sans-Serif" font-size="10.00">+ $syncChunkLoad</text>
<text text-anchor="start" x="389.5" y="-1473.5" font-family="Helvetica,sans-Serif" font-size="10.00">+ $syncChunkLoadData</text>
<text text-anchor="start" x="389.5" y="-1462.5" font-family="Helvetica,sans-Serif" font-size="10.00">+ $syncChunkLoadEntities</text>
<text text-anchor="start" x="389.5" y="-1451.5" font-family="Helvetica,sans-Serif" font-size="10.00">+ $syncChunkLoadFixInvalid</text>
<text text-anchor="start" x="389.5" y="-1440.5" font-family="Helvetica,sans-Serif" font-size="10.00">Blocks</text>
<text text-anchor="start" x="389.5" y="-1429.5" font-family="Helvetica,sans-Serif" font-size="10.00">+ $syncChunkLoadTileEntities</text>
<text text-anchor="start" x="389.5" y="-1418.5" font-family="Helvetica,sans-Serif" font-size="10.00">+ $syncChunkSave</text>
<text text-anchor="start" x="389.5" y="-1407.5" font-family="Helvetica,sans-Serif" font-size="10.00">+ $syncChunkSend</text>
<text text-anchor="start" x="389.5" y="-1396.5" font-family="Helvetica,sans-Serif" font-size="10.00">+ $syncChunkSendPrepare</text>
<polyline fill="none" stroke="#bfbfbf" points="381.5,-1389.5 554.5,-1389.5 "/>
<text text-anchor="start" x="389.5" y="-1377.5" font-family="Helvetica,sans-Serif" font-size="10.00">+ __construct()</text>
</a>
</g>
</g>
<!-- Node12&#45;&gt;Node10 -->
<g id="edge12" class="edge">
<title>Node12&#45;&gt;Node10</title>
<path fill="none" stroke="#404040" d="M431,-1370.1C408.33,-1326.04 378.32,-1267.72 350.06,-1212.79"/>
<polygon fill="none" stroke="#404040" points="349.92,-1212.53 343.62,-1209.03 344.43,-1201.86 350.73,-1205.37 349.92,-1212.53"/>
<text text-anchor="middle" x="446.5" y="-1283.5" font-family="Helvetica,sans-Serif" font-size="10.00"> +$timings</text>
</g>
<!-- Node13 -->
<g id="node13" class="node">
<title>Node13</title>
<g id="a_node13"><a xlink:href="../../d7/d9b/classpocketmine_1_1timings_1_1_timings_handler.html" target="_top" xlink:title=" ">
<polygon fill="white" stroke="#bfbfbf" points="411.5,-1684.5 411.5,-1873.5 524.5,-1873.5 524.5,-1684.5 411.5,-1684.5"/>
<text text-anchor="start" x="419.5" y="-1861.5" font-family="Helvetica,sans-Serif" font-size="10.00">pocketmine\timings</text>
<text text-anchor="middle" x="468" y="-1850.5" font-family="Helvetica,sans-Serif" font-size="10.00">\TimingsHandler</text>
<polyline fill="none" stroke="#bfbfbf" points="411.5,-1843.5 524.5,-1843.5 "/>
<text text-anchor="middle" x="468" y="-1831.5" font-family="Helvetica,sans-Serif" font-size="10.00"> </text>
<polyline fill="none" stroke="#bfbfbf" points="411.5,-1824.5 524.5,-1824.5 "/>
<text text-anchor="start" x="419.5" y="-1812.5" font-family="Helvetica,sans-Serif" font-size="10.00">+ __construct()</text>
<text text-anchor="start" x="419.5" y="-1801.5" font-family="Helvetica,sans-Serif" font-size="10.00">+ destroyCycles()</text>
<text text-anchor="start" x="419.5" y="-1790.5" font-family="Helvetica,sans-Serif" font-size="10.00">+ getName()</text>
<text text-anchor="start" x="419.5" y="-1779.5" font-family="Helvetica,sans-Serif" font-size="10.00">+ startTiming()</text>
<text text-anchor="start" x="419.5" y="-1768.5" font-family="Helvetica,sans-Serif" font-size="10.00">+ stopTiming()</text>
<text text-anchor="start" x="419.5" y="-1757.5" font-family="Helvetica,sans-Serif" font-size="10.00">+ time()</text>
<text text-anchor="start" x="419.5" y="-1746.5" font-family="Helvetica,sans-Serif" font-size="10.00">+ getStartTime()</text>
<text text-anchor="start" x="419.5" y="-1735.5" font-family="Helvetica,sans-Serif" font-size="10.00">+ isEnabled()</text>
<text text-anchor="start" x="419.5" y="-1724.5" font-family="Helvetica,sans-Serif" font-size="10.00">+ printTimings()</text>
<text text-anchor="start" x="419.5" y="-1713.5" font-family="Helvetica,sans-Serif" font-size="10.00">+ reload()</text>
<text text-anchor="start" x="419.5" y="-1702.5" font-family="Helvetica,sans-Serif" font-size="10.00">+ setEnabled()</text>
<text text-anchor="start" x="419.5" y="-1691.5" font-family="Helvetica,sans-Serif" font-size="10.00">+ tick()</text>
</a>
</g>
</g>
<!-- Node13&#45;&gt;Node12 -->
<g id="edge13" class="edge">
<title>Node13&#45;&gt;Node12</title>
<path fill="none" stroke="#404040" d="M468,-1684.07C468,-1634.91 468,-1575.21 468,-1527.65"/>
<polygon fill="none" stroke="#404040" points="468,-1527.52 464,-1521.52 468,-1515.52 472,-1521.52 468,-1527.52"/>
<text text-anchor="middle" x="545" y="-1658" font-family="Helvetica,sans-Serif" font-size="10.00"> +$doBlockLightUpdates</text>
<text text-anchor="middle" x="545" y="-1647" font-family="Helvetica,sans-Serif" font-size="10.00">+$doBlockSkyLightUpdates</text>
<text text-anchor="middle" x="545" y="-1636" font-family="Helvetica,sans-Serif" font-size="10.00">+$doChunkGC</text>
<text text-anchor="middle" x="545" y="-1625" font-family="Helvetica,sans-Serif" font-size="10.00">+$doChunkUnload</text>
<text text-anchor="middle" x="545" y="-1614" font-family="Helvetica,sans-Serif" font-size="10.00">+$doTick</text>
<text text-anchor="middle" x="545" y="-1603" font-family="Helvetica,sans-Serif" font-size="10.00">+$entityTick</text>
<text text-anchor="middle" x="545" y="-1592" font-family="Helvetica,sans-Serif" font-size="10.00">+$randomChunkUpdates</text>
<text text-anchor="start" x="468" y="-1581" font-family="Helvetica,sans-Serif" font-size="10.00">+$randomChunkUpdatesChunk</text>
<text text-anchor="middle" x="545" y="-1570" font-family="Helvetica,sans-Serif" font-size="10.00">Selection</text>
<text text-anchor="middle" x="545" y="-1559" font-family="Helvetica,sans-Serif" font-size="10.00">+$scheduledBlockUpdates</text>
<text text-anchor="middle" x="545" y="-1548" font-family="Helvetica,sans-Serif" font-size="10.00">+$setBlock</text>
<text text-anchor="middle" x="545" y="-1537" font-family="Helvetica,sans-Serif" font-size="10.00">...</text>
</g>
</g>
</svg>
