<?xml version="1.0" encoding="UTF-8" standalone="no"?>
<!DOCTYPE svg PUBLIC "-//W3C//DTD SVG 1.1//EN"
 "http://www.w3.org/Graphics/SVG/1.1/DTD/svg11.dtd">
<!-- Generated by graphviz version 2.43.0 (0)
 -->
<!-- Title: pocketmine\block\BrewingStand Pages: 1 -->
<!--zoomable 1798 -->
<svg id="main" version="1.1" xmlns="http://www.w3.org/2000/svg" xmlns:xlink="http://www.w3.org/1999/xlink" xml:space="preserve" onload="init(evt)">
<style type="text/css"><![CDATA[
.edge:hover path { stroke: red; }
.edge:hover polygon { stroke: red; fill: red; }
]]></style>
<script type="text/javascript"><![CDATA[
var edges = document.getElementsByTagName('g');
if (edges && edges.length) {
  for (var i=0;i<edges.length;i++) {
    if (edges[i].id.substr(0,4)=='edge') {
      edges[i].setAttribute('class','edge');
    }
  }
}
]]></script>
        <defs>
                <circle id="rim" cx="0" cy="0" r="7"/>
                <circle id="rim2" cx="0" cy="0" r="3.5"/>
                <g id="zoomPlus">
                        <use xlink:href="#rim" fill="#404040">
                                <set attributeName="fill" to="#808080" begin="zoomplus.mouseover" end="zoomplus.mouseout"/>
                        </use>
                        <path d="M-4,0h8M0,-4v8" fill="none" stroke="white" stroke-width="1.5" pointer-events="none"/>
                </g>
                <g id="zoomMin">
                        <use xlink:href="#rim" fill="#404040">
                                <set attributeName="fill" to="#808080" begin="zoomminus.mouseover" end="zoomminus.mouseout"/>
                        </use>
                        <path d="M-4,0h8" fill="none" stroke="white" stroke-width="1.5" pointer-events="none"/>
                </g>
                <g id="dirArrow">
                        <path fill="none" stroke="white" stroke-width="1.5" d="M0,-3.0v7 M-2.5,-0.5L0,-3.0L2.5,-0.5"/>
                </g>
               <g id="resetDef">
                       <use xlink:href="#rim2" fill="#404040">
                               <set attributeName="fill" to="#808080" begin="reset.mouseover" end="reset.mouseout"/>
                       </use>
               </g>
        </defs>

<script type="text/javascript">
var viewWidth = 660;
var viewHeight = 1798;
var sectionId = 'dynsection-1';
</script>
<script xlink:href="../../svgpan.js"/>
<svg id="graph" class="graph">
<g id="viewport">
<title>pocketmine\block\BrewingStand</title>
<polygon fill="white" stroke="transparent" points="-4,4 -4,-1794 656.39,-1794 656.39,4 -4,4"/>
<!-- Node1 -->
<g id="node1" class="node">
<title>Node1</title>
<g id="a_node1"><a xlink:title=" ">
<polygon fill="#bfbfbf" stroke="black" points="246.89,-0.5 246.89,-156.5 407.89,-156.5 407.89,-0.5 246.89,-0.5"/>
<text text-anchor="start" x="254.89" y="-144.5" font-family="Helvetica,sans-Serif" font-size="10.00">pocketmine\block\Brewing</text>
<text text-anchor="middle" x="327.39" y="-133.5" font-family="Helvetica,sans-Serif" font-size="10.00">Stand</text>
<polyline fill="none" stroke="black" points="246.89,-126.5 407.89,-126.5 "/>
<text text-anchor="start" x="254.89" y="-114.5" font-family="Helvetica,sans-Serif" font-size="10.00"># $slots</text>
<polyline fill="none" stroke="black" points="246.89,-107.5 407.89,-107.5 "/>
<text text-anchor="start" x="254.89" y="-95.5" font-family="Helvetica,sans-Serif" font-size="10.00">+ getSlots()</text>
<text text-anchor="start" x="254.89" y="-84.5" font-family="Helvetica,sans-Serif" font-size="10.00">+ getSupportType()</text>
<text text-anchor="start" x="254.89" y="-73.5" font-family="Helvetica,sans-Serif" font-size="10.00">+ hasSlot()</text>
<text text-anchor="start" x="254.89" y="-62.5" font-family="Helvetica,sans-Serif" font-size="10.00">+ onInteract()</text>
<text text-anchor="start" x="254.89" y="-51.5" font-family="Helvetica,sans-Serif" font-size="10.00">+ onScheduledUpdate()</text>
<text text-anchor="start" x="254.89" y="-40.5" font-family="Helvetica,sans-Serif" font-size="10.00">+ setSlot()</text>
<text text-anchor="start" x="254.89" y="-29.5" font-family="Helvetica,sans-Serif" font-size="10.00">+ setSlots()</text>
<text text-anchor="start" x="254.89" y="-18.5" font-family="Helvetica,sans-Serif" font-size="10.00"># describeBlockOnlyState()</text>
<text text-anchor="start" x="254.89" y="-7.5" font-family="Helvetica,sans-Serif" font-size="10.00"># recalculateCollisionBoxes()</text>
</a>
</g>
</g>
<!-- Node2 -->
<g id="node2" class="node">
<title>Node2</title>
<g id="a_node2"><a xlink:href="../../d5/d1b/classpocketmine_1_1block_1_1_transparent.html" target="_top" xlink:title=" ">
<polygon fill="white" stroke="black" points="245.89,-194.5 245.89,-251.5 408.89,-251.5 408.89,-194.5 245.89,-194.5"/>
<text text-anchor="middle" x="327.39" y="-239.5" font-family="Helvetica,sans-Serif" font-size="10.00">pocketmine\block\Transparent</text>
<polyline fill="none" stroke="black" points="245.89,-232.5 408.89,-232.5 "/>
<text text-anchor="middle" x="327.39" y="-220.5" font-family="Helvetica,sans-Serif" font-size="10.00"> </text>
<polyline fill="none" stroke="black" points="245.89,-213.5 408.89,-213.5 "/>
<text text-anchor="start" x="253.89" y="-201.5" font-family="Helvetica,sans-Serif" font-size="10.00">+ isTransparent()</text>
</a>
</g>
</g>
<!-- Node2&#45;&gt;Node1 -->
<g id="edge1" class="edge">
<title>Node2&#45;&gt;Node1</title>
<path fill="none" stroke="midnightblue" d="M327.39,-183.91C327.39,-175.42 327.39,-166.12 327.39,-156.69"/>
<polygon fill="none" stroke="midnightblue" points="323.89,-184.19 327.39,-194.19 330.89,-184.19 323.89,-184.19"/>
</g>
<!-- Node3 -->
<g id="node3" class="node">
<title>Node3</title>
<g id="a_node3"><a xlink:href="../../d7/d27/classpocketmine_1_1block_1_1_block.html" target="_top" xlink:title=" ">
<polygon fill="white" stroke="#bfbfbf" points="246.89,-289.5 246.89,-500.5 407.89,-500.5 407.89,-289.5 246.89,-289.5"/>
<text text-anchor="middle" x="327.39" y="-488.5" font-family="Helvetica,sans-Serif" font-size="10.00">pocketmine\block\Block</text>
<polyline fill="none" stroke="#bfbfbf" points="246.89,-481.5 407.89,-481.5 "/>
<text text-anchor="start" x="254.89" y="-469.5" font-family="Helvetica,sans-Serif" font-size="10.00"># $collisionBoxes</text>
<text text-anchor="start" x="254.89" y="-458.5" font-family="Helvetica,sans-Serif" font-size="10.00"># $fallbackName</text>
<polyline fill="none" stroke="#bfbfbf" points="246.89,-451.5 407.89,-451.5 "/>
<text text-anchor="start" x="254.89" y="-439.5" font-family="Helvetica,sans-Serif" font-size="10.00">+ __construct()</text>
<text text-anchor="start" x="254.89" y="-428.5" font-family="Helvetica,sans-Serif" font-size="10.00">+ __clone()</text>
<text text-anchor="start" x="254.89" y="-417.5" font-family="Helvetica,sans-Serif" font-size="10.00">+ __toString()</text>
<text text-anchor="start" x="254.89" y="-406.5" font-family="Helvetica,sans-Serif" font-size="10.00">+ addVelocityToEntity()</text>
<text text-anchor="start" x="254.89" y="-395.5" font-family="Helvetica,sans-Serif" font-size="10.00">+ asItem()</text>
<text text-anchor="start" x="254.89" y="-384.5" font-family="Helvetica,sans-Serif" font-size="10.00">+ blocksDirectSkyLight()</text>
<text text-anchor="start" x="254.89" y="-373.5" font-family="Helvetica,sans-Serif" font-size="10.00">+ burnsForever()</text>
<text text-anchor="start" x="254.89" y="-362.5" font-family="Helvetica,sans-Serif" font-size="10.00">+ calculateIntercept()</text>
<text text-anchor="start" x="254.89" y="-351.5" font-family="Helvetica,sans-Serif" font-size="10.00">+ canBeFlowedInto()</text>
<text text-anchor="start" x="254.89" y="-340.5" font-family="Helvetica,sans-Serif" font-size="10.00">+ canBePlaced()</text>
<text text-anchor="start" x="254.89" y="-329.5" font-family="Helvetica,sans-Serif" font-size="10.00">and 59 more...</text>
<text text-anchor="start" x="254.89" y="-318.5" font-family="Helvetica,sans-Serif" font-size="10.00"># describeBlockOnlyState()</text>
<text text-anchor="start" x="254.89" y="-307.5" font-family="Helvetica,sans-Serif" font-size="10.00"># getXpDropAmount()</text>
<text text-anchor="start" x="254.89" y="-296.5" font-family="Helvetica,sans-Serif" font-size="10.00"># recalculateCollisionBoxes()</text>
</a>
</g>
</g>
<!-- Node3&#45;&gt;Node2 -->
<g id="edge2" class="edge">
<title>Node3&#45;&gt;Node2</title>
<path fill="none" stroke="midnightblue" d="M327.39,-279.05C327.39,-269.05 327.39,-259.68 327.39,-251.61"/>
<polygon fill="none" stroke="midnightblue" points="323.89,-279.24 327.39,-289.24 330.89,-279.24 323.89,-279.24"/>
</g>
<!-- Node4 -->
<g id="node4" class="node">
<title>Node4</title>
<g id="a_node4"><a xlink:title=" ">
<polygon fill="white" stroke="#bfbfbf" points="4.89,-1297.5 4.89,-1354.5 47.89,-1354.5 47.89,-1297.5 4.89,-1297.5"/>
<text text-anchor="middle" x="26.39" y="-1342.5" font-family="Helvetica,sans-Serif" font-size="10.00">const</text>
<polyline fill="none" stroke="#bfbfbf" points="4.89,-1335.5 47.89,-1335.5 "/>
<text text-anchor="middle" x="26.39" y="-1323.5" font-family="Helvetica,sans-Serif" font-size="10.00"> </text>
<polyline fill="none" stroke="#bfbfbf" points="4.89,-1316.5 47.89,-1316.5 "/>
<text text-anchor="middle" x="26.39" y="-1304.5" font-family="Helvetica,sans-Serif" font-size="10.00"> </text>
</a>
</g>
</g>
<!-- Node4&#45;&gt;Node3 -->
<g id="edge3" class="edge">
<title>Node4&#45;&gt;Node3</title>
<path fill="none" stroke="#404040" d="M22.05,-1297.33C9.13,-1208.75 -24.8,-924.84 32.39,-701 51.34,-626.85 61.09,-605.68 111.39,-548 146.61,-507.61 194.69,-472.42 236.54,-446.1"/>
<polygon fill="none" stroke="#404040" points="236.56,-446.09 239.55,-439.53 246.76,-439.77 243.76,-446.33 236.56,-446.09"/>
<text text-anchor="start" x="32.39" y="-726" font-family="Helvetica,sans-Serif" font-size="10.00"> +INTERNAL_STATE_DATA</text>
<text text-anchor="middle" x="110.89" y="-715" font-family="Helvetica,sans-Serif" font-size="10.00">_BITS</text>
<text text-anchor="middle" x="110.89" y="-704" font-family="Helvetica,sans-Serif" font-size="10.00">+INTERNAL_STATE_DATA_MASK</text>
</g>
<!-- Node9 -->
<g id="node9" class="node">
<title>Node9</title>
<g id="a_node9"><a xlink:href="../../d4/d2b/classpocketmine_1_1world_1_1_world.html" target="_top" xlink:title=" ">
<polygon fill="white" stroke="black" points="107.39,-752.5 107.39,-1062.5 279.39,-1062.5 279.39,-752.5 107.39,-752.5"/>
<text text-anchor="middle" x="193.39" y="-1050.5" font-family="Helvetica,sans-Serif" font-size="10.00">pocketmine\world\World</text>
<polyline fill="none" stroke="black" points="107.39,-1043.5 279.39,-1043.5 "/>
<text text-anchor="start" x="115.39" y="-1031.5" font-family="Helvetica,sans-Serif" font-size="10.00">+ $stopTime</text>
<text text-anchor="start" x="115.39" y="-1020.5" font-family="Helvetica,sans-Serif" font-size="10.00">+ $tickRateTime</text>
<text text-anchor="start" x="115.39" y="-1009.5" font-family="Helvetica,sans-Serif" font-size="10.00">+ $updateEntities</text>
<text text-anchor="start" x="115.39" y="-998.5" font-family="Helvetica,sans-Serif" font-size="10.00">+ TIME_SUNRISE</text>
<text text-anchor="start" x="115.39" y="-987.5" font-family="Helvetica,sans-Serif" font-size="10.00">+ TIME_SUNSET</text>
<text text-anchor="start" x="115.39" y="-976.5" font-family="Helvetica,sans-Serif" font-size="10.00">+ Y_MAX</text>
<text text-anchor="start" x="115.39" y="-965.5" font-family="Helvetica,sans-Serif" font-size="10.00">+ Y_MIN</text>
<polyline fill="none" stroke="black" points="107.39,-958.5 279.39,-958.5 "/>
<text text-anchor="start" x="115.39" y="-946.5" font-family="Helvetica,sans-Serif" font-size="10.00">+ __construct()</text>
<text text-anchor="start" x="115.39" y="-935.5" font-family="Helvetica,sans-Serif" font-size="10.00">+ __debugInfo()</text>
<text text-anchor="start" x="115.39" y="-924.5" font-family="Helvetica,sans-Serif" font-size="10.00">+ addEntity()</text>
<text text-anchor="start" x="115.39" y="-913.5" font-family="Helvetica,sans-Serif" font-size="10.00">+ addOnUnloadCallback()</text>
<text text-anchor="start" x="115.39" y="-902.5" font-family="Helvetica,sans-Serif" font-size="10.00">+ addParticle()</text>
<text text-anchor="start" x="115.39" y="-891.5" font-family="Helvetica,sans-Serif" font-size="10.00">+ addRandomTickedBlock()</text>
<text text-anchor="start" x="115.39" y="-880.5" font-family="Helvetica,sans-Serif" font-size="10.00">+ addSound()</text>
<text text-anchor="start" x="115.39" y="-869.5" font-family="Helvetica,sans-Serif" font-size="10.00">+ addTile()</text>
<text text-anchor="start" x="115.39" y="-858.5" font-family="Helvetica,sans-Serif" font-size="10.00">+ broadcastPacketToViewers()</text>
<text text-anchor="start" x="115.39" y="-847.5" font-family="Helvetica,sans-Serif" font-size="10.00">+ cancelUnloadChunkRequest()</text>
<text text-anchor="start" x="115.39" y="-836.5" font-family="Helvetica,sans-Serif" font-size="10.00">and 120 more...</text>
<text text-anchor="start" x="115.39" y="-825.5" font-family="Helvetica,sans-Serif" font-size="10.00">+ blockHash()</text>
<text text-anchor="start" x="115.39" y="-814.5" font-family="Helvetica,sans-Serif" font-size="10.00">+ chunkBlockHash()</text>
<text text-anchor="start" x="115.39" y="-803.5" font-family="Helvetica,sans-Serif" font-size="10.00">+ chunkHash()</text>
<text text-anchor="start" x="115.39" y="-792.5" font-family="Helvetica,sans-Serif" font-size="10.00">+ getBlockXYZ()</text>
<text text-anchor="start" x="115.39" y="-781.5" font-family="Helvetica,sans-Serif" font-size="10.00">+ getDifficultyFromString()</text>
<text text-anchor="start" x="115.39" y="-770.5" font-family="Helvetica,sans-Serif" font-size="10.00">+ getXZ()</text>
<text text-anchor="start" x="115.39" y="-759.5" font-family="Helvetica,sans-Serif" font-size="10.00"># actuallyDoTick()</text>
</a>
</g>
</g>
<!-- Node4&#45;&gt;Node9 -->
<g id="edge10" class="edge">
<title>Node4&#45;&gt;Node9</title>
<path fill="none" stroke="#404040" d="M24.18,-1297.39C21.52,-1250.81 20.72,-1154.49 51.39,-1081 63,-1053.19 80.64,-1026.37 99.58,-1002.51"/>
<polygon fill="none" stroke="#404040" points="99.61,-1002.47 100.29,-995.29 107.18,-993.16 106.5,-1000.34 99.61,-1002.47"/>
<text text-anchor="start" x="51.39" y="-1205" font-family="Helvetica,sans-Serif" font-size="10.00"> +DEFAULT_TICKED_BLOCKS</text>
<text text-anchor="middle" x="121.39" y="-1194" font-family="Helvetica,sans-Serif" font-size="10.00">_PER_SUBCHUNK_PER_TICK</text>
<text text-anchor="middle" x="121.39" y="-1183" font-family="Helvetica,sans-Serif" font-size="10.00">+DIFFICULTY_EASY</text>
<text text-anchor="middle" x="121.39" y="-1172" font-family="Helvetica,sans-Serif" font-size="10.00">+DIFFICULTY_HARD</text>
<text text-anchor="middle" x="121.39" y="-1161" font-family="Helvetica,sans-Serif" font-size="10.00">+DIFFICULTY_NORMAL</text>
<text text-anchor="middle" x="121.39" y="-1150" font-family="Helvetica,sans-Serif" font-size="10.00">+DIFFICULTY_PEACEFUL</text>
<text text-anchor="middle" x="121.39" y="-1139" font-family="Helvetica,sans-Serif" font-size="10.00">+TIME_DAY</text>
<text text-anchor="middle" x="121.39" y="-1128" font-family="Helvetica,sans-Serif" font-size="10.00">+TIME_FULL</text>
<text text-anchor="middle" x="121.39" y="-1117" font-family="Helvetica,sans-Serif" font-size="10.00">+TIME_MIDNIGHT</text>
<text text-anchor="middle" x="121.39" y="-1106" font-family="Helvetica,sans-Serif" font-size="10.00">+TIME_NIGHT</text>
<text text-anchor="middle" x="121.39" y="-1095" font-family="Helvetica,sans-Serif" font-size="10.00">+TIME_NOON</text>
<text text-anchor="middle" x="121.39" y="-1084" font-family="Helvetica,sans-Serif" font-size="10.00">...</text>
</g>
<!-- Node5 -->
<g id="node5" class="node">
<title>Node5</title>
<g id="a_node5"><a xlink:href="../../dd/d18/classpocketmine_1_1block_1_1_block_identifier.html" target="_top" xlink:title=" ">
<polygon fill="white" stroke="#bfbfbf" points="284.39,-576 284.39,-655 460.39,-655 460.39,-576 284.39,-576"/>
<text text-anchor="middle" x="372.39" y="-643" font-family="Helvetica,sans-Serif" font-size="10.00">pocketmine\block\BlockIdentifier</text>
<polyline fill="none" stroke="#bfbfbf" points="284.39,-636 460.39,-636 "/>
<text text-anchor="middle" x="372.39" y="-624" font-family="Helvetica,sans-Serif" font-size="10.00"> </text>
<polyline fill="none" stroke="#bfbfbf" points="284.39,-617 460.39,-617 "/>
<text text-anchor="start" x="292.39" y="-605" font-family="Helvetica,sans-Serif" font-size="10.00">+ __construct()</text>
<text text-anchor="start" x="292.39" y="-594" font-family="Helvetica,sans-Serif" font-size="10.00">+ getBlockTypeId()</text>
<text text-anchor="start" x="292.39" y="-583" font-family="Helvetica,sans-Serif" font-size="10.00">+ getTileClass()</text>
</a>
</g>
</g>
<!-- Node5&#45;&gt;Node3 -->
<g id="edge4" class="edge">
<title>Node5&#45;&gt;Node3</title>
<path fill="none" stroke="#404040" d="M364.45,-575.94C360.75,-558 356.14,-535.59 351.44,-512.75"/>
<polygon fill="none" stroke="#404040" points="351.39,-512.54 346.26,-507.47 348.97,-500.79 354.1,-505.85 351.39,-512.54"/>
<text text-anchor="middle" x="377.39" y="-522" font-family="Helvetica,sans-Serif" font-size="10.00"> #$idInfo</text>
</g>
<!-- Node6 -->
<g id="node6" class="node">
<title>Node6</title>
<g id="a_node6"><a xlink:href="../../de/d9a/classpocketmine_1_1block_1_1_block_type_info.html" target="_top" xlink:title=" ">
<polygon fill="white" stroke="#bfbfbf" points="478.39,-570.5 478.39,-660.5 652.39,-660.5 652.39,-570.5 478.39,-570.5"/>
<text text-anchor="middle" x="565.39" y="-648.5" font-family="Helvetica,sans-Serif" font-size="10.00">pocketmine\block\BlockTypeInfo</text>
<polyline fill="none" stroke="#bfbfbf" points="478.39,-641.5 652.39,-641.5 "/>
<text text-anchor="middle" x="565.39" y="-629.5" font-family="Helvetica,sans-Serif" font-size="10.00"> </text>
<polyline fill="none" stroke="#bfbfbf" points="478.39,-622.5 652.39,-622.5 "/>
<text text-anchor="start" x="486.39" y="-610.5" font-family="Helvetica,sans-Serif" font-size="10.00">+ __construct()</text>
<text text-anchor="start" x="486.39" y="-599.5" font-family="Helvetica,sans-Serif" font-size="10.00">+ getBreakInfo()</text>
<text text-anchor="start" x="486.39" y="-588.5" font-family="Helvetica,sans-Serif" font-size="10.00">+ getTypeTags()</text>
<text text-anchor="start" x="486.39" y="-577.5" font-family="Helvetica,sans-Serif" font-size="10.00">+ hasTypeTag()</text>
</a>
</g>
</g>
<!-- Node6&#45;&gt;Node3 -->
<g id="edge5" class="edge">
<title>Node6&#45;&gt;Node3</title>
<path fill="none" stroke="#404040" d="M517.23,-570.28C488.55,-543.96 451.24,-509.7 417.3,-478.54"/>
<polygon fill="none" stroke="#404040" points="417.13,-478.38 410,-477.27 408.29,-470.27 415.41,-471.38 417.13,-478.38"/>
<text text-anchor="middle" x="497.39" y="-522" font-family="Helvetica,sans-Serif" font-size="10.00"> #$typeInfo</text>
</g>
<!-- Node7 -->
<g id="node7" class="node">
<title>Node7</title>
<g id="a_node7"><a xlink:href="../../d5/dd2/classpocketmine_1_1world_1_1_position.html" target="_top" xlink:title=" ">
<polygon fill="white" stroke="#bfbfbf" points="120.39,-548.5 120.39,-682.5 266.39,-682.5 266.39,-548.5 120.39,-548.5"/>
<text text-anchor="middle" x="193.39" y="-670.5" font-family="Helvetica,sans-Serif" font-size="10.00">pocketmine\world\Position</text>
<polyline fill="none" stroke="#bfbfbf" points="120.39,-663.5 266.39,-663.5 "/>
<text text-anchor="middle" x="193.39" y="-651.5" font-family="Helvetica,sans-Serif" font-size="10.00"> </text>
<polyline fill="none" stroke="#bfbfbf" points="120.39,-644.5 266.39,-644.5 "/>
<text text-anchor="start" x="128.39" y="-632.5" font-family="Helvetica,sans-Serif" font-size="10.00">+ __construct()</text>
<text text-anchor="start" x="128.39" y="-621.5" font-family="Helvetica,sans-Serif" font-size="10.00">+ __toString()</text>
<text text-anchor="start" x="128.39" y="-610.5" font-family="Helvetica,sans-Serif" font-size="10.00">+ asPosition()</text>
<text text-anchor="start" x="128.39" y="-599.5" font-family="Helvetica,sans-Serif" font-size="10.00">+ equals()</text>
<text text-anchor="start" x="128.39" y="-588.5" font-family="Helvetica,sans-Serif" font-size="10.00">+ getSide()</text>
<text text-anchor="start" x="128.39" y="-577.5" font-family="Helvetica,sans-Serif" font-size="10.00">+ getWorld()</text>
<text text-anchor="start" x="128.39" y="-566.5" font-family="Helvetica,sans-Serif" font-size="10.00">+ isValid()</text>
<text text-anchor="start" x="128.39" y="-555.5" font-family="Helvetica,sans-Serif" font-size="10.00">+ fromObject()</text>
</a>
</g>
</g>
<!-- Node7&#45;&gt;Node3 -->
<g id="edge6" class="edge">
<title>Node7&#45;&gt;Node3</title>
<path fill="none" stroke="#404040" d="M233.96,-548.35C241.25,-536.46 249.04,-523.75 256.9,-510.94"/>
<polygon fill="none" stroke="#404040" points="256.93,-510.89 256.66,-503.68 263.21,-500.66 263.48,-507.87 256.93,-510.89"/>
<text text-anchor="middle" x="276.89" y="-522" font-family="Helvetica,sans-Serif" font-size="10.00"> #$position</text>
</g>
<!-- Node8 -->
<g id="node8" class="node">
<title>Node8</title>
<g id="a_node8"><a xlink:href="../../d2/d90/classpocketmine_1_1math_1_1_vector3.html" target="_top" xlink:title=" ">
<polygon fill="white" stroke="#bfbfbf" points="297.39,-791 297.39,-1024 439.39,-1024 439.39,-791 297.39,-791"/>
<text text-anchor="middle" x="368.39" y="-1012" font-family="Helvetica,sans-Serif" font-size="10.00">pocketmine\math\Vector3</text>
<polyline fill="none" stroke="#bfbfbf" points="297.39,-1005 439.39,-1005 "/>
<text text-anchor="start" x="305.39" y="-993" font-family="Helvetica,sans-Serif" font-size="10.00">+ $x</text>
<text text-anchor="start" x="305.39" y="-982" font-family="Helvetica,sans-Serif" font-size="10.00">+ $y</text>
<text text-anchor="start" x="305.39" y="-971" font-family="Helvetica,sans-Serif" font-size="10.00">+ $z</text>
<polyline fill="none" stroke="#bfbfbf" points="297.39,-964 439.39,-964 "/>
<text text-anchor="start" x="305.39" y="-952" font-family="Helvetica,sans-Serif" font-size="10.00">+ __construct()</text>
<text text-anchor="start" x="305.39" y="-941" font-family="Helvetica,sans-Serif" font-size="10.00">+ __toString()</text>
<text text-anchor="start" x="305.39" y="-930" font-family="Helvetica,sans-Serif" font-size="10.00">+ abs()</text>
<text text-anchor="start" x="305.39" y="-919" font-family="Helvetica,sans-Serif" font-size="10.00">+ add()</text>
<text text-anchor="start" x="305.39" y="-908" font-family="Helvetica,sans-Serif" font-size="10.00">+ addVector()</text>
<text text-anchor="start" x="305.39" y="-897" font-family="Helvetica,sans-Serif" font-size="10.00">+ asVector3()</text>
<text text-anchor="start" x="305.39" y="-886" font-family="Helvetica,sans-Serif" font-size="10.00">+ ceil()</text>
<text text-anchor="start" x="305.39" y="-875" font-family="Helvetica,sans-Serif" font-size="10.00">+ cross()</text>
<text text-anchor="start" x="305.39" y="-864" font-family="Helvetica,sans-Serif" font-size="10.00">+ distance()</text>
<text text-anchor="start" x="305.39" y="-853" font-family="Helvetica,sans-Serif" font-size="10.00">+ distanceSquared()</text>
<text text-anchor="start" x="305.39" y="-842" font-family="Helvetica,sans-Serif" font-size="10.00">and 32 more...</text>
<text text-anchor="start" x="305.39" y="-831" font-family="Helvetica,sans-Serif" font-size="10.00">+ maxComponents()</text>
<text text-anchor="start" x="305.39" y="-820" font-family="Helvetica,sans-Serif" font-size="10.00">+ minComponents()</text>
<text text-anchor="start" x="305.39" y="-809" font-family="Helvetica,sans-Serif" font-size="10.00">+ sum()</text>
<text text-anchor="start" x="305.39" y="-798" font-family="Helvetica,sans-Serif" font-size="10.00">+ zero()</text>
</a>
</g>
</g>
<!-- Node8&#45;&gt;Node7 -->
<g id="edge7" class="edge">
<title>Node8&#45;&gt;Node7</title>
<path fill="none" stroke="midnightblue" d="M305.69,-781.84C300.01,-771.65 294.2,-761.59 288.39,-752 274.32,-728.78 257.7,-704.24 242.32,-682.51"/>
<polygon fill="none" stroke="midnightblue" points="302.75,-783.76 310.65,-790.82 308.88,-780.37 302.75,-783.76"/>
</g>
<!-- Node9&#45;&gt;Node7 -->
<g id="edge8" class="edge">
<title>Node9&#45;&gt;Node7</title>
<path fill="none" stroke="#404040" d="M193.39,-752.16C193.39,-732.27 193.39,-712.61 193.39,-694.69"/>
<polygon fill="none" stroke="#404040" points="193.39,-694.59 189.39,-688.59 193.39,-682.59 197.39,-688.59 193.39,-694.59"/>
<text text-anchor="middle" x="215.89" y="-715" font-family="Helvetica,sans-Serif" font-size="10.00"> +$world</text>
</g>
<!-- Node10 -->
<g id="node10" class="node">
<title>Node10</title>
<g id="a_node10"><a xlink:href="../../d0/d03/interfacepocketmine_1_1world_1_1_chunk_manager.html" target="_top" xlink:title=" ">
<polygon fill="white" stroke="#bfbfbf" points="107.39,-1264.5 107.39,-1387.5 287.39,-1387.5 287.39,-1264.5 107.39,-1264.5"/>
<text text-anchor="middle" x="197.39" y="-1375.5" font-family="Helvetica,sans-Serif" font-size="10.00">pocketmine\world\ChunkManager</text>
<polyline fill="none" stroke="#bfbfbf" points="107.39,-1368.5 287.39,-1368.5 "/>
<text text-anchor="middle" x="197.39" y="-1356.5" font-family="Helvetica,sans-Serif" font-size="10.00"> </text>
<polyline fill="none" stroke="#bfbfbf" points="107.39,-1349.5 287.39,-1349.5 "/>
<text text-anchor="start" x="115.39" y="-1337.5" font-family="Helvetica,sans-Serif" font-size="10.00">+ getBlockAt()</text>
<text text-anchor="start" x="115.39" y="-1326.5" font-family="Helvetica,sans-Serif" font-size="10.00">+ getChunk()</text>
<text text-anchor="start" x="115.39" y="-1315.5" font-family="Helvetica,sans-Serif" font-size="10.00">+ getMaxY()</text>
<text text-anchor="start" x="115.39" y="-1304.5" font-family="Helvetica,sans-Serif" font-size="10.00">+ getMinY()</text>
<text text-anchor="start" x="115.39" y="-1293.5" font-family="Helvetica,sans-Serif" font-size="10.00">+ isInWorld()</text>
<text text-anchor="start" x="115.39" y="-1282.5" font-family="Helvetica,sans-Serif" font-size="10.00">+ setBlockAt()</text>
<text text-anchor="start" x="115.39" y="-1271.5" font-family="Helvetica,sans-Serif" font-size="10.00">+ setChunk()</text>
</a>
</g>
</g>
<!-- Node10&#45;&gt;Node9 -->
<g id="edge9" class="edge">
<title>Node10&#45;&gt;Node9</title>
<path fill="none" stroke="midnightblue" d="M196.71,-1254.24C196.21,-1201.82 195.5,-1128.38 194.87,-1062.66"/>
<polygon fill="none" stroke="midnightblue" points="193.21,-1254.47 196.81,-1264.44 200.21,-1254.4 193.21,-1254.47"/>
</g>
<!-- Node11 -->
<g id="node11" class="node">
<title>Node11</title>
<g id="a_node11"><a xlink:href="../../d7/d08/classpocketmine_1_1world_1_1_world_timings.html" target="_top" xlink:title=" ">
<polygon fill="white" stroke="#bfbfbf" points="305.89,-1231.5 305.89,-1420.5 478.89,-1420.5 478.89,-1231.5 305.89,-1231.5"/>
<text text-anchor="middle" x="392.39" y="-1408.5" font-family="Helvetica,sans-Serif" font-size="10.00">pocketmine\world\WorldTimings</text>
<polyline fill="none" stroke="#bfbfbf" points="305.89,-1401.5 478.89,-1401.5 "/>
<text text-anchor="start" x="313.89" y="-1389.5" font-family="Helvetica,sans-Serif" font-size="10.00">+ $scheduledBlockUpdates</text>
<text text-anchor="start" x="313.89" y="-1378.5" font-family="Helvetica,sans-Serif" font-size="10.00">+ $setBlock</text>
<text text-anchor="start" x="313.89" y="-1367.5" font-family="Helvetica,sans-Serif" font-size="10.00">+ $syncChunkLoad</text>
<text text-anchor="start" x="313.89" y="-1356.5" font-family="Helvetica,sans-Serif" font-size="10.00">+ $syncChunkLoadData</text>
<text text-anchor="start" x="313.89" y="-1345.5" font-family="Helvetica,sans-Serif" font-size="10.00">+ $syncChunkLoadEntities</text>
<text text-anchor="start" x="313.89" y="-1334.5" font-family="Helvetica,sans-Serif" font-size="10.00">+ $syncChunkLoadFixInvalid</text>
<text text-anchor="start" x="313.89" y="-1323.5" font-family="Helvetica,sans-Serif" font-size="10.00">Blocks</text>
<text text-anchor="start" x="313.89" y="-1312.5" font-family="Helvetica,sans-Serif" font-size="10.00">+ $syncChunkLoadTileEntities</text>
<text text-anchor="start" x="313.89" y="-1301.5" font-family="Helvetica,sans-Serif" font-size="10.00">+ $syncChunkSave</text>
<text text-anchor="start" x="313.89" y="-1290.5" font-family="Helvetica,sans-Serif" font-size="10.00">+ $syncChunkSend</text>
<text text-anchor="start" x="313.89" y="-1279.5" font-family="Helvetica,sans-Serif" font-size="10.00">+ $syncChunkSendPrepare</text>
<text text-anchor="start" x="313.89" y="-1268.5" font-family="Helvetica,sans-Serif" font-size="10.00">+ $syncDataSave</text>
<text text-anchor="start" x="313.89" y="-1257.5" font-family="Helvetica,sans-Serif" font-size="10.00">+ $tileTick</text>
<polyline fill="none" stroke="#bfbfbf" points="305.89,-1250.5 478.89,-1250.5 "/>
<text text-anchor="start" x="313.89" y="-1238.5" font-family="Helvetica,sans-Serif" font-size="10.00">+ __construct()</text>
</a>
</g>
</g>
<!-- Node11&#45;&gt;Node9 -->
<g id="edge11" class="edge">
<title>Node11&#45;&gt;Node9</title>
<path fill="none" stroke="#404040" d="M347.61,-1231.27C325.41,-1184.81 297.94,-1127.32 272.37,-1073.79"/>
<polygon fill="none" stroke="#404040" points="272.28,-1073.62 266.09,-1069.93 267.11,-1062.79 273.31,-1066.48 272.28,-1073.62"/>
<text text-anchor="middle" x="361.89" y="-1144.5" font-family="Helvetica,sans-Serif" font-size="10.00"> +$timings</text>
</g>
<!-- Node12 -->
<g id="node12" class="node">
<title>Node12</title>
<g id="a_node12"><a xlink:href="../../d7/d9b/classpocketmine_1_1timings_1_1_timings_handler.html" target="_top" xlink:title=" ">
<polygon fill="white" stroke="#bfbfbf" points="335.89,-1589.5 335.89,-1789.5 448.89,-1789.5 448.89,-1589.5 335.89,-1589.5"/>
<text text-anchor="start" x="343.89" y="-1777.5" font-family="Helvetica,sans-Serif" font-size="10.00">pocketmine\timings</text>
<text text-anchor="middle" x="392.39" y="-1766.5" font-family="Helvetica,sans-Serif" font-size="10.00">\TimingsHandler</text>
<polyline fill="none" stroke="#bfbfbf" points="335.89,-1759.5 448.89,-1759.5 "/>
<text text-anchor="middle" x="392.39" y="-1747.5" font-family="Helvetica,sans-Serif" font-size="10.00"> </text>
<polyline fill="none" stroke="#bfbfbf" points="335.89,-1740.5 448.89,-1740.5 "/>
<text text-anchor="start" x="343.89" y="-1728.5" font-family="Helvetica,sans-Serif" font-size="10.00">+ __construct()</text>
<text text-anchor="start" x="343.89" y="-1717.5" font-family="Helvetica,sans-Serif" font-size="10.00">+ getGroup()</text>
<text text-anchor="start" x="343.89" y="-1706.5" font-family="Helvetica,sans-Serif" font-size="10.00">+ getName()</text>
<text text-anchor="start" x="343.89" y="-1695.5" font-family="Helvetica,sans-Serif" font-size="10.00">+ reset()</text>
<text text-anchor="start" x="343.89" y="-1684.5" font-family="Helvetica,sans-Serif" font-size="10.00">+ startTiming()</text>
<text text-anchor="start" x="343.89" y="-1673.5" font-family="Helvetica,sans-Serif" font-size="10.00">+ stopTiming()</text>
<text text-anchor="start" x="343.89" y="-1662.5" font-family="Helvetica,sans-Serif" font-size="10.00">+ time()</text>
<text text-anchor="start" x="343.89" y="-1651.5" font-family="Helvetica,sans-Serif" font-size="10.00">+ getStartTime()</text>
<text text-anchor="start" x="343.89" y="-1640.5" font-family="Helvetica,sans-Serif" font-size="10.00">+ isEnabled()</text>
<text text-anchor="start" x="343.89" y="-1629.5" font-family="Helvetica,sans-Serif" font-size="10.00">+ printTimings()</text>
<text text-anchor="start" x="343.89" y="-1618.5" font-family="Helvetica,sans-Serif" font-size="10.00">+ reload()</text>
<text text-anchor="start" x="343.89" y="-1607.5" font-family="Helvetica,sans-Serif" font-size="10.00">+ setEnabled()</text>
<text text-anchor="start" x="343.89" y="-1596.5" font-family="Helvetica,sans-Serif" font-size="10.00">+ tick()</text>
</a>
</g>
</g>
<!-- Node12&#45;&gt;Node11 -->
<g id="edge12" class="edge">
<title>Node12&#45;&gt;Node11</title>
<path fill="none" stroke="#404040" d="M392.39,-1589.24C392.39,-1540.68 392.39,-1482.19 392.39,-1432.78"/>
<polygon fill="none" stroke="#404040" points="392.39,-1432.75 388.39,-1426.75 392.39,-1420.75 396.39,-1426.75 392.39,-1432.75"/>
<text text-anchor="middle" x="469.89" y="-1563" font-family="Helvetica,sans-Serif" font-size="10.00"> +$chunkPopulationCompletion</text>
<text text-anchor="middle" x="469.89" y="-1552" font-family="Helvetica,sans-Serif" font-size="10.00">+$chunkPopulationOrder</text>
<text text-anchor="middle" x="469.89" y="-1541" font-family="Helvetica,sans-Serif" font-size="10.00">+$doBlockLightUpdates</text>
<text text-anchor="middle" x="469.89" y="-1530" font-family="Helvetica,sans-Serif" font-size="10.00">+$doBlockSkyLightUpdates</text>
<text text-anchor="middle" x="469.89" y="-1519" font-family="Helvetica,sans-Serif" font-size="10.00">+$doChunkGC</text>
<text text-anchor="middle" x="469.89" y="-1508" font-family="Helvetica,sans-Serif" font-size="10.00">+$doChunkUnload</text>
<text text-anchor="middle" x="469.89" y="-1497" font-family="Helvetica,sans-Serif" font-size="10.00">+$doTick</text>
<text text-anchor="middle" x="469.89" y="-1486" font-family="Helvetica,sans-Serif" font-size="10.00">+$entityTick</text>
<text text-anchor="middle" x="469.89" y="-1475" font-family="Helvetica,sans-Serif" font-size="10.00">+$randomChunkUpdates</text>
<text text-anchor="start" x="392.39" y="-1464" font-family="Helvetica,sans-Serif" font-size="10.00">+$randomChunkUpdatesChunk</text>
<text text-anchor="middle" x="469.89" y="-1453" font-family="Helvetica,sans-Serif" font-size="10.00">Selection</text>
<text text-anchor="middle" x="469.89" y="-1442" font-family="Helvetica,sans-Serif" font-size="10.00">...</text>
</g>
</g>
</svg>
        <g id="navigator" transform="translate(0 0)" fill="#404254">
                <rect fill="#f2f5e9" fill-opacity="0.5" stroke="#606060" stroke-width=".5" x="0" y="0" width="60" height="60"/>
                <use id="zoomplus" xlink:href="#zoomPlus" x="17" y="9" onmousedown="handleZoom(evt,'in')"/>
                <use id="zoomminus" xlink:href="#zoomMin" x="42" y="9" onmousedown="handleZoom(evt,'out')"/>
                <use id="reset" xlink:href="#resetDef" x="30" y="36" onmousedown="handleReset()"/>
                <g id="arrowUp" xlink:href="#dirArrow" transform="translate(30 24)" onmousedown="handlePan(0,-1)">
                  <use xlink:href="#rim" fill="#404040">
                        <set attributeName="fill" to="#808080" begin="arrowUp.mouseover" end="arrowUp.mouseout"/>
                  </use>
                  <path fill="none" stroke="white" stroke-width="1.5" d="M0,-3.0v7 M-2.5,-0.5L0,-3.0L2.5,-0.5"/>
                </g>
                <g id="arrowRight" xlink:href="#dirArrow" transform="rotate(90) translate(36 -43)" onmousedown="handlePan(1,0)">
                  <use xlink:href="#rim" fill="#404040">
                        <set attributeName="fill" to="#808080" begin="arrowRight.mouseover" end="arrowRight.mouseout"/>
                  </use>
                  <path fill="none" stroke="white" stroke-width="1.5" d="M0,-3.0v7 M-2.5,-0.5L0,-3.0L2.5,-0.5"/>
                </g>
                <g id="arrowDown" xlink:href="#dirArrow" transform="rotate(180) translate(-30 -48)" onmousedown="handlePan(0,1)">
                  <use xlink:href="#rim" fill="#404040">
                        <set attributeName="fill" to="#808080" begin="arrowDown.mouseover" end="arrowDown.mouseout"/>
                  </use>
                  <path fill="none" stroke="white" stroke-width="1.5" d="M0,-3.0v7 M-2.5,-0.5L0,-3.0L2.5,-0.5"/>
                </g>
                <g id="arrowLeft" xlink:href="#dirArrow" transform="rotate(270) translate(-36 17)" onmousedown="handlePan(-1,0)">
                  <use xlink:href="#rim" fill="#404040">
                        <set attributeName="fill" to="#808080" begin="arrowLeft.mouseover" end="arrowLeft.mouseout"/>
                  </use>
                  <path fill="none" stroke="white" stroke-width="1.5" d="M0,-3.0v7 M-2.5,-0.5L0,-3.0L2.5,-0.5"/>
                </g>
        </g>
        <svg viewBox="0 0 15 15" width="100%" height="30px" preserveAspectRatio="xMaxYMin meet">
         <g id="arrow_out" transform="scale(0.3 0.3)">
          <a xlink:href="classpocketmine_1_1block_1_1_brewing_stand__coll__graph_org.svg" target="_base">
           <rect id="button" ry="5" rx="5" y="6" x="6" height="38" width="38"
                fill="#f2f5e9" fill-opacity="0.5" stroke="#606060" stroke-width="1.0"/>
           <path id="arrow"
             d="M 11.500037,31.436501 C 11.940474,20.09759 22.043105,11.32322 32.158766,21.979434 L 37.068811,17.246167 C 37.068811,17.246167 37.088388,32 37.088388,32 L 22.160133,31.978069 C 22.160133,31.978069 26.997745,27.140456 26.997745,27.140456 C 18.528582,18.264221 13.291696,25.230495 11.500037,31.436501 z"
             style="fill:#404040;"/>
          </a>
         </g>
        </svg>
</svg>
