<?xml version="1.0" encoding="UTF-8" standalone="no"?>
<!DOCTYPE svg PUBLIC "-//W3C//DTD SVG 1.1//EN"
 "http://www.w3.org/Graphics/SVG/1.1/DTD/svg11.dtd">
<!-- Generated by graphviz version 2.43.0 (0)
 -->
<!-- Title: pocketmine\block\BigDripleafHead Pages: 1 -->
<svg width="661pt" height="1991pt"
 viewBox="0.00 0.00 660.89 1991.00" xmlns="http://www.w3.org/2000/svg" xmlns:xlink="http://www.w3.org/1999/xlink">
<g id="graph0" class="graph" transform="scale(1 1) rotate(0) translate(4 1987)">
<title>pocketmine\block\BigDripleafHead</title>
<polygon fill="white" stroke="transparent" points="-4,4 -4,-1987 656.89,-1987 656.89,4 -4,4"/>
<!-- Node1 -->
<g id="node1" class="node">
<title>Node1</title>
<g id="a_node1"><a xlink:title=" ">
<polygon fill="#bfbfbf" stroke="black" points="330.89,-0.5 330.89,-156.5 516.89,-156.5 516.89,-0.5 330.89,-0.5"/>
<text text-anchor="middle" x="423.89" y="-144.5" font-family="Helvetica,sans-Serif" font-size="10.00">pocketmine\block\BigDripleafHead</text>
<polyline fill="none" stroke="black" points="330.89,-137.5 516.89,-137.5 "/>
<text text-anchor="middle" x="423.89" y="-125.5" font-family="Helvetica,sans-Serif" font-size="10.00"> </text>
<polyline fill="none" stroke="black" points="330.89,-118.5 516.89,-118.5 "/>
<text text-anchor="start" x="338.89" y="-106.5" font-family="Helvetica,sans-Serif" font-size="10.00">+ __construct()</text>
<text text-anchor="start" x="338.89" y="-95.5" font-family="Helvetica,sans-Serif" font-size="10.00">+ getLeafState()</text>
<text text-anchor="start" x="338.89" y="-84.5" font-family="Helvetica,sans-Serif" font-size="10.00">+ hasEntityCollision()</text>
<text text-anchor="start" x="338.89" y="-73.5" font-family="Helvetica,sans-Serif" font-size="10.00">+ onEntityInside()</text>
<text text-anchor="start" x="338.89" y="-62.5" font-family="Helvetica,sans-Serif" font-size="10.00">+ onProjectileHit()</text>
<text text-anchor="start" x="338.89" y="-51.5" font-family="Helvetica,sans-Serif" font-size="10.00">+ onScheduledUpdate()</text>
<text text-anchor="start" x="338.89" y="-40.5" font-family="Helvetica,sans-Serif" font-size="10.00">+ setLeafState()</text>
<text text-anchor="start" x="338.89" y="-29.5" font-family="Helvetica,sans-Serif" font-size="10.00"># describeBlockOnlyState()</text>
<text text-anchor="start" x="338.89" y="-18.5" font-family="Helvetica,sans-Serif" font-size="10.00"># isHead()</text>
<text text-anchor="start" x="338.89" y="-7.5" font-family="Helvetica,sans-Serif" font-size="10.00"># recalculateCollisionBoxes()</text>
</a>
</g>
</g>
<!-- Node2 -->
<g id="node2" class="node">
<title>Node2</title>
<g id="a_node2"><a xlink:href="../../d5/d5a/classpocketmine_1_1block_1_1_base_big_dripleaf.html" target="_top" xlink:title=" ">
<polygon fill="white" stroke="#bfbfbf" points="248.89,-204.5 248.89,-338.5 406.89,-338.5 406.89,-204.5 248.89,-204.5"/>
<text text-anchor="start" x="256.89" y="-326.5" font-family="Helvetica,sans-Serif" font-size="10.00">pocketmine\block\BaseBig</text>
<text text-anchor="middle" x="327.89" y="-315.5" font-family="Helvetica,sans-Serif" font-size="10.00">Dripleaf</text>
<polyline fill="none" stroke="#bfbfbf" points="248.89,-308.5 406.89,-308.5 "/>
<text text-anchor="middle" x="327.89" y="-296.5" font-family="Helvetica,sans-Serif" font-size="10.00"> </text>
<polyline fill="none" stroke="#bfbfbf" points="248.89,-289.5 406.89,-289.5 "/>
<text text-anchor="start" x="256.89" y="-277.5" font-family="Helvetica,sans-Serif" font-size="10.00">+ getFlameEncouragement()</text>
<text text-anchor="start" x="256.89" y="-266.5" font-family="Helvetica,sans-Serif" font-size="10.00">+ getFlammability()</text>
<text text-anchor="start" x="256.89" y="-255.5" font-family="Helvetica,sans-Serif" font-size="10.00">+ getSupportType()</text>
<text text-anchor="start" x="256.89" y="-244.5" font-family="Helvetica,sans-Serif" font-size="10.00">+ onInteract()</text>
<text text-anchor="start" x="256.89" y="-233.5" font-family="Helvetica,sans-Serif" font-size="10.00">+ onNearbyBlockChange()</text>
<text text-anchor="start" x="256.89" y="-222.5" font-family="Helvetica,sans-Serif" font-size="10.00">+ place()</text>
<text text-anchor="start" x="256.89" y="-211.5" font-family="Helvetica,sans-Serif" font-size="10.00"># isHead()</text>
</a>
</g>
</g>
<!-- Node2&#45;&gt;Node1 -->
<g id="edge1" class="edge">
<title>Node2&#45;&gt;Node1</title>
<path fill="none" stroke="midnightblue" d="M365.76,-195.16C372.1,-182.55 378.68,-169.45 385.04,-156.8"/>
<polygon fill="none" stroke="midnightblue" points="362.56,-193.73 361.2,-204.23 368.82,-196.87 362.56,-193.73"/>
</g>
<!-- Node3 -->
<g id="node3" class="node">
<title>Node3</title>
<g id="a_node3"><a xlink:href="../../d5/d1b/classpocketmine_1_1block_1_1_transparent.html" target="_top" xlink:title=" ">
<polygon fill="white" stroke="black" points="246.39,-376.5 246.39,-433.5 409.39,-433.5 409.39,-376.5 246.39,-376.5"/>
<text text-anchor="middle" x="327.89" y="-421.5" font-family="Helvetica,sans-Serif" font-size="10.00">pocketmine\block\Transparent</text>
<polyline fill="none" stroke="black" points="246.39,-414.5 409.39,-414.5 "/>
<text text-anchor="middle" x="327.89" y="-402.5" font-family="Helvetica,sans-Serif" font-size="10.00"> </text>
<polyline fill="none" stroke="black" points="246.39,-395.5 409.39,-395.5 "/>
<text text-anchor="start" x="254.39" y="-383.5" font-family="Helvetica,sans-Serif" font-size="10.00">+ isTransparent()</text>
</a>
</g>
</g>
<!-- Node3&#45;&gt;Node2 -->
<g id="edge2" class="edge">
<title>Node3&#45;&gt;Node2</title>
<path fill="none" stroke="midnightblue" d="M327.89,-366.33C327.89,-357.68 327.89,-348.23 327.89,-338.77"/>
<polygon fill="none" stroke="midnightblue" points="324.39,-366.43 327.89,-376.43 331.39,-366.43 324.39,-366.43"/>
</g>
<!-- Node4 -->
<g id="node4" class="node">
<title>Node4</title>
<g id="a_node4"><a xlink:href="../../d7/d27/classpocketmine_1_1block_1_1_block.html" target="_top" xlink:title=" ">
<polygon fill="white" stroke="#bfbfbf" points="247.39,-471.5 247.39,-682.5 408.39,-682.5 408.39,-471.5 247.39,-471.5"/>
<text text-anchor="middle" x="327.89" y="-670.5" font-family="Helvetica,sans-Serif" font-size="10.00">pocketmine\block\Block</text>
<polyline fill="none" stroke="#bfbfbf" points="247.39,-663.5 408.39,-663.5 "/>
<text text-anchor="start" x="255.39" y="-651.5" font-family="Helvetica,sans-Serif" font-size="10.00"># $collisionBoxes</text>
<text text-anchor="start" x="255.39" y="-640.5" font-family="Helvetica,sans-Serif" font-size="10.00"># $fallbackName</text>
<polyline fill="none" stroke="#bfbfbf" points="247.39,-633.5 408.39,-633.5 "/>
<text text-anchor="start" x="255.39" y="-621.5" font-family="Helvetica,sans-Serif" font-size="10.00">+ __construct()</text>
<text text-anchor="start" x="255.39" y="-610.5" font-family="Helvetica,sans-Serif" font-size="10.00">+ __clone()</text>
<text text-anchor="start" x="255.39" y="-599.5" font-family="Helvetica,sans-Serif" font-size="10.00">+ __toString()</text>
<text text-anchor="start" x="255.39" y="-588.5" font-family="Helvetica,sans-Serif" font-size="10.00">+ addVelocityToEntity()</text>
<text text-anchor="start" x="255.39" y="-577.5" font-family="Helvetica,sans-Serif" font-size="10.00">+ asItem()</text>
<text text-anchor="start" x="255.39" y="-566.5" font-family="Helvetica,sans-Serif" font-size="10.00">+ blocksDirectSkyLight()</text>
<text text-anchor="start" x="255.39" y="-555.5" font-family="Helvetica,sans-Serif" font-size="10.00">+ burnsForever()</text>
<text text-anchor="start" x="255.39" y="-544.5" font-family="Helvetica,sans-Serif" font-size="10.00">+ calculateIntercept()</text>
<text text-anchor="start" x="255.39" y="-533.5" font-family="Helvetica,sans-Serif" font-size="10.00">+ canBeFlowedInto()</text>
<text text-anchor="start" x="255.39" y="-522.5" font-family="Helvetica,sans-Serif" font-size="10.00">+ canBePlaced()</text>
<text text-anchor="start" x="255.39" y="-511.5" font-family="Helvetica,sans-Serif" font-size="10.00">and 59 more...</text>
<text text-anchor="start" x="255.39" y="-500.5" font-family="Helvetica,sans-Serif" font-size="10.00"># describeBlockOnlyState()</text>
<text text-anchor="start" x="255.39" y="-489.5" font-family="Helvetica,sans-Serif" font-size="10.00"># getXpDropAmount()</text>
<text text-anchor="start" x="255.39" y="-478.5" font-family="Helvetica,sans-Serif" font-size="10.00"># recalculateCollisionBoxes()</text>
</a>
</g>
</g>
<!-- Node4&#45;&gt;Node3 -->
<g id="edge3" class="edge">
<title>Node4&#45;&gt;Node3</title>
<path fill="none" stroke="midnightblue" d="M327.89,-461.05C327.89,-451.05 327.89,-441.68 327.89,-433.61"/>
<polygon fill="none" stroke="midnightblue" points="324.39,-461.24 327.89,-471.24 331.39,-461.24 324.39,-461.24"/>
</g>
<!-- Node5 -->
<g id="node5" class="node">
<title>Node5</title>
<g id="a_node5"><a xlink:title=" ">
<polygon fill="white" stroke="#bfbfbf" points="5.39,-1490.5 5.39,-1547.5 48.39,-1547.5 48.39,-1490.5 5.39,-1490.5"/>
<text text-anchor="middle" x="26.89" y="-1535.5" font-family="Helvetica,sans-Serif" font-size="10.00">const</text>
<polyline fill="none" stroke="#bfbfbf" points="5.39,-1528.5 48.39,-1528.5 "/>
<text text-anchor="middle" x="26.89" y="-1516.5" font-family="Helvetica,sans-Serif" font-size="10.00"> </text>
<polyline fill="none" stroke="#bfbfbf" points="5.39,-1509.5 48.39,-1509.5 "/>
<text text-anchor="middle" x="26.89" y="-1497.5" font-family="Helvetica,sans-Serif" font-size="10.00"> </text>
</a>
</g>
</g>
<!-- Node5&#45;&gt;Node4 -->
<g id="edge4" class="edge">
<title>Node5&#45;&gt;Node4</title>
<path fill="none" stroke="#404040" d="M22.57,-1490.48C9.48,-1401.07 -25.37,-1111.34 32.89,-883 51.81,-808.85 61.6,-787.68 111.89,-730 147.11,-689.61 195.19,-654.42 237.05,-628.1"/>
<polygon fill="none" stroke="#404040" points="237.06,-628.09 240.05,-621.53 247.26,-621.77 244.27,-628.33 237.06,-628.09"/>
<text text-anchor="middle" x="111.39" y="-919" font-family="Helvetica,sans-Serif" font-size="10.00"> +EMPTY_STATE_ID</text>
<text text-anchor="start" x="32.89" y="-908" font-family="Helvetica,sans-Serif" font-size="10.00">+INTERNAL_STATE_DATA</text>
<text text-anchor="middle" x="111.39" y="-897" font-family="Helvetica,sans-Serif" font-size="10.00">_BITS</text>
<text text-anchor="middle" x="111.39" y="-886" font-family="Helvetica,sans-Serif" font-size="10.00">+INTERNAL_STATE_DATA_MASK</text>
</g>
<!-- Node10 -->
<g id="node10" class="node">
<title>Node10</title>
<g id="a_node10"><a xlink:href="../../d4/d2b/classpocketmine_1_1world_1_1_world.html" target="_top" xlink:title=" ">
<polygon fill="white" stroke="black" points="107.89,-945.5 107.89,-1255.5 279.89,-1255.5 279.89,-945.5 107.89,-945.5"/>
<text text-anchor="middle" x="193.89" y="-1243.5" font-family="Helvetica,sans-Serif" font-size="10.00">pocketmine\world\World</text>
<polyline fill="none" stroke="black" points="107.89,-1236.5 279.89,-1236.5 "/>
<text text-anchor="start" x="115.89" y="-1224.5" font-family="Helvetica,sans-Serif" font-size="10.00">+ $stopTime</text>
<text text-anchor="start" x="115.89" y="-1213.5" font-family="Helvetica,sans-Serif" font-size="10.00">+ $tickRateTime</text>
<text text-anchor="start" x="115.89" y="-1202.5" font-family="Helvetica,sans-Serif" font-size="10.00">+ $updateEntities</text>
<text text-anchor="start" x="115.89" y="-1191.5" font-family="Helvetica,sans-Serif" font-size="10.00">+ TIME_SUNRISE</text>
<text text-anchor="start" x="115.89" y="-1180.5" font-family="Helvetica,sans-Serif" font-size="10.00">+ TIME_SUNSET</text>
<text text-anchor="start" x="115.89" y="-1169.5" font-family="Helvetica,sans-Serif" font-size="10.00">+ Y_MAX</text>
<text text-anchor="start" x="115.89" y="-1158.5" font-family="Helvetica,sans-Serif" font-size="10.00">+ Y_MIN</text>
<polyline fill="none" stroke="black" points="107.89,-1151.5 279.89,-1151.5 "/>
<text text-anchor="start" x="115.89" y="-1139.5" font-family="Helvetica,sans-Serif" font-size="10.00">+ __construct()</text>
<text text-anchor="start" x="115.89" y="-1128.5" font-family="Helvetica,sans-Serif" font-size="10.00">+ __debugInfo()</text>
<text text-anchor="start" x="115.89" y="-1117.5" font-family="Helvetica,sans-Serif" font-size="10.00">+ addEntity()</text>
<text text-anchor="start" x="115.89" y="-1106.5" font-family="Helvetica,sans-Serif" font-size="10.00">+ addOnUnloadCallback()</text>
<text text-anchor="start" x="115.89" y="-1095.5" font-family="Helvetica,sans-Serif" font-size="10.00">+ addParticle()</text>
<text text-anchor="start" x="115.89" y="-1084.5" font-family="Helvetica,sans-Serif" font-size="10.00">+ addRandomTickedBlock()</text>
<text text-anchor="start" x="115.89" y="-1073.5" font-family="Helvetica,sans-Serif" font-size="10.00">+ addSound()</text>
<text text-anchor="start" x="115.89" y="-1062.5" font-family="Helvetica,sans-Serif" font-size="10.00">+ addTile()</text>
<text text-anchor="start" x="115.89" y="-1051.5" font-family="Helvetica,sans-Serif" font-size="10.00">+ broadcastPacketToViewers()</text>
<text text-anchor="start" x="115.89" y="-1040.5" font-family="Helvetica,sans-Serif" font-size="10.00">+ cancelUnloadChunkRequest()</text>
<text text-anchor="start" x="115.89" y="-1029.5" font-family="Helvetica,sans-Serif" font-size="10.00">and 120 more...</text>
<text text-anchor="start" x="115.89" y="-1018.5" font-family="Helvetica,sans-Serif" font-size="10.00">+ blockHash()</text>
<text text-anchor="start" x="115.89" y="-1007.5" font-family="Helvetica,sans-Serif" font-size="10.00">+ chunkBlockHash()</text>
<text text-anchor="start" x="115.89" y="-996.5" font-family="Helvetica,sans-Serif" font-size="10.00">+ chunkHash()</text>
<text text-anchor="start" x="115.89" y="-985.5" font-family="Helvetica,sans-Serif" font-size="10.00">+ getBlockXYZ()</text>
<text text-anchor="start" x="115.89" y="-974.5" font-family="Helvetica,sans-Serif" font-size="10.00">+ getDifficultyFromString()</text>
<text text-anchor="start" x="115.89" y="-963.5" font-family="Helvetica,sans-Serif" font-size="10.00">+ getXZ()</text>
<text text-anchor="start" x="115.89" y="-952.5" font-family="Helvetica,sans-Serif" font-size="10.00"># actuallyDoTick()</text>
</a>
</g>
</g>
<!-- Node5&#45;&gt;Node10 -->
<g id="edge11" class="edge">
<title>Node5&#45;&gt;Node10</title>
<path fill="none" stroke="#404040" d="M24.68,-1490.39C22.02,-1443.81 21.22,-1347.49 51.89,-1274 63.5,-1246.19 81.14,-1219.37 100.08,-1195.51"/>
<polygon fill="none" stroke="#404040" points="100.11,-1195.47 100.79,-1188.29 107.68,-1186.16 107,-1193.34 100.11,-1195.47"/>
<text text-anchor="start" x="51.89" y="-1398" font-family="Helvetica,sans-Serif" font-size="10.00"> +DEFAULT_TICKED_BLOCKS</text>
<text text-anchor="middle" x="121.89" y="-1387" font-family="Helvetica,sans-Serif" font-size="10.00">_PER_SUBCHUNK_PER_TICK</text>
<text text-anchor="middle" x="121.89" y="-1376" font-family="Helvetica,sans-Serif" font-size="10.00">+DIFFICULTY_EASY</text>
<text text-anchor="middle" x="121.89" y="-1365" font-family="Helvetica,sans-Serif" font-size="10.00">+DIFFICULTY_HARD</text>
<text text-anchor="middle" x="121.89" y="-1354" font-family="Helvetica,sans-Serif" font-size="10.00">+DIFFICULTY_NORMAL</text>
<text text-anchor="middle" x="121.89" y="-1343" font-family="Helvetica,sans-Serif" font-size="10.00">+DIFFICULTY_PEACEFUL</text>
<text text-anchor="middle" x="121.89" y="-1332" font-family="Helvetica,sans-Serif" font-size="10.00">+TIME_DAY</text>
<text text-anchor="middle" x="121.89" y="-1321" font-family="Helvetica,sans-Serif" font-size="10.00">+TIME_FULL</text>
<text text-anchor="middle" x="121.89" y="-1310" font-family="Helvetica,sans-Serif" font-size="10.00">+TIME_MIDNIGHT</text>
<text text-anchor="middle" x="121.89" y="-1299" font-family="Helvetica,sans-Serif" font-size="10.00">+TIME_NIGHT</text>
<text text-anchor="middle" x="121.89" y="-1288" font-family="Helvetica,sans-Serif" font-size="10.00">+TIME_NOON</text>
<text text-anchor="middle" x="121.89" y="-1277" font-family="Helvetica,sans-Serif" font-size="10.00">...</text>
</g>
<!-- Node6 -->
<g id="node6" class="node">
<title>Node6</title>
<g id="a_node6"><a xlink:href="../../dd/d18/classpocketmine_1_1block_1_1_block_identifier.html" target="_top" xlink:title=" ">
<polygon fill="white" stroke="#bfbfbf" points="284.89,-758 284.89,-837 460.89,-837 460.89,-758 284.89,-758"/>
<text text-anchor="middle" x="372.89" y="-825" font-family="Helvetica,sans-Serif" font-size="10.00">pocketmine\block\BlockIdentifier</text>
<polyline fill="none" stroke="#bfbfbf" points="284.89,-818 460.89,-818 "/>
<text text-anchor="middle" x="372.89" y="-806" font-family="Helvetica,sans-Serif" font-size="10.00"> </text>
<polyline fill="none" stroke="#bfbfbf" points="284.89,-799 460.89,-799 "/>
<text text-anchor="start" x="292.89" y="-787" font-family="Helvetica,sans-Serif" font-size="10.00">+ __construct()</text>
<text text-anchor="start" x="292.89" y="-776" font-family="Helvetica,sans-Serif" font-size="10.00">+ getBlockTypeId()</text>
<text text-anchor="start" x="292.89" y="-765" font-family="Helvetica,sans-Serif" font-size="10.00">+ getTileClass()</text>
</a>
</g>
</g>
<!-- Node6&#45;&gt;Node4 -->
<g id="edge5" class="edge">
<title>Node6&#45;&gt;Node4</title>
<path fill="none" stroke="#404040" d="M364.95,-757.94C361.26,-740 356.64,-717.59 351.94,-694.75"/>
<polygon fill="none" stroke="#404040" points="351.9,-694.54 346.77,-689.47 349.47,-682.79 354.6,-687.85 351.9,-694.54"/>
<text text-anchor="middle" x="377.89" y="-704" font-family="Helvetica,sans-Serif" font-size="10.00"> #$idInfo</text>
</g>
<!-- Node7 -->
<g id="node7" class="node">
<title>Node7</title>
<g id="a_node7"><a xlink:href="../../de/d9a/classpocketmine_1_1block_1_1_block_type_info.html" target="_top" xlink:title=" ">
<polygon fill="white" stroke="#bfbfbf" points="478.89,-752.5 478.89,-842.5 652.89,-842.5 652.89,-752.5 478.89,-752.5"/>
<text text-anchor="middle" x="565.89" y="-830.5" font-family="Helvetica,sans-Serif" font-size="10.00">pocketmine\block\BlockTypeInfo</text>
<polyline fill="none" stroke="#bfbfbf" points="478.89,-823.5 652.89,-823.5 "/>
<text text-anchor="middle" x="565.89" y="-811.5" font-family="Helvetica,sans-Serif" font-size="10.00"> </text>
<polyline fill="none" stroke="#bfbfbf" points="478.89,-804.5 652.89,-804.5 "/>
<text text-anchor="start" x="486.89" y="-792.5" font-family="Helvetica,sans-Serif" font-size="10.00">+ __construct()</text>
<text text-anchor="start" x="486.89" y="-781.5" font-family="Helvetica,sans-Serif" font-size="10.00">+ getBreakInfo()</text>
<text text-anchor="start" x="486.89" y="-770.5" font-family="Helvetica,sans-Serif" font-size="10.00">+ getTypeTags()</text>
<text text-anchor="start" x="486.89" y="-759.5" font-family="Helvetica,sans-Serif" font-size="10.00">+ hasTypeTag()</text>
</a>
</g>
</g>
<!-- Node7&#45;&gt;Node4 -->
<g id="edge6" class="edge">
<title>Node7&#45;&gt;Node4</title>
<path fill="none" stroke="#404040" d="M517.73,-752.28C489.05,-725.96 451.75,-691.7 417.8,-660.54"/>
<polygon fill="none" stroke="#404040" points="417.63,-660.38 410.51,-659.27 408.79,-652.27 415.92,-653.38 417.63,-660.38"/>
<text text-anchor="middle" x="497.89" y="-704" font-family="Helvetica,sans-Serif" font-size="10.00"> #$typeInfo</text>
</g>
<!-- Node8 -->
<g id="node8" class="node">
<title>Node8</title>
<g id="a_node8"><a xlink:href="../../d5/dd2/classpocketmine_1_1world_1_1_position.html" target="_top" xlink:title=" ">
<polygon fill="white" stroke="#bfbfbf" points="120.89,-730.5 120.89,-864.5 266.89,-864.5 266.89,-730.5 120.89,-730.5"/>
<text text-anchor="middle" x="193.89" y="-852.5" font-family="Helvetica,sans-Serif" font-size="10.00">pocketmine\world\Position</text>
<polyline fill="none" stroke="#bfbfbf" points="120.89,-845.5 266.89,-845.5 "/>
<text text-anchor="middle" x="193.89" y="-833.5" font-family="Helvetica,sans-Serif" font-size="10.00"> </text>
<polyline fill="none" stroke="#bfbfbf" points="120.89,-826.5 266.89,-826.5 "/>
<text text-anchor="start" x="128.89" y="-814.5" font-family="Helvetica,sans-Serif" font-size="10.00">+ __construct()</text>
<text text-anchor="start" x="128.89" y="-803.5" font-family="Helvetica,sans-Serif" font-size="10.00">+ __toString()</text>
<text text-anchor="start" x="128.89" y="-792.5" font-family="Helvetica,sans-Serif" font-size="10.00">+ asPosition()</text>
<text text-anchor="start" x="128.89" y="-781.5" font-family="Helvetica,sans-Serif" font-size="10.00">+ equals()</text>
<text text-anchor="start" x="128.89" y="-770.5" font-family="Helvetica,sans-Serif" font-size="10.00">+ getSide()</text>
<text text-anchor="start" x="128.89" y="-759.5" font-family="Helvetica,sans-Serif" font-size="10.00">+ getWorld()</text>
<text text-anchor="start" x="128.89" y="-748.5" font-family="Helvetica,sans-Serif" font-size="10.00">+ isValid()</text>
<text text-anchor="start" x="128.89" y="-737.5" font-family="Helvetica,sans-Serif" font-size="10.00">+ fromObject()</text>
</a>
</g>
</g>
<!-- Node8&#45;&gt;Node4 -->
<g id="edge7" class="edge">
<title>Node8&#45;&gt;Node4</title>
<path fill="none" stroke="#404040" d="M234.46,-730.35C241.76,-718.46 249.55,-705.75 257.4,-692.94"/>
<polygon fill="none" stroke="#404040" points="257.44,-692.89 257.16,-685.68 263.71,-682.66 263.98,-689.87 257.44,-692.89"/>
<text text-anchor="middle" x="277.39" y="-704" font-family="Helvetica,sans-Serif" font-size="10.00"> #$position</text>
</g>
<!-- Node9 -->
<g id="node9" class="node">
<title>Node9</title>
<g id="a_node9"><a xlink:href="../../d2/d90/classpocketmine_1_1math_1_1_vector3.html" target="_top" xlink:title=" ">
<polygon fill="white" stroke="#bfbfbf" points="297.89,-984 297.89,-1217 439.89,-1217 439.89,-984 297.89,-984"/>
<text text-anchor="middle" x="368.89" y="-1205" font-family="Helvetica,sans-Serif" font-size="10.00">pocketmine\math\Vector3</text>
<polyline fill="none" stroke="#bfbfbf" points="297.89,-1198 439.89,-1198 "/>
<text text-anchor="start" x="305.89" y="-1186" font-family="Helvetica,sans-Serif" font-size="10.00">+ $x</text>
<text text-anchor="start" x="305.89" y="-1175" font-family="Helvetica,sans-Serif" font-size="10.00">+ $y</text>
<text text-anchor="start" x="305.89" y="-1164" font-family="Helvetica,sans-Serif" font-size="10.00">+ $z</text>
<polyline fill="none" stroke="#bfbfbf" points="297.89,-1157 439.89,-1157 "/>
<text text-anchor="start" x="305.89" y="-1145" font-family="Helvetica,sans-Serif" font-size="10.00">+ __construct()</text>
<text text-anchor="start" x="305.89" y="-1134" font-family="Helvetica,sans-Serif" font-size="10.00">+ __toString()</text>
<text text-anchor="start" x="305.89" y="-1123" font-family="Helvetica,sans-Serif" font-size="10.00">+ abs()</text>
<text text-anchor="start" x="305.89" y="-1112" font-family="Helvetica,sans-Serif" font-size="10.00">+ add()</text>
<text text-anchor="start" x="305.89" y="-1101" font-family="Helvetica,sans-Serif" font-size="10.00">+ addVector()</text>
<text text-anchor="start" x="305.89" y="-1090" font-family="Helvetica,sans-Serif" font-size="10.00">+ asVector3()</text>
<text text-anchor="start" x="305.89" y="-1079" font-family="Helvetica,sans-Serif" font-size="10.00">+ ceil()</text>
<text text-anchor="start" x="305.89" y="-1068" font-family="Helvetica,sans-Serif" font-size="10.00">+ cross()</text>
<text text-anchor="start" x="305.89" y="-1057" font-family="Helvetica,sans-Serif" font-size="10.00">+ distance()</text>
<text text-anchor="start" x="305.89" y="-1046" font-family="Helvetica,sans-Serif" font-size="10.00">+ distanceSquared()</text>
<text text-anchor="start" x="305.89" y="-1035" font-family="Helvetica,sans-Serif" font-size="10.00">and 32 more...</text>
<text text-anchor="start" x="305.89" y="-1024" font-family="Helvetica,sans-Serif" font-size="10.00">+ maxComponents()</text>
<text text-anchor="start" x="305.89" y="-1013" font-family="Helvetica,sans-Serif" font-size="10.00">+ minComponents()</text>
<text text-anchor="start" x="305.89" y="-1002" font-family="Helvetica,sans-Serif" font-size="10.00">+ sum()</text>
<text text-anchor="start" x="305.89" y="-991" font-family="Helvetica,sans-Serif" font-size="10.00">+ zero()</text>
</a>
</g>
</g>
<!-- Node9&#45;&gt;Node8 -->
<g id="edge8" class="edge">
<title>Node9&#45;&gt;Node8</title>
<path fill="none" stroke="midnightblue" d="M305.64,-974.75C300.09,-964.62 294.47,-954.59 288.89,-945 273.36,-918.27 255.12,-889.58 238.8,-864.74"/>
<polygon fill="none" stroke="midnightblue" points="302.63,-976.55 310.48,-983.67 308.79,-973.21 302.63,-976.55"/>
</g>
<!-- Node10&#45;&gt;Node8 -->
<g id="edge9" class="edge">
<title>Node10&#45;&gt;Node8</title>
<path fill="none" stroke="#404040" d="M193.89,-945.47C193.89,-921.65 193.89,-897.95 193.89,-876.76"/>
<polygon fill="none" stroke="#404040" points="193.89,-876.58 189.89,-870.58 193.89,-864.58 197.89,-870.58 193.89,-876.58"/>
<text text-anchor="middle" x="216.39" y="-902.5" font-family="Helvetica,sans-Serif" font-size="10.00"> +$world</text>
</g>
<!-- Node11 -->
<g id="node11" class="node">
<title>Node11</title>
<g id="a_node11"><a xlink:href="../../d0/d03/interfacepocketmine_1_1world_1_1_chunk_manager.html" target="_top" xlink:title=" ">
<polygon fill="white" stroke="#bfbfbf" points="107.89,-1457.5 107.89,-1580.5 287.89,-1580.5 287.89,-1457.5 107.89,-1457.5"/>
<text text-anchor="middle" x="197.89" y="-1568.5" font-family="Helvetica,sans-Serif" font-size="10.00">pocketmine\world\ChunkManager</text>
<polyline fill="none" stroke="#bfbfbf" points="107.89,-1561.5 287.89,-1561.5 "/>
<text text-anchor="middle" x="197.89" y="-1549.5" font-family="Helvetica,sans-Serif" font-size="10.00"> </text>
<polyline fill="none" stroke="#bfbfbf" points="107.89,-1542.5 287.89,-1542.5 "/>
<text text-anchor="start" x="115.89" y="-1530.5" font-family="Helvetica,sans-Serif" font-size="10.00">+ getBlockAt()</text>
<text text-anchor="start" x="115.89" y="-1519.5" font-family="Helvetica,sans-Serif" font-size="10.00">+ getChunk()</text>
<text text-anchor="start" x="115.89" y="-1508.5" font-family="Helvetica,sans-Serif" font-size="10.00">+ getMaxY()</text>
<text text-anchor="start" x="115.89" y="-1497.5" font-family="Helvetica,sans-Serif" font-size="10.00">+ getMinY()</text>
<text text-anchor="start" x="115.89" y="-1486.5" font-family="Helvetica,sans-Serif" font-size="10.00">+ isInWorld()</text>
<text text-anchor="start" x="115.89" y="-1475.5" font-family="Helvetica,sans-Serif" font-size="10.00">+ setBlockAt()</text>
<text text-anchor="start" x="115.89" y="-1464.5" font-family="Helvetica,sans-Serif" font-size="10.00">+ setChunk()</text>
</a>
</g>
</g>
<!-- Node11&#45;&gt;Node10 -->
<g id="edge10" class="edge">
<title>Node11&#45;&gt;Node10</title>
<path fill="none" stroke="midnightblue" d="M197.21,-1447.24C196.71,-1394.82 196.01,-1321.38 195.37,-1255.66"/>
<polygon fill="none" stroke="midnightblue" points="193.72,-1447.47 197.31,-1457.44 200.72,-1447.4 193.72,-1447.47"/>
</g>
<!-- Node12 -->
<g id="node12" class="node">
<title>Node12</title>
<g id="a_node12"><a xlink:href="../../d7/d08/classpocketmine_1_1world_1_1_world_timings.html" target="_top" xlink:title=" ">
<polygon fill="white" stroke="#bfbfbf" points="306.39,-1424.5 306.39,-1613.5 479.39,-1613.5 479.39,-1424.5 306.39,-1424.5"/>
<text text-anchor="middle" x="392.89" y="-1601.5" font-family="Helvetica,sans-Serif" font-size="10.00">pocketmine\world\WorldTimings</text>
<polyline fill="none" stroke="#bfbfbf" points="306.39,-1594.5 479.39,-1594.5 "/>
<text text-anchor="start" x="314.39" y="-1582.5" font-family="Helvetica,sans-Serif" font-size="10.00">+ $scheduledBlockUpdates</text>
<text text-anchor="start" x="314.39" y="-1571.5" font-family="Helvetica,sans-Serif" font-size="10.00">+ $setBlock</text>
<text text-anchor="start" x="314.39" y="-1560.5" font-family="Helvetica,sans-Serif" font-size="10.00">+ $syncChunkLoad</text>
<text text-anchor="start" x="314.39" y="-1549.5" font-family="Helvetica,sans-Serif" font-size="10.00">+ $syncChunkLoadData</text>
<text text-anchor="start" x="314.39" y="-1538.5" font-family="Helvetica,sans-Serif" font-size="10.00">+ $syncChunkLoadEntities</text>
<text text-anchor="start" x="314.39" y="-1527.5" font-family="Helvetica,sans-Serif" font-size="10.00">+ $syncChunkLoadFixInvalid</text>
<text text-anchor="start" x="314.39" y="-1516.5" font-family="Helvetica,sans-Serif" font-size="10.00">Blocks</text>
<text text-anchor="start" x="314.39" y="-1505.5" font-family="Helvetica,sans-Serif" font-size="10.00">+ $syncChunkLoadTileEntities</text>
<text text-anchor="start" x="314.39" y="-1494.5" font-family="Helvetica,sans-Serif" font-size="10.00">+ $syncChunkSave</text>
<text text-anchor="start" x="314.39" y="-1483.5" font-family="Helvetica,sans-Serif" font-size="10.00">+ $syncChunkSend</text>
<text text-anchor="start" x="314.39" y="-1472.5" font-family="Helvetica,sans-Serif" font-size="10.00">+ $syncChunkSendPrepare</text>
<text text-anchor="start" x="314.39" y="-1461.5" font-family="Helvetica,sans-Serif" font-size="10.00">+ $syncDataSave</text>
<text text-anchor="start" x="314.39" y="-1450.5" font-family="Helvetica,sans-Serif" font-size="10.00">+ $tileTick</text>
<polyline fill="none" stroke="#bfbfbf" points="306.39,-1443.5 479.39,-1443.5 "/>
<text text-anchor="start" x="314.39" y="-1431.5" font-family="Helvetica,sans-Serif" font-size="10.00">+ __construct()</text>
</a>
</g>
</g>
<!-- Node12&#45;&gt;Node10 -->
<g id="edge12" class="edge">
<title>Node12&#45;&gt;Node10</title>
<path fill="none" stroke="#404040" d="M348.11,-1424.27C325.91,-1377.81 298.45,-1320.32 272.87,-1266.79"/>
<polygon fill="none" stroke="#404040" points="272.79,-1266.62 266.59,-1262.93 267.61,-1255.79 273.81,-1259.48 272.79,-1266.62"/>
<text text-anchor="middle" x="362.39" y="-1337.5" font-family="Helvetica,sans-Serif" font-size="10.00"> +$timings</text>
</g>
<!-- Node13 -->
<g id="node13" class="node">
<title>Node13</title>
<g id="a_node13"><a xlink:href="../../d7/d9b/classpocketmine_1_1timings_1_1_timings_handler.html" target="_top" xlink:title=" ">
<polygon fill="white" stroke="#bfbfbf" points="336.39,-1782.5 336.39,-1982.5 449.39,-1982.5 449.39,-1782.5 336.39,-1782.5"/>
<text text-anchor="start" x="344.39" y="-1970.5" font-family="Helvetica,sans-Serif" font-size="10.00">pocketmine\timings</text>
<text text-anchor="middle" x="392.89" y="-1959.5" font-family="Helvetica,sans-Serif" font-size="10.00">\TimingsHandler</text>
<polyline fill="none" stroke="#bfbfbf" points="336.39,-1952.5 449.39,-1952.5 "/>
<text text-anchor="middle" x="392.89" y="-1940.5" font-family="Helvetica,sans-Serif" font-size="10.00"> </text>
<polyline fill="none" stroke="#bfbfbf" points="336.39,-1933.5 449.39,-1933.5 "/>
<text text-anchor="start" x="344.39" y="-1921.5" font-family="Helvetica,sans-Serif" font-size="10.00">+ __construct()</text>
<text text-anchor="start" x="344.39" y="-1910.5" font-family="Helvetica,sans-Serif" font-size="10.00">+ getGroup()</text>
<text text-anchor="start" x="344.39" y="-1899.5" font-family="Helvetica,sans-Serif" font-size="10.00">+ getName()</text>
<text text-anchor="start" x="344.39" y="-1888.5" font-family="Helvetica,sans-Serif" font-size="10.00">+ reset()</text>
<text text-anchor="start" x="344.39" y="-1877.5" font-family="Helvetica,sans-Serif" font-size="10.00">+ startTiming()</text>
<text text-anchor="start" x="344.39" y="-1866.5" font-family="Helvetica,sans-Serif" font-size="10.00">+ stopTiming()</text>
<text text-anchor="start" x="344.39" y="-1855.5" font-family="Helvetica,sans-Serif" font-size="10.00">+ time()</text>
<text text-anchor="start" x="344.39" y="-1844.5" font-family="Helvetica,sans-Serif" font-size="10.00">+ getStartTime()</text>
<text text-anchor="start" x="344.39" y="-1833.5" font-family="Helvetica,sans-Serif" font-size="10.00">+ isEnabled()</text>
<text text-anchor="start" x="344.39" y="-1822.5" font-family="Helvetica,sans-Serif" font-size="10.00">+ printTimings()</text>
<text text-anchor="start" x="344.39" y="-1811.5" font-family="Helvetica,sans-Serif" font-size="10.00">+ reload()</text>
<text text-anchor="start" x="344.39" y="-1800.5" font-family="Helvetica,sans-Serif" font-size="10.00">+ setEnabled()</text>
<text text-anchor="start" x="344.39" y="-1789.5" font-family="Helvetica,sans-Serif" font-size="10.00">+ tick()</text>
</a>
</g>
</g>
<!-- Node13&#45;&gt;Node12 -->
<g id="edge13" class="edge">
<title>Node13&#45;&gt;Node12</title>
<path fill="none" stroke="#404040" d="M392.89,-1782.24C392.89,-1733.68 392.89,-1675.19 392.89,-1625.78"/>
<polygon fill="none" stroke="#404040" points="392.89,-1625.75 388.89,-1619.75 392.89,-1613.75 396.89,-1619.75 392.89,-1625.75"/>
<text text-anchor="middle" x="470.39" y="-1756" font-family="Helvetica,sans-Serif" font-size="10.00"> +$chunkPopulationCompletion</text>
<text text-anchor="middle" x="470.39" y="-1745" font-family="Helvetica,sans-Serif" font-size="10.00">+$chunkPopulationOrder</text>
<text text-anchor="middle" x="470.39" y="-1734" font-family="Helvetica,sans-Serif" font-size="10.00">+$doBlockLightUpdates</text>
<text text-anchor="middle" x="470.39" y="-1723" font-family="Helvetica,sans-Serif" font-size="10.00">+$doBlockSkyLightUpdates</text>
<text text-anchor="middle" x="470.39" y="-1712" font-family="Helvetica,sans-Serif" font-size="10.00">+$doChunkGC</text>
<text text-anchor="middle" x="470.39" y="-1701" font-family="Helvetica,sans-Serif" font-size="10.00">+$doChunkUnload</text>
<text text-anchor="middle" x="470.39" y="-1690" font-family="Helvetica,sans-Serif" font-size="10.00">+$doTick</text>
<text text-anchor="middle" x="470.39" y="-1679" font-family="Helvetica,sans-Serif" font-size="10.00">+$entityTick</text>
<text text-anchor="middle" x="470.39" y="-1668" font-family="Helvetica,sans-Serif" font-size="10.00">+$randomChunkUpdates</text>
<text text-anchor="start" x="392.89" y="-1657" font-family="Helvetica,sans-Serif" font-size="10.00">+$randomChunkUpdatesChunk</text>
<text text-anchor="middle" x="470.39" y="-1646" font-family="Helvetica,sans-Serif" font-size="10.00">Selection</text>
<text text-anchor="middle" x="470.39" y="-1635" font-family="Helvetica,sans-Serif" font-size="10.00">...</text>
</g>
<!-- Node14 -->
<g id="node14" class="node">
<title>Node14</title>
<g id="a_node14"><a xlink:href="../../d7/d2a/classpocketmine_1_1block_1_1utils_1_1_dripleaf_state.html" target="_top" xlink:title=" ">
<polygon fill="white" stroke="black" points="425.39,-232 425.39,-311 616.39,-311 616.39,-232 425.39,-232"/>
<text text-anchor="start" x="433.39" y="-299" font-family="Helvetica,sans-Serif" font-size="10.00">pocketmine\block\utils</text>
<text text-anchor="middle" x="520.89" y="-288" font-family="Helvetica,sans-Serif" font-size="10.00">\DripleafState</text>
<polyline fill="none" stroke="black" points="425.39,-281 616.39,-281 "/>
<text text-anchor="start" x="433.39" y="-269" font-family="Helvetica,sans-Serif" font-size="10.00">+ Enum___construct</text>
<polyline fill="none" stroke="black" points="425.39,-262 616.39,-262 "/>
<text text-anchor="start" x="433.39" y="-250" font-family="Helvetica,sans-Serif" font-size="10.00">+ getScheduledUpdateDelayTicks()</text>
<text text-anchor="start" x="433.39" y="-239" font-family="Helvetica,sans-Serif" font-size="10.00"># setup()</text>
</a>
</g>
</g>
<!-- Node14&#45;&gt;Node1 -->
<g id="edge14" class="edge">
<title>Node14&#45;&gt;Node1</title>
<path fill="none" stroke="#404040" d="M501.26,-231.85C491.85,-213.3 480.14,-190.25 468.71,-167.75"/>
<polygon fill="none" stroke="#404040" points="468.57,-167.46 462.28,-163.93 463.13,-156.77 469.42,-160.3 468.57,-167.46"/>
<text text-anchor="middle" x="506.89" y="-178" font-family="Helvetica,sans-Serif" font-size="10.00"> #$leafState</text>
</g>
</g>
</svg>
