<?xml version="1.0" encoding="UTF-8" standalone="no"?>
<!DOCTYPE svg PUBLIC "-//W3C//DTD SVG 1.1//EN"
 "http://www.w3.org/Graphics/SVG/1.1/DTD/svg11.dtd">
<!-- Generated by graphviz version 2.43.0 (0)
 -->
<!-- Title: pocketmine\block\ChorusFlower Pages: 1 -->
<svg width="704pt" height="1871pt"
 viewBox="0.00 0.00 703.50 1871.00" xmlns="http://www.w3.org/2000/svg" xmlns:xlink="http://www.w3.org/1999/xlink">
<g id="graph0" class="graph" transform="scale(1 1) rotate(0) translate(4 1867)">
<title>pocketmine\block\ChorusFlower</title>
<polygon fill="white" stroke="transparent" points="-4,4 -4,-1867 699.5,-1867 699.5,4 -4,4"/>
<!-- Node1 -->
<g id="node1" class="node">
<title>Node1</title>
<g id="a_node1"><a xlink:title=" ">
<polygon fill="#bfbfbf" stroke="black" points="0,-0.5 0,-145.5 173,-145.5 173,-0.5 0,-0.5"/>
<text text-anchor="middle" x="86.5" y="-133.5" font-family="Helvetica,sans-Serif" font-size="10.00">pocketmine\block\ChorusFlower</text>
<polyline fill="none" stroke="black" points="0,-126.5 173,-126.5 "/>
<text text-anchor="middle" x="86.5" y="-114.5" font-family="Helvetica,sans-Serif" font-size="10.00"> </text>
<polyline fill="none" stroke="black" points="0,-107.5 173,-107.5 "/>
<text text-anchor="start" x="8" y="-95.5" font-family="Helvetica,sans-Serif" font-size="10.00">+ getAge()</text>
<text text-anchor="start" x="8" y="-84.5" font-family="Helvetica,sans-Serif" font-size="10.00">+ onNearbyBlockChange()</text>
<text text-anchor="start" x="8" y="-73.5" font-family="Helvetica,sans-Serif" font-size="10.00">+ onProjectileHit()</text>
<text text-anchor="start" x="8" y="-62.5" font-family="Helvetica,sans-Serif" font-size="10.00">+ onRandomTick()</text>
<text text-anchor="start" x="8" y="-51.5" font-family="Helvetica,sans-Serif" font-size="10.00">+ place()</text>
<text text-anchor="start" x="8" y="-40.5" font-family="Helvetica,sans-Serif" font-size="10.00">+ setAge()</text>
<text text-anchor="start" x="8" y="-29.5" font-family="Helvetica,sans-Serif" font-size="10.00">+ ticksRandomly()</text>
<text text-anchor="start" x="8" y="-18.5" font-family="Helvetica,sans-Serif" font-size="10.00"># describeState()</text>
<text text-anchor="start" x="8" y="-7.5" font-family="Helvetica,sans-Serif" font-size="10.00"># recalculateCollisionBoxes()</text>
</a>
</g>
</g>
<!-- Node2 -->
<g id="node2" class="node">
<title>Node2</title>
<g id="a_node2"><a xlink:href="../../d3/d1e/classpocketmine_1_1block_1_1_flowable.html" target="_top" xlink:title=" ">
<polygon fill="white" stroke="black" points="97,-183.5 97,-273.5 258,-273.5 258,-183.5 97,-183.5"/>
<text text-anchor="middle" x="177.5" y="-261.5" font-family="Helvetica,sans-Serif" font-size="10.00">pocketmine\block\Flowable</text>
<polyline fill="none" stroke="black" points="97,-254.5 258,-254.5 "/>
<text text-anchor="middle" x="177.5" y="-242.5" font-family="Helvetica,sans-Serif" font-size="10.00"> </text>
<polyline fill="none" stroke="black" points="97,-235.5 258,-235.5 "/>
<text text-anchor="start" x="105" y="-223.5" font-family="Helvetica,sans-Serif" font-size="10.00">+ canBeFlowedInto()</text>
<text text-anchor="start" x="105" y="-212.5" font-family="Helvetica,sans-Serif" font-size="10.00">+ getSupportType()</text>
<text text-anchor="start" x="105" y="-201.5" font-family="Helvetica,sans-Serif" font-size="10.00">+ isSolid()</text>
<text text-anchor="start" x="105" y="-190.5" font-family="Helvetica,sans-Serif" font-size="10.00"># recalculateCollisionBoxes()</text>
</a>
</g>
</g>
<!-- Node2&#45;&gt;Node1 -->
<g id="edge1" class="edge">
<title>Node2&#45;&gt;Node1</title>
<path fill="none" stroke="midnightblue" d="M146.03,-174.41C140.55,-165.17 134.77,-155.42 129.05,-145.77"/>
<polygon fill="none" stroke="midnightblue" points="143.07,-176.28 151.18,-183.1 149.09,-172.71 143.07,-176.28"/>
</g>
<!-- Node3 -->
<g id="node3" class="node">
<title>Node3</title>
<g id="a_node3"><a xlink:href="../../d5/d1b/classpocketmine_1_1block_1_1_transparent.html" target="_top" xlink:title=" ">
<polygon fill="white" stroke="black" points="116,-311.5 116,-368.5 279,-368.5 279,-311.5 116,-311.5"/>
<text text-anchor="middle" x="197.5" y="-356.5" font-family="Helvetica,sans-Serif" font-size="10.00">pocketmine\block\Transparent</text>
<polyline fill="none" stroke="black" points="116,-349.5 279,-349.5 "/>
<text text-anchor="middle" x="197.5" y="-337.5" font-family="Helvetica,sans-Serif" font-size="10.00"> </text>
<polyline fill="none" stroke="black" points="116,-330.5 279,-330.5 "/>
<text text-anchor="start" x="124" y="-318.5" font-family="Helvetica,sans-Serif" font-size="10.00">+ isTransparent()</text>
</a>
</g>
</g>
<!-- Node3&#45;&gt;Node2 -->
<g id="edge2" class="edge">
<title>Node3&#45;&gt;Node2</title>
<path fill="none" stroke="midnightblue" d="M190.62,-301.31C188.99,-292.43 187.25,-282.88 185.58,-273.74"/>
<polygon fill="none" stroke="midnightblue" points="187.21,-302.16 192.45,-311.37 194.1,-300.9 187.21,-302.16"/>
</g>
<!-- Node4 -->
<g id="node4" class="node">
<title>Node4</title>
<g id="a_node4"><a xlink:href="../../d7/d27/classpocketmine_1_1block_1_1_block.html" target="_top" xlink:title=" ">
<polygon fill="white" stroke="#bfbfbf" points="156,-406.5 156,-628.5 317,-628.5 317,-406.5 156,-406.5"/>
<text text-anchor="middle" x="236.5" y="-616.5" font-family="Helvetica,sans-Serif" font-size="10.00">pocketmine\block\Block</text>
<polyline fill="none" stroke="#bfbfbf" points="156,-609.5 317,-609.5 "/>
<text text-anchor="start" x="164" y="-597.5" font-family="Helvetica,sans-Serif" font-size="10.00"># $collisionBoxes</text>
<text text-anchor="start" x="164" y="-586.5" font-family="Helvetica,sans-Serif" font-size="10.00"># $fallbackName</text>
<polyline fill="none" stroke="#bfbfbf" points="156,-579.5 317,-579.5 "/>
<text text-anchor="start" x="164" y="-567.5" font-family="Helvetica,sans-Serif" font-size="10.00">+ __construct()</text>
<text text-anchor="start" x="164" y="-556.5" font-family="Helvetica,sans-Serif" font-size="10.00">+ __clone()</text>
<text text-anchor="start" x="164" y="-545.5" font-family="Helvetica,sans-Serif" font-size="10.00">+ __toString()</text>
<text text-anchor="start" x="164" y="-534.5" font-family="Helvetica,sans-Serif" font-size="10.00">+ addVelocityToEntity()</text>
<text text-anchor="start" x="164" y="-523.5" font-family="Helvetica,sans-Serif" font-size="10.00">+ asItem()</text>
<text text-anchor="start" x="164" y="-512.5" font-family="Helvetica,sans-Serif" font-size="10.00">+ blocksDirectSkyLight()</text>
<text text-anchor="start" x="164" y="-501.5" font-family="Helvetica,sans-Serif" font-size="10.00">+ burnsForever()</text>
<text text-anchor="start" x="164" y="-490.5" font-family="Helvetica,sans-Serif" font-size="10.00">+ calculateIntercept()</text>
<text text-anchor="start" x="164" y="-479.5" font-family="Helvetica,sans-Serif" font-size="10.00">+ canBeFlowedInto()</text>
<text text-anchor="start" x="164" y="-468.5" font-family="Helvetica,sans-Serif" font-size="10.00">+ canBePlaced()</text>
<text text-anchor="start" x="164" y="-457.5" font-family="Helvetica,sans-Serif" font-size="10.00">and 63 more...</text>
<text text-anchor="start" x="164" y="-446.5" font-family="Helvetica,sans-Serif" font-size="10.00"># describeState()</text>
<text text-anchor="start" x="164" y="-435.5" font-family="Helvetica,sans-Serif" font-size="10.00"># describeType()</text>
<text text-anchor="start" x="164" y="-424.5" font-family="Helvetica,sans-Serif" font-size="10.00"># getXpDropAmount()</text>
<text text-anchor="start" x="164" y="-413.5" font-family="Helvetica,sans-Serif" font-size="10.00"># recalculateCollisionBoxes()</text>
</a>
</g>
</g>
<!-- Node4&#45;&gt;Node3 -->
<g id="edge3" class="edge">
<title>Node4&#45;&gt;Node3</title>
<path fill="none" stroke="midnightblue" d="M209.81,-396.41C207.55,-386.23 205.44,-376.72 203.62,-368.56"/>
<polygon fill="none" stroke="midnightblue" points="206.44,-397.35 212.02,-406.35 213.27,-395.83 206.44,-397.35"/>
</g>
<!-- Node5 -->
<g id="node5" class="node">
<title>Node5</title>
<g id="a_node5"><a xlink:title=" ">
<polygon fill="white" stroke="#bfbfbf" points="65,-1403.5 65,-1460.5 108,-1460.5 108,-1403.5 65,-1403.5"/>
<text text-anchor="middle" x="86.5" y="-1448.5" font-family="Helvetica,sans-Serif" font-size="10.00">const</text>
<polyline fill="none" stroke="#bfbfbf" points="65,-1441.5 108,-1441.5 "/>
<text text-anchor="middle" x="86.5" y="-1429.5" font-family="Helvetica,sans-Serif" font-size="10.00"> </text>
<polyline fill="none" stroke="#bfbfbf" points="65,-1422.5 108,-1422.5 "/>
<text text-anchor="middle" x="86.5" y="-1410.5" font-family="Helvetica,sans-Serif" font-size="10.00"> </text>
</a>
</g>
</g>
<!-- Node5&#45;&gt;Node1 -->
<g id="edge14" class="edge">
<title>Node5&#45;&gt;Node1</title>
<path fill="none" stroke="#404040" d="M81.6,-1403.1C78.63,-1385.36 74.94,-1361.89 72.5,-1341 56.72,-1206.17 48.5,-1172.25 48.5,-1036.5 48.5,-1036.5 48.5,-1036.5 48.5,-227.5 48.5,-204.46 52.58,-180.03 58.07,-157.6"/>
<polygon fill="none" stroke="#404040" points="58.14,-157.34 55.78,-150.52 61.15,-145.72 63.52,-152.53 58.14,-157.34"/>
<text text-anchor="middle" x="78.5" y="-520.5" font-family="Helvetica,sans-Serif" font-size="10.00"> +MAX_AGE</text>
<text text-anchor="middle" x="78.5" y="-509.5" font-family="Helvetica,sans-Serif" font-size="10.00">+MIN_AGE</text>
</g>
<!-- Node5&#45;&gt;Node4 -->
<g id="edge4" class="edge">
<title>Node5&#45;&gt;Node4</title>
<path fill="none" stroke="#404040" d="M84.82,-1403.21C78.84,-1300.24 60.19,-940.56 84.5,-829 98.91,-762.89 130.1,-694.79 160.5,-639.28"/>
<polygon fill="none" stroke="#404040" points="160.55,-639.2 159.96,-632.01 166.37,-628.7 166.95,-635.89 160.55,-639.2"/>
<text text-anchor="start" x="84.5" y="-854" font-family="Helvetica,sans-Serif" font-size="10.00"> +INTERNAL_STATE_DATA</text>
<text text-anchor="middle" x="163" y="-843" font-family="Helvetica,sans-Serif" font-size="10.00">_BITS</text>
<text text-anchor="middle" x="163" y="-832" font-family="Helvetica,sans-Serif" font-size="10.00">+INTERNAL_STATE_DATA_MASK</text>
</g>
<!-- Node10 -->
<g id="node10" class="node">
<title>Node10</title>
<g id="a_node10"><a xlink:href="../../d4/d2b/classpocketmine_1_1world_1_1_world.html" target="_top" xlink:title=" ">
<polygon fill="white" stroke="black" points="180.5,-880.5 180.5,-1190.5 352.5,-1190.5 352.5,-880.5 180.5,-880.5"/>
<text text-anchor="middle" x="266.5" y="-1178.5" font-family="Helvetica,sans-Serif" font-size="10.00">pocketmine\world\World</text>
<polyline fill="none" stroke="black" points="180.5,-1171.5 352.5,-1171.5 "/>
<text text-anchor="start" x="188.5" y="-1159.5" font-family="Helvetica,sans-Serif" font-size="10.00">+ $stopTime</text>
<text text-anchor="start" x="188.5" y="-1148.5" font-family="Helvetica,sans-Serif" font-size="10.00">+ $tickRateTime</text>
<text text-anchor="start" x="188.5" y="-1137.5" font-family="Helvetica,sans-Serif" font-size="10.00">+ $updateEntities</text>
<text text-anchor="start" x="188.5" y="-1126.5" font-family="Helvetica,sans-Serif" font-size="10.00">+ TIME_SUNRISE</text>
<text text-anchor="start" x="188.5" y="-1115.5" font-family="Helvetica,sans-Serif" font-size="10.00">+ TIME_SUNSET</text>
<text text-anchor="start" x="188.5" y="-1104.5" font-family="Helvetica,sans-Serif" font-size="10.00">+ Y_MAX</text>
<text text-anchor="start" x="188.5" y="-1093.5" font-family="Helvetica,sans-Serif" font-size="10.00">+ Y_MIN</text>
<polyline fill="none" stroke="black" points="180.5,-1086.5 352.5,-1086.5 "/>
<text text-anchor="start" x="188.5" y="-1074.5" font-family="Helvetica,sans-Serif" font-size="10.00">+ __construct()</text>
<text text-anchor="start" x="188.5" y="-1063.5" font-family="Helvetica,sans-Serif" font-size="10.00">+ __debugInfo()</text>
<text text-anchor="start" x="188.5" y="-1052.5" font-family="Helvetica,sans-Serif" font-size="10.00">+ addEntity()</text>
<text text-anchor="start" x="188.5" y="-1041.5" font-family="Helvetica,sans-Serif" font-size="10.00">+ addOnUnloadCallback()</text>
<text text-anchor="start" x="188.5" y="-1030.5" font-family="Helvetica,sans-Serif" font-size="10.00">+ addParticle()</text>
<text text-anchor="start" x="188.5" y="-1019.5" font-family="Helvetica,sans-Serif" font-size="10.00">+ addRandomTickedBlock()</text>
<text text-anchor="start" x="188.5" y="-1008.5" font-family="Helvetica,sans-Serif" font-size="10.00">+ addSound()</text>
<text text-anchor="start" x="188.5" y="-997.5" font-family="Helvetica,sans-Serif" font-size="10.00">+ addTile()</text>
<text text-anchor="start" x="188.5" y="-986.5" font-family="Helvetica,sans-Serif" font-size="10.00">+ broadcastPacketToViewers()</text>
<text text-anchor="start" x="188.5" y="-975.5" font-family="Helvetica,sans-Serif" font-size="10.00">+ cancelUnloadChunkRequest()</text>
<text text-anchor="start" x="188.5" y="-964.5" font-family="Helvetica,sans-Serif" font-size="10.00">and 116 more...</text>
<text text-anchor="start" x="188.5" y="-953.5" font-family="Helvetica,sans-Serif" font-size="10.00">+ blockHash()</text>
<text text-anchor="start" x="188.5" y="-942.5" font-family="Helvetica,sans-Serif" font-size="10.00">+ chunkBlockHash()</text>
<text text-anchor="start" x="188.5" y="-931.5" font-family="Helvetica,sans-Serif" font-size="10.00">+ chunkHash()</text>
<text text-anchor="start" x="188.5" y="-920.5" font-family="Helvetica,sans-Serif" font-size="10.00">+ getBlockXYZ()</text>
<text text-anchor="start" x="188.5" y="-909.5" font-family="Helvetica,sans-Serif" font-size="10.00">+ getDifficultyFromString()</text>
<text text-anchor="start" x="188.5" y="-898.5" font-family="Helvetica,sans-Serif" font-size="10.00">+ getXZ()</text>
<text text-anchor="start" x="188.5" y="-887.5" font-family="Helvetica,sans-Serif" font-size="10.00"># actuallyDoTick()</text>
</a>
</g>
</g>
<!-- Node5&#45;&gt;Node10 -->
<g id="edge11" class="edge">
<title>Node5&#45;&gt;Node10</title>
<path fill="none" stroke="#404040" d="M89.76,-1403.12C96.09,-1351.52 110.79,-1243.26 126.5,-1209 138.39,-1183.08 155.09,-1157.74 172.83,-1134.81"/>
<polygon fill="none" stroke="#404040" points="173.04,-1134.55 173.62,-1127.36 180.48,-1125.14 179.9,-1132.33 173.04,-1134.55"/>
<text text-anchor="start" x="126.5" y="-1333" font-family="Helvetica,sans-Serif" font-size="10.00"> +DEFAULT_TICKED_BLOCKS</text>
<text text-anchor="middle" x="196.5" y="-1322" font-family="Helvetica,sans-Serif" font-size="10.00">_PER_SUBCHUNK_PER_TICK</text>
<text text-anchor="middle" x="196.5" y="-1311" font-family="Helvetica,sans-Serif" font-size="10.00">+DIFFICULTY_EASY</text>
<text text-anchor="middle" x="196.5" y="-1300" font-family="Helvetica,sans-Serif" font-size="10.00">+DIFFICULTY_HARD</text>
<text text-anchor="middle" x="196.5" y="-1289" font-family="Helvetica,sans-Serif" font-size="10.00">+DIFFICULTY_NORMAL</text>
<text text-anchor="middle" x="196.5" y="-1278" font-family="Helvetica,sans-Serif" font-size="10.00">+DIFFICULTY_PEACEFUL</text>
<text text-anchor="middle" x="196.5" y="-1267" font-family="Helvetica,sans-Serif" font-size="10.00">+TIME_DAY</text>
<text text-anchor="middle" x="196.5" y="-1256" font-family="Helvetica,sans-Serif" font-size="10.00">+TIME_FULL</text>
<text text-anchor="middle" x="196.5" y="-1245" font-family="Helvetica,sans-Serif" font-size="10.00">+TIME_MIDNIGHT</text>
<text text-anchor="middle" x="196.5" y="-1234" font-family="Helvetica,sans-Serif" font-size="10.00">+TIME_NIGHT</text>
<text text-anchor="middle" x="196.5" y="-1223" font-family="Helvetica,sans-Serif" font-size="10.00">+TIME_NOON</text>
<text text-anchor="middle" x="196.5" y="-1212" font-family="Helvetica,sans-Serif" font-size="10.00">...</text>
</g>
<!-- Node6 -->
<g id="node6" class="node">
<title>Node6</title>
<g id="a_node6"><a xlink:href="../../dd/d18/classpocketmine_1_1block_1_1_block_identifier.html" target="_top" xlink:title=" ">
<polygon fill="white" stroke="#bfbfbf" points="327.5,-704 327.5,-783 503.5,-783 503.5,-704 327.5,-704"/>
<text text-anchor="middle" x="415.5" y="-771" font-family="Helvetica,sans-Serif" font-size="10.00">pocketmine\block\BlockIdentifier</text>
<polyline fill="none" stroke="#bfbfbf" points="327.5,-764 503.5,-764 "/>
<text text-anchor="middle" x="415.5" y="-752" font-family="Helvetica,sans-Serif" font-size="10.00"> </text>
<polyline fill="none" stroke="#bfbfbf" points="327.5,-745 503.5,-745 "/>
<text text-anchor="start" x="335.5" y="-733" font-family="Helvetica,sans-Serif" font-size="10.00">+ __construct()</text>
<text text-anchor="start" x="335.5" y="-722" font-family="Helvetica,sans-Serif" font-size="10.00">+ getBlockTypeId()</text>
<text text-anchor="start" x="335.5" y="-711" font-family="Helvetica,sans-Serif" font-size="10.00">+ getTileClass()</text>
</a>
</g>
</g>
<!-- Node6&#45;&gt;Node4 -->
<g id="edge5" class="edge">
<title>Node6&#45;&gt;Node4</title>
<path fill="none" stroke="#404040" d="M384.73,-703.99C368.01,-683.07 346.39,-656.02 324.86,-629.08"/>
<polygon fill="none" stroke="#404040" points="324.75,-628.94 317.88,-626.74 317.26,-619.56 324.13,-621.75 324.75,-628.94"/>
<text text-anchor="middle" x="370.5" y="-650" font-family="Helvetica,sans-Serif" font-size="10.00"> #$idInfo</text>
</g>
<!-- Node7 -->
<g id="node7" class="node">
<title>Node7</title>
<g id="a_node7"><a xlink:href="../../de/d9a/classpocketmine_1_1block_1_1_block_type_info.html" target="_top" xlink:title=" ">
<polygon fill="white" stroke="#bfbfbf" points="521.5,-698.5 521.5,-788.5 695.5,-788.5 695.5,-698.5 521.5,-698.5"/>
<text text-anchor="middle" x="608.5" y="-776.5" font-family="Helvetica,sans-Serif" font-size="10.00">pocketmine\block\BlockTypeInfo</text>
<polyline fill="none" stroke="#bfbfbf" points="521.5,-769.5 695.5,-769.5 "/>
<text text-anchor="middle" x="608.5" y="-757.5" font-family="Helvetica,sans-Serif" font-size="10.00"> </text>
<polyline fill="none" stroke="#bfbfbf" points="521.5,-750.5 695.5,-750.5 "/>
<text text-anchor="start" x="529.5" y="-738.5" font-family="Helvetica,sans-Serif" font-size="10.00">+ __construct()</text>
<text text-anchor="start" x="529.5" y="-727.5" font-family="Helvetica,sans-Serif" font-size="10.00">+ getBreakInfo()</text>
<text text-anchor="start" x="529.5" y="-716.5" font-family="Helvetica,sans-Serif" font-size="10.00">+ getTypeTags()</text>
<text text-anchor="start" x="529.5" y="-705.5" font-family="Helvetica,sans-Serif" font-size="10.00">+ hasTypeTag()</text>
</a>
</g>
</g>
<!-- Node7&#45;&gt;Node4 -->
<g id="edge6" class="edge">
<title>Node7&#45;&gt;Node4</title>
<path fill="none" stroke="#404040" d="M546.54,-698.42C535.33,-690.77 523.65,-683.02 512.5,-676 452,-637.89 382.01,-597.99 327.66,-567.89"/>
<polygon fill="none" stroke="#404040" points="327.5,-567.81 320.32,-568.41 317,-562.01 324.19,-561.41 327.5,-567.81"/>
<text text-anchor="middle" x="512.5" y="-650" font-family="Helvetica,sans-Serif" font-size="10.00"> #$typeInfo</text>
</g>
<!-- Node8 -->
<g id="node8" class="node">
<title>Node8</title>
<g id="a_node8"><a xlink:href="../../d5/dd2/classpocketmine_1_1world_1_1_position.html" target="_top" xlink:title=" ">
<polygon fill="white" stroke="#bfbfbf" points="163.5,-676.5 163.5,-810.5 309.5,-810.5 309.5,-676.5 163.5,-676.5"/>
<text text-anchor="middle" x="236.5" y="-798.5" font-family="Helvetica,sans-Serif" font-size="10.00">pocketmine\world\Position</text>
<polyline fill="none" stroke="#bfbfbf" points="163.5,-791.5 309.5,-791.5 "/>
<text text-anchor="middle" x="236.5" y="-779.5" font-family="Helvetica,sans-Serif" font-size="10.00"> </text>
<polyline fill="none" stroke="#bfbfbf" points="163.5,-772.5 309.5,-772.5 "/>
<text text-anchor="start" x="171.5" y="-760.5" font-family="Helvetica,sans-Serif" font-size="10.00">+ __construct()</text>
<text text-anchor="start" x="171.5" y="-749.5" font-family="Helvetica,sans-Serif" font-size="10.00">+ __toString()</text>
<text text-anchor="start" x="171.5" y="-738.5" font-family="Helvetica,sans-Serif" font-size="10.00">+ asPosition()</text>
<text text-anchor="start" x="171.5" y="-727.5" font-family="Helvetica,sans-Serif" font-size="10.00">+ equals()</text>
<text text-anchor="start" x="171.5" y="-716.5" font-family="Helvetica,sans-Serif" font-size="10.00">+ getSide()</text>
<text text-anchor="start" x="171.5" y="-705.5" font-family="Helvetica,sans-Serif" font-size="10.00">+ getWorld()</text>
<text text-anchor="start" x="171.5" y="-694.5" font-family="Helvetica,sans-Serif" font-size="10.00">+ isValid()</text>
<text text-anchor="start" x="171.5" y="-683.5" font-family="Helvetica,sans-Serif" font-size="10.00">+ fromObject()</text>
</a>
</g>
</g>
<!-- Node8&#45;&gt;Node4 -->
<g id="edge7" class="edge">
<title>Node8&#45;&gt;Node4</title>
<path fill="none" stroke="#404040" d="M236.5,-676.2C236.5,-664.98 236.5,-653.02 236.5,-640.89"/>
<polygon fill="none" stroke="#404040" points="236.5,-640.73 232.5,-634.73 236.5,-628.73 240.5,-634.73 236.5,-640.73"/>
<text text-anchor="middle" x="265" y="-650" font-family="Helvetica,sans-Serif" font-size="10.00"> #$position</text>
</g>
<!-- Node9 -->
<g id="node9" class="node">
<title>Node9</title>
<g id="a_node9"><a xlink:href="../../d2/d90/classpocketmine_1_1math_1_1_vector3.html" target="_top" xlink:title=" ">
<polygon fill="white" stroke="#bfbfbf" points="370.5,-919 370.5,-1152 512.5,-1152 512.5,-919 370.5,-919"/>
<text text-anchor="middle" x="441.5" y="-1140" font-family="Helvetica,sans-Serif" font-size="10.00">pocketmine\math\Vector3</text>
<polyline fill="none" stroke="#bfbfbf" points="370.5,-1133 512.5,-1133 "/>
<text text-anchor="start" x="378.5" y="-1121" font-family="Helvetica,sans-Serif" font-size="10.00">+ $x</text>
<text text-anchor="start" x="378.5" y="-1110" font-family="Helvetica,sans-Serif" font-size="10.00">+ $y</text>
<text text-anchor="start" x="378.5" y="-1099" font-family="Helvetica,sans-Serif" font-size="10.00">+ $z</text>
<polyline fill="none" stroke="#bfbfbf" points="370.5,-1092 512.5,-1092 "/>
<text text-anchor="start" x="378.5" y="-1080" font-family="Helvetica,sans-Serif" font-size="10.00">+ __construct()</text>
<text text-anchor="start" x="378.5" y="-1069" font-family="Helvetica,sans-Serif" font-size="10.00">+ __toString()</text>
<text text-anchor="start" x="378.5" y="-1058" font-family="Helvetica,sans-Serif" font-size="10.00">+ abs()</text>
<text text-anchor="start" x="378.5" y="-1047" font-family="Helvetica,sans-Serif" font-size="10.00">+ add()</text>
<text text-anchor="start" x="378.5" y="-1036" font-family="Helvetica,sans-Serif" font-size="10.00">+ addVector()</text>
<text text-anchor="start" x="378.5" y="-1025" font-family="Helvetica,sans-Serif" font-size="10.00">+ asVector3()</text>
<text text-anchor="start" x="378.5" y="-1014" font-family="Helvetica,sans-Serif" font-size="10.00">+ ceil()</text>
<text text-anchor="start" x="378.5" y="-1003" font-family="Helvetica,sans-Serif" font-size="10.00">+ cross()</text>
<text text-anchor="start" x="378.5" y="-992" font-family="Helvetica,sans-Serif" font-size="10.00">+ distance()</text>
<text text-anchor="start" x="378.5" y="-981" font-family="Helvetica,sans-Serif" font-size="10.00">+ distanceSquared()</text>
<text text-anchor="start" x="378.5" y="-970" font-family="Helvetica,sans-Serif" font-size="10.00">and 32 more...</text>
<text text-anchor="start" x="378.5" y="-959" font-family="Helvetica,sans-Serif" font-size="10.00">+ maxComponents()</text>
<text text-anchor="start" x="378.5" y="-948" font-family="Helvetica,sans-Serif" font-size="10.00">+ minComponents()</text>
<text text-anchor="start" x="378.5" y="-937" font-family="Helvetica,sans-Serif" font-size="10.00">+ sum()</text>
<text text-anchor="start" x="378.5" y="-926" font-family="Helvetica,sans-Serif" font-size="10.00">+ zero()</text>
</a>
</g>
</g>
<!-- Node9&#45;&gt;Node8 -->
<g id="edge8" class="edge">
<title>Node9&#45;&gt;Node8</title>
<path fill="none" stroke="midnightblue" d="M380.92,-910.19C374.71,-899.77 368.21,-889.56 361.5,-880 344.69,-856.02 323.93,-831.87 304.18,-810.74"/>
<polygon fill="none" stroke="midnightblue" points="378,-912.13 386.07,-918.99 384.04,-908.59 378,-912.13"/>
</g>
<!-- Node10&#45;&gt;Node8 -->
<g id="edge9" class="edge">
<title>Node10&#45;&gt;Node8</title>
<path fill="none" stroke="#404040" d="M250.53,-880.16C248.48,-860.27 246.44,-840.61 244.59,-822.69"/>
<polygon fill="none" stroke="#404040" points="244.57,-822.52 239.98,-816.97 243.34,-810.59 247.93,-816.14 244.57,-822.52"/>
<text text-anchor="middle" x="271" y="-843" font-family="Helvetica,sans-Serif" font-size="10.00"> +$world</text>
</g>
<!-- Node11 -->
<g id="node11" class="node">
<title>Node11</title>
<g id="a_node11"><a xlink:href="../../d0/d03/interfacepocketmine_1_1world_1_1_chunk_manager.html" target="_top" xlink:title=" ">
<polygon fill="white" stroke="#bfbfbf" points="184.5,-1370.5 184.5,-1493.5 364.5,-1493.5 364.5,-1370.5 184.5,-1370.5"/>
<text text-anchor="middle" x="274.5" y="-1481.5" font-family="Helvetica,sans-Serif" font-size="10.00">pocketmine\world\ChunkManager</text>
<polyline fill="none" stroke="#bfbfbf" points="184.5,-1474.5 364.5,-1474.5 "/>
<text text-anchor="middle" x="274.5" y="-1462.5" font-family="Helvetica,sans-Serif" font-size="10.00"> </text>
<polyline fill="none" stroke="#bfbfbf" points="184.5,-1455.5 364.5,-1455.5 "/>
<text text-anchor="start" x="192.5" y="-1443.5" font-family="Helvetica,sans-Serif" font-size="10.00">+ getBlockAt()</text>
<text text-anchor="start" x="192.5" y="-1432.5" font-family="Helvetica,sans-Serif" font-size="10.00">+ getChunk()</text>
<text text-anchor="start" x="192.5" y="-1421.5" font-family="Helvetica,sans-Serif" font-size="10.00">+ getMaxY()</text>
<text text-anchor="start" x="192.5" y="-1410.5" font-family="Helvetica,sans-Serif" font-size="10.00">+ getMinY()</text>
<text text-anchor="start" x="192.5" y="-1399.5" font-family="Helvetica,sans-Serif" font-size="10.00">+ isInWorld()</text>
<text text-anchor="start" x="192.5" y="-1388.5" font-family="Helvetica,sans-Serif" font-size="10.00">+ setBlockAt()</text>
<text text-anchor="start" x="192.5" y="-1377.5" font-family="Helvetica,sans-Serif" font-size="10.00">+ setChunk()</text>
</a>
</g>
</g>
<!-- Node11&#45;&gt;Node10 -->
<g id="edge10" class="edge">
<title>Node11&#45;&gt;Node10</title>
<path fill="none" stroke="midnightblue" d="M273.06,-1360.12C272.11,-1312.96 270.81,-1249.15 269.63,-1190.65"/>
<polygon fill="none" stroke="midnightblue" points="269.57,-1360.3 273.27,-1370.22 276.56,-1360.15 269.57,-1360.3"/>
</g>
<!-- Node12 -->
<g id="node12" class="node">
<title>Node12</title>
<g id="a_node12"><a xlink:href="../../d7/d08/classpocketmine_1_1world_1_1_world_timings.html" target="_top" xlink:title=" ">
<polygon fill="white" stroke="#bfbfbf" points="383,-1359.5 383,-1504.5 556,-1504.5 556,-1359.5 383,-1359.5"/>
<text text-anchor="middle" x="469.5" y="-1492.5" font-family="Helvetica,sans-Serif" font-size="10.00">pocketmine\world\WorldTimings</text>
<polyline fill="none" stroke="#bfbfbf" points="383,-1485.5 556,-1485.5 "/>
<text text-anchor="start" x="391" y="-1473.5" font-family="Helvetica,sans-Serif" font-size="10.00">+ $syncChunkLoad</text>
<text text-anchor="start" x="391" y="-1462.5" font-family="Helvetica,sans-Serif" font-size="10.00">+ $syncChunkLoadData</text>
<text text-anchor="start" x="391" y="-1451.5" font-family="Helvetica,sans-Serif" font-size="10.00">+ $syncChunkLoadEntities</text>
<text text-anchor="start" x="391" y="-1440.5" font-family="Helvetica,sans-Serif" font-size="10.00">+ $syncChunkLoadFixInvalid</text>
<text text-anchor="start" x="391" y="-1429.5" font-family="Helvetica,sans-Serif" font-size="10.00">Blocks</text>
<text text-anchor="start" x="391" y="-1418.5" font-family="Helvetica,sans-Serif" font-size="10.00">+ $syncChunkLoadTileEntities</text>
<text text-anchor="start" x="391" y="-1407.5" font-family="Helvetica,sans-Serif" font-size="10.00">+ $syncChunkSave</text>
<text text-anchor="start" x="391" y="-1396.5" font-family="Helvetica,sans-Serif" font-size="10.00">+ $syncChunkSend</text>
<text text-anchor="start" x="391" y="-1385.5" font-family="Helvetica,sans-Serif" font-size="10.00">+ $syncChunkSendPrepare</text>
<polyline fill="none" stroke="#bfbfbf" points="383,-1378.5 556,-1378.5 "/>
<text text-anchor="start" x="391" y="-1366.5" font-family="Helvetica,sans-Serif" font-size="10.00">+ __construct()</text>
</a>
</g>
</g>
<!-- Node12&#45;&gt;Node10 -->
<g id="edge12" class="edge">
<title>Node12&#45;&gt;Node10</title>
<path fill="none" stroke="#404040" d="M432.5,-1359.1C409.83,-1315.04 379.82,-1256.72 351.56,-1201.79"/>
<polygon fill="none" stroke="#404040" points="351.42,-1201.53 345.12,-1198.03 345.93,-1190.86 352.23,-1194.37 351.42,-1201.53"/>
<text text-anchor="middle" x="448" y="-1272.5" font-family="Helvetica,sans-Serif" font-size="10.00"> +$timings</text>
</g>
<!-- Node13 -->
<g id="node13" class="node">
<title>Node13</title>
<g id="a_node13"><a xlink:href="../../d7/d9b/classpocketmine_1_1timings_1_1_timings_handler.html" target="_top" xlink:title=" ">
<polygon fill="white" stroke="#bfbfbf" points="413,-1673.5 413,-1862.5 526,-1862.5 526,-1673.5 413,-1673.5"/>
<text text-anchor="start" x="421" y="-1850.5" font-family="Helvetica,sans-Serif" font-size="10.00">pocketmine\timings</text>
<text text-anchor="middle" x="469.5" y="-1839.5" font-family="Helvetica,sans-Serif" font-size="10.00">\TimingsHandler</text>
<polyline fill="none" stroke="#bfbfbf" points="413,-1832.5 526,-1832.5 "/>
<text text-anchor="middle" x="469.5" y="-1820.5" font-family="Helvetica,sans-Serif" font-size="10.00"> </text>
<polyline fill="none" stroke="#bfbfbf" points="413,-1813.5 526,-1813.5 "/>
<text text-anchor="start" x="421" y="-1801.5" font-family="Helvetica,sans-Serif" font-size="10.00">+ __construct()</text>
<text text-anchor="start" x="421" y="-1790.5" font-family="Helvetica,sans-Serif" font-size="10.00">+ destroyCycles()</text>
<text text-anchor="start" x="421" y="-1779.5" font-family="Helvetica,sans-Serif" font-size="10.00">+ getName()</text>
<text text-anchor="start" x="421" y="-1768.5" font-family="Helvetica,sans-Serif" font-size="10.00">+ startTiming()</text>
<text text-anchor="start" x="421" y="-1757.5" font-family="Helvetica,sans-Serif" font-size="10.00">+ stopTiming()</text>
<text text-anchor="start" x="421" y="-1746.5" font-family="Helvetica,sans-Serif" font-size="10.00">+ time()</text>
<text text-anchor="start" x="421" y="-1735.5" font-family="Helvetica,sans-Serif" font-size="10.00">+ getStartTime()</text>
<text text-anchor="start" x="421" y="-1724.5" font-family="Helvetica,sans-Serif" font-size="10.00">+ isEnabled()</text>
<text text-anchor="start" x="421" y="-1713.5" font-family="Helvetica,sans-Serif" font-size="10.00">+ printTimings()</text>
<text text-anchor="start" x="421" y="-1702.5" font-family="Helvetica,sans-Serif" font-size="10.00">+ reload()</text>
<text text-anchor="start" x="421" y="-1691.5" font-family="Helvetica,sans-Serif" font-size="10.00">+ setEnabled()</text>
<text text-anchor="start" x="421" y="-1680.5" font-family="Helvetica,sans-Serif" font-size="10.00">+ tick()</text>
</a>
</g>
</g>
<!-- Node13&#45;&gt;Node12 -->
<g id="edge13" class="edge">
<title>Node13&#45;&gt;Node12</title>
<path fill="none" stroke="#404040" d="M469.5,-1673.07C469.5,-1623.91 469.5,-1564.21 469.5,-1516.65"/>
<polygon fill="none" stroke="#404040" points="469.5,-1516.52 465.5,-1510.52 469.5,-1504.52 473.5,-1510.52 469.5,-1516.52"/>
<text text-anchor="middle" x="546.5" y="-1647" font-family="Helvetica,sans-Serif" font-size="10.00"> +$doBlockLightUpdates</text>
<text text-anchor="middle" x="546.5" y="-1636" font-family="Helvetica,sans-Serif" font-size="10.00">+$doBlockSkyLightUpdates</text>
<text text-anchor="middle" x="546.5" y="-1625" font-family="Helvetica,sans-Serif" font-size="10.00">+$doChunkGC</text>
<text text-anchor="middle" x="546.5" y="-1614" font-family="Helvetica,sans-Serif" font-size="10.00">+$doChunkUnload</text>
<text text-anchor="middle" x="546.5" y="-1603" font-family="Helvetica,sans-Serif" font-size="10.00">+$doTick</text>
<text text-anchor="middle" x="546.5" y="-1592" font-family="Helvetica,sans-Serif" font-size="10.00">+$entityTick</text>
<text text-anchor="middle" x="546.5" y="-1581" font-family="Helvetica,sans-Serif" font-size="10.00">+$randomChunkUpdates</text>
<text text-anchor="start" x="469.5" y="-1570" font-family="Helvetica,sans-Serif" font-size="10.00">+$randomChunkUpdatesChunk</text>
<text text-anchor="middle" x="546.5" y="-1559" font-family="Helvetica,sans-Serif" font-size="10.00">Selection</text>
<text text-anchor="middle" x="546.5" y="-1548" font-family="Helvetica,sans-Serif" font-size="10.00">+$scheduledBlockUpdates</text>
<text text-anchor="middle" x="546.5" y="-1537" font-family="Helvetica,sans-Serif" font-size="10.00">+$setBlock</text>
<text text-anchor="middle" x="546.5" y="-1526" font-family="Helvetica,sans-Serif" font-size="10.00">...</text>
</g>
</g>
</svg>
