<?xml version="1.0" encoding="UTF-8" standalone="no"?>
<!DOCTYPE svg PUBLIC "-//W3C//DTD SVG 1.1//EN"
 "http://www.w3.org/Graphics/SVG/1.1/DTD/svg11.dtd">
<!-- Generated by graphviz version 2.43.0 (0)
 -->
<!-- Title: pocketmine\network\mcpe\protocol\types\LevelSettings Pages: 1 -->
<!--zoomable 463 -->

<svg id="main" version="1.1" xmlns="http://www.w3.org/2000/svg" xmlns:xlink="http://www.w3.org/1999/xlink" xml:space="preserve" onload="init(evt)">

<style type="text/css"><![CDATA[
.node, .edge {opacity: 0.7;}
.node.selected, .edge.selected {opacity: 1;}
.edge:hover path { stroke: red; }
.edge:hover polygon { stroke: red; fill: red; }
]]></style>

<defs>
  <circle id="rim" cx="0" cy="0" r="7"/>
  <circle id="rim2" cx="0" cy="0" r="3.5"/>
  <g id="zoomPlus">
    <use xlink:href="#rim" fill="#404040"><set attributeName="fill" to="#808080" begin="zoomplus.mouseover" end="zoomplus.mouseout"/></use>
    <path d="M-4,0h8M0,-4v8" fill="none" stroke="white" stroke-width="1.5" pointer-events="none"/>
  </g>
  <g id="zoomMin">
    <use xlink:href="#rim" fill="#404040"><set attributeName="fill" to="#808080" begin="zoomminus.mouseover" end="zoomminus.mouseout"/></use>
    <path d="M-4,0h8" fill="none" stroke="white" stroke-width="1.5" pointer-events="none"/>
  </g>
  <g id="arrowUp" transform="translate(30 24)">
    <use xlink:href="#rim"/>
    <path pointer-events="none" fill="none" stroke="white" stroke-width="1.5" d="M0,-3.0v7 M-2.5,-0.5L0,-3.0L2.5,-0.5"/>
  </g>
  <g id="arrowRight" transform="rotate(90) translate(36 -43)">
    <use xlink:href="#rim"/>
    <path pointer-events="none" fill="none" stroke="white" stroke-width="1.5" d="M0,-3.0v7 M-2.5,-0.5L0,-3.0L2.5,-0.5"/>
  </g>
  <g id="arrowDown" transform="rotate(180) translate(-30 -48)">
    <use xlink:href="#rim"/>
    <path pointer-events="none" fill="none" stroke="white" stroke-width="1.5" d="M0,-3.0v7 M-2.5,-0.5L0,-3.0L2.5,-0.5"/>
  </g>
  <g id="arrowLeft" transform="rotate(270) translate(-36 17)">
    <use xlink:href="#rim"/>
    <path pointer-events="none" fill="none" stroke="white" stroke-width="1.5" d="M0,-3.0v7 M-2.5,-0.5L0,-3.0L2.5,-0.5"/>
  </g>
  <g id="resetDef">
    <use xlink:href="#rim2" fill="#404040"><set attributeName="fill" to="#808080" begin="reset.mouseover" end="reset.mouseout"/></use>
  </g>
</defs>
<script type="application/ecmascript">
var viewWidth = 644;
var viewHeight = 463;
var sectionId = 'dynsection-0';
</script>
<script type="application/ecmascript" xlink:href="../../svg.min.js"/>
<svg id="graph" class="graph">
<g id="viewport">
<title>pocketmine\network\mcpe\protocol\types\LevelSettings</title>
<!-- Node1 -->
<g id="Node000001" class="node">
<title>Node1</title>
<g id="a_Node000001"><a xlink:title=" ">
<polygon fill="#999999" stroke="transparent" points="404,-247 237,-247 237,0 404,0 404,-247"/>
<text text-anchor="start" x="269.5" y="-234.5" font-family="Helvetica,sans-Serif" font-size="10.00">pocketmine\network</text>
<text text-anchor="start" x="269.5" y="-223.5" font-family="Helvetica,sans-Serif" font-size="10.00">\mcpe\protocol\types</text>
<text text-anchor="start" x="286" y="-212.5" font-family="Helvetica,sans-Serif" font-size="10.00">\LevelSettings</text>
<text text-anchor="start" x="241.5" y="-197.5" font-family="Helvetica,sans-Serif" font-size="10.00">+</text>
<text text-anchor="start" x="254.5" y="-197.5" font-family="Helvetica,sans-Serif" font-size="10.00">$allowAnonymousBlockDrops</text>
<text text-anchor="start" x="254.5" y="-186.5" font-family="Helvetica,sans-Serif" font-size="10.00">InEditorWorlds</text>
<text text-anchor="start" x="241.5" y="-171.5" font-family="Helvetica,sans-Serif" font-size="10.00">+</text>
<text text-anchor="start" x="254.5" y="-171.5" font-family="Helvetica,sans-Serif" font-size="10.00">$chatRestrictionLevel</text>
<text text-anchor="start" x="241.5" y="-156.5" font-family="Helvetica,sans-Serif" font-size="10.00">+</text>
<text text-anchor="start" x="254.5" y="-156.5" font-family="Helvetica,sans-Serif" font-size="10.00">$commandsEnabled</text>
<text text-anchor="start" x="241.5" y="-141.5" font-family="Helvetica,sans-Serif" font-size="10.00">+</text>
<text text-anchor="start" x="254.5" y="-141.5" font-family="Helvetica,sans-Serif" font-size="10.00">$createdInEditorMode</text>
<text text-anchor="start" x="241.5" y="-126.5" font-family="Helvetica,sans-Serif" font-size="10.00">+</text>
<text text-anchor="start" x="254.5" y="-126.5" font-family="Helvetica,sans-Serif" font-size="10.00">$defaultPlayerPermission</text>
<text text-anchor="start" x="241.5" y="-111.5" font-family="Helvetica,sans-Serif" font-size="10.00">+</text>
<text text-anchor="start" x="254.5" y="-111.5" font-family="Helvetica,sans-Serif" font-size="10.00">$difficulty</text>
<text text-anchor="start" x="241.5" y="-96.5" font-family="Helvetica,sans-Serif" font-size="10.00">+</text>
<text text-anchor="start" x="254.5" y="-96.5" font-family="Helvetica,sans-Serif" font-size="10.00">$disableCustomSkins</text>
<text text-anchor="start" x="241.5" y="-81.5" font-family="Helvetica,sans-Serif" font-size="10.00">+</text>
<text text-anchor="start" x="254.5" y="-81.5" font-family="Helvetica,sans-Serif" font-size="10.00">$disablePersona</text>
<text text-anchor="start" x="241.5" y="-66.5" font-family="Helvetica,sans-Serif" font-size="10.00">+</text>
<text text-anchor="start" x="254.5" y="-66.5" font-family="Helvetica,sans-Serif" font-size="10.00">$disablePlayerInteractions</text>
<text text-anchor="start" x="241.5" y="-51.5" font-family="Helvetica,sans-Serif" font-size="10.00">+</text>
<text text-anchor="start" x="254.5" y="-51.5" font-family="Helvetica,sans-Serif" font-size="10.00">$editorWorldType</text>
<text text-anchor="start" x="254.5" y="-36.5" font-family="Helvetica,sans-Serif" font-size="10.00">and 36 more...</text>
<text text-anchor="start" x="241.5" y="-21.5" font-family="Helvetica,sans-Serif" font-size="10.00">+</text>
<text text-anchor="start" x="254.5" y="-21.5" font-family="Helvetica,sans-Serif" font-size="10.00">write()</text>
<text text-anchor="start" x="241.5" y="-6.5" font-family="Helvetica,sans-Serif" font-size="10.00">+</text>
<text text-anchor="start" x="254.5" y="-6.5" font-family="Helvetica,sans-Serif" font-size="10.00">read()</text>
<polygon fill="#666666" stroke="#666666" points="237.5,-207.5 237.5,-207.5 404.5,-207.5 404.5,-207.5 237.5,-207.5"/>
<polygon fill="#666666" stroke="#666666" points="237.5,-31.5 237.5,-31.5 252.5,-31.5 252.5,-31.5 237.5,-31.5"/>
<polygon fill="#666666" stroke="#666666" points="252.5,-31.5 252.5,-31.5 404.5,-31.5 404.5,-31.5 252.5,-31.5"/>
<polygon fill="none" stroke="#666666" points="237,0 237,-247 404,-247 404,0 237,0"/>
</a>
</g>
</g>
<!-- Node2 -->
<g id="Node000002" class="node">
<title>Node2</title>
<g id="a_Node000002"><a xlink:href="../../d9/d71/classpocketmine_1_1network_1_1mcpe_1_1protocol_1_1types_1_1_spawn_settings.html" target="_top" xlink:title=" ">
<polygon fill="white" stroke="transparent" points="163,-455 0,-455 0,-294 163,-294 163,-455"/>
<text text-anchor="start" x="30.5" y="-442.5" font-family="Helvetica,sans-Serif" font-size="10.00">pocketmine\network</text>
<text text-anchor="start" x="30.5" y="-431.5" font-family="Helvetica,sans-Serif" font-size="10.00">\mcpe\protocol\types</text>
<text text-anchor="start" x="44" y="-420.5" font-family="Helvetica,sans-Serif" font-size="10.00">\SpawnSettings</text>
<text text-anchor="start" x="4.5" y="-405.5" font-family="Helvetica,sans-Serif" font-size="10.00">+</text>
<text text-anchor="start" x="17.5" y="-405.5" font-family="Helvetica,sans-Serif" font-size="10.00">BIOME_TYPE_DEFAULT</text>
<text text-anchor="start" x="4.5" y="-390.5" font-family="Helvetica,sans-Serif" font-size="10.00">+</text>
<text text-anchor="start" x="17.5" y="-390.5" font-family="Helvetica,sans-Serif" font-size="10.00">BIOME_TYPE_USER_DEFINED</text>
<text text-anchor="start" x="4.5" y="-375.5" font-family="Helvetica,sans-Serif" font-size="10.00">+</text>
<text text-anchor="start" x="17.5" y="-375.5" font-family="Helvetica,sans-Serif" font-size="10.00">__construct()</text>
<text text-anchor="start" x="4.5" y="-360.5" font-family="Helvetica,sans-Serif" font-size="10.00">+</text>
<text text-anchor="start" x="17.5" y="-360.5" font-family="Helvetica,sans-Serif" font-size="10.00">getBiomeName()</text>
<text text-anchor="start" x="4.5" y="-345.5" font-family="Helvetica,sans-Serif" font-size="10.00">+</text>
<text text-anchor="start" x="17.5" y="-345.5" font-family="Helvetica,sans-Serif" font-size="10.00">getBiomeType()</text>
<text text-anchor="start" x="4.5" y="-330.5" font-family="Helvetica,sans-Serif" font-size="10.00">+</text>
<text text-anchor="start" x="17.5" y="-330.5" font-family="Helvetica,sans-Serif" font-size="10.00">getDimension()</text>
<text text-anchor="start" x="4.5" y="-315.5" font-family="Helvetica,sans-Serif" font-size="10.00">+</text>
<text text-anchor="start" x="17.5" y="-315.5" font-family="Helvetica,sans-Serif" font-size="10.00">write()</text>
<text text-anchor="start" x="4.5" y="-300.5" font-family="Helvetica,sans-Serif" font-size="10.00">+</text>
<text text-anchor="start" x="17.5" y="-300.5" font-family="Helvetica,sans-Serif" font-size="10.00">read()</text>
<polygon fill="#bfbfbf" stroke="#bfbfbf" points="0.5,-415.5 0.5,-415.5 163.5,-415.5 163.5,-415.5 0.5,-415.5"/>
<polygon fill="#bfbfbf" stroke="#bfbfbf" points="0.5,-385.5 0.5,-385.5 15.5,-385.5 15.5,-385.5 0.5,-385.5"/>
<polygon fill="#bfbfbf" stroke="#bfbfbf" points="15.5,-385.5 15.5,-385.5 163.5,-385.5 163.5,-385.5 15.5,-385.5"/>
<polygon fill="none" stroke="#bfbfbf" points="0,-294 0,-455 163,-455 163,-294 0,-294"/>
</a>
</g>
</g>
<!-- Node2&#45;&gt;Node1 -->
<g id="edge1_Node000001_Node000002" class="edge">
<title>Node2&#45;&gt;Node1</title>
<g id="a_edge1_Node000001_Node000002"><a xlink:title=" ">
<path fill="none" stroke="#63b8ff" d="M151.67,-293.88C160.61,-284.07 169.71,-274.25 178.5,-265 194.27,-248.41 211.35,-231.04 228.01,-214.39"/>
<polygon fill="none" stroke="#63b8ff" points="228.17,-214.22 229.6,-207.16 236.67,-205.75 235.24,-212.82 228.17,-214.22"/>
</a>
</g>
<text text-anchor="middle" x="223" y="-268" font-family="Helvetica,sans-Serif" font-size="10.00" fill="grey"> +$spawnSettings</text>
</g>
<!-- Node3 -->
<g id="Node000003" class="node">
<title>Node3</title>
<g id="a_Node000003"><a xlink:href="../../d1/d5f/classpocketmine_1_1network_1_1mcpe_1_1protocol_1_1types_1_1_block_position.html" target="_top" xlink:title=" ">
<polygon fill="white" stroke="transparent" points="294,-447.5 181,-447.5 181,-301.5 294,-301.5 294,-447.5"/>
<text text-anchor="start" x="186.5" y="-435.5" font-family="Helvetica,sans-Serif" font-size="10.00">pocketmine\network</text>
<text text-anchor="start" x="186.5" y="-424.5" font-family="Helvetica,sans-Serif" font-size="10.00">\mcpe\protocol\types</text>
<text text-anchor="start" x="203" y="-413.5" font-family="Helvetica,sans-Serif" font-size="10.00">\BlockPosition</text>
<text text-anchor="start" x="236" y="-398.5" font-family="Helvetica,sans-Serif" font-size="10.00"> </text>
<text text-anchor="start" x="191.5" y="-383.5" font-family="Helvetica,sans-Serif" font-size="10.00">+</text>
<text text-anchor="start" x="210.5" y="-383.5" font-family="Helvetica,sans-Serif" font-size="10.00">__construct()</text>
<text text-anchor="start" x="191.5" y="-368.5" font-family="Helvetica,sans-Serif" font-size="10.00">+</text>
<text text-anchor="start" x="210.5" y="-368.5" font-family="Helvetica,sans-Serif" font-size="10.00">equals()</text>
<text text-anchor="start" x="191.5" y="-353.5" font-family="Helvetica,sans-Serif" font-size="10.00">+</text>
<text text-anchor="start" x="210.5" y="-353.5" font-family="Helvetica,sans-Serif" font-size="10.00">getX()</text>
<text text-anchor="start" x="191.5" y="-338.5" font-family="Helvetica,sans-Serif" font-size="10.00">+</text>
<text text-anchor="start" x="210.5" y="-338.5" font-family="Helvetica,sans-Serif" font-size="10.00">getY()</text>
<text text-anchor="start" x="191.5" y="-323.5" font-family="Helvetica,sans-Serif" font-size="10.00">+</text>
<text text-anchor="start" x="210.5" y="-323.5" font-family="Helvetica,sans-Serif" font-size="10.00">getZ()</text>
<text text-anchor="start" x="191.5" y="-308.5" font-family="Helvetica,sans-Serif" font-size="10.00">+</text>
<text text-anchor="start" x="210.5" y="-308.5" font-family="Helvetica,sans-Serif" font-size="10.00">fromVector3()</text>
<polygon fill="#bfbfbf" stroke="#bfbfbf" points="181.5,-408.5 181.5,-408.5 294.5,-408.5 294.5,-408.5 181.5,-408.5"/>
<polygon fill="#bfbfbf" stroke="#bfbfbf" points="181.5,-393.5 181.5,-393.5 294.5,-393.5 294.5,-393.5 181.5,-393.5"/>
<polygon fill="none" stroke="#bfbfbf" points="181,-301.5 181,-447.5 294,-447.5 294,-301.5 181,-301.5"/>
</a>
</g>
</g>
<!-- Node3&#45;&gt;Node1 -->
<g id="edge2_Node000001_Node000003" class="edge">
<title>Node3&#45;&gt;Node1</title>
<g id="a_edge2_Node000001_Node000003"><a xlink:title=" ">
<path fill="none" stroke="#63b8ff" d="M261.51,-301.48C266,-287.99 270.83,-273.5 275.73,-258.82"/>
<polygon fill="none" stroke="#63b8ff" points="275.86,-258.42 273.96,-251.46 279.66,-247.03 281.55,-253.99 275.86,-258.42"/>
</a>
</g>
<text text-anchor="middle" x="315.5" y="-268" font-family="Helvetica,sans-Serif" font-size="10.00" fill="grey"> +$spawnPosition</text>
</g>
<!-- Node4 -->
<g id="Node000004" class="node">
<title>Node4</title>
<g id="a_Node000004"><a xlink:href="../../db/d33/classpocketmine_1_1network_1_1mcpe_1_1protocol_1_1types_1_1_experiments.html" target="_top" xlink:title=" ">
<polygon fill="white" stroke="transparent" points="496.5,-440 312.5,-440 312.5,-309 496.5,-309 496.5,-440"/>
<text text-anchor="start" x="353" y="-427.5" font-family="Helvetica,sans-Serif" font-size="10.00">pocketmine\network</text>
<text text-anchor="start" x="353" y="-416.5" font-family="Helvetica,sans-Serif" font-size="10.00">\mcpe\protocol\types</text>
<text text-anchor="start" x="372" y="-405.5" font-family="Helvetica,sans-Serif" font-size="10.00">\Experiments</text>
<text text-anchor="start" x="402.5" y="-390.5" font-family="Helvetica,sans-Serif" font-size="10.00"> </text>
<text text-anchor="start" x="316.5" y="-375.5" font-family="Helvetica,sans-Serif" font-size="10.00">+</text>
<text text-anchor="start" x="329.5" y="-375.5" font-family="Helvetica,sans-Serif" font-size="10.00">__construct()</text>
<text text-anchor="start" x="316.5" y="-360.5" font-family="Helvetica,sans-Serif" font-size="10.00">+</text>
<text text-anchor="start" x="329.5" y="-360.5" font-family="Helvetica,sans-Serif" font-size="10.00">getExperiments()</text>
<text text-anchor="start" x="316.5" y="-345.5" font-family="Helvetica,sans-Serif" font-size="10.00">+</text>
<text text-anchor="start" x="329.5" y="-345.5" font-family="Helvetica,sans-Serif" font-size="10.00">hasPreviouslyUsedExperiments()</text>
<text text-anchor="start" x="316.5" y="-330.5" font-family="Helvetica,sans-Serif" font-size="10.00">+</text>
<text text-anchor="start" x="329.5" y="-330.5" font-family="Helvetica,sans-Serif" font-size="10.00">write()</text>
<text text-anchor="start" x="316.5" y="-315.5" font-family="Helvetica,sans-Serif" font-size="10.00">+</text>
<text text-anchor="start" x="329.5" y="-315.5" font-family="Helvetica,sans-Serif" font-size="10.00">read()</text>
<polygon fill="#bfbfbf" stroke="#bfbfbf" points="312.5,-400.5 312.5,-400.5 496.5,-400.5 496.5,-400.5 312.5,-400.5"/>
<polygon fill="#bfbfbf" stroke="#bfbfbf" points="312.5,-385.5 312.5,-385.5 496.5,-385.5 496.5,-385.5 312.5,-385.5"/>
<polygon fill="none" stroke="#bfbfbf" points="312.5,-309 312.5,-440 496.5,-440 496.5,-309 312.5,-309"/>
</a>
</g>
</g>
<!-- Node4&#45;&gt;Node1 -->
<g id="edge3_Node000001_Node000004" class="edge">
<title>Node4&#45;&gt;Node1</title>
<g id="a_edge3_Node000001_Node000004"><a xlink:title=" ">
<path fill="none" stroke="#63b8ff" d="M382.65,-308.73C377.43,-293.24 371.66,-276.14 365.8,-258.79"/>
<polygon fill="none" stroke="#63b8ff" points="365.78,-258.73 360.07,-254.32 361.95,-247.36 367.65,-251.77 365.78,-258.73"/>
</a>
</g>
<text text-anchor="middle" x="409" y="-268" font-family="Helvetica,sans-Serif" font-size="10.00" fill="grey"> +$experiments</text>
</g>
<!-- Node5 -->
<g id="Node000005" class="node">
<title>Node5</title>
<g id="a_Node000005"><a xlink:href="../../d4/d9b/classpocketmine_1_1network_1_1mcpe_1_1protocol_1_1types_1_1_education_uri_resource.html" target="_top" xlink:title=" ">
<polygon fill="white" stroke="transparent" points="636,-440 515,-440 515,-309 636,-309 636,-440"/>
<text text-anchor="start" x="520.5" y="-427.5" font-family="Helvetica,sans-Serif" font-size="10.00">pocketmine\network</text>
<text text-anchor="start" x="520.5" y="-416.5" font-family="Helvetica,sans-Serif" font-size="10.00">\mcpe\protocol\types</text>
<text text-anchor="start" x="520.5" y="-405.5" font-family="Helvetica,sans-Serif" font-size="10.00">\EducationUriResource</text>
<text text-anchor="start" x="574" y="-390.5" font-family="Helvetica,sans-Serif" font-size="10.00"> </text>
<text text-anchor="start" x="523" y="-375.5" font-family="Helvetica,sans-Serif" font-size="10.00">+</text>
<text text-anchor="start" x="539.5" y="-375.5" font-family="Helvetica,sans-Serif" font-size="10.00">__construct()</text>
<text text-anchor="start" x="523" y="-360.5" font-family="Helvetica,sans-Serif" font-size="10.00">+</text>
<text text-anchor="start" x="539.5" y="-360.5" font-family="Helvetica,sans-Serif" font-size="10.00">getButtonName()</text>
<text text-anchor="start" x="523" y="-345.5" font-family="Helvetica,sans-Serif" font-size="10.00">+</text>
<text text-anchor="start" x="539.5" y="-345.5" font-family="Helvetica,sans-Serif" font-size="10.00">getLinkUri()</text>
<text text-anchor="start" x="523" y="-330.5" font-family="Helvetica,sans-Serif" font-size="10.00">+</text>
<text text-anchor="start" x="539.5" y="-330.5" font-family="Helvetica,sans-Serif" font-size="10.00">write()</text>
<text text-anchor="start" x="523" y="-315.5" font-family="Helvetica,sans-Serif" font-size="10.00">+</text>
<text text-anchor="start" x="539.5" y="-315.5" font-family="Helvetica,sans-Serif" font-size="10.00">read()</text>
<polygon fill="#bfbfbf" stroke="#bfbfbf" points="515.5,-400.5 515.5,-400.5 636.5,-400.5 636.5,-400.5 515.5,-400.5"/>
<polygon fill="#bfbfbf" stroke="#bfbfbf" points="515.5,-385.5 515.5,-385.5 636.5,-385.5 636.5,-385.5 515.5,-385.5"/>
<polygon fill="none" stroke="#bfbfbf" points="515,-309 515,-440 636,-440 636,-309 515,-309"/>
</a>
</g>
</g>
<!-- Node5&#45;&gt;Node1 -->
<g id="edge4_Node000001_Node000005" class="edge">
<title>Node5&#45;&gt;Node1</title>
<g id="a_edge4_Node000001_Node000005"><a xlink:title=" ">
<path fill="none" stroke="#63b8ff" d="M519.53,-308.75C514.85,-303.7 510.13,-298.73 505.5,-294 476.48,-264.4 443.47,-233.39 413.45,-206.1"/>
<polygon fill="none" stroke="#63b8ff" points="413.14,-205.81 406,-204.75 404.24,-197.76 411.37,-198.82 413.14,-205.81"/>
</a>
</g>
<text text-anchor="middle" x="550" y="-268" font-family="Helvetica,sans-Serif" font-size="10.00" fill="grey"> +$eduSharedUriResource</text>
</g>
</g>
</svg>

<g id="navigator" transform="translate(0 0)" fill="#404254">
  <rect fill="#f2f5e9" fill-opacity="0.5" stroke="#606060" stroke-width=".5" x="0" y="0" width="60" height="60"/>
  <use id="zoomplus" xlink:href="#zoomPlus" x="17" y="9" onmousedown="handleZoom(evt,'in')"/>
  <use id="zoomminus" xlink:href="#zoomMin" x="42" y="9" onmousedown="handleZoom(evt,'out')"/>
  <use id="reset" xlink:href="#resetDef" x="30" y="36" onmousedown="handleReset()"/>
   <use id="arrowup" xlink:href="#arrowUp" x="0" y="0" onmousedown="handlePan(0,-1)"/>
  <use id="arrowright" xlink:href="#arrowRight" x="0" y="0" onmousedown="handlePan(1,0)"/>
  <use id="arrowdown" xlink:href="#arrowDown" x="0" y="0" onmousedown="handlePan(0,1)"/>
  <use id="arrowleft" xlink:href="#arrowLeft" x="0" y="0" onmousedown="handlePan(-1,0)"/>
</g>
<svg viewBox="0 0 15 15" width="100%" height="30px" preserveAspectRatio="xMaxYMin meet">
 <g id="arrow_out" transform="scale(0.3 0.3)">
  <a xlink:href="classpocketmine_1_1network_1_1mcpe_1_1protocol_1_1types_1_1_level_settings__coll__graph_org.svg" target="_base">
   <rect id="button" ry="5" rx="5" y="6" x="6" height="38" width="38"
        fill="#f2f5e9" fill-opacity="0.5" stroke="#606060" stroke-width="1.0"/>
   <path id="arrow"
     d="M 11.500037,31.436501 C 11.940474,20.09759 22.043105,11.32322 32.158766,21.979434 L 37.068811,17.246167 C 37.068811,17.246167 37.088388,32 37.088388,32 L 22.160133,31.978069 C 22.160133,31.978069 26.997745,27.140456 26.997745,27.140456 C 18.528582,18.264221 13.291696,25.230495 11.500037,31.436501 z"
     style="fill:#404040;"/>
  </a>
 </g>
</svg>

<style type='text/css'>
<![CDATA[
[data-mouse-over-selected='false'] { opacity: 0.7; }
[data-mouse-over-selected='true']  { opacity: 1.0; }
]]>
</style>
<script type="application/ecmascript"><![CDATA[
document.addEventListener('DOMContentLoaded', (event) => {
  highlightEdges();
  highlightAdjacentNodes();
});
]]></script>
</svg>
