<?xml version="1.0" encoding="UTF-8" standalone="no"?>
<!DOCTYPE svg PUBLIC "-//W3C//DTD SVG 1.1//EN"
 "http://www.w3.org/Graphics/SVG/1.1/DTD/svg11.dtd">
<!-- Generated by graphviz version 2.43.0 (0)
 -->
<!-- Title: AttachableThreadedLogger Pages: 1 -->
<svg width="210pt" height="612pt"
 viewBox="0.00 0.00 210.00 612.00" xmlns="http://www.w3.org/2000/svg" xmlns:xlink="http://www.w3.org/1999/xlink">
<g id="graph0" class="graph" transform="scale(1 1) rotate(0) translate(4 608)">
<title>AttachableThreadedLogger</title>
<polygon fill="white" stroke="transparent" points="-4,4 -4,-608 206,-608 206,4 -4,4"/>
<!-- Node1 -->
<g id="node1" class="node">
<title>Node1</title>
<g id="a_node1"><a xlink:title=" ">
<polygon fill="#bfbfbf" stroke="black" points="24,-215.5 24,-316.5 172,-316.5 172,-215.5 24,-215.5"/>
<text text-anchor="middle" x="98" y="-304.5" font-family="Helvetica,sans-Serif" font-size="10.00">AttachableThreadedLogger</text>
<polyline fill="none" stroke="black" points="24,-297.5 172,-297.5 "/>
<text text-anchor="start" x="32" y="-285.5" font-family="Helvetica,sans-Serif" font-size="10.00"># $attachments</text>
<polyline fill="none" stroke="black" points="24,-278.5 172,-278.5 "/>
<text text-anchor="start" x="32" y="-266.5" font-family="Helvetica,sans-Serif" font-size="10.00">+ __construct()</text>
<text text-anchor="start" x="32" y="-255.5" font-family="Helvetica,sans-Serif" font-size="10.00">+ addAttachment()</text>
<text text-anchor="start" x="32" y="-244.5" font-family="Helvetica,sans-Serif" font-size="10.00">+ getAttachments()</text>
<text text-anchor="start" x="32" y="-233.5" font-family="Helvetica,sans-Serif" font-size="10.00">+ removeAttachment()</text>
<text text-anchor="start" x="32" y="-222.5" font-family="Helvetica,sans-Serif" font-size="10.00">+ removeAttachments()</text>
</a>
</g>
</g>
<!-- Node5 -->
<g id="node5" class="node">
<title>Node5</title>
<g id="a_node5"><a xlink:href="../../d9/d27/classpocketmine_1_1utils_1_1_main_logger.html" target="_top" xlink:title=" ">
<polygon fill="white" stroke="#bfbfbf" points="19,-0.5 19,-178.5 177,-178.5 177,-0.5 19,-0.5"/>
<text text-anchor="middle" x="98" y="-166.5" font-family="Helvetica,sans-Serif" font-size="10.00">pocketmine\utils\MainLogger</text>
<polyline fill="none" stroke="#bfbfbf" points="19,-159.5 177,-159.5 "/>
<text text-anchor="start" x="27" y="-147.5" font-family="Helvetica,sans-Serif" font-size="10.00"># $logDebug</text>
<polyline fill="none" stroke="#bfbfbf" points="19,-140.5 177,-140.5 "/>
<text text-anchor="start" x="27" y="-128.5" font-family="Helvetica,sans-Serif" font-size="10.00">+ __construct()</text>
<text text-anchor="start" x="27" y="-117.5" font-family="Helvetica,sans-Serif" font-size="10.00">+ __destruct()</text>
<text text-anchor="start" x="27" y="-106.5" font-family="Helvetica,sans-Serif" font-size="10.00">+ alert()</text>
<text text-anchor="start" x="27" y="-95.5" font-family="Helvetica,sans-Serif" font-size="10.00">+ buffer()</text>
<text text-anchor="start" x="27" y="-84.5" font-family="Helvetica,sans-Serif" font-size="10.00">+ critical()</text>
<text text-anchor="start" x="27" y="-73.5" font-family="Helvetica,sans-Serif" font-size="10.00">+ debug()</text>
<text text-anchor="start" x="27" y="-62.5" font-family="Helvetica,sans-Serif" font-size="10.00">+ emergency()</text>
<text text-anchor="start" x="27" y="-51.5" font-family="Helvetica,sans-Serif" font-size="10.00">+ error()</text>
<text text-anchor="start" x="27" y="-40.5" font-family="Helvetica,sans-Serif" font-size="10.00">+ getFormat()</text>
<text text-anchor="start" x="27" y="-29.5" font-family="Helvetica,sans-Serif" font-size="10.00">+ info()</text>
<text text-anchor="start" x="27" y="-18.5" font-family="Helvetica,sans-Serif" font-size="10.00">and 8 more...</text>
<text text-anchor="start" x="27" y="-7.5" font-family="Helvetica,sans-Serif" font-size="10.00"># send()</text>
</a>
</g>
</g>
<!-- Node1&#45;&gt;Node5 -->
<g id="edge4" class="edge">
<title>Node1&#45;&gt;Node5</title>
<path fill="none" stroke="midnightblue" d="M98,-205.26C98,-196.71 98,-187.77 98,-178.81"/>
<polygon fill="none" stroke="midnightblue" points="94.5,-205.46 98,-215.46 101.5,-205.46 94.5,-205.46"/>
</g>
<!-- Node2 -->
<g id="node2" class="node">
<title>Node2</title>
<g id="a_node2"><a xlink:href="../../d0/d55/class_threaded_logger.html" target="_top" xlink:title=" ">
<polygon fill="white" stroke="#bfbfbf" points="50.5,-353.5 50.5,-410.5 145.5,-410.5 145.5,-353.5 50.5,-353.5"/>
<text text-anchor="middle" x="98" y="-398.5" font-family="Helvetica,sans-Serif" font-size="10.00">ThreadedLogger</text>
<polyline fill="none" stroke="#bfbfbf" points="50.5,-391.5 145.5,-391.5 "/>
<text text-anchor="middle" x="98" y="-379.5" font-family="Helvetica,sans-Serif" font-size="10.00"> </text>
<polyline fill="none" stroke="#bfbfbf" points="50.5,-372.5 145.5,-372.5 "/>
<text text-anchor="middle" x="98" y="-360.5" font-family="Helvetica,sans-Serif" font-size="10.00"> </text>
</a>
</g>
</g>
<!-- Node2&#45;&gt;Node1 -->
<g id="edge1" class="edge">
<title>Node2&#45;&gt;Node1</title>
<path fill="none" stroke="midnightblue" d="M98,-343.35C98,-334.8 98,-325.58 98,-316.61"/>
<polygon fill="none" stroke="midnightblue" points="94.5,-343.4 98,-353.4 101.5,-343.4 94.5,-343.4"/>
</g>
<!-- Node3 -->
<g id="node3" class="node">
<title>Node3</title>
<g id="a_node3"><a xlink:title=" ">
<polygon fill="white" stroke="#bfbfbf" points="0,-497 0,-554 86,-554 86,-497 0,-497"/>
<text text-anchor="middle" x="43" y="-542" font-family="Helvetica,sans-Serif" font-size="10.00">ThreadedBase</text>
<polyline fill="none" stroke="#bfbfbf" points="0,-535 86,-535 "/>
<text text-anchor="middle" x="43" y="-523" font-family="Helvetica,sans-Serif" font-size="10.00"> </text>
<polyline fill="none" stroke="#bfbfbf" points="0,-516 86,-516 "/>
<text text-anchor="middle" x="43" y="-504" font-family="Helvetica,sans-Serif" font-size="10.00"> </text>
</a>
</g>
</g>
<!-- Node3&#45;&gt;Node2 -->
<g id="edge2" class="edge">
<title>Node3&#45;&gt;Node2</title>
<path fill="none" stroke="midnightblue" d="M57.44,-487.36C66.8,-463.28 78.78,-432.44 87.29,-410.55"/>
<polygon fill="none" stroke="midnightblue" points="54.1,-486.29 53.74,-496.88 60.62,-488.83 54.1,-486.29"/>
</g>
<!-- Node4 -->
<g id="node4" class="node">
<title>Node4</title>
<g id="a_node4"><a xlink:href="../../d4/d00/interface_logger.html" target="_top" xlink:title=" ">
<polygon fill="white" stroke="#bfbfbf" points="104,-447.5 104,-603.5 202,-603.5 202,-447.5 104,-447.5"/>
<text text-anchor="middle" x="153" y="-591.5" font-family="Helvetica,sans-Serif" font-size="10.00">Logger</text>
<polyline fill="none" stroke="#bfbfbf" points="104,-584.5 202,-584.5 "/>
<text text-anchor="middle" x="153" y="-572.5" font-family="Helvetica,sans-Serif" font-size="10.00"> </text>
<polyline fill="none" stroke="#bfbfbf" points="104,-565.5 202,-565.5 "/>
<text text-anchor="start" x="112" y="-553.5" font-family="Helvetica,sans-Serif" font-size="10.00">+ alert()</text>
<text text-anchor="start" x="112" y="-542.5" font-family="Helvetica,sans-Serif" font-size="10.00">+ critical()</text>
<text text-anchor="start" x="112" y="-531.5" font-family="Helvetica,sans-Serif" font-size="10.00">+ debug()</text>
<text text-anchor="start" x="112" y="-520.5" font-family="Helvetica,sans-Serif" font-size="10.00">+ emergency()</text>
<text text-anchor="start" x="112" y="-509.5" font-family="Helvetica,sans-Serif" font-size="10.00">+ error()</text>
<text text-anchor="start" x="112" y="-498.5" font-family="Helvetica,sans-Serif" font-size="10.00">+ info()</text>
<text text-anchor="start" x="112" y="-487.5" font-family="Helvetica,sans-Serif" font-size="10.00">+ log()</text>
<text text-anchor="start" x="112" y="-476.5" font-family="Helvetica,sans-Serif" font-size="10.00">+ logException()</text>
<text text-anchor="start" x="112" y="-465.5" font-family="Helvetica,sans-Serif" font-size="10.00">+ notice()</text>
<text text-anchor="start" x="112" y="-454.5" font-family="Helvetica,sans-Serif" font-size="10.00">+ warning()</text>
</a>
</g>
</g>
<!-- Node4&#45;&gt;Node2 -->
<g id="edge3" class="edge">
<title>Node4&#45;&gt;Node2</title>
<path fill="none" stroke="midnightblue" d="M119.28,-437.74C115.51,-428.05 111.91,-418.79 108.78,-410.72"/>
<polygon fill="none" stroke="midnightblue" points="116.04,-439.07 122.93,-447.13 122.56,-436.54 116.04,-439.07"/>
</g>
</g>
</svg>
