<?xml version="1.0" encoding="UTF-8" standalone="no"?>
<!DOCTYPE svg PUBLIC "-//W3C//DTD SVG 1.1//EN"
 "http://www.w3.org/Graphics/SVG/1.1/DTD/svg11.dtd">
<!-- Generated by graphviz version 2.43.0 (0)
 -->
<!-- Title: pocketmine\inventory\transaction\TransactionBuilderInventory Pages: 1 -->
<svg width="330pt" height="756pt"
 viewBox="0.00 0.00 329.50 756.00" xmlns="http://www.w3.org/2000/svg" xmlns:xlink="http://www.w3.org/1999/xlink">
<g id="graph0" class="graph" transform="scale(1 1) rotate(0) translate(4 752)">
<title>pocketmine\inventory\transaction\TransactionBuilderInventory</title>
<polygon fill="white" stroke="transparent" points="-4,4 -4,-752 325.5,-752 325.5,4 -4,4"/>
<!-- Node1 -->
<g id="node1" class="node">
<title>Node1</title>
<g id="a_node1"><a xlink:title=" ">
<polygon fill="#bfbfbf" stroke="black" points="78,-0.5 78,-145.5 245,-145.5 245,-0.5 78,-0.5"/>
<text text-anchor="start" x="86" y="-133.5" font-family="Helvetica,sans-Serif" font-size="10.00">pocketmine\inventory</text>
<text text-anchor="start" x="86" y="-122.5" font-family="Helvetica,sans-Serif" font-size="10.00">\transaction\TransactionBuilder</text>
<text text-anchor="middle" x="161.5" y="-111.5" font-family="Helvetica,sans-Serif" font-size="10.00">Inventory</text>
<polyline fill="none" stroke="black" points="78,-104.5 245,-104.5 "/>
<text text-anchor="middle" x="161.5" y="-92.5" font-family="Helvetica,sans-Serif" font-size="10.00"> </text>
<polyline fill="none" stroke="black" points="78,-85.5 245,-85.5 "/>
<text text-anchor="start" x="86" y="-73.5" font-family="Helvetica,sans-Serif" font-size="10.00">+ __construct()</text>
<text text-anchor="start" x="86" y="-62.5" font-family="Helvetica,sans-Serif" font-size="10.00">+ generateActions()</text>
<text text-anchor="start" x="86" y="-51.5" font-family="Helvetica,sans-Serif" font-size="10.00">+ getContents()</text>
<text text-anchor="start" x="86" y="-40.5" font-family="Helvetica,sans-Serif" font-size="10.00">+ getItem()</text>
<text text-anchor="start" x="86" y="-29.5" font-family="Helvetica,sans-Serif" font-size="10.00">+ getSize()</text>
<text text-anchor="start" x="86" y="-18.5" font-family="Helvetica,sans-Serif" font-size="10.00"># internalSetContents()</text>
<text text-anchor="start" x="86" y="-7.5" font-family="Helvetica,sans-Serif" font-size="10.00"># internalSetItem()</text>
</a>
</g>
</g>
<!-- Node2 -->
<g id="node2" class="node">
<title>Node2</title>
<g id="a_node2"><a xlink:href="../../d5/dc4/classpocketmine_1_1inventory_1_1_base_inventory.html" target="_top" xlink:title=" ">
<polygon fill="white" stroke="black" points="84,-183.5 84,-416.5 239,-416.5 239,-183.5 84,-183.5"/>
<text text-anchor="start" x="92" y="-404.5" font-family="Helvetica,sans-Serif" font-size="10.00">pocketmine\inventory</text>
<text text-anchor="middle" x="161.5" y="-393.5" font-family="Helvetica,sans-Serif" font-size="10.00">\BaseInventory</text>
<polyline fill="none" stroke="black" points="84,-386.5 239,-386.5 "/>
<text text-anchor="start" x="92" y="-374.5" font-family="Helvetica,sans-Serif" font-size="10.00"># $maxStackSize</text>
<text text-anchor="start" x="92" y="-363.5" font-family="Helvetica,sans-Serif" font-size="10.00"># $viewers</text>
<polyline fill="none" stroke="black" points="84,-356.5 239,-356.5 "/>
<text text-anchor="start" x="92" y="-344.5" font-family="Helvetica,sans-Serif" font-size="10.00">+ __construct()</text>
<text text-anchor="start" x="92" y="-333.5" font-family="Helvetica,sans-Serif" font-size="10.00">+ addItem()</text>
<text text-anchor="start" x="92" y="-322.5" font-family="Helvetica,sans-Serif" font-size="10.00">+ all()</text>
<text text-anchor="start" x="92" y="-311.5" font-family="Helvetica,sans-Serif" font-size="10.00">+ canAddItem()</text>
<text text-anchor="start" x="92" y="-300.5" font-family="Helvetica,sans-Serif" font-size="10.00">+ clear()</text>
<text text-anchor="start" x="92" y="-289.5" font-family="Helvetica,sans-Serif" font-size="10.00">+ clearAll()</text>
<text text-anchor="start" x="92" y="-278.5" font-family="Helvetica,sans-Serif" font-size="10.00">+ contains()</text>
<text text-anchor="start" x="92" y="-267.5" font-family="Helvetica,sans-Serif" font-size="10.00">+ first()</text>
<text text-anchor="start" x="92" y="-256.5" font-family="Helvetica,sans-Serif" font-size="10.00">+ firstEmpty()</text>
<text text-anchor="start" x="92" y="-245.5" font-family="Helvetica,sans-Serif" font-size="10.00">+ getAddableItemQuantity()</text>
<text text-anchor="start" x="92" y="-234.5" font-family="Helvetica,sans-Serif" font-size="10.00">and 14 more...</text>
<text text-anchor="start" x="92" y="-223.5" font-family="Helvetica,sans-Serif" font-size="10.00"># internalSetContents()</text>
<text text-anchor="start" x="92" y="-212.5" font-family="Helvetica,sans-Serif" font-size="10.00"># internalSetItem()</text>
<text text-anchor="start" x="92" y="-201.5" font-family="Helvetica,sans-Serif" font-size="10.00"># onContentChange()</text>
<text text-anchor="start" x="92" y="-190.5" font-family="Helvetica,sans-Serif" font-size="10.00"># onSlotChange()</text>
</a>
</g>
</g>
<!-- Node2&#45;&gt;Node1 -->
<g id="edge1" class="edge">
<title>Node2&#45;&gt;Node1</title>
<path fill="none" stroke="midnightblue" d="M161.5,-173.02C161.5,-163.67 161.5,-154.44 161.5,-145.6"/>
<polygon fill="none" stroke="midnightblue" points="158,-173.2 161.5,-183.2 165,-173.2 158,-173.2"/>
</g>
<!-- Node3 -->
<g id="node3" class="node">
<title>Node3</title>
<g id="a_node3"><a xlink:href="../../db/d39/interfacepocketmine_1_1inventory_1_1_inventory.html" target="_top" xlink:title=" ">
<polygon fill="white" stroke="#bfbfbf" points="0,-464.5 0,-642.5 155,-642.5 155,-464.5 0,-464.5"/>
<text text-anchor="start" x="8" y="-630.5" font-family="Helvetica,sans-Serif" font-size="10.00">pocketmine\inventory</text>
<text text-anchor="middle" x="77.5" y="-619.5" font-family="Helvetica,sans-Serif" font-size="10.00">\Inventory</text>
<polyline fill="none" stroke="#bfbfbf" points="0,-612.5 155,-612.5 "/>
<text text-anchor="middle" x="77.5" y="-600.5" font-family="Helvetica,sans-Serif" font-size="10.00"> </text>
<polyline fill="none" stroke="#bfbfbf" points="0,-593.5 155,-593.5 "/>
<text text-anchor="start" x="8" y="-581.5" font-family="Helvetica,sans-Serif" font-size="10.00">+ addItem()</text>
<text text-anchor="start" x="8" y="-570.5" font-family="Helvetica,sans-Serif" font-size="10.00">+ all()</text>
<text text-anchor="start" x="8" y="-559.5" font-family="Helvetica,sans-Serif" font-size="10.00">+ canAddItem()</text>
<text text-anchor="start" x="8" y="-548.5" font-family="Helvetica,sans-Serif" font-size="10.00">+ clear()</text>
<text text-anchor="start" x="8" y="-537.5" font-family="Helvetica,sans-Serif" font-size="10.00">+ clearAll()</text>
<text text-anchor="start" x="8" y="-526.5" font-family="Helvetica,sans-Serif" font-size="10.00">+ contains()</text>
<text text-anchor="start" x="8" y="-515.5" font-family="Helvetica,sans-Serif" font-size="10.00">+ first()</text>
<text text-anchor="start" x="8" y="-504.5" font-family="Helvetica,sans-Serif" font-size="10.00">+ firstEmpty()</text>
<text text-anchor="start" x="8" y="-493.5" font-family="Helvetica,sans-Serif" font-size="10.00">+ getAddableItemQuantity()</text>
<text text-anchor="start" x="8" y="-482.5" font-family="Helvetica,sans-Serif" font-size="10.00">+ getContents()</text>
<text text-anchor="start" x="8" y="-471.5" font-family="Helvetica,sans-Serif" font-size="10.00">and 15 more...</text>
</a>
</g>
</g>
<!-- Node3&#45;&gt;Node2 -->
<g id="edge2" class="edge">
<title>Node3&#45;&gt;Node2</title>
<path fill="none" stroke="midnightblue" d="M110.26,-454.41C114.37,-442.12 118.6,-429.45 122.79,-416.91"/>
<polygon fill="none" stroke="midnightblue" points="106.85,-453.59 107,-464.18 113.48,-455.81 106.85,-453.59"/>
</g>
<!-- Node4 -->
<g id="node4" class="node">
<title>Node4</title>
<g id="a_node4"><a xlink:title=" ">
<polygon fill="white" stroke="#bfbfbf" points="56,-690.5 56,-747.5 99,-747.5 99,-690.5 56,-690.5"/>
<text text-anchor="middle" x="77.5" y="-735.5" font-family="Helvetica,sans-Serif" font-size="10.00">const</text>
<polyline fill="none" stroke="#bfbfbf" points="56,-728.5 99,-728.5 "/>
<text text-anchor="middle" x="77.5" y="-716.5" font-family="Helvetica,sans-Serif" font-size="10.00"> </text>
<polyline fill="none" stroke="#bfbfbf" points="56,-709.5 99,-709.5 "/>
<text text-anchor="middle" x="77.5" y="-697.5" font-family="Helvetica,sans-Serif" font-size="10.00"> </text>
</a>
</g>
</g>
<!-- Node4&#45;&gt;Node3 -->
<g id="edge3" class="edge">
<title>Node4&#45;&gt;Node3</title>
<path fill="none" stroke="#404040" d="M77.5,-690.26C77.5,-680.01 77.5,-667.7 77.5,-654.74"/>
<polygon fill="none" stroke="#404040" points="77.5,-654.7 73.5,-648.7 77.5,-642.7 81.5,-648.7 77.5,-654.7"/>
<text text-anchor="middle" x="113" y="-664" font-family="Helvetica,sans-Serif" font-size="10.00"> +MAX_STACK</text>
</g>
<!-- Node5 -->
<g id="node5" class="node">
<title>Node5</title>
<g id="a_node5"><a xlink:href="../../dd/de5/classpocketmine_1_1utils_1_1_object_set.html" target="_top" xlink:title=" ">
<polygon fill="white" stroke="black" points="173.5,-497.5 173.5,-609.5 321.5,-609.5 321.5,-497.5 173.5,-497.5"/>
<text text-anchor="middle" x="247.5" y="-597.5" font-family="Helvetica,sans-Serif" font-size="10.00">pocketmine\utils\ObjectSet</text>
<polyline fill="none" stroke="black" points="173.5,-590.5 321.5,-590.5 "/>
<text text-anchor="middle" x="247.5" y="-578.5" font-family="Helvetica,sans-Serif" font-size="10.00"> </text>
<polyline fill="none" stroke="black" points="173.5,-571.5 321.5,-571.5 "/>
<text text-anchor="start" x="181.5" y="-559.5" font-family="Helvetica,sans-Serif" font-size="10.00">+ add()</text>
<text text-anchor="start" x="181.5" y="-548.5" font-family="Helvetica,sans-Serif" font-size="10.00">+ clear()</text>
<text text-anchor="start" x="181.5" y="-537.5" font-family="Helvetica,sans-Serif" font-size="10.00">+ contains()</text>
<text text-anchor="start" x="181.5" y="-526.5" font-family="Helvetica,sans-Serif" font-size="10.00">+ getIterator()</text>
<text text-anchor="start" x="181.5" y="-515.5" font-family="Helvetica,sans-Serif" font-size="10.00">+ remove()</text>
<text text-anchor="start" x="181.5" y="-504.5" font-family="Helvetica,sans-Serif" font-size="10.00">+ toArray()</text>
</a>
</g>
</g>
<!-- Node5&#45;&gt;Node2 -->
<g id="edge4" class="edge">
<title>Node5&#45;&gt;Node2</title>
<path fill="none" stroke="#404040" d="M228.63,-497.31C221.61,-476.77 213.31,-452.53 205,-428.21"/>
<polygon fill="none" stroke="#404040" points="204.93,-428.02 199.21,-423.64 201.05,-416.67 206.78,-421.05 204.93,-428.02"/>
<text text-anchor="middle" x="240.5" y="-438" font-family="Helvetica,sans-Serif" font-size="10.00"> #$listeners</text>
</g>
<!-- Node6 -->
<g id="node6" class="node">
<title>Node6</title>
<g id="a_node6"><a xlink:title=" ">
<polygon fill="white" stroke="#bfbfbf" points="196,-690.5 196,-747.5 299,-747.5 299,-690.5 196,-690.5"/>
<text text-anchor="middle" x="247.5" y="-735.5" font-family="Helvetica,sans-Serif" font-size="10.00">IteratorAggregate</text>
<polyline fill="none" stroke="#bfbfbf" points="196,-728.5 299,-728.5 "/>
<text text-anchor="middle" x="247.5" y="-716.5" font-family="Helvetica,sans-Serif" font-size="10.00"> </text>
<polyline fill="none" stroke="#bfbfbf" points="196,-709.5 299,-709.5 "/>
<text text-anchor="middle" x="247.5" y="-697.5" font-family="Helvetica,sans-Serif" font-size="10.00"> </text>
</a>
</g>
</g>
<!-- Node6&#45;&gt;Node5 -->
<g id="edge5" class="edge">
<title>Node6&#45;&gt;Node5</title>
<path fill="none" stroke="midnightblue" d="M247.5,-680.15C247.5,-659.19 247.5,-632.76 247.5,-609.55"/>
<polygon fill="none" stroke="midnightblue" points="244,-680.26 247.5,-690.26 251,-680.26 244,-680.26"/>
</g>
</g>
</svg>
