<?xml version="1.0" encoding="UTF-8" standalone="no"?>
<!DOCTYPE svg PUBLIC "-//W3C//DTD SVG 1.1//EN"
 "http://www.w3.org/Graphics/SVG/1.1/DTD/svg11.dtd">
<!-- Generated by graphviz version 2.43.0 (0)
 -->
<!-- Title: pocketmine\data\bedrock\block\DelegatingBlockStateSerializer Pages: 1 -->
<svg width="208pt" height="182pt"
 viewBox="0.00 0.00 208.00 182.00" xmlns="http://www.w3.org/2000/svg" xmlns:xlink="http://www.w3.org/1999/xlink">
<g id="graph0" class="graph" transform="scale(1 1) rotate(0) translate(4 178)">
<title>pocketmine\data\bedrock\block\DelegatingBlockStateSerializer</title>
<polygon fill="white" stroke="transparent" points="-4,4 -4,-178 204,-178 204,4 -4,4"/>
<!-- Node1 -->
<g id="node1" class="node">
<title>Node1</title>
<g id="a_node1"><a xlink:title=" ">
<polygon fill="#bfbfbf" stroke="black" points="0,-0.5 0,-68.5 200,-68.5 200,-0.5 0,-0.5"/>
<text text-anchor="start" x="8" y="-56.5" font-family="Helvetica,sans-Serif" font-size="10.00">pocketmine\data\bedrock</text>
<text text-anchor="middle" x="100" y="-45.5" font-family="Helvetica,sans-Serif" font-size="10.00">\block\DelegatingBlockStateSerializer</text>
<polyline fill="none" stroke="black" points="0,-38.5 200,-38.5 "/>
<text text-anchor="middle" x="100" y="-26.5" font-family="Helvetica,sans-Serif" font-size="10.00"> </text>
<polyline fill="none" stroke="black" points="0,-19.5 200,-19.5 "/>
<text text-anchor="start" x="8" y="-7.5" font-family="Helvetica,sans-Serif" font-size="10.00">+ getRealSerializer()</text>
</a>
</g>
</g>
<!-- Node2 -->
<g id="node2" class="node">
<title>Node2</title>
<g id="a_node2"><a xlink:href="../../db/dc6/interfacepocketmine_1_1data_1_1bedrock_1_1block_1_1_block_state_serializer.html" target="_top" xlink:title=" ">
<polygon fill="white" stroke="black" points="26.5,-105.5 26.5,-173.5 173.5,-173.5 173.5,-105.5 26.5,-105.5"/>
<text text-anchor="start" x="34.5" y="-161.5" font-family="Helvetica,sans-Serif" font-size="10.00">pocketmine\data\bedrock</text>
<text text-anchor="middle" x="100" y="-150.5" font-family="Helvetica,sans-Serif" font-size="10.00">\block\BlockStateSerializer</text>
<polyline fill="none" stroke="black" points="26.5,-143.5 173.5,-143.5 "/>
<text text-anchor="middle" x="100" y="-131.5" font-family="Helvetica,sans-Serif" font-size="10.00"> </text>
<polyline fill="none" stroke="black" points="26.5,-124.5 173.5,-124.5 "/>
<text text-anchor="start" x="34.5" y="-112.5" font-family="Helvetica,sans-Serif" font-size="10.00">+ serialize()</text>
</a>
</g>
</g>
<!-- Node2&#45;&gt;Node1 -->
<g id="edge1" class="edge">
<title>Node2&#45;&gt;Node1</title>
<path fill="none" stroke="midnightblue" d="M100,-95.14C100,-86.26 100,-77.04 100,-68.59"/>
<polygon fill="none" stroke="midnightblue" points="96.5,-95.34 100,-105.34 103.5,-95.34 96.5,-95.34"/>
</g>
</g>
</svg>
