<?xml version="1.0" encoding="UTF-8" standalone="no"?>
<!DOCTYPE svg PUBLIC "-//W3C//DTD SVG 1.1//EN"
 "http://www.w3.org/Graphics/SVG/1.1/DTD/svg11.dtd">
<!-- Generated by graphviz version 2.43.0 (0)
 -->
<!-- Title: pocketmine\network\mcpe\protocol\types\shape\PrimitiveShapeCylinderPayload Pages: 1 -->
<svg width="169pt" height="302pt"
 viewBox="0.00 0.00 169.00 302.00" xmlns="http://www.w3.org/2000/svg" xmlns:xlink="http://www.w3.org/1999/xlink">

<svg id="main" version="1.1" xmlns="http://www.w3.org/2000/svg" xmlns:xlink="http://www.w3.org/1999/xlink" xml:space="preserve">

<style type="text/css"><![CDATA[
.node, .edge {opacity: 0.7;}
.node.selected, .edge.selected {opacity: 1;}
.edge:hover path { stroke: red; }
.edge:hover polygon { stroke: red; fill: red; }
]]></style>
<script type="application/ecmascript" xlink:href="../../svg.min.js"/>
<svg id="graph" class="graph">
<g id="graph0" class="graph" transform="scale(1 1) rotate(0) translate(4 298)">
<title>pocketmine\network\mcpe\protocol\types\shape\PrimitiveShapeCylinderPayload</title>
<!-- Node1 -->
<g id="Node000001" class="node">
<title>Node1</title>
<g id="a_Node000001"><a xlink:title=" ">
<polygon fill="#999999" stroke="transparent" points="161,-172 0,-172 0,0 161,0 161,-172"/>
<text text-anchor="start" x="5.5" y="-160" font-family="Helvetica,sans-Serif" font-size="10.00">pocketmine\network</text>
<text text-anchor="start" x="5.5" y="-149" font-family="Helvetica,sans-Serif" font-size="10.00">\mcpe\protocol\types</text>
<text text-anchor="start" x="5.5" y="-138" font-family="Helvetica,sans-Serif" font-size="10.00">\shape\PrimitiveShapeCylinder</text>
<text text-anchor="start" x="61.5" y="-127" font-family="Helvetica,sans-Serif" font-size="10.00">Payload</text>
<text text-anchor="start" x="21" y="-112" font-family="Helvetica,sans-Serif" font-size="10.00">+</text>
<text text-anchor="start" x="50.5" y="-112" font-family="Helvetica,sans-Serif" font-size="10.00">ID</text>
<text text-anchor="start" x="21" y="-97" font-family="Helvetica,sans-Serif" font-size="10.00">+</text>
<text text-anchor="start" x="50.5" y="-97" font-family="Helvetica,sans-Serif" font-size="10.00">__construct()</text>
<text text-anchor="start" x="21" y="-82" font-family="Helvetica,sans-Serif" font-size="10.00">+</text>
<text text-anchor="start" x="50.5" y="-82" font-family="Helvetica,sans-Serif" font-size="10.00">getHeight()</text>
<text text-anchor="start" x="21" y="-67" font-family="Helvetica,sans-Serif" font-size="10.00">+</text>
<text text-anchor="start" x="50.5" y="-67" font-family="Helvetica,sans-Serif" font-size="10.00">getRadiusX()</text>
<text text-anchor="start" x="21" y="-52" font-family="Helvetica,sans-Serif" font-size="10.00">+</text>
<text text-anchor="start" x="50.5" y="-52" font-family="Helvetica,sans-Serif" font-size="10.00">getRadiusZ()</text>
<text text-anchor="start" x="21" y="-37" font-family="Helvetica,sans-Serif" font-size="10.00">+</text>
<text text-anchor="start" x="50.5" y="-37" font-family="Helvetica,sans-Serif" font-size="10.00">getSegments()</text>
<text text-anchor="start" x="21" y="-22" font-family="Helvetica,sans-Serif" font-size="10.00">+</text>
<text text-anchor="start" x="50.5" y="-22" font-family="Helvetica,sans-Serif" font-size="10.00">write()</text>
<text text-anchor="start" x="21" y="-7" font-family="Helvetica,sans-Serif" font-size="10.00">+</text>
<text text-anchor="start" x="50.5" y="-7" font-family="Helvetica,sans-Serif" font-size="10.00">read()</text>
<polygon fill="#666666" stroke="#666666" points="0.5,-122 0.5,-122 161.5,-122 161.5,-122 0.5,-122"/>
<polygon fill="#666666" stroke="#666666" points="0.5,-107 0.5,-107 48.5,-107 48.5,-107 0.5,-107"/>
<polygon fill="#666666" stroke="#666666" points="48.5,-107 48.5,-107 161.5,-107 161.5,-107 48.5,-107"/>
<polygon fill="none" stroke="#666666" points="0,0 0,-172 161,-172 161,0 0,0"/>
</a>
</g>
</g>
<!-- Node2 -->
<g id="Node000002" class="node">
<title>Node2</title>
<g id="a_Node000002"><a xlink:href="../../d3/d36/classpocketmine_1_1network_1_1mcpe_1_1protocol_1_1types_1_1shape_1_1_primitive_shape_payload.html" target="_top" xlink:title=" ">
<polygon fill="white" stroke="transparent" points="159.5,-294 1.5,-294 1.5,-208 159.5,-208 159.5,-294"/>
<text text-anchor="start" x="6.5" y="-282" font-family="Helvetica,sans-Serif" font-size="10.00">pocketmine\network</text>
<text text-anchor="start" x="6.5" y="-271" font-family="Helvetica,sans-Serif" font-size="10.00">\mcpe\protocol\types</text>
<text text-anchor="start" x="6.5" y="-260" font-family="Helvetica,sans-Serif" font-size="10.00">\shape\PrimitiveShapePayload</text>
<text text-anchor="start" x="78.5" y="-245" font-family="Helvetica,sans-Serif" font-size="10.00"> </text>
<text text-anchor="start" x="26" y="-230" font-family="Helvetica,sans-Serif" font-size="10.00">+</text>
<text text-anchor="start" x="59.5" y="-230" font-family="Helvetica,sans-Serif" font-size="10.00">getTypeId()</text>
<text text-anchor="start" x="26" y="-215" font-family="Helvetica,sans-Serif" font-size="10.00">+</text>
<text text-anchor="start" x="59.5" y="-215" font-family="Helvetica,sans-Serif" font-size="10.00">write()</text>
<polygon fill="#666666" stroke="#666666" points="1.5,-255 1.5,-255 159.5,-255 159.5,-255 1.5,-255"/>
<polygon fill="#666666" stroke="#666666" points="1.5,-240 1.5,-240 159.5,-240 159.5,-240 1.5,-240"/>
<polygon fill="none" stroke="#666666" points="1.5,-208 1.5,-294 159.5,-294 159.5,-208 1.5,-208"/>
</a>
</g>
</g>
<!-- Node2&#45;&gt;Node1 -->
<g id="edge1_Node000001_Node000002" class="edge">
<title>Node2&#45;&gt;Node1</title>
<g id="a_edge1_Node000001_Node000002"><a xlink:title=" ">
<path fill="none" stroke="#63b8ff" d="M80.5,-197.56C80.5,-189.42 80.5,-180.84 80.5,-172.2"/>
<polygon fill="none" stroke="#63b8ff" points="77,-197.6 80.5,-207.6 84,-197.6 77,-197.6"/>
</a>
</g>
</g>
</g>
</svg>
</svg>

<style type='text/css'>
<![CDATA[
[data-mouse-over-selected='false'] { opacity: 0.7; }
[data-mouse-over-selected='true']  { opacity: 1.0; }
]]>
</style>
<script type="application/ecmascript"><![CDATA[
document.addEventListener('DOMContentLoaded', (event) => {
  highlightEdges();
  highlightAdjacentNodes();
});
]]></script>
</svg>
