<?xml version="1.0" encoding="UTF-8" standalone="no"?>
<!DOCTYPE svg PUBLIC "-//W3C//DTD SVG 1.1//EN"
 "http://www.w3.org/Graphics/SVG/1.1/DTD/svg11.dtd">
<!-- Generated by graphviz version 2.43.0 (0)
 -->
<!-- Title: pocketmine\block\Fire Pages: 1 -->
<svg width="828pt" height="2188pt"
 viewBox="0.00 0.00 828.00 2188.00" xmlns="http://www.w3.org/2000/svg" xmlns:xlink="http://www.w3.org/1999/xlink">
<g id="graph0" class="graph" transform="scale(1 1) rotate(0) translate(4 2184)">
<title>pocketmine\block\Fire</title>
<polygon fill="white" stroke="transparent" points="-4,4 -4,-2184 824,-2184 824,4 -4,4"/>
<!-- Node1 -->
<g id="node1" class="node">
<title>Node1</title>
<g id="a_node1"><a xlink:title=" ">
<polygon fill="#bfbfbf" stroke="black" points="0,-0.5 0,-156.5 162,-156.5 162,-0.5 0,-0.5"/>
<text text-anchor="middle" x="81" y="-144.5" font-family="Helvetica,sans-Serif" font-size="10.00">pocketmine\block\Fire</text>
<polyline fill="none" stroke="black" points="0,-137.5 162,-137.5 "/>
<text text-anchor="start" x="8" y="-125.5" font-family="Helvetica,sans-Serif" font-size="10.00"># $age</text>
<polyline fill="none" stroke="black" points="0,-118.5 162,-118.5 "/>
<text text-anchor="start" x="8" y="-106.5" font-family="Helvetica,sans-Serif" font-size="10.00">+ getAge()</text>
<text text-anchor="start" x="8" y="-95.5" font-family="Helvetica,sans-Serif" font-size="10.00">+ getRequiredStateDataBits()</text>
<text text-anchor="start" x="8" y="-84.5" font-family="Helvetica,sans-Serif" font-size="10.00">+ onNearbyBlockChange()</text>
<text text-anchor="start" x="8" y="-73.5" font-family="Helvetica,sans-Serif" font-size="10.00">+ onRandomTick()</text>
<text text-anchor="start" x="8" y="-62.5" font-family="Helvetica,sans-Serif" font-size="10.00">+ onScheduledUpdate()</text>
<text text-anchor="start" x="8" y="-51.5" font-family="Helvetica,sans-Serif" font-size="10.00">+ setAge()</text>
<text text-anchor="start" x="8" y="-40.5" font-family="Helvetica,sans-Serif" font-size="10.00">+ ticksRandomly()</text>
<text text-anchor="start" x="8" y="-29.5" font-family="Helvetica,sans-Serif" font-size="10.00"># decodeState()</text>
<text text-anchor="start" x="8" y="-18.5" font-family="Helvetica,sans-Serif" font-size="10.00"># encodeState()</text>
<text text-anchor="start" x="8" y="-7.5" font-family="Helvetica,sans-Serif" font-size="10.00"># getFireDamage()</text>
</a>
</g>
</g>
<!-- Node2 -->
<g id="node2" class="node">
<title>Node2</title>
<g id="a_node2"><a xlink:href="../../d3/d2c/classpocketmine_1_1block_1_1_base_fire.html" target="_top" xlink:title=" ">
<polygon fill="white" stroke="#bfbfbf" points="88,-194.5 88,-295.5 258,-295.5 258,-194.5 88,-194.5"/>
<text text-anchor="middle" x="173" y="-283.5" font-family="Helvetica,sans-Serif" font-size="10.00">pocketmine\block\BaseFire</text>
<polyline fill="none" stroke="#bfbfbf" points="88,-276.5 258,-276.5 "/>
<text text-anchor="middle" x="173" y="-264.5" font-family="Helvetica,sans-Serif" font-size="10.00"> </text>
<polyline fill="none" stroke="#bfbfbf" points="88,-257.5 258,-257.5 "/>
<text text-anchor="start" x="96" y="-245.5" font-family="Helvetica,sans-Serif" font-size="10.00">+ canBeReplaced()</text>
<text text-anchor="start" x="96" y="-234.5" font-family="Helvetica,sans-Serif" font-size="10.00">+ getDropsForCompatibleTool()</text>
<text text-anchor="start" x="96" y="-223.5" font-family="Helvetica,sans-Serif" font-size="10.00">+ hasEntityCollision()</text>
<text text-anchor="start" x="96" y="-212.5" font-family="Helvetica,sans-Serif" font-size="10.00">+ onEntityInside()</text>
<text text-anchor="start" x="96" y="-201.5" font-family="Helvetica,sans-Serif" font-size="10.00"># getFireDamage()</text>
</a>
</g>
</g>
<!-- Node2&#45;&gt;Node1 -->
<g id="edge1" class="edge">
<title>Node2&#45;&gt;Node1</title>
<path fill="none" stroke="midnightblue" d="M140.25,-185.44C135.05,-176.15 129.61,-166.41 124.21,-156.77"/>
<polygon fill="none" stroke="midnightblue" points="137.21,-187.18 145.15,-194.2 143.32,-183.76 137.21,-187.18"/>
</g>
<!-- Node3 -->
<g id="node3" class="node">
<title>Node3</title>
<g id="a_node3"><a xlink:href="../../d3/d1e/classpocketmine_1_1block_1_1_flowable.html" target="_top" xlink:title=" ">
<polygon fill="white" stroke="#bfbfbf" points="138.5,-333.5 138.5,-423.5 299.5,-423.5 299.5,-333.5 138.5,-333.5"/>
<text text-anchor="middle" x="219" y="-411.5" font-family="Helvetica,sans-Serif" font-size="10.00">pocketmine\block\Flowable</text>
<polyline fill="none" stroke="#bfbfbf" points="138.5,-404.5 299.5,-404.5 "/>
<text text-anchor="middle" x="219" y="-392.5" font-family="Helvetica,sans-Serif" font-size="10.00"> </text>
<polyline fill="none" stroke="#bfbfbf" points="138.5,-385.5 299.5,-385.5 "/>
<text text-anchor="start" x="146.5" y="-373.5" font-family="Helvetica,sans-Serif" font-size="10.00">+ canBeFlowedInto()</text>
<text text-anchor="start" x="146.5" y="-362.5" font-family="Helvetica,sans-Serif" font-size="10.00">+ getSupportType()</text>
<text text-anchor="start" x="146.5" y="-351.5" font-family="Helvetica,sans-Serif" font-size="10.00">+ isSolid()</text>
<text text-anchor="start" x="146.5" y="-340.5" font-family="Helvetica,sans-Serif" font-size="10.00"># recalculateCollisionBoxes()</text>
</a>
</g>
</g>
<!-- Node3&#45;&gt;Node2 -->
<g id="edge2" class="edge">
<title>Node3&#45;&gt;Node2</title>
<path fill="none" stroke="midnightblue" d="M200.22,-323.81C196.97,-314.52 193.6,-304.89 190.39,-295.7"/>
<polygon fill="none" stroke="midnightblue" points="196.95,-325.06 203.55,-333.35 203.56,-322.75 196.95,-325.06"/>
</g>
<!-- Node4 -->
<g id="node4" class="node">
<title>Node4</title>
<g id="a_node4"><a xlink:href="../../d5/d1b/classpocketmine_1_1block_1_1_transparent.html" target="_top" xlink:title=" ">
<polygon fill="white" stroke="#bfbfbf" points="216.5,-461.5 216.5,-518.5 379.5,-518.5 379.5,-461.5 216.5,-461.5"/>
<text text-anchor="middle" x="298" y="-506.5" font-family="Helvetica,sans-Serif" font-size="10.00">pocketmine\block\Transparent</text>
<polyline fill="none" stroke="#bfbfbf" points="216.5,-499.5 379.5,-499.5 "/>
<text text-anchor="middle" x="298" y="-487.5" font-family="Helvetica,sans-Serif" font-size="10.00"> </text>
<polyline fill="none" stroke="#bfbfbf" points="216.5,-480.5 379.5,-480.5 "/>
<text text-anchor="start" x="224.5" y="-468.5" font-family="Helvetica,sans-Serif" font-size="10.00">+ isTransparent()</text>
</a>
</g>
</g>
<!-- Node4&#45;&gt;Node3 -->
<g id="edge3" class="edge">
<title>Node4&#45;&gt;Node3</title>
<path fill="none" stroke="midnightblue" d="M272.06,-453.04C265.3,-443.68 257.94,-433.48 250.92,-423.74"/>
<polygon fill="none" stroke="midnightblue" points="269.38,-455.31 278.06,-461.37 275.05,-451.21 269.38,-455.31"/>
</g>
<!-- Node5 -->
<g id="node5" class="node">
<title>Node5</title>
<g id="a_node5"><a xlink:href="../../d7/d27/classpocketmine_1_1block_1_1_block.html" target="_top" xlink:title=" ">
<polygon fill="white" stroke="#bfbfbf" points="222.5,-566.5 222.5,-810.5 383.5,-810.5 383.5,-566.5 222.5,-566.5"/>
<text text-anchor="middle" x="303" y="-798.5" font-family="Helvetica,sans-Serif" font-size="10.00">pocketmine\block\Block</text>
<polyline fill="none" stroke="#bfbfbf" points="222.5,-791.5 383.5,-791.5 "/>
<text text-anchor="start" x="230.5" y="-779.5" font-family="Helvetica,sans-Serif" font-size="10.00"># $collisionBoxes</text>
<text text-anchor="start" x="230.5" y="-768.5" font-family="Helvetica,sans-Serif" font-size="10.00"># $fallbackName</text>
<polyline fill="none" stroke="#bfbfbf" points="222.5,-761.5 383.5,-761.5 "/>
<text text-anchor="start" x="230.5" y="-749.5" font-family="Helvetica,sans-Serif" font-size="10.00">+ __construct()</text>
<text text-anchor="start" x="230.5" y="-738.5" font-family="Helvetica,sans-Serif" font-size="10.00">+ __clone()</text>
<text text-anchor="start" x="230.5" y="-727.5" font-family="Helvetica,sans-Serif" font-size="10.00">+ __toString()</text>
<text text-anchor="start" x="230.5" y="-716.5" font-family="Helvetica,sans-Serif" font-size="10.00">+ addVelocityToEntity()</text>
<text text-anchor="start" x="230.5" y="-705.5" font-family="Helvetica,sans-Serif" font-size="10.00">+ asItem()</text>
<text text-anchor="start" x="230.5" y="-694.5" font-family="Helvetica,sans-Serif" font-size="10.00">+ blocksDirectSkyLight()</text>
<text text-anchor="start" x="230.5" y="-683.5" font-family="Helvetica,sans-Serif" font-size="10.00">+ burnsForever()</text>
<text text-anchor="start" x="230.5" y="-672.5" font-family="Helvetica,sans-Serif" font-size="10.00">+ calculateIntercept()</text>
<text text-anchor="start" x="230.5" y="-661.5" font-family="Helvetica,sans-Serif" font-size="10.00">+ canBeFlowedInto()</text>
<text text-anchor="start" x="230.5" y="-650.5" font-family="Helvetica,sans-Serif" font-size="10.00">+ canBePlaced()</text>
<text text-anchor="start" x="230.5" y="-639.5" font-family="Helvetica,sans-Serif" font-size="10.00">and 61 more...</text>
<text text-anchor="start" x="230.5" y="-628.5" font-family="Helvetica,sans-Serif" font-size="10.00"># decodeState()</text>
<text text-anchor="start" x="230.5" y="-617.5" font-family="Helvetica,sans-Serif" font-size="10.00"># decodeType()</text>
<text text-anchor="start" x="230.5" y="-606.5" font-family="Helvetica,sans-Serif" font-size="10.00"># encodeState()</text>
<text text-anchor="start" x="230.5" y="-595.5" font-family="Helvetica,sans-Serif" font-size="10.00"># encodeType()</text>
<text text-anchor="start" x="230.5" y="-584.5" font-family="Helvetica,sans-Serif" font-size="10.00"># getXpDropAmount()</text>
<text text-anchor="start" x="230.5" y="-573.5" font-family="Helvetica,sans-Serif" font-size="10.00"># recalculateCollisionBoxes()</text>
</a>
</g>
</g>
<!-- Node5&#45;&gt;Node4 -->
<g id="edge4" class="edge">
<title>Node5&#45;&gt;Node4</title>
<path fill="none" stroke="midnightblue" d="M299.66,-556.09C299.3,-542.14 298.97,-529.2 298.7,-518.59"/>
<polygon fill="none" stroke="midnightblue" points="296.17,-556.5 299.92,-566.41 303.16,-556.32 296.17,-556.5"/>
</g>
<!-- Node6 -->
<g id="node6" class="node">
<title>Node6</title>
<g id="a_node6"><a xlink:title=" ">
<polygon fill="white" stroke="#bfbfbf" points="77.5,-1720.5 77.5,-1777.5 120.5,-1777.5 120.5,-1720.5 77.5,-1720.5"/>
<text text-anchor="middle" x="99" y="-1765.5" font-family="Helvetica,sans-Serif" font-size="10.00">const</text>
<polyline fill="none" stroke="#bfbfbf" points="77.5,-1758.5 120.5,-1758.5 "/>
<text text-anchor="middle" x="99" y="-1746.5" font-family="Helvetica,sans-Serif" font-size="10.00"> </text>
<polyline fill="none" stroke="#bfbfbf" points="77.5,-1739.5 120.5,-1739.5 "/>
<text text-anchor="middle" x="99" y="-1727.5" font-family="Helvetica,sans-Serif" font-size="10.00"> </text>
</a>
</g>
</g>
<!-- Node6&#45;&gt;Node1 -->
<g id="edge16" class="edge">
<title>Node6&#45;&gt;Node1</title>
<path fill="none" stroke="#404040" d="M89.69,-1720.33C84.09,-1702.68 77.23,-1679.21 73,-1658 46.37,-1524.6 42,-1489.53 42,-1353.5 42,-1353.5 42,-1353.5 42,-244 42,-219.16 46.26,-192.75 51.97,-168.54"/>
<polygon fill="none" stroke="#404040" points="51.98,-168.5 49.55,-161.71 54.88,-156.85 57.31,-163.64 51.98,-168.5"/>
<text text-anchor="middle" x="72" y="-540" font-family="Helvetica,sans-Serif" font-size="10.00"> +MAX_AGE</text>
</g>
<!-- Node6&#45;&gt;Node5 -->
<g id="edge5" class="edge">
<title>Node6&#45;&gt;Node5</title>
<path fill="none" stroke="#404040" d="M95.71,-1720.41C82.1,-1603.26 32.91,-1146.74 76,-1011 103.33,-924.92 162.95,-842.02 214.23,-781.97"/>
<polygon fill="none" stroke="#404040" points="214.54,-781.61 215.44,-774.45 222.39,-772.53 221.49,-779.68 214.54,-781.61"/>
<text text-anchor="start" x="76" y="-1103.5" font-family="Helvetica,sans-Serif" font-size="10.00"> +INTERNAL_STATE_DATA</text>
<text text-anchor="middle" x="154.5" y="-1092.5" font-family="Helvetica,sans-Serif" font-size="10.00">_BITS</text>
<text text-anchor="middle" x="154.5" y="-1081.5" font-family="Helvetica,sans-Serif" font-size="10.00">+INTERNAL_STATE_DATA_MASK</text>
</g>
<!-- Node8 -->
<g id="node8" class="node">
<title>Node8</title>
<g id="a_node8"><a xlink:href="../../d3/d10/classpocketmine_1_1block_1_1_block_break_info.html" target="_top" xlink:title=" ">
<polygon fill="white" stroke="#bfbfbf" points="242,-1011.5 242,-1178.5 422,-1178.5 422,-1011.5 242,-1011.5"/>
<text text-anchor="middle" x="332" y="-1166.5" font-family="Helvetica,sans-Serif" font-size="10.00">pocketmine\block\BlockBreakInfo</text>
<polyline fill="none" stroke="#bfbfbf" points="242,-1159.5 422,-1159.5 "/>
<text text-anchor="middle" x="332" y="-1147.5" font-family="Helvetica,sans-Serif" font-size="10.00"> </text>
<polyline fill="none" stroke="#bfbfbf" points="242,-1140.5 422,-1140.5 "/>
<text text-anchor="start" x="250" y="-1128.5" font-family="Helvetica,sans-Serif" font-size="10.00">+ __construct()</text>
<text text-anchor="start" x="250" y="-1117.5" font-family="Helvetica,sans-Serif" font-size="10.00">+ breaksInstantly()</text>
<text text-anchor="start" x="250" y="-1106.5" font-family="Helvetica,sans-Serif" font-size="10.00">+ getBlastResistance()</text>
<text text-anchor="start" x="250" y="-1095.5" font-family="Helvetica,sans-Serif" font-size="10.00">+ getBreakTime()</text>
<text text-anchor="start" x="250" y="-1084.5" font-family="Helvetica,sans-Serif" font-size="10.00">+ getHardness()</text>
<text text-anchor="start" x="250" y="-1073.5" font-family="Helvetica,sans-Serif" font-size="10.00">+ getToolHarvestLevel()</text>
<text text-anchor="start" x="250" y="-1062.5" font-family="Helvetica,sans-Serif" font-size="10.00">+ getToolType()</text>
<text text-anchor="start" x="250" y="-1051.5" font-family="Helvetica,sans-Serif" font-size="10.00">+ isBreakable()</text>
<text text-anchor="start" x="250" y="-1040.5" font-family="Helvetica,sans-Serif" font-size="10.00">+ isToolCompatible()</text>
<text text-anchor="start" x="250" y="-1029.5" font-family="Helvetica,sans-Serif" font-size="10.00">+ indestructible()</text>
<text text-anchor="start" x="250" y="-1018.5" font-family="Helvetica,sans-Serif" font-size="10.00">+ instant()</text>
</a>
</g>
</g>
<!-- Node6&#45;&gt;Node8 -->
<g id="edge8" class="edge">
<title>Node6&#45;&gt;Node8</title>
<path fill="none" stroke="#404040" d="M97.55,-1720.42C96.08,-1677.85 96.21,-1593.97 115,-1526 149.05,-1402.79 219.82,-1273.39 271.31,-1189.13"/>
<polygon fill="none" stroke="#404040" points="271.36,-1189.05 271.09,-1181.85 277.65,-1178.83 277.91,-1186.04 271.36,-1189.05"/>
<text text-anchor="middle" x="202.5" y="-1595" font-family="Helvetica,sans-Serif" font-size="10.00"> +COMPATIBLE_TOOL_MULTIPLIER</text>
<text text-anchor="middle" x="202.5" y="-1584" font-family="Helvetica,sans-Serif" font-size="10.00">+INCOMPATIBLE_TOOL_MULTIPLIER</text>
</g>
<!-- Node11 -->
<g id="node11" class="node">
<title>Node11</title>
<g id="a_node11"><a xlink:href="../../d4/d2b/classpocketmine_1_1world_1_1_world.html" target="_top" xlink:title=" ">
<polygon fill="white" stroke="#bfbfbf" points="372,-1197.5 372,-1507.5 544,-1507.5 544,-1197.5 372,-1197.5"/>
<text text-anchor="middle" x="458" y="-1495.5" font-family="Helvetica,sans-Serif" font-size="10.00">pocketmine\world\World</text>
<polyline fill="none" stroke="#bfbfbf" points="372,-1488.5 544,-1488.5 "/>
<text text-anchor="start" x="380" y="-1476.5" font-family="Helvetica,sans-Serif" font-size="10.00">+ $stopTime</text>
<text text-anchor="start" x="380" y="-1465.5" font-family="Helvetica,sans-Serif" font-size="10.00">+ $tickRateTime</text>
<text text-anchor="start" x="380" y="-1454.5" font-family="Helvetica,sans-Serif" font-size="10.00">+ $updateEntities</text>
<text text-anchor="start" x="380" y="-1443.5" font-family="Helvetica,sans-Serif" font-size="10.00">+ TIME_SUNRISE</text>
<text text-anchor="start" x="380" y="-1432.5" font-family="Helvetica,sans-Serif" font-size="10.00">+ TIME_SUNSET</text>
<text text-anchor="start" x="380" y="-1421.5" font-family="Helvetica,sans-Serif" font-size="10.00">+ Y_MAX</text>
<text text-anchor="start" x="380" y="-1410.5" font-family="Helvetica,sans-Serif" font-size="10.00">+ Y_MIN</text>
<polyline fill="none" stroke="#bfbfbf" points="372,-1403.5 544,-1403.5 "/>
<text text-anchor="start" x="380" y="-1391.5" font-family="Helvetica,sans-Serif" font-size="10.00">+ __construct()</text>
<text text-anchor="start" x="380" y="-1380.5" font-family="Helvetica,sans-Serif" font-size="10.00">+ __debugInfo()</text>
<text text-anchor="start" x="380" y="-1369.5" font-family="Helvetica,sans-Serif" font-size="10.00">+ addEntity()</text>
<text text-anchor="start" x="380" y="-1358.5" font-family="Helvetica,sans-Serif" font-size="10.00">+ addOnUnloadCallback()</text>
<text text-anchor="start" x="380" y="-1347.5" font-family="Helvetica,sans-Serif" font-size="10.00">+ addParticle()</text>
<text text-anchor="start" x="380" y="-1336.5" font-family="Helvetica,sans-Serif" font-size="10.00">+ addRandomTickedBlock()</text>
<text text-anchor="start" x="380" y="-1325.5" font-family="Helvetica,sans-Serif" font-size="10.00">+ addSound()</text>
<text text-anchor="start" x="380" y="-1314.5" font-family="Helvetica,sans-Serif" font-size="10.00">+ addTile()</text>
<text text-anchor="start" x="380" y="-1303.5" font-family="Helvetica,sans-Serif" font-size="10.00">+ broadcastPacketToViewers()</text>
<text text-anchor="start" x="380" y="-1292.5" font-family="Helvetica,sans-Serif" font-size="10.00">+ cancelUnloadChunkRequest()</text>
<text text-anchor="start" x="380" y="-1281.5" font-family="Helvetica,sans-Serif" font-size="10.00">and 113 more...</text>
<text text-anchor="start" x="380" y="-1270.5" font-family="Helvetica,sans-Serif" font-size="10.00">+ blockHash()</text>
<text text-anchor="start" x="380" y="-1259.5" font-family="Helvetica,sans-Serif" font-size="10.00">+ chunkBlockHash()</text>
<text text-anchor="start" x="380" y="-1248.5" font-family="Helvetica,sans-Serif" font-size="10.00">+ chunkHash()</text>
<text text-anchor="start" x="380" y="-1237.5" font-family="Helvetica,sans-Serif" font-size="10.00">+ getBlockXYZ()</text>
<text text-anchor="start" x="380" y="-1226.5" font-family="Helvetica,sans-Serif" font-size="10.00">+ getDifficultyFromString()</text>
<text text-anchor="start" x="380" y="-1215.5" font-family="Helvetica,sans-Serif" font-size="10.00">+ getXZ()</text>
<text text-anchor="start" x="380" y="-1204.5" font-family="Helvetica,sans-Serif" font-size="10.00"># actuallyDoTick()</text>
</a>
</g>
</g>
<!-- Node6&#45;&gt;Node11 -->
<g id="edge13" class="edge">
<title>Node6&#45;&gt;Node11</title>
<path fill="none" stroke="#404040" d="M120.53,-1744.61C161.27,-1736.99 249.51,-1714.56 294,-1658 330.96,-1611 294.82,-1580.24 320,-1526 331.53,-1501.15 347.38,-1476.74 364.22,-1454.46"/>
<polygon fill="none" stroke="#404040" points="364.42,-1454.2 364.92,-1447.01 371.76,-1444.71 371.25,-1451.9 364.42,-1454.2"/>
<text text-anchor="start" x="320" y="-1650" font-family="Helvetica,sans-Serif" font-size="10.00"> +DEFAULT_TICKED_BLOCKS</text>
<text text-anchor="middle" x="390" y="-1639" font-family="Helvetica,sans-Serif" font-size="10.00">_PER_SUBCHUNK_PER_TICK</text>
<text text-anchor="middle" x="390" y="-1628" font-family="Helvetica,sans-Serif" font-size="10.00">+DIFFICULTY_EASY</text>
<text text-anchor="middle" x="390" y="-1617" font-family="Helvetica,sans-Serif" font-size="10.00">+DIFFICULTY_HARD</text>
<text text-anchor="middle" x="390" y="-1606" font-family="Helvetica,sans-Serif" font-size="10.00">+DIFFICULTY_NORMAL</text>
<text text-anchor="middle" x="390" y="-1595" font-family="Helvetica,sans-Serif" font-size="10.00">+DIFFICULTY_PEACEFUL</text>
<text text-anchor="middle" x="390" y="-1584" font-family="Helvetica,sans-Serif" font-size="10.00">+TIME_DAY</text>
<text text-anchor="middle" x="390" y="-1573" font-family="Helvetica,sans-Serif" font-size="10.00">+TIME_FULL</text>
<text text-anchor="middle" x="390" y="-1562" font-family="Helvetica,sans-Serif" font-size="10.00">+TIME_MIDNIGHT</text>
<text text-anchor="middle" x="390" y="-1551" font-family="Helvetica,sans-Serif" font-size="10.00">+TIME_NIGHT</text>
<text text-anchor="middle" x="390" y="-1540" font-family="Helvetica,sans-Serif" font-size="10.00">+TIME_NOON</text>
<text text-anchor="middle" x="390" y="-1529" font-family="Helvetica,sans-Serif" font-size="10.00">...</text>
</g>
<!-- Node7 -->
<g id="node7" class="node">
<title>Node7</title>
<g id="a_node7"><a xlink:href="../../dd/d18/classpocketmine_1_1block_1_1_block_identifier.html" target="_top" xlink:title=" ">
<polygon fill="white" stroke="#bfbfbf" points="549,-886 549,-965 725,-965 725,-886 549,-886"/>
<text text-anchor="middle" x="637" y="-953" font-family="Helvetica,sans-Serif" font-size="10.00">pocketmine\block\BlockIdentifier</text>
<polyline fill="none" stroke="#bfbfbf" points="549,-946 725,-946 "/>
<text text-anchor="middle" x="637" y="-934" font-family="Helvetica,sans-Serif" font-size="10.00"> </text>
<polyline fill="none" stroke="#bfbfbf" points="549,-927 725,-927 "/>
<text text-anchor="start" x="557" y="-915" font-family="Helvetica,sans-Serif" font-size="10.00">+ __construct()</text>
<text text-anchor="start" x="557" y="-904" font-family="Helvetica,sans-Serif" font-size="10.00">+ getBlockTypeId()</text>
<text text-anchor="start" x="557" y="-893" font-family="Helvetica,sans-Serif" font-size="10.00">+ getTileClass()</text>
</a>
</g>
</g>
<!-- Node7&#45;&gt;Node5 -->
<g id="edge6" class="edge">
<title>Node7&#45;&gt;Node5</title>
<path fill="none" stroke="#404040" d="M582.22,-885.96C531.12,-850 453.92,-795.69 393.64,-753.28"/>
<polygon fill="none" stroke="#404040" points="393.55,-753.21 386.34,-753.03 383.74,-746.31 390.95,-746.49 393.55,-753.21"/>
<text text-anchor="middle" x="533" y="-832" font-family="Helvetica,sans-Serif" font-size="10.00"> #$idInfo</text>
</g>
<!-- Node8&#45;&gt;Node5 -->
<g id="edge7" class="edge">
<title>Node8&#45;&gt;Node5</title>
<path fill="none" stroke="#404040" d="M314.5,-1011.5C313.54,-1005.26 312.68,-999.04 312,-993 305.72,-937.48 303.1,-875.91 302.18,-822.81"/>
<polygon fill="none" stroke="#404040" points="302.18,-822.56 298.09,-816.62 302,-810.56 306.09,-816.5 302.18,-822.56"/>
<text text-anchor="middle" x="344" y="-923" font-family="Helvetica,sans-Serif" font-size="10.00"> #$breakInfo</text>
</g>
<!-- Node9 -->
<g id="node9" class="node">
<title>Node9</title>
<g id="a_node9"><a xlink:href="../../d5/dd2/classpocketmine_1_1world_1_1_position.html" target="_top" xlink:title=" ">
<polygon fill="white" stroke="#bfbfbf" points="385,-858.5 385,-992.5 531,-992.5 531,-858.5 385,-858.5"/>
<text text-anchor="middle" x="458" y="-980.5" font-family="Helvetica,sans-Serif" font-size="10.00">pocketmine\world\Position</text>
<polyline fill="none" stroke="#bfbfbf" points="385,-973.5 531,-973.5 "/>
<text text-anchor="middle" x="458" y="-961.5" font-family="Helvetica,sans-Serif" font-size="10.00"> </text>
<polyline fill="none" stroke="#bfbfbf" points="385,-954.5 531,-954.5 "/>
<text text-anchor="start" x="393" y="-942.5" font-family="Helvetica,sans-Serif" font-size="10.00">+ __construct()</text>
<text text-anchor="start" x="393" y="-931.5" font-family="Helvetica,sans-Serif" font-size="10.00">+ __toString()</text>
<text text-anchor="start" x="393" y="-920.5" font-family="Helvetica,sans-Serif" font-size="10.00">+ asPosition()</text>
<text text-anchor="start" x="393" y="-909.5" font-family="Helvetica,sans-Serif" font-size="10.00">+ equals()</text>
<text text-anchor="start" x="393" y="-898.5" font-family="Helvetica,sans-Serif" font-size="10.00">+ getSide()</text>
<text text-anchor="start" x="393" y="-887.5" font-family="Helvetica,sans-Serif" font-size="10.00">+ getWorld()</text>
<text text-anchor="start" x="393" y="-876.5" font-family="Helvetica,sans-Serif" font-size="10.00">+ isValid()</text>
<text text-anchor="start" x="393" y="-865.5" font-family="Helvetica,sans-Serif" font-size="10.00">+ fromObject()</text>
</a>
</g>
</g>
<!-- Node9&#45;&gt;Node5 -->
<g id="edge9" class="edge">
<title>Node9&#45;&gt;Node5</title>
<path fill="none" stroke="#404040" d="M414.41,-858.41C406.64,-846.63 398.3,-833.99 389.81,-821.12"/>
<polygon fill="none" stroke="#404040" points="389.58,-820.77 382.94,-817.97 382.98,-810.76 389.62,-813.56 389.58,-820.77"/>
<text text-anchor="middle" x="427.5" y="-832" font-family="Helvetica,sans-Serif" font-size="10.00"> #$position</text>
</g>
<!-- Node10 -->
<g id="node10" class="node">
<title>Node10</title>
<g id="a_node10"><a xlink:href="../../d2/d90/classpocketmine_1_1math_1_1_vector3.html" target="_top" xlink:title=" ">
<polygon fill="white" stroke="#bfbfbf" points="562,-1236 562,-1469 704,-1469 704,-1236 562,-1236"/>
<text text-anchor="middle" x="633" y="-1457" font-family="Helvetica,sans-Serif" font-size="10.00">pocketmine\math\Vector3</text>
<polyline fill="none" stroke="#bfbfbf" points="562,-1450 704,-1450 "/>
<text text-anchor="start" x="570" y="-1438" font-family="Helvetica,sans-Serif" font-size="10.00">+ $x</text>
<text text-anchor="start" x="570" y="-1427" font-family="Helvetica,sans-Serif" font-size="10.00">+ $y</text>
<text text-anchor="start" x="570" y="-1416" font-family="Helvetica,sans-Serif" font-size="10.00">+ $z</text>
<polyline fill="none" stroke="#bfbfbf" points="562,-1409 704,-1409 "/>
<text text-anchor="start" x="570" y="-1397" font-family="Helvetica,sans-Serif" font-size="10.00">+ __construct()</text>
<text text-anchor="start" x="570" y="-1386" font-family="Helvetica,sans-Serif" font-size="10.00">+ __toString()</text>
<text text-anchor="start" x="570" y="-1375" font-family="Helvetica,sans-Serif" font-size="10.00">+ abs()</text>
<text text-anchor="start" x="570" y="-1364" font-family="Helvetica,sans-Serif" font-size="10.00">+ add()</text>
<text text-anchor="start" x="570" y="-1353" font-family="Helvetica,sans-Serif" font-size="10.00">+ addVector()</text>
<text text-anchor="start" x="570" y="-1342" font-family="Helvetica,sans-Serif" font-size="10.00">+ asVector3()</text>
<text text-anchor="start" x="570" y="-1331" font-family="Helvetica,sans-Serif" font-size="10.00">+ ceil()</text>
<text text-anchor="start" x="570" y="-1320" font-family="Helvetica,sans-Serif" font-size="10.00">+ cross()</text>
<text text-anchor="start" x="570" y="-1309" font-family="Helvetica,sans-Serif" font-size="10.00">+ distance()</text>
<text text-anchor="start" x="570" y="-1298" font-family="Helvetica,sans-Serif" font-size="10.00">+ distanceSquared()</text>
<text text-anchor="start" x="570" y="-1287" font-family="Helvetica,sans-Serif" font-size="10.00">and 32 more...</text>
<text text-anchor="start" x="570" y="-1276" font-family="Helvetica,sans-Serif" font-size="10.00">+ maxComponents()</text>
<text text-anchor="start" x="570" y="-1265" font-family="Helvetica,sans-Serif" font-size="10.00">+ minComponents()</text>
<text text-anchor="start" x="570" y="-1254" font-family="Helvetica,sans-Serif" font-size="10.00">+ sum()</text>
<text text-anchor="start" x="570" y="-1243" font-family="Helvetica,sans-Serif" font-size="10.00">+ zero()</text>
</a>
</g>
</g>
<!-- Node10&#45;&gt;Node9 -->
<g id="edge10" class="edge">
<title>Node10&#45;&gt;Node9</title>
<path fill="none" stroke="midnightblue" d="M592.49,-1226.48C569.9,-1161.17 539.75,-1080.58 507,-1011 504.18,-1005.02 501.09,-998.89 497.86,-992.82"/>
<polygon fill="none" stroke="midnightblue" points="589.21,-1227.68 595.77,-1236 595.83,-1225.4 589.21,-1227.68"/>
</g>
<!-- Node11&#45;&gt;Node9 -->
<g id="edge11" class="edge">
<title>Node11&#45;&gt;Node9</title>
<path fill="none" stroke="#404040" d="M458,-1197.46C458,-1132.12 458,-1058.78 458,-1004.89"/>
<polygon fill="none" stroke="#404040" points="458,-1004.67 454,-998.67 458,-992.67 462,-998.67 458,-1004.67"/>
<text text-anchor="middle" x="480.5" y="-1092.5" font-family="Helvetica,sans-Serif" font-size="10.00"> +$world</text>
</g>
<!-- Node12 -->
<g id="node12" class="node">
<title>Node12</title>
<g id="a_node12"><a xlink:href="../../d0/d03/interfacepocketmine_1_1world_1_1_chunk_manager.html" target="_top" xlink:title=" ">
<polygon fill="white" stroke="#bfbfbf" points="381,-1687.5 381,-1810.5 561,-1810.5 561,-1687.5 381,-1687.5"/>
<text text-anchor="middle" x="471" y="-1798.5" font-family="Helvetica,sans-Serif" font-size="10.00">pocketmine\world\ChunkManager</text>
<polyline fill="none" stroke="#bfbfbf" points="381,-1791.5 561,-1791.5 "/>
<text text-anchor="middle" x="471" y="-1779.5" font-family="Helvetica,sans-Serif" font-size="10.00"> </text>
<polyline fill="none" stroke="#bfbfbf" points="381,-1772.5 561,-1772.5 "/>
<text text-anchor="start" x="389" y="-1760.5" font-family="Helvetica,sans-Serif" font-size="10.00">+ getBlockAt()</text>
<text text-anchor="start" x="389" y="-1749.5" font-family="Helvetica,sans-Serif" font-size="10.00">+ getChunk()</text>
<text text-anchor="start" x="389" y="-1738.5" font-family="Helvetica,sans-Serif" font-size="10.00">+ getMaxY()</text>
<text text-anchor="start" x="389" y="-1727.5" font-family="Helvetica,sans-Serif" font-size="10.00">+ getMinY()</text>
<text text-anchor="start" x="389" y="-1716.5" font-family="Helvetica,sans-Serif" font-size="10.00">+ isInWorld()</text>
<text text-anchor="start" x="389" y="-1705.5" font-family="Helvetica,sans-Serif" font-size="10.00">+ setBlockAt()</text>
<text text-anchor="start" x="389" y="-1694.5" font-family="Helvetica,sans-Serif" font-size="10.00">+ setChunk()</text>
</a>
</g>
</g>
<!-- Node12&#45;&gt;Node11 -->
<g id="edge12" class="edge">
<title>Node12&#45;&gt;Node11</title>
<path fill="none" stroke="midnightblue" d="M468.66,-1677.12C467.11,-1629.96 465.01,-1566.15 463.08,-1507.65"/>
<polygon fill="none" stroke="midnightblue" points="465.17,-1677.34 469,-1687.22 472.17,-1677.11 465.17,-1677.34"/>
</g>
<!-- Node13 -->
<g id="node13" class="node">
<title>Node13</title>
<g id="a_node13"><a xlink:href="../../d7/d08/classpocketmine_1_1world_1_1_world_timings.html" target="_top" xlink:title=" ">
<polygon fill="white" stroke="#bfbfbf" points="579.5,-1676.5 579.5,-1821.5 752.5,-1821.5 752.5,-1676.5 579.5,-1676.5"/>
<text text-anchor="middle" x="666" y="-1809.5" font-family="Helvetica,sans-Serif" font-size="10.00">pocketmine\world\WorldTimings</text>
<polyline fill="none" stroke="#bfbfbf" points="579.5,-1802.5 752.5,-1802.5 "/>
<text text-anchor="start" x="587.5" y="-1790.5" font-family="Helvetica,sans-Serif" font-size="10.00">+ $syncChunkLoad</text>
<text text-anchor="start" x="587.5" y="-1779.5" font-family="Helvetica,sans-Serif" font-size="10.00">+ $syncChunkLoadData</text>
<text text-anchor="start" x="587.5" y="-1768.5" font-family="Helvetica,sans-Serif" font-size="10.00">+ $syncChunkLoadEntities</text>
<text text-anchor="start" x="587.5" y="-1757.5" font-family="Helvetica,sans-Serif" font-size="10.00">+ $syncChunkLoadFixInvalid</text>
<text text-anchor="start" x="587.5" y="-1746.5" font-family="Helvetica,sans-Serif" font-size="10.00">Blocks</text>
<text text-anchor="start" x="587.5" y="-1735.5" font-family="Helvetica,sans-Serif" font-size="10.00">+ $syncChunkLoadTileEntities</text>
<text text-anchor="start" x="587.5" y="-1724.5" font-family="Helvetica,sans-Serif" font-size="10.00">+ $syncChunkSave</text>
<text text-anchor="start" x="587.5" y="-1713.5" font-family="Helvetica,sans-Serif" font-size="10.00">+ $syncChunkSend</text>
<text text-anchor="start" x="587.5" y="-1702.5" font-family="Helvetica,sans-Serif" font-size="10.00">+ $syncChunkSendPrepare</text>
<polyline fill="none" stroke="#bfbfbf" points="579.5,-1695.5 752.5,-1695.5 "/>
<text text-anchor="start" x="587.5" y="-1683.5" font-family="Helvetica,sans-Serif" font-size="10.00">+ __construct()</text>
</a>
</g>
</g>
<!-- Node13&#45;&gt;Node11 -->
<g id="edge14" class="edge">
<title>Node13&#45;&gt;Node11</title>
<path fill="none" stroke="#404040" d="M628.09,-1676.1C604.86,-1632.04 574.11,-1573.72 545.15,-1518.79"/>
<polygon fill="none" stroke="#404040" points="544.98,-1518.48 538.65,-1515.03 539.39,-1507.86 545.72,-1511.3 544.98,-1518.48"/>
<text text-anchor="middle" x="642.5" y="-1589.5" font-family="Helvetica,sans-Serif" font-size="10.00"> +$timings</text>
</g>
<!-- Node14 -->
<g id="node14" class="node">
<title>Node14</title>
<g id="a_node14"><a xlink:href="../../d7/d9b/classpocketmine_1_1timings_1_1_timings_handler.html" target="_top" xlink:title=" ">
<polygon fill="white" stroke="#bfbfbf" points="609.5,-1990.5 609.5,-2179.5 722.5,-2179.5 722.5,-1990.5 609.5,-1990.5"/>
<text text-anchor="start" x="617.5" y="-2167.5" font-family="Helvetica,sans-Serif" font-size="10.00">pocketmine\timings</text>
<text text-anchor="middle" x="666" y="-2156.5" font-family="Helvetica,sans-Serif" font-size="10.00">\TimingsHandler</text>
<polyline fill="none" stroke="#bfbfbf" points="609.5,-2149.5 722.5,-2149.5 "/>
<text text-anchor="middle" x="666" y="-2137.5" font-family="Helvetica,sans-Serif" font-size="10.00"> </text>
<polyline fill="none" stroke="#bfbfbf" points="609.5,-2130.5 722.5,-2130.5 "/>
<text text-anchor="start" x="617.5" y="-2118.5" font-family="Helvetica,sans-Serif" font-size="10.00">+ __construct()</text>
<text text-anchor="start" x="617.5" y="-2107.5" font-family="Helvetica,sans-Serif" font-size="10.00">+ destroyCycles()</text>
<text text-anchor="start" x="617.5" y="-2096.5" font-family="Helvetica,sans-Serif" font-size="10.00">+ getName()</text>
<text text-anchor="start" x="617.5" y="-2085.5" font-family="Helvetica,sans-Serif" font-size="10.00">+ startTiming()</text>
<text text-anchor="start" x="617.5" y="-2074.5" font-family="Helvetica,sans-Serif" font-size="10.00">+ stopTiming()</text>
<text text-anchor="start" x="617.5" y="-2063.5" font-family="Helvetica,sans-Serif" font-size="10.00">+ time()</text>
<text text-anchor="start" x="617.5" y="-2052.5" font-family="Helvetica,sans-Serif" font-size="10.00">+ getStartTime()</text>
<text text-anchor="start" x="617.5" y="-2041.5" font-family="Helvetica,sans-Serif" font-size="10.00">+ isEnabled()</text>
<text text-anchor="start" x="617.5" y="-2030.5" font-family="Helvetica,sans-Serif" font-size="10.00">+ printTimings()</text>
<text text-anchor="start" x="617.5" y="-2019.5" font-family="Helvetica,sans-Serif" font-size="10.00">+ reload()</text>
<text text-anchor="start" x="617.5" y="-2008.5" font-family="Helvetica,sans-Serif" font-size="10.00">+ setEnabled()</text>
<text text-anchor="start" x="617.5" y="-1997.5" font-family="Helvetica,sans-Serif" font-size="10.00">+ tick()</text>
</a>
</g>
</g>
<!-- Node14&#45;&gt;Node13 -->
<g id="edge15" class="edge">
<title>Node14&#45;&gt;Node13</title>
<path fill="none" stroke="#404040" d="M666,-1990.07C666,-1940.91 666,-1881.21 666,-1833.65"/>
<polygon fill="none" stroke="#404040" points="666,-1833.52 662,-1827.52 666,-1821.52 670,-1827.52 666,-1833.52"/>
<text text-anchor="middle" x="743" y="-1964" font-family="Helvetica,sans-Serif" font-size="10.00"> +$doBlockLightUpdates</text>
<text text-anchor="middle" x="743" y="-1953" font-family="Helvetica,sans-Serif" font-size="10.00">+$doBlockSkyLightUpdates</text>
<text text-anchor="middle" x="743" y="-1942" font-family="Helvetica,sans-Serif" font-size="10.00">+$doChunkGC</text>
<text text-anchor="middle" x="743" y="-1931" font-family="Helvetica,sans-Serif" font-size="10.00">+$doChunkUnload</text>
<text text-anchor="middle" x="743" y="-1920" font-family="Helvetica,sans-Serif" font-size="10.00">+$doTick</text>
<text text-anchor="middle" x="743" y="-1909" font-family="Helvetica,sans-Serif" font-size="10.00">+$entityTick</text>
<text text-anchor="middle" x="743" y="-1898" font-family="Helvetica,sans-Serif" font-size="10.00">+$randomChunkUpdates</text>
<text text-anchor="start" x="666" y="-1887" font-family="Helvetica,sans-Serif" font-size="10.00">+$randomChunkUpdatesChunk</text>
<text text-anchor="middle" x="743" y="-1876" font-family="Helvetica,sans-Serif" font-size="10.00">Selection</text>
<text text-anchor="middle" x="743" y="-1865" font-family="Helvetica,sans-Serif" font-size="10.00">+$scheduledBlockUpdates</text>
<text text-anchor="middle" x="743" y="-1854" font-family="Helvetica,sans-Serif" font-size="10.00">+$setBlock</text>
<text text-anchor="middle" x="743" y="-1843" font-family="Helvetica,sans-Serif" font-size="10.00">...</text>
</g>
</g>
</svg>
