<?xml version="1.0" encoding="UTF-8" standalone="no"?>
<!DOCTYPE svg PUBLIC "-//W3C//DTD SVG 1.1//EN"
 "http://www.w3.org/Graphics/SVG/1.1/DTD/svg11.dtd">
<!-- Generated by graphviz version 2.43.0 (0)
 -->
<!-- Title: pocketmine\world\format\io\leveldb\LevelDB Pages: 1 -->
<!--zoomable 1074 -->
<svg id="main" version="1.1" xmlns="http://www.w3.org/2000/svg" xmlns:xlink="http://www.w3.org/1999/xlink" xml:space="preserve" onload="init(evt)">
<style type="text/css"><![CDATA[
.edge:hover path { stroke: red; }
.edge:hover polygon { stroke: red; fill: red; }
]]></style>
<script type="text/javascript"><![CDATA[
var edges = document.getElementsByTagName('g');
if (edges && edges.length) {
  for (var i=0;i<edges.length;i++) {
    if (edges[i].id.substr(0,4)=='edge') {
      edges[i].setAttribute('class','edge');
    }
  }
}
]]></script>
        <defs>
                <circle id="rim" cx="0" cy="0" r="7"/>
                <circle id="rim2" cx="0" cy="0" r="3.5"/>
                <g id="zoomPlus">
                        <use xlink:href="#rim" fill="#404040">
                                <set attributeName="fill" to="#808080" begin="zoomplus.mouseover" end="zoomplus.mouseout"/>
                        </use>
                        <path d="M-4,0h8M0,-4v8" fill="none" stroke="white" stroke-width="1.5" pointer-events="none"/>
                </g>
                <g id="zoomMin">
                        <use xlink:href="#rim" fill="#404040">
                                <set attributeName="fill" to="#808080" begin="zoomminus.mouseover" end="zoomminus.mouseout"/>
                        </use>
                        <path d="M-4,0h8" fill="none" stroke="white" stroke-width="1.5" pointer-events="none"/>
                </g>
                <g id="dirArrow">
                        <path fill="none" stroke="white" stroke-width="1.5" d="M0,-3.0v7 M-2.5,-0.5L0,-3.0L2.5,-0.5"/>
                </g>
               <g id="resetDef">
                       <use xlink:href="#rim2" fill="#404040">
                               <set attributeName="fill" to="#808080" begin="reset.mouseover" end="reset.mouseout"/>
                       </use>
               </g>
        </defs>

<script type="text/javascript">
var viewWidth = 613;
var viewHeight = 1074;
var sectionId = 'dynsection-1';
</script>
<script xlink:href="../../svgpan.js"/>
<svg id="graph" class="graph">
<g id="viewport">
<title>pocketmine\world\format\io\leveldb\LevelDB</title>
<polygon fill="white" stroke="transparent" points="-4,4 -4,-1070 608.5,-1070 608.5,4 -4,4"/>
<!-- Node1 -->
<g id="node1" class="node">
<title>Node1</title>
<g id="a_node1"><a xlink:title=" ">
<polygon fill="#bfbfbf" stroke="black" points="122.5,-0.5 122.5,-244.5 294.5,-244.5 294.5,-0.5 122.5,-0.5"/>
<text text-anchor="start" x="130.5" y="-232.5" font-family="Helvetica,sans-Serif" font-size="10.00">pocketmine\world\format</text>
<text text-anchor="middle" x="208.5" y="-221.5" font-family="Helvetica,sans-Serif" font-size="10.00">\io\leveldb\LevelDB</text>
<polyline fill="none" stroke="black" points="122.5,-214.5 294.5,-214.5 "/>
<text text-anchor="middle" x="208.5" y="-202.5" font-family="Helvetica,sans-Serif" font-size="10.00"> </text>
<polyline fill="none" stroke="black" points="122.5,-195.5 294.5,-195.5 "/>
<text text-anchor="start" x="130.5" y="-183.5" font-family="Helvetica,sans-Serif" font-size="10.00">+ __construct()</text>
<text text-anchor="start" x="130.5" y="-172.5" font-family="Helvetica,sans-Serif" font-size="10.00">+ calculateChunkCount()</text>
<text text-anchor="start" x="130.5" y="-161.5" font-family="Helvetica,sans-Serif" font-size="10.00">+ close()</text>
<text text-anchor="start" x="130.5" y="-150.5" font-family="Helvetica,sans-Serif" font-size="10.00">+ doGarbageCollection()</text>
<text text-anchor="start" x="130.5" y="-139.5" font-family="Helvetica,sans-Serif" font-size="10.00">+ getAllChunks()</text>
<text text-anchor="start" x="130.5" y="-128.5" font-family="Helvetica,sans-Serif" font-size="10.00">+ getDatabase()</text>
<text text-anchor="start" x="130.5" y="-117.5" font-family="Helvetica,sans-Serif" font-size="10.00">+ getWorldMaxY()</text>
<text text-anchor="start" x="130.5" y="-106.5" font-family="Helvetica,sans-Serif" font-size="10.00">+ getWorldMinY()</text>
<text text-anchor="start" x="130.5" y="-95.5" font-family="Helvetica,sans-Serif" font-size="10.00">+ loadChunk()</text>
<text text-anchor="start" x="130.5" y="-84.5" font-family="Helvetica,sans-Serif" font-size="10.00">+ saveChunk()</text>
<text text-anchor="start" x="130.5" y="-73.5" font-family="Helvetica,sans-Serif" font-size="10.00">+ chunkIndex()</text>
<text text-anchor="start" x="130.5" y="-62.5" font-family="Helvetica,sans-Serif" font-size="10.00">+ generate()</text>
<text text-anchor="start" x="130.5" y="-51.5" font-family="Helvetica,sans-Serif" font-size="10.00">+ isValid()</text>
<text text-anchor="start" x="130.5" y="-40.5" font-family="Helvetica,sans-Serif" font-size="10.00"># deserializeLegacyExtraData()</text>
<text text-anchor="start" x="130.5" y="-29.5" font-family="Helvetica,sans-Serif" font-size="10.00"># deserializePaletted()</text>
<text text-anchor="start" x="130.5" y="-18.5" font-family="Helvetica,sans-Serif" font-size="10.00"># loadLevelData()</text>
<text text-anchor="start" x="130.5" y="-7.5" font-family="Helvetica,sans-Serif" font-size="10.00"># deserializeExtraDataKey()</text>
</a>
</g>
</g>
<!-- Node2 -->
<g id="node2" class="node">
<title>Node2</title>
<g id="a_node2"><a xlink:href="../../d6/dfa/classpocketmine_1_1world_1_1format_1_1io_1_1_base_world_provider.html" target="_top" xlink:title=" ">
<polygon fill="white" stroke="#bfbfbf" points="159,-694.5 159,-839.5 340,-839.5 340,-694.5 159,-694.5"/>
<text text-anchor="start" x="167" y="-827.5" font-family="Helvetica,sans-Serif" font-size="10.00">pocketmine\world\format</text>
<text text-anchor="middle" x="249.5" y="-816.5" font-family="Helvetica,sans-Serif" font-size="10.00">\io\BaseWorldProvider</text>
<polyline fill="none" stroke="#bfbfbf" points="159,-809.5 340,-809.5 "/>
<text text-anchor="middle" x="249.5" y="-797.5" font-family="Helvetica,sans-Serif" font-size="10.00"> </text>
<polyline fill="none" stroke="#bfbfbf" points="159,-790.5 340,-790.5 "/>
<text text-anchor="start" x="167" y="-778.5" font-family="Helvetica,sans-Serif" font-size="10.00">+ __construct()</text>
<text text-anchor="start" x="167" y="-767.5" font-family="Helvetica,sans-Serif" font-size="10.00">+ getPath()</text>
<text text-anchor="start" x="167" y="-756.5" font-family="Helvetica,sans-Serif" font-size="10.00">+ getWorldData()</text>
<text text-anchor="start" x="167" y="-745.5" font-family="Helvetica,sans-Serif" font-size="10.00"># loadLevelData()</text>
<text text-anchor="start" x="167" y="-734.5" font-family="Helvetica,sans-Serif" font-size="10.00"># palettizeLegacySubChunkFrom</text>
<text text-anchor="start" x="167" y="-723.5" font-family="Helvetica,sans-Serif" font-size="10.00">Column()</text>
<text text-anchor="start" x="167" y="-712.5" font-family="Helvetica,sans-Serif" font-size="10.00"># palettizeLegacySubChunkXZY()</text>
<text text-anchor="start" x="167" y="-701.5" font-family="Helvetica,sans-Serif" font-size="10.00"># palettizeLegacySubChunkYZX()</text>
</a>
</g>
</g>
<!-- Node2&#45;&gt;Node1 -->
<g id="edge1" class="edge">
<title>Node2&#45;&gt;Node1</title>
<path fill="none" stroke="midnightblue" d="M214.11,-684.82C197.26,-641.79 178.97,-587.51 170.5,-537 152.5,-429.61 158.45,-400.22 170.5,-292 172.21,-276.65 174.77,-260.66 177.77,-244.9"/>
<polygon fill="none" stroke="midnightblue" points="210.96,-686.38 217.9,-694.39 217.47,-683.8 210.96,-686.38"/>
</g>
<!-- Node7 -->
<g id="node7" class="node">
<title>Node7</title>
<g id="a_node7"><a xlink:href="../../df/d4c/classpocketmine_1_1world_1_1format_1_1io_1_1leveldb_1_1_level_d_b.html" target="_top" xlink:title=" ">
<polygon fill="white" stroke="#bfbfbf" points="179.5,-292.5 179.5,-536.5 351.5,-536.5 351.5,-292.5 179.5,-292.5"/>
<text text-anchor="start" x="187.5" y="-524.5" font-family="Helvetica,sans-Serif" font-size="10.00">pocketmine\world\format</text>
<text text-anchor="middle" x="265.5" y="-513.5" font-family="Helvetica,sans-Serif" font-size="10.00">\io\leveldb\LevelDB</text>
<polyline fill="none" stroke="#bfbfbf" points="179.5,-506.5 351.5,-506.5 "/>
<text text-anchor="middle" x="265.5" y="-494.5" font-family="Helvetica,sans-Serif" font-size="10.00"> </text>
<polyline fill="none" stroke="#bfbfbf" points="179.5,-487.5 351.5,-487.5 "/>
<text text-anchor="start" x="187.5" y="-475.5" font-family="Helvetica,sans-Serif" font-size="10.00">+ __construct()</text>
<text text-anchor="start" x="187.5" y="-464.5" font-family="Helvetica,sans-Serif" font-size="10.00">+ calculateChunkCount()</text>
<text text-anchor="start" x="187.5" y="-453.5" font-family="Helvetica,sans-Serif" font-size="10.00">+ close()</text>
<text text-anchor="start" x="187.5" y="-442.5" font-family="Helvetica,sans-Serif" font-size="10.00">+ doGarbageCollection()</text>
<text text-anchor="start" x="187.5" y="-431.5" font-family="Helvetica,sans-Serif" font-size="10.00">+ getAllChunks()</text>
<text text-anchor="start" x="187.5" y="-420.5" font-family="Helvetica,sans-Serif" font-size="10.00">+ getDatabase()</text>
<text text-anchor="start" x="187.5" y="-409.5" font-family="Helvetica,sans-Serif" font-size="10.00">+ getWorldMaxY()</text>
<text text-anchor="start" x="187.5" y="-398.5" font-family="Helvetica,sans-Serif" font-size="10.00">+ getWorldMinY()</text>
<text text-anchor="start" x="187.5" y="-387.5" font-family="Helvetica,sans-Serif" font-size="10.00">+ loadChunk()</text>
<text text-anchor="start" x="187.5" y="-376.5" font-family="Helvetica,sans-Serif" font-size="10.00">+ saveChunk()</text>
<text text-anchor="start" x="187.5" y="-365.5" font-family="Helvetica,sans-Serif" font-size="10.00">+ chunkIndex()</text>
<text text-anchor="start" x="187.5" y="-354.5" font-family="Helvetica,sans-Serif" font-size="10.00">+ generate()</text>
<text text-anchor="start" x="187.5" y="-343.5" font-family="Helvetica,sans-Serif" font-size="10.00">+ isValid()</text>
<text text-anchor="start" x="187.5" y="-332.5" font-family="Helvetica,sans-Serif" font-size="10.00"># deserializeLegacyExtraData()</text>
<text text-anchor="start" x="187.5" y="-321.5" font-family="Helvetica,sans-Serif" font-size="10.00"># deserializePaletted()</text>
<text text-anchor="start" x="187.5" y="-310.5" font-family="Helvetica,sans-Serif" font-size="10.00"># loadLevelData()</text>
<text text-anchor="start" x="187.5" y="-299.5" font-family="Helvetica,sans-Serif" font-size="10.00"># deserializeExtraDataKey()</text>
</a>
</g>
</g>
<!-- Node2&#45;&gt;Node7 -->
<g id="edge8" class="edge">
<title>Node2&#45;&gt;Node7</title>
<path fill="none" stroke="midnightblue" d="M253.24,-684.17C255.24,-640.26 257.75,-585.29 259.98,-536.53"/>
<polygon fill="none" stroke="midnightblue" points="249.74,-684.08 252.78,-694.23 256.73,-684.4 249.74,-684.08"/>
</g>
<!-- Node3 -->
<g id="node3" class="node">
<title>Node3</title>
<g id="a_node3"><a xlink:href="../../d8/d94/interfacepocketmine_1_1world_1_1format_1_1io_1_1_world_provider.html" target="_top" xlink:title=" ">
<polygon fill="white" stroke="#bfbfbf" points="16.5,-898.5 16.5,-1054.5 156.5,-1054.5 156.5,-898.5 16.5,-898.5"/>
<text text-anchor="start" x="24.5" y="-1042.5" font-family="Helvetica,sans-Serif" font-size="10.00">pocketmine\world\format</text>
<text text-anchor="middle" x="86.5" y="-1031.5" font-family="Helvetica,sans-Serif" font-size="10.00">\io\WorldProvider</text>
<polyline fill="none" stroke="#bfbfbf" points="16.5,-1024.5 156.5,-1024.5 "/>
<text text-anchor="middle" x="86.5" y="-1012.5" font-family="Helvetica,sans-Serif" font-size="10.00"> </text>
<polyline fill="none" stroke="#bfbfbf" points="16.5,-1005.5 156.5,-1005.5 "/>
<text text-anchor="start" x="24.5" y="-993.5" font-family="Helvetica,sans-Serif" font-size="10.00">+ calculateChunkCount()</text>
<text text-anchor="start" x="24.5" y="-982.5" font-family="Helvetica,sans-Serif" font-size="10.00">+ close()</text>
<text text-anchor="start" x="24.5" y="-971.5" font-family="Helvetica,sans-Serif" font-size="10.00">+ doGarbageCollection()</text>
<text text-anchor="start" x="24.5" y="-960.5" font-family="Helvetica,sans-Serif" font-size="10.00">+ getAllChunks()</text>
<text text-anchor="start" x="24.5" y="-949.5" font-family="Helvetica,sans-Serif" font-size="10.00">+ getPath()</text>
<text text-anchor="start" x="24.5" y="-938.5" font-family="Helvetica,sans-Serif" font-size="10.00">+ getWorldData()</text>
<text text-anchor="start" x="24.5" y="-927.5" font-family="Helvetica,sans-Serif" font-size="10.00">+ getWorldMaxY()</text>
<text text-anchor="start" x="24.5" y="-916.5" font-family="Helvetica,sans-Serif" font-size="10.00">+ getWorldMinY()</text>
<text text-anchor="start" x="24.5" y="-905.5" font-family="Helvetica,sans-Serif" font-size="10.00">+ loadChunk()</text>
</a>
</g>
</g>
<!-- Node3&#45;&gt;Node2 -->
<g id="edge2" class="edge">
<title>Node3&#45;&gt;Node2</title>
<path fill="none" stroke="midnightblue" d="M153.59,-890.1C166.71,-873.4 180.34,-856.04 193.07,-839.84"/>
<polygon fill="none" stroke="midnightblue" points="150.62,-888.21 147.2,-898.23 156.12,-892.53 150.62,-888.21"/>
</g>
<!-- Node5 -->
<g id="node5" class="node">
<title>Node5</title>
<g id="a_node5"><a xlink:href="../../d1/d1b/interfacepocketmine_1_1world_1_1format_1_1io_1_1_writable_world_provider.html" target="_top" xlink:title=" ">
<polygon fill="white" stroke="#bfbfbf" points="0,-733 0,-801 141,-801 141,-733 0,-733"/>
<text text-anchor="start" x="8" y="-789" font-family="Helvetica,sans-Serif" font-size="10.00">pocketmine\world\format</text>
<text text-anchor="middle" x="70.5" y="-778" font-family="Helvetica,sans-Serif" font-size="10.00">\io\WritableWorldProvider</text>
<polyline fill="none" stroke="#bfbfbf" points="0,-771 141,-771 "/>
<text text-anchor="middle" x="70.5" y="-759" font-family="Helvetica,sans-Serif" font-size="10.00"> </text>
<polyline fill="none" stroke="#bfbfbf" points="0,-752 141,-752 "/>
<text text-anchor="start" x="8" y="-740" font-family="Helvetica,sans-Serif" font-size="10.00">+ saveChunk()</text>
</a>
</g>
</g>
<!-- Node3&#45;&gt;Node5 -->
<g id="edge5" class="edge">
<title>Node3&#45;&gt;Node5</title>
<path fill="none" stroke="midnightblue" d="M79.75,-887.91C77.38,-857.21 74.86,-824.57 73.05,-801.1"/>
<polygon fill="none" stroke="midnightblue" points="76.28,-888.53 80.54,-898.23 83.26,-888 76.28,-888.53"/>
</g>
<!-- Node4 -->
<g id="node4" class="node">
<title>Node4</title>
<g id="a_node4"><a xlink:href="../../d7/d4e/interfacepocketmine_1_1world_1_1format_1_1io_1_1_world_data.html" target="_top" xlink:title=" ">
<polygon fill="white" stroke="#bfbfbf" points="179.5,-887.5 179.5,-1065.5 319.5,-1065.5 319.5,-887.5 179.5,-887.5"/>
<text text-anchor="start" x="187.5" y="-1053.5" font-family="Helvetica,sans-Serif" font-size="10.00">pocketmine\world\format</text>
<text text-anchor="middle" x="249.5" y="-1042.5" font-family="Helvetica,sans-Serif" font-size="10.00">\io\WorldData</text>
<polyline fill="none" stroke="#bfbfbf" points="179.5,-1035.5 319.5,-1035.5 "/>
<text text-anchor="middle" x="249.5" y="-1023.5" font-family="Helvetica,sans-Serif" font-size="10.00"> </text>
<polyline fill="none" stroke="#bfbfbf" points="179.5,-1016.5 319.5,-1016.5 "/>
<text text-anchor="start" x="187.5" y="-1004.5" font-family="Helvetica,sans-Serif" font-size="10.00">+ getDifficulty()</text>
<text text-anchor="start" x="187.5" y="-993.5" font-family="Helvetica,sans-Serif" font-size="10.00">+ getGenerator()</text>
<text text-anchor="start" x="187.5" y="-982.5" font-family="Helvetica,sans-Serif" font-size="10.00">+ getGeneratorOptions()</text>
<text text-anchor="start" x="187.5" y="-971.5" font-family="Helvetica,sans-Serif" font-size="10.00">+ getLightningLevel()</text>
<text text-anchor="start" x="187.5" y="-960.5" font-family="Helvetica,sans-Serif" font-size="10.00">+ getLightningTime()</text>
<text text-anchor="start" x="187.5" y="-949.5" font-family="Helvetica,sans-Serif" font-size="10.00">+ getName()</text>
<text text-anchor="start" x="187.5" y="-938.5" font-family="Helvetica,sans-Serif" font-size="10.00">+ getRainLevel()</text>
<text text-anchor="start" x="187.5" y="-927.5" font-family="Helvetica,sans-Serif" font-size="10.00">+ getRainTime()</text>
<text text-anchor="start" x="187.5" y="-916.5" font-family="Helvetica,sans-Serif" font-size="10.00">+ getSeed()</text>
<text text-anchor="start" x="187.5" y="-905.5" font-family="Helvetica,sans-Serif" font-size="10.00">+ getSpawn()</text>
<text text-anchor="start" x="187.5" y="-894.5" font-family="Helvetica,sans-Serif" font-size="10.00">and 9 more...</text>
</a>
</g>
</g>
<!-- Node4&#45;&gt;Node2 -->
<g id="edge3" class="edge">
<title>Node4&#45;&gt;Node2</title>
<path fill="none" stroke="#404040" d="M249.5,-887.2C249.5,-875.41 249.5,-863.35 249.5,-851.64"/>
<polygon fill="none" stroke="#404040" points="249.5,-851.6 245.5,-845.6 249.5,-839.6 253.5,-845.6 249.5,-851.6"/>
<text text-anchor="middle" x="283.5" y="-861" font-family="Helvetica,sans-Serif" font-size="10.00"> #$worldData</text>
</g>
<!-- Node5&#45;&gt;Node1 -->
<g id="edge4" class="edge">
<title>Node5&#45;&gt;Node1</title>
<path fill="none" stroke="midnightblue" d="M76.37,-722.78C88.16,-638.99 116.93,-448.88 155.5,-292 159.27,-276.66 163.67,-260.68 168.29,-244.93"/>
<polygon fill="none" stroke="midnightblue" points="72.87,-722.55 74.95,-732.94 79.8,-723.52 72.87,-722.55"/>
</g>
<!-- Node5&#45;&gt;Node7 -->
<g id="edge9" class="edge">
<title>Node5&#45;&gt;Node7</title>
<path fill="none" stroke="midnightblue" d="M93.93,-723.89C119.61,-677.74 161.97,-601.59 198.18,-536.51"/>
<polygon fill="none" stroke="midnightblue" points="90.82,-722.27 89.02,-732.71 96.94,-725.67 90.82,-722.27"/>
</g>
<!-- Node6 -->
<g id="node6" class="node">
<title>Node6</title>
<g id="a_node6"><a xlink:title=" ">
<polygon fill="white" stroke="#bfbfbf" points="391,-738.5 391,-795.5 434,-795.5 434,-738.5 391,-738.5"/>
<text text-anchor="middle" x="412.5" y="-783.5" font-family="Helvetica,sans-Serif" font-size="10.00">const</text>
<polyline fill="none" stroke="#bfbfbf" points="391,-776.5 434,-776.5 "/>
<text text-anchor="middle" x="412.5" y="-764.5" font-family="Helvetica,sans-Serif" font-size="10.00"> </text>
<polyline fill="none" stroke="#bfbfbf" points="391,-757.5 434,-757.5 "/>
<text text-anchor="middle" x="412.5" y="-745.5" font-family="Helvetica,sans-Serif" font-size="10.00"> </text>
</a>
</g>
</g>
<!-- Node6&#45;&gt;Node1 -->
<g id="edge6" class="edge">
<title>Node6&#45;&gt;Node1</title>
<path fill="none" stroke="#404040" d="M420.48,-738.26C440.83,-661.83 487.67,-443.76 408.5,-292 384.93,-246.82 343.58,-208.87 304.58,-180.49"/>
<polygon fill="none" stroke="#404040" points="304.5,-180.44 297.3,-180.22 294.72,-173.48 301.93,-173.7 304.5,-180.44"/>
<text text-anchor="start" x="452.5" y="-467" font-family="Helvetica,sans-Serif" font-size="10.00"> #CURRENT_LEVEL_CHUNK</text>
<text text-anchor="middle" x="528.5" y="-456" font-family="Helvetica,sans-Serif" font-size="10.00">_VERSION</text>
<text text-anchor="start" x="452.5" y="-445" font-family="Helvetica,sans-Serif" font-size="10.00">#CURRENT_LEVEL_SUBCHUNK</text>
<text text-anchor="middle" x="528.5" y="-434" font-family="Helvetica,sans-Serif" font-size="10.00">_VERSION</text>
<text text-anchor="start" x="452.5" y="-423" font-family="Helvetica,sans-Serif" font-size="10.00">#ENTRY_FLAT_WORLD</text>
<text text-anchor="middle" x="528.5" y="-412" font-family="Helvetica,sans-Serif" font-size="10.00">_LAYERS</text>
<text text-anchor="middle" x="528.5" y="-401" font-family="Helvetica,sans-Serif" font-size="10.00">#FINALISATION_DONE</text>
<text text-anchor="start" x="452.5" y="-390" font-family="Helvetica,sans-Serif" font-size="10.00">#FINALISATION_NEEDS</text>
<text text-anchor="middle" x="528.5" y="-379" font-family="Helvetica,sans-Serif" font-size="10.00">_INSTATICKING</text>
<text text-anchor="start" x="452.5" y="-368" font-family="Helvetica,sans-Serif" font-size="10.00">#FINALISATION_NEEDS</text>
<text text-anchor="middle" x="528.5" y="-357" font-family="Helvetica,sans-Serif" font-size="10.00">_POPULATION</text>
</g>
<!-- Node6&#45;&gt;Node7 -->
<g id="edge10" class="edge">
<title>Node6&#45;&gt;Node7</title>
<path fill="none" stroke="#404040" d="M394.56,-738.38C383.34,-723.18 367.59,-705.18 349.5,-694 322.54,-677.34 300.59,-700.51 280.5,-676 264.15,-656.05 259.38,-602.29 259.12,-548.76"/>
<polygon fill="none" stroke="#404040" points="259.12,-548.63 255.13,-542.63 259.13,-536.63 263.13,-542.64 259.12,-548.63"/>
<text text-anchor="start" x="280.5" y="-668" font-family="Helvetica,sans-Serif" font-size="10.00"> #CURRENT_LEVEL_CHUNK</text>
<text text-anchor="middle" x="356.5" y="-657" font-family="Helvetica,sans-Serif" font-size="10.00">_VERSION</text>
<text text-anchor="start" x="280.5" y="-646" font-family="Helvetica,sans-Serif" font-size="10.00">#CURRENT_LEVEL_SUBCHUNK</text>
<text text-anchor="middle" x="356.5" y="-635" font-family="Helvetica,sans-Serif" font-size="10.00">_VERSION</text>
<text text-anchor="start" x="280.5" y="-624" font-family="Helvetica,sans-Serif" font-size="10.00">#ENTRY_FLAT_WORLD</text>
<text text-anchor="middle" x="356.5" y="-613" font-family="Helvetica,sans-Serif" font-size="10.00">_LAYERS</text>
<text text-anchor="middle" x="356.5" y="-602" font-family="Helvetica,sans-Serif" font-size="10.00">#FINALISATION_DONE</text>
<text text-anchor="start" x="280.5" y="-591" font-family="Helvetica,sans-Serif" font-size="10.00">#FINALISATION_NEEDS</text>
<text text-anchor="middle" x="356.5" y="-580" font-family="Helvetica,sans-Serif" font-size="10.00">_INSTATICKING</text>
<text text-anchor="start" x="280.5" y="-569" font-family="Helvetica,sans-Serif" font-size="10.00">#FINALISATION_NEEDS</text>
<text text-anchor="middle" x="356.5" y="-558" font-family="Helvetica,sans-Serif" font-size="10.00">_POPULATION</text>
</g>
<!-- Node7&#45;&gt;Node1 -->
<g id="edge7" class="edge">
<title>Node7&#45;&gt;Node1</title>
<path fill="none" stroke="#404040" d="M241.66,-292.19C239.35,-280.44 236.99,-268.47 234.66,-256.6"/>
<polygon fill="none" stroke="#404040" points="234.65,-256.56 229.57,-251.44 232.34,-244.79 237.42,-249.9 234.65,-256.56"/>
<text text-anchor="middle" x="251.5" y="-266" font-family="Helvetica,sans-Serif" font-size="10.00"> #$db</text>
</g>
<!-- Node7&#45;&gt;Node7 -->
<g id="edge11" class="edge">
<title>Node7&#45;&gt;Node7</title>
<path fill="none" stroke="#404040" d="M351.58,-438.34C362.39,-434.14 369.5,-426.19 369.5,-414.5 369.5,-407.19 366.72,-401.35 362,-396.97"/>
<polygon fill="none" stroke="#404040" points="361.84,-396.87 354.64,-397.19 351.58,-390.66 358.78,-390.34 361.84,-396.87"/>
<text text-anchor="middle" x="384.5" y="-412" font-family="Helvetica,sans-Serif" font-size="10.00"> #$db</text>
</g>
</g>
</svg>
        <g id="navigator" transform="translate(0 0)" fill="#404254">
                <rect fill="#f2f5e9" fill-opacity="0.5" stroke="#606060" stroke-width=".5" x="0" y="0" width="60" height="60"/>
                <use id="zoomplus" xlink:href="#zoomPlus" x="17" y="9" onmousedown="handleZoom(evt,'in')"/>
                <use id="zoomminus" xlink:href="#zoomMin" x="42" y="9" onmousedown="handleZoom(evt,'out')"/>
                <use id="reset" xlink:href="#resetDef" x="30" y="36" onmousedown="handleReset()"/>
                <g id="arrowUp" xlink:href="#dirArrow" transform="translate(30 24)" onmousedown="handlePan(0,-1)">
                  <use xlink:href="#rim" fill="#404040">
                        <set attributeName="fill" to="#808080" begin="arrowUp.mouseover" end="arrowUp.mouseout"/>
                  </use>
                  <path fill="none" stroke="white" stroke-width="1.5" d="M0,-3.0v7 M-2.5,-0.5L0,-3.0L2.5,-0.5"/>
                </g>
                <g id="arrowRight" xlink:href="#dirArrow" transform="rotate(90) translate(36 -43)" onmousedown="handlePan(1,0)">
                  <use xlink:href="#rim" fill="#404040">
                        <set attributeName="fill" to="#808080" begin="arrowRight.mouseover" end="arrowRight.mouseout"/>
                  </use>
                  <path fill="none" stroke="white" stroke-width="1.5" d="M0,-3.0v7 M-2.5,-0.5L0,-3.0L2.5,-0.5"/>
                </g>
                <g id="arrowDown" xlink:href="#dirArrow" transform="rotate(180) translate(-30 -48)" onmousedown="handlePan(0,1)">
                  <use xlink:href="#rim" fill="#404040">
                        <set attributeName="fill" to="#808080" begin="arrowDown.mouseover" end="arrowDown.mouseout"/>
                  </use>
                  <path fill="none" stroke="white" stroke-width="1.5" d="M0,-3.0v7 M-2.5,-0.5L0,-3.0L2.5,-0.5"/>
                </g>
                <g id="arrowLeft" xlink:href="#dirArrow" transform="rotate(270) translate(-36 17)" onmousedown="handlePan(-1,0)">
                  <use xlink:href="#rim" fill="#404040">
                        <set attributeName="fill" to="#808080" begin="arrowLeft.mouseover" end="arrowLeft.mouseout"/>
                  </use>
                  <path fill="none" stroke="white" stroke-width="1.5" d="M0,-3.0v7 M-2.5,-0.5L0,-3.0L2.5,-0.5"/>
                </g>
        </g>
        <svg viewBox="0 0 15 15" width="100%" height="30px" preserveAspectRatio="xMaxYMin meet">
         <g id="arrow_out" transform="scale(0.3 0.3)">
          <a xlink:href="classpocketmine_1_1world_1_1format_1_1io_1_1leveldb_1_1_level_d_b__coll__graph_org.svg" target="_base">
           <rect id="button" ry="5" rx="5" y="6" x="6" height="38" width="38"
                fill="#f2f5e9" fill-opacity="0.5" stroke="#606060" stroke-width="1.0"/>
           <path id="arrow"
             d="M 11.500037,31.436501 C 11.940474,20.09759 22.043105,11.32322 32.158766,21.979434 L 37.068811,17.246167 C 37.068811,17.246167 37.088388,32 37.088388,32 L 22.160133,31.978069 C 22.160133,31.978069 26.997745,27.140456 26.997745,27.140456 C 18.528582,18.264221 13.291696,25.230495 11.500037,31.436501 z"
             style="fill:#404040;"/>
          </a>
         </g>
        </svg>
</svg>
