<?xml version="1.0" encoding="UTF-8" standalone="no"?>
<!DOCTYPE svg PUBLIC "-//W3C//DTD SVG 1.1//EN"
 "http://www.w3.org/Graphics/SVG/1.1/DTD/svg11.dtd">
<!-- Generated by graphviz version 2.43.0 (0)
 -->
<!-- Title: pocketmine\item\EnderPearl Pages: 1 -->
<svg width="454pt" height="1050pt"
 viewBox="0.00 0.00 453.50 1050.00" xmlns="http://www.w3.org/2000/svg" xmlns:xlink="http://www.w3.org/1999/xlink">
<g id="graph0" class="graph" transform="scale(1 1) rotate(0) translate(4 1046)">
<title>pocketmine\item\EnderPearl</title>
<polygon fill="white" stroke="transparent" points="-4,4 -4,-1046 449.5,-1046 449.5,4 -4,4"/>
<!-- Node1 -->
<g id="node1" class="node">
<title>Node1</title>
<g id="a_node1"><a xlink:title=" ">
<polygon fill="#bfbfbf" stroke="black" points="56.5,-0.5 56.5,-90.5 211.5,-90.5 211.5,-0.5 56.5,-0.5"/>
<text text-anchor="middle" x="134" y="-78.5" font-family="Helvetica,sans-Serif" font-size="10.00">pocketmine\item\EnderPearl</text>
<polyline fill="none" stroke="black" points="56.5,-71.5 211.5,-71.5 "/>
<text text-anchor="middle" x="134" y="-59.5" font-family="Helvetica,sans-Serif" font-size="10.00"> </text>
<polyline fill="none" stroke="black" points="56.5,-52.5 211.5,-52.5 "/>
<text text-anchor="start" x="64.5" y="-40.5" font-family="Helvetica,sans-Serif" font-size="10.00">+ getCooldownTicks()</text>
<text text-anchor="start" x="64.5" y="-29.5" font-family="Helvetica,sans-Serif" font-size="10.00">+ getMaxStackSize()</text>
<text text-anchor="start" x="64.5" y="-18.5" font-family="Helvetica,sans-Serif" font-size="10.00">+ getThrowForce()</text>
<text text-anchor="start" x="64.5" y="-7.5" font-family="Helvetica,sans-Serif" font-size="10.00"># createEntity()</text>
</a>
</g>
</g>
<!-- Node2 -->
<g id="node2" class="node">
<title>Node2</title>
<g id="a_node2"><a xlink:href="../../d4/ddb/classpocketmine_1_1item_1_1_projectile_item.html" target="_top" xlink:title=" ">
<polygon fill="white" stroke="#bfbfbf" points="49,-128.5 49,-207.5 219,-207.5 219,-128.5 49,-128.5"/>
<text text-anchor="middle" x="134" y="-195.5" font-family="Helvetica,sans-Serif" font-size="10.00">pocketmine\item\ProjectileItem</text>
<polyline fill="none" stroke="#bfbfbf" points="49,-188.5 219,-188.5 "/>
<text text-anchor="middle" x="134" y="-176.5" font-family="Helvetica,sans-Serif" font-size="10.00"> </text>
<polyline fill="none" stroke="#bfbfbf" points="49,-169.5 219,-169.5 "/>
<text text-anchor="start" x="57" y="-157.5" font-family="Helvetica,sans-Serif" font-size="10.00">+ getThrowForce()</text>
<text text-anchor="start" x="57" y="-146.5" font-family="Helvetica,sans-Serif" font-size="10.00">+ onClickAir()</text>
<text text-anchor="start" x="57" y="-135.5" font-family="Helvetica,sans-Serif" font-size="10.00"># createEntity()</text>
</a>
</g>
</g>
<!-- Node2&#45;&gt;Node1 -->
<g id="edge1" class="edge">
<title>Node2&#45;&gt;Node1</title>
<path fill="none" stroke="midnightblue" d="M134,-118.14C134,-109.05 134,-99.6 134,-90.66"/>
<polygon fill="none" stroke="midnightblue" points="130.5,-118.21 134,-128.21 137.5,-118.21 130.5,-118.21"/>
</g>
<!-- Node3 -->
<g id="node3" class="node">
<title>Node3</title>
<g id="a_node3"><a xlink:href="../../d5/d8a/classpocketmine_1_1item_1_1_item.html" target="_top" xlink:title=" ">
<polygon fill="white" stroke="#bfbfbf" points="55,-245.5 55,-511.5 213,-511.5 213,-245.5 55,-245.5"/>
<text text-anchor="middle" x="134" y="-499.5" font-family="Helvetica,sans-Serif" font-size="10.00">pocketmine\item\Item</text>
<polyline fill="none" stroke="#bfbfbf" points="55,-492.5 213,-492.5 "/>
<text text-anchor="start" x="63" y="-480.5" font-family="Helvetica,sans-Serif" font-size="10.00"># $canDestroy</text>
<text text-anchor="start" x="63" y="-469.5" font-family="Helvetica,sans-Serif" font-size="10.00"># $canPlaceOn</text>
<text text-anchor="start" x="63" y="-458.5" font-family="Helvetica,sans-Serif" font-size="10.00"># $count</text>
<text text-anchor="start" x="63" y="-447.5" font-family="Helvetica,sans-Serif" font-size="10.00"># $customName</text>
<text text-anchor="start" x="63" y="-436.5" font-family="Helvetica,sans-Serif" font-size="10.00"># $lore</text>
<polyline fill="none" stroke="#bfbfbf" points="55,-429.5 213,-429.5 "/>
<text text-anchor="start" x="63" y="-417.5" font-family="Helvetica,sans-Serif" font-size="10.00">+ __construct()</text>
<text text-anchor="start" x="63" y="-406.5" font-family="Helvetica,sans-Serif" font-size="10.00">+ __clone()</text>
<text text-anchor="start" x="63" y="-395.5" font-family="Helvetica,sans-Serif" font-size="10.00">+ __toString()</text>
<text text-anchor="start" x="63" y="-384.5" font-family="Helvetica,sans-Serif" font-size="10.00">+ canBePlaced()</text>
<text text-anchor="start" x="63" y="-373.5" font-family="Helvetica,sans-Serif" font-size="10.00">+ canStackWith()</text>
<text text-anchor="start" x="63" y="-362.5" font-family="Helvetica,sans-Serif" font-size="10.00">+ clearCustomBlockData()</text>
<text text-anchor="start" x="63" y="-351.5" font-family="Helvetica,sans-Serif" font-size="10.00">+ clearCustomName()</text>
<text text-anchor="start" x="63" y="-340.5" font-family="Helvetica,sans-Serif" font-size="10.00">+ clearNamedTag()</text>
<text text-anchor="start" x="63" y="-329.5" font-family="Helvetica,sans-Serif" font-size="10.00">+ computeTypeData()</text>
<text text-anchor="start" x="63" y="-318.5" font-family="Helvetica,sans-Serif" font-size="10.00">+ equals()</text>
<text text-anchor="start" x="63" y="-307.5" font-family="Helvetica,sans-Serif" font-size="10.00">and 40 more...</text>
<text text-anchor="start" x="63" y="-296.5" font-family="Helvetica,sans-Serif" font-size="10.00">+ legacyJsonDeserialize()</text>
<text text-anchor="start" x="63" y="-285.5" font-family="Helvetica,sans-Serif" font-size="10.00">+ nbtDeserialize()</text>
<text text-anchor="start" x="63" y="-274.5" font-family="Helvetica,sans-Serif" font-size="10.00"># deserializeCompoundTag()</text>
<text text-anchor="start" x="63" y="-263.5" font-family="Helvetica,sans-Serif" font-size="10.00"># encodeType()</text>
<text text-anchor="start" x="63" y="-252.5" font-family="Helvetica,sans-Serif" font-size="10.00"># serializeCompoundTag()</text>
</a>
</g>
</g>
<!-- Node3&#45;&gt;Node2 -->
<g id="edge2" class="edge">
<title>Node3&#45;&gt;Node2</title>
<path fill="none" stroke="midnightblue" d="M134,-235.41C134,-225.53 134,-216.18 134,-207.77"/>
<polygon fill="none" stroke="midnightblue" points="130.5,-235.45 134,-245.45 137.5,-235.45 130.5,-235.45"/>
</g>
<!-- Node4 -->
<g id="node4" class="node">
<title>Node4</title>
<g id="a_node4"><a xlink:title=" ">
<polygon fill="white" stroke="#bfbfbf" points="0,-691.5 0,-748.5 94,-748.5 94,-691.5 0,-691.5"/>
<text text-anchor="middle" x="47" y="-736.5" font-family="Helvetica,sans-Serif" font-size="10.00">JsonSerializable</text>
<polyline fill="none" stroke="#bfbfbf" points="0,-729.5 94,-729.5 "/>
<text text-anchor="middle" x="47" y="-717.5" font-family="Helvetica,sans-Serif" font-size="10.00"> </text>
<polyline fill="none" stroke="#bfbfbf" points="0,-710.5 94,-710.5 "/>
<text text-anchor="middle" x="47" y="-698.5" font-family="Helvetica,sans-Serif" font-size="10.00"> </text>
</a>
</g>
</g>
<!-- Node4&#45;&gt;Node3 -->
<g id="edge3" class="edge">
<title>Node4&#45;&gt;Node3</title>
<path fill="none" stroke="midnightblue" d="M56.63,-681.41C67.12,-640.49 84.49,-572.71 100.11,-511.74"/>
<polygon fill="none" stroke="midnightblue" points="53.21,-680.66 54.12,-691.22 59.99,-682.4 53.21,-680.66"/>
</g>
<!-- Node5 -->
<g id="node5" class="node">
<title>Node5</title>
<g id="a_node5"><a xlink:title=" ">
<polygon fill="white" stroke="#bfbfbf" points="112.5,-691.5 112.5,-748.5 155.5,-748.5 155.5,-691.5 112.5,-691.5"/>
<text text-anchor="middle" x="134" y="-736.5" font-family="Helvetica,sans-Serif" font-size="10.00">const</text>
<polyline fill="none" stroke="#bfbfbf" points="112.5,-729.5 155.5,-729.5 "/>
<text text-anchor="middle" x="134" y="-717.5" font-family="Helvetica,sans-Serif" font-size="10.00"> </text>
<polyline fill="none" stroke="#bfbfbf" points="112.5,-710.5 155.5,-710.5 "/>
<text text-anchor="middle" x="134" y="-698.5" font-family="Helvetica,sans-Serif" font-size="10.00"> </text>
</a>
</g>
</g>
<!-- Node5&#45;&gt;Node3 -->
<g id="edge4" class="edge">
<title>Node5&#45;&gt;Node3</title>
<path fill="none" stroke="#404040" d="M134,-691.22C134,-654.4 134,-586.73 134,-523.83"/>
<polygon fill="none" stroke="#404040" points="134,-523.74 130,-517.74 134,-511.74 138,-517.74 134,-523.74"/>
<text text-anchor="middle" x="201" y="-577" font-family="Helvetica,sans-Serif" font-size="10.00"> +TAG_BLOCK_ENTITY_TAG</text>
<text text-anchor="middle" x="201" y="-566" font-family="Helvetica,sans-Serif" font-size="10.00">+TAG_DISPLAY</text>
<text text-anchor="middle" x="201" y="-555" font-family="Helvetica,sans-Serif" font-size="10.00">+TAG_DISPLAY_LORE</text>
<text text-anchor="middle" x="201" y="-544" font-family="Helvetica,sans-Serif" font-size="10.00">+TAG_DISPLAY_NAME</text>
<text text-anchor="middle" x="201" y="-533" font-family="Helvetica,sans-Serif" font-size="10.00">+TAG_ENCH</text>
</g>
<!-- Node6 -->
<g id="node6" class="node">
<title>Node6</title>
<g id="a_node6"><a xlink:href="../../de/d67/classpocketmine_1_1nbt_1_1tag_1_1_compound_tag.html" target="_top" xlink:title=" ">
<polygon fill="white" stroke="black" points="231,-603.5 231,-836.5 351,-836.5 351,-603.5 231,-603.5"/>
<text text-anchor="start" x="239" y="-824.5" font-family="Helvetica,sans-Serif" font-size="10.00">pocketmine\nbt\tag</text>
<text text-anchor="middle" x="291" y="-813.5" font-family="Helvetica,sans-Serif" font-size="10.00">\CompoundTag</text>
<polyline fill="none" stroke="black" points="231,-806.5 351,-806.5 "/>
<text text-anchor="middle" x="291" y="-794.5" font-family="Helvetica,sans-Serif" font-size="10.00"> </text>
<polyline fill="none" stroke="black" points="231,-787.5 351,-787.5 "/>
<text text-anchor="start" x="239" y="-775.5" font-family="Helvetica,sans-Serif" font-size="10.00">+ __construct()</text>
<text text-anchor="start" x="239" y="-764.5" font-family="Helvetica,sans-Serif" font-size="10.00">+ __clone()</text>
<text text-anchor="start" x="239" y="-753.5" font-family="Helvetica,sans-Serif" font-size="10.00">+ count()</text>
<text text-anchor="start" x="239" y="-742.5" font-family="Helvetica,sans-Serif" font-size="10.00">+ equals()</text>
<text text-anchor="start" x="239" y="-731.5" font-family="Helvetica,sans-Serif" font-size="10.00">+ getByte()</text>
<text text-anchor="start" x="239" y="-720.5" font-family="Helvetica,sans-Serif" font-size="10.00">+ getByteArray()</text>
<text text-anchor="start" x="239" y="-709.5" font-family="Helvetica,sans-Serif" font-size="10.00">+ getCompoundTag()</text>
<text text-anchor="start" x="239" y="-698.5" font-family="Helvetica,sans-Serif" font-size="10.00">+ getCount()</text>
<text text-anchor="start" x="239" y="-687.5" font-family="Helvetica,sans-Serif" font-size="10.00">+ getDouble()</text>
<text text-anchor="start" x="239" y="-676.5" font-family="Helvetica,sans-Serif" font-size="10.00">+ getFloat()</text>
<text text-anchor="start" x="239" y="-665.5" font-family="Helvetica,sans-Serif" font-size="10.00">and 23 more...</text>
<text text-anchor="start" x="239" y="-654.5" font-family="Helvetica,sans-Serif" font-size="10.00">+ create()</text>
<text text-anchor="start" x="239" y="-643.5" font-family="Helvetica,sans-Serif" font-size="10.00">+ read()</text>
<text text-anchor="start" x="239" y="-632.5" font-family="Helvetica,sans-Serif" font-size="10.00"># getTypeName()</text>
<text text-anchor="start" x="239" y="-621.5" font-family="Helvetica,sans-Serif" font-size="10.00"># makeCopy()</text>
<text text-anchor="start" x="239" y="-610.5" font-family="Helvetica,sans-Serif" font-size="10.00"># stringifyValue()</text>
</a>
</g>
</g>
<!-- Node6&#45;&gt;Node3 -->
<g id="edge5" class="edge">
<title>Node6&#45;&gt;Node3</title>
<path fill="none" stroke="#404040" d="M288.83,-603.03C285.29,-578.16 279.18,-552.59 269,-530 257.45,-504.38 239.92,-480.07 221.28,-458.75"/>
<polygon fill="none" stroke="#404040" points="221.26,-458.72 214.27,-456.93 213.24,-449.8 220.23,-451.59 221.26,-458.72"/>
<text text-anchor="middle" x="330.5" y="-555" font-family="Helvetica,sans-Serif" font-size="10.00"> #$blockEntityTag</text>
</g>
<!-- Node7 -->
<g id="node7" class="node">
<title>Node7</title>
<g id="a_node7"><a xlink:href="../../dc/d26/classpocketmine_1_1nbt_1_1tag_1_1_tag.html" target="_top" xlink:title=" ">
<polygon fill="white" stroke="#bfbfbf" points="108.5,-874.5 108.5,-1041.5 239.5,-1041.5 239.5,-874.5 108.5,-874.5"/>
<text text-anchor="middle" x="174" y="-1029.5" font-family="Helvetica,sans-Serif" font-size="10.00">pocketmine\nbt\tag\Tag</text>
<polyline fill="none" stroke="#bfbfbf" points="108.5,-1022.5 239.5,-1022.5 "/>
<text text-anchor="start" x="116.5" y="-1010.5" font-family="Helvetica,sans-Serif" font-size="10.00"># $cloning</text>
<polyline fill="none" stroke="#bfbfbf" points="108.5,-1003.5 239.5,-1003.5 "/>
<text text-anchor="start" x="116.5" y="-991.5" font-family="Helvetica,sans-Serif" font-size="10.00">+ __toString()</text>
<text text-anchor="start" x="116.5" y="-980.5" font-family="Helvetica,sans-Serif" font-size="10.00">+ equals()</text>
<text text-anchor="start" x="116.5" y="-969.5" font-family="Helvetica,sans-Serif" font-size="10.00">+ getType()</text>
<text text-anchor="start" x="116.5" y="-958.5" font-family="Helvetica,sans-Serif" font-size="10.00">+ getValue()</text>
<text text-anchor="start" x="116.5" y="-947.5" font-family="Helvetica,sans-Serif" font-size="10.00">+ safeClone()</text>
<text text-anchor="start" x="116.5" y="-936.5" font-family="Helvetica,sans-Serif" font-size="10.00">+ toString()</text>
<text text-anchor="start" x="116.5" y="-925.5" font-family="Helvetica,sans-Serif" font-size="10.00">+ write()</text>
<text text-anchor="start" x="116.5" y="-914.5" font-family="Helvetica,sans-Serif" font-size="10.00"># getTypeName()</text>
<text text-anchor="start" x="116.5" y="-903.5" font-family="Helvetica,sans-Serif" font-size="10.00"># makeCopy()</text>
<text text-anchor="start" x="116.5" y="-892.5" font-family="Helvetica,sans-Serif" font-size="10.00"># stringifyValue()</text>
<text text-anchor="start" x="116.5" y="-881.5" font-family="Helvetica,sans-Serif" font-size="10.00"># restrictArgCount()</text>
</a>
</g>
</g>
<!-- Node7&#45;&gt;Node6 -->
<g id="edge6" class="edge">
<title>Node7&#45;&gt;Node6</title>
<path fill="none" stroke="midnightblue" d="M219.37,-865.48C224.05,-856.04 228.85,-846.35 233.65,-836.69"/>
<polygon fill="none" stroke="midnightblue" points="216.23,-863.94 214.92,-874.46 222.5,-867.05 216.23,-863.94"/>
</g>
<!-- Node8 -->
<g id="node8" class="node">
<title>Node8</title>
<g id="a_node8"><a xlink:title=" ">
<polygon fill="white" stroke="#bfbfbf" points="258,-929.5 258,-986.5 324,-986.5 324,-929.5 258,-929.5"/>
<text text-anchor="middle" x="291" y="-974.5" font-family="Helvetica,sans-Serif" font-size="10.00">Countable</text>
<polyline fill="none" stroke="#bfbfbf" points="258,-967.5 324,-967.5 "/>
<text text-anchor="middle" x="291" y="-955.5" font-family="Helvetica,sans-Serif" font-size="10.00"> </text>
<polyline fill="none" stroke="#bfbfbf" points="258,-948.5 324,-948.5 "/>
<text text-anchor="middle" x="291" y="-936.5" font-family="Helvetica,sans-Serif" font-size="10.00"> </text>
</a>
</g>
</g>
<!-- Node8&#45;&gt;Node6 -->
<g id="edge7" class="edge">
<title>Node8&#45;&gt;Node6</title>
<path fill="none" stroke="midnightblue" d="M291,-919.32C291,-896.7 291,-866.6 291,-836.69"/>
<polygon fill="none" stroke="midnightblue" points="287.5,-919.47 291,-929.47 294.5,-919.47 287.5,-919.47"/>
</g>
<!-- Node9 -->
<g id="node9" class="node">
<title>Node9</title>
<g id="a_node9"><a xlink:title=" ">
<polygon fill="white" stroke="#bfbfbf" points="342.5,-929.5 342.5,-986.5 445.5,-986.5 445.5,-929.5 342.5,-929.5"/>
<text text-anchor="middle" x="394" y="-974.5" font-family="Helvetica,sans-Serif" font-size="10.00">IteratorAggregate</text>
<polyline fill="none" stroke="#bfbfbf" points="342.5,-967.5 445.5,-967.5 "/>
<text text-anchor="middle" x="394" y="-955.5" font-family="Helvetica,sans-Serif" font-size="10.00"> </text>
<polyline fill="none" stroke="#bfbfbf" points="342.5,-948.5 445.5,-948.5 "/>
<text text-anchor="middle" x="394" y="-936.5" font-family="Helvetica,sans-Serif" font-size="10.00"> </text>
</a>
</g>
</g>
<!-- Node9&#45;&gt;Node6 -->
<g id="edge8" class="edge">
<title>Node9&#45;&gt;Node6</title>
<path fill="none" stroke="midnightblue" d="M377.95,-920.23C368.04,-897.52 354.72,-867 341.49,-836.69"/>
<polygon fill="none" stroke="midnightblue" points="374.78,-921.7 381.98,-929.47 381.19,-918.9 374.78,-921.7"/>
</g>
</g>
</svg>
