<?xml version="1.0" encoding="UTF-8" standalone="no"?>
<!DOCTYPE svg PUBLIC "-//W3C//DTD SVG 1.1//EN"
 "http://www.w3.org/Graphics/SVG/1.1/DTD/svg11.dtd">
<!-- Generated by graphviz version 2.43.0 (0)
 -->
<!-- Title: pocketmine\block\inventory\window\LoomInventoryWindow Pages: 1 -->
<svg width="350pt" height="395pt"
 viewBox="0.00 0.00 349.50 395.00" xmlns="http://www.w3.org/2000/svg" xmlns:xlink="http://www.w3.org/1999/xlink">
<g id="graph0" class="graph" transform="scale(1 1) rotate(0) translate(4 391)">
<title>pocketmine\block\inventory\window\LoomInventoryWindow</title>
<!-- Node1 -->
<g id="Node000001" class="node">
<title>Node1</title>
<g id="a_Node000001"><a xlink:title=" ">
<polygon fill="#999999" stroke="transparent" points="257,-90 90,-90 90,0 257,0 257,-90"/>
<text text-anchor="start" x="95.5" y="-78" font-family="Helvetica,sans-Serif" font-size="10.00">pocketmine\block\inventory</text>
<text text-anchor="start" x="95.5" y="-67" font-family="Helvetica,sans-Serif" font-size="10.00">\window\LoomInventoryWindow</text>
<text text-anchor="start" x="112.5" y="-52" font-family="Helvetica,sans-Serif" font-size="10.00">+</text>
<text text-anchor="start" x="143.5" y="-52" font-family="Helvetica,sans-Serif" font-size="10.00">SLOT_BANNER</text>
<text text-anchor="start" x="112.5" y="-37" font-family="Helvetica,sans-Serif" font-size="10.00">+</text>
<text text-anchor="start" x="143.5" y="-37" font-family="Helvetica,sans-Serif" font-size="10.00">SLOT_DYE</text>
<text text-anchor="start" x="112.5" y="-22" font-family="Helvetica,sans-Serif" font-size="10.00">+</text>
<text text-anchor="start" x="143.5" y="-22" font-family="Helvetica,sans-Serif" font-size="10.00">SLOT_PATTERN</text>
<text text-anchor="start" x="112.5" y="-7" font-family="Helvetica,sans-Serif" font-size="10.00">+</text>
<text text-anchor="start" x="143.5" y="-7" font-family="Helvetica,sans-Serif" font-size="10.00">__construct()</text>
<polygon fill="#666666" stroke="#666666" points="90.5,-62 90.5,-62 257.5,-62 257.5,-62 90.5,-62"/>
<polygon fill="#666666" stroke="#666666" points="90.5,-17 90.5,-17 141.5,-17 141.5,-17 90.5,-17"/>
<polygon fill="#666666" stroke="#666666" points="141.5,-17 141.5,-17 257.5,-17 257.5,-17 141.5,-17"/>
<polygon fill="none" stroke="#666666" points="90,0 90,-90 257,-90 257,0 90,0"/>
</a>
</g>
</g>
<!-- Node2 -->
<g id="Node000002" class="node">
<title>Node2</title>
<g id="a_Node000002"><a xlink:href="../../d6/dc8/classpocketmine_1_1block_1_1inventory_1_1window_1_1_block_inventory_window.html" target="_top" xlink:title=" ">
<polygon fill="white" stroke="transparent" points="167,-231 0,-231 0,-126 167,-126 167,-231"/>
<text text-anchor="start" x="5.5" y="-218.5" font-family="Helvetica,sans-Serif" font-size="10.00">pocketmine\block\inventory</text>
<text text-anchor="start" x="5.5" y="-207.5" font-family="Helvetica,sans-Serif" font-size="10.00">\window\BlockInventoryWindow</text>
<text text-anchor="start" x="82" y="-192.5" font-family="Helvetica,sans-Serif" font-size="10.00"> </text>
<text text-anchor="start" x="25" y="-177.5" font-family="Helvetica,sans-Serif" font-size="10.00">+</text>
<text text-anchor="start" x="58.5" y="-177.5" font-family="Helvetica,sans-Serif" font-size="10.00">__construct()</text>
<text text-anchor="start" x="25" y="-162.5" font-family="Helvetica,sans-Serif" font-size="10.00">+</text>
<text text-anchor="start" x="58.5" y="-162.5" font-family="Helvetica,sans-Serif" font-size="10.00">getHolder()</text>
<text text-anchor="start" x="25" y="-147.5" font-family="Helvetica,sans-Serif" font-size="10.00">+</text>
<text text-anchor="start" x="58.5" y="-147.5" font-family="Helvetica,sans-Serif" font-size="10.00">onClose()</text>
<text text-anchor="start" x="25" y="-132.5" font-family="Helvetica,sans-Serif" font-size="10.00">+</text>
<text text-anchor="start" x="58.5" y="-132.5" font-family="Helvetica,sans-Serif" font-size="10.00">onOpen()</text>
<polygon fill="#bfbfbf" stroke="#bfbfbf" points="0.5,-202.5 0.5,-202.5 167.5,-202.5 167.5,-202.5 0.5,-202.5"/>
<polygon fill="#bfbfbf" stroke="#bfbfbf" points="0.5,-187.5 0.5,-187.5 167.5,-187.5 167.5,-187.5 0.5,-187.5"/>
<polygon fill="none" stroke="#bfbfbf" points="0,-126 0,-231 167,-231 167,-126 0,-126"/>
</a>
</g>
</g>
<!-- Node2&#45;&gt;Node1 -->
<g id="edge1_Node000001_Node000002" class="edge">
<title>Node2&#45;&gt;Node1</title>
<g id="a_edge1_Node000001_Node000002"><a xlink:title=" ">
<path fill="none" stroke="#63b8ff" d="M124.55,-117.52C130.84,-108.33 137.24,-98.98 143.24,-90.21"/>
<polygon fill="none" stroke="#63b8ff" points="121.57,-115.68 118.81,-125.91 127.35,-119.63 121.57,-115.68"/>
</a>
</g>
</g>
<!-- Node3 -->
<g id="Node000003" class="node">
<title>Node3</title>
<g id="a_Node000003"><a xlink:href="../../d4/d5e/classpocketmine_1_1player_1_1_inventory_window.html" target="_top" xlink:title=" ">
<polygon fill="white" stroke="transparent" points="159,-387 8,-387 8,-267 159,-267 159,-387"/>
<text text-anchor="start" x="13.5" y="-375" font-family="Helvetica,sans-Serif" font-size="10.00">pocketmine\player\Inventory</text>
<text text-anchor="start" x="64" y="-364" font-family="Helvetica,sans-Serif" font-size="10.00">Window</text>
<text text-anchor="start" x="82" y="-349" font-family="Helvetica,sans-Serif" font-size="10.00"> </text>
<text text-anchor="start" x="27.5" y="-334" font-family="Helvetica,sans-Serif" font-size="10.00">+</text>
<text text-anchor="start" x="55.5" y="-334" font-family="Helvetica,sans-Serif" font-size="10.00">__construct()</text>
<text text-anchor="start" x="27.5" y="-319" font-family="Helvetica,sans-Serif" font-size="10.00">+</text>
<text text-anchor="start" x="55.5" y="-319" font-family="Helvetica,sans-Serif" font-size="10.00">getInventory()</text>
<text text-anchor="start" x="27.5" y="-304" font-family="Helvetica,sans-Serif" font-size="10.00">+</text>
<text text-anchor="start" x="55.5" y="-304" font-family="Helvetica,sans-Serif" font-size="10.00">getViewer()</text>
<text text-anchor="start" x="27.5" y="-289" font-family="Helvetica,sans-Serif" font-size="10.00">+</text>
<text text-anchor="start" x="55.5" y="-289" font-family="Helvetica,sans-Serif" font-size="10.00">onClose()</text>
<text text-anchor="start" x="27.5" y="-274" font-family="Helvetica,sans-Serif" font-size="10.00">+</text>
<text text-anchor="start" x="55.5" y="-274" font-family="Helvetica,sans-Serif" font-size="10.00">onOpen()</text>
<polygon fill="#bfbfbf" stroke="#bfbfbf" points="8.5,-359 8.5,-359 159.5,-359 159.5,-359 8.5,-359"/>
<polygon fill="#bfbfbf" stroke="#bfbfbf" points="8.5,-344 8.5,-344 159.5,-344 159.5,-344 8.5,-344"/>
<polygon fill="none" stroke="#bfbfbf" points="8,-267 8,-387 159,-387 159,-267 8,-267"/>
</a>
</g>
</g>
<!-- Node3&#45;&gt;Node2 -->
<g id="edge2_Node000002_Node000003" class="edge">
<title>Node3&#45;&gt;Node2</title>
<g id="a_edge2_Node000002_Node000003"><a xlink:title=" ">
<path fill="none" stroke="#63b8ff" d="M83.5,-256.83C83.5,-248.25 83.5,-239.6 83.5,-231.34"/>
<polygon fill="none" stroke="#63b8ff" points="80,-256.84 83.5,-266.84 87,-256.84 80,-256.84"/>
</a>
</g>
</g>
<!-- Node4 -->
<g id="Node000004" class="node">
<title>Node4</title>
<g id="a_Node000004"><a xlink:href="../../d6/d8d/interfacepocketmine_1_1player_1_1_temporary_inventory_window.html" target="_top" xlink:title=" ">
<polygon fill="white" stroke="transparent" points="341.5,-208.5 185.5,-208.5 185.5,-148.5 341.5,-148.5 341.5,-208.5"/>
<text text-anchor="start" x="190.5" y="-196.5" font-family="Helvetica,sans-Serif" font-size="10.00">pocketmine\player\Temporary</text>
<text text-anchor="start" x="220.5" y="-185.5" font-family="Helvetica,sans-Serif" font-size="10.00">InventoryWindow</text>
<text text-anchor="start" x="261.5" y="-170.5" font-family="Helvetica,sans-Serif" font-size="10.00"> </text>
<text text-anchor="start" x="261.5" y="-155.5" font-family="Helvetica,sans-Serif" font-size="10.00"> </text>
<polygon fill="#bfbfbf" stroke="#bfbfbf" points="185.5,-180.5 185.5,-180.5 341.5,-180.5 341.5,-180.5 185.5,-180.5"/>
<polygon fill="#bfbfbf" stroke="#bfbfbf" points="185.5,-165.5 185.5,-165.5 341.5,-165.5 341.5,-165.5 185.5,-165.5"/>
<polygon fill="none" stroke="#bfbfbf" points="185.5,-148.5 185.5,-208.5 341.5,-208.5 341.5,-148.5 185.5,-148.5"/>
</a>
</g>
</g>
<!-- Node4&#45;&gt;Node1 -->
<g id="edge3_Node000001_Node000004" class="edge">
<title>Node4&#45;&gt;Node1</title>
<g id="a_edge3_Node000001_Node000004"><a xlink:title=" ">
<path fill="none" stroke="#63b8ff" d="M237.82,-139.97C227.18,-124.43 214.76,-106.28 203.68,-90.1"/>
<polygon fill="none" stroke="#63b8ff" points="234.99,-142.04 243.53,-148.32 240.77,-138.09 234.99,-142.04"/>
</a>
</g>
</g>
</g>
</svg>
