<?xml version="1.0" encoding="UTF-8" standalone="no"?>
<!DOCTYPE svg PUBLIC "-//W3C//DTD SVG 1.1//EN"
 "http://www.w3.org/Graphics/SVG/1.1/DTD/svg11.dtd">
<!-- Generated by graphviz version 2.43.0 (0)
 -->
<!-- Title: pocketmine\updater\UpdateChecker Pages: 1 -->
<svg width="268pt" height="639pt"
 viewBox="0.00 0.00 267.50 639.00" xmlns="http://www.w3.org/2000/svg" xmlns:xlink="http://www.w3.org/1999/xlink">
<g id="graph0" class="graph" transform="scale(1 1) rotate(0) translate(4 635)">
<title>pocketmine\updater\UpdateChecker</title>
<polygon fill="white" stroke="transparent" points="-4,4 -4,-635 263.5,-635 263.5,4 -4,4"/>
<!-- Node1 -->
<g id="node1" class="node">
<title>Node1</title>
<g id="a_node1"><a xlink:title=" ">
<polygon fill="#bfbfbf" stroke="black" points="41,-0.5 41,-200.5 226,-200.5 226,-0.5 41,-0.5"/>
<text text-anchor="start" x="49" y="-188.5" font-family="Helvetica,sans-Serif" font-size="10.00">pocketmine\updater</text>
<text text-anchor="middle" x="133.5" y="-177.5" font-family="Helvetica,sans-Serif" font-size="10.00">\UpdateChecker</text>
<polyline fill="none" stroke="black" points="41,-170.5 226,-170.5 "/>
<text text-anchor="start" x="49" y="-158.5" font-family="Helvetica,sans-Serif" font-size="10.00"># $endpoint</text>
<polyline fill="none" stroke="black" points="41,-151.5 226,-151.5 "/>
<text text-anchor="start" x="49" y="-139.5" font-family="Helvetica,sans-Serif" font-size="10.00">+ __construct()</text>
<text text-anchor="start" x="49" y="-128.5" font-family="Helvetica,sans-Serif" font-size="10.00">+ checkUpdateCallback()</text>
<text text-anchor="start" x="49" y="-117.5" font-family="Helvetica,sans-Serif" font-size="10.00">+ checkUpdateError()</text>
<text text-anchor="start" x="49" y="-106.5" font-family="Helvetica,sans-Serif" font-size="10.00">+ doCheck()</text>
<text text-anchor="start" x="49" y="-95.5" font-family="Helvetica,sans-Serif" font-size="10.00">+ getChannel()</text>
<text text-anchor="start" x="49" y="-84.5" font-family="Helvetica,sans-Serif" font-size="10.00">+ getEndpoint()</text>
<text text-anchor="start" x="49" y="-73.5" font-family="Helvetica,sans-Serif" font-size="10.00">+ getUpdateInfo()</text>
<text text-anchor="start" x="49" y="-62.5" font-family="Helvetica,sans-Serif" font-size="10.00">+ hasUpdate()</text>
<text text-anchor="start" x="49" y="-51.5" font-family="Helvetica,sans-Serif" font-size="10.00">+ showConsoleUpdate()</text>
<text text-anchor="start" x="49" y="-40.5" font-family="Helvetica,sans-Serif" font-size="10.00"># checkUpdate()</text>
<text text-anchor="start" x="49" y="-29.5" font-family="Helvetica,sans-Serif" font-size="10.00"># printConsoleMessage()</text>
<text text-anchor="start" x="49" y="-18.5" font-family="Helvetica,sans-Serif" font-size="10.00"># showChannelSuggestionBeta()</text>
<text text-anchor="start" x="49" y="-7.5" font-family="Helvetica,sans-Serif" font-size="10.00"># showChannelSuggestionStable()</text>
</a>
</g>
</g>
<!-- Node2 -->
<g id="node2" class="node">
<title>Node2</title>
<g id="a_node2"><a xlink:href="../../d5/df7/classpocketmine_1_1_server.html" target="_top" xlink:title=" ">
<polygon fill="white" stroke="black" points="0,-248.5 0,-426.5 127,-426.5 127,-248.5 0,-248.5"/>
<text text-anchor="middle" x="63.5" y="-414.5" font-family="Helvetica,sans-Serif" font-size="10.00">pocketmine\Server</text>
<polyline fill="none" stroke="black" points="0,-407.5 127,-407.5 "/>
<text text-anchor="middle" x="63.5" y="-395.5" font-family="Helvetica,sans-Serif" font-size="10.00"> </text>
<polyline fill="none" stroke="black" points="0,-388.5 127,-388.5 "/>
<text text-anchor="start" x="8" y="-376.5" font-family="Helvetica,sans-Serif" font-size="10.00">+ __construct()</text>
<text text-anchor="start" x="8" y="-365.5" font-family="Helvetica,sans-Serif" font-size="10.00">+ __debugInfo()</text>
<text text-anchor="start" x="8" y="-354.5" font-family="Helvetica,sans-Serif" font-size="10.00">+ addOnlinePlayer()</text>
<text text-anchor="start" x="8" y="-343.5" font-family="Helvetica,sans-Serif" font-size="10.00">+ addOp()</text>
<text text-anchor="start" x="8" y="-332.5" font-family="Helvetica,sans-Serif" font-size="10.00">+ addWhitelist()</text>
<text text-anchor="start" x="8" y="-321.5" font-family="Helvetica,sans-Serif" font-size="10.00">+ broadcastMessage()</text>
<text text-anchor="start" x="8" y="-310.5" font-family="Helvetica,sans-Serif" font-size="10.00">+ broadcastPackets()</text>
<text text-anchor="start" x="8" y="-299.5" font-family="Helvetica,sans-Serif" font-size="10.00">+ broadcastPopup()</text>
<text text-anchor="start" x="8" y="-288.5" font-family="Helvetica,sans-Serif" font-size="10.00">+ broadcastTip()</text>
<text text-anchor="start" x="8" y="-277.5" font-family="Helvetica,sans-Serif" font-size="10.00">+ broadcastTitle()</text>
<text text-anchor="start" x="8" y="-266.5" font-family="Helvetica,sans-Serif" font-size="10.00">and 81 more...</text>
<text text-anchor="start" x="8" y="-255.5" font-family="Helvetica,sans-Serif" font-size="10.00">+ getInstance()</text>
</a>
</g>
</g>
<!-- Node2&#45;&gt;Node1 -->
<g id="edge1" class="edge">
<title>Node2&#45;&gt;Node1</title>
<path fill="none" stroke="#404040" d="M89.76,-248.33C93.26,-236.58 96.89,-224.42 100.48,-212.35"/>
<polygon fill="none" stroke="#404040" points="100.49,-212.33 98.37,-205.43 103.91,-200.82 106.03,-207.72 100.49,-212.33"/>
<text text-anchor="middle" x="123" y="-222" font-family="Helvetica,sans-Serif" font-size="10.00"> #$server</text>
</g>
<!-- Node3 -->
<g id="node3" class="node">
<title>Node3</title>
<g id="a_node3"><a xlink:title=" ">
<polygon fill="white" stroke="#bfbfbf" points="42,-573.5 42,-630.5 85,-630.5 85,-573.5 42,-573.5"/>
<text text-anchor="middle" x="63.5" y="-618.5" font-family="Helvetica,sans-Serif" font-size="10.00">const</text>
<polyline fill="none" stroke="#bfbfbf" points="42,-611.5 85,-611.5 "/>
<text text-anchor="middle" x="63.5" y="-599.5" font-family="Helvetica,sans-Serif" font-size="10.00"> </text>
<polyline fill="none" stroke="#bfbfbf" points="42,-592.5 85,-592.5 "/>
<text text-anchor="middle" x="63.5" y="-580.5" font-family="Helvetica,sans-Serif" font-size="10.00"> </text>
</a>
</g>
</g>
<!-- Node3&#45;&gt;Node2 -->
<g id="edge2" class="edge">
<title>Node3&#45;&gt;Node2</title>
<path fill="none" stroke="#404040" d="M63.5,-573.4C63.5,-541.49 63.5,-487.13 63.5,-438.73"/>
<polygon fill="none" stroke="#404040" points="63.5,-438.57 59.5,-432.57 63.5,-426.57 67.5,-432.57 63.5,-438.57"/>
<text text-anchor="start" x="63.5" y="-547" font-family="Helvetica,sans-Serif" font-size="10.00"> +BROADCAST_CHANNEL</text>
<text text-anchor="middle" x="128.5" y="-536" font-family="Helvetica,sans-Serif" font-size="10.00">_ADMINISTRATIVE</text>
<text text-anchor="start" x="63.5" y="-525" font-family="Helvetica,sans-Serif" font-size="10.00">+BROADCAST_CHANNEL</text>
<text text-anchor="middle" x="128.5" y="-514" font-family="Helvetica,sans-Serif" font-size="10.00">_USERS</text>
<text text-anchor="middle" x="128.5" y="-503" font-family="Helvetica,sans-Serif" font-size="10.00">+DEFAULT_MAX_PLAYERS</text>
<text text-anchor="start" x="63.5" y="-492" font-family="Helvetica,sans-Serif" font-size="10.00">+DEFAULT_MAX_VIEW</text>
<text text-anchor="middle" x="128.5" y="-481" font-family="Helvetica,sans-Serif" font-size="10.00">_DISTANCE</text>
<text text-anchor="middle" x="128.5" y="-470" font-family="Helvetica,sans-Serif" font-size="10.00">+DEFAULT_PORT_IPV4</text>
<text text-anchor="middle" x="128.5" y="-459" font-family="Helvetica,sans-Serif" font-size="10.00">+DEFAULT_PORT_IPV6</text>
<text text-anchor="middle" x="128.5" y="-448" font-family="Helvetica,sans-Serif" font-size="10.00">+DEFAULT_SERVER_NAME</text>
</g>
<!-- Node4 -->
<g id="node4" class="node">
<title>Node4</title>
<g id="a_node4"><a xlink:href="../../d8/d4e/classpocketmine_1_1updater_1_1_update_info.html" target="_top" xlink:title=" ">
<polygon fill="white" stroke="black" points="145.5,-248.5 145.5,-426.5 259.5,-426.5 259.5,-248.5 145.5,-248.5"/>
<text text-anchor="start" x="153.5" y="-414.5" font-family="Helvetica,sans-Serif" font-size="10.00">pocketmine\updater</text>
<text text-anchor="middle" x="202.5" y="-403.5" font-family="Helvetica,sans-Serif" font-size="10.00">\UpdateInfo</text>
<polyline fill="none" stroke="black" points="145.5,-396.5 259.5,-396.5 "/>
<text text-anchor="start" x="153.5" y="-384.5" font-family="Helvetica,sans-Serif" font-size="10.00">+ $base_version</text>
<text text-anchor="start" x="153.5" y="-373.5" font-family="Helvetica,sans-Serif" font-size="10.00">+ $build</text>
<text text-anchor="start" x="153.5" y="-362.5" font-family="Helvetica,sans-Serif" font-size="10.00">+ $channel</text>
<text text-anchor="start" x="153.5" y="-351.5" font-family="Helvetica,sans-Serif" font-size="10.00">+ $date</text>
<text text-anchor="start" x="153.5" y="-340.5" font-family="Helvetica,sans-Serif" font-size="10.00">+ $details_url</text>
<text text-anchor="start" x="153.5" y="-329.5" font-family="Helvetica,sans-Serif" font-size="10.00">+ $download_url</text>
<text text-anchor="start" x="153.5" y="-318.5" font-family="Helvetica,sans-Serif" font-size="10.00">+ $git_commit</text>
<text text-anchor="start" x="153.5" y="-307.5" font-family="Helvetica,sans-Serif" font-size="10.00">+ $is_dev</text>
<text text-anchor="start" x="153.5" y="-296.5" font-family="Helvetica,sans-Serif" font-size="10.00">+ $mcpe_version</text>
<text text-anchor="start" x="153.5" y="-285.5" font-family="Helvetica,sans-Serif" font-size="10.00">+ $php_version</text>
<text text-anchor="start" x="153.5" y="-274.5" font-family="Helvetica,sans-Serif" font-size="10.00">+ $source_url</text>
<polyline fill="none" stroke="black" points="145.5,-267.5 259.5,-267.5 "/>
<text text-anchor="middle" x="202.5" y="-255.5" font-family="Helvetica,sans-Serif" font-size="10.00"> </text>
</a>
</g>
</g>
<!-- Node4&#45;&gt;Node1 -->
<g id="edge3" class="edge">
<title>Node4&#45;&gt;Node1</title>
<path fill="none" stroke="#404040" d="M176.61,-248.33C173.16,-236.58 169.59,-224.42 166.05,-212.35"/>
<polygon fill="none" stroke="#404040" points="166.04,-212.34 160.52,-207.71 162.66,-200.82 168.19,-205.45 166.04,-212.34"/>
<text text-anchor="middle" x="204.5" y="-222" font-family="Helvetica,sans-Serif" font-size="10.00"> #$updateInfo</text>
</g>
</g>
</svg>
