<?xml version="1.0" encoding="UTF-8" standalone="no"?>
<!DOCTYPE svg PUBLIC "-//W3C//DTD SVG 1.1//EN"
 "http://www.w3.org/Graphics/SVG/1.1/DTD/svg11.dtd">
<!-- Generated by graphviz version 2.43.0 (0)
 -->
<!-- Title: pocketmine\command\CommandSender Pages: 1 -->
<!--zoomable 1036 -->

<svg id="main" version="1.1" xmlns="http://www.w3.org/2000/svg" xmlns:xlink="http://www.w3.org/1999/xlink" xml:space="preserve" onload="init(evt)">

<style type="text/css"><![CDATA[
.node, .edge {opacity: 0.7;}
.node.selected, .edge.selected {opacity: 1;}
.edge:hover path { stroke: red; }
.edge:hover polygon { stroke: red; fill: red; }
]]></style>

<defs>
  <circle id="rim" cx="0" cy="0" r="7"/>
  <circle id="rim2" cx="0" cy="0" r="3.5"/>
  <g id="zoomPlus">
    <use xlink:href="#rim" fill="#404040"><set attributeName="fill" to="#808080" begin="zoomplus.mouseover" end="zoomplus.mouseout"/></use>
    <path d="M-4,0h8M0,-4v8" fill="none" stroke="white" stroke-width="1.5" pointer-events="none"/>
  </g>
  <g id="zoomMin">
    <use xlink:href="#rim" fill="#404040"><set attributeName="fill" to="#808080" begin="zoomminus.mouseover" end="zoomminus.mouseout"/></use>
    <path d="M-4,0h8" fill="none" stroke="white" stroke-width="1.5" pointer-events="none"/>
  </g>
  <g id="arrowUp" transform="translate(30 24)">
    <use xlink:href="#rim"/>
    <path pointer-events="none" fill="none" stroke="white" stroke-width="1.5" d="M0,-3.0v7 M-2.5,-0.5L0,-3.0L2.5,-0.5"/>
  </g>
  <g id="arrowRight" transform="rotate(90) translate(36 -43)">
    <use xlink:href="#rim"/>
    <path pointer-events="none" fill="none" stroke="white" stroke-width="1.5" d="M0,-3.0v7 M-2.5,-0.5L0,-3.0L2.5,-0.5"/>
  </g>
  <g id="arrowDown" transform="rotate(180) translate(-30 -48)">
    <use xlink:href="#rim"/>
    <path pointer-events="none" fill="none" stroke="white" stroke-width="1.5" d="M0,-3.0v7 M-2.5,-0.5L0,-3.0L2.5,-0.5"/>
  </g>
  <g id="arrowLeft" transform="rotate(270) translate(-36 17)">
    <use xlink:href="#rim"/>
    <path pointer-events="none" fill="none" stroke="white" stroke-width="1.5" d="M0,-3.0v7 M-2.5,-0.5L0,-3.0L2.5,-0.5"/>
  </g>
  <g id="resetDef">
    <use xlink:href="#rim2" fill="#404040"><set attributeName="fill" to="#808080" begin="reset.mouseover" end="reset.mouseout"/></use>
  </g>
</defs>
<script type="application/ecmascript">
var viewWidth = 475;
var viewHeight = 1036;
var sectionId = 'dynsection-0';
</script>
<script type="application/ecmascript" xlink:href="../../svg.min.js"/>
<svg id="graph" class="graph">
<g id="viewport">
<title>pocketmine\command\CommandSender</title>
<!-- Node1 -->
<g id="Node000001" class="node">
<title>Node1</title>
<g id="a_Node000001"><a xlink:title=" ">
<polygon fill="#999999" stroke="transparent" points="295.5,-801 165.5,-801 165.5,-666 295.5,-666 295.5,-801"/>
<text text-anchor="start" x="176" y="-788.5" font-family="Helvetica,sans-Serif" font-size="10.00">pocketmine\command</text>
<text text-anchor="start" x="186.5" y="-777.5" font-family="Helvetica,sans-Serif" font-size="10.00">\CommandSender</text>
<text text-anchor="start" x="228.5" y="-762.5" font-family="Helvetica,sans-Serif" font-size="10.00"> </text>
<text text-anchor="start" x="169.5" y="-747.5" font-family="Helvetica,sans-Serif" font-size="10.00">+</text>
<text text-anchor="start" x="182.5" y="-747.5" font-family="Helvetica,sans-Serif" font-size="10.00">getLanguage()</text>
<text text-anchor="start" x="169.5" y="-732.5" font-family="Helvetica,sans-Serif" font-size="10.00">+</text>
<text text-anchor="start" x="182.5" y="-732.5" font-family="Helvetica,sans-Serif" font-size="10.00">getName()</text>
<text text-anchor="start" x="169.5" y="-717.5" font-family="Helvetica,sans-Serif" font-size="10.00">+</text>
<text text-anchor="start" x="182.5" y="-717.5" font-family="Helvetica,sans-Serif" font-size="10.00">getScreenLineHeight()</text>
<text text-anchor="start" x="169.5" y="-702.5" font-family="Helvetica,sans-Serif" font-size="10.00">+</text>
<text text-anchor="start" x="182.5" y="-702.5" font-family="Helvetica,sans-Serif" font-size="10.00">getServer()</text>
<text text-anchor="start" x="169.5" y="-687.5" font-family="Helvetica,sans-Serif" font-size="10.00">+</text>
<text text-anchor="start" x="182.5" y="-687.5" font-family="Helvetica,sans-Serif" font-size="10.00">sendMessage()</text>
<text text-anchor="start" x="169.5" y="-672.5" font-family="Helvetica,sans-Serif" font-size="10.00">+</text>
<text text-anchor="start" x="182.5" y="-672.5" font-family="Helvetica,sans-Serif" font-size="10.00">setScreenLineHeight()</text>
<polygon fill="#666666" stroke="#666666" points="165.5,-772.5 165.5,-772.5 295.5,-772.5 295.5,-772.5 165.5,-772.5"/>
<polygon fill="#666666" stroke="#666666" points="165.5,-757.5 165.5,-757.5 295.5,-757.5 295.5,-757.5 165.5,-757.5"/>
<polygon fill="none" stroke="#666666" points="165.5,-666 165.5,-801 295.5,-801 295.5,-666 165.5,-666"/>
</a>
</g>
</g>
<!-- Node3 -->
<g id="Node000003" class="node">
<title>Node3</title>
<g id="a_Node000003"><a xlink:href="../../da/dad/classpocketmine_1_1console_1_1_console_command_sender.html" target="_top" xlink:title=" ">
<polygon fill="white" stroke="transparent" points="137,-390 0,-390 0,-240 137,-240 137,-390"/>
<text text-anchor="start" x="5.5" y="-378" font-family="Helvetica,sans-Serif" font-size="10.00">pocketmine\console</text>
<text text-anchor="start" x="5.5" y="-367" font-family="Helvetica,sans-Serif" font-size="10.00">\ConsoleCommandSender</text>
<text text-anchor="start" x="6" y="-352" font-family="Helvetica,sans-Serif" font-size="10.00">#</text>
<text text-anchor="start" x="20.5" y="-352" font-family="Helvetica,sans-Serif" font-size="10.00">$lineHeight</text>
<text text-anchor="start" x="6" y="-337" font-family="Helvetica,sans-Serif" font-size="10.00">+</text>
<text text-anchor="start" x="20.5" y="-337" font-family="Helvetica,sans-Serif" font-size="10.00">__construct()</text>
<text text-anchor="start" x="6" y="-322" font-family="Helvetica,sans-Serif" font-size="10.00">+</text>
<text text-anchor="start" x="20.5" y="-322" font-family="Helvetica,sans-Serif" font-size="10.00">getLanguage()</text>
<text text-anchor="start" x="6" y="-307" font-family="Helvetica,sans-Serif" font-size="10.00">+</text>
<text text-anchor="start" x="20.5" y="-307" font-family="Helvetica,sans-Serif" font-size="10.00">getName()</text>
<text text-anchor="start" x="6" y="-292" font-family="Helvetica,sans-Serif" font-size="10.00">+</text>
<text text-anchor="start" x="20.5" y="-292" font-family="Helvetica,sans-Serif" font-size="10.00">getScreenLineHeight()</text>
<text text-anchor="start" x="6" y="-277" font-family="Helvetica,sans-Serif" font-size="10.00">+</text>
<text text-anchor="start" x="20.5" y="-277" font-family="Helvetica,sans-Serif" font-size="10.00">getServer()</text>
<text text-anchor="start" x="6" y="-262" font-family="Helvetica,sans-Serif" font-size="10.00">+</text>
<text text-anchor="start" x="20.5" y="-262" font-family="Helvetica,sans-Serif" font-size="10.00">sendMessage()</text>
<text text-anchor="start" x="6" y="-247" font-family="Helvetica,sans-Serif" font-size="10.00">+</text>
<text text-anchor="start" x="20.5" y="-247" font-family="Helvetica,sans-Serif" font-size="10.00">setScreenLineHeight()</text>
<polygon fill="#bfbfbf" stroke="#bfbfbf" points="0.5,-362 0.5,-362 137.5,-362 137.5,-362 0.5,-362"/>
<polygon fill="#bfbfbf" stroke="#bfbfbf" points="0.5,-347 0.5,-347 18.5,-347 18.5,-347 0.5,-347"/>
<polygon fill="#bfbfbf" stroke="#bfbfbf" points="18.5,-347 18.5,-347 137.5,-347 137.5,-347 18.5,-347"/>
<polygon fill="none" stroke="#bfbfbf" points="0,-240 0,-390 137,-390 137,-240 0,-240"/>
</a>
</g>
</g>
<!-- Node1&#45;&gt;Node3 -->
<g id="edge2_Node000001_Node000003" class="edge">
<title>Node1&#45;&gt;Node3</title>
<g id="a_edge2_Node000001_Node000003"><a xlink:title=" ">
<path fill="none" stroke="#63b8ff" d="M162.03,-657.38C155.86,-648.52 150.19,-639.31 145.5,-630 106.82,-553.17 86.86,-455.8 77.06,-390.02"/>
<polygon fill="none" stroke="#63b8ff" points="159.38,-659.69 168.07,-665.75 165.06,-655.6 159.38,-659.69"/>
</a>
</g>
</g>
<!-- Node4 -->
<g id="Node000004" class="node">
<title>Node4</title>
<g id="a_Node000004"><a xlink:href="../../d0/d6f/classpocketmine_1_1player_1_1_player.html" target="_top" xlink:title=" ">
<polygon fill="white" stroke="transparent" points="306,-630 155,-630 155,0 306,0 306,-630"/>
<text text-anchor="start" x="168.5" y="-618" font-family="Helvetica,sans-Serif" font-size="10.00">pocketmine\player\Player</text>
<text text-anchor="start" x="159.5" y="-603" font-family="Helvetica,sans-Serif" font-size="10.00">+</text>
<text text-anchor="start" x="172.5" y="-603" font-family="Helvetica,sans-Serif" font-size="10.00">$spawned</text>
<text text-anchor="start" x="159.5" y="-588" font-family="Helvetica,sans-Serif" font-size="10.00">+</text>
<text text-anchor="start" x="172.5" y="-588" font-family="Helvetica,sans-Serif" font-size="10.00">DEFAULT_FLIGHT_SPEED</text>
<text text-anchor="start" x="172.5" y="-577" font-family="Helvetica,sans-Serif" font-size="10.00">_MULTIPLIER</text>
<text text-anchor="start" x="159.5" y="-562" font-family="Helvetica,sans-Serif" font-size="10.00">+</text>
<text text-anchor="start" x="172.5" y="-562" font-family="Helvetica,sans-Serif" font-size="10.00">TAG_FIRST_PLAYED</text>
<text text-anchor="start" x="159.5" y="-547" font-family="Helvetica,sans-Serif" font-size="10.00">+</text>
<text text-anchor="start" x="172.5" y="-547" font-family="Helvetica,sans-Serif" font-size="10.00">TAG_LAST_KNOWN_XUID</text>
<text text-anchor="start" x="159.5" y="-532" font-family="Helvetica,sans-Serif" font-size="10.00">+</text>
<text text-anchor="start" x="172.5" y="-532" font-family="Helvetica,sans-Serif" font-size="10.00">TAG_LAST_PLAYED</text>
<text text-anchor="start" x="159.5" y="-517" font-family="Helvetica,sans-Serif" font-size="10.00">+</text>
<text text-anchor="start" x="172.5" y="-517" font-family="Helvetica,sans-Serif" font-size="10.00">TAG_LEVEL</text>
<text text-anchor="start" x="159.5" y="-502" font-family="Helvetica,sans-Serif" font-size="10.00">#</text>
<text text-anchor="start" x="172.5" y="-502" font-family="Helvetica,sans-Serif" font-size="10.00">$allowFlight</text>
<text text-anchor="start" x="159.5" y="-487" font-family="Helvetica,sans-Serif" font-size="10.00">#</text>
<text text-anchor="start" x="172.5" y="-487" font-family="Helvetica,sans-Serif" font-size="10.00">$authenticated</text>
<text text-anchor="start" x="159.5" y="-472" font-family="Helvetica,sans-Serif" font-size="10.00">#</text>
<text text-anchor="start" x="172.5" y="-472" font-family="Helvetica,sans-Serif" font-size="10.00">$autoJump</text>
<text text-anchor="start" x="159.5" y="-457" font-family="Helvetica,sans-Serif" font-size="10.00">#</text>
<text text-anchor="start" x="172.5" y="-457" font-family="Helvetica,sans-Serif" font-size="10.00">$blockBreakHandler</text>
<text text-anchor="start" x="159.5" y="-442" font-family="Helvetica,sans-Serif" font-size="10.00">#</text>
<text text-anchor="start" x="172.5" y="-442" font-family="Helvetica,sans-Serif" font-size="10.00">$blockCollision</text>
<text text-anchor="start" x="159.5" y="-427" font-family="Helvetica,sans-Serif" font-size="10.00">#</text>
<text text-anchor="start" x="172.5" y="-427" font-family="Helvetica,sans-Serif" font-size="10.00">$chunkLoader</text>
<text text-anchor="start" x="159.5" y="-412" font-family="Helvetica,sans-Serif" font-size="10.00">#</text>
<text text-anchor="start" x="172.5" y="-412" font-family="Helvetica,sans-Serif" font-size="10.00">$chunkSelector</text>
<text text-anchor="start" x="159.5" y="-397" font-family="Helvetica,sans-Serif" font-size="10.00">#</text>
<text text-anchor="start" x="172.5" y="-397" font-family="Helvetica,sans-Serif" font-size="10.00">$chunksPerTick</text>
<text text-anchor="start" x="159.5" y="-382" font-family="Helvetica,sans-Serif" font-size="10.00">#</text>
<text text-anchor="start" x="172.5" y="-382" font-family="Helvetica,sans-Serif" font-size="10.00">$chunkTicker</text>
<text text-anchor="start" x="159.5" y="-367" font-family="Helvetica,sans-Serif" font-size="10.00">#</text>
<text text-anchor="start" x="172.5" y="-367" font-family="Helvetica,sans-Serif" font-size="10.00">$craftingGrid</text>
<text text-anchor="start" x="172.5" y="-352" font-family="Helvetica,sans-Serif" font-size="10.00">and 34 more...</text>
<text text-anchor="start" x="159.5" y="-337" font-family="Helvetica,sans-Serif" font-size="10.00">+</text>
<text text-anchor="start" x="172.5" y="-337" font-family="Helvetica,sans-Serif" font-size="10.00">__construct()</text>
<text text-anchor="start" x="159.5" y="-322" font-family="Helvetica,sans-Serif" font-size="10.00">+</text>
<text text-anchor="start" x="172.5" y="-322" font-family="Helvetica,sans-Serif" font-size="10.00">__destruct()</text>
<text text-anchor="start" x="159.5" y="-307" font-family="Helvetica,sans-Serif" font-size="10.00">+</text>
<text text-anchor="start" x="172.5" y="-307" font-family="Helvetica,sans-Serif" font-size="10.00">__debugInfo()</text>
<text text-anchor="start" x="159.5" y="-292" font-family="Helvetica,sans-Serif" font-size="10.00">+</text>
<text text-anchor="start" x="172.5" y="-292" font-family="Helvetica,sans-Serif" font-size="10.00">attack()</text>
<text text-anchor="start" x="159.5" y="-277" font-family="Helvetica,sans-Serif" font-size="10.00">+</text>
<text text-anchor="start" x="172.5" y="-277" font-family="Helvetica,sans-Serif" font-size="10.00">attackBlock()</text>
<text text-anchor="start" x="159.5" y="-262" font-family="Helvetica,sans-Serif" font-size="10.00">+</text>
<text text-anchor="start" x="172.5" y="-262" font-family="Helvetica,sans-Serif" font-size="10.00">attackEntity()</text>
<text text-anchor="start" x="159.5" y="-247" font-family="Helvetica,sans-Serif" font-size="10.00">+</text>
<text text-anchor="start" x="172.5" y="-247" font-family="Helvetica,sans-Serif" font-size="10.00">breakBlock()</text>
<text text-anchor="start" x="159.5" y="-232" font-family="Helvetica,sans-Serif" font-size="10.00">+</text>
<text text-anchor="start" x="172.5" y="-232" font-family="Helvetica,sans-Serif" font-size="10.00">broadcastAnimation()</text>
<text text-anchor="start" x="159.5" y="-217" font-family="Helvetica,sans-Serif" font-size="10.00">+</text>
<text text-anchor="start" x="172.5" y="-217" font-family="Helvetica,sans-Serif" font-size="10.00">broadcastSound()</text>
<text text-anchor="start" x="159.5" y="-202" font-family="Helvetica,sans-Serif" font-size="10.00">+</text>
<text text-anchor="start" x="172.5" y="-202" font-family="Helvetica,sans-Serif" font-size="10.00">canBeCollidedWith()</text>
<text text-anchor="start" x="172.5" y="-187" font-family="Helvetica,sans-Serif" font-size="10.00">and 133 more...</text>
<text text-anchor="start" x="159.5" y="-172" font-family="Helvetica,sans-Serif" font-size="10.00">+</text>
<text text-anchor="start" x="172.5" y="-172" font-family="Helvetica,sans-Serif" font-size="10.00">isValidUserName()</text>
<text text-anchor="start" x="159.5" y="-157" font-family="Helvetica,sans-Serif" font-size="10.00">#</text>
<text text-anchor="start" x="172.5" y="-157" font-family="Helvetica,sans-Serif" font-size="10.00">actuallyRespawn()</text>
<text text-anchor="start" x="159.5" y="-142" font-family="Helvetica,sans-Serif" font-size="10.00">#</text>
<text text-anchor="start" x="172.5" y="-142" font-family="Helvetica,sans-Serif" font-size="10.00">addDefaultWindows()</text>
<text text-anchor="start" x="159.5" y="-127" font-family="Helvetica,sans-Serif" font-size="10.00">#</text>
<text text-anchor="start" x="172.5" y="-127" font-family="Helvetica,sans-Serif" font-size="10.00">addPermanentWindows()</text>
<text text-anchor="start" x="159.5" y="-112" font-family="Helvetica,sans-Serif" font-size="10.00">#</text>
<text text-anchor="start" x="172.5" y="-112" font-family="Helvetica,sans-Serif" font-size="10.00">applyPostDamageEffects()</text>
<text text-anchor="start" x="159.5" y="-97" font-family="Helvetica,sans-Serif" font-size="10.00">#</text>
<text text-anchor="start" x="172.5" y="-97" font-family="Helvetica,sans-Serif" font-size="10.00">calculateFallDamage()</text>
<text text-anchor="start" x="159.5" y="-82" font-family="Helvetica,sans-Serif" font-size="10.00">#</text>
<text text-anchor="start" x="172.5" y="-82" font-family="Helvetica,sans-Serif" font-size="10.00">checkGroundState()</text>
<text text-anchor="start" x="159.5" y="-67" font-family="Helvetica,sans-Serif" font-size="10.00">#</text>
<text text-anchor="start" x="172.5" y="-67" font-family="Helvetica,sans-Serif" font-size="10.00">checkItemCooldowns()</text>
<text text-anchor="start" x="159.5" y="-52" font-family="Helvetica,sans-Serif" font-size="10.00">#</text>
<text text-anchor="start" x="172.5" y="-52" font-family="Helvetica,sans-Serif" font-size="10.00">checkNearEntities()</text>
<text text-anchor="start" x="159.5" y="-37" font-family="Helvetica,sans-Serif" font-size="10.00">#</text>
<text text-anchor="start" x="172.5" y="-37" font-family="Helvetica,sans-Serif" font-size="10.00">destroyCycles()</text>
<text text-anchor="start" x="159.5" y="-22" font-family="Helvetica,sans-Serif" font-size="10.00">#</text>
<text text-anchor="start" x="172.5" y="-22" font-family="Helvetica,sans-Serif" font-size="10.00">initEntity()</text>
<text text-anchor="start" x="172.5" y="-7" font-family="Helvetica,sans-Serif" font-size="10.00">and 18 more...</text>
<polygon fill="#666666" stroke="#666666" points="155.5,-613 155.5,-613 306.5,-613 306.5,-613 155.5,-613"/>
<polygon fill="#666666" stroke="#666666" points="155.5,-347 155.5,-347 170.5,-347 170.5,-347 155.5,-347"/>
<polygon fill="#666666" stroke="#666666" points="170.5,-347 170.5,-347 306.5,-347 306.5,-347 170.5,-347"/>
<polygon fill="none" stroke="#666666" points="155,0 155,-630 306,-630 306,0 155,0"/>
</a>
</g>
</g>
<!-- Node1&#45;&gt;Node4 -->
<g id="edge3_Node000001_Node000004" class="edge">
<title>Node1&#45;&gt;Node4</title>
<g id="a_edge3_Node000001_Node000004"><a xlink:title=" ">
<path fill="none" stroke="#63b8ff" d="M230.5,-655.33C230.5,-647.34 230.5,-638.91 230.5,-630.14"/>
<polygon fill="none" stroke="#63b8ff" points="227,-655.58 230.5,-665.58 234,-655.58 227,-655.58"/>
</a>
</g>
</g>
<!-- Node5 -->
<g id="Node000005" class="node">
<title>Node5</title>
<g id="a_Node000005"><a xlink:href="../../d7/de3/classpocketmine_1_1utils_1_1_broadcast_logger_forwarder.html" target="_top" xlink:title=" ">
<polygon fill="white" stroke="transparent" points="467,-390 324,-390 324,-240 467,-240 467,-390"/>
<text text-anchor="start" x="329.5" y="-378" font-family="Helvetica,sans-Serif" font-size="10.00">pocketmine\utils\Broadcast</text>
<text text-anchor="start" x="355" y="-367" font-family="Helvetica,sans-Serif" font-size="10.00">LoggerForwarder</text>
<text text-anchor="start" x="394" y="-352" font-family="Helvetica,sans-Serif" font-size="10.00"> </text>
<text text-anchor="start" x="331.5" y="-337" font-family="Helvetica,sans-Serif" font-size="10.00">+</text>
<text text-anchor="start" x="347.5" y="-337" font-family="Helvetica,sans-Serif" font-size="10.00">__construct()</text>
<text text-anchor="start" x="331.5" y="-322" font-family="Helvetica,sans-Serif" font-size="10.00">+</text>
<text text-anchor="start" x="347.5" y="-322" font-family="Helvetica,sans-Serif" font-size="10.00">getLanguage()</text>
<text text-anchor="start" x="331.5" y="-307" font-family="Helvetica,sans-Serif" font-size="10.00">+</text>
<text text-anchor="start" x="347.5" y="-307" font-family="Helvetica,sans-Serif" font-size="10.00">getName()</text>
<text text-anchor="start" x="331.5" y="-292" font-family="Helvetica,sans-Serif" font-size="10.00">+</text>
<text text-anchor="start" x="347.5" y="-292" font-family="Helvetica,sans-Serif" font-size="10.00">getScreenLineHeight()</text>
<text text-anchor="start" x="331.5" y="-277" font-family="Helvetica,sans-Serif" font-size="10.00">+</text>
<text text-anchor="start" x="347.5" y="-277" font-family="Helvetica,sans-Serif" font-size="10.00">getServer()</text>
<text text-anchor="start" x="331.5" y="-262" font-family="Helvetica,sans-Serif" font-size="10.00">+</text>
<text text-anchor="start" x="347.5" y="-262" font-family="Helvetica,sans-Serif" font-size="10.00">sendMessage()</text>
<text text-anchor="start" x="331.5" y="-247" font-family="Helvetica,sans-Serif" font-size="10.00">+</text>
<text text-anchor="start" x="347.5" y="-247" font-family="Helvetica,sans-Serif" font-size="10.00">setScreenLineHeight()</text>
<polygon fill="#666666" stroke="#666666" points="324.5,-362 324.5,-362 467.5,-362 467.5,-362 324.5,-362"/>
<polygon fill="#666666" stroke="#666666" points="324.5,-347 324.5,-347 467.5,-347 467.5,-347 324.5,-347"/>
<polygon fill="none" stroke="#666666" points="324,-240 324,-390 467,-390 467,-240 324,-240"/>
</a>
</g>
</g>
<!-- Node1&#45;&gt;Node5 -->
<g id="edge4_Node000001_Node000005" class="edge">
<title>Node1&#45;&gt;Node5</title>
<g id="a_edge4_Node000001_Node000005"><a xlink:title=" ">
<path fill="none" stroke="#63b8ff" d="M298.54,-657.83C304.86,-648.83 310.68,-639.46 315.5,-630 354.61,-553.17 375.57,-455.8 386.09,-390.02"/>
<polygon fill="none" stroke="#63b8ff" points="295.66,-655.84 292.61,-665.99 301.32,-659.96 295.66,-655.84"/>
</a>
</g>
</g>
<!-- Node2 -->
<g id="Node000002" class="node">
<title>Node2</title>
<g id="a_Node000002"><a xlink:href="../../de/da0/interfacepocketmine_1_1permission_1_1_permissible.html" target="_top" xlink:title=" ">
<polygon fill="white" stroke="transparent" points="309,-1028 152,-1028 152,-837 309,-837 309,-1028"/>
<text text-anchor="start" x="173.5" y="-1015.5" font-family="Helvetica,sans-Serif" font-size="10.00">pocketmine\permission</text>
<text text-anchor="start" x="200.5" y="-1004.5" font-family="Helvetica,sans-Serif" font-size="10.00">\Permissible</text>
<text text-anchor="start" x="229" y="-989.5" font-family="Helvetica,sans-Serif" font-size="10.00"> </text>
<text text-anchor="start" x="156.5" y="-974.5" font-family="Helvetica,sans-Serif" font-size="10.00">+</text>
<text text-anchor="start" x="169.5" y="-974.5" font-family="Helvetica,sans-Serif" font-size="10.00">addAttachment()</text>
<text text-anchor="start" x="156.5" y="-959.5" font-family="Helvetica,sans-Serif" font-size="10.00">+</text>
<text text-anchor="start" x="169.5" y="-959.5" font-family="Helvetica,sans-Serif" font-size="10.00">getEffectivePermissions()</text>
<text text-anchor="start" x="156.5" y="-944.5" font-family="Helvetica,sans-Serif" font-size="10.00">+</text>
<text text-anchor="start" x="169.5" y="-944.5" font-family="Helvetica,sans-Serif" font-size="10.00">getPermissionRecalculation</text>
<text text-anchor="start" x="169.5" y="-933.5" font-family="Helvetica,sans-Serif" font-size="10.00">Callbacks()</text>
<text text-anchor="start" x="156.5" y="-918.5" font-family="Helvetica,sans-Serif" font-size="10.00">+</text>
<text text-anchor="start" x="169.5" y="-918.5" font-family="Helvetica,sans-Serif" font-size="10.00">hasPermission()</text>
<text text-anchor="start" x="156.5" y="-903.5" font-family="Helvetica,sans-Serif" font-size="10.00">+</text>
<text text-anchor="start" x="169.5" y="-903.5" font-family="Helvetica,sans-Serif" font-size="10.00">isPermissionSet()</text>
<text text-anchor="start" x="156.5" y="-888.5" font-family="Helvetica,sans-Serif" font-size="10.00">+</text>
<text text-anchor="start" x="169.5" y="-888.5" font-family="Helvetica,sans-Serif" font-size="10.00">recalculatePermissions()</text>
<text text-anchor="start" x="156.5" y="-873.5" font-family="Helvetica,sans-Serif" font-size="10.00">+</text>
<text text-anchor="start" x="169.5" y="-873.5" font-family="Helvetica,sans-Serif" font-size="10.00">removeAttachment()</text>
<text text-anchor="start" x="156.5" y="-858.5" font-family="Helvetica,sans-Serif" font-size="10.00">+</text>
<text text-anchor="start" x="169.5" y="-858.5" font-family="Helvetica,sans-Serif" font-size="10.00">setBasePermission()</text>
<text text-anchor="start" x="156.5" y="-843.5" font-family="Helvetica,sans-Serif" font-size="10.00">+</text>
<text text-anchor="start" x="169.5" y="-843.5" font-family="Helvetica,sans-Serif" font-size="10.00">unsetBasePermission()</text>
<polygon fill="#bfbfbf" stroke="#bfbfbf" points="152.5,-999.5 152.5,-999.5 309.5,-999.5 309.5,-999.5 152.5,-999.5"/>
<polygon fill="#bfbfbf" stroke="#bfbfbf" points="152.5,-984.5 152.5,-984.5 309.5,-984.5 309.5,-984.5 152.5,-984.5"/>
<polygon fill="none" stroke="#bfbfbf" points="152,-837 152,-1028 309,-1028 309,-837 152,-837"/>
</a>
</g>
</g>
<!-- Node2&#45;&gt;Node1 -->
<g id="edge1_Node000001_Node000002" class="edge">
<title>Node2&#45;&gt;Node1</title>
<g id="a_edge1_Node000001_Node000002"><a xlink:title=" ">
<path fill="none" stroke="#63b8ff" d="M230.5,-826.6C230.5,-817.97 230.5,-809.4 230.5,-801.17"/>
<polygon fill="none" stroke="#63b8ff" points="227,-826.75 230.5,-836.75 234,-826.75 227,-826.75"/>
</a>
</g>
</g>
</g>
</svg>

<g id="navigator" transform="translate(0 0)" fill="#404254">
  <rect fill="#f2f5e9" fill-opacity="0.5" stroke="#606060" stroke-width=".5" x="0" y="0" width="60" height="60"/>
  <use id="zoomplus" xlink:href="#zoomPlus" x="17" y="9" onmousedown="handleZoom(evt,'in')"/>
  <use id="zoomminus" xlink:href="#zoomMin" x="42" y="9" onmousedown="handleZoom(evt,'out')"/>
  <use id="reset" xlink:href="#resetDef" x="30" y="36" onmousedown="handleReset()"/>
   <use id="arrowup" xlink:href="#arrowUp" x="0" y="0" onmousedown="handlePan(0,-1)"/>
  <use id="arrowright" xlink:href="#arrowRight" x="0" y="0" onmousedown="handlePan(1,0)"/>
  <use id="arrowdown" xlink:href="#arrowDown" x="0" y="0" onmousedown="handlePan(0,1)"/>
  <use id="arrowleft" xlink:href="#arrowLeft" x="0" y="0" onmousedown="handlePan(-1,0)"/>
</g>
<svg viewBox="0 0 15 15" width="100%" height="30px" preserveAspectRatio="xMaxYMin meet">
 <g id="arrow_out" transform="scale(0.3 0.3)">
  <a xlink:href="interfacepocketmine_1_1command_1_1_command_sender__inherit__graph_org.svg" target="_base">
   <rect id="button" ry="5" rx="5" y="6" x="6" height="38" width="38"
        fill="#f2f5e9" fill-opacity="0.5" stroke="#606060" stroke-width="1.0"/>
   <path id="arrow"
     d="M 11.500037,31.436501 C 11.940474,20.09759 22.043105,11.32322 32.158766,21.979434 L 37.068811,17.246167 C 37.068811,17.246167 37.088388,32 37.088388,32 L 22.160133,31.978069 C 22.160133,31.978069 26.997745,27.140456 26.997745,27.140456 C 18.528582,18.264221 13.291696,25.230495 11.500037,31.436501 z"
     style="fill:#404040;"/>
  </a>
 </g>
</svg>

<style type='text/css'>
<![CDATA[
[data-mouse-over-selected='false'] { opacity: 0.7; }
[data-mouse-over-selected='true']  { opacity: 1.0; }
]]>
</style>
<script type="application/ecmascript"><![CDATA[
document.addEventListener('DOMContentLoaded', (event) => {
  highlightEdges();
  highlightAdjacentNodes();
});
]]></script>
</svg>
