<?xml version="1.0" encoding="UTF-8" standalone="no"?>
<!DOCTYPE svg PUBLIC "-//W3C//DTD SVG 1.1//EN"
 "http://www.w3.org/Graphics/SVG/1.1/DTD/svg11.dtd">
<!-- Generated by graphviz version 2.43.0 (0)
 -->
<!-- Title: pocketmine\command\defaults\ClearCommand Pages: 1 -->
<svg width="179pt" height="530pt"
 viewBox="0.00 0.00 179.00 530.00" xmlns="http://www.w3.org/2000/svg" xmlns:xlink="http://www.w3.org/1999/xlink">
<g id="graph0" class="graph" transform="scale(1 1) rotate(0) translate(4 526)">
<title>pocketmine\command\defaults\ClearCommand</title>
<!-- Node1 -->
<g id="Node000001" class="node">
<title>Node1</title>
<g id="a_Node000001"><a xlink:title=" ">
<polygon fill="#999999" stroke="transparent" points="151.5,-90 19.5,-90 19.5,0 151.5,0 151.5,-90"/>
<text text-anchor="start" x="24.5" y="-78" font-family="Helvetica,sans-Serif" font-size="10.00">pocketmine\command</text>
<text text-anchor="start" x="24.5" y="-67" font-family="Helvetica,sans-Serif" font-size="10.00">\defaults\ClearCommand</text>
<text text-anchor="start" x="83.5" y="-52" font-family="Helvetica,sans-Serif" font-size="10.00"> </text>
<text text-anchor="start" x="35" y="-37" font-family="Helvetica,sans-Serif" font-size="10.00">+</text>
<text text-anchor="start" x="59.5" y="-37" font-family="Helvetica,sans-Serif" font-size="10.00">__construct()</text>
<text text-anchor="start" x="35" y="-22" font-family="Helvetica,sans-Serif" font-size="10.00">+</text>
<text text-anchor="start" x="59.5" y="-22" font-family="Helvetica,sans-Serif" font-size="10.00">execute()</text>
<text text-anchor="start" x="35" y="-7" font-family="Helvetica,sans-Serif" font-size="10.00">#</text>
<text text-anchor="start" x="59.5" y="-7" font-family="Helvetica,sans-Serif" font-size="10.00">countItems()</text>
<polygon fill="#666666" stroke="#666666" points="19.5,-62 19.5,-62 151.5,-62 151.5,-62 19.5,-62"/>
<polygon fill="#666666" stroke="#666666" points="19.5,-47 19.5,-47 151.5,-47 151.5,-47 19.5,-47"/>
<polygon fill="none" stroke="#666666" points="19.5,0 19.5,-90 151.5,-90 151.5,0 19.5,0"/>
</a>
</g>
</g>
<!-- Node2 -->
<g id="Node000002" class="node">
<title>Node2</title>
<g id="a_Node000002"><a xlink:href="../../d5/dfa/classpocketmine_1_1command_1_1defaults_1_1_vanilla_command.html" target="_top" xlink:title=" ">
<polygon fill="white" stroke="transparent" points="167,-261 4,-261 4,-126 167,-126 167,-261"/>
<text text-anchor="start" x="21" y="-248.5" font-family="Helvetica,sans-Serif" font-size="10.00">pocketmine\command</text>
<text text-anchor="start" x="21" y="-237.5" font-family="Helvetica,sans-Serif" font-size="10.00">\defaults\VanillaCommand</text>
<text text-anchor="start" x="8.5" y="-222.5" font-family="Helvetica,sans-Serif" font-size="10.00">+</text>
<text text-anchor="start" x="21.5" y="-222.5" font-family="Helvetica,sans-Serif" font-size="10.00">MAX_COORD</text>
<text text-anchor="start" x="8.5" y="-207.5" font-family="Helvetica,sans-Serif" font-size="10.00">+</text>
<text text-anchor="start" x="21.5" y="-207.5" font-family="Helvetica,sans-Serif" font-size="10.00">MIN_COORD</text>
<text text-anchor="start" x="8.5" y="-192.5" font-family="Helvetica,sans-Serif" font-size="10.00">#</text>
<text text-anchor="start" x="21.5" y="-192.5" font-family="Helvetica,sans-Serif" font-size="10.00">fetchPermittedPlayerTarget()</text>
<text text-anchor="start" x="8.5" y="-177.5" font-family="Helvetica,sans-Serif" font-size="10.00">#</text>
<text text-anchor="start" x="21.5" y="-177.5" font-family="Helvetica,sans-Serif" font-size="10.00">getBoundedInt()</text>
<text text-anchor="start" x="8.5" y="-162.5" font-family="Helvetica,sans-Serif" font-size="10.00">#</text>
<text text-anchor="start" x="21.5" y="-162.5" font-family="Helvetica,sans-Serif" font-size="10.00">getDouble()</text>
<text text-anchor="start" x="8.5" y="-147.5" font-family="Helvetica,sans-Serif" font-size="10.00">#</text>
<text text-anchor="start" x="21.5" y="-147.5" font-family="Helvetica,sans-Serif" font-size="10.00">getInteger()</text>
<text text-anchor="start" x="8.5" y="-132.5" font-family="Helvetica,sans-Serif" font-size="10.00">#</text>
<text text-anchor="start" x="21.5" y="-132.5" font-family="Helvetica,sans-Serif" font-size="10.00">getRelativeDouble()</text>
<polygon fill="#bfbfbf" stroke="#bfbfbf" points="4.5,-232.5 4.5,-232.5 167.5,-232.5 167.5,-232.5 4.5,-232.5"/>
<polygon fill="#bfbfbf" stroke="#bfbfbf" points="4.5,-202.5 4.5,-202.5 19.5,-202.5 19.5,-202.5 4.5,-202.5"/>
<polygon fill="#bfbfbf" stroke="#bfbfbf" points="19.5,-202.5 19.5,-202.5 167.5,-202.5 167.5,-202.5 19.5,-202.5"/>
<polygon fill="none" stroke="#bfbfbf" points="4,-126 4,-261 167,-261 167,-126 4,-126"/>
</a>
</g>
</g>
<!-- Node2&#45;&gt;Node1 -->
<g id="edge1_Node000001_Node000002" class="edge">
<title>Node2&#45;&gt;Node1</title>
<g id="a_edge1_Node000001_Node000002"><a xlink:title=" ">
<path fill="none" stroke="#63b8ff" d="M85.5,-115.47C85.5,-106.77 85.5,-98.14 85.5,-90.08"/>
<polygon fill="none" stroke="#63b8ff" points="82,-115.68 85.5,-125.68 89,-115.68 82,-115.68"/>
</a>
</g>
</g>
<!-- Node3 -->
<g id="Node000003" class="node">
<title>Node3</title>
<g id="a_Node000003"><a xlink:href="../../d6/df1/classpocketmine_1_1command_1_1_command.html" target="_top" xlink:title=" ">
<polygon fill="white" stroke="transparent" points="171,-522 0,-522 0,-297 171,-297 171,-522"/>
<text text-anchor="start" x="31.5" y="-509.5" font-family="Helvetica,sans-Serif" font-size="10.00">pocketmine\command</text>
<text text-anchor="start" x="59" y="-498.5" font-family="Helvetica,sans-Serif" font-size="10.00">\Command</text>
<text text-anchor="start" x="84" y="-483.5" font-family="Helvetica,sans-Serif" font-size="10.00"> </text>
<text text-anchor="start" x="4.5" y="-468.5" font-family="Helvetica,sans-Serif" font-size="10.00">+</text>
<text text-anchor="start" x="17.5" y="-468.5" font-family="Helvetica,sans-Serif" font-size="10.00">__construct()</text>
<text text-anchor="start" x="4.5" y="-453.5" font-family="Helvetica,sans-Serif" font-size="10.00">+</text>
<text text-anchor="start" x="17.5" y="-453.5" font-family="Helvetica,sans-Serif" font-size="10.00">execute()</text>
<text text-anchor="start" x="4.5" y="-438.5" font-family="Helvetica,sans-Serif" font-size="10.00">+</text>
<text text-anchor="start" x="17.5" y="-438.5" font-family="Helvetica,sans-Serif" font-size="10.00">getDescription()</text>
<text text-anchor="start" x="4.5" y="-423.5" font-family="Helvetica,sans-Serif" font-size="10.00">+</text>
<text text-anchor="start" x="17.5" y="-423.5" font-family="Helvetica,sans-Serif" font-size="10.00">getId()</text>
<text text-anchor="start" x="4.5" y="-408.5" font-family="Helvetica,sans-Serif" font-size="10.00">+</text>
<text text-anchor="start" x="17.5" y="-408.5" font-family="Helvetica,sans-Serif" font-size="10.00">getName()</text>
<text text-anchor="start" x="4.5" y="-393.5" font-family="Helvetica,sans-Serif" font-size="10.00">+</text>
<text text-anchor="start" x="17.5" y="-393.5" font-family="Helvetica,sans-Serif" font-size="10.00">getNamespace()</text>
<text text-anchor="start" x="4.5" y="-378.5" font-family="Helvetica,sans-Serif" font-size="10.00">+</text>
<text text-anchor="start" x="17.5" y="-378.5" font-family="Helvetica,sans-Serif" font-size="10.00">getPermissionMessage()</text>
<text text-anchor="start" x="4.5" y="-363.5" font-family="Helvetica,sans-Serif" font-size="10.00">+</text>
<text text-anchor="start" x="17.5" y="-363.5" font-family="Helvetica,sans-Serif" font-size="10.00">getPermissions()</text>
<text text-anchor="start" x="4.5" y="-348.5" font-family="Helvetica,sans-Serif" font-size="10.00">+</text>
<text text-anchor="start" x="17.5" y="-348.5" font-family="Helvetica,sans-Serif" font-size="10.00">getUsage()</text>
<text text-anchor="start" x="4.5" y="-333.5" font-family="Helvetica,sans-Serif" font-size="10.00">+</text>
<text text-anchor="start" x="17.5" y="-333.5" font-family="Helvetica,sans-Serif" font-size="10.00">setDescription()</text>
<text text-anchor="start" x="17.5" y="-318.5" font-family="Helvetica,sans-Serif" font-size="10.00">and 6 more...</text>
<text text-anchor="start" x="4.5" y="-303.5" font-family="Helvetica,sans-Serif" font-size="10.00">+</text>
<text text-anchor="start" x="17.5" y="-303.5" font-family="Helvetica,sans-Serif" font-size="10.00">broadcastCommandMessage()</text>
<polygon fill="#bfbfbf" stroke="#bfbfbf" points="0.5,-493.5 0.5,-493.5 171.5,-493.5 171.5,-493.5 0.5,-493.5"/>
<polygon fill="#bfbfbf" stroke="#bfbfbf" points="0.5,-478.5 0.5,-478.5 171.5,-478.5 171.5,-478.5 0.5,-478.5"/>
<polygon fill="none" stroke="#bfbfbf" points="0,-297 0,-522 171,-522 171,-297 0,-297"/>
</a>
</g>
</g>
<!-- Node3&#45;&gt;Node2 -->
<g id="edge2_Node000002_Node000003" class="edge">
<title>Node3&#45;&gt;Node2</title>
<g id="a_edge2_Node000002_Node000003"><a xlink:title=" ">
<path fill="none" stroke="#63b8ff" d="M85.5,-286.57C85.5,-277.9 85.5,-269.36 85.5,-261.19"/>
<polygon fill="none" stroke="#63b8ff" points="82,-286.8 85.5,-296.8 89,-286.8 82,-286.8"/>
</a>
</g>
</g>
</g>
</svg>
