<?xml version="1.0" encoding="UTF-8" standalone="no"?>
<!DOCTYPE svg PUBLIC "-//W3C//DTD SVG 1.1//EN"
 "http://www.w3.org/Graphics/SVG/1.1/DTD/svg11.dtd">
<!-- Generated by graphviz version 2.43.0 (0)
 -->
<!-- Title: pocketmine\network\mcpe\ChunkRequestTask Pages: 1 -->
<svg width="154pt" height="496pt"
 viewBox="0.00 0.00 154.00 496.00" xmlns="http://www.w3.org/2000/svg" xmlns:xlink="http://www.w3.org/1999/xlink">
<g id="graph0" class="graph" transform="scale(1 1) rotate(0) translate(4 492)">
<title>pocketmine\network\mcpe\ChunkRequestTask</title>
<polygon fill="white" stroke="transparent" points="-4,4 -4,-492 150,-492 150,4 -4,4"/>
<!-- Node1 -->
<g id="node1" class="node">
<title>Node1</title>
<g id="a_node1"><a xlink:title=" ">
<polygon fill="#bfbfbf" stroke="black" points="2,-0.5 2,-123.5 144,-123.5 144,-0.5 2,-0.5"/>
<text text-anchor="start" x="10" y="-111.5" font-family="Helvetica,sans-Serif" font-size="10.00">pocketmine\network</text>
<text text-anchor="middle" x="73" y="-100.5" font-family="Helvetica,sans-Serif" font-size="10.00">\mcpe\ChunkRequestTask</text>
<polyline fill="none" stroke="black" points="2,-93.5 144,-93.5 "/>
<text text-anchor="start" x="10" y="-81.5" font-family="Helvetica,sans-Serif" font-size="10.00"># $chunk</text>
<text text-anchor="start" x="10" y="-70.5" font-family="Helvetica,sans-Serif" font-size="10.00"># $chunkX</text>
<text text-anchor="start" x="10" y="-59.5" font-family="Helvetica,sans-Serif" font-size="10.00"># $chunkZ</text>
<text text-anchor="start" x="10" y="-48.5" font-family="Helvetica,sans-Serif" font-size="10.00"># $compressor</text>
<polyline fill="none" stroke="black" points="2,-41.5 144,-41.5 "/>
<text text-anchor="start" x="10" y="-29.5" font-family="Helvetica,sans-Serif" font-size="10.00">+ __construct()</text>
<text text-anchor="start" x="10" y="-18.5" font-family="Helvetica,sans-Serif" font-size="10.00">+ onCompletion()</text>
<text text-anchor="start" x="10" y="-7.5" font-family="Helvetica,sans-Serif" font-size="10.00">+ onRun()</text>
</a>
</g>
</g>
<!-- Node2 -->
<g id="node2" class="node">
<title>Node2</title>
<g id="a_node2"><a xlink:href="../../df/dfa/classpocketmine_1_1scheduler_1_1_async_task.html" target="_top" xlink:title=" ">
<polygon fill="white" stroke="black" points="0,-160.5 0,-393.5 146,-393.5 146,-160.5 0,-160.5"/>
<text text-anchor="start" x="8" y="-381.5" font-family="Helvetica,sans-Serif" font-size="10.00">pocketmine\scheduler</text>
<text text-anchor="middle" x="73" y="-370.5" font-family="Helvetica,sans-Serif" font-size="10.00">\AsyncTask</text>
<polyline fill="none" stroke="black" points="0,-363.5 146,-363.5 "/>
<text text-anchor="middle" x="73" y="-351.5" font-family="Helvetica,sans-Serif" font-size="10.00"> </text>
<polyline fill="none" stroke="black" points="0,-344.5 146,-344.5 "/>
<text text-anchor="start" x="8" y="-332.5" font-family="Helvetica,sans-Serif" font-size="10.00">+ __destruct()</text>
<text text-anchor="start" x="8" y="-321.5" font-family="Helvetica,sans-Serif" font-size="10.00">+ checkProgressUpdates()</text>
<text text-anchor="start" x="8" y="-310.5" font-family="Helvetica,sans-Serif" font-size="10.00">+ getResult()</text>
<text text-anchor="start" x="8" y="-299.5" font-family="Helvetica,sans-Serif" font-size="10.00">+ hasResult()</text>
<text text-anchor="start" x="8" y="-288.5" font-family="Helvetica,sans-Serif" font-size="10.00">+ isFinished()</text>
<text text-anchor="start" x="8" y="-277.5" font-family="Helvetica,sans-Serif" font-size="10.00">+ isSubmitted()</text>
<text text-anchor="start" x="8" y="-266.5" font-family="Helvetica,sans-Serif" font-size="10.00">+ onCompletion()</text>
<text text-anchor="start" x="8" y="-255.5" font-family="Helvetica,sans-Serif" font-size="10.00">+ onProgressUpdate()</text>
<text text-anchor="start" x="8" y="-244.5" font-family="Helvetica,sans-Serif" font-size="10.00">+ onRun()</text>
<text text-anchor="start" x="8" y="-233.5" font-family="Helvetica,sans-Serif" font-size="10.00">+ publishProgress()</text>
<text text-anchor="start" x="8" y="-222.5" font-family="Helvetica,sans-Serif" font-size="10.00">+ run()</text>
<text text-anchor="start" x="8" y="-211.5" font-family="Helvetica,sans-Serif" font-size="10.00">+ setResult()</text>
<text text-anchor="start" x="8" y="-200.5" font-family="Helvetica,sans-Serif" font-size="10.00">+ setSubmitted()</text>
<text text-anchor="start" x="8" y="-189.5" font-family="Helvetica,sans-Serif" font-size="10.00"># fetchLocal()</text>
<text text-anchor="start" x="8" y="-178.5" font-family="Helvetica,sans-Serif" font-size="10.00"># reallyDestruct()</text>
<text text-anchor="start" x="8" y="-167.5" font-family="Helvetica,sans-Serif" font-size="10.00"># storeLocal()</text>
</a>
</g>
</g>
<!-- Node2&#45;&gt;Node1 -->
<g id="edge1" class="edge">
<title>Node2&#45;&gt;Node1</title>
<path fill="none" stroke="midnightblue" d="M73,-150.38C73,-141.15 73,-132.12 73,-123.57"/>
<polygon fill="none" stroke="midnightblue" points="69.5,-150.46 73,-160.46 76.5,-150.46 69.5,-150.46"/>
</g>
<!-- Node3 -->
<g id="node3" class="node">
<title>Node3</title>
<g id="a_node3"><a xlink:title=" ">
<polygon fill="white" stroke="#bfbfbf" points="42,-430.5 42,-487.5 104,-487.5 104,-430.5 42,-430.5"/>
<text text-anchor="middle" x="73" y="-475.5" font-family="Helvetica,sans-Serif" font-size="10.00">Runnable</text>
<polyline fill="none" stroke="#bfbfbf" points="42,-468.5 104,-468.5 "/>
<text text-anchor="middle" x="73" y="-456.5" font-family="Helvetica,sans-Serif" font-size="10.00"> </text>
<polyline fill="none" stroke="#bfbfbf" points="42,-449.5 104,-449.5 "/>
<text text-anchor="middle" x="73" y="-437.5" font-family="Helvetica,sans-Serif" font-size="10.00"> </text>
</a>
</g>
</g>
<!-- Node3&#45;&gt;Node2 -->
<g id="edge2" class="edge">
<title>Node3&#45;&gt;Node2</title>
<path fill="none" stroke="midnightblue" d="M73,-420.14C73,-412.03 73,-403.05 73,-393.67"/>
<polygon fill="none" stroke="midnightblue" points="69.5,-420.27 73,-430.27 76.5,-420.27 69.5,-420.27"/>
</g>
</g>
</svg>
