<?xml version="1.0" encoding="UTF-8" standalone="no"?>
<!DOCTYPE svg PUBLIC "-//W3C//DTD SVG 1.1//EN"
 "http://www.w3.org/Graphics/SVG/1.1/DTD/svg11.dtd">
<!-- Generated by graphviz version 2.43.0 (0)
 -->
<!-- Title: pocketmine\block\utils\WoodMaterial Pages: 1 -->
<!--zoomable 478 -->

<svg id="main" version="1.1" xmlns="http://www.w3.org/2000/svg" xmlns:xlink="http://www.w3.org/1999/xlink" xml:space="preserve" onload="init(evt)">

<style type="text/css"><![CDATA[
.node, .edge {opacity: 0.7;}
.node.selected, .edge.selected {opacity: 1;}
.edge:hover path { stroke: red; }
.edge:hover polygon { stroke: red; fill: red; }
]]></style>

<defs>
  <circle id="rim" cx="0" cy="0" r="7"/>
  <circle id="rim2" cx="0" cy="0" r="3.5"/>
  <g id="zoomPlus">
    <use xlink:href="#rim" fill="#404040"><set attributeName="fill" to="#808080" begin="zoomplus.mouseover" end="zoomplus.mouseout"/></use>
    <path d="M-4,0h8M0,-4v8" fill="none" stroke="white" stroke-width="1.5" pointer-events="none"/>
  </g>
  <g id="zoomMin">
    <use xlink:href="#rim" fill="#404040"><set attributeName="fill" to="#808080" begin="zoomminus.mouseover" end="zoomminus.mouseout"/></use>
    <path d="M-4,0h8" fill="none" stroke="white" stroke-width="1.5" pointer-events="none"/>
  </g>
  <g id="arrowUp" transform="translate(30 24)">
    <use xlink:href="#rim"/>
    <path pointer-events="none" fill="none" stroke="white" stroke-width="1.5" d="M0,-3.0v7 M-2.5,-0.5L0,-3.0L2.5,-0.5"/>
  </g>
  <g id="arrowRight" transform="rotate(90) translate(36 -43)">
    <use xlink:href="#rim"/>
    <path pointer-events="none" fill="none" stroke="white" stroke-width="1.5" d="M0,-3.0v7 M-2.5,-0.5L0,-3.0L2.5,-0.5"/>
  </g>
  <g id="arrowDown" transform="rotate(180) translate(-30 -48)">
    <use xlink:href="#rim"/>
    <path pointer-events="none" fill="none" stroke="white" stroke-width="1.5" d="M0,-3.0v7 M-2.5,-0.5L0,-3.0L2.5,-0.5"/>
  </g>
  <g id="arrowLeft" transform="rotate(270) translate(-36 17)">
    <use xlink:href="#rim"/>
    <path pointer-events="none" fill="none" stroke="white" stroke-width="1.5" d="M0,-3.0v7 M-2.5,-0.5L0,-3.0L2.5,-0.5"/>
  </g>
  <g id="resetDef">
    <use xlink:href="#rim2" fill="#404040"><set attributeName="fill" to="#808080" begin="reset.mouseover" end="reset.mouseout"/></use>
  </g>
</defs>
<script type="application/ecmascript">
var viewWidth = 2294;
var viewHeight = 478;
var sectionId = 'dynsection-0';
</script>
<script type="application/ecmascript" xlink:href="../../svg.min.js"/>
<svg id="graph" class="graph">
<g id="viewport">
<title>pocketmine\block\utils\WoodMaterial</title>
<!-- Node1 -->
<g id="Node000001" class="node">
<title>Node1</title>
<g id="a_Node000001"><a xlink:title=" ">
<polygon fill="#999999" stroke="transparent" points="1317.5,-470 1196.5,-470 1196.5,-410 1317.5,-410 1317.5,-470"/>
<text text-anchor="start" x="1202" y="-458" font-family="Helvetica,sans-Serif" font-size="10.00">pocketmine\block\utils</text>
<text text-anchor="start" x="1222" y="-447" font-family="Helvetica,sans-Serif" font-size="10.00">\WoodMaterial</text>
<text text-anchor="start" x="1255.5" y="-432" font-family="Helvetica,sans-Serif" font-size="10.00"> </text>
<text text-anchor="start" x="1207.5" y="-417" font-family="Helvetica,sans-Serif" font-size="10.00">+</text>
<text text-anchor="start" x="1227" y="-417" font-family="Helvetica,sans-Serif" font-size="10.00">getWoodType()</text>
<polygon fill="#666666" stroke="#666666" points="1197,-442 1197,-442 1318,-442 1318,-442 1197,-442"/>
<polygon fill="#666666" stroke="#666666" points="1197,-427 1197,-427 1318,-427 1318,-427 1197,-427"/>
<polygon fill="none" stroke="#666666" points="1196.5,-410 1196.5,-470 1317.5,-470 1317.5,-410 1196.5,-410"/>
</a>
</g>
</g>
<!-- Node2 -->
<g id="Node000002" class="node">
<title>Node2</title>
<g id="a_Node000002"><a xlink:href="../../df/d0b/classpocketmine_1_1block_1_1_base_sign.html" target="_top" xlink:title=" ">
<polygon fill="white" stroke="transparent" points="455.5,-374 298.5,-374 298.5,-115 455.5,-115 455.5,-374"/>
<text text-anchor="start" x="310" y="-361.5" font-family="Helvetica,sans-Serif" font-size="10.00">pocketmine\block\BaseSign</text>
<text text-anchor="start" x="303" y="-346.5" font-family="Helvetica,sans-Serif" font-size="10.00">#</text>
<text text-anchor="start" x="316" y="-346.5" font-family="Helvetica,sans-Serif" font-size="10.00">$editorEntityRuntimeId</text>
<text text-anchor="start" x="303" y="-331.5" font-family="Helvetica,sans-Serif" font-size="10.00">#</text>
<text text-anchor="start" x="316" y="-331.5" font-family="Helvetica,sans-Serif" font-size="10.00">$text</text>
<text text-anchor="start" x="303" y="-316.5" font-family="Helvetica,sans-Serif" font-size="10.00">+</text>
<text text-anchor="start" x="316" y="-316.5" font-family="Helvetica,sans-Serif" font-size="10.00">__construct()</text>
<text text-anchor="start" x="303" y="-301.5" font-family="Helvetica,sans-Serif" font-size="10.00">+</text>
<text text-anchor="start" x="316" y="-301.5" font-family="Helvetica,sans-Serif" font-size="10.00">asItem()</text>
<text text-anchor="start" x="303" y="-286.5" font-family="Helvetica,sans-Serif" font-size="10.00">+</text>
<text text-anchor="start" x="316" y="-286.5" font-family="Helvetica,sans-Serif" font-size="10.00">getEditorEntityRuntimeId()</text>
<text text-anchor="start" x="303" y="-271.5" font-family="Helvetica,sans-Serif" font-size="10.00">+</text>
<text text-anchor="start" x="316" y="-271.5" font-family="Helvetica,sans-Serif" font-size="10.00">getFuelTime()</text>
<text text-anchor="start" x="303" y="-256.5" font-family="Helvetica,sans-Serif" font-size="10.00">+</text>
<text text-anchor="start" x="316" y="-256.5" font-family="Helvetica,sans-Serif" font-size="10.00">getMaxStackSize()</text>
<text text-anchor="start" x="303" y="-241.5" font-family="Helvetica,sans-Serif" font-size="10.00">+</text>
<text text-anchor="start" x="316" y="-241.5" font-family="Helvetica,sans-Serif" font-size="10.00">getSupportType()</text>
<text text-anchor="start" x="303" y="-226.5" font-family="Helvetica,sans-Serif" font-size="10.00">+</text>
<text text-anchor="start" x="316" y="-226.5" font-family="Helvetica,sans-Serif" font-size="10.00">getText()</text>
<text text-anchor="start" x="303" y="-211.5" font-family="Helvetica,sans-Serif" font-size="10.00">+</text>
<text text-anchor="start" x="316" y="-211.5" font-family="Helvetica,sans-Serif" font-size="10.00">isSolid()</text>
<text text-anchor="start" x="303" y="-196.5" font-family="Helvetica,sans-Serif" font-size="10.00">+</text>
<text text-anchor="start" x="316" y="-196.5" font-family="Helvetica,sans-Serif" font-size="10.00">isWaxed()</text>
<text text-anchor="start" x="303" y="-181.5" font-family="Helvetica,sans-Serif" font-size="10.00">+</text>
<text text-anchor="start" x="316" y="-181.5" font-family="Helvetica,sans-Serif" font-size="10.00">onInteract()</text>
<text text-anchor="start" x="316" y="-166.5" font-family="Helvetica,sans-Serif" font-size="10.00">and 9 more...</text>
<text text-anchor="start" x="303" y="-151.5" font-family="Helvetica,sans-Serif" font-size="10.00">#</text>
<text text-anchor="start" x="316" y="-151.5" font-family="Helvetica,sans-Serif" font-size="10.00">getSupportingFace()</text>
<text text-anchor="start" x="303" y="-136.5" font-family="Helvetica,sans-Serif" font-size="10.00">#</text>
<text text-anchor="start" x="316" y="-136.5" font-family="Helvetica,sans-Serif" font-size="10.00">getSupportingFaceOptions()</text>
<text text-anchor="start" x="303" y="-121.5" font-family="Helvetica,sans-Serif" font-size="10.00">#</text>
<text text-anchor="start" x="316" y="-121.5" font-family="Helvetica,sans-Serif" font-size="10.00">recalculateCollisionBoxes()</text>
<polygon fill="#bfbfbf" stroke="#bfbfbf" points="299,-356.5 299,-356.5 456,-356.5 456,-356.5 299,-356.5"/>
<polygon fill="#bfbfbf" stroke="#bfbfbf" points="299,-326.5 299,-326.5 314,-326.5 314,-326.5 299,-326.5"/>
<polygon fill="#bfbfbf" stroke="#bfbfbf" points="314,-326.5 314,-326.5 456,-326.5 456,-326.5 314,-326.5"/>
<polygon fill="none" stroke="#bfbfbf" points="298.5,-115 298.5,-374 455.5,-374 455.5,-115 298.5,-115"/>
</a>
</g>
</g>
<!-- Node1&#45;&gt;Node2 -->
<g id="edge1_Node000001_Node000002" class="edge">
<title>Node1&#45;&gt;Node2</title>
<g id="a_edge1_Node000001_Node000002"><a xlink:title=" ">
<path fill="none" stroke="#63b8ff" d="M1186.45,-436.66C1004.02,-430.12 526.58,-409.76 465,-374 461.84,-372.17 458.77,-370.17 455.79,-368.03"/>
<polygon fill="none" stroke="#63b8ff" points="1186.36,-440.16 1196.48,-437.01 1186.61,-433.16 1186.36,-440.16"/>
</a>
</g>
</g>
<!-- Node8 -->
<g id="Node000008" class="node">
<title>Node8</title>
<g id="a_Node000008"><a xlink:href="../../d7/dd3/classpocketmine_1_1block_1_1_fence_gate.html" target="_top" xlink:title=" ">
<polygon fill="white" stroke="transparent" points="628,-366.5 474,-366.5 474,-122.5 628,-122.5 628,-366.5"/>
<text text-anchor="start" x="480" y="-354.5" font-family="Helvetica,sans-Serif" font-size="10.00">pocketmine\block\FenceGate</text>
<text text-anchor="start" x="478" y="-339.5" font-family="Helvetica,sans-Serif" font-size="10.00">#</text>
<text text-anchor="start" x="491" y="-339.5" font-family="Helvetica,sans-Serif" font-size="10.00">$inWall</text>
<text text-anchor="start" x="478" y="-324.5" font-family="Helvetica,sans-Serif" font-size="10.00">#</text>
<text text-anchor="start" x="491" y="-324.5" font-family="Helvetica,sans-Serif" font-size="10.00">$open</text>
<text text-anchor="start" x="478" y="-309.5" font-family="Helvetica,sans-Serif" font-size="10.00">+</text>
<text text-anchor="start" x="491" y="-309.5" font-family="Helvetica,sans-Serif" font-size="10.00">getFlameEncouragement()</text>
<text text-anchor="start" x="478" y="-294.5" font-family="Helvetica,sans-Serif" font-size="10.00">+</text>
<text text-anchor="start" x="491" y="-294.5" font-family="Helvetica,sans-Serif" font-size="10.00">getFlammability()</text>
<text text-anchor="start" x="478" y="-279.5" font-family="Helvetica,sans-Serif" font-size="10.00">+</text>
<text text-anchor="start" x="491" y="-279.5" font-family="Helvetica,sans-Serif" font-size="10.00">getFuelTime()</text>
<text text-anchor="start" x="478" y="-264.5" font-family="Helvetica,sans-Serif" font-size="10.00">+</text>
<text text-anchor="start" x="491" y="-264.5" font-family="Helvetica,sans-Serif" font-size="10.00">getSupportType()</text>
<text text-anchor="start" x="478" y="-249.5" font-family="Helvetica,sans-Serif" font-size="10.00">+</text>
<text text-anchor="start" x="491" y="-249.5" font-family="Helvetica,sans-Serif" font-size="10.00">isInWall()</text>
<text text-anchor="start" x="478" y="-234.5" font-family="Helvetica,sans-Serif" font-size="10.00">+</text>
<text text-anchor="start" x="491" y="-234.5" font-family="Helvetica,sans-Serif" font-size="10.00">isOpen()</text>
<text text-anchor="start" x="478" y="-219.5" font-family="Helvetica,sans-Serif" font-size="10.00">+</text>
<text text-anchor="start" x="491" y="-219.5" font-family="Helvetica,sans-Serif" font-size="10.00">onInteract()</text>
<text text-anchor="start" x="478" y="-204.5" font-family="Helvetica,sans-Serif" font-size="10.00">+</text>
<text text-anchor="start" x="491" y="-204.5" font-family="Helvetica,sans-Serif" font-size="10.00">onNearbyBlockChange()</text>
<text text-anchor="start" x="478" y="-189.5" font-family="Helvetica,sans-Serif" font-size="10.00">+</text>
<text text-anchor="start" x="491" y="-189.5" font-family="Helvetica,sans-Serif" font-size="10.00">place()</text>
<text text-anchor="start" x="478" y="-174.5" font-family="Helvetica,sans-Serif" font-size="10.00">+</text>
<text text-anchor="start" x="491" y="-174.5" font-family="Helvetica,sans-Serif" font-size="10.00">setInWall()</text>
<text text-anchor="start" x="478" y="-159.5" font-family="Helvetica,sans-Serif" font-size="10.00">+</text>
<text text-anchor="start" x="491" y="-159.5" font-family="Helvetica,sans-Serif" font-size="10.00">setOpen()</text>
<text text-anchor="start" x="478" y="-144.5" font-family="Helvetica,sans-Serif" font-size="10.00">#</text>
<text text-anchor="start" x="491" y="-144.5" font-family="Helvetica,sans-Serif" font-size="10.00">describeBlockOnlyState()</text>
<text text-anchor="start" x="478" y="-129.5" font-family="Helvetica,sans-Serif" font-size="10.00">#</text>
<text text-anchor="start" x="491" y="-129.5" font-family="Helvetica,sans-Serif" font-size="10.00">recalculateCollisionBoxes()</text>
<polygon fill="#bfbfbf" stroke="#bfbfbf" points="474,-349.5 474,-349.5 628,-349.5 628,-349.5 474,-349.5"/>
<polygon fill="#bfbfbf" stroke="#bfbfbf" points="474,-319.5 474,-319.5 489,-319.5 489,-319.5 474,-319.5"/>
<polygon fill="#bfbfbf" stroke="#bfbfbf" points="489,-319.5 489,-319.5 628,-319.5 628,-319.5 489,-319.5"/>
<polygon fill="none" stroke="#bfbfbf" points="474,-122.5 474,-366.5 628,-366.5 628,-122.5 474,-122.5"/>
</a>
</g>
</g>
<!-- Node1&#45;&gt;Node8 -->
<g id="edge7_Node000001_Node000008" class="edge">
<title>Node1&#45;&gt;Node8</title>
<g id="a_edge7_Node000001_Node000008"><a xlink:title=" ">
<path fill="none" stroke="#63b8ff" d="M1185.96,-438.99C1043.3,-437.79 727.87,-428.81 637,-374 633.32,-371.78 629.77,-369.34 626.34,-366.71"/>
<polygon fill="none" stroke="#63b8ff" points="1186.32,-442.49 1196.34,-439.07 1186.37,-435.49 1186.32,-442.49"/>
</a>
</g>
</g>
<!-- Node9 -->
<g id="Node000009" class="node">
<title>Node9</title>
<g id="a_Node000009"><a xlink:href="../../d5/dd4/classpocketmine_1_1block_1_1_planks.html" target="_top" xlink:title=" ">
<polygon fill="white" stroke="transparent" points="798,-284 646,-284 646,-205 798,-205 798,-284"/>
<text text-anchor="start" x="661" y="-271.5" font-family="Helvetica,sans-Serif" font-size="10.00">pocketmine\block\Planks</text>
<text text-anchor="start" x="720" y="-256.5" font-family="Helvetica,sans-Serif" font-size="10.00"> </text>
<text text-anchor="start" x="650" y="-241.5" font-family="Helvetica,sans-Serif" font-size="10.00">+</text>
<text text-anchor="start" x="663" y="-241.5" font-family="Helvetica,sans-Serif" font-size="10.00">getFlameEncouragement()</text>
<text text-anchor="start" x="650" y="-226.5" font-family="Helvetica,sans-Serif" font-size="10.00">+</text>
<text text-anchor="start" x="663" y="-226.5" font-family="Helvetica,sans-Serif" font-size="10.00">getFlammability()</text>
<text text-anchor="start" x="650" y="-211.5" font-family="Helvetica,sans-Serif" font-size="10.00">+</text>
<text text-anchor="start" x="663" y="-211.5" font-family="Helvetica,sans-Serif" font-size="10.00">getFuelTime()</text>
<polygon fill="#bfbfbf" stroke="#bfbfbf" points="646,-266.5 646,-266.5 798,-266.5 798,-266.5 646,-266.5"/>
<polygon fill="#bfbfbf" stroke="#bfbfbf" points="646,-251.5 646,-251.5 798,-251.5 798,-251.5 646,-251.5"/>
<polygon fill="none" stroke="#bfbfbf" points="646,-205 646,-284 798,-284 798,-205 646,-205"/>
</a>
</g>
</g>
<!-- Node1&#45;&gt;Node9 -->
<g id="edge8_Node000001_Node000009" class="edge">
<title>Node1&#45;&gt;Node9</title>
<g id="a_edge8_Node000001_Node000009"><a xlink:title=" ">
<path fill="none" stroke="#63b8ff" d="M1186.11,-435.77C1075.61,-429.58 868.58,-413.03 807,-374 773.79,-352.95 750.69,-313.7 737.04,-284.1"/>
<polygon fill="none" stroke="#63b8ff" points="1185.99,-439.27 1196.17,-436.32 1186.38,-432.28 1185.99,-439.27"/>
</a>
</g>
</g>
<!-- Node10 -->
<g id="Node000010" class="node">
<title>Node10</title>
<g id="a_Node000010"><a xlink:href="../../dc/d9e/classpocketmine_1_1block_1_1_wood.html" target="_top" xlink:title=" ">
<polygon fill="white" stroke="transparent" points="968,-314 816,-314 816,-175 968,-175 968,-314"/>
<text text-anchor="start" x="833.5" y="-301.5" font-family="Helvetica,sans-Serif" font-size="10.00">pocketmine\block\Wood</text>
<text text-anchor="start" x="890" y="-286.5" font-family="Helvetica,sans-Serif" font-size="10.00"> </text>
<text text-anchor="start" x="820" y="-271.5" font-family="Helvetica,sans-Serif" font-size="10.00">+</text>
<text text-anchor="start" x="833" y="-271.5" font-family="Helvetica,sans-Serif" font-size="10.00">describeBlockItemState()</text>
<text text-anchor="start" x="820" y="-256.5" font-family="Helvetica,sans-Serif" font-size="10.00">+</text>
<text text-anchor="start" x="833" y="-256.5" font-family="Helvetica,sans-Serif" font-size="10.00">getFlameEncouragement()</text>
<text text-anchor="start" x="820" y="-241.5" font-family="Helvetica,sans-Serif" font-size="10.00">+</text>
<text text-anchor="start" x="833" y="-241.5" font-family="Helvetica,sans-Serif" font-size="10.00">getFlammability()</text>
<text text-anchor="start" x="820" y="-226.5" font-family="Helvetica,sans-Serif" font-size="10.00">+</text>
<text text-anchor="start" x="833" y="-226.5" font-family="Helvetica,sans-Serif" font-size="10.00">getFuelTime()</text>
<text text-anchor="start" x="820" y="-211.5" font-family="Helvetica,sans-Serif" font-size="10.00">+</text>
<text text-anchor="start" x="833" y="-211.5" font-family="Helvetica,sans-Serif" font-size="10.00">isStripped()</text>
<text text-anchor="start" x="820" y="-196.5" font-family="Helvetica,sans-Serif" font-size="10.00">+</text>
<text text-anchor="start" x="833" y="-196.5" font-family="Helvetica,sans-Serif" font-size="10.00">onInteract()</text>
<text text-anchor="start" x="820" y="-181.5" font-family="Helvetica,sans-Serif" font-size="10.00">+</text>
<text text-anchor="start" x="833" y="-181.5" font-family="Helvetica,sans-Serif" font-size="10.00">setStripped()</text>
<polygon fill="#bfbfbf" stroke="#bfbfbf" points="816,-296.5 816,-296.5 968,-296.5 968,-296.5 816,-296.5"/>
<polygon fill="#bfbfbf" stroke="#bfbfbf" points="816,-281.5 816,-281.5 968,-281.5 968,-281.5 816,-281.5"/>
<polygon fill="none" stroke="#bfbfbf" points="816,-175 816,-314 968,-314 968,-175 816,-175"/>
</a>
</g>
</g>
<!-- Node1&#45;&gt;Node10 -->
<g id="edge9_Node000001_Node000010" class="edge">
<title>Node1&#45;&gt;Node10</title>
<g id="a_edge9_Node000001_Node000010"><a xlink:title=" ">
<path fill="none" stroke="#63b8ff" d="M1186.17,-436.75C1126.03,-431.7 1039.87,-416.78 978,-374 956.14,-358.89 938.33,-336.24 924.7,-314.16"/>
<polygon fill="none" stroke="#63b8ff" points="1186.1,-440.25 1196.34,-437.53 1186.63,-433.27 1186.1,-440.25"/>
</a>
</g>
</g>
<!-- Node11 -->
<g id="Node000011" class="node">
<title>Node11</title>
<g id="a_Node000011"><a xlink:href="../../da/dba/classpocketmine_1_1block_1_1_wooden_button.html" target="_top" xlink:title=" ">
<polygon fill="white" stroke="transparent" points="1157.5,-284 986.5,-284 986.5,-205 1157.5,-205 1157.5,-284"/>
<text text-anchor="start" x="992" y="-271.5" font-family="Helvetica,sans-Serif" font-size="10.00">pocketmine\block\WoodenButton</text>
<text text-anchor="start" x="1070.5" y="-256.5" font-family="Helvetica,sans-Serif" font-size="10.00"> </text>
<text text-anchor="start" x="1004" y="-241.5" font-family="Helvetica,sans-Serif" font-size="10.00">+</text>
<text text-anchor="start" x="1030" y="-241.5" font-family="Helvetica,sans-Serif" font-size="10.00">getFuelTime()</text>
<text text-anchor="start" x="1004" y="-226.5" font-family="Helvetica,sans-Serif" font-size="10.00">+</text>
<text text-anchor="start" x="1030" y="-226.5" font-family="Helvetica,sans-Serif" font-size="10.00">hasEntityCollision()</text>
<text text-anchor="start" x="1004" y="-211.5" font-family="Helvetica,sans-Serif" font-size="10.00">#</text>
<text text-anchor="start" x="1030" y="-211.5" font-family="Helvetica,sans-Serif" font-size="10.00">getActivationTime()</text>
<polygon fill="#bfbfbf" stroke="#bfbfbf" points="987,-266.5 987,-266.5 1158,-266.5 1158,-266.5 987,-266.5"/>
<polygon fill="#bfbfbf" stroke="#bfbfbf" points="987,-251.5 987,-251.5 1158,-251.5 1158,-251.5 987,-251.5"/>
<polygon fill="none" stroke="#bfbfbf" points="986.5,-205 986.5,-284 1157.5,-284 1157.5,-205 986.5,-205"/>
</a>
</g>
</g>
<!-- Node1&#45;&gt;Node11 -->
<g id="edge10_Node000001_Node000011" class="edge">
<title>Node1&#45;&gt;Node11</title>
<g id="a_edge10_Node000001_Node000011"><a xlink:title=" ">
<path fill="none" stroke="#63b8ff" d="M1202.48,-403.76C1190.22,-394.73 1177.69,-384.57 1167,-374 1139.48,-346.79 1113.74,-311.07 1096.02,-284.21"/>
<polygon fill="none" stroke="#63b8ff" points="1200.73,-406.81 1210.89,-409.81 1204.82,-401.13 1200.73,-406.81"/>
</a>
</g>
</g>
<!-- Node12 -->
<g id="Node000012" class="node">
<title>Node12</title>
<g id="a_Node000012"><a xlink:href="../../df/daf/classpocketmine_1_1block_1_1_wooden_door.html" target="_top" xlink:title=" ">
<polygon fill="white" stroke="transparent" points="1338,-269 1176,-269 1176,-220 1338,-220 1338,-269"/>
<text text-anchor="start" x="1181" y="-256.5" font-family="Helvetica,sans-Serif" font-size="10.00">pocketmine\block\WoodenDoor</text>
<text text-anchor="start" x="1255" y="-241.5" font-family="Helvetica,sans-Serif" font-size="10.00"> </text>
<text text-anchor="start" x="1198" y="-226.5" font-family="Helvetica,sans-Serif" font-size="10.00">+</text>
<text text-anchor="start" x="1229" y="-226.5" font-family="Helvetica,sans-Serif" font-size="10.00">getFuelTime()</text>
<polygon fill="#bfbfbf" stroke="#bfbfbf" points="1176,-251.5 1176,-251.5 1338,-251.5 1338,-251.5 1176,-251.5"/>
<polygon fill="#bfbfbf" stroke="#bfbfbf" points="1176,-236.5 1176,-236.5 1338,-236.5 1338,-236.5 1176,-236.5"/>
<polygon fill="none" stroke="#bfbfbf" points="1176,-220 1176,-269 1338,-269 1338,-220 1176,-220"/>
</a>
</g>
</g>
<!-- Node1&#45;&gt;Node12 -->
<g id="edge11_Node000001_Node000012" class="edge">
<title>Node1&#45;&gt;Node12</title>
<g id="a_edge11_Node000001_Node000012"><a xlink:title=" ">
<path fill="none" stroke="#63b8ff" d="M1257,-399.6C1257,-360.39 1257,-301.52 1257,-269.06"/>
<polygon fill="none" stroke="#63b8ff" points="1253.5,-399.61 1257,-409.61 1260.5,-399.61 1253.5,-399.61"/>
</a>
</g>
</g>
<!-- Node13 -->
<g id="Node000013" class="node">
<title>Node13</title>
<g id="a_Node000013"><a xlink:href="../../d3/de8/classpocketmine_1_1block_1_1_wooden_fence.html" target="_top" xlink:title=" ">
<polygon fill="white" stroke="transparent" points="1523.5,-284 1356.5,-284 1356.5,-205 1523.5,-205 1523.5,-284"/>
<text text-anchor="start" x="1362" y="-271.5" font-family="Helvetica,sans-Serif" font-size="10.00">pocketmine\block\WoodenFence</text>
<text text-anchor="start" x="1438.5" y="-256.5" font-family="Helvetica,sans-Serif" font-size="10.00"> </text>
<text text-anchor="start" x="1364.5" y="-241.5" font-family="Helvetica,sans-Serif" font-size="10.00">+</text>
<text text-anchor="start" x="1381" y="-241.5" font-family="Helvetica,sans-Serif" font-size="10.00">getFlameEncouragement()</text>
<text text-anchor="start" x="1364.5" y="-226.5" font-family="Helvetica,sans-Serif" font-size="10.00">+</text>
<text text-anchor="start" x="1381" y="-226.5" font-family="Helvetica,sans-Serif" font-size="10.00">getFlammability()</text>
<text text-anchor="start" x="1364.5" y="-211.5" font-family="Helvetica,sans-Serif" font-size="10.00">+</text>
<text text-anchor="start" x="1381" y="-211.5" font-family="Helvetica,sans-Serif" font-size="10.00">getFuelTime()</text>
<polygon fill="#bfbfbf" stroke="#bfbfbf" points="1357,-266.5 1357,-266.5 1524,-266.5 1524,-266.5 1357,-266.5"/>
<polygon fill="#bfbfbf" stroke="#bfbfbf" points="1357,-251.5 1357,-251.5 1524,-251.5 1524,-251.5 1357,-251.5"/>
<polygon fill="none" stroke="#bfbfbf" points="1356.5,-205 1356.5,-284 1523.5,-284 1523.5,-205 1356.5,-205"/>
</a>
</g>
</g>
<!-- Node1&#45;&gt;Node13 -->
<g id="edge12_Node000001_Node000013" class="edge">
<title>Node1&#45;&gt;Node13</title>
<g id="a_edge12_Node000001_Node000013"><a xlink:title=" ">
<path fill="none" stroke="#63b8ff" d="M1311.6,-403.84C1323.85,-394.81 1336.36,-384.63 1347,-374 1374.18,-346.85 1399.35,-311.13 1416.64,-284.25"/>
<polygon fill="none" stroke="#63b8ff" points="1309.26,-401.21 1303.18,-409.89 1313.35,-406.89 1309.26,-401.21"/>
</a>
</g>
</g>
<!-- Node14 -->
<g id="Node000014" class="node">
<title>Node14</title>
<g id="a_Node000014"><a xlink:href="../../d0/d98/classpocketmine_1_1block_1_1_wooden_pressure_plate.html" target="_top" xlink:title=" ">
<polygon fill="white" stroke="transparent" points="1722.5,-282 1541.5,-282 1541.5,-207 1722.5,-207 1722.5,-282"/>
<text text-anchor="start" x="1547" y="-269.5" font-family="Helvetica,sans-Serif" font-size="10.00">pocketmine\block\WoodenPressure</text>
<text text-anchor="start" x="1620" y="-258.5" font-family="Helvetica,sans-Serif" font-size="10.00">Plate</text>
<text text-anchor="start" x="1630.5" y="-243.5" font-family="Helvetica,sans-Serif" font-size="10.00"> </text>
<text text-anchor="start" x="1568.5" y="-228.5" font-family="Helvetica,sans-Serif" font-size="10.00">+</text>
<text text-anchor="start" x="1604" y="-228.5" font-family="Helvetica,sans-Serif" font-size="10.00">__construct()</text>
<text text-anchor="start" x="1568.5" y="-213.5" font-family="Helvetica,sans-Serif" font-size="10.00">+</text>
<text text-anchor="start" x="1604" y="-213.5" font-family="Helvetica,sans-Serif" font-size="10.00">getFuelTime()</text>
<polygon fill="#bfbfbf" stroke="#bfbfbf" points="1542,-253.5 1542,-253.5 1723,-253.5 1723,-253.5 1542,-253.5"/>
<polygon fill="#bfbfbf" stroke="#bfbfbf" points="1542,-238.5 1542,-238.5 1723,-238.5 1723,-238.5 1542,-238.5"/>
<polygon fill="none" stroke="#bfbfbf" points="1541.5,-207 1541.5,-282 1722.5,-282 1722.5,-207 1541.5,-207"/>
</a>
</g>
</g>
<!-- Node1&#45;&gt;Node14 -->
<g id="edge13_Node000001_Node000014" class="edge">
<title>Node1&#45;&gt;Node14</title>
<g id="a_edge13_Node000001_Node000014"><a xlink:title=" ">
<path fill="none" stroke="#63b8ff" d="M1327.5,-435.42C1386.51,-429.52 1470.82,-414.1 1533,-374 1568.26,-351.26 1596.02,-311.46 1613.05,-282.16"/>
<polygon fill="none" stroke="#63b8ff" points="1327.15,-431.93 1317.52,-436.35 1327.8,-438.9 1327.15,-431.93"/>
</a>
</g>
</g>
<!-- Node15 -->
<g id="Node000015" class="node">
<title>Node15</title>
<g id="a_Node000015"><a xlink:href="../../df/d7b/classpocketmine_1_1block_1_1_wooden_slab.html" target="_top" xlink:title=" ">
<polygon fill="white" stroke="transparent" points="1901,-284 1741,-284 1741,-205 1901,-205 1901,-284"/>
<text text-anchor="start" x="1746" y="-271.5" font-family="Helvetica,sans-Serif" font-size="10.00">pocketmine\block\WoodenSlab</text>
<text text-anchor="start" x="1819" y="-256.5" font-family="Helvetica,sans-Serif" font-size="10.00"> </text>
<text text-anchor="start" x="1747" y="-241.5" font-family="Helvetica,sans-Serif" font-size="10.00">+</text>
<text text-anchor="start" x="1762" y="-241.5" font-family="Helvetica,sans-Serif" font-size="10.00">getFlameEncouragement()</text>
<text text-anchor="start" x="1747" y="-226.5" font-family="Helvetica,sans-Serif" font-size="10.00">+</text>
<text text-anchor="start" x="1762" y="-226.5" font-family="Helvetica,sans-Serif" font-size="10.00">getFlammability()</text>
<text text-anchor="start" x="1747" y="-211.5" font-family="Helvetica,sans-Serif" font-size="10.00">+</text>
<text text-anchor="start" x="1762" y="-211.5" font-family="Helvetica,sans-Serif" font-size="10.00">getFuelTime()</text>
<polygon fill="#bfbfbf" stroke="#bfbfbf" points="1741,-266.5 1741,-266.5 1901,-266.5 1901,-266.5 1741,-266.5"/>
<polygon fill="#bfbfbf" stroke="#bfbfbf" points="1741,-251.5 1741,-251.5 1901,-251.5 1901,-251.5 1741,-251.5"/>
<polygon fill="none" stroke="#bfbfbf" points="1741,-205 1741,-284 1901,-284 1901,-205 1741,-205"/>
</a>
</g>
</g>
<!-- Node1&#45;&gt;Node15 -->
<g id="edge14_Node000001_Node000015" class="edge">
<title>Node1&#45;&gt;Node15</title>
<g id="a_edge14_Node000001_Node000015"><a xlink:title=" ">
<path fill="none" stroke="#63b8ff" d="M1327.72,-436.24C1443.13,-430.61 1665.72,-414.68 1732,-374 1766,-353.13 1790.3,-313.86 1804.83,-284.2"/>
<polygon fill="none" stroke="#63b8ff" points="1327.4,-432.75 1317.58,-436.72 1327.73,-439.74 1327.4,-432.75"/>
</a>
</g>
</g>
<!-- Node16 -->
<g id="Node000016" class="node">
<title>Node16</title>
<g id="a_Node000016"><a xlink:href="../../dc/dc0/classpocketmine_1_1block_1_1_wooden_stairs.html" target="_top" xlink:title=" ">
<polygon fill="white" stroke="transparent" points="2086.5,-284 1919.5,-284 1919.5,-205 2086.5,-205 2086.5,-284"/>
<text text-anchor="start" x="1925" y="-271.5" font-family="Helvetica,sans-Serif" font-size="10.00">pocketmine\block\WoodenStairs</text>
<text text-anchor="start" x="2001.5" y="-256.5" font-family="Helvetica,sans-Serif" font-size="10.00"> </text>
<text text-anchor="start" x="1927.5" y="-241.5" font-family="Helvetica,sans-Serif" font-size="10.00">+</text>
<text text-anchor="start" x="1944" y="-241.5" font-family="Helvetica,sans-Serif" font-size="10.00">getFlameEncouragement()</text>
<text text-anchor="start" x="1927.5" y="-226.5" font-family="Helvetica,sans-Serif" font-size="10.00">+</text>
<text text-anchor="start" x="1944" y="-226.5" font-family="Helvetica,sans-Serif" font-size="10.00">getFlammability()</text>
<text text-anchor="start" x="1927.5" y="-211.5" font-family="Helvetica,sans-Serif" font-size="10.00">+</text>
<text text-anchor="start" x="1944" y="-211.5" font-family="Helvetica,sans-Serif" font-size="10.00">getFuelTime()</text>
<polygon fill="#bfbfbf" stroke="#bfbfbf" points="1920,-266.5 1920,-266.5 2087,-266.5 2087,-266.5 1920,-266.5"/>
<polygon fill="#bfbfbf" stroke="#bfbfbf" points="1920,-251.5 1920,-251.5 2087,-251.5 2087,-251.5 1920,-251.5"/>
<polygon fill="none" stroke="#bfbfbf" points="1919.5,-205 1919.5,-284 2086.5,-284 2086.5,-205 1919.5,-205"/>
</a>
</g>
</g>
<!-- Node1&#45;&gt;Node16 -->
<g id="edge15_Node000001_Node000016" class="edge">
<title>Node1&#45;&gt;Node16</title>
<g id="a_edge15_Node000001_Node000016"><a xlink:title=" ">
<path fill="none" stroke="#63b8ff" d="M1327.86,-439.16C1475.9,-438.34 1812.34,-430.15 1910,-374 1945.21,-353.75 1970.72,-314.18 1986.02,-284.27"/>
<polygon fill="none" stroke="#63b8ff" points="1327.52,-435.66 1317.54,-439.2 1327.55,-442.66 1327.52,-435.66"/>
</a>
</g>
</g>
<!-- Node17 -->
<g id="Node000017" class="node">
<title>Node17</title>
<g id="a_Node000017"><a xlink:href="../../d3/da4/classpocketmine_1_1block_1_1_wooden_trapdoor.html" target="_top" xlink:title=" ">
<polygon fill="white" stroke="transparent" points="2285.5,-269 2104.5,-269 2104.5,-220 2285.5,-220 2285.5,-269"/>
<text text-anchor="start" x="2110" y="-256.5" font-family="Helvetica,sans-Serif" font-size="10.00">pocketmine\block\WoodenTrapdoor</text>
<text text-anchor="start" x="2193.5" y="-241.5" font-family="Helvetica,sans-Serif" font-size="10.00"> </text>
<text text-anchor="start" x="2131.5" y="-226.5" font-family="Helvetica,sans-Serif" font-size="10.00">+</text>
<text text-anchor="start" x="2167" y="-226.5" font-family="Helvetica,sans-Serif" font-size="10.00">getFuelTime()</text>
<polygon fill="#bfbfbf" stroke="#bfbfbf" points="2105,-251.5 2105,-251.5 2286,-251.5 2286,-251.5 2105,-251.5"/>
<polygon fill="#bfbfbf" stroke="#bfbfbf" points="2105,-236.5 2105,-236.5 2286,-236.5 2286,-236.5 2105,-236.5"/>
<polygon fill="none" stroke="#bfbfbf" points="2104.5,-220 2104.5,-269 2285.5,-269 2285.5,-220 2104.5,-220"/>
</a>
</g>
</g>
<!-- Node1&#45;&gt;Node17 -->
<g id="edge16_Node000001_Node000017" class="edge">
<title>Node1&#45;&gt;Node17</title>
<g id="a_edge16_Node000001_Node000017"><a xlink:title=" ">
<path fill="none" stroke="#63b8ff" d="M1327.92,-436.8C1518.05,-430.43 2029.24,-410.11 2096,-374 2139.22,-350.62 2169.52,-299.41 2184.43,-269.17"/>
<polygon fill="none" stroke="#63b8ff" points="1327.64,-433.3 1317.76,-437.13 1327.87,-440.3 1327.64,-433.3"/>
</a>
</g>
</g>
<!-- Node3 -->
<g id="Node000003" class="node">
<title>Node3</title>
<g id="a_Node000003"><a xlink:href="../../df/da1/classpocketmine_1_1block_1_1_ceiling_center_hanging_sign.html" target="_top" xlink:title=" ">
<polygon fill="white" stroke="transparent" points="134,-77 0,-77 0,-2 134,-2 134,-77"/>
<text text-anchor="start" x="5" y="-64.5" font-family="Helvetica,sans-Serif" font-size="10.00">pocketmine\block\Ceiling</text>
<text text-anchor="start" x="20" y="-53.5" font-family="Helvetica,sans-Serif" font-size="10.00">CenterHangingSign</text>
<text text-anchor="start" x="65" y="-38.5" font-family="Helvetica,sans-Serif" font-size="10.00"> </text>
<text text-anchor="start" x="7.5" y="-23.5" font-family="Helvetica,sans-Serif" font-size="10.00">+</text>
<text text-anchor="start" x="24" y="-23.5" font-family="Helvetica,sans-Serif" font-size="10.00">place()</text>
<text text-anchor="start" x="7.5" y="-8.5" font-family="Helvetica,sans-Serif" font-size="10.00">#</text>
<text text-anchor="start" x="24" y="-8.5" font-family="Helvetica,sans-Serif" font-size="10.00">getSupportingFace()</text>
<polygon fill="#bfbfbf" stroke="#bfbfbf" points="0,-48.5 0,-48.5 134,-48.5 134,-48.5 0,-48.5"/>
<polygon fill="#bfbfbf" stroke="#bfbfbf" points="0,-33.5 0,-33.5 134,-33.5 134,-33.5 0,-33.5"/>
<polygon fill="none" stroke="#bfbfbf" points="0,-2 0,-77 134,-77 134,-2 0,-2"/>
</a>
</g>
</g>
<!-- Node2&#45;&gt;Node3 -->
<g id="edge2_Node000002_Node000003" class="edge">
<title>Node2&#45;&gt;Node3</title>
<g id="a_edge2_Node000002_Node000003"><a xlink:title=" ">
<path fill="none" stroke="#63b8ff" d="M289.91,-186.47C236.45,-151.46 169.54,-107.65 123.05,-77.2"/>
<polygon fill="none" stroke="#63b8ff" points="288.09,-189.46 298.37,-192.01 291.92,-183.61 288.09,-189.46"/>
</a>
</g>
</g>
<!-- Node4 -->
<g id="Node000004" class="node">
<title>Node4</title>
<g id="a_Node000004"><a xlink:href="../../d3/d62/classpocketmine_1_1block_1_1_ceiling_edges_hanging_sign.html" target="_top" xlink:title=" ">
<polygon fill="white" stroke="transparent" points="286,-77 152,-77 152,-2 286,-2 286,-77"/>
<text text-anchor="start" x="157" y="-64.5" font-family="Helvetica,sans-Serif" font-size="10.00">pocketmine\block\Ceiling</text>
<text text-anchor="start" x="173.5" y="-53.5" font-family="Helvetica,sans-Serif" font-size="10.00">EdgesHangingSign</text>
<text text-anchor="start" x="217" y="-38.5" font-family="Helvetica,sans-Serif" font-size="10.00"> </text>
<text text-anchor="start" x="159.5" y="-23.5" font-family="Helvetica,sans-Serif" font-size="10.00">+</text>
<text text-anchor="start" x="176" y="-23.5" font-family="Helvetica,sans-Serif" font-size="10.00">place()</text>
<text text-anchor="start" x="159.5" y="-8.5" font-family="Helvetica,sans-Serif" font-size="10.00">#</text>
<text text-anchor="start" x="176" y="-8.5" font-family="Helvetica,sans-Serif" font-size="10.00">getSupportingFace()</text>
<polygon fill="#bfbfbf" stroke="#bfbfbf" points="152,-48.5 152,-48.5 286,-48.5 286,-48.5 152,-48.5"/>
<polygon fill="#bfbfbf" stroke="#bfbfbf" points="152,-33.5 152,-33.5 286,-33.5 286,-33.5 152,-33.5"/>
<polygon fill="none" stroke="#bfbfbf" points="152,-2 152,-77 286,-77 286,-2 152,-2"/>
</a>
</g>
</g>
<!-- Node2&#45;&gt;Node4 -->
<g id="edge3_Node000002_Node000004" class="edge">
<title>Node2&#45;&gt;Node4</title>
<g id="a_edge3_Node000002_Node000004"><a xlink:title=" ">
<path fill="none" stroke="#63b8ff" d="M292.26,-134.62C276.09,-113.84 260.24,-93.48 247.44,-77.05"/>
<polygon fill="none" stroke="#63b8ff" points="289.56,-136.85 298.46,-142.59 295.08,-132.55 289.56,-136.85"/>
</a>
</g>
</g>
<!-- Node5 -->
<g id="Node000005" class="node">
<title>Node5</title>
<g id="a_Node000005"><a xlink:href="../../dd/de8/classpocketmine_1_1block_1_1_floor_sign.html" target="_top" xlink:title=" ">
<polygon fill="white" stroke="transparent" points="450,-71.5 304,-71.5 304,-7.5 450,-7.5 450,-71.5"/>
<text text-anchor="start" x="309" y="-59.5" font-family="Helvetica,sans-Serif" font-size="10.00">pocketmine\block\FloorSign</text>
<text text-anchor="start" x="375" y="-44.5" font-family="Helvetica,sans-Serif" font-size="10.00"> </text>
<text text-anchor="start" x="314.5" y="-29.5" font-family="Helvetica,sans-Serif" font-size="10.00">+</text>
<text text-anchor="start" x="334" y="-29.5" font-family="Helvetica,sans-Serif" font-size="10.00">place()</text>
<text text-anchor="start" x="314.5" y="-14.5" font-family="Helvetica,sans-Serif" font-size="10.00">#</text>
<text text-anchor="start" x="334" y="-14.5" font-family="Helvetica,sans-Serif" font-size="10.00">getSupportingFace()</text>
<polygon fill="#bfbfbf" stroke="#bfbfbf" points="304,-54.5 304,-54.5 450,-54.5 450,-54.5 304,-54.5"/>
<polygon fill="#bfbfbf" stroke="#bfbfbf" points="304,-39.5 304,-39.5 450,-39.5 450,-39.5 304,-39.5"/>
<polygon fill="none" stroke="#bfbfbf" points="304,-7.5 304,-71.5 450,-71.5 450,-7.5 304,-7.5"/>
</a>
</g>
</g>
<!-- Node2&#45;&gt;Node5 -->
<g id="edge4_Node000002_Node000005" class="edge">
<title>Node2&#45;&gt;Node5</title>
<g id="a_edge4_Node000002_Node000005"><a xlink:title=" ">
<path fill="none" stroke="#63b8ff" d="M377,-104.66C377,-92.63 377,-81.42 377,-71.84"/>
<polygon fill="none" stroke="#63b8ff" points="373.5,-104.94 377,-114.94 380.5,-104.94 373.5,-104.94"/>
</a>
</g>
</g>
<!-- Node6 -->
<g id="Node000006" class="node">
<title>Node6</title>
<g id="a_Node000006"><a xlink:href="../../da/df3/classpocketmine_1_1block_1_1_wall_hanging_sign.html" target="_top" xlink:title=" ">
<polygon fill="white" stroke="transparent" points="650,-79 468,-79 468,0 650,0 650,-79"/>
<text text-anchor="start" x="473" y="-66.5" font-family="Helvetica,sans-Serif" font-size="10.00">pocketmine\block\WallHangingSign</text>
<text text-anchor="start" x="557" y="-51.5" font-family="Helvetica,sans-Serif" font-size="10.00"> </text>
<text text-anchor="start" x="478" y="-36.5" font-family="Helvetica,sans-Serif" font-size="10.00">+</text>
<text text-anchor="start" x="497" y="-36.5" font-family="Helvetica,sans-Serif" font-size="10.00">place()</text>
<text text-anchor="start" x="478" y="-21.5" font-family="Helvetica,sans-Serif" font-size="10.00">#</text>
<text text-anchor="start" x="497" y="-21.5" font-family="Helvetica,sans-Serif" font-size="10.00">getSupportingFace()</text>
<text text-anchor="start" x="478" y="-6.5" font-family="Helvetica,sans-Serif" font-size="10.00">#</text>
<text text-anchor="start" x="497" y="-6.5" font-family="Helvetica,sans-Serif" font-size="10.00">getSupportingFaceOptions()</text>
<polygon fill="#bfbfbf" stroke="#bfbfbf" points="468,-61.5 468,-61.5 650,-61.5 650,-61.5 468,-61.5"/>
<polygon fill="#bfbfbf" stroke="#bfbfbf" points="468,-46.5 468,-46.5 650,-46.5 650,-46.5 468,-46.5"/>
<polygon fill="none" stroke="#bfbfbf" points="468,0 468,-79 650,-79 650,0 468,0"/>
</a>
</g>
</g>
<!-- Node2&#45;&gt;Node6 -->
<g id="edge5_Node000002_Node000006" class="edge">
<title>Node2&#45;&gt;Node6</title>
<g id="a_edge5_Node000002_Node000006"><a xlink:title=" ">
<path fill="none" stroke="#63b8ff" d="M462.36,-117.86C463.24,-116.9 464.12,-115.95 465,-115 476.79,-102.36 490.81,-90.09 504.39,-79.27"/>
<polygon fill="none" stroke="#63b8ff" points="459.69,-115.6 455.69,-125.41 464.93,-120.24 459.69,-115.6"/>
</a>
</g>
</g>
<!-- Node7 -->
<g id="Node000007" class="node">
<title>Node7</title>
<g id="a_Node000007"><a xlink:href="../../df/d74/classpocketmine_1_1block_1_1_wall_sign.html" target="_top" xlink:title=" ">
<polygon fill="white" stroke="transparent" points="810,-71.5 668,-71.5 668,-7.5 810,-7.5 810,-71.5"/>
<text text-anchor="start" x="673" y="-59.5" font-family="Helvetica,sans-Serif" font-size="10.00">pocketmine\block\WallSign</text>
<text text-anchor="start" x="737" y="-44.5" font-family="Helvetica,sans-Serif" font-size="10.00"> </text>
<text text-anchor="start" x="677.5" y="-29.5" font-family="Helvetica,sans-Serif" font-size="10.00">+</text>
<text text-anchor="start" x="696" y="-29.5" font-family="Helvetica,sans-Serif" font-size="10.00">place()</text>
<text text-anchor="start" x="677.5" y="-14.5" font-family="Helvetica,sans-Serif" font-size="10.00">#</text>
<text text-anchor="start" x="696" y="-14.5" font-family="Helvetica,sans-Serif" font-size="10.00">getSupportingFace()</text>
<polygon fill="#bfbfbf" stroke="#bfbfbf" points="668,-54.5 668,-54.5 810,-54.5 810,-54.5 668,-54.5"/>
<polygon fill="#bfbfbf" stroke="#bfbfbf" points="668,-39.5 668,-39.5 810,-39.5 810,-39.5 668,-39.5"/>
<polygon fill="none" stroke="#bfbfbf" points="668,-7.5 668,-71.5 810,-71.5 810,-7.5 668,-7.5"/>
</a>
</g>
</g>
<!-- Node2&#45;&gt;Node7 -->
<g id="edge6_Node000002_Node000007" class="edge">
<title>Node2&#45;&gt;Node7</title>
<g id="a_edge6_Node000002_Node000007"><a xlink:title=" ">
<path fill="none" stroke="#63b8ff" d="M464.11,-115.58C464.41,-115.39 464.7,-115.19 465,-115 538.5,-67.17 575.65,-106.25 659,-79 665.45,-76.89 672.04,-74.37 678.54,-71.64"/>
<polygon fill="none" stroke="#63b8ff" points="461.78,-112.95 455.73,-121.65 465.89,-118.62 461.78,-112.95"/>
</a>
</g>
</g>
</g>
</svg>

<g id="navigator" transform="translate(0 0)" fill="#404254">
  <rect fill="#f2f5e9" fill-opacity="0.5" stroke="#606060" stroke-width=".5" x="0" y="0" width="60" height="60"/>
  <use id="zoomplus" xlink:href="#zoomPlus" x="17" y="9" onmousedown="handleZoom(evt,'in')"/>
  <use id="zoomminus" xlink:href="#zoomMin" x="42" y="9" onmousedown="handleZoom(evt,'out')"/>
  <use id="reset" xlink:href="#resetDef" x="30" y="36" onmousedown="handleReset()"/>
   <use id="arrowup" xlink:href="#arrowUp" x="0" y="0" onmousedown="handlePan(0,-1)"/>
  <use id="arrowright" xlink:href="#arrowRight" x="0" y="0" onmousedown="handlePan(1,0)"/>
  <use id="arrowdown" xlink:href="#arrowDown" x="0" y="0" onmousedown="handlePan(0,1)"/>
  <use id="arrowleft" xlink:href="#arrowLeft" x="0" y="0" onmousedown="handlePan(-1,0)"/>
</g>
<svg viewBox="0 0 15 15" width="100%" height="30px" preserveAspectRatio="xMaxYMin meet">
 <g id="arrow_out" transform="scale(0.3 0.3)">
  <a xlink:href="interfacepocketmine_1_1block_1_1utils_1_1_wood_material__inherit__graph_org.svg" target="_base">
   <rect id="button" ry="5" rx="5" y="6" x="6" height="38" width="38"
        fill="#f2f5e9" fill-opacity="0.5" stroke="#606060" stroke-width="1.0"/>
   <path id="arrow"
     d="M 11.500037,31.436501 C 11.940474,20.09759 22.043105,11.32322 32.158766,21.979434 L 37.068811,17.246167 C 37.068811,17.246167 37.088388,32 37.088388,32 L 22.160133,31.978069 C 22.160133,31.978069 26.997745,27.140456 26.997745,27.140456 C 18.528582,18.264221 13.291696,25.230495 11.500037,31.436501 z"
     style="fill:#404040;"/>
  </a>
 </g>
</svg>

<style type='text/css'>
<![CDATA[
[data-mouse-over-selected='false'] { opacity: 0.7; }
[data-mouse-over-selected='true']  { opacity: 1.0; }
]]>
</style>
<script type="application/ecmascript"><![CDATA[
document.addEventListener('DOMContentLoaded', (event) => {
  highlightEdges();
  highlightAdjacentNodes();
});
]]></script>
</svg>
