<?xml version="1.0" encoding="UTF-8" standalone="no"?>
<!DOCTYPE svg PUBLIC "-//W3C//DTD SVG 1.1//EN"
 "http://www.w3.org/Graphics/SVG/1.1/DTD/svg11.dtd">
<!-- Generated by graphviz version 2.43.0 (0)
 -->
<!-- Title: pocketmine\block\CakeWithDyedCandle Pages: 1 -->
<svg width="660pt" height="2109pt"
 viewBox="0.00 0.00 660.39 2109.00" xmlns="http://www.w3.org/2000/svg" xmlns:xlink="http://www.w3.org/1999/xlink">
<g id="graph0" class="graph" transform="scale(1 1) rotate(0) translate(4 2105)">
<title>pocketmine\block\CakeWithDyedCandle</title>
<polygon fill="white" stroke="transparent" points="-4,4 -4,-2105 656.39,-2105 656.39,4 -4,4"/>
<!-- Node1 -->
<g id="node1" class="node">
<title>Node1</title>
<g id="a_node1"><a xlink:title=" ">
<polygon fill="#bfbfbf" stroke="black" points="342.39,-0.5 342.39,-79.5 494.39,-79.5 494.39,-0.5 342.39,-0.5"/>
<text text-anchor="start" x="350.39" y="-67.5" font-family="Helvetica,sans-Serif" font-size="10.00">pocketmine\block\CakeWith</text>
<text text-anchor="middle" x="418.39" y="-56.5" font-family="Helvetica,sans-Serif" font-size="10.00">DyedCandle</text>
<polyline fill="none" stroke="black" points="342.39,-49.5 494.39,-49.5 "/>
<text text-anchor="middle" x="418.39" y="-37.5" font-family="Helvetica,sans-Serif" font-size="10.00"> </text>
<polyline fill="none" stroke="black" points="342.39,-30.5 494.39,-30.5 "/>
<text text-anchor="start" x="350.39" y="-18.5" font-family="Helvetica,sans-Serif" font-size="10.00">+ __construct()</text>
<text text-anchor="start" x="350.39" y="-7.5" font-family="Helvetica,sans-Serif" font-size="10.00">+ getCandle()</text>
</a>
</g>
</g>
<!-- Node2 -->
<g id="node2" class="node">
<title>Node2</title>
<g id="a_node2"><a xlink:href="../../da/d60/classpocketmine_1_1block_1_1_cake_with_candle.html" target="_top" xlink:title=" ">
<polygon fill="white" stroke="#bfbfbf" points="333.39,-117.5 333.39,-251.5 503.39,-251.5 503.39,-117.5 333.39,-117.5"/>
<text text-anchor="start" x="341.39" y="-239.5" font-family="Helvetica,sans-Serif" font-size="10.00">pocketmine\block\CakeWith</text>
<text text-anchor="middle" x="418.39" y="-228.5" font-family="Helvetica,sans-Serif" font-size="10.00">Candle</text>
<polyline fill="none" stroke="#bfbfbf" points="333.39,-221.5 503.39,-221.5 "/>
<text text-anchor="middle" x="418.39" y="-209.5" font-family="Helvetica,sans-Serif" font-size="10.00"> </text>
<polyline fill="none" stroke="#bfbfbf" points="333.39,-202.5 503.39,-202.5 "/>
<text text-anchor="start" x="341.39" y="-190.5" font-family="Helvetica,sans-Serif" font-size="10.00">+ getCandle()</text>
<text text-anchor="start" x="341.39" y="-179.5" font-family="Helvetica,sans-Serif" font-size="10.00">+ getDropsForCompatibleTool()</text>
<text text-anchor="start" x="341.39" y="-168.5" font-family="Helvetica,sans-Serif" font-size="10.00">+ getPickedItem()</text>
<text text-anchor="start" x="341.39" y="-157.5" font-family="Helvetica,sans-Serif" font-size="10.00">+ getResidue()</text>
<text text-anchor="start" x="341.39" y="-146.5" font-family="Helvetica,sans-Serif" font-size="10.00">+ onConsume()</text>
<text text-anchor="start" x="341.39" y="-135.5" font-family="Helvetica,sans-Serif" font-size="10.00">+ onInteract()</text>
<text text-anchor="start" x="341.39" y="-124.5" font-family="Helvetica,sans-Serif" font-size="10.00"># recalculateCollisionBoxes()</text>
</a>
</g>
</g>
<!-- Node2&#45;&gt;Node1 -->
<g id="edge1" class="edge">
<title>Node2&#45;&gt;Node1</title>
<path fill="none" stroke="midnightblue" d="M418.39,-107.05C418.39,-97.66 418.39,-88.38 418.39,-79.89"/>
<polygon fill="none" stroke="midnightblue" points="414.89,-107.26 418.39,-117.26 421.89,-107.26 414.89,-107.26"/>
</g>
<!-- Node3 -->
<g id="node3" class="node">
<title>Node3</title>
<g id="a_node3"><a xlink:href="../../d6/dc5/classpocketmine_1_1block_1_1_base_cake.html" target="_top" xlink:title=" ">
<polygon fill="white" stroke="#bfbfbf" points="341.39,-289.5 341.39,-445.5 495.39,-445.5 495.39,-289.5 341.39,-289.5"/>
<text text-anchor="middle" x="418.39" y="-433.5" font-family="Helvetica,sans-Serif" font-size="10.00">pocketmine\block\BaseCake</text>
<polyline fill="none" stroke="#bfbfbf" points="341.39,-426.5 495.39,-426.5 "/>
<text text-anchor="middle" x="418.39" y="-414.5" font-family="Helvetica,sans-Serif" font-size="10.00"> </text>
<polyline fill="none" stroke="#bfbfbf" points="341.39,-407.5 495.39,-407.5 "/>
<text text-anchor="start" x="349.39" y="-395.5" font-family="Helvetica,sans-Serif" font-size="10.00">+ getAdditionalEffects()</text>
<text text-anchor="start" x="349.39" y="-384.5" font-family="Helvetica,sans-Serif" font-size="10.00">+ getFoodRestore()</text>
<text text-anchor="start" x="349.39" y="-373.5" font-family="Helvetica,sans-Serif" font-size="10.00">+ getResidue()</text>
<text text-anchor="start" x="349.39" y="-362.5" font-family="Helvetica,sans-Serif" font-size="10.00">+ getSaturationRestore()</text>
<text text-anchor="start" x="349.39" y="-351.5" font-family="Helvetica,sans-Serif" font-size="10.00">+ getSupportType()</text>
<text text-anchor="start" x="349.39" y="-340.5" font-family="Helvetica,sans-Serif" font-size="10.00">+ onConsume()</text>
<text text-anchor="start" x="349.39" y="-329.5" font-family="Helvetica,sans-Serif" font-size="10.00">+ onInteract()</text>
<text text-anchor="start" x="349.39" y="-318.5" font-family="Helvetica,sans-Serif" font-size="10.00">+ onNearbyBlockChange()</text>
<text text-anchor="start" x="349.39" y="-307.5" font-family="Helvetica,sans-Serif" font-size="10.00">+ place()</text>
<text text-anchor="start" x="349.39" y="-296.5" font-family="Helvetica,sans-Serif" font-size="10.00">+ requiresHunger()</text>
</a>
</g>
</g>
<!-- Node3&#45;&gt;Node2 -->
<g id="edge2" class="edge">
<title>Node3&#45;&gt;Node2</title>
<path fill="none" stroke="midnightblue" d="M418.39,-279.38C418.39,-270.03 418.39,-260.64 418.39,-251.6"/>
<polygon fill="none" stroke="midnightblue" points="414.89,-279.48 418.39,-289.48 421.89,-279.48 414.89,-279.48"/>
</g>
<!-- Node4 -->
<g id="node4" class="node">
<title>Node4</title>
<g id="a_node4"><a xlink:href="../../d5/d1b/classpocketmine_1_1block_1_1_transparent.html" target="_top" xlink:title=" ">
<polygon fill="white" stroke="black" points="246.89,-494.5 246.89,-551.5 409.89,-551.5 409.89,-494.5 246.89,-494.5"/>
<text text-anchor="middle" x="328.39" y="-539.5" font-family="Helvetica,sans-Serif" font-size="10.00">pocketmine\block\Transparent</text>
<polyline fill="none" stroke="black" points="246.89,-532.5 409.89,-532.5 "/>
<text text-anchor="middle" x="328.39" y="-520.5" font-family="Helvetica,sans-Serif" font-size="10.00"> </text>
<polyline fill="none" stroke="black" points="246.89,-513.5 409.89,-513.5 "/>
<text text-anchor="start" x="254.89" y="-501.5" font-family="Helvetica,sans-Serif" font-size="10.00">+ isTransparent()</text>
</a>
</g>
</g>
<!-- Node4&#45;&gt;Node3 -->
<g id="edge3" class="edge">
<title>Node4&#45;&gt;Node3</title>
<path fill="none" stroke="midnightblue" d="M349.84,-485.42C356.87,-473.42 364.97,-459.61 373.08,-445.77"/>
<polygon fill="none" stroke="midnightblue" points="346.73,-483.81 344.69,-494.2 352.77,-487.35 346.73,-483.81"/>
</g>
<!-- Node5 -->
<g id="node5" class="node">
<title>Node5</title>
<g id="a_node5"><a xlink:href="../../d7/d27/classpocketmine_1_1block_1_1_block.html" target="_top" xlink:title=" ">
<polygon fill="white" stroke="#bfbfbf" points="246.89,-600.5 246.89,-811.5 407.89,-811.5 407.89,-600.5 246.89,-600.5"/>
<text text-anchor="middle" x="327.39" y="-799.5" font-family="Helvetica,sans-Serif" font-size="10.00">pocketmine\block\Block</text>
<polyline fill="none" stroke="#bfbfbf" points="246.89,-792.5 407.89,-792.5 "/>
<text text-anchor="start" x="254.89" y="-780.5" font-family="Helvetica,sans-Serif" font-size="10.00"># $collisionBoxes</text>
<text text-anchor="start" x="254.89" y="-769.5" font-family="Helvetica,sans-Serif" font-size="10.00"># $fallbackName</text>
<polyline fill="none" stroke="#bfbfbf" points="246.89,-762.5 407.89,-762.5 "/>
<text text-anchor="start" x="254.89" y="-750.5" font-family="Helvetica,sans-Serif" font-size="10.00">+ __construct()</text>
<text text-anchor="start" x="254.89" y="-739.5" font-family="Helvetica,sans-Serif" font-size="10.00">+ __clone()</text>
<text text-anchor="start" x="254.89" y="-728.5" font-family="Helvetica,sans-Serif" font-size="10.00">+ __toString()</text>
<text text-anchor="start" x="254.89" y="-717.5" font-family="Helvetica,sans-Serif" font-size="10.00">+ addVelocityToEntity()</text>
<text text-anchor="start" x="254.89" y="-706.5" font-family="Helvetica,sans-Serif" font-size="10.00">+ asItem()</text>
<text text-anchor="start" x="254.89" y="-695.5" font-family="Helvetica,sans-Serif" font-size="10.00">+ blocksDirectSkyLight()</text>
<text text-anchor="start" x="254.89" y="-684.5" font-family="Helvetica,sans-Serif" font-size="10.00">+ burnsForever()</text>
<text text-anchor="start" x="254.89" y="-673.5" font-family="Helvetica,sans-Serif" font-size="10.00">+ calculateIntercept()</text>
<text text-anchor="start" x="254.89" y="-662.5" font-family="Helvetica,sans-Serif" font-size="10.00">+ canBeFlowedInto()</text>
<text text-anchor="start" x="254.89" y="-651.5" font-family="Helvetica,sans-Serif" font-size="10.00">+ canBePlaced()</text>
<text text-anchor="start" x="254.89" y="-640.5" font-family="Helvetica,sans-Serif" font-size="10.00">and 59 more...</text>
<text text-anchor="start" x="254.89" y="-629.5" font-family="Helvetica,sans-Serif" font-size="10.00"># describeBlockOnlyState()</text>
<text text-anchor="start" x="254.89" y="-618.5" font-family="Helvetica,sans-Serif" font-size="10.00"># getXpDropAmount()</text>
<text text-anchor="start" x="254.89" y="-607.5" font-family="Helvetica,sans-Serif" font-size="10.00"># recalculateCollisionBoxes()</text>
</a>
</g>
</g>
<!-- Node5&#45;&gt;Node4 -->
<g id="edge4" class="edge">
<title>Node5&#45;&gt;Node4</title>
<path fill="none" stroke="midnightblue" d="M328.02,-590.46C328.1,-576.13 328.18,-562.66 328.24,-551.65"/>
<polygon fill="none" stroke="midnightblue" points="324.52,-590.48 327.97,-600.5 331.52,-590.52 324.52,-590.48"/>
</g>
<!-- Node6 -->
<g id="node6" class="node">
<title>Node6</title>
<g id="a_node6"><a xlink:title=" ">
<polygon fill="white" stroke="#bfbfbf" points="4.89,-1608.5 4.89,-1665.5 47.89,-1665.5 47.89,-1608.5 4.89,-1608.5"/>
<text text-anchor="middle" x="26.39" y="-1653.5" font-family="Helvetica,sans-Serif" font-size="10.00">const</text>
<polyline fill="none" stroke="#bfbfbf" points="4.89,-1646.5 47.89,-1646.5 "/>
<text text-anchor="middle" x="26.39" y="-1634.5" font-family="Helvetica,sans-Serif" font-size="10.00"> </text>
<polyline fill="none" stroke="#bfbfbf" points="4.89,-1627.5 47.89,-1627.5 "/>
<text text-anchor="middle" x="26.39" y="-1615.5" font-family="Helvetica,sans-Serif" font-size="10.00"> </text>
</a>
</g>
</g>
<!-- Node6&#45;&gt;Node5 -->
<g id="edge5" class="edge">
<title>Node6&#45;&gt;Node5</title>
<path fill="none" stroke="#404040" d="M22.05,-1608.33C9.13,-1519.75 -24.8,-1235.84 32.39,-1012 51.34,-937.85 61.09,-916.68 111.39,-859 146.61,-818.61 194.69,-783.42 236.54,-757.1"/>
<polygon fill="none" stroke="#404040" points="236.56,-757.09 239.55,-750.53 246.76,-750.77 243.76,-757.33 236.56,-757.09"/>
<text text-anchor="start" x="32.39" y="-1037" font-family="Helvetica,sans-Serif" font-size="10.00"> +INTERNAL_STATE_DATA</text>
<text text-anchor="middle" x="110.89" y="-1026" font-family="Helvetica,sans-Serif" font-size="10.00">_BITS</text>
<text text-anchor="middle" x="110.89" y="-1015" font-family="Helvetica,sans-Serif" font-size="10.00">+INTERNAL_STATE_DATA_MASK</text>
</g>
<!-- Node11 -->
<g id="node11" class="node">
<title>Node11</title>
<g id="a_node11"><a xlink:href="../../d4/d2b/classpocketmine_1_1world_1_1_world.html" target="_top" xlink:title=" ">
<polygon fill="white" stroke="black" points="107.39,-1063.5 107.39,-1373.5 279.39,-1373.5 279.39,-1063.5 107.39,-1063.5"/>
<text text-anchor="middle" x="193.39" y="-1361.5" font-family="Helvetica,sans-Serif" font-size="10.00">pocketmine\world\World</text>
<polyline fill="none" stroke="black" points="107.39,-1354.5 279.39,-1354.5 "/>
<text text-anchor="start" x="115.39" y="-1342.5" font-family="Helvetica,sans-Serif" font-size="10.00">+ $stopTime</text>
<text text-anchor="start" x="115.39" y="-1331.5" font-family="Helvetica,sans-Serif" font-size="10.00">+ $tickRateTime</text>
<text text-anchor="start" x="115.39" y="-1320.5" font-family="Helvetica,sans-Serif" font-size="10.00">+ $updateEntities</text>
<text text-anchor="start" x="115.39" y="-1309.5" font-family="Helvetica,sans-Serif" font-size="10.00">+ TIME_SUNRISE</text>
<text text-anchor="start" x="115.39" y="-1298.5" font-family="Helvetica,sans-Serif" font-size="10.00">+ TIME_SUNSET</text>
<text text-anchor="start" x="115.39" y="-1287.5" font-family="Helvetica,sans-Serif" font-size="10.00">+ Y_MAX</text>
<text text-anchor="start" x="115.39" y="-1276.5" font-family="Helvetica,sans-Serif" font-size="10.00">+ Y_MIN</text>
<polyline fill="none" stroke="black" points="107.39,-1269.5 279.39,-1269.5 "/>
<text text-anchor="start" x="115.39" y="-1257.5" font-family="Helvetica,sans-Serif" font-size="10.00">+ __construct()</text>
<text text-anchor="start" x="115.39" y="-1246.5" font-family="Helvetica,sans-Serif" font-size="10.00">+ __debugInfo()</text>
<text text-anchor="start" x="115.39" y="-1235.5" font-family="Helvetica,sans-Serif" font-size="10.00">+ addEntity()</text>
<text text-anchor="start" x="115.39" y="-1224.5" font-family="Helvetica,sans-Serif" font-size="10.00">+ addOnUnloadCallback()</text>
<text text-anchor="start" x="115.39" y="-1213.5" font-family="Helvetica,sans-Serif" font-size="10.00">+ addParticle()</text>
<text text-anchor="start" x="115.39" y="-1202.5" font-family="Helvetica,sans-Serif" font-size="10.00">+ addRandomTickedBlock()</text>
<text text-anchor="start" x="115.39" y="-1191.5" font-family="Helvetica,sans-Serif" font-size="10.00">+ addSound()</text>
<text text-anchor="start" x="115.39" y="-1180.5" font-family="Helvetica,sans-Serif" font-size="10.00">+ addTile()</text>
<text text-anchor="start" x="115.39" y="-1169.5" font-family="Helvetica,sans-Serif" font-size="10.00">+ broadcastPacketToViewers()</text>
<text text-anchor="start" x="115.39" y="-1158.5" font-family="Helvetica,sans-Serif" font-size="10.00">+ cancelUnloadChunkRequest()</text>
<text text-anchor="start" x="115.39" y="-1147.5" font-family="Helvetica,sans-Serif" font-size="10.00">and 120 more...</text>
<text text-anchor="start" x="115.39" y="-1136.5" font-family="Helvetica,sans-Serif" font-size="10.00">+ blockHash()</text>
<text text-anchor="start" x="115.39" y="-1125.5" font-family="Helvetica,sans-Serif" font-size="10.00">+ chunkBlockHash()</text>
<text text-anchor="start" x="115.39" y="-1114.5" font-family="Helvetica,sans-Serif" font-size="10.00">+ chunkHash()</text>
<text text-anchor="start" x="115.39" y="-1103.5" font-family="Helvetica,sans-Serif" font-size="10.00">+ getBlockXYZ()</text>
<text text-anchor="start" x="115.39" y="-1092.5" font-family="Helvetica,sans-Serif" font-size="10.00">+ getDifficultyFromString()</text>
<text text-anchor="start" x="115.39" y="-1081.5" font-family="Helvetica,sans-Serif" font-size="10.00">+ getXZ()</text>
<text text-anchor="start" x="115.39" y="-1070.5" font-family="Helvetica,sans-Serif" font-size="10.00"># actuallyDoTick()</text>
</a>
</g>
</g>
<!-- Node6&#45;&gt;Node11 -->
<g id="edge12" class="edge">
<title>Node6&#45;&gt;Node11</title>
<path fill="none" stroke="#404040" d="M24.18,-1608.39C21.52,-1561.81 20.72,-1465.49 51.39,-1392 63,-1364.19 80.64,-1337.37 99.58,-1313.51"/>
<polygon fill="none" stroke="#404040" points="99.61,-1313.47 100.29,-1306.29 107.18,-1304.16 106.5,-1311.34 99.61,-1313.47"/>
<text text-anchor="start" x="51.39" y="-1516" font-family="Helvetica,sans-Serif" font-size="10.00"> +DEFAULT_TICKED_BLOCKS</text>
<text text-anchor="middle" x="121.39" y="-1505" font-family="Helvetica,sans-Serif" font-size="10.00">_PER_SUBCHUNK_PER_TICK</text>
<text text-anchor="middle" x="121.39" y="-1494" font-family="Helvetica,sans-Serif" font-size="10.00">+DIFFICULTY_EASY</text>
<text text-anchor="middle" x="121.39" y="-1483" font-family="Helvetica,sans-Serif" font-size="10.00">+DIFFICULTY_HARD</text>
<text text-anchor="middle" x="121.39" y="-1472" font-family="Helvetica,sans-Serif" font-size="10.00">+DIFFICULTY_NORMAL</text>
<text text-anchor="middle" x="121.39" y="-1461" font-family="Helvetica,sans-Serif" font-size="10.00">+DIFFICULTY_PEACEFUL</text>
<text text-anchor="middle" x="121.39" y="-1450" font-family="Helvetica,sans-Serif" font-size="10.00">+TIME_DAY</text>
<text text-anchor="middle" x="121.39" y="-1439" font-family="Helvetica,sans-Serif" font-size="10.00">+TIME_FULL</text>
<text text-anchor="middle" x="121.39" y="-1428" font-family="Helvetica,sans-Serif" font-size="10.00">+TIME_MIDNIGHT</text>
<text text-anchor="middle" x="121.39" y="-1417" font-family="Helvetica,sans-Serif" font-size="10.00">+TIME_NIGHT</text>
<text text-anchor="middle" x="121.39" y="-1406" font-family="Helvetica,sans-Serif" font-size="10.00">+TIME_NOON</text>
<text text-anchor="middle" x="121.39" y="-1395" font-family="Helvetica,sans-Serif" font-size="10.00">...</text>
</g>
<!-- Node7 -->
<g id="node7" class="node">
<title>Node7</title>
<g id="a_node7"><a xlink:href="../../dd/d18/classpocketmine_1_1block_1_1_block_identifier.html" target="_top" xlink:title=" ">
<polygon fill="white" stroke="#bfbfbf" points="284.39,-887 284.39,-966 460.39,-966 460.39,-887 284.39,-887"/>
<text text-anchor="middle" x="372.39" y="-954" font-family="Helvetica,sans-Serif" font-size="10.00">pocketmine\block\BlockIdentifier</text>
<polyline fill="none" stroke="#bfbfbf" points="284.39,-947 460.39,-947 "/>
<text text-anchor="middle" x="372.39" y="-935" font-family="Helvetica,sans-Serif" font-size="10.00"> </text>
<polyline fill="none" stroke="#bfbfbf" points="284.39,-928 460.39,-928 "/>
<text text-anchor="start" x="292.39" y="-916" font-family="Helvetica,sans-Serif" font-size="10.00">+ __construct()</text>
<text text-anchor="start" x="292.39" y="-905" font-family="Helvetica,sans-Serif" font-size="10.00">+ getBlockTypeId()</text>
<text text-anchor="start" x="292.39" y="-894" font-family="Helvetica,sans-Serif" font-size="10.00">+ getTileClass()</text>
</a>
</g>
</g>
<!-- Node7&#45;&gt;Node5 -->
<g id="edge6" class="edge">
<title>Node7&#45;&gt;Node5</title>
<path fill="none" stroke="#404040" d="M364.45,-886.94C360.75,-869 356.14,-846.59 351.44,-823.75"/>
<polygon fill="none" stroke="#404040" points="351.39,-823.54 346.26,-818.47 348.97,-811.79 354.1,-816.85 351.39,-823.54"/>
<text text-anchor="middle" x="377.39" y="-833" font-family="Helvetica,sans-Serif" font-size="10.00"> #$idInfo</text>
</g>
<!-- Node8 -->
<g id="node8" class="node">
<title>Node8</title>
<g id="a_node8"><a xlink:href="../../de/d9a/classpocketmine_1_1block_1_1_block_type_info.html" target="_top" xlink:title=" ">
<polygon fill="white" stroke="#bfbfbf" points="478.39,-881.5 478.39,-971.5 652.39,-971.5 652.39,-881.5 478.39,-881.5"/>
<text text-anchor="middle" x="565.39" y="-959.5" font-family="Helvetica,sans-Serif" font-size="10.00">pocketmine\block\BlockTypeInfo</text>
<polyline fill="none" stroke="#bfbfbf" points="478.39,-952.5 652.39,-952.5 "/>
<text text-anchor="middle" x="565.39" y="-940.5" font-family="Helvetica,sans-Serif" font-size="10.00"> </text>
<polyline fill="none" stroke="#bfbfbf" points="478.39,-933.5 652.39,-933.5 "/>
<text text-anchor="start" x="486.39" y="-921.5" font-family="Helvetica,sans-Serif" font-size="10.00">+ __construct()</text>
<text text-anchor="start" x="486.39" y="-910.5" font-family="Helvetica,sans-Serif" font-size="10.00">+ getBreakInfo()</text>
<text text-anchor="start" x="486.39" y="-899.5" font-family="Helvetica,sans-Serif" font-size="10.00">+ getTypeTags()</text>
<text text-anchor="start" x="486.39" y="-888.5" font-family="Helvetica,sans-Serif" font-size="10.00">+ hasTypeTag()</text>
</a>
</g>
</g>
<!-- Node8&#45;&gt;Node5 -->
<g id="edge7" class="edge">
<title>Node8&#45;&gt;Node5</title>
<path fill="none" stroke="#404040" d="M501.85,-881.3C474.78,-861.34 443.49,-836.71 417.39,-812 417.19,-811.81 417,-811.63 416.8,-811.44"/>
<polygon fill="none" stroke="#404040" points="416.56,-811.2 409.47,-809.87 407.98,-802.81 415.07,-804.15 416.56,-811.2"/>
<text text-anchor="middle" x="477.39" y="-833" font-family="Helvetica,sans-Serif" font-size="10.00"> #$typeInfo</text>
</g>
<!-- Node9 -->
<g id="node9" class="node">
<title>Node9</title>
<g id="a_node9"><a xlink:href="../../d5/dd2/classpocketmine_1_1world_1_1_position.html" target="_top" xlink:title=" ">
<polygon fill="white" stroke="#bfbfbf" points="120.39,-859.5 120.39,-993.5 266.39,-993.5 266.39,-859.5 120.39,-859.5"/>
<text text-anchor="middle" x="193.39" y="-981.5" font-family="Helvetica,sans-Serif" font-size="10.00">pocketmine\world\Position</text>
<polyline fill="none" stroke="#bfbfbf" points="120.39,-974.5 266.39,-974.5 "/>
<text text-anchor="middle" x="193.39" y="-962.5" font-family="Helvetica,sans-Serif" font-size="10.00"> </text>
<polyline fill="none" stroke="#bfbfbf" points="120.39,-955.5 266.39,-955.5 "/>
<text text-anchor="start" x="128.39" y="-943.5" font-family="Helvetica,sans-Serif" font-size="10.00">+ __construct()</text>
<text text-anchor="start" x="128.39" y="-932.5" font-family="Helvetica,sans-Serif" font-size="10.00">+ __toString()</text>
<text text-anchor="start" x="128.39" y="-921.5" font-family="Helvetica,sans-Serif" font-size="10.00">+ asPosition()</text>
<text text-anchor="start" x="128.39" y="-910.5" font-family="Helvetica,sans-Serif" font-size="10.00">+ equals()</text>
<text text-anchor="start" x="128.39" y="-899.5" font-family="Helvetica,sans-Serif" font-size="10.00">+ getSide()</text>
<text text-anchor="start" x="128.39" y="-888.5" font-family="Helvetica,sans-Serif" font-size="10.00">+ getWorld()</text>
<text text-anchor="start" x="128.39" y="-877.5" font-family="Helvetica,sans-Serif" font-size="10.00">+ isValid()</text>
<text text-anchor="start" x="128.39" y="-866.5" font-family="Helvetica,sans-Serif" font-size="10.00">+ fromObject()</text>
</a>
</g>
</g>
<!-- Node9&#45;&gt;Node5 -->
<g id="edge8" class="edge">
<title>Node9&#45;&gt;Node5</title>
<path fill="none" stroke="#404040" d="M233.96,-859.35C241.25,-847.46 249.04,-834.75 256.9,-821.94"/>
<polygon fill="none" stroke="#404040" points="256.93,-821.89 256.66,-814.68 263.21,-811.66 263.48,-818.87 256.93,-821.89"/>
<text text-anchor="middle" x="276.89" y="-833" font-family="Helvetica,sans-Serif" font-size="10.00"> #$position</text>
</g>
<!-- Node10 -->
<g id="node10" class="node">
<title>Node10</title>
<g id="a_node10"><a xlink:href="../../d2/d90/classpocketmine_1_1math_1_1_vector3.html" target="_top" xlink:title=" ">
<polygon fill="white" stroke="#bfbfbf" points="297.39,-1102 297.39,-1335 439.39,-1335 439.39,-1102 297.39,-1102"/>
<text text-anchor="middle" x="368.39" y="-1323" font-family="Helvetica,sans-Serif" font-size="10.00">pocketmine\math\Vector3</text>
<polyline fill="none" stroke="#bfbfbf" points="297.39,-1316 439.39,-1316 "/>
<text text-anchor="start" x="305.39" y="-1304" font-family="Helvetica,sans-Serif" font-size="10.00">+ $x</text>
<text text-anchor="start" x="305.39" y="-1293" font-family="Helvetica,sans-Serif" font-size="10.00">+ $y</text>
<text text-anchor="start" x="305.39" y="-1282" font-family="Helvetica,sans-Serif" font-size="10.00">+ $z</text>
<polyline fill="none" stroke="#bfbfbf" points="297.39,-1275 439.39,-1275 "/>
<text text-anchor="start" x="305.39" y="-1263" font-family="Helvetica,sans-Serif" font-size="10.00">+ __construct()</text>
<text text-anchor="start" x="305.39" y="-1252" font-family="Helvetica,sans-Serif" font-size="10.00">+ __toString()</text>
<text text-anchor="start" x="305.39" y="-1241" font-family="Helvetica,sans-Serif" font-size="10.00">+ abs()</text>
<text text-anchor="start" x="305.39" y="-1230" font-family="Helvetica,sans-Serif" font-size="10.00">+ add()</text>
<text text-anchor="start" x="305.39" y="-1219" font-family="Helvetica,sans-Serif" font-size="10.00">+ addVector()</text>
<text text-anchor="start" x="305.39" y="-1208" font-family="Helvetica,sans-Serif" font-size="10.00">+ asVector3()</text>
<text text-anchor="start" x="305.39" y="-1197" font-family="Helvetica,sans-Serif" font-size="10.00">+ ceil()</text>
<text text-anchor="start" x="305.39" y="-1186" font-family="Helvetica,sans-Serif" font-size="10.00">+ cross()</text>
<text text-anchor="start" x="305.39" y="-1175" font-family="Helvetica,sans-Serif" font-size="10.00">+ distance()</text>
<text text-anchor="start" x="305.39" y="-1164" font-family="Helvetica,sans-Serif" font-size="10.00">+ distanceSquared()</text>
<text text-anchor="start" x="305.39" y="-1153" font-family="Helvetica,sans-Serif" font-size="10.00">and 32 more...</text>
<text text-anchor="start" x="305.39" y="-1142" font-family="Helvetica,sans-Serif" font-size="10.00">+ maxComponents()</text>
<text text-anchor="start" x="305.39" y="-1131" font-family="Helvetica,sans-Serif" font-size="10.00">+ minComponents()</text>
<text text-anchor="start" x="305.39" y="-1120" font-family="Helvetica,sans-Serif" font-size="10.00">+ sum()</text>
<text text-anchor="start" x="305.39" y="-1109" font-family="Helvetica,sans-Serif" font-size="10.00">+ zero()</text>
</a>
</g>
</g>
<!-- Node10&#45;&gt;Node9 -->
<g id="edge9" class="edge">
<title>Node10&#45;&gt;Node9</title>
<path fill="none" stroke="midnightblue" d="M305.69,-1092.84C300.01,-1082.65 294.2,-1072.59 288.39,-1063 274.32,-1039.78 257.7,-1015.24 242.32,-993.51"/>
<polygon fill="none" stroke="midnightblue" points="302.75,-1094.76 310.65,-1101.82 308.88,-1091.37 302.75,-1094.76"/>
</g>
<!-- Node11&#45;&gt;Node9 -->
<g id="edge10" class="edge">
<title>Node11&#45;&gt;Node9</title>
<path fill="none" stroke="#404040" d="M193.39,-1063.16C193.39,-1043.27 193.39,-1023.61 193.39,-1005.69"/>
<polygon fill="none" stroke="#404040" points="193.39,-1005.59 189.39,-999.59 193.39,-993.59 197.39,-999.59 193.39,-1005.59"/>
<text text-anchor="middle" x="215.89" y="-1026" font-family="Helvetica,sans-Serif" font-size="10.00"> +$world</text>
</g>
<!-- Node12 -->
<g id="node12" class="node">
<title>Node12</title>
<g id="a_node12"><a xlink:href="../../d0/d03/interfacepocketmine_1_1world_1_1_chunk_manager.html" target="_top" xlink:title=" ">
<polygon fill="white" stroke="#bfbfbf" points="107.39,-1575.5 107.39,-1698.5 287.39,-1698.5 287.39,-1575.5 107.39,-1575.5"/>
<text text-anchor="middle" x="197.39" y="-1686.5" font-family="Helvetica,sans-Serif" font-size="10.00">pocketmine\world\ChunkManager</text>
<polyline fill="none" stroke="#bfbfbf" points="107.39,-1679.5 287.39,-1679.5 "/>
<text text-anchor="middle" x="197.39" y="-1667.5" font-family="Helvetica,sans-Serif" font-size="10.00"> </text>
<polyline fill="none" stroke="#bfbfbf" points="107.39,-1660.5 287.39,-1660.5 "/>
<text text-anchor="start" x="115.39" y="-1648.5" font-family="Helvetica,sans-Serif" font-size="10.00">+ getBlockAt()</text>
<text text-anchor="start" x="115.39" y="-1637.5" font-family="Helvetica,sans-Serif" font-size="10.00">+ getChunk()</text>
<text text-anchor="start" x="115.39" y="-1626.5" font-family="Helvetica,sans-Serif" font-size="10.00">+ getMaxY()</text>
<text text-anchor="start" x="115.39" y="-1615.5" font-family="Helvetica,sans-Serif" font-size="10.00">+ getMinY()</text>
<text text-anchor="start" x="115.39" y="-1604.5" font-family="Helvetica,sans-Serif" font-size="10.00">+ isInWorld()</text>
<text text-anchor="start" x="115.39" y="-1593.5" font-family="Helvetica,sans-Serif" font-size="10.00">+ setBlockAt()</text>
<text text-anchor="start" x="115.39" y="-1582.5" font-family="Helvetica,sans-Serif" font-size="10.00">+ setChunk()</text>
</a>
</g>
</g>
<!-- Node12&#45;&gt;Node11 -->
<g id="edge11" class="edge">
<title>Node12&#45;&gt;Node11</title>
<path fill="none" stroke="midnightblue" d="M196.71,-1565.24C196.21,-1512.82 195.5,-1439.38 194.87,-1373.66"/>
<polygon fill="none" stroke="midnightblue" points="193.21,-1565.47 196.81,-1575.44 200.21,-1565.4 193.21,-1565.47"/>
</g>
<!-- Node13 -->
<g id="node13" class="node">
<title>Node13</title>
<g id="a_node13"><a xlink:href="../../d7/d08/classpocketmine_1_1world_1_1_world_timings.html" target="_top" xlink:title=" ">
<polygon fill="white" stroke="#bfbfbf" points="305.89,-1542.5 305.89,-1731.5 478.89,-1731.5 478.89,-1542.5 305.89,-1542.5"/>
<text text-anchor="middle" x="392.39" y="-1719.5" font-family="Helvetica,sans-Serif" font-size="10.00">pocketmine\world\WorldTimings</text>
<polyline fill="none" stroke="#bfbfbf" points="305.89,-1712.5 478.89,-1712.5 "/>
<text text-anchor="start" x="313.89" y="-1700.5" font-family="Helvetica,sans-Serif" font-size="10.00">+ $scheduledBlockUpdates</text>
<text text-anchor="start" x="313.89" y="-1689.5" font-family="Helvetica,sans-Serif" font-size="10.00">+ $setBlock</text>
<text text-anchor="start" x="313.89" y="-1678.5" font-family="Helvetica,sans-Serif" font-size="10.00">+ $syncChunkLoad</text>
<text text-anchor="start" x="313.89" y="-1667.5" font-family="Helvetica,sans-Serif" font-size="10.00">+ $syncChunkLoadData</text>
<text text-anchor="start" x="313.89" y="-1656.5" font-family="Helvetica,sans-Serif" font-size="10.00">+ $syncChunkLoadEntities</text>
<text text-anchor="start" x="313.89" y="-1645.5" font-family="Helvetica,sans-Serif" font-size="10.00">+ $syncChunkLoadFixInvalid</text>
<text text-anchor="start" x="313.89" y="-1634.5" font-family="Helvetica,sans-Serif" font-size="10.00">Blocks</text>
<text text-anchor="start" x="313.89" y="-1623.5" font-family="Helvetica,sans-Serif" font-size="10.00">+ $syncChunkLoadTileEntities</text>
<text text-anchor="start" x="313.89" y="-1612.5" font-family="Helvetica,sans-Serif" font-size="10.00">+ $syncChunkSave</text>
<text text-anchor="start" x="313.89" y="-1601.5" font-family="Helvetica,sans-Serif" font-size="10.00">+ $syncChunkSend</text>
<text text-anchor="start" x="313.89" y="-1590.5" font-family="Helvetica,sans-Serif" font-size="10.00">+ $syncChunkSendPrepare</text>
<text text-anchor="start" x="313.89" y="-1579.5" font-family="Helvetica,sans-Serif" font-size="10.00">+ $syncDataSave</text>
<text text-anchor="start" x="313.89" y="-1568.5" font-family="Helvetica,sans-Serif" font-size="10.00">+ $tileTick</text>
<polyline fill="none" stroke="#bfbfbf" points="305.89,-1561.5 478.89,-1561.5 "/>
<text text-anchor="start" x="313.89" y="-1549.5" font-family="Helvetica,sans-Serif" font-size="10.00">+ __construct()</text>
</a>
</g>
</g>
<!-- Node13&#45;&gt;Node11 -->
<g id="edge13" class="edge">
<title>Node13&#45;&gt;Node11</title>
<path fill="none" stroke="#404040" d="M347.61,-1542.27C325.41,-1495.81 297.94,-1438.32 272.37,-1384.79"/>
<polygon fill="none" stroke="#404040" points="272.28,-1384.62 266.09,-1380.93 267.11,-1373.79 273.31,-1377.48 272.28,-1384.62"/>
<text text-anchor="middle" x="361.89" y="-1455.5" font-family="Helvetica,sans-Serif" font-size="10.00"> +$timings</text>
</g>
<!-- Node14 -->
<g id="node14" class="node">
<title>Node14</title>
<g id="a_node14"><a xlink:href="../../d7/d9b/classpocketmine_1_1timings_1_1_timings_handler.html" target="_top" xlink:title=" ">
<polygon fill="white" stroke="#bfbfbf" points="335.89,-1900.5 335.89,-2100.5 448.89,-2100.5 448.89,-1900.5 335.89,-1900.5"/>
<text text-anchor="start" x="343.89" y="-2088.5" font-family="Helvetica,sans-Serif" font-size="10.00">pocketmine\timings</text>
<text text-anchor="middle" x="392.39" y="-2077.5" font-family="Helvetica,sans-Serif" font-size="10.00">\TimingsHandler</text>
<polyline fill="none" stroke="#bfbfbf" points="335.89,-2070.5 448.89,-2070.5 "/>
<text text-anchor="middle" x="392.39" y="-2058.5" font-family="Helvetica,sans-Serif" font-size="10.00"> </text>
<polyline fill="none" stroke="#bfbfbf" points="335.89,-2051.5 448.89,-2051.5 "/>
<text text-anchor="start" x="343.89" y="-2039.5" font-family="Helvetica,sans-Serif" font-size="10.00">+ __construct()</text>
<text text-anchor="start" x="343.89" y="-2028.5" font-family="Helvetica,sans-Serif" font-size="10.00">+ getGroup()</text>
<text text-anchor="start" x="343.89" y="-2017.5" font-family="Helvetica,sans-Serif" font-size="10.00">+ getName()</text>
<text text-anchor="start" x="343.89" y="-2006.5" font-family="Helvetica,sans-Serif" font-size="10.00">+ reset()</text>
<text text-anchor="start" x="343.89" y="-1995.5" font-family="Helvetica,sans-Serif" font-size="10.00">+ startTiming()</text>
<text text-anchor="start" x="343.89" y="-1984.5" font-family="Helvetica,sans-Serif" font-size="10.00">+ stopTiming()</text>
<text text-anchor="start" x="343.89" y="-1973.5" font-family="Helvetica,sans-Serif" font-size="10.00">+ time()</text>
<text text-anchor="start" x="343.89" y="-1962.5" font-family="Helvetica,sans-Serif" font-size="10.00">+ getStartTime()</text>
<text text-anchor="start" x="343.89" y="-1951.5" font-family="Helvetica,sans-Serif" font-size="10.00">+ isEnabled()</text>
<text text-anchor="start" x="343.89" y="-1940.5" font-family="Helvetica,sans-Serif" font-size="10.00">+ printTimings()</text>
<text text-anchor="start" x="343.89" y="-1929.5" font-family="Helvetica,sans-Serif" font-size="10.00">+ reload()</text>
<text text-anchor="start" x="343.89" y="-1918.5" font-family="Helvetica,sans-Serif" font-size="10.00">+ setEnabled()</text>
<text text-anchor="start" x="343.89" y="-1907.5" font-family="Helvetica,sans-Serif" font-size="10.00">+ tick()</text>
</a>
</g>
</g>
<!-- Node14&#45;&gt;Node13 -->
<g id="edge14" class="edge">
<title>Node14&#45;&gt;Node13</title>
<path fill="none" stroke="#404040" d="M392.39,-1900.24C392.39,-1851.68 392.39,-1793.19 392.39,-1743.78"/>
<polygon fill="none" stroke="#404040" points="392.39,-1743.75 388.39,-1737.75 392.39,-1731.75 396.39,-1737.75 392.39,-1743.75"/>
<text text-anchor="middle" x="469.89" y="-1874" font-family="Helvetica,sans-Serif" font-size="10.00"> +$chunkPopulationCompletion</text>
<text text-anchor="middle" x="469.89" y="-1863" font-family="Helvetica,sans-Serif" font-size="10.00">+$chunkPopulationOrder</text>
<text text-anchor="middle" x="469.89" y="-1852" font-family="Helvetica,sans-Serif" font-size="10.00">+$doBlockLightUpdates</text>
<text text-anchor="middle" x="469.89" y="-1841" font-family="Helvetica,sans-Serif" font-size="10.00">+$doBlockSkyLightUpdates</text>
<text text-anchor="middle" x="469.89" y="-1830" font-family="Helvetica,sans-Serif" font-size="10.00">+$doChunkGC</text>
<text text-anchor="middle" x="469.89" y="-1819" font-family="Helvetica,sans-Serif" font-size="10.00">+$doChunkUnload</text>
<text text-anchor="middle" x="469.89" y="-1808" font-family="Helvetica,sans-Serif" font-size="10.00">+$doTick</text>
<text text-anchor="middle" x="469.89" y="-1797" font-family="Helvetica,sans-Serif" font-size="10.00">+$entityTick</text>
<text text-anchor="middle" x="469.89" y="-1786" font-family="Helvetica,sans-Serif" font-size="10.00">+$randomChunkUpdates</text>
<text text-anchor="start" x="392.39" y="-1775" font-family="Helvetica,sans-Serif" font-size="10.00">+$randomChunkUpdatesChunk</text>
<text text-anchor="middle" x="469.89" y="-1764" font-family="Helvetica,sans-Serif" font-size="10.00">Selection</text>
<text text-anchor="middle" x="469.89" y="-1753" font-family="Helvetica,sans-Serif" font-size="10.00">...</text>
</g>
<!-- Node15 -->
<g id="node15" class="node">
<title>Node15</title>
<g id="a_node15"><a xlink:href="../../df/dfd/interfacepocketmine_1_1entity_1_1_food_source.html" target="_top" xlink:title=" ">
<polygon fill="white" stroke="black" points="428.39,-483.5 428.39,-562.5 592.39,-562.5 592.39,-483.5 428.39,-483.5"/>
<text text-anchor="middle" x="510.39" y="-550.5" font-family="Helvetica,sans-Serif" font-size="10.00">pocketmine\entity\FoodSource</text>
<polyline fill="none" stroke="black" points="428.39,-543.5 592.39,-543.5 "/>
<text text-anchor="middle" x="510.39" y="-531.5" font-family="Helvetica,sans-Serif" font-size="10.00"> </text>
<polyline fill="none" stroke="black" points="428.39,-524.5 592.39,-524.5 "/>
<text text-anchor="start" x="436.39" y="-512.5" font-family="Helvetica,sans-Serif" font-size="10.00">+ getFoodRestore()</text>
<text text-anchor="start" x="436.39" y="-501.5" font-family="Helvetica,sans-Serif" font-size="10.00">+ getSaturationRestore()</text>
<text text-anchor="start" x="436.39" y="-490.5" font-family="Helvetica,sans-Serif" font-size="10.00">+ requiresHunger()</text>
</a>
</g>
</g>
<!-- Node15&#45;&gt;Node3 -->
<g id="edge15" class="edge">
<title>Node15&#45;&gt;Node3</title>
<path fill="none" stroke="midnightblue" d="M482,-474.63C476.46,-465.38 470.51,-455.47 464.57,-445.55"/>
<polygon fill="none" stroke="midnightblue" points="479.03,-476.49 487.18,-483.27 485.04,-472.89 479.03,-476.49"/>
</g>
<!-- Node16 -->
<g id="node16" class="node">
<title>Node16</title>
<g id="a_node16"><a xlink:href="../../db/d3f/interfacepocketmine_1_1entity_1_1_consumable.html" target="_top" xlink:title=" ">
<polygon fill="white" stroke="black" points="425.89,-672 425.89,-740 594.89,-740 594.89,-672 425.89,-672"/>
<text text-anchor="middle" x="510.39" y="-728" font-family="Helvetica,sans-Serif" font-size="10.00">pocketmine\entity\Consumable</text>
<polyline fill="none" stroke="black" points="425.89,-721 594.89,-721 "/>
<text text-anchor="middle" x="510.39" y="-709" font-family="Helvetica,sans-Serif" font-size="10.00"> </text>
<polyline fill="none" stroke="black" points="425.89,-702 594.89,-702 "/>
<text text-anchor="start" x="433.89" y="-690" font-family="Helvetica,sans-Serif" font-size="10.00">+ getAdditionalEffects()</text>
<text text-anchor="start" x="433.89" y="-679" font-family="Helvetica,sans-Serif" font-size="10.00">+ onConsume()</text>
</a>
</g>
</g>
<!-- Node16&#45;&gt;Node15 -->
<g id="edge16" class="edge">
<title>Node16&#45;&gt;Node15</title>
<path fill="none" stroke="midnightblue" d="M510.39,-661.58C510.39,-631.45 510.39,-591.67 510.39,-562.64"/>
<polygon fill="none" stroke="midnightblue" points="506.89,-661.8 510.39,-671.8 513.89,-661.8 506.89,-661.8"/>
</g>
</g>
</svg>
