<?xml version="1.0" encoding="UTF-8" standalone="no"?>
<!DOCTYPE svg PUBLIC "-//W3C//DTD SVG 1.1//EN"
 "http://www.w3.org/Graphics/SVG/1.1/DTD/svg11.dtd">
<!-- Generated by graphviz version 2.43.0 (0)
 -->
<!-- Title: pocketmine\command\defaults\PluginsCommand Pages: 1 -->
<!--zoomable 723 -->
<svg id="main" version="1.1" xmlns="http://www.w3.org/2000/svg" xmlns:xlink="http://www.w3.org/1999/xlink" xml:space="preserve" onload="init(evt)">
<style type="text/css"><![CDATA[
.edge:hover path { stroke: red; }
.edge:hover polygon { stroke: red; fill: red; }
]]></style>
<script type="text/javascript"><![CDATA[
var edges = document.getElementsByTagName('g');
if (edges && edges.length) {
  for (var i=0;i<edges.length;i++) {
    if (edges[i].id.substr(0,4)=='edge') {
      edges[i].setAttribute('class','edge');
    }
  }
}
]]></script>
        <defs>
                <circle id="rim" cx="0" cy="0" r="7"/>
                <circle id="rim2" cx="0" cy="0" r="3.5"/>
                <g id="zoomPlus">
                        <use xlink:href="#rim" fill="#404040">
                                <set attributeName="fill" to="#808080" begin="zoomplus.mouseover" end="zoomplus.mouseout"/>
                        </use>
                        <path d="M-4,0h8M0,-4v8" fill="none" stroke="white" stroke-width="1.5" pointer-events="none"/>
                </g>
                <g id="zoomMin">
                        <use xlink:href="#rim" fill="#404040">
                                <set attributeName="fill" to="#808080" begin="zoomminus.mouseover" end="zoomminus.mouseout"/>
                        </use>
                        <path d="M-4,0h8" fill="none" stroke="white" stroke-width="1.5" pointer-events="none"/>
                </g>
                <g id="dirArrow">
                        <path fill="none" stroke="white" stroke-width="1.5" d="M0,-3.0v7 M-2.5,-0.5L0,-3.0L2.5,-0.5"/>
                </g>
               <g id="resetDef">
                       <use xlink:href="#rim2" fill="#404040">
                               <set attributeName="fill" to="#808080" begin="reset.mouseover" end="reset.mouseout"/>
                       </use>
               </g>
        </defs>

<script type="text/javascript">
var viewWidth = 334;
var viewHeight = 723;
var sectionId = 'dynsection-1';
</script>
<script xlink:href="../../svgpan.js"/>
<svg id="graph" class="graph">
<g id="viewport">
<title>pocketmine\command\defaults\PluginsCommand</title>
<polygon fill="white" stroke="transparent" points="-4,4 -4,-719 330,-719 330,4 -4,4"/>
<!-- Node1 -->
<g id="node1" class="node">
<title>Node1</title>
<g id="a_node1"><a xlink:title=" ">
<polygon fill="#bfbfbf" stroke="black" points="147,-0.5 147,-79.5 295,-79.5 295,-0.5 147,-0.5"/>
<text text-anchor="start" x="155" y="-67.5" font-family="Helvetica,sans-Serif" font-size="10.00">pocketmine\command</text>
<text text-anchor="middle" x="221" y="-56.5" font-family="Helvetica,sans-Serif" font-size="10.00">\defaults\PluginsCommand</text>
<polyline fill="none" stroke="black" points="147,-49.5 295,-49.5 "/>
<text text-anchor="middle" x="221" y="-37.5" font-family="Helvetica,sans-Serif" font-size="10.00"> </text>
<polyline fill="none" stroke="black" points="147,-30.5 295,-30.5 "/>
<text text-anchor="start" x="155" y="-18.5" font-family="Helvetica,sans-Serif" font-size="10.00">+ __construct()</text>
<text text-anchor="start" x="155" y="-7.5" font-family="Helvetica,sans-Serif" font-size="10.00">+ execute()</text>
</a>
</g>
</g>
<!-- Node2 -->
<g id="node2" class="node">
<title>Node2</title>
<g id="a_node2"><a xlink:href="../../d5/dfa/classpocketmine_1_1command_1_1defaults_1_1_vanilla_command.html" target="_top" xlink:title=" ">
<polygon fill="white" stroke="#bfbfbf" points="148,-117.5 148,-218.5 294,-218.5 294,-117.5 148,-117.5"/>
<text text-anchor="start" x="156" y="-206.5" font-family="Helvetica,sans-Serif" font-size="10.00">pocketmine\command</text>
<text text-anchor="middle" x="221" y="-195.5" font-family="Helvetica,sans-Serif" font-size="10.00">\defaults\VanillaCommand</text>
<polyline fill="none" stroke="#bfbfbf" points="148,-188.5 294,-188.5 "/>
<text text-anchor="middle" x="221" y="-176.5" font-family="Helvetica,sans-Serif" font-size="10.00"> </text>
<polyline fill="none" stroke="#bfbfbf" points="148,-169.5 294,-169.5 "/>
<text text-anchor="start" x="156" y="-157.5" font-family="Helvetica,sans-Serif" font-size="10.00"># getBoundedInt()</text>
<text text-anchor="start" x="156" y="-146.5" font-family="Helvetica,sans-Serif" font-size="10.00"># getDouble()</text>
<text text-anchor="start" x="156" y="-135.5" font-family="Helvetica,sans-Serif" font-size="10.00"># getInteger()</text>
<text text-anchor="start" x="156" y="-124.5" font-family="Helvetica,sans-Serif" font-size="10.00"># getRelativeDouble()</text>
</a>
</g>
</g>
<!-- Node2&#45;&gt;Node1 -->
<g id="edge1" class="edge">
<title>Node2&#45;&gt;Node1</title>
<path fill="none" stroke="midnightblue" d="M221,-107.11C221,-97.74 221,-88.28 221,-79.56"/>
<polygon fill="none" stroke="midnightblue" points="217.5,-107.2 221,-117.2 224.5,-107.2 217.5,-107.2"/>
</g>
<!-- Node3 -->
<g id="node3" class="node">
<title>Node3</title>
<g id="a_node3"><a xlink:href="../../d6/df1/classpocketmine_1_1command_1_1_command.html" target="_top" xlink:title=" ">
<polygon fill="white" stroke="#bfbfbf" points="68.5,-277.5 68.5,-466.5 245.5,-466.5 245.5,-277.5 68.5,-277.5"/>
<text text-anchor="start" x="76.5" y="-454.5" font-family="Helvetica,sans-Serif" font-size="10.00">pocketmine\command</text>
<text text-anchor="middle" x="157" y="-443.5" font-family="Helvetica,sans-Serif" font-size="10.00">\Command</text>
<polyline fill="none" stroke="#bfbfbf" points="68.5,-436.5 245.5,-436.5 "/>
<text text-anchor="middle" x="157" y="-424.5" font-family="Helvetica,sans-Serif" font-size="10.00"> </text>
<polyline fill="none" stroke="#bfbfbf" points="68.5,-417.5 245.5,-417.5 "/>
<text text-anchor="start" x="76.5" y="-405.5" font-family="Helvetica,sans-Serif" font-size="10.00">+ __construct()</text>
<text text-anchor="start" x="76.5" y="-394.5" font-family="Helvetica,sans-Serif" font-size="10.00">+ __toString()</text>
<text text-anchor="start" x="76.5" y="-383.5" font-family="Helvetica,sans-Serif" font-size="10.00">+ execute()</text>
<text text-anchor="start" x="76.5" y="-372.5" font-family="Helvetica,sans-Serif" font-size="10.00">+ getAliases()</text>
<text text-anchor="start" x="76.5" y="-361.5" font-family="Helvetica,sans-Serif" font-size="10.00">+ getDescription()</text>
<text text-anchor="start" x="76.5" y="-350.5" font-family="Helvetica,sans-Serif" font-size="10.00">+ getLabel()</text>
<text text-anchor="start" x="76.5" y="-339.5" font-family="Helvetica,sans-Serif" font-size="10.00">+ getName()</text>
<text text-anchor="start" x="76.5" y="-328.5" font-family="Helvetica,sans-Serif" font-size="10.00">+ getPermission()</text>
<text text-anchor="start" x="76.5" y="-317.5" font-family="Helvetica,sans-Serif" font-size="10.00">+ getPermissionMessage()</text>
<text text-anchor="start" x="76.5" y="-306.5" font-family="Helvetica,sans-Serif" font-size="10.00">+ getUsage()</text>
<text text-anchor="start" x="76.5" y="-295.5" font-family="Helvetica,sans-Serif" font-size="10.00">and 11 more...</text>
<text text-anchor="start" x="76.5" y="-284.5" font-family="Helvetica,sans-Serif" font-size="10.00">+ broadcastCommandMessage()</text>
</a>
</g>
</g>
<!-- Node3&#45;&gt;Node2 -->
<g id="edge2" class="edge">
<title>Node3&#45;&gt;Node2</title>
<path fill="none" stroke="midnightblue" d="M189.68,-267.84C195.13,-250.65 200.55,-233.54 205.31,-218.51"/>
<polygon fill="none" stroke="midnightblue" points="186.34,-266.8 186.66,-277.39 193.02,-268.92 186.34,-266.8"/>
</g>
<!-- Node4 -->
<g id="node4" class="node">
<title>Node4</title>
<g id="a_node4"><a xlink:href="../../da/d80/classpocketmine_1_1lang_1_1_translatable.html" target="_top" xlink:title=" ">
<polygon fill="white" stroke="#bfbfbf" points="0,-558.5 0,-681.5 160,-681.5 160,-558.5 0,-558.5"/>
<text text-anchor="middle" x="80" y="-669.5" font-family="Helvetica,sans-Serif" font-size="10.00">pocketmine\lang\Translatable</text>
<polyline fill="none" stroke="#bfbfbf" points="0,-662.5 160,-662.5 "/>
<text text-anchor="start" x="8" y="-650.5" font-family="Helvetica,sans-Serif" font-size="10.00"># $params</text>
<polyline fill="none" stroke="#bfbfbf" points="0,-643.5 160,-643.5 "/>
<text text-anchor="start" x="8" y="-631.5" font-family="Helvetica,sans-Serif" font-size="10.00">+ __construct()</text>
<text text-anchor="start" x="8" y="-620.5" font-family="Helvetica,sans-Serif" font-size="10.00">+ format()</text>
<text text-anchor="start" x="8" y="-609.5" font-family="Helvetica,sans-Serif" font-size="10.00">+ getParameter()</text>
<text text-anchor="start" x="8" y="-598.5" font-family="Helvetica,sans-Serif" font-size="10.00">+ getParameters()</text>
<text text-anchor="start" x="8" y="-587.5" font-family="Helvetica,sans-Serif" font-size="10.00">+ getText()</text>
<text text-anchor="start" x="8" y="-576.5" font-family="Helvetica,sans-Serif" font-size="10.00">+ postfix()</text>
<text text-anchor="start" x="8" y="-565.5" font-family="Helvetica,sans-Serif" font-size="10.00">+ prefix()</text>
</a>
</g>
</g>
<!-- Node4&#45;&gt;Node3 -->
<g id="edge3" class="edge">
<title>Node4&#45;&gt;Node3</title>
<path fill="none" stroke="#404040" d="M99.03,-558.19C106.59,-534.04 115.51,-505.55 124.06,-478.24"/>
<polygon fill="none" stroke="#404040" points="124.11,-478.08 122.08,-471.16 127.69,-466.63 129.72,-473.55 124.11,-478.08"/>
<text text-anchor="middle" x="165" y="-499" font-family="Helvetica,sans-Serif" font-size="10.00"> #$description</text>
<text text-anchor="middle" x="165" y="-488" font-family="Helvetica,sans-Serif" font-size="10.00">#$usageMessage</text>
</g>
<!-- Node5 -->
<g id="node5" class="node">
<title>Node5</title>
<g id="a_node5"><a xlink:href="../../d7/d9b/classpocketmine_1_1timings_1_1_timings_handler.html" target="_top" xlink:title=" ">
<polygon fill="white" stroke="#bfbfbf" points="178.5,-525.5 178.5,-714.5 291.5,-714.5 291.5,-525.5 178.5,-525.5"/>
<text text-anchor="start" x="186.5" y="-702.5" font-family="Helvetica,sans-Serif" font-size="10.00">pocketmine\timings</text>
<text text-anchor="middle" x="235" y="-691.5" font-family="Helvetica,sans-Serif" font-size="10.00">\TimingsHandler</text>
<polyline fill="none" stroke="#bfbfbf" points="178.5,-684.5 291.5,-684.5 "/>
<text text-anchor="middle" x="235" y="-672.5" font-family="Helvetica,sans-Serif" font-size="10.00"> </text>
<polyline fill="none" stroke="#bfbfbf" points="178.5,-665.5 291.5,-665.5 "/>
<text text-anchor="start" x="186.5" y="-653.5" font-family="Helvetica,sans-Serif" font-size="10.00">+ __construct()</text>
<text text-anchor="start" x="186.5" y="-642.5" font-family="Helvetica,sans-Serif" font-size="10.00">+ destroyCycles()</text>
<text text-anchor="start" x="186.5" y="-631.5" font-family="Helvetica,sans-Serif" font-size="10.00">+ getName()</text>
<text text-anchor="start" x="186.5" y="-620.5" font-family="Helvetica,sans-Serif" font-size="10.00">+ startTiming()</text>
<text text-anchor="start" x="186.5" y="-609.5" font-family="Helvetica,sans-Serif" font-size="10.00">+ stopTiming()</text>
<text text-anchor="start" x="186.5" y="-598.5" font-family="Helvetica,sans-Serif" font-size="10.00">+ time()</text>
<text text-anchor="start" x="186.5" y="-587.5" font-family="Helvetica,sans-Serif" font-size="10.00">+ getStartTime()</text>
<text text-anchor="start" x="186.5" y="-576.5" font-family="Helvetica,sans-Serif" font-size="10.00">+ isEnabled()</text>
<text text-anchor="start" x="186.5" y="-565.5" font-family="Helvetica,sans-Serif" font-size="10.00">+ printTimings()</text>
<text text-anchor="start" x="186.5" y="-554.5" font-family="Helvetica,sans-Serif" font-size="10.00">+ reload()</text>
<text text-anchor="start" x="186.5" y="-543.5" font-family="Helvetica,sans-Serif" font-size="10.00">+ setEnabled()</text>
<text text-anchor="start" x="186.5" y="-532.5" font-family="Helvetica,sans-Serif" font-size="10.00">+ tick()</text>
</a>
</g>
</g>
<!-- Node5&#45;&gt;Node3 -->
<g id="edge4" class="edge">
<title>Node5&#45;&gt;Node3</title>
<path fill="none" stroke="#404040" d="M223.29,-525.15C220.53,-511.52 217.14,-497.78 213,-485 212.23,-482.62 211.41,-480.22 210.56,-477.82"/>
<polygon fill="none" stroke="#404040" points="210.54,-477.78 204.68,-473.58 206.3,-466.55 212.16,-470.75 210.54,-477.78"/>
<text text-anchor="middle" x="247.5" y="-493.5" font-family="Helvetica,sans-Serif" font-size="10.00"> +$timings</text>
</g>
<!-- Node6 -->
<g id="node6" class="node">
<title>Node6</title>
<g id="a_node6"><a xlink:title=" ">
<polygon fill="white" stroke="#bfbfbf" points="263.5,-343.5 263.5,-400.5 306.5,-400.5 306.5,-343.5 263.5,-343.5"/>
<text text-anchor="middle" x="285" y="-388.5" font-family="Helvetica,sans-Serif" font-size="10.00">const</text>
<polyline fill="none" stroke="#bfbfbf" points="263.5,-381.5 306.5,-381.5 "/>
<text text-anchor="middle" x="285" y="-369.5" font-family="Helvetica,sans-Serif" font-size="10.00"> </text>
<polyline fill="none" stroke="#bfbfbf" points="263.5,-362.5 306.5,-362.5 "/>
<text text-anchor="middle" x="285" y="-350.5" font-family="Helvetica,sans-Serif" font-size="10.00"> </text>
</a>
</g>
</g>
<!-- Node6&#45;&gt;Node2 -->
<g id="edge5" class="edge">
<title>Node6&#45;&gt;Node2</title>
<path fill="none" stroke="#404040" d="M276.24,-343.34C267.09,-314.48 252.46,-268.28 240.55,-230.7"/>
<polygon fill="none" stroke="#404040" points="240.41,-230.27 234.79,-225.76 236.79,-218.83 242.41,-223.34 240.41,-230.27"/>
<text text-anchor="middle" x="288" y="-251" font-family="Helvetica,sans-Serif" font-size="10.00"> +MAX_COORD</text>
<text text-anchor="middle" x="288" y="-240" font-family="Helvetica,sans-Serif" font-size="10.00">+MIN_COORD</text>
</g>
</g>
</svg>
        <g id="navigator" transform="translate(0 0)" fill="#404254">
                <rect fill="#f2f5e9" fill-opacity="0.5" stroke="#606060" stroke-width=".5" x="0" y="0" width="60" height="60"/>
                <use id="zoomplus" xlink:href="#zoomPlus" x="17" y="9" onmousedown="handleZoom(evt,'in')"/>
                <use id="zoomminus" xlink:href="#zoomMin" x="42" y="9" onmousedown="handleZoom(evt,'out')"/>
                <use id="reset" xlink:href="#resetDef" x="30" y="36" onmousedown="handleReset()"/>
                <g id="arrowUp" xlink:href="#dirArrow" transform="translate(30 24)" onmousedown="handlePan(0,-1)">
                  <use xlink:href="#rim" fill="#404040">
                        <set attributeName="fill" to="#808080" begin="arrowUp.mouseover" end="arrowUp.mouseout"/>
                  </use>
                  <path fill="none" stroke="white" stroke-width="1.5" d="M0,-3.0v7 M-2.5,-0.5L0,-3.0L2.5,-0.5"/>
                </g>
                <g id="arrowRight" xlink:href="#dirArrow" transform="rotate(90) translate(36 -43)" onmousedown="handlePan(1,0)">
                  <use xlink:href="#rim" fill="#404040">
                        <set attributeName="fill" to="#808080" begin="arrowRight.mouseover" end="arrowRight.mouseout"/>
                  </use>
                  <path fill="none" stroke="white" stroke-width="1.5" d="M0,-3.0v7 M-2.5,-0.5L0,-3.0L2.5,-0.5"/>
                </g>
                <g id="arrowDown" xlink:href="#dirArrow" transform="rotate(180) translate(-30 -48)" onmousedown="handlePan(0,1)">
                  <use xlink:href="#rim" fill="#404040">
                        <set attributeName="fill" to="#808080" begin="arrowDown.mouseover" end="arrowDown.mouseout"/>
                  </use>
                  <path fill="none" stroke="white" stroke-width="1.5" d="M0,-3.0v7 M-2.5,-0.5L0,-3.0L2.5,-0.5"/>
                </g>
                <g id="arrowLeft" xlink:href="#dirArrow" transform="rotate(270) translate(-36 17)" onmousedown="handlePan(-1,0)">
                  <use xlink:href="#rim" fill="#404040">
                        <set attributeName="fill" to="#808080" begin="arrowLeft.mouseover" end="arrowLeft.mouseout"/>
                  </use>
                  <path fill="none" stroke="white" stroke-width="1.5" d="M0,-3.0v7 M-2.5,-0.5L0,-3.0L2.5,-0.5"/>
                </g>
        </g>
        <svg viewBox="0 0 15 15" width="100%" height="30px" preserveAspectRatio="xMaxYMin meet">
         <g id="arrow_out" transform="scale(0.3 0.3)">
          <a xlink:href="classpocketmine_1_1command_1_1defaults_1_1_plugins_command__coll__graph_org.svg" target="_base">
           <rect id="button" ry="5" rx="5" y="6" x="6" height="38" width="38"
                fill="#f2f5e9" fill-opacity="0.5" stroke="#606060" stroke-width="1.0"/>
           <path id="arrow"
             d="M 11.500037,31.436501 C 11.940474,20.09759 22.043105,11.32322 32.158766,21.979434 L 37.068811,17.246167 C 37.068811,17.246167 37.088388,32 37.088388,32 L 22.160133,31.978069 C 22.160133,31.978069 26.997745,27.140456 26.997745,27.140456 C 18.528582,18.264221 13.291696,25.230495 11.500037,31.436501 z"
             style="fill:#404040;"/>
          </a>
         </g>
        </svg>
</svg>
