<?xml version="1.0" encoding="UTF-8" standalone="no"?>
<!DOCTYPE svg PUBLIC "-//W3C//DTD SVG 1.1//EN"
 "http://www.w3.org/Graphics/SVG/1.1/DTD/svg11.dtd">
<!-- Generated by graphviz version 2.43.0 (0)
 -->
<!-- Title: types Pages: 1 -->
<svg width="988pt" height="94pt"
 viewBox="0.00 0.00 988.00 94.00" xmlns="http://www.w3.org/2000/svg" xmlns:xlink="http://www.w3.org/1999/xlink">
<g id="graph0" class="graph" transform="scale(1 1) rotate(0) translate(4 90)">
<title>types</title>
<g id="clust1" class="cluster">
<title>clusterdir_682c7921c367674b86e95b8a006ee2ec</title>
<g id="a_clust1"><a xlink:href="dir_682c7921c367674b86e95b8a006ee2ec.html" target="_top" xlink:title="src">
<polygon fill="#edf0f7" stroke="#7f7f7f" stroke-dasharray="5,2" points="8,-8 8,-78 972,-78 972,-8 8,-8"/>
<text text-anchor="middle" x="490" y="-66" font-family="Helvetica,sans-Serif" font-size="10.00">src</text>
</a>
</g>
</g>
<g id="clust2" class="cluster">
<title>clusterdir_55bc17615453bf062ec3fe223a89c893</title>
<g id="a_clust2"><a xlink:href="dir_55bc17615453bf062ec3fe223a89c893.html" target="_top">
<polygon fill="#edf0f7" stroke="#404040" stroke-width="2" points="16,-16 16,-51 964,-51 964,-16 16,-16"/>
</a>
</g>
</g>
<!-- dir_55bc17615453bf062ec3fe223a89c893 -->
<g id="node1" class="node">
<title>dir_55bc17615453bf062ec3fe223a89c893</title>
<text text-anchor="middle" x="934" y="-31" font-family="Helvetica,sans-Serif" font-size="10.00">types</text>
</g>
<!-- dir_fa867b55f5553ed8d140d4f7db04fc66 -->
<g id="node2" class="node">
<title>dir_fa867b55f5553ed8d140d4f7db04fc66</title>
<g id="a_node2"><a xlink:href="dir_fa867b55f5553ed8d140d4f7db04fc66.html" target="_top" xlink:title="biome">
<polygon fill="#a2b4d6" stroke="#404040" points="893.5,-43 846.5,-43 846.5,-24 893.5,-24 893.5,-43"/>
<text text-anchor="middle" x="870" y="-31" font-family="Helvetica,sans-Serif" font-size="10.00">biome</text>
</a>
</g>
</g>
<!-- dir_a084c78965e105250c47f67113e6cfdd -->
<g id="node3" class="node">
<title>dir_a084c78965e105250c47f67113e6cfdd</title>
<g id="a_node3"><a xlink:href="dir_a084c78965e105250c47f67113e6cfdd.html" target="_top" xlink:title="camera">
<polygon fill="#a2b4d6" stroke="#404040" points="828.5,-43 775.5,-43 775.5,-24 828.5,-24 828.5,-43"/>
<text text-anchor="middle" x="802" y="-31" font-family="Helvetica,sans-Serif" font-size="10.00">camera</text>
</a>
</g>
</g>
<!-- dir_5a2efd9ccf637713001755b3e3aafce2 -->
<g id="node4" class="node">
<title>dir_5a2efd9ccf637713001755b3e3aafce2</title>
<g id="a_node4"><a xlink:href="dir_5a2efd9ccf637713001755b3e3aafce2.html" target="_top" xlink:title="cereal">
<polygon fill="#a2b4d6" stroke="#404040" points="757.5,-43 710.5,-43 710.5,-24 757.5,-24 757.5,-43"/>
<text text-anchor="middle" x="734" y="-31" font-family="Helvetica,sans-Serif" font-size="10.00">cereal</text>
</a>
</g>
</g>
<!-- dir_2c6ad4f7f4a1db9d3c4e822d2ca8ce5d -->
<g id="node5" class="node">
<title>dir_2c6ad4f7f4a1db9d3c4e822d2ca8ce5d</title>
<g id="a_node5"><a xlink:href="dir_2c6ad4f7f4a1db9d3c4e822d2ca8ce5d.html" target="_top" xlink:title="command">
<polygon fill="#a2b4d6" stroke="#404040" points="692.5,-43 627.5,-43 627.5,-24 692.5,-24 692.5,-43"/>
<text text-anchor="middle" x="660" y="-31" font-family="Helvetica,sans-Serif" font-size="10.00">command</text>
</a>
</g>
</g>
<!-- dir_02052e8cf24b5bbee52dc3d04484d827 -->
<g id="node6" class="node">
<title>dir_02052e8cf24b5bbee52dc3d04484d827</title>
<g id="a_node6"><a xlink:href="dir_02052e8cf24b5bbee52dc3d04484d827.html" target="_top" xlink:title="ddui">
<polygon fill="#a2b4d6" stroke="#404040" points="609,-43 571,-43 571,-24 609,-24 609,-43"/>
<text text-anchor="middle" x="590" y="-31" font-family="Helvetica,sans-Serif" font-size="10.00">ddui</text>
</a>
</g>
</g>
<!-- dir_bbe04a070578765a2b532af946e544b1 -->
<g id="node7" class="node">
<title>dir_bbe04a070578765a2b532af946e544b1</title>
<g id="a_node7"><a xlink:href="dir_bbe04a070578765a2b532af946e544b1.html" target="_top" xlink:title="entity">
<polygon fill="#a2b4d6" stroke="#404040" points="552.5,-43 507.5,-43 507.5,-24 552.5,-24 552.5,-43"/>
<text text-anchor="middle" x="530" y="-31" font-family="Helvetica,sans-Serif" font-size="10.00">entity</text>
</a>
</g>
</g>
<!-- dir_9e61a56a55b6265db929afaac479f8cc -->
<g id="node8" class="node">
<title>dir_9e61a56a55b6265db929afaac479f8cc</title>
<g id="a_node8"><a xlink:href="dir_9e61a56a55b6265db929afaac479f8cc.html" target="_top" xlink:title="hud">
<polygon fill="#a2b4d6" stroke="#404040" points="489.5,-43 454.5,-43 454.5,-24 489.5,-24 489.5,-43"/>
<text text-anchor="middle" x="472" y="-31" font-family="Helvetica,sans-Serif" font-size="10.00">hud</text>
</a>
</g>
</g>
<!-- dir_726e1d057d028db5f6ccfa3c4388f5b5 -->
<g id="node9" class="node">
<title>dir_726e1d057d028db5f6ccfa3c4388f5b5</title>
<g id="a_node9"><a xlink:href="dir_726e1d057d028db5f6ccfa3c4388f5b5.html" target="_top" xlink:title="inventory">
<polygon fill="#a2b4d6" stroke="#404040" points="436.5,-43 373.5,-43 373.5,-24 436.5,-24 436.5,-43"/>
<text text-anchor="middle" x="405" y="-31" font-family="Helvetica,sans-Serif" font-size="10.00">inventory</text>
</a>
</g>
</g>
<!-- dir_b1768db3127b39e69d56a7f118198421 -->
<g id="node10" class="node">
<title>dir_b1768db3127b39e69d56a7f118198421</title>
<g id="a_node10"><a xlink:href="dir_b1768db3127b39e69d56a7f118198421.html" target="_top" xlink:title="login">
<polygon fill="#a2b4d6" stroke="#404040" points="355.5,-43 314.5,-43 314.5,-24 355.5,-24 355.5,-43"/>
<text text-anchor="middle" x="335" y="-31" font-family="Helvetica,sans-Serif" font-size="10.00">login</text>
</a>
</g>
</g>
<!-- dir_2e88ceff4c451bc74c8d7afdd5e58460 -->
<g id="node11" class="node">
<title>dir_2e88ceff4c451bc74c8d7afdd5e58460</title>
<g id="a_node11"><a xlink:href="dir_2e88ceff4c451bc74c8d7afdd5e58460.html" target="_top" xlink:title="recipe">
<polygon fill="#a2b4d6" stroke="#404040" points="296.5,-43 249.5,-43 249.5,-24 296.5,-24 296.5,-43"/>
<text text-anchor="middle" x="273" y="-31" font-family="Helvetica,sans-Serif" font-size="10.00">recipe</text>
</a>
</g>
</g>
<!-- dir_196cefb90375ff17027d4dd042055e96 -->
<g id="node12" class="node">
<title>dir_196cefb90375ff17027d4dd042055e96</title>
<g id="a_node12"><a xlink:href="dir_196cefb90375ff17027d4dd042055e96.html" target="_top" xlink:title="resourcepacks">
<polygon fill="#a2b4d6" stroke="#404040" points="231.5,-43 144.5,-43 144.5,-24 231.5,-24 231.5,-43"/>
<text text-anchor="middle" x="188" y="-31" font-family="Helvetica,sans-Serif" font-size="10.00">resourcepacks</text>
</a>
</g>
</g>
<!-- dir_f98e533823add7f439d42ea5234f2f03 -->
<g id="node13" class="node">
<title>dir_f98e533823add7f439d42ea5234f2f03</title>
<g id="a_node13"><a xlink:href="dir_f98e533823add7f439d42ea5234f2f03.html" target="_top" xlink:title="shape">
<polygon fill="#a2b4d6" stroke="#404040" points="126,-43 80,-43 80,-24 126,-24 126,-43"/>
<text text-anchor="middle" x="103" y="-31" font-family="Helvetica,sans-Serif" font-size="10.00">shape</text>
</a>
</g>
</g>
<!-- dir_34122b53f8872ad93603c82d20993d9a -->
<g id="node14" class="node">
<title>dir_34122b53f8872ad93603c82d20993d9a</title>
<g id="a_node14"><a xlink:href="dir_34122b53f8872ad93603c82d20993d9a.html" target="_top" xlink:title="skin">
<polygon fill="#a2b4d6" stroke="#404040" points="61.5,-43 24.5,-43 24.5,-24 61.5,-24 61.5,-43"/>
<text text-anchor="middle" x="43" y="-31" font-family="Helvetica,sans-Serif" font-size="10.00">skin</text>
</a>
</g>
</g>
</g>
</svg>
