<?xml version="1.0" encoding="UTF-8" standalone="no"?>
<!DOCTYPE svg PUBLIC "-//W3C//DTD SVG 1.1//EN"
 "http://www.w3.org/Graphics/SVG/1.1/DTD/svg11.dtd">
<!-- Generated by graphviz version 2.43.0 (0)
 -->
<!-- Title: Graphical Class Hierarchy Pages: 1 -->
<svg width="429pt" height="88pt"
 viewBox="0.00 0.00 429.00 88.00" xmlns="http://www.w3.org/2000/svg" xmlns:xlink="http://www.w3.org/1999/xlink">
<g id="graph0" class="graph" transform="scale(1 1) rotate(0) translate(4 84)">
<title>Graphical Class Hierarchy</title>
<polygon fill="white" stroke="transparent" points="-4,4 -4,-84 425,-84 425,4 -4,4"/>
<!-- Node0 -->
<g id="node1" class="node">
<title>Node0</title>
<g id="a_node1"><a xlink:title=" ">
<polygon fill="white" stroke="#bfbfbf" points="0,-30 0,-49 66,-49 66,-30 0,-30"/>
<text text-anchor="middle" x="33" y="-37" font-family="Helvetica,sans-Serif" font-size="10.00">Stringable</text>
</a>
</g>
</g>
<!-- Node1 -->
<g id="node2" class="node">
<title>Node1</title>
<g id="a_node2"><a xlink:href="dd/d65/interfacepocketmine_1_1crafting_1_1_recipe_ingredient.html" target="_top" xlink:title=" ">
<polygon fill="white" stroke="black" points="102,-24.5 102,-54.5 215,-54.5 215,-24.5 102,-24.5"/>
<text text-anchor="start" x="110" y="-42.5" font-family="Helvetica,sans-Serif" font-size="10.00">pocketmine\crafting</text>
<text text-anchor="middle" x="158.5" y="-31.5" font-family="Helvetica,sans-Serif" font-size="10.00">\RecipeIngredient</text>
</a>
</g>
</g>
<!-- Node0&#45;&gt;Node1 -->
<g id="edge1" class="edge">
<title>Node0&#45;&gt;Node1</title>
<path fill="none" stroke="midnightblue" d="M76.17,-39.5C84.36,-39.5 93.07,-39.5 101.62,-39.5"/>
<polygon fill="midnightblue" stroke="midnightblue" points="76.13,-36 66.13,-39.5 76.13,-43 76.13,-36"/>
</g>
<!-- Node2 -->
<g id="node3" class="node">
<title>Node2</title>
<g id="a_node3"><a xlink:href="da/dae/classpocketmine_1_1crafting_1_1_exact_recipe_ingredient.html" target="_top" xlink:title=" ">
<polygon fill="white" stroke="black" points="271.5,-49.5 271.5,-79.5 400.5,-79.5 400.5,-49.5 271.5,-49.5"/>
<text text-anchor="start" x="279.5" y="-67.5" font-family="Helvetica,sans-Serif" font-size="10.00">pocketmine\crafting</text>
<text text-anchor="middle" x="336" y="-56.5" font-family="Helvetica,sans-Serif" font-size="10.00">\ExactRecipeIngredient</text>
</a>
</g>
</g>
<!-- Node1&#45;&gt;Node2 -->
<g id="edge2" class="edge">
<title>Node1&#45;&gt;Node2</title>
<path fill="none" stroke="midnightblue" d="M225.28,-48.87C240.33,-51.01 256.3,-53.29 271.27,-55.42"/>
<polygon fill="midnightblue" stroke="midnightblue" points="225.42,-45.36 215.03,-47.41 224.44,-52.29 225.42,-45.36"/>
</g>
<!-- Node3 -->
<g id="node4" class="node">
<title>Node3</title>
<g id="a_node4"><a xlink:href="dd/d47/classpocketmine_1_1crafting_1_1_meta_wildcard_recipe_ingredient.html" target="_top" xlink:title=" ">
<polygon fill="white" stroke="black" points="251,-0.5 251,-30.5 421,-30.5 421,-0.5 251,-0.5"/>
<text text-anchor="start" x="259" y="-18.5" font-family="Helvetica,sans-Serif" font-size="10.00">pocketmine\crafting</text>
<text text-anchor="middle" x="336" y="-7.5" font-family="Helvetica,sans-Serif" font-size="10.00">\MetaWildcardRecipeIngredient</text>
</a>
</g>
</g>
<!-- Node1&#45;&gt;Node3 -->
<g id="edge3" class="edge">
<title>Node1&#45;&gt;Node3</title>
<path fill="none" stroke="midnightblue" d="M225.15,-30.52C233.58,-29.37 242.3,-28.18 250.98,-26.99"/>
<polygon fill="midnightblue" stroke="midnightblue" points="224.46,-27.08 215.03,-31.91 225.41,-34.02 224.46,-27.08"/>
</g>
</g>
</svg>
