<?xml version="1.0" encoding="UTF-8" standalone="no"?>
<!DOCTYPE svg PUBLIC "-//W3C//DTD SVG 1.1//EN"
 "http://www.w3.org/Graphics/SVG/1.1/DTD/svg11.dtd">
<!-- Generated by graphviz version 2.43.0 (0)
 -->
<!-- Title: Graphical Class Hierarchy Pages: 1 -->
<svg width="507pt" height="344pt"
 viewBox="0.00 0.00 507.00 344.00" xmlns="http://www.w3.org/2000/svg" xmlns:xlink="http://www.w3.org/1999/xlink">
<g id="graph0" class="graph" transform="scale(1 1) rotate(0) translate(4 340)">
<title>Graphical Class Hierarchy</title>
<!-- Node0 -->
<g id="Node000000" class="node">
<title>Node0</title>
<g id="a_Node000000"><a xlink:href="d0/d87/interfacepocketmine_1_1data_1_1bedrock_1_1block_1_1convert_1_1property_1_1_property.html" target="_top" xlink:title=" ">
<polygon fill="white" stroke="#666666" points="140,-188 0,-188 0,-147 140,-147 140,-188"/>
<text text-anchor="start" x="8" y="-176" font-family="Helvetica,sans-Serif" font-size="10.00">pocketmine\data\bedrock</text>
<text text-anchor="start" x="8" y="-165" font-family="Helvetica,sans-Serif" font-size="10.00">\block\convert\property</text>
<text text-anchor="middle" x="70" y="-154" font-family="Helvetica,sans-Serif" font-size="10.00">\Property</text>
</a>
</g>
</g>
<!-- Node1 -->
<g id="Node000001" class="node">
<title>Node1</title>
<g id="a_Node000001"><a xlink:href="df/d34/classpocketmine_1_1data_1_1bedrock_1_1block_1_1convert_1_1property_1_1_bool_property.html" target="_top" xlink:title=" ">
<polygon fill="white" stroke="#666666" points="319,-336 179,-336 179,-295 319,-295 319,-336"/>
<text text-anchor="start" x="187" y="-324" font-family="Helvetica,sans-Serif" font-size="10.00">pocketmine\data\bedrock</text>
<text text-anchor="start" x="187" y="-313" font-family="Helvetica,sans-Serif" font-size="10.00">\block\convert\property</text>
<text text-anchor="middle" x="249" y="-302" font-family="Helvetica,sans-Serif" font-size="10.00">\BoolProperty</text>
</a>
</g>
</g>
<!-- Node0&#45;&gt;Node1 -->
<g id="edge610_Node000000_Node000001" class="edge">
<title>Node0&#45;&gt;Node1</title>
<g id="a_edge610_Node000000_Node000001"><a xlink:title=" ">
<path fill="none" stroke="#63b8ff" d="M90.69,-196.72C109.82,-223.21 141.03,-261.78 176,-286.5 180.29,-289.53 184.95,-292.32 189.75,-294.85"/>
<polygon fill="#63b8ff" stroke="#63b8ff" points="93.32,-194.37 84.68,-188.24 87.61,-198.42 93.32,-194.37"/>
</a>
</g>
</g>
<!-- Node2 -->
<g id="Node000002" class="node">
<title>Node2</title>
<g id="a_Node000002"><a xlink:href="d6/dce/classpocketmine_1_1data_1_1bedrock_1_1block_1_1convert_1_1property_1_1_dummy_property.html" target="_top" xlink:title=" ">
<polygon fill="white" stroke="#666666" points="319,-277 179,-277 179,-236 319,-236 319,-277"/>
<text text-anchor="start" x="187" y="-265" font-family="Helvetica,sans-Serif" font-size="10.00">pocketmine\data\bedrock</text>
<text text-anchor="start" x="187" y="-254" font-family="Helvetica,sans-Serif" font-size="10.00">\block\convert\property</text>
<text text-anchor="middle" x="249" y="-243" font-family="Helvetica,sans-Serif" font-size="10.00">\DummyProperty</text>
</a>
</g>
</g>
<!-- Node0&#45;&gt;Node2 -->
<g id="edge611_Node000000_Node000002" class="edge">
<title>Node0&#45;&gt;Node2</title>
<g id="a_edge611_Node000000_Node000002"><a xlink:title=" ">
<path fill="none" stroke="#63b8ff" d="M113.09,-193.3C132,-204.43 154.79,-217.23 176,-227.5 181.94,-230.38 188.25,-233.22 194.56,-235.93"/>
<polygon fill="#63b8ff" stroke="#63b8ff" points="114.8,-190.25 104.42,-188.15 111.23,-196.27 114.8,-190.25"/>
</a>
</g>
</g>
<!-- Node3 -->
<g id="Node000003" class="node">
<title>Node3</title>
<g id="a_Node000003"><a xlink:href="d8/d43/classpocketmine_1_1data_1_1bedrock_1_1block_1_1convert_1_1property_1_1_int_property.html" target="_top" xlink:title=" ">
<polygon fill="white" stroke="#666666" points="319,-218 179,-218 179,-177 319,-177 319,-218"/>
<text text-anchor="start" x="187" y="-206" font-family="Helvetica,sans-Serif" font-size="10.00">pocketmine\data\bedrock</text>
<text text-anchor="start" x="187" y="-195" font-family="Helvetica,sans-Serif" font-size="10.00">\block\convert\property</text>
<text text-anchor="middle" x="249" y="-184" font-family="Helvetica,sans-Serif" font-size="10.00">\IntProperty</text>
</a>
</g>
</g>
<!-- Node0&#45;&gt;Node3 -->
<g id="edge612_Node000000_Node000003" class="edge">
<title>Node0&#45;&gt;Node3</title>
<g id="a_edge612_Node000000_Node000003"><a xlink:title=" ">
<path fill="none" stroke="#63b8ff" d="M150.11,-180.91C159.69,-182.53 169.43,-184.18 178.85,-185.78"/>
<polygon fill="#63b8ff" stroke="#63b8ff" points="150.64,-177.45 140.19,-179.23 149.47,-184.35 150.64,-177.45"/>
</a>
</g>
</g>
<!-- Node4 -->
<g id="Node000004" class="node">
<title>Node4</title>
<g id="a_Node000004"><a xlink:href="d3/d9c/classpocketmine_1_1data_1_1bedrock_1_1block_1_1convert_1_1property_1_1_option_set_from_int_property.html" target="_top" xlink:title=" ">
<polygon fill="white" stroke="#666666" points="322,-159 176,-159 176,-118 322,-118 322,-159"/>
<text text-anchor="start" x="184" y="-147" font-family="Helvetica,sans-Serif" font-size="10.00">pocketmine\data\bedrock</text>
<text text-anchor="start" x="184" y="-136" font-family="Helvetica,sans-Serif" font-size="10.00">\block\convert\property</text>
<text text-anchor="middle" x="249" y="-125" font-family="Helvetica,sans-Serif" font-size="10.00">\OptionSetFromIntProperty</text>
</a>
</g>
</g>
<!-- Node0&#45;&gt;Node4 -->
<g id="edge613_Node000000_Node000004" class="edge">
<title>Node0&#45;&gt;Node4</title>
<g id="a_edge613_Node000000_Node000004"><a xlink:title=" ">
<path fill="none" stroke="#63b8ff" d="M150.19,-154.53C158.76,-153.12 167.45,-151.7 175.94,-150.31"/>
<polygon fill="#63b8ff" stroke="#63b8ff" points="149.5,-151.09 140.19,-156.16 150.63,-158 149.5,-151.09"/>
</a>
</g>
</g>
<!-- Node5 -->
<g id="Node000005" class="node">
<title>Node5</title>
<g id="a_Node000005"><a xlink:href="d4/de3/interfacepocketmine_1_1data_1_1bedrock_1_1block_1_1convert_1_1property_1_1_string_property.html" target="_top" xlink:title=" ">
<polygon fill="white" stroke="#666666" points="319,-100 179,-100 179,-59 319,-59 319,-100"/>
<text text-anchor="start" x="187" y="-88" font-family="Helvetica,sans-Serif" font-size="10.00">pocketmine\data\bedrock</text>
<text text-anchor="start" x="187" y="-77" font-family="Helvetica,sans-Serif" font-size="10.00">\block\convert\property</text>
<text text-anchor="middle" x="249" y="-66" font-family="Helvetica,sans-Serif" font-size="10.00">\StringProperty</text>
</a>
</g>
</g>
<!-- Node0&#45;&gt;Node5 -->
<g id="edge614_Node000000_Node000005" class="edge">
<title>Node0&#45;&gt;Node5</title>
<g id="a_edge614_Node000000_Node000005"><a xlink:title=" ">
<path fill="none" stroke="#63b8ff" d="M114.81,-141.89C133.43,-131.38 155.53,-119.38 176,-109.5 182.59,-106.32 189.6,-103.15 196.56,-100.12"/>
<polygon fill="#63b8ff" stroke="#63b8ff" points="112.93,-138.93 105.97,-146.92 116.39,-145.02 112.93,-138.93"/>
</a>
</g>
</g>
<!-- Node8 -->
<g id="Node000008" class="node">
<title>Node8</title>
<g id="a_Node000008"><a xlink:href="d0/d6d/classpocketmine_1_1data_1_1bedrock_1_1block_1_1convert_1_1property_1_1_value_from_int_property.html" target="_top" xlink:title=" ">
<polygon fill="white" stroke="#666666" points="319,-41 179,-41 179,0 319,0 319,-41"/>
<text text-anchor="start" x="187" y="-29" font-family="Helvetica,sans-Serif" font-size="10.00">pocketmine\data\bedrock</text>
<text text-anchor="start" x="187" y="-18" font-family="Helvetica,sans-Serif" font-size="10.00">\block\convert\property</text>
<text text-anchor="middle" x="249" y="-7" font-family="Helvetica,sans-Serif" font-size="10.00">\ValueFromIntProperty</text>
</a>
</g>
</g>
<!-- Node0&#45;&gt;Node8 -->
<g id="edge617_Node000000_Node000008" class="edge">
<title>Node0&#45;&gt;Node8</title>
<g id="a_edge617_Node000000_Node000008"><a xlink:title=" ">
<path fill="none" stroke="#63b8ff" d="M91.2,-138.43C110.47,-112.48 141.6,-74.91 176,-50.5 180.86,-47.05 186.18,-43.9 191.65,-41.05"/>
<polygon fill="#63b8ff" stroke="#63b8ff" points="88.2,-136.61 85.13,-146.75 93.85,-140.73 88.2,-136.61"/>
</a>
</g>
</g>
<!-- Node6 -->
<g id="Node000006" class="node">
<title>Node6</title>
<g id="a_Node000006"><a xlink:href="d9/d00/classpocketmine_1_1data_1_1bedrock_1_1block_1_1convert_1_1property_1_1_bool_from_string_property.html" target="_top" xlink:title=" ">
<polygon fill="white" stroke="#666666" points="498.5,-129 358.5,-129 358.5,-88 498.5,-88 498.5,-129"/>
<text text-anchor="start" x="366.5" y="-117" font-family="Helvetica,sans-Serif" font-size="10.00">pocketmine\data\bedrock</text>
<text text-anchor="start" x="366.5" y="-106" font-family="Helvetica,sans-Serif" font-size="10.00">\block\convert\property</text>
<text text-anchor="middle" x="428.5" y="-95" font-family="Helvetica,sans-Serif" font-size="10.00">\BoolFromStringProperty</text>
</a>
</g>
</g>
<!-- Node5&#45;&gt;Node6 -->
<g id="edge615_Node000005_Node000006" class="edge">
<title>Node5&#45;&gt;Node6</title>
<g id="a_edge615_Node000005_Node000006"><a xlink:title=" ">
<path fill="none" stroke="#63b8ff" d="M329.17,-92.43C338.87,-94.02 348.72,-95.63 358.26,-97.19"/>
<polygon fill="#63b8ff" stroke="#63b8ff" points="329.57,-88.95 319.13,-90.8 328.44,-95.86 329.57,-88.95"/>
</a>
</g>
</g>
<!-- Node7 -->
<g id="Node000007" class="node">
<title>Node7</title>
<g id="a_Node000007"><a xlink:href="dd/d2e/classpocketmine_1_1data_1_1bedrock_1_1block_1_1convert_1_1property_1_1_value_from_string_property.html" target="_top" xlink:title=" ">
<polygon fill="white" stroke="#666666" points="499,-70 358,-70 358,-29 499,-29 499,-70"/>
<text text-anchor="start" x="366" y="-58" font-family="Helvetica,sans-Serif" font-size="10.00">pocketmine\data\bedrock</text>
<text text-anchor="start" x="366" y="-47" font-family="Helvetica,sans-Serif" font-size="10.00">\block\convert\property</text>
<text text-anchor="middle" x="428.5" y="-36" font-family="Helvetica,sans-Serif" font-size="10.00">\ValueFromStringProperty</text>
</a>
</g>
</g>
<!-- Node5&#45;&gt;Node7 -->
<g id="edge616_Node000005_Node000007" class="edge">
<title>Node5&#45;&gt;Node7</title>
<g id="a_edge616_Node000005_Node000007"><a xlink:title=" ">
<path fill="none" stroke="#63b8ff" d="M329.09,-66.13C338.72,-64.51 348.5,-62.85 357.97,-61.25"/>
<polygon fill="#63b8ff" stroke="#63b8ff" points="328.41,-62.7 319.13,-67.82 329.58,-69.6 328.41,-62.7"/>
</a>
</g>
</g>
</g>
</svg>
