<?xml version="1.0" encoding="UTF-8" standalone="no"?>
<!DOCTYPE svg PUBLIC "-//W3C//DTD SVG 1.1//EN"
 "http://www.w3.org/Graphics/SVG/1.1/DTD/svg11.dtd">
<!-- Generated by graphviz version 2.43.0 (0)
 -->
<!-- Title: Graphical Class Hierarchy Pages: 1 -->
<svg width="401pt" height="568pt"
 viewBox="0.00 0.00 401.00 568.00" xmlns="http://www.w3.org/2000/svg" xmlns:xlink="http://www.w3.org/1999/xlink">
<g id="graph0" class="graph" transform="scale(1 1) rotate(0) translate(4 564)">
<title>Graphical Class Hierarchy</title>
<!-- Node0 -->
<g id="Node000000" class="node">
<title>Node0</title>
<g id="a_Node000000"><a xlink:href="d3/d36/classpocketmine_1_1network_1_1mcpe_1_1protocol_1_1types_1_1shape_1_1_primitive_shape_payload.html" target="_top" xlink:title=" ">
<polygon fill="white" stroke="#666666" points="164,-306 0,-306 0,-265 164,-265 164,-306"/>
<text text-anchor="start" x="8" y="-294" font-family="Helvetica,sans-Serif" font-size="10.00">pocketmine\network</text>
<text text-anchor="start" x="8" y="-283" font-family="Helvetica,sans-Serif" font-size="10.00">\mcpe\protocol\types</text>
<text text-anchor="middle" x="82" y="-272" font-family="Helvetica,sans-Serif" font-size="10.00">\shape\PrimitiveShapePayload</text>
</a>
</g>
</g>
<!-- Node1 -->
<g id="Node000001" class="node">
<title>Node1</title>
<g id="a_Node000001"><a xlink:href="d2/d56/classpocketmine_1_1network_1_1mcpe_1_1protocol_1_1types_1_1shape_1_1_primitive_shape_arrow_payload.html" target="_top" xlink:title=" ">
<polygon fill="white" stroke="#666666" points="393,-560 200,-560 200,-519 393,-519 393,-560"/>
<text text-anchor="start" x="208" y="-548" font-family="Helvetica,sans-Serif" font-size="10.00">pocketmine\network</text>
<text text-anchor="start" x="208" y="-537" font-family="Helvetica,sans-Serif" font-size="10.00">\mcpe\protocol\types</text>
<text text-anchor="middle" x="296.5" y="-526" font-family="Helvetica,sans-Serif" font-size="10.00">\shape\PrimitiveShapeArrowPayload</text>
</a>
</g>
</g>
<!-- Node0&#45;&gt;Node1 -->
<g id="edge1616_Node000000_Node000001" class="edge">
<title>Node0&#45;&gt;Node1</title>
<g id="a_edge1616_Node000000_Node000001"><a xlink:title=" ">
<path fill="none" stroke="#63b8ff" d="M90.56,-315.87C104.17,-364.2 137.36,-458.48 200,-510.5 203.73,-513.6 207.79,-516.37 212.06,-518.84"/>
<polygon fill="#63b8ff" stroke="#63b8ff" points="93.88,-314.73 87.88,-306 87.13,-316.57 93.88,-314.73"/>
</a>
</g>
</g>
<!-- Node2 -->
<g id="Node000002" class="node">
<title>Node2</title>
<g id="a_Node000002"><a xlink:href="de/d0c/classpocketmine_1_1network_1_1mcpe_1_1protocol_1_1types_1_1shape_1_1_primitive_shape_box_payload.html" target="_top" xlink:title=" ">
<polygon fill="white" stroke="#666666" points="388,-501 205,-501 205,-460 388,-460 388,-501"/>
<text text-anchor="start" x="213" y="-489" font-family="Helvetica,sans-Serif" font-size="10.00">pocketmine\network</text>
<text text-anchor="start" x="213" y="-478" font-family="Helvetica,sans-Serif" font-size="10.00">\mcpe\protocol\types</text>
<text text-anchor="middle" x="296.5" y="-467" font-family="Helvetica,sans-Serif" font-size="10.00">\shape\PrimitiveShapeBoxPayload</text>
</a>
</g>
</g>
<!-- Node0&#45;&gt;Node2 -->
<g id="edge1617_Node000000_Node000002" class="edge">
<title>Node0&#45;&gt;Node2</title>
<g id="a_edge1617_Node000000_Node000002"><a xlink:title=" ">
<path fill="none" stroke="#63b8ff" d="M96.57,-315.28C114.89,-352.27 151,-414.84 200,-450.5 204.78,-453.98 209.97,-457.06 215.38,-459.79"/>
<polygon fill="#63b8ff" stroke="#63b8ff" points="99.59,-313.49 92.08,-306.02 93.29,-316.54 99.59,-313.49"/>
</a>
</g>
</g>
<!-- Node3 -->
<g id="Node000003" class="node">
<title>Node3</title>
<g id="a_Node000003"><a xlink:href="da/d3b/classpocketmine_1_1network_1_1mcpe_1_1protocol_1_1types_1_1shape_1_1_primitive_shape_circle_or_sphere_payload.html" target="_top" xlink:title=" ">
<polygon fill="white" stroke="#666666" points="373.5,-441.5 219.5,-441.5 219.5,-389.5 373.5,-389.5 373.5,-441.5"/>
<text text-anchor="start" x="227.5" y="-429.5" font-family="Helvetica,sans-Serif" font-size="10.00">pocketmine\network</text>
<text text-anchor="start" x="227.5" y="-418.5" font-family="Helvetica,sans-Serif" font-size="10.00">\mcpe\protocol\types</text>
<text text-anchor="start" x="227.5" y="-407.5" font-family="Helvetica,sans-Serif" font-size="10.00">\shape\PrimitiveShapeCircle</text>
<text text-anchor="middle" x="296.5" y="-396.5" font-family="Helvetica,sans-Serif" font-size="10.00">OrSpherePayload</text>
</a>
</g>
</g>
<!-- Node0&#45;&gt;Node3 -->
<g id="edge1618_Node000000_Node000003" class="edge">
<title>Node0&#45;&gt;Node3</title>
<g id="a_edge1618_Node000000_Node000003"><a xlink:title=" ">
<path fill="none" stroke="#63b8ff" d="M111.35,-313.06C133.9,-333.8 167.03,-361.77 200,-380.5 206.14,-383.99 212.7,-387.24 219.38,-390.25"/>
<polygon fill="#63b8ff" stroke="#63b8ff" points="113.53,-310.31 103.83,-306.05 108.76,-315.43 113.53,-310.31"/>
</a>
</g>
</g>
<!-- Node4 -->
<g id="Node000004" class="node">
<title>Node4</title>
<g id="a_Node000004"><a xlink:href="dc/dbd/classpocketmine_1_1network_1_1mcpe_1_1protocol_1_1types_1_1shape_1_1_primitive_shape_cone_payload.html" target="_top" xlink:title=" ">
<polygon fill="white" stroke="#666666" points="391,-371 202,-371 202,-330 391,-330 391,-371"/>
<text text-anchor="start" x="210" y="-359" font-family="Helvetica,sans-Serif" font-size="10.00">pocketmine\network</text>
<text text-anchor="start" x="210" y="-348" font-family="Helvetica,sans-Serif" font-size="10.00">\mcpe\protocol\types</text>
<text text-anchor="middle" x="296.5" y="-337" font-family="Helvetica,sans-Serif" font-size="10.00">\shape\PrimitiveShapeConePayload</text>
</a>
</g>
</g>
<!-- Node0&#45;&gt;Node4 -->
<g id="edge1619_Node000000_Node000004" class="edge">
<title>Node0&#45;&gt;Node4</title>
<g id="a_edge1619_Node000000_Node000004"><a xlink:title=" ">
<path fill="none" stroke="#63b8ff" d="M160.03,-309.06C182.39,-315.9 206.63,-323.32 228.34,-329.96"/>
<polygon fill="#63b8ff" stroke="#63b8ff" points="160.82,-305.64 150.24,-306.07 158.78,-312.34 160.82,-305.64"/>
</a>
</g>
</g>
<!-- Node5 -->
<g id="Node000005" class="node">
<title>Node5</title>
<g id="a_Node000005"><a xlink:href="d2/d72/classpocketmine_1_1network_1_1mcpe_1_1protocol_1_1types_1_1shape_1_1_primitive_shape_cylinder_payload.html" target="_top" xlink:title=" ">
<polygon fill="white" stroke="#666666" points="380,-311.5 213,-311.5 213,-259.5 380,-259.5 380,-311.5"/>
<text text-anchor="start" x="221" y="-299.5" font-family="Helvetica,sans-Serif" font-size="10.00">pocketmine\network</text>
<text text-anchor="start" x="221" y="-288.5" font-family="Helvetica,sans-Serif" font-size="10.00">\mcpe\protocol\types</text>
<text text-anchor="start" x="221" y="-277.5" font-family="Helvetica,sans-Serif" font-size="10.00">\shape\PrimitiveShapeCylinder</text>
<text text-anchor="middle" x="296.5" y="-266.5" font-family="Helvetica,sans-Serif" font-size="10.00">Payload</text>
</a>
</g>
</g>
<!-- Node0&#45;&gt;Node5 -->
<g id="edge1620_Node000000_Node000005" class="edge">
<title>Node0&#45;&gt;Node5</title>
<g id="a_edge1620_Node000000_Node000005"><a xlink:title=" ">
<path fill="none" stroke="#63b8ff" d="M174.42,-285.5C187.21,-285.5 200.28,-285.5 212.89,-285.5"/>
<polygon fill="#63b8ff" stroke="#63b8ff" points="174.25,-282 164.25,-285.5 174.25,-289 174.25,-282"/>
</a>
</g>
</g>
<!-- Node6 -->
<g id="Node000006" class="node">
<title>Node6</title>
<g id="a_Node000006"><a xlink:href="d8/dd7/classpocketmine_1_1network_1_1mcpe_1_1protocol_1_1types_1_1shape_1_1_primitive_shape_ellipsoid_payload.html" target="_top" xlink:title=" ">
<polygon fill="white" stroke="#666666" points="380,-241.5 213,-241.5 213,-189.5 380,-189.5 380,-241.5"/>
<text text-anchor="start" x="221" y="-229.5" font-family="Helvetica,sans-Serif" font-size="10.00">pocketmine\network</text>
<text text-anchor="start" x="221" y="-218.5" font-family="Helvetica,sans-Serif" font-size="10.00">\mcpe\protocol\types</text>
<text text-anchor="start" x="221" y="-207.5" font-family="Helvetica,sans-Serif" font-size="10.00">\shape\PrimitiveShapeEllipsoid</text>
<text text-anchor="middle" x="296.5" y="-196.5" font-family="Helvetica,sans-Serif" font-size="10.00">Payload</text>
</a>
</g>
</g>
<!-- Node0&#45;&gt;Node6 -->
<g id="edge1621_Node000000_Node000006" class="edge">
<title>Node0&#45;&gt;Node6</title>
<g id="a_edge1621_Node000000_Node000006"><a xlink:title=" ">
<path fill="none" stroke="#63b8ff" d="M154.9,-261.82C174.72,-255.29 196.33,-248.17 216.54,-241.51"/>
<polygon fill="#63b8ff" stroke="#63b8ff" points="153.72,-258.52 145.32,-264.97 155.91,-265.17 153.72,-258.52"/>
</a>
</g>
</g>
<!-- Node7 -->
<g id="Node000007" class="node">
<title>Node7</title>
<g id="a_Node000007"><a xlink:href="dd/db2/classpocketmine_1_1network_1_1mcpe_1_1protocol_1_1types_1_1shape_1_1_primitive_shape_line_payload.html" target="_top" xlink:title=" ">
<polygon fill="white" stroke="#666666" points="389,-171 204,-171 204,-130 389,-130 389,-171"/>
<text text-anchor="start" x="212" y="-159" font-family="Helvetica,sans-Serif" font-size="10.00">pocketmine\network</text>
<text text-anchor="start" x="212" y="-148" font-family="Helvetica,sans-Serif" font-size="10.00">\mcpe\protocol\types</text>
<text text-anchor="middle" x="296.5" y="-137" font-family="Helvetica,sans-Serif" font-size="10.00">\shape\PrimitiveShapeLinePayload</text>
</a>
</g>
</g>
<!-- Node0&#45;&gt;Node7 -->
<g id="edge1622_Node000000_Node000007" class="edge">
<title>Node0&#45;&gt;Node7</title>
<g id="a_edge1622_Node000000_Node000007"><a xlink:title=" ">
<path fill="none" stroke="#63b8ff" d="M107.86,-257.27C129.95,-233.74 164.21,-200.89 200,-180.5 206.04,-177.06 212.52,-173.96 219.17,-171.18"/>
<polygon fill="#63b8ff" stroke="#63b8ff" points="105.06,-255.13 100.85,-264.85 110.2,-259.88 105.06,-255.13"/>
</a>
</g>
</g>
<!-- Node8 -->
<g id="Node000008" class="node">
<title>Node8</title>
<g id="a_Node000008"><a xlink:href="d8/df6/classpocketmine_1_1network_1_1mcpe_1_1protocol_1_1types_1_1shape_1_1_primitive_shape_pyramid_payload.html" target="_top" xlink:title=" ">
<polygon fill="white" stroke="#666666" points="380,-111.5 213,-111.5 213,-59.5 380,-59.5 380,-111.5"/>
<text text-anchor="start" x="221" y="-99.5" font-family="Helvetica,sans-Serif" font-size="10.00">pocketmine\network</text>
<text text-anchor="start" x="221" y="-88.5" font-family="Helvetica,sans-Serif" font-size="10.00">\mcpe\protocol\types</text>
<text text-anchor="start" x="221" y="-77.5" font-family="Helvetica,sans-Serif" font-size="10.00">\shape\PrimitiveShapePyramid</text>
<text text-anchor="middle" x="296.5" y="-66.5" font-family="Helvetica,sans-Serif" font-size="10.00">Payload</text>
</a>
</g>
</g>
<!-- Node0&#45;&gt;Node8 -->
<g id="edge1623_Node000000_Node000008" class="edge">
<title>Node0&#45;&gt;Node8</title>
<g id="a_edge1623_Node000000_Node000008"><a xlink:title=" ">
<path fill="none" stroke="#63b8ff" d="M97.24,-255.75C116.04,-219.36 152.42,-158.11 200,-121.5 204.63,-117.93 209.66,-114.69 214.9,-111.74"/>
<polygon fill="#63b8ff" stroke="#63b8ff" points="94.01,-254.37 92.62,-264.87 100.26,-257.53 94.01,-254.37"/>
</a>
</g>
</g>
<!-- Node9 -->
<g id="Node000009" class="node">
<title>Node9</title>
<g id="a_Node000009"><a xlink:href="d2/d21/classpocketmine_1_1network_1_1mcpe_1_1protocol_1_1types_1_1shape_1_1_primitive_shape_text_payload.html" target="_top" xlink:title=" ">
<polygon fill="white" stroke="#666666" points="389,-41 204,-41 204,0 389,0 389,-41"/>
<text text-anchor="start" x="212" y="-29" font-family="Helvetica,sans-Serif" font-size="10.00">pocketmine\network</text>
<text text-anchor="start" x="212" y="-18" font-family="Helvetica,sans-Serif" font-size="10.00">\mcpe\protocol\types</text>
<text text-anchor="middle" x="296.5" y="-7" font-family="Helvetica,sans-Serif" font-size="10.00">\shape\PrimitiveShapeTextPayload</text>
</a>
</g>
</g>
<!-- Node0&#45;&gt;Node9 -->
<g id="edge1624_Node000000_Node000009" class="edge">
<title>Node0&#45;&gt;Node9</title>
<g id="a_edge1624_Node000000_Node000009"><a xlink:title=" ">
<path fill="none" stroke="#63b8ff" d="M89.95,-254.95C102.89,-204.92 135.44,-105.61 200,-50.5 204.1,-47 208.6,-43.91 213.36,-41.18"/>
<polygon fill="#63b8ff" stroke="#63b8ff" points="86.5,-254.29 87.48,-264.84 93.29,-255.98 86.5,-254.29"/>
</a>
</g>
</g>
</g>
</svg>
