<?xml version="1.0" encoding="UTF-8" standalone="no"?>
<!DOCTYPE svg PUBLIC "-//W3C//DTD SVG 1.1//EN"
 "http://www.w3.org/Graphics/SVG/1.1/DTD/svg11.dtd">
<!-- Generated by graphviz version 2.43.0 (0)
 -->
<!-- Title: Graphical Class Hierarchy Pages: 1 -->
<svg width="551pt" height="206pt"
 viewBox="0.00 0.00 551.00 206.00" xmlns="http://www.w3.org/2000/svg" xmlns:xlink="http://www.w3.org/1999/xlink">
<g id="graph0" class="graph" transform="scale(1 1) rotate(0) translate(4 202)">
<title>Graphical Class Hierarchy</title>
<!-- Node0 -->
<g id="Node000000" class="node">
<title>Node0</title>
<g id="a_Node000000"><a xlink:href="d6/dd9/classpocketmine_1_1utils_1_1_registry_source.html" target="_top" xlink:title=" ">
<polygon fill="white" stroke="#666666" points="141,-126 0,-126 0,-96 141,-96 141,-126"/>
<text text-anchor="start" x="8" y="-114" font-family="Helvetica,sans-Serif" font-size="10.00">pocketmine\utils\Registry</text>
<text text-anchor="middle" x="70.5" y="-103" font-family="Helvetica,sans-Serif" font-size="10.00">Source</text>
</a>
</g>
</g>
<!-- Node1 -->
<g id="Node000001" class="node">
<title>Node1</title>
<g id="a_Node000001"><a xlink:href="db/d34/classpocketmine_1_1entity_1_1effect_1_1_vanilla_effects_inputs.html" target="_top" xlink:title=" ">
<polygon fill="white" stroke="#666666" points="328.5,-198 192.5,-198 192.5,-168 328.5,-168 328.5,-198"/>
<text text-anchor="start" x="200.5" y="-186" font-family="Helvetica,sans-Serif" font-size="10.00">pocketmine\entity\effect</text>
<text text-anchor="middle" x="260.5" y="-175" font-family="Helvetica,sans-Serif" font-size="10.00">\VanillaEffectsInputs</text>
</a>
</g>
</g>
<!-- Node0&#45;&gt;Node1 -->
<g id="edge1596_Node000000_Node000001" class="edge">
<title>Node0&#45;&gt;Node1</title>
<g id="a_edge1596_Node000000_Node000001"><a xlink:title=" ">
<path fill="none" stroke="#63b8ff" d="M110.72,-130.47C130.34,-139.79 154.62,-150.7 177,-159 185.53,-162.16 194.68,-165.18 203.67,-167.94"/>
<polygon fill="#63b8ff" stroke="#63b8ff" points="112.01,-127.21 101.49,-126.04 108.99,-133.52 112.01,-127.21"/>
</a>
</g>
</g>
<!-- Node2 -->
<g id="Node000002" class="node">
<title>Node2</title>
<g id="a_Node000002"><a xlink:href="d2/d96/classpocketmine_1_1item_1_1_vanilla_armor_materials_inputs.html" target="_top" xlink:title=" ">
<polygon fill="white" stroke="#666666" points="343,-150 178,-150 178,-120 343,-120 343,-150"/>
<text text-anchor="start" x="186" y="-138" font-family="Helvetica,sans-Serif" font-size="10.00">pocketmine\item\VanillaArmor</text>
<text text-anchor="middle" x="260.5" y="-127" font-family="Helvetica,sans-Serif" font-size="10.00">MaterialsInputs</text>
</a>
</g>
</g>
<!-- Node0&#45;&gt;Node2 -->
<g id="edge1597_Node000000_Node000002" class="edge">
<title>Node0&#45;&gt;Node2</title>
<g id="a_edge1597_Node000000_Node000002"><a xlink:title=" ">
<path fill="none" stroke="#63b8ff" d="M151.4,-121.2C160.14,-122.32 169.05,-123.45 177.81,-124.57"/>
<polygon fill="#63b8ff" stroke="#63b8ff" points="151.6,-117.7 141.24,-119.9 150.71,-124.64 151.6,-117.7"/>
</a>
</g>
</g>
<!-- Node3 -->
<g id="Node000003" class="node">
<title>Node3</title>
<g id="a_Node000003"><a xlink:href="d0/dbf/classpocketmine_1_1item_1_1enchantment_1_1_vanilla_enchantments_inputs.html" target="_top" xlink:title=" ">
<polygon fill="white" stroke="#666666" points="344,-102 177,-102 177,-72 344,-72 344,-102"/>
<text text-anchor="start" x="185" y="-90" font-family="Helvetica,sans-Serif" font-size="10.00">pocketmine\item\enchantment</text>
<text text-anchor="middle" x="260.5" y="-79" font-family="Helvetica,sans-Serif" font-size="10.00">\VanillaEnchantmentsInputs</text>
</a>
</g>
</g>
<!-- Node0&#45;&gt;Node3 -->
<g id="edge1598_Node000000_Node000003" class="edge">
<title>Node0&#45;&gt;Node3</title>
<g id="a_edge1598_Node000000_Node000003"><a xlink:title=" ">
<path fill="none" stroke="#63b8ff" d="M151.41,-100.8C159.83,-99.72 168.4,-98.63 176.85,-97.55"/>
<polygon fill="#63b8ff" stroke="#63b8ff" points="150.71,-97.36 141.24,-102.1 151.6,-104.3 150.71,-97.36"/>
</a>
</g>
</g>
<!-- Node4 -->
<g id="Node000004" class="node">
<title>Node4</title>
<g id="a_Node000004"><a xlink:href="d1/d3d/classpocketmine_1_1utils_1_1_cloning_registry_source.html" target="_top" xlink:title=" ">
<polygon fill="white" stroke="#666666" points="329,-54 192,-54 192,-24 329,-24 329,-54"/>
<text text-anchor="start" x="200" y="-42" font-family="Helvetica,sans-Serif" font-size="10.00">pocketmine\utils\Cloning</text>
<text text-anchor="middle" x="260.5" y="-31" font-family="Helvetica,sans-Serif" font-size="10.00">RegistrySource</text>
</a>
</g>
</g>
<!-- Node0&#45;&gt;Node4 -->
<g id="edge1599_Node000000_Node000004" class="edge">
<title>Node0&#45;&gt;Node4</title>
<g id="a_edge1599_Node000000_Node000004"><a xlink:title=" ">
<path fill="none" stroke="#63b8ff" d="M110.72,-91.53C130.34,-82.21 154.62,-71.3 177,-63 185.53,-59.84 194.68,-56.82 203.67,-54.06"/>
<polygon fill="#63b8ff" stroke="#63b8ff" points="108.99,-88.48 101.49,-95.96 112.01,-94.79 108.99,-88.48"/>
</a>
</g>
</g>
<!-- Node5 -->
<g id="Node000005" class="node">
<title>Node5</title>
<g id="a_Node000005"><a xlink:href="d9/d11/classpocketmine_1_1block_1_1_vanilla_blocks_inputs.html" target="_top" xlink:title=" ">
<polygon fill="white" stroke="#666666" points="531,-78 392,-78 392,-48 531,-48 531,-78"/>
<text text-anchor="start" x="400" y="-66" font-family="Helvetica,sans-Serif" font-size="10.00">pocketmine\block\Vanilla</text>
<text text-anchor="middle" x="461.5" y="-55" font-family="Helvetica,sans-Serif" font-size="10.00">BlocksInputs</text>
</a>
</g>
</g>
<!-- Node4&#45;&gt;Node5 -->
<g id="edge1600_Node000004_Node000005" class="edge">
<title>Node4&#45;&gt;Node5</title>
<g id="a_edge1600_Node000004_Node000005"><a xlink:title=" ">
<path fill="none" stroke="#63b8ff" d="M339.22,-48.37C356.53,-50.46 374.76,-52.66 391.68,-54.7"/>
<polygon fill="#63b8ff" stroke="#63b8ff" points="339.5,-44.88 329.15,-47.16 338.66,-51.83 339.5,-44.88"/>
</a>
</g>
</g>
<!-- Node6 -->
<g id="Node000006" class="node">
<title>Node6</title>
<g id="a_Node000006"><a xlink:href="d7/d60/classpocketmine_1_1item_1_1_vanilla_items_inputs.html" target="_top" xlink:title=" ">
<polygon fill="white" stroke="#666666" points="543,-30 380,-30 380,0 543,0 543,-30"/>
<text text-anchor="start" x="388" y="-18" font-family="Helvetica,sans-Serif" font-size="10.00">pocketmine\item\VanillaItems</text>
<text text-anchor="middle" x="461.5" y="-7" font-family="Helvetica,sans-Serif" font-size="10.00">Inputs</text>
</a>
</g>
</g>
<!-- Node4&#45;&gt;Node6 -->
<g id="edge1601_Node000004_Node000006" class="edge">
<title>Node4&#45;&gt;Node6</title>
<g id="a_edge1601_Node000004_Node000006"><a xlink:title=" ">
<path fill="none" stroke="#63b8ff" d="M339.25,-29.62C352.61,-28.01 366.53,-26.33 379.97,-24.71"/>
<polygon fill="#63b8ff" stroke="#63b8ff" points="338.66,-26.17 329.15,-30.84 339.5,-33.12 338.66,-26.17"/>
</a>
</g>
</g>
</g>
</svg>
