<?xml version="1.0" encoding="UTF-8" standalone="no"?>
<!DOCTYPE svg PUBLIC "-//W3C//DTD SVG 1.1//EN"
 "http://www.w3.org/Graphics/SVG/1.1/DTD/svg11.dtd">
<!-- Generated by graphviz version 2.43.0 (0)
 -->
<!-- Title: pocketmine\block\tile\Lectern Pages: 1 -->
<!--zoomable 2165 -->

<svg id="main" version="1.1" xmlns="http://www.w3.org/2000/svg" xmlns:xlink="http://www.w3.org/1999/xlink" xml:space="preserve" onload="init(evt)">

<style type="text/css"><![CDATA[
.node, .edge {opacity: 0.7;}
.node.selected, .edge.selected {opacity: 1;}
.edge:hover path { stroke: red; }
.edge:hover polygon { stroke: red; fill: red; }
]]></style>

<defs>
  <circle id="rim" cx="0" cy="0" r="7"/>
  <circle id="rim2" cx="0" cy="0" r="3.5"/>
  <g id="zoomPlus">
    <use xlink:href="#rim" fill="#404040"><set attributeName="fill" to="#808080" begin="zoomplus.mouseover" end="zoomplus.mouseout"/></use>
    <path d="M-4,0h8M0,-4v8" fill="none" stroke="white" stroke-width="1.5" pointer-events="none"/>
  </g>
  <g id="zoomMin">
    <use xlink:href="#rim" fill="#404040"><set attributeName="fill" to="#808080" begin="zoomminus.mouseover" end="zoomminus.mouseout"/></use>
    <path d="M-4,0h8" fill="none" stroke="white" stroke-width="1.5" pointer-events="none"/>
  </g>
  <g id="arrowUp" transform="translate(30 24)">
    <use xlink:href="#rim"/>
    <path pointer-events="none" fill="none" stroke="white" stroke-width="1.5" d="M0,-3.0v7 M-2.5,-0.5L0,-3.0L2.5,-0.5"/>
  </g>
  <g id="arrowRight" transform="rotate(90) translate(36 -43)">
    <use xlink:href="#rim"/>
    <path pointer-events="none" fill="none" stroke="white" stroke-width="1.5" d="M0,-3.0v7 M-2.5,-0.5L0,-3.0L2.5,-0.5"/>
  </g>
  <g id="arrowDown" transform="rotate(180) translate(-30 -48)">
    <use xlink:href="#rim"/>
    <path pointer-events="none" fill="none" stroke="white" stroke-width="1.5" d="M0,-3.0v7 M-2.5,-0.5L0,-3.0L2.5,-0.5"/>
  </g>
  <g id="arrowLeft" transform="rotate(270) translate(-36 17)">
    <use xlink:href="#rim"/>
    <path pointer-events="none" fill="none" stroke="white" stroke-width="1.5" d="M0,-3.0v7 M-2.5,-0.5L0,-3.0L2.5,-0.5"/>
  </g>
  <g id="resetDef">
    <use xlink:href="#rim2" fill="#404040"><set attributeName="fill" to="#808080" begin="reset.mouseover" end="reset.mouseout"/></use>
  </g>
</defs>
<script type="application/ecmascript">
var viewWidth = 485;
var viewHeight = 2165;
var sectionId = 'dynsection-1';
</script>
<script type="application/ecmascript" xlink:href="../../svg.min.js"/>
<svg id="graph" class="graph">
<g id="viewport">
<title>pocketmine\block\tile\Lectern</title>
<!-- Node1 -->
<g id="Node000001" class="node">
<title>Node1</title>
<g id="a_Node000001"><a xlink:title=" ">
<polygon fill="#999999" stroke="transparent" points="413,-195 261,-195 261,0 413,0 413,-195"/>
<text text-anchor="start" x="284" y="-182.5" font-family="Helvetica,sans-Serif" font-size="10.00">pocketmine\block\tile</text>
<text text-anchor="start" x="317" y="-171.5" font-family="Helvetica,sans-Serif" font-size="10.00">\Lectern</text>
<text text-anchor="start" x="265" y="-156.5" font-family="Helvetica,sans-Serif" font-size="10.00">+</text>
<text text-anchor="start" x="278" y="-156.5" font-family="Helvetica,sans-Serif" font-size="10.00">TAG_BOOK</text>
<text text-anchor="start" x="265" y="-141.5" font-family="Helvetica,sans-Serif" font-size="10.00">+</text>
<text text-anchor="start" x="278" y="-141.5" font-family="Helvetica,sans-Serif" font-size="10.00">TAG_HAS_BOOK</text>
<text text-anchor="start" x="265" y="-126.5" font-family="Helvetica,sans-Serif" font-size="10.00">+</text>
<text text-anchor="start" x="278" y="-126.5" font-family="Helvetica,sans-Serif" font-size="10.00">TAG_PAGE</text>
<text text-anchor="start" x="265" y="-111.5" font-family="Helvetica,sans-Serif" font-size="10.00">+</text>
<text text-anchor="start" x="278" y="-111.5" font-family="Helvetica,sans-Serif" font-size="10.00">TAG_TOTAL_PAGES</text>
<text text-anchor="start" x="265" y="-96.5" font-family="Helvetica,sans-Serif" font-size="10.00">+</text>
<text text-anchor="start" x="278" y="-96.5" font-family="Helvetica,sans-Serif" font-size="10.00">getBook()</text>
<text text-anchor="start" x="265" y="-81.5" font-family="Helvetica,sans-Serif" font-size="10.00">+</text>
<text text-anchor="start" x="278" y="-81.5" font-family="Helvetica,sans-Serif" font-size="10.00">getViewedPage()</text>
<text text-anchor="start" x="265" y="-66.5" font-family="Helvetica,sans-Serif" font-size="10.00">+</text>
<text text-anchor="start" x="278" y="-66.5" font-family="Helvetica,sans-Serif" font-size="10.00">readSaveData()</text>
<text text-anchor="start" x="265" y="-51.5" font-family="Helvetica,sans-Serif" font-size="10.00">+</text>
<text text-anchor="start" x="278" y="-51.5" font-family="Helvetica,sans-Serif" font-size="10.00">setBook()</text>
<text text-anchor="start" x="265" y="-36.5" font-family="Helvetica,sans-Serif" font-size="10.00">+</text>
<text text-anchor="start" x="278" y="-36.5" font-family="Helvetica,sans-Serif" font-size="10.00">setViewedPage()</text>
<text text-anchor="start" x="265" y="-21.5" font-family="Helvetica,sans-Serif" font-size="10.00">#</text>
<text text-anchor="start" x="278" y="-21.5" font-family="Helvetica,sans-Serif" font-size="10.00">addAdditionalSpawnData()</text>
<text text-anchor="start" x="265" y="-6.5" font-family="Helvetica,sans-Serif" font-size="10.00">#</text>
<text text-anchor="start" x="278" y="-6.5" font-family="Helvetica,sans-Serif" font-size="10.00">writeSaveData()</text>
<polygon fill="#666666" stroke="#666666" points="261,-166.5 261,-166.5 413,-166.5 413,-166.5 261,-166.5"/>
<polygon fill="#666666" stroke="#666666" points="261,-106.5 261,-106.5 276,-106.5 276,-106.5 261,-106.5"/>
<polygon fill="#666666" stroke="#666666" points="276,-106.5 276,-106.5 413,-106.5 413,-106.5 276,-106.5"/>
<polygon fill="none" stroke="#666666" points="261,0 261,-195 413,-195 413,0 261,0"/>
</a>
</g>
</g>
<!-- Node2 -->
<g id="Node000002" class="node">
<title>Node2</title>
<g id="a_Node000002"><a xlink:href="../../dc/d0b/classpocketmine_1_1block_1_1tile_1_1_spawnable.html" target="_top" xlink:title=" ">
<polygon fill="white" stroke="transparent" points="429,-363 245,-363 245,-232 429,-232 429,-363"/>
<text text-anchor="start" x="284" y="-350.5" font-family="Helvetica,sans-Serif" font-size="10.00">pocketmine\block\tile</text>
<text text-anchor="start" x="308.5" y="-339.5" font-family="Helvetica,sans-Serif" font-size="10.00">\Spawnable</text>
<text text-anchor="start" x="335" y="-324.5" font-family="Helvetica,sans-Serif" font-size="10.00"> </text>
<text text-anchor="start" x="249" y="-309.5" font-family="Helvetica,sans-Serif" font-size="10.00">+</text>
<text text-anchor="start" x="262" y="-309.5" font-family="Helvetica,sans-Serif" font-size="10.00">clearSpawnCompoundCache()</text>
<text text-anchor="start" x="249" y="-294.5" font-family="Helvetica,sans-Serif" font-size="10.00">+</text>
<text text-anchor="start" x="262" y="-294.5" font-family="Helvetica,sans-Serif" font-size="10.00">getRenderUpdateBugWorkaround</text>
<text text-anchor="start" x="262" y="-283.5" font-family="Helvetica,sans-Serif" font-size="10.00">StateProperties()</text>
<text text-anchor="start" x="249" y="-268.5" font-family="Helvetica,sans-Serif" font-size="10.00">+</text>
<text text-anchor="start" x="262" y="-268.5" font-family="Helvetica,sans-Serif" font-size="10.00">getSerializedSpawnCompound()</text>
<text text-anchor="start" x="249" y="-253.5" font-family="Helvetica,sans-Serif" font-size="10.00">+</text>
<text text-anchor="start" x="262" y="-253.5" font-family="Helvetica,sans-Serif" font-size="10.00">getSpawnCompound()</text>
<text text-anchor="start" x="249" y="-238.5" font-family="Helvetica,sans-Serif" font-size="10.00">#</text>
<text text-anchor="start" x="262" y="-238.5" font-family="Helvetica,sans-Serif" font-size="10.00">addAdditionalSpawnData()</text>
<polygon fill="#bfbfbf" stroke="#bfbfbf" points="245,-334.5 245,-334.5 429,-334.5 429,-334.5 245,-334.5"/>
<polygon fill="#bfbfbf" stroke="#bfbfbf" points="245,-319.5 245,-319.5 429,-319.5 429,-319.5 245,-319.5"/>
<polygon fill="none" stroke="#bfbfbf" points="245,-232 245,-363 429,-363 429,-232 245,-232"/>
</a>
</g>
</g>
<!-- Node2&#45;&gt;Node1 -->
<g id="edge1_Node000001_Node000002" class="edge">
<title>Node2&#45;&gt;Node1</title>
<g id="a_edge1_Node000001_Node000002"><a xlink:title=" ">
<path fill="none" stroke="#63b8ff" d="M337,-221.88C337,-213.19 337,-204.23 337,-195.3"/>
<polygon fill="none" stroke="#63b8ff" points="333.5,-221.94 337,-231.94 340.5,-221.94 333.5,-221.94"/>
</a>
</g>
</g>
<!-- Node3 -->
<g id="Node000003" class="node">
<title>Node3</title>
<g id="a_Node000003"><a xlink:href="../../d9/d74/classpocketmine_1_1block_1_1tile_1_1_tile.html" target="_top" xlink:title=" ">
<polygon fill="white" stroke="transparent" points="409,-689 265,-689 265,-400 409,-400 409,-689"/>
<text text-anchor="start" x="273.5" y="-676.5" font-family="Helvetica,sans-Serif" font-size="10.00">pocketmine\block\tile\Tile</text>
<text text-anchor="start" x="269" y="-661.5" font-family="Helvetica,sans-Serif" font-size="10.00">+</text>
<text text-anchor="start" x="282" y="-661.5" font-family="Helvetica,sans-Serif" font-size="10.00">$closed</text>
<text text-anchor="start" x="269" y="-646.5" font-family="Helvetica,sans-Serif" font-size="10.00">+</text>
<text text-anchor="start" x="282" y="-646.5" font-family="Helvetica,sans-Serif" font-size="10.00">TAG_ID</text>
<text text-anchor="start" x="269" y="-631.5" font-family="Helvetica,sans-Serif" font-size="10.00">+</text>
<text text-anchor="start" x="282" y="-631.5" font-family="Helvetica,sans-Serif" font-size="10.00">TAG_X</text>
<text text-anchor="start" x="269" y="-616.5" font-family="Helvetica,sans-Serif" font-size="10.00">+</text>
<text text-anchor="start" x="282" y="-616.5" font-family="Helvetica,sans-Serif" font-size="10.00">TAG_Y</text>
<text text-anchor="start" x="269" y="-601.5" font-family="Helvetica,sans-Serif" font-size="10.00">+</text>
<text text-anchor="start" x="282" y="-601.5" font-family="Helvetica,sans-Serif" font-size="10.00">TAG_Z</text>
<text text-anchor="start" x="269" y="-586.5" font-family="Helvetica,sans-Serif" font-size="10.00">+</text>
<text text-anchor="start" x="282" y="-586.5" font-family="Helvetica,sans-Serif" font-size="10.00">__construct()</text>
<text text-anchor="start" x="269" y="-571.5" font-family="Helvetica,sans-Serif" font-size="10.00">+</text>
<text text-anchor="start" x="282" y="-571.5" font-family="Helvetica,sans-Serif" font-size="10.00">__destruct()</text>
<text text-anchor="start" x="269" y="-556.5" font-family="Helvetica,sans-Serif" font-size="10.00">+</text>
<text text-anchor="start" x="282" y="-556.5" font-family="Helvetica,sans-Serif" font-size="10.00">close()</text>
<text text-anchor="start" x="269" y="-541.5" font-family="Helvetica,sans-Serif" font-size="10.00">+</text>
<text text-anchor="start" x="282" y="-541.5" font-family="Helvetica,sans-Serif" font-size="10.00">copyDataFromItem()</text>
<text text-anchor="start" x="269" y="-526.5" font-family="Helvetica,sans-Serif" font-size="10.00">+</text>
<text text-anchor="start" x="282" y="-526.5" font-family="Helvetica,sans-Serif" font-size="10.00">getBlock()</text>
<text text-anchor="start" x="269" y="-511.5" font-family="Helvetica,sans-Serif" font-size="10.00">+</text>
<text text-anchor="start" x="282" y="-511.5" font-family="Helvetica,sans-Serif" font-size="10.00">getCleanedNBT()</text>
<text text-anchor="start" x="269" y="-496.5" font-family="Helvetica,sans-Serif" font-size="10.00">+</text>
<text text-anchor="start" x="282" y="-496.5" font-family="Helvetica,sans-Serif" font-size="10.00">getPosition()</text>
<text text-anchor="start" x="269" y="-481.5" font-family="Helvetica,sans-Serif" font-size="10.00">+</text>
<text text-anchor="start" x="282" y="-481.5" font-family="Helvetica,sans-Serif" font-size="10.00">isClosed()</text>
<text text-anchor="start" x="269" y="-466.5" font-family="Helvetica,sans-Serif" font-size="10.00">+</text>
<text text-anchor="start" x="282" y="-466.5" font-family="Helvetica,sans-Serif" font-size="10.00">onBlockDestroyed()</text>
<text text-anchor="start" x="269" y="-451.5" font-family="Helvetica,sans-Serif" font-size="10.00">+</text>
<text text-anchor="start" x="282" y="-451.5" font-family="Helvetica,sans-Serif" font-size="10.00">readSaveData()</text>
<text text-anchor="start" x="269" y="-436.5" font-family="Helvetica,sans-Serif" font-size="10.00">+</text>
<text text-anchor="start" x="282" y="-436.5" font-family="Helvetica,sans-Serif" font-size="10.00">saveNBT()</text>
<text text-anchor="start" x="269" y="-421.5" font-family="Helvetica,sans-Serif" font-size="10.00">#</text>
<text text-anchor="start" x="282" y="-421.5" font-family="Helvetica,sans-Serif" font-size="10.00">onBlockDestroyedHook()</text>
<text text-anchor="start" x="269" y="-406.5" font-family="Helvetica,sans-Serif" font-size="10.00">#</text>
<text text-anchor="start" x="282" y="-406.5" font-family="Helvetica,sans-Serif" font-size="10.00">writeSaveData()</text>
<polygon fill="#bfbfbf" stroke="#bfbfbf" points="265,-671.5 265,-671.5 409,-671.5 409,-671.5 265,-671.5"/>
<polygon fill="#bfbfbf" stroke="#bfbfbf" points="265,-596.5 265,-596.5 280,-596.5 280,-596.5 265,-596.5"/>
<polygon fill="#bfbfbf" stroke="#bfbfbf" points="280,-596.5 280,-596.5 409,-596.5 409,-596.5 280,-596.5"/>
<polygon fill="none" stroke="#bfbfbf" points="265,-400 265,-689 409,-689 409,-400 265,-400"/>
</a>
</g>
</g>
<!-- Node3&#45;&gt;Node2 -->
<g id="edge2_Node000002_Node000003" class="edge">
<title>Node3&#45;&gt;Node2</title>
<g id="a_edge2_Node000002_Node000003"><a xlink:title=" ">
<path fill="none" stroke="#63b8ff" d="M337,-389.84C337,-380.64 337,-371.68 337,-363.21"/>
<polygon fill="none" stroke="#63b8ff" points="333.5,-389.92 337,-399.92 340.5,-389.92 333.5,-389.92"/>
</a>
</g>
</g>
<!-- Node4 -->
<g id="Node000004" class="node">
<title>Node4</title>
<g id="a_Node000004"><a xlink:href="../../d5/dd2/classpocketmine_1_1world_1_1_position.html" target="_top" xlink:title=" ">
<polygon fill="white" stroke="transparent" points="346,-890 206,-890 206,-736 346,-736 346,-890"/>
<text text-anchor="start" x="211" y="-878" font-family="Helvetica,sans-Serif" font-size="10.00">pocketmine\world\Position</text>
<text text-anchor="start" x="274" y="-863" font-family="Helvetica,sans-Serif" font-size="10.00"> </text>
<text text-anchor="start" x="223.5" y="-848" font-family="Helvetica,sans-Serif" font-size="10.00">+</text>
<text text-anchor="start" x="250" y="-848" font-family="Helvetica,sans-Serif" font-size="10.00">__construct()</text>
<text text-anchor="start" x="223.5" y="-833" font-family="Helvetica,sans-Serif" font-size="10.00">+</text>
<text text-anchor="start" x="250" y="-833" font-family="Helvetica,sans-Serif" font-size="10.00">__toString()</text>
<text text-anchor="start" x="223.5" y="-818" font-family="Helvetica,sans-Serif" font-size="10.00">+</text>
<text text-anchor="start" x="250" y="-818" font-family="Helvetica,sans-Serif" font-size="10.00">asPosition()</text>
<text text-anchor="start" x="223.5" y="-803" font-family="Helvetica,sans-Serif" font-size="10.00">+</text>
<text text-anchor="start" x="250" y="-803" font-family="Helvetica,sans-Serif" font-size="10.00">equals()</text>
<text text-anchor="start" x="223.5" y="-788" font-family="Helvetica,sans-Serif" font-size="10.00">+</text>
<text text-anchor="start" x="250" y="-788" font-family="Helvetica,sans-Serif" font-size="10.00">getSide()</text>
<text text-anchor="start" x="223.5" y="-773" font-family="Helvetica,sans-Serif" font-size="10.00">+</text>
<text text-anchor="start" x="250" y="-773" font-family="Helvetica,sans-Serif" font-size="10.00">getWorld()</text>
<text text-anchor="start" x="223.5" y="-758" font-family="Helvetica,sans-Serif" font-size="10.00">+</text>
<text text-anchor="start" x="250" y="-758" font-family="Helvetica,sans-Serif" font-size="10.00">isValid()</text>
<text text-anchor="start" x="223.5" y="-743" font-family="Helvetica,sans-Serif" font-size="10.00">+</text>
<text text-anchor="start" x="250" y="-743" font-family="Helvetica,sans-Serif" font-size="10.00">fromObject()</text>
<polygon fill="#bfbfbf" stroke="#bfbfbf" points="206,-873 206,-873 346,-873 346,-873 206,-873"/>
<polygon fill="#bfbfbf" stroke="#bfbfbf" points="206,-858 206,-858 346,-858 346,-858 206,-858"/>
<polygon fill="none" stroke="#bfbfbf" points="206,-736 206,-890 346,-890 346,-736 206,-736"/>
</a>
</g>
</g>
<!-- Node4&#45;&gt;Node3 -->
<g id="edge3_Node000003_Node000004" class="edge">
<title>Node4&#45;&gt;Node3</title>
<g id="a_edge3_Node000003_Node000004"><a xlink:title=" ">
<path fill="none" stroke="#63b8ff" d="M293.4,-735.99C295.93,-724.91 298.62,-713.18 301.36,-701.2"/>
<polygon fill="none" stroke="#63b8ff" points="301.44,-700.86 298.88,-694.12 304.12,-689.16 306.68,-695.9 301.44,-700.86"/>
</a>
</g>
<text text-anchor="middle" x="328.5" y="-710" font-family="Helvetica,sans-Serif" font-size="10.00" fill="grey"> #$position</text>
</g>
<!-- Node5 -->
<g id="Node000005" class="node">
<title>Node5</title>
<g id="a_Node000005"><a xlink:href="../../d2/d90/classpocketmine_1_1math_1_1_vector3.html" target="_top" xlink:title=" ">
<polygon fill="white" stroke="transparent" points="175,-1299 39,-1299 39,-1040 175,-1040 175,-1299"/>
<text text-anchor="start" x="44" y="-1286.5" font-family="Helvetica,sans-Serif" font-size="10.00">pocketmine\math\Vector3</text>
<text text-anchor="start" x="105" y="-1271.5" font-family="Helvetica,sans-Serif" font-size="10.00"> </text>
<text text-anchor="start" x="49" y="-1256.5" font-family="Helvetica,sans-Serif" font-size="10.00">+</text>
<text text-anchor="start" x="68" y="-1256.5" font-family="Helvetica,sans-Serif" font-size="10.00">__construct()</text>
<text text-anchor="start" x="49" y="-1241.5" font-family="Helvetica,sans-Serif" font-size="10.00">+</text>
<text text-anchor="start" x="68" y="-1241.5" font-family="Helvetica,sans-Serif" font-size="10.00">__toString()</text>
<text text-anchor="start" x="49" y="-1226.5" font-family="Helvetica,sans-Serif" font-size="10.00">+</text>
<text text-anchor="start" x="68" y="-1226.5" font-family="Helvetica,sans-Serif" font-size="10.00">abs()</text>
<text text-anchor="start" x="49" y="-1211.5" font-family="Helvetica,sans-Serif" font-size="10.00">+</text>
<text text-anchor="start" x="68" y="-1211.5" font-family="Helvetica,sans-Serif" font-size="10.00">add()</text>
<text text-anchor="start" x="49" y="-1196.5" font-family="Helvetica,sans-Serif" font-size="10.00">+</text>
<text text-anchor="start" x="68" y="-1196.5" font-family="Helvetica,sans-Serif" font-size="10.00">addVector()</text>
<text text-anchor="start" x="49" y="-1181.5" font-family="Helvetica,sans-Serif" font-size="10.00">+</text>
<text text-anchor="start" x="68" y="-1181.5" font-family="Helvetica,sans-Serif" font-size="10.00">asVector3()</text>
<text text-anchor="start" x="49" y="-1166.5" font-family="Helvetica,sans-Serif" font-size="10.00">+</text>
<text text-anchor="start" x="68" y="-1166.5" font-family="Helvetica,sans-Serif" font-size="10.00">ceil()</text>
<text text-anchor="start" x="49" y="-1151.5" font-family="Helvetica,sans-Serif" font-size="10.00">+</text>
<text text-anchor="start" x="68" y="-1151.5" font-family="Helvetica,sans-Serif" font-size="10.00">cross()</text>
<text text-anchor="start" x="49" y="-1136.5" font-family="Helvetica,sans-Serif" font-size="10.00">+</text>
<text text-anchor="start" x="68" y="-1136.5" font-family="Helvetica,sans-Serif" font-size="10.00">distance()</text>
<text text-anchor="start" x="49" y="-1121.5" font-family="Helvetica,sans-Serif" font-size="10.00">+</text>
<text text-anchor="start" x="68" y="-1121.5" font-family="Helvetica,sans-Serif" font-size="10.00">distanceSquared()</text>
<text text-anchor="start" x="68" y="-1106.5" font-family="Helvetica,sans-Serif" font-size="10.00">and 31 more...</text>
<text text-anchor="start" x="49" y="-1091.5" font-family="Helvetica,sans-Serif" font-size="10.00">+</text>
<text text-anchor="start" x="68" y="-1091.5" font-family="Helvetica,sans-Serif" font-size="10.00">maxComponents()</text>
<text text-anchor="start" x="49" y="-1076.5" font-family="Helvetica,sans-Serif" font-size="10.00">+</text>
<text text-anchor="start" x="68" y="-1076.5" font-family="Helvetica,sans-Serif" font-size="10.00">minComponents()</text>
<text text-anchor="start" x="49" y="-1061.5" font-family="Helvetica,sans-Serif" font-size="10.00">+</text>
<text text-anchor="start" x="68" y="-1061.5" font-family="Helvetica,sans-Serif" font-size="10.00">sum()</text>
<text text-anchor="start" x="49" y="-1046.5" font-family="Helvetica,sans-Serif" font-size="10.00">+</text>
<text text-anchor="start" x="68" y="-1046.5" font-family="Helvetica,sans-Serif" font-size="10.00">zero()</text>
<polygon fill="#bfbfbf" stroke="#bfbfbf" points="39,-1281.5 39,-1281.5 175,-1281.5 175,-1281.5 39,-1281.5"/>
<polygon fill="#bfbfbf" stroke="#bfbfbf" points="39,-1266.5 39,-1266.5 175,-1266.5 175,-1266.5 39,-1266.5"/>
<polygon fill="none" stroke="#bfbfbf" points="39,-1040 39,-1299 175,-1299 175,-1040 39,-1040"/>
</a>
</g>
</g>
<!-- Node5&#45;&gt;Node4 -->
<g id="edge4_Node000004_Node000005" class="edge">
<title>Node5&#45;&gt;Node4</title>
<g id="a_edge4_Node000004_Node000005"><a xlink:title=" ">
<path fill="none" stroke="#63b8ff" d="M144.93,-1030.22C155.74,-998.77 168.8,-966.09 184,-937 192.28,-921.17 202.52,-905.19 213.14,-890.24"/>
<polygon fill="none" stroke="#63b8ff" points="141.53,-1029.33 141.65,-1039.93 148.16,-1031.58 141.53,-1029.33"/>
</a>
</g>
</g>
<!-- Node6 -->
<g id="Node000006" class="node">
<title>Node6</title>
<g id="a_Node000006"><a xlink:href="../../d4/d2b/classpocketmine_1_1world_1_1_world.html" target="_top" xlink:title=" ">
<polygon fill="white" stroke="transparent" points="359,-1402 193,-1402 193,-937 359,-937 359,-1402"/>
<text text-anchor="start" x="217" y="-1389.5" font-family="Helvetica,sans-Serif" font-size="10.00">pocketmine\world\World</text>
<text text-anchor="start" x="197" y="-1374.5" font-family="Helvetica,sans-Serif" font-size="10.00">+</text>
<text text-anchor="start" x="210" y="-1374.5" font-family="Helvetica,sans-Serif" font-size="10.00">$stopTime</text>
<text text-anchor="start" x="197" y="-1359.5" font-family="Helvetica,sans-Serif" font-size="10.00">+</text>
<text text-anchor="start" x="210" y="-1359.5" font-family="Helvetica,sans-Serif" font-size="10.00">$tickRateTime</text>
<text text-anchor="start" x="197" y="-1344.5" font-family="Helvetica,sans-Serif" font-size="10.00">+</text>
<text text-anchor="start" x="210" y="-1344.5" font-family="Helvetica,sans-Serif" font-size="10.00">$updateEntities</text>
<text text-anchor="start" x="197" y="-1329.5" font-family="Helvetica,sans-Serif" font-size="10.00">+</text>
<text text-anchor="start" x="210" y="-1329.5" font-family="Helvetica,sans-Serif" font-size="10.00">DEFAULT_TICKED_BLOCKS</text>
<text text-anchor="start" x="210" y="-1318.5" font-family="Helvetica,sans-Serif" font-size="10.00">_PER_SUBCHUNK_PER_TICK</text>
<text text-anchor="start" x="197" y="-1303.5" font-family="Helvetica,sans-Serif" font-size="10.00">+</text>
<text text-anchor="start" x="210" y="-1303.5" font-family="Helvetica,sans-Serif" font-size="10.00">DIFFICULTY_EASY</text>
<text text-anchor="start" x="197" y="-1288.5" font-family="Helvetica,sans-Serif" font-size="10.00">+</text>
<text text-anchor="start" x="210" y="-1288.5" font-family="Helvetica,sans-Serif" font-size="10.00">DIFFICULTY_HARD</text>
<text text-anchor="start" x="197" y="-1273.5" font-family="Helvetica,sans-Serif" font-size="10.00">+</text>
<text text-anchor="start" x="210" y="-1273.5" font-family="Helvetica,sans-Serif" font-size="10.00">DIFFICULTY_NORMAL</text>
<text text-anchor="start" x="197" y="-1258.5" font-family="Helvetica,sans-Serif" font-size="10.00">+</text>
<text text-anchor="start" x="210" y="-1258.5" font-family="Helvetica,sans-Serif" font-size="10.00">DIFFICULTY_PEACEFUL</text>
<text text-anchor="start" x="197" y="-1243.5" font-family="Helvetica,sans-Serif" font-size="10.00">+</text>
<text text-anchor="start" x="210" y="-1243.5" font-family="Helvetica,sans-Serif" font-size="10.00">TIME_DAY</text>
<text text-anchor="start" x="197" y="-1228.5" font-family="Helvetica,sans-Serif" font-size="10.00">+</text>
<text text-anchor="start" x="210" y="-1228.5" font-family="Helvetica,sans-Serif" font-size="10.00">TIME_FULL</text>
<text text-anchor="start" x="210" y="-1213.5" font-family="Helvetica,sans-Serif" font-size="10.00">and 7 more...</text>
<text text-anchor="start" x="197" y="-1198.5" font-family="Helvetica,sans-Serif" font-size="10.00">+</text>
<text text-anchor="start" x="210" y="-1198.5" font-family="Helvetica,sans-Serif" font-size="10.00">__construct()</text>
<text text-anchor="start" x="197" y="-1183.5" font-family="Helvetica,sans-Serif" font-size="10.00">+</text>
<text text-anchor="start" x="210" y="-1183.5" font-family="Helvetica,sans-Serif" font-size="10.00">__debugInfo()</text>
<text text-anchor="start" x="197" y="-1168.5" font-family="Helvetica,sans-Serif" font-size="10.00">+</text>
<text text-anchor="start" x="210" y="-1168.5" font-family="Helvetica,sans-Serif" font-size="10.00">addEntity()</text>
<text text-anchor="start" x="197" y="-1153.5" font-family="Helvetica,sans-Serif" font-size="10.00">+</text>
<text text-anchor="start" x="210" y="-1153.5" font-family="Helvetica,sans-Serif" font-size="10.00">addOnUnloadCallback()</text>
<text text-anchor="start" x="197" y="-1138.5" font-family="Helvetica,sans-Serif" font-size="10.00">+</text>
<text text-anchor="start" x="210" y="-1138.5" font-family="Helvetica,sans-Serif" font-size="10.00">addParticle()</text>
<text text-anchor="start" x="197" y="-1123.5" font-family="Helvetica,sans-Serif" font-size="10.00">+</text>
<text text-anchor="start" x="210" y="-1123.5" font-family="Helvetica,sans-Serif" font-size="10.00">addRandomTickedBlock()</text>
<text text-anchor="start" x="197" y="-1108.5" font-family="Helvetica,sans-Serif" font-size="10.00">+</text>
<text text-anchor="start" x="210" y="-1108.5" font-family="Helvetica,sans-Serif" font-size="10.00">addSound()</text>
<text text-anchor="start" x="197" y="-1093.5" font-family="Helvetica,sans-Serif" font-size="10.00">+</text>
<text text-anchor="start" x="210" y="-1093.5" font-family="Helvetica,sans-Serif" font-size="10.00">addTile()</text>
<text text-anchor="start" x="197" y="-1078.5" font-family="Helvetica,sans-Serif" font-size="10.00">+</text>
<text text-anchor="start" x="210" y="-1078.5" font-family="Helvetica,sans-Serif" font-size="10.00">broadcastPacketToViewers()</text>
<text text-anchor="start" x="197" y="-1063.5" font-family="Helvetica,sans-Serif" font-size="10.00">+</text>
<text text-anchor="start" x="210" y="-1063.5" font-family="Helvetica,sans-Serif" font-size="10.00">cancelUnloadChunkRequest()</text>
<text text-anchor="start" x="210" y="-1048.5" font-family="Helvetica,sans-Serif" font-size="10.00">and 121 more...</text>
<text text-anchor="start" x="197" y="-1033.5" font-family="Helvetica,sans-Serif" font-size="10.00">+</text>
<text text-anchor="start" x="210" y="-1033.5" font-family="Helvetica,sans-Serif" font-size="10.00">blockHash()</text>
<text text-anchor="start" x="197" y="-1018.5" font-family="Helvetica,sans-Serif" font-size="10.00">+</text>
<text text-anchor="start" x="210" y="-1018.5" font-family="Helvetica,sans-Serif" font-size="10.00">chunkBlockHash()</text>
<text text-anchor="start" x="197" y="-1003.5" font-family="Helvetica,sans-Serif" font-size="10.00">+</text>
<text text-anchor="start" x="210" y="-1003.5" font-family="Helvetica,sans-Serif" font-size="10.00">chunkHash()</text>
<text text-anchor="start" x="197" y="-988.5" font-family="Helvetica,sans-Serif" font-size="10.00">+</text>
<text text-anchor="start" x="210" y="-988.5" font-family="Helvetica,sans-Serif" font-size="10.00">getBlockXYZ()</text>
<text text-anchor="start" x="197" y="-973.5" font-family="Helvetica,sans-Serif" font-size="10.00">+</text>
<text text-anchor="start" x="210" y="-973.5" font-family="Helvetica,sans-Serif" font-size="10.00">getDifficultyFromString()</text>
<text text-anchor="start" x="197" y="-958.5" font-family="Helvetica,sans-Serif" font-size="10.00">+</text>
<text text-anchor="start" x="210" y="-958.5" font-family="Helvetica,sans-Serif" font-size="10.00">getXZ()</text>
<text text-anchor="start" x="197" y="-943.5" font-family="Helvetica,sans-Serif" font-size="10.00">#</text>
<text text-anchor="start" x="210" y="-943.5" font-family="Helvetica,sans-Serif" font-size="10.00">actuallyDoTick()</text>
<polygon fill="#666666" stroke="#666666" points="193,-1384.5 193,-1384.5 359,-1384.5 359,-1384.5 193,-1384.5"/>
<polygon fill="#666666" stroke="#666666" points="193,-1208.5 193,-1208.5 208,-1208.5 208,-1208.5 193,-1208.5"/>
<polygon fill="#666666" stroke="#666666" points="208,-1208.5 208,-1208.5 359,-1208.5 359,-1208.5 208,-1208.5"/>
<polygon fill="none" stroke="#666666" points="193,-937 193,-1402 359,-1402 359,-937 193,-937"/>
</a>
</g>
</g>
<!-- Node6&#45;&gt;Node4 -->
<g id="edge5_Node000004_Node000006" class="edge">
<title>Node6&#45;&gt;Node4</title>
<g id="a_edge5_Node000004_Node000006"><a xlink:title=" ">
<path fill="none" stroke="#63b8ff" d="M276,-936.99C276,-924.96 276,-913.31 276,-902.27"/>
<polygon fill="none" stroke="#63b8ff" points="276,-902.09 272,-896.09 276,-890.09 280,-896.09 276,-902.09"/>
</a>
</g>
<text text-anchor="middle" x="298.5" y="-911" font-family="Helvetica,sans-Serif" font-size="10.00" fill="grey"> +$world</text>
</g>
<!-- Node7 -->
<g id="Node000007" class="node">
<title>Node7</title>
<g id="a_Node000007"><a xlink:href="../../d0/d03/interfacepocketmine_1_1world_1_1_chunk_manager.html" target="_top" xlink:title=" ">
<polygon fill="white" stroke="transparent" points="174,-1644 0,-1644 0,-1505 174,-1505 174,-1644"/>
<text text-anchor="start" x="5" y="-1631.5" font-family="Helvetica,sans-Serif" font-size="10.00">pocketmine\world\ChunkManager</text>
<text text-anchor="start" x="85" y="-1616.5" font-family="Helvetica,sans-Serif" font-size="10.00"> </text>
<text text-anchor="start" x="27" y="-1601.5" font-family="Helvetica,sans-Serif" font-size="10.00">+</text>
<text text-anchor="start" x="63" y="-1601.5" font-family="Helvetica,sans-Serif" font-size="10.00">getBlockAt()</text>
<text text-anchor="start" x="27" y="-1586.5" font-family="Helvetica,sans-Serif" font-size="10.00">+</text>
<text text-anchor="start" x="63" y="-1586.5" font-family="Helvetica,sans-Serif" font-size="10.00">getChunk()</text>
<text text-anchor="start" x="27" y="-1571.5" font-family="Helvetica,sans-Serif" font-size="10.00">+</text>
<text text-anchor="start" x="63" y="-1571.5" font-family="Helvetica,sans-Serif" font-size="10.00">getMaxY()</text>
<text text-anchor="start" x="27" y="-1556.5" font-family="Helvetica,sans-Serif" font-size="10.00">+</text>
<text text-anchor="start" x="63" y="-1556.5" font-family="Helvetica,sans-Serif" font-size="10.00">getMinY()</text>
<text text-anchor="start" x="27" y="-1541.5" font-family="Helvetica,sans-Serif" font-size="10.00">+</text>
<text text-anchor="start" x="63" y="-1541.5" font-family="Helvetica,sans-Serif" font-size="10.00">isInWorld()</text>
<text text-anchor="start" x="27" y="-1526.5" font-family="Helvetica,sans-Serif" font-size="10.00">+</text>
<text text-anchor="start" x="63" y="-1526.5" font-family="Helvetica,sans-Serif" font-size="10.00">setBlockAt()</text>
<text text-anchor="start" x="27" y="-1511.5" font-family="Helvetica,sans-Serif" font-size="10.00">+</text>
<text text-anchor="start" x="63" y="-1511.5" font-family="Helvetica,sans-Serif" font-size="10.00">setChunk()</text>
<polygon fill="#bfbfbf" stroke="#bfbfbf" points="0,-1626.5 0,-1626.5 174,-1626.5 174,-1626.5 0,-1626.5"/>
<polygon fill="#bfbfbf" stroke="#bfbfbf" points="0,-1611.5 0,-1611.5 174,-1611.5 174,-1611.5 0,-1611.5"/>
<polygon fill="none" stroke="#bfbfbf" points="0,-1505 0,-1644 174,-1644 174,-1505 0,-1505"/>
</a>
</g>
</g>
<!-- Node7&#45;&gt;Node6 -->
<g id="edge6_Node000006_Node000007" class="edge">
<title>Node7&#45;&gt;Node6</title>
<g id="a_edge6_Node000006_Node000007"><a xlink:title=" ">
<path fill="none" stroke="#63b8ff" d="M133.74,-1496.11C150.49,-1467.06 168.94,-1433.46 184,-1402 186.99,-1395.76 189.96,-1389.39 192.91,-1382.94"/>
<polygon fill="none" stroke="#63b8ff" points="130.59,-1494.56 128.6,-1504.97 136.65,-1498.07 130.59,-1494.56"/>
</a>
</g>
</g>
<!-- Node8 -->
<g id="Node000008" class="node">
<title>Node8</title>
<g id="a_Node000008"><a xlink:href="../../d7/d08/classpocketmine_1_1world_1_1_world_timings.html" target="_top" xlink:title=" ">
<polygon fill="white" stroke="transparent" points="359.5,-1700 192.5,-1700 192.5,-1449 359.5,-1449 359.5,-1700"/>
<text text-anchor="start" x="198" y="-1687.5" font-family="Helvetica,sans-Serif" font-size="10.00">pocketmine\world\WorldTimings</text>
<text text-anchor="start" x="197" y="-1672.5" font-family="Helvetica,sans-Serif" font-size="10.00">+</text>
<text text-anchor="start" x="210" y="-1672.5" font-family="Helvetica,sans-Serif" font-size="10.00">$randomChunkUpdatesChunk</text>
<text text-anchor="start" x="210" y="-1661.5" font-family="Helvetica,sans-Serif" font-size="10.00">Selection</text>
<text text-anchor="start" x="197" y="-1646.5" font-family="Helvetica,sans-Serif" font-size="10.00">+</text>
<text text-anchor="start" x="210" y="-1646.5" font-family="Helvetica,sans-Serif" font-size="10.00">$scheduledBlockUpdates</text>
<text text-anchor="start" x="197" y="-1631.5" font-family="Helvetica,sans-Serif" font-size="10.00">+</text>
<text text-anchor="start" x="210" y="-1631.5" font-family="Helvetica,sans-Serif" font-size="10.00">$setBlock</text>
<text text-anchor="start" x="197" y="-1616.5" font-family="Helvetica,sans-Serif" font-size="10.00">+</text>
<text text-anchor="start" x="210" y="-1616.5" font-family="Helvetica,sans-Serif" font-size="10.00">$syncChunkLoad</text>
<text text-anchor="start" x="197" y="-1601.5" font-family="Helvetica,sans-Serif" font-size="10.00">+</text>
<text text-anchor="start" x="210" y="-1601.5" font-family="Helvetica,sans-Serif" font-size="10.00">$syncChunkLoadData</text>
<text text-anchor="start" x="197" y="-1586.5" font-family="Helvetica,sans-Serif" font-size="10.00">+</text>
<text text-anchor="start" x="210" y="-1586.5" font-family="Helvetica,sans-Serif" font-size="10.00">$syncChunkLoadEntities</text>
<text text-anchor="start" x="197" y="-1571.5" font-family="Helvetica,sans-Serif" font-size="10.00">+</text>
<text text-anchor="start" x="210" y="-1571.5" font-family="Helvetica,sans-Serif" font-size="10.00">$syncChunkLoadFixInvalid</text>
<text text-anchor="start" x="210" y="-1560.5" font-family="Helvetica,sans-Serif" font-size="10.00">Blocks</text>
<text text-anchor="start" x="197" y="-1545.5" font-family="Helvetica,sans-Serif" font-size="10.00">+</text>
<text text-anchor="start" x="210" y="-1545.5" font-family="Helvetica,sans-Serif" font-size="10.00">$syncChunkLoadTileEntities</text>
<text text-anchor="start" x="197" y="-1530.5" font-family="Helvetica,sans-Serif" font-size="10.00">+</text>
<text text-anchor="start" x="210" y="-1530.5" font-family="Helvetica,sans-Serif" font-size="10.00">$syncChunkSave</text>
<text text-anchor="start" x="197" y="-1515.5" font-family="Helvetica,sans-Serif" font-size="10.00">+</text>
<text text-anchor="start" x="210" y="-1515.5" font-family="Helvetica,sans-Serif" font-size="10.00">$syncChunkSend</text>
<text text-anchor="start" x="197" y="-1500.5" font-family="Helvetica,sans-Serif" font-size="10.00">+</text>
<text text-anchor="start" x="210" y="-1500.5" font-family="Helvetica,sans-Serif" font-size="10.00">$syncChunkSendPrepare</text>
<text text-anchor="start" x="197" y="-1485.5" font-family="Helvetica,sans-Serif" font-size="10.00">+</text>
<text text-anchor="start" x="210" y="-1485.5" font-family="Helvetica,sans-Serif" font-size="10.00">$syncDataSave</text>
<text text-anchor="start" x="197" y="-1470.5" font-family="Helvetica,sans-Serif" font-size="10.00">+</text>
<text text-anchor="start" x="210" y="-1470.5" font-family="Helvetica,sans-Serif" font-size="10.00">$tileTick</text>
<text text-anchor="start" x="197" y="-1455.5" font-family="Helvetica,sans-Serif" font-size="10.00">+</text>
<text text-anchor="start" x="210" y="-1455.5" font-family="Helvetica,sans-Serif" font-size="10.00">__construct()</text>
<polygon fill="#bfbfbf" stroke="#bfbfbf" points="193,-1682.5 193,-1682.5 360,-1682.5 360,-1682.5 193,-1682.5"/>
<polygon fill="#bfbfbf" stroke="#bfbfbf" points="193,-1465.5 193,-1465.5 208,-1465.5 208,-1465.5 193,-1465.5"/>
<polygon fill="#bfbfbf" stroke="#bfbfbf" points="208,-1465.5 208,-1465.5 360,-1465.5 360,-1465.5 208,-1465.5"/>
<polygon fill="none" stroke="#bfbfbf" points="192.5,-1449 192.5,-1700 359.5,-1700 359.5,-1449 192.5,-1449"/>
</a>
</g>
</g>
<!-- Node8&#45;&gt;Node6 -->
<g id="edge7_Node000006_Node000008" class="edge">
<title>Node8&#45;&gt;Node6</title>
<g id="a_edge7_Node000006_Node000008"><a xlink:title=" ">
<path fill="none" stroke="#63b8ff" d="M276,-1448.75C276,-1437.6 276,-1426.08 276,-1414.35"/>
<polygon fill="none" stroke="#63b8ff" points="276,-1414.07 272,-1408.07 276,-1402.07 280,-1408.07 276,-1414.07"/>
</a>
</g>
<text text-anchor="middle" x="303.5" y="-1423" font-family="Helvetica,sans-Serif" font-size="10.00" fill="grey"> +$timings</text>
</g>
<!-- Node9 -->
<g id="Node000009" class="node">
<title>Node9</title>
<g id="a_Node000009"><a xlink:href="../../d7/d9b/classpocketmine_1_1timings_1_1_timings_handler.html" target="_top" xlink:title=" ">
<polygon fill="white" stroke="transparent" points="417,-2157 257,-2157 257,-1857 417,-1857 417,-2157"/>
<text text-anchor="start" x="288.5" y="-2145" font-family="Helvetica,sans-Serif" font-size="10.00">pocketmine\timings</text>
<text text-anchor="start" x="296.5" y="-2134" font-family="Helvetica,sans-Serif" font-size="10.00">\TimingsHandler</text>
<text text-anchor="start" x="335" y="-2119" font-family="Helvetica,sans-Serif" font-size="10.00"> </text>
<text text-anchor="start" x="261" y="-2104" font-family="Helvetica,sans-Serif" font-size="10.00">+</text>
<text text-anchor="start" x="274" y="-2104" font-family="Helvetica,sans-Serif" font-size="10.00">__construct()</text>
<text text-anchor="start" x="261" y="-2089" font-family="Helvetica,sans-Serif" font-size="10.00">+</text>
<text text-anchor="start" x="274" y="-2089" font-family="Helvetica,sans-Serif" font-size="10.00">getGroup()</text>
<text text-anchor="start" x="261" y="-2074" font-family="Helvetica,sans-Serif" font-size="10.00">+</text>
<text text-anchor="start" x="274" y="-2074" font-family="Helvetica,sans-Serif" font-size="10.00">getName()</text>
<text text-anchor="start" x="261" y="-2059" font-family="Helvetica,sans-Serif" font-size="10.00">+</text>
<text text-anchor="start" x="274" y="-2059" font-family="Helvetica,sans-Serif" font-size="10.00">reset()</text>
<text text-anchor="start" x="261" y="-2044" font-family="Helvetica,sans-Serif" font-size="10.00">+</text>
<text text-anchor="start" x="274" y="-2044" font-family="Helvetica,sans-Serif" font-size="10.00">startTiming()</text>
<text text-anchor="start" x="261" y="-2029" font-family="Helvetica,sans-Serif" font-size="10.00">+</text>
<text text-anchor="start" x="274" y="-2029" font-family="Helvetica,sans-Serif" font-size="10.00">stopTiming()</text>
<text text-anchor="start" x="261" y="-2014" font-family="Helvetica,sans-Serif" font-size="10.00">+</text>
<text text-anchor="start" x="274" y="-2014" font-family="Helvetica,sans-Serif" font-size="10.00">time()</text>
<text text-anchor="start" x="261" y="-1999" font-family="Helvetica,sans-Serif" font-size="10.00">+</text>
<text text-anchor="start" x="274" y="-1999" font-family="Helvetica,sans-Serif" font-size="10.00">getCollectCallbacks()</text>
<text text-anchor="start" x="261" y="-1984" font-family="Helvetica,sans-Serif" font-size="10.00">+</text>
<text text-anchor="start" x="274" y="-1984" font-family="Helvetica,sans-Serif" font-size="10.00">getReloadCallbacks()</text>
<text text-anchor="start" x="261" y="-1969" font-family="Helvetica,sans-Serif" font-size="10.00">+</text>
<text text-anchor="start" x="274" y="-1969" font-family="Helvetica,sans-Serif" font-size="10.00">getStartTime()</text>
<text text-anchor="start" x="261" y="-1954" font-family="Helvetica,sans-Serif" font-size="10.00">+</text>
<text text-anchor="start" x="274" y="-1954" font-family="Helvetica,sans-Serif" font-size="10.00">getToggleCallbacks()</text>
<text text-anchor="start" x="261" y="-1939" font-family="Helvetica,sans-Serif" font-size="10.00">+</text>
<text text-anchor="start" x="274" y="-1939" font-family="Helvetica,sans-Serif" font-size="10.00">isEnabled()</text>
<text text-anchor="start" x="261" y="-1924" font-family="Helvetica,sans-Serif" font-size="10.00">+</text>
<text text-anchor="start" x="274" y="-1924" font-family="Helvetica,sans-Serif" font-size="10.00">printCurrentThreadRecords()</text>
<text text-anchor="start" x="261" y="-1909" font-family="Helvetica,sans-Serif" font-size="10.00">+</text>
<text text-anchor="start" x="274" y="-1909" font-family="Helvetica,sans-Serif" font-size="10.00">reload()</text>
<text text-anchor="start" x="261" y="-1894" font-family="Helvetica,sans-Serif" font-size="10.00">+</text>
<text text-anchor="start" x="274" y="-1894" font-family="Helvetica,sans-Serif" font-size="10.00">requestPrintTimings()</text>
<text text-anchor="start" x="261" y="-1879" font-family="Helvetica,sans-Serif" font-size="10.00">+</text>
<text text-anchor="start" x="274" y="-1879" font-family="Helvetica,sans-Serif" font-size="10.00">setEnabled()</text>
<text text-anchor="start" x="261" y="-1864" font-family="Helvetica,sans-Serif" font-size="10.00">+</text>
<text text-anchor="start" x="274" y="-1864" font-family="Helvetica,sans-Serif" font-size="10.00">tick()</text>
<polygon fill="#666666" stroke="#666666" points="257,-2129 257,-2129 417,-2129 417,-2129 257,-2129"/>
<polygon fill="#666666" stroke="#666666" points="257,-2114 257,-2114 417,-2114 417,-2114 257,-2114"/>
<polygon fill="none" stroke="#666666" points="257,-1857 257,-2157 417,-2157 417,-1857 257,-1857"/>
</a>
</g>
</g>
<!-- Node9&#45;&gt;Node3 -->
<g id="edge9_Node000003_Node000009" class="edge">
<title>Node9&#45;&gt;Node3</title>
<g id="a_edge9_Node000003_Node000009"><a xlink:title=" ">
<path fill="none" stroke="#63b8ff" d="M403.41,-1856.62C405.11,-1850.72 406.65,-1844.83 408,-1839 434.46,-1724.75 422,-1692.78 422,-1575.5 422,-1575.5 422,-1575.5 422,-812 422,-775.08 414.5,-736.59 403.96,-700.71"/>
<polygon fill="none" stroke="#63b8ff" points="403.94,-700.64 398.37,-696.06 400.44,-689.16 406.02,-693.73 403.94,-700.64"/>
</a>
</g>
<text text-anchor="middle" x="449.5" y="-1167" font-family="Helvetica,sans-Serif" font-size="10.00" fill="grey"> #$timings</text>
</g>
<!-- Node9&#45;&gt;Node8 -->
<g id="edge8_Node000008_Node000009" class="edge">
<title>Node9&#45;&gt;Node8</title>
<g id="a_edge8_Node000008_Node000009"><a xlink:title=" ">
<path fill="none" stroke="#63b8ff" d="M257.83,-1856.57C256.01,-1850.71 254.39,-1844.84 253,-1839 243.35,-1798.33 243.47,-1753.28 247.63,-1712.09"/>
<polygon fill="none" stroke="#63b8ff" points="247.65,-1711.94 244.33,-1705.54 248.97,-1700.02 252.29,-1706.42 247.65,-1711.94"/>
</a>
</g>
<text text-anchor="middle" x="330.5" y="-1831" font-family="Helvetica,sans-Serif" font-size="10.00" fill="grey"> +$chunkPopulationCompletion</text>
<text text-anchor="middle" x="330.5" y="-1820" font-family="Helvetica,sans-Serif" font-size="10.00" fill="grey">+$chunkPopulationOrder</text>
<text text-anchor="middle" x="330.5" y="-1809" font-family="Helvetica,sans-Serif" font-size="10.00" fill="grey">+$doBlockLightUpdates</text>
<text text-anchor="middle" x="330.5" y="-1798" font-family="Helvetica,sans-Serif" font-size="10.00" fill="grey">+$doBlockSkyLightUpdates</text>
<text text-anchor="middle" x="330.5" y="-1787" font-family="Helvetica,sans-Serif" font-size="10.00" fill="grey">+$doChunkGC</text>
<text text-anchor="middle" x="330.5" y="-1776" font-family="Helvetica,sans-Serif" font-size="10.00" fill="grey">+$doChunkUnload</text>
<text text-anchor="middle" x="330.5" y="-1765" font-family="Helvetica,sans-Serif" font-size="10.00" fill="grey">+$doTick</text>
<text text-anchor="middle" x="330.5" y="-1754" font-family="Helvetica,sans-Serif" font-size="10.00" fill="grey">+$entityTick</text>
<text text-anchor="middle" x="330.5" y="-1743" font-family="Helvetica,sans-Serif" font-size="10.00" fill="grey">+$neighbourBlockUpdates</text>
<text text-anchor="middle" x="330.5" y="-1732" font-family="Helvetica,sans-Serif" font-size="10.00" fill="grey">+$randomChunkUpdates</text>
<text text-anchor="middle" x="330.5" y="-1721" font-family="Helvetica,sans-Serif" font-size="10.00" fill="grey">...</text>
</g>
</g>
</svg>

<g id="navigator" transform="translate(0 0)" fill="#404254">
  <rect fill="#f2f5e9" fill-opacity="0.5" stroke="#606060" stroke-width=".5" x="0" y="0" width="60" height="60"/>
  <use id="zoomplus" xlink:href="#zoomPlus" x="17" y="9" onmousedown="handleZoom(evt,'in')"/>
  <use id="zoomminus" xlink:href="#zoomMin" x="42" y="9" onmousedown="handleZoom(evt,'out')"/>
  <use id="reset" xlink:href="#resetDef" x="30" y="36" onmousedown="handleReset()"/>
   <use id="arrowup" xlink:href="#arrowUp" x="0" y="0" onmousedown="handlePan(0,-1)"/>
  <use id="arrowright" xlink:href="#arrowRight" x="0" y="0" onmousedown="handlePan(1,0)"/>
  <use id="arrowdown" xlink:href="#arrowDown" x="0" y="0" onmousedown="handlePan(0,1)"/>
  <use id="arrowleft" xlink:href="#arrowLeft" x="0" y="0" onmousedown="handlePan(-1,0)"/>
</g>
<svg viewBox="0 0 15 15" width="100%" height="30px" preserveAspectRatio="xMaxYMin meet">
 <g id="arrow_out" transform="scale(0.3 0.3)">
  <a xlink:href="classpocketmine_1_1block_1_1tile_1_1_lectern__coll__graph_org.svg" target="_base">
   <rect id="button" ry="5" rx="5" y="6" x="6" height="38" width="38"
        fill="#f2f5e9" fill-opacity="0.5" stroke="#606060" stroke-width="1.0"/>
   <path id="arrow"
     d="M 11.500037,31.436501 C 11.940474,20.09759 22.043105,11.32322 32.158766,21.979434 L 37.068811,17.246167 C 37.068811,17.246167 37.088388,32 37.088388,32 L 22.160133,31.978069 C 22.160133,31.978069 26.997745,27.140456 26.997745,27.140456 C 18.528582,18.264221 13.291696,25.230495 11.500037,31.436501 z"
     style="fill:#404040;"/>
  </a>
 </g>
</svg>

<style type='text/css'>
<![CDATA[
[data-mouse-over-selected='false'] { opacity: 0.7; }
[data-mouse-over-selected='true']  { opacity: 1.0; }
]]>
</style>
<script type="application/ecmascript"><![CDATA[
document.addEventListener('DOMContentLoaded', (event) => {
  highlightEdges();
  highlightAdjacentNodes();
});
]]></script>
</svg>
