<?xml version="1.0" encoding="UTF-8" standalone="no"?>
<!DOCTYPE svg PUBLIC "-//W3C//DTD SVG 1.1//EN"
 "http://www.w3.org/Graphics/SVG/1.1/DTD/svg11.dtd">
<!-- Generated by graphviz version 2.43.0 (0)
 -->
<!-- Title: pocketmine\network\mcpe\protocol\types\shape\PrimitiveShapeBoxPayload Pages: 1 -->
<svg width="185pt" height="246pt"
 viewBox="0.00 0.00 185.00 246.00" xmlns="http://www.w3.org/2000/svg" xmlns:xlink="http://www.w3.org/1999/xlink">
<g id="graph0" class="graph" transform="scale(1 1) rotate(0) translate(4 242)">
<title>pocketmine\network\mcpe\protocol\types\shape\PrimitiveShapeBoxPayload</title>
<!-- Node1 -->
<g id="Node000001" class="node">
<title>Node1</title>
<g id="a_Node000001"><a xlink:title=" ">
<polygon fill="#999999" stroke="transparent" points="177,-116 0,-116 0,0 177,0 177,-116"/>
<text text-anchor="start" x="5.5" y="-104" font-family="Helvetica,sans-Serif" font-size="10.00">pocketmine\network</text>
<text text-anchor="start" x="5.5" y="-93" font-family="Helvetica,sans-Serif" font-size="10.00">\mcpe\protocol\types</text>
<text text-anchor="start" x="5.5" y="-82" font-family="Helvetica,sans-Serif" font-size="10.00">\shape\PrimitiveShapeBoxPayload</text>
<text text-anchor="start" x="25" y="-67" font-family="Helvetica,sans-Serif" font-size="10.00">+</text>
<text text-anchor="start" x="58.5" y="-67" font-family="Helvetica,sans-Serif" font-size="10.00">ID</text>
<text text-anchor="start" x="25" y="-52" font-family="Helvetica,sans-Serif" font-size="10.00">+</text>
<text text-anchor="start" x="58.5" y="-52" font-family="Helvetica,sans-Serif" font-size="10.00">__construct()</text>
<text text-anchor="start" x="25" y="-37" font-family="Helvetica,sans-Serif" font-size="10.00">+</text>
<text text-anchor="start" x="58.5" y="-37" font-family="Helvetica,sans-Serif" font-size="10.00">getBoxBound()</text>
<text text-anchor="start" x="25" y="-22" font-family="Helvetica,sans-Serif" font-size="10.00">+</text>
<text text-anchor="start" x="58.5" y="-22" font-family="Helvetica,sans-Serif" font-size="10.00">write()</text>
<text text-anchor="start" x="25" y="-7" font-family="Helvetica,sans-Serif" font-size="10.00">+</text>
<text text-anchor="start" x="58.5" y="-7" font-family="Helvetica,sans-Serif" font-size="10.00">read()</text>
<polygon fill="#666666" stroke="#666666" points="0.5,-77 0.5,-77 177.5,-77 177.5,-77 0.5,-77"/>
<polygon fill="#666666" stroke="#666666" points="0.5,-62 0.5,-62 56.5,-62 56.5,-62 0.5,-62"/>
<polygon fill="#666666" stroke="#666666" points="56.5,-62 56.5,-62 177.5,-62 177.5,-62 56.5,-62"/>
<polygon fill="none" stroke="#666666" points="0,0 0,-116 177,-116 177,0 0,0"/>
</a>
</g>
</g>
<!-- Node2 -->
<g id="Node000002" class="node">
<title>Node2</title>
<g id="a_Node000002"><a xlink:href="../../d3/d36/classpocketmine_1_1network_1_1mcpe_1_1protocol_1_1types_1_1shape_1_1_primitive_shape_payload.html" target="_top" xlink:title=" ">
<polygon fill="white" stroke="transparent" points="167.5,-238 9.5,-238 9.5,-152 167.5,-152 167.5,-238"/>
<text text-anchor="start" x="14.5" y="-226" font-family="Helvetica,sans-Serif" font-size="10.00">pocketmine\network</text>
<text text-anchor="start" x="14.5" y="-215" font-family="Helvetica,sans-Serif" font-size="10.00">\mcpe\protocol\types</text>
<text text-anchor="start" x="14.5" y="-204" font-family="Helvetica,sans-Serif" font-size="10.00">\shape\PrimitiveShapePayload</text>
<text text-anchor="start" x="86.5" y="-189" font-family="Helvetica,sans-Serif" font-size="10.00"> </text>
<text text-anchor="start" x="34" y="-174" font-family="Helvetica,sans-Serif" font-size="10.00">+</text>
<text text-anchor="start" x="67.5" y="-174" font-family="Helvetica,sans-Serif" font-size="10.00">getTypeId()</text>
<text text-anchor="start" x="34" y="-159" font-family="Helvetica,sans-Serif" font-size="10.00">+</text>
<text text-anchor="start" x="67.5" y="-159" font-family="Helvetica,sans-Serif" font-size="10.00">write()</text>
<polygon fill="#666666" stroke="#666666" points="9.5,-199 9.5,-199 167.5,-199 167.5,-199 9.5,-199"/>
<polygon fill="#666666" stroke="#666666" points="9.5,-184 9.5,-184 167.5,-184 167.5,-184 9.5,-184"/>
<polygon fill="none" stroke="#666666" points="9.5,-152 9.5,-238 167.5,-238 167.5,-152 9.5,-152"/>
</a>
</g>
</g>
<!-- Node2&#45;&gt;Node1 -->
<g id="edge1_Node000001_Node000002" class="edge">
<title>Node2&#45;&gt;Node1</title>
<g id="a_edge1_Node000001_Node000002"><a xlink:title=" ">
<path fill="none" stroke="#63b8ff" d="M88.5,-141.63C88.5,-133.24 88.5,-124.53 88.5,-116.04"/>
<polygon fill="none" stroke="#63b8ff" points="85,-141.66 88.5,-151.66 92,-141.66 85,-141.66"/>
</a>
</g>
</g>
</g>
</svg>
