<?xml version="1.0" encoding="UTF-8" standalone="no"?>
<!DOCTYPE svg PUBLIC "-//W3C//DTD SVG 1.1//EN"
 "http://www.w3.org/Graphics/SVG/1.1/DTD/svg11.dtd">
<!-- Generated by graphviz version 2.43.0 (0)
 -->
<!-- Title: pocketmine\block\utils\Fallable Pages: 1 -->
<svg width="1039pt" height="325pt"
 viewBox="0.00 0.00 1039.00 325.00" xmlns="http://www.w3.org/2000/svg" xmlns:xlink="http://www.w3.org/1999/xlink">
<g id="graph0" class="graph" transform="scale(1 1) rotate(0) translate(4 321)">
<title>pocketmine\block\utils\Fallable</title>
<polygon fill="white" stroke="transparent" points="-4,4 -4,-321 1035,-321 1035,4 -4,4"/>
<!-- Node1 -->
<g id="node1" class="node">
<title>Node1</title>
<g id="a_node1"><a xlink:title=" ">
<polygon fill="#bfbfbf" stroke="black" points="454.5,-248.5 454.5,-316.5 581.5,-316.5 581.5,-248.5 454.5,-248.5"/>
<text text-anchor="start" x="462.5" y="-304.5" font-family="Helvetica,sans-Serif" font-size="10.00">pocketmine\block\utils</text>
<text text-anchor="middle" x="518" y="-293.5" font-family="Helvetica,sans-Serif" font-size="10.00">\Fallable</text>
<polyline fill="none" stroke="black" points="454.5,-286.5 581.5,-286.5 "/>
<text text-anchor="middle" x="518" y="-274.5" font-family="Helvetica,sans-Serif" font-size="10.00"> </text>
<polyline fill="none" stroke="black" points="454.5,-267.5 581.5,-267.5 "/>
<text text-anchor="start" x="462.5" y="-255.5" font-family="Helvetica,sans-Serif" font-size="10.00">+ tickFalling()</text>
</a>
</g>
</g>
<!-- Node2 -->
<g id="node2" class="node">
<title>Node2</title>
<g id="a_node2"><a xlink:href="../../df/d58/classpocketmine_1_1block_1_1_anvil.html" target="_top" xlink:title=" ">
<polygon fill="white" stroke="#bfbfbf" points="0,-0.5 0,-211.5 162,-211.5 162,-0.5 0,-0.5"/>
<text text-anchor="middle" x="81" y="-199.5" font-family="Helvetica,sans-Serif" font-size="10.00">pocketmine\block\Anvil</text>
<polyline fill="none" stroke="#bfbfbf" points="0,-192.5 162,-192.5 "/>
<text text-anchor="start" x="8" y="-180.5" font-family="Helvetica,sans-Serif" font-size="10.00">+ SLIGHTLY_DAMAGED</text>
<text text-anchor="start" x="8" y="-169.5" font-family="Helvetica,sans-Serif" font-size="10.00">+ UNDAMAGED</text>
<text text-anchor="start" x="8" y="-158.5" font-family="Helvetica,sans-Serif" font-size="10.00">+ VERY_DAMAGED</text>
<polyline fill="none" stroke="#bfbfbf" points="0,-151.5 162,-151.5 "/>
<text text-anchor="start" x="8" y="-139.5" font-family="Helvetica,sans-Serif" font-size="10.00">+ getDamage()</text>
<text text-anchor="start" x="8" y="-128.5" font-family="Helvetica,sans-Serif" font-size="10.00">+ getRequiredStateDataBits()</text>
<text text-anchor="start" x="8" y="-117.5" font-family="Helvetica,sans-Serif" font-size="10.00">+ getRequiredTypeDataBits()</text>
<text text-anchor="start" x="8" y="-106.5" font-family="Helvetica,sans-Serif" font-size="10.00">+ getSupportType()</text>
<text text-anchor="start" x="8" y="-95.5" font-family="Helvetica,sans-Serif" font-size="10.00">+ onInteract()</text>
<text text-anchor="start" x="8" y="-84.5" font-family="Helvetica,sans-Serif" font-size="10.00">+ place()</text>
<text text-anchor="start" x="8" y="-73.5" font-family="Helvetica,sans-Serif" font-size="10.00">+ setDamage()</text>
<text text-anchor="start" x="8" y="-62.5" font-family="Helvetica,sans-Serif" font-size="10.00">+ tickFalling()</text>
<text text-anchor="start" x="8" y="-51.5" font-family="Helvetica,sans-Serif" font-size="10.00"># decodeState()</text>
<text text-anchor="start" x="8" y="-40.5" font-family="Helvetica,sans-Serif" font-size="10.00"># decodeType()</text>
<text text-anchor="start" x="8" y="-29.5" font-family="Helvetica,sans-Serif" font-size="10.00"># encodeState()</text>
<text text-anchor="start" x="8" y="-18.5" font-family="Helvetica,sans-Serif" font-size="10.00"># encodeType()</text>
<text text-anchor="start" x="8" y="-7.5" font-family="Helvetica,sans-Serif" font-size="10.00"># recalculateCollisionBoxes()</text>
</a>
</g>
</g>
<!-- Node1&#45;&gt;Node2 -->
<g id="edge1" class="edge">
<title>Node1&#45;&gt;Node2</title>
<path fill="none" stroke="midnightblue" d="M444.29,-280.49C370.47,-276.45 255.93,-261.76 171,-212 168,-210.24 165.04,-208.34 162.15,-206.33"/>
<polygon fill="none" stroke="midnightblue" points="444.27,-283.99 454.43,-280.99 444.61,-277 444.27,-283.99"/>
</g>
<!-- Node3 -->
<g id="node3" class="node">
<title>Node3</title>
<g id="a_node3"><a xlink:href="../../d1/dda/classpocketmine_1_1block_1_1_concrete_powder.html" target="_top" xlink:title=" ">
<polygon fill="white" stroke="#bfbfbf" points="180.5,-61 180.5,-151 329.5,-151 329.5,-61 180.5,-61"/>
<text text-anchor="start" x="188.5" y="-139" font-family="Helvetica,sans-Serif" font-size="10.00">pocketmine\block\Concrete</text>
<text text-anchor="middle" x="255" y="-128" font-family="Helvetica,sans-Serif" font-size="10.00">Powder</text>
<polyline fill="none" stroke="#bfbfbf" points="180.5,-121 329.5,-121 "/>
<text text-anchor="middle" x="255" y="-109" font-family="Helvetica,sans-Serif" font-size="10.00"> </text>
<polyline fill="none" stroke="#bfbfbf" points="180.5,-102 329.5,-102 "/>
<text text-anchor="start" x="188.5" y="-90" font-family="Helvetica,sans-Serif" font-size="10.00">+ __construct()</text>
<text text-anchor="start" x="188.5" y="-79" font-family="Helvetica,sans-Serif" font-size="10.00">+ onNearbyBlockChange()</text>
<text text-anchor="start" x="188.5" y="-68" font-family="Helvetica,sans-Serif" font-size="10.00">+ tickFalling()</text>
</a>
</g>
</g>
<!-- Node1&#45;&gt;Node3 -->
<g id="edge2" class="edge">
<title>Node1&#45;&gt;Node3</title>
<path fill="none" stroke="midnightblue" d="M444.73,-262.98C410.17,-251.9 369.67,-235.35 338,-212 315.83,-195.66 296.41,-171.95 281.93,-151.19"/>
<polygon fill="none" stroke="midnightblue" points="443.72,-266.33 454.31,-265.96 445.8,-259.65 443.72,-266.33"/>
</g>
<!-- Node4 -->
<g id="node4" class="node">
<title>Node4</title>
<g id="a_node4"><a xlink:href="../../d1/d0d/classpocketmine_1_1block_1_1_dragon_egg.html" target="_top" xlink:title=" ">
<polygon fill="white" stroke="#bfbfbf" points="347.5,-50 347.5,-162 506.5,-162 506.5,-50 347.5,-50"/>
<text text-anchor="middle" x="427" y="-150" font-family="Helvetica,sans-Serif" font-size="10.00">pocketmine\block\DragonEgg</text>
<polyline fill="none" stroke="#bfbfbf" points="347.5,-143 506.5,-143 "/>
<text text-anchor="middle" x="427" y="-131" font-family="Helvetica,sans-Serif" font-size="10.00"> </text>
<polyline fill="none" stroke="#bfbfbf" points="347.5,-124 506.5,-124 "/>
<text text-anchor="start" x="355.5" y="-112" font-family="Helvetica,sans-Serif" font-size="10.00">+ getLightLevel()</text>
<text text-anchor="start" x="355.5" y="-101" font-family="Helvetica,sans-Serif" font-size="10.00">+ getSupportType()</text>
<text text-anchor="start" x="355.5" y="-90" font-family="Helvetica,sans-Serif" font-size="10.00">+ onAttack()</text>
<text text-anchor="start" x="355.5" y="-79" font-family="Helvetica,sans-Serif" font-size="10.00">+ onInteract()</text>
<text text-anchor="start" x="355.5" y="-68" font-family="Helvetica,sans-Serif" font-size="10.00">+ teleport()</text>
<text text-anchor="start" x="355.5" y="-57" font-family="Helvetica,sans-Serif" font-size="10.00">+ tickFalling()</text>
</a>
</g>
</g>
<!-- Node1&#45;&gt;Node4 -->
<g id="edge3" class="edge">
<title>Node1&#45;&gt;Node4</title>
<path fill="none" stroke="midnightblue" d="M496.02,-239.36C483.92,-216.15 468.75,-187.06 455.72,-162.07"/>
<polygon fill="none" stroke="midnightblue" points="492.94,-241.02 500.67,-248.27 499.15,-237.78 492.94,-241.02"/>
</g>
<!-- Node5 -->
<g id="node5" class="node">
<title>Node5</title>
<g id="a_node5"><a xlink:href="../../d1/d31/classpocketmine_1_1block_1_1_gravel.html" target="_top" xlink:title=" ">
<polygon fill="white" stroke="#bfbfbf" points="525,-66.5 525,-145.5 695,-145.5 695,-66.5 525,-66.5"/>
<text text-anchor="middle" x="610" y="-133.5" font-family="Helvetica,sans-Serif" font-size="10.00">pocketmine\block\Gravel</text>
<polyline fill="none" stroke="#bfbfbf" points="525,-126.5 695,-126.5 "/>
<text text-anchor="middle" x="610" y="-114.5" font-family="Helvetica,sans-Serif" font-size="10.00"> </text>
<polyline fill="none" stroke="#bfbfbf" points="525,-107.5 695,-107.5 "/>
<text text-anchor="start" x="533" y="-95.5" font-family="Helvetica,sans-Serif" font-size="10.00">+ getDropsForCompatibleTool()</text>
<text text-anchor="start" x="533" y="-84.5" font-family="Helvetica,sans-Serif" font-size="10.00">+ isAffectedBySilkTouch()</text>
<text text-anchor="start" x="533" y="-73.5" font-family="Helvetica,sans-Serif" font-size="10.00">+ tickFalling()</text>
</a>
</g>
</g>
<!-- Node1&#45;&gt;Node5 -->
<g id="edge4" class="edge">
<title>Node1&#45;&gt;Node5</title>
<path fill="none" stroke="midnightblue" d="M540.23,-239.33C555.28,-210.78 575.02,-173.35 589.66,-145.59"/>
<polygon fill="none" stroke="midnightblue" points="537.09,-237.79 535.52,-248.27 543.28,-241.05 537.09,-237.79"/>
</g>
<!-- Node6 -->
<g id="node6" class="node">
<title>Node6</title>
<g id="a_node6"><a xlink:href="../../d3/d39/classpocketmine_1_1block_1_1_sand.html" target="_top" xlink:title=" ">
<polygon fill="white" stroke="#bfbfbf" points="713,-77.5 713,-134.5 843,-134.5 843,-77.5 713,-77.5"/>
<text text-anchor="middle" x="778" y="-122.5" font-family="Helvetica,sans-Serif" font-size="10.00">pocketmine\block\Sand</text>
<polyline fill="none" stroke="#bfbfbf" points="713,-115.5 843,-115.5 "/>
<text text-anchor="middle" x="778" y="-103.5" font-family="Helvetica,sans-Serif" font-size="10.00"> </text>
<polyline fill="none" stroke="#bfbfbf" points="713,-96.5 843,-96.5 "/>
<text text-anchor="start" x="721" y="-84.5" font-family="Helvetica,sans-Serif" font-size="10.00">+ tickFalling()</text>
</a>
</g>
</g>
<!-- Node1&#45;&gt;Node6 -->
<g id="edge5" class="edge">
<title>Node1&#45;&gt;Node6</title>
<path fill="none" stroke="midnightblue" d="M591.8,-264.95C628.19,-254.18 671.2,-237.31 704,-212 730.84,-191.29 751.89,-158.16 764.57,-134.65"/>
<polygon fill="none" stroke="midnightblue" points="590.38,-261.71 581.72,-267.83 592.3,-268.44 590.38,-261.71"/>
</g>
<!-- Node7 -->
<g id="node7" class="node">
<title>Node7</title>
<g id="a_node7"><a xlink:href="../../d6/dfd/classpocketmine_1_1block_1_1_snow_layer.html" target="_top" xlink:title=" ">
<polygon fill="white" stroke="#bfbfbf" points="861,-0.5 861,-211.5 1031,-211.5 1031,-0.5 861,-0.5"/>
<text text-anchor="middle" x="946" y="-199.5" font-family="Helvetica,sans-Serif" font-size="10.00">pocketmine\block\SnowLayer</text>
<polyline fill="none" stroke="#bfbfbf" points="861,-192.5 1031,-192.5 "/>
<text text-anchor="start" x="869" y="-180.5" font-family="Helvetica,sans-Serif" font-size="10.00">+ MAX_LAYERS</text>
<text text-anchor="start" x="869" y="-169.5" font-family="Helvetica,sans-Serif" font-size="10.00">+ MIN_LAYERS</text>
<text text-anchor="start" x="869" y="-158.5" font-family="Helvetica,sans-Serif" font-size="10.00"># $layers</text>
<polyline fill="none" stroke="#bfbfbf" points="861,-151.5 1031,-151.5 "/>
<text text-anchor="start" x="869" y="-139.5" font-family="Helvetica,sans-Serif" font-size="10.00">+ canBeReplaced()</text>
<text text-anchor="start" x="869" y="-128.5" font-family="Helvetica,sans-Serif" font-size="10.00">+ getDropsForCompatibleTool()</text>
<text text-anchor="start" x="869" y="-117.5" font-family="Helvetica,sans-Serif" font-size="10.00">+ getLayers()</text>
<text text-anchor="start" x="869" y="-106.5" font-family="Helvetica,sans-Serif" font-size="10.00">+ getRequiredStateDataBits()</text>
<text text-anchor="start" x="869" y="-95.5" font-family="Helvetica,sans-Serif" font-size="10.00">+ getSupportType()</text>
<text text-anchor="start" x="869" y="-84.5" font-family="Helvetica,sans-Serif" font-size="10.00">+ onRandomTick()</text>
<text text-anchor="start" x="869" y="-73.5" font-family="Helvetica,sans-Serif" font-size="10.00">+ place()</text>
<text text-anchor="start" x="869" y="-62.5" font-family="Helvetica,sans-Serif" font-size="10.00">+ setLayers()</text>
<text text-anchor="start" x="869" y="-51.5" font-family="Helvetica,sans-Serif" font-size="10.00">+ tickFalling()</text>
<text text-anchor="start" x="869" y="-40.5" font-family="Helvetica,sans-Serif" font-size="10.00">+ ticksRandomly()</text>
<text text-anchor="start" x="869" y="-29.5" font-family="Helvetica,sans-Serif" font-size="10.00"># decodeState()</text>
<text text-anchor="start" x="869" y="-18.5" font-family="Helvetica,sans-Serif" font-size="10.00"># encodeState()</text>
<text text-anchor="start" x="869" y="-7.5" font-family="Helvetica,sans-Serif" font-size="10.00"># recalculateCollisionBoxes()</text>
</a>
</g>
</g>
<!-- Node1&#45;&gt;Node7 -->
<g id="edge6" class="edge">
<title>Node1&#45;&gt;Node7</title>
<path fill="none" stroke="midnightblue" d="M591.75,-279.29C662.73,-274.25 770.93,-258.73 852,-212 854.97,-210.29 857.89,-208.45 860.77,-206.51"/>
<polygon fill="none" stroke="midnightblue" points="591.3,-275.81 581.55,-279.96 591.76,-282.79 591.3,-275.81"/>
</g>
</g>
</svg>
