<?xml version="1.0" encoding="UTF-8" standalone="no"?>
<!DOCTYPE svg PUBLIC "-//W3C//DTD SVG 1.1//EN"
 "http://www.w3.org/Graphics/SVG/1.1/DTD/svg11.dtd">
<!-- Generated by graphviz version 2.43.0 (0)
 -->
<!-- Title: pocketmine\block\utils\Fallable Pages: 1 -->
<svg width="1039pt" height="336pt"
 viewBox="0.00 0.00 1039.00 336.00" xmlns="http://www.w3.org/2000/svg" xmlns:xlink="http://www.w3.org/1999/xlink">
<g id="graph0" class="graph" transform="scale(1 1) rotate(0) translate(4 332)">
<title>pocketmine\block\utils\Fallable</title>
<polygon fill="white" stroke="transparent" points="-4,4 -4,-332 1035,-332 1035,4 -4,4"/>
<!-- Node1 -->
<g id="node1" class="node">
<title>Node1</title>
<g id="a_node1"><a xlink:title=" ">
<polygon fill="#bfbfbf" stroke="black" points="454.5,-237.5 454.5,-327.5 581.5,-327.5 581.5,-237.5 454.5,-237.5"/>
<text text-anchor="start" x="462.5" y="-315.5" font-family="Helvetica,sans-Serif" font-size="10.00">pocketmine\block\utils</text>
<text text-anchor="middle" x="518" y="-304.5" font-family="Helvetica,sans-Serif" font-size="10.00">\Fallable</text>
<polyline fill="none" stroke="black" points="454.5,-297.5 581.5,-297.5 "/>
<text text-anchor="middle" x="518" y="-285.5" font-family="Helvetica,sans-Serif" font-size="10.00"> </text>
<polyline fill="none" stroke="black" points="454.5,-278.5 581.5,-278.5 "/>
<text text-anchor="start" x="462.5" y="-266.5" font-family="Helvetica,sans-Serif" font-size="10.00">+ getLandSound()</text>
<text text-anchor="start" x="462.5" y="-255.5" font-family="Helvetica,sans-Serif" font-size="10.00">+ onHitGround()</text>
<text text-anchor="start" x="462.5" y="-244.5" font-family="Helvetica,sans-Serif" font-size="10.00">+ tickFalling()</text>
</a>
</g>
</g>
<!-- Node2 -->
<g id="node2" class="node">
<title>Node2</title>
<g id="a_node2"><a xlink:href="../../df/d58/classpocketmine_1_1block_1_1_anvil.html" target="_top" xlink:title=" ">
<polygon fill="white" stroke="#bfbfbf" points="0,-0.5 0,-200.5 162,-200.5 162,-0.5 0,-0.5"/>
<text text-anchor="middle" x="81" y="-188.5" font-family="Helvetica,sans-Serif" font-size="10.00">pocketmine\block\Anvil</text>
<polyline fill="none" stroke="#bfbfbf" points="0,-181.5 162,-181.5 "/>
<text text-anchor="start" x="8" y="-169.5" font-family="Helvetica,sans-Serif" font-size="10.00">+ SLIGHTLY_DAMAGED</text>
<text text-anchor="start" x="8" y="-158.5" font-family="Helvetica,sans-Serif" font-size="10.00">+ UNDAMAGED</text>
<text text-anchor="start" x="8" y="-147.5" font-family="Helvetica,sans-Serif" font-size="10.00">+ VERY_DAMAGED</text>
<polyline fill="none" stroke="#bfbfbf" points="0,-140.5 162,-140.5 "/>
<text text-anchor="start" x="8" y="-128.5" font-family="Helvetica,sans-Serif" font-size="10.00">+ getDamage()</text>
<text text-anchor="start" x="8" y="-117.5" font-family="Helvetica,sans-Serif" font-size="10.00">+ getLandSound()</text>
<text text-anchor="start" x="8" y="-106.5" font-family="Helvetica,sans-Serif" font-size="10.00">+ getRequiredStateDataBits()</text>
<text text-anchor="start" x="8" y="-95.5" font-family="Helvetica,sans-Serif" font-size="10.00">+ getRequiredTypeDataBits()</text>
<text text-anchor="start" x="8" y="-84.5" font-family="Helvetica,sans-Serif" font-size="10.00">+ getSupportType()</text>
<text text-anchor="start" x="8" y="-73.5" font-family="Helvetica,sans-Serif" font-size="10.00">+ onHitGround()</text>
<text text-anchor="start" x="8" y="-62.5" font-family="Helvetica,sans-Serif" font-size="10.00">+ onInteract()</text>
<text text-anchor="start" x="8" y="-51.5" font-family="Helvetica,sans-Serif" font-size="10.00">+ place()</text>
<text text-anchor="start" x="8" y="-40.5" font-family="Helvetica,sans-Serif" font-size="10.00">+ setDamage()</text>
<text text-anchor="start" x="8" y="-29.5" font-family="Helvetica,sans-Serif" font-size="10.00"># describeState()</text>
<text text-anchor="start" x="8" y="-18.5" font-family="Helvetica,sans-Serif" font-size="10.00"># describeType()</text>
<text text-anchor="start" x="8" y="-7.5" font-family="Helvetica,sans-Serif" font-size="10.00"># recalculateCollisionBoxes()</text>
</a>
</g>
</g>
<!-- Node1&#45;&gt;Node2 -->
<g id="edge1" class="edge">
<title>Node1&#45;&gt;Node2</title>
<path fill="none" stroke="midnightblue" d="M444.15,-277.19C370.48,-270.07 256.27,-251.16 171,-201 167.99,-199.23 165.02,-197.32 162.1,-195.31"/>
<polygon fill="none" stroke="midnightblue" points="444,-280.69 454.27,-278.12 444.64,-273.72 444,-280.69"/>
</g>
<!-- Node3 -->
<g id="node3" class="node">
<title>Node3</title>
<g id="a_node3"><a xlink:href="../../d1/dda/classpocketmine_1_1block_1_1_concrete_powder.html" target="_top" xlink:title=" ">
<polygon fill="white" stroke="#bfbfbf" points="180.5,-55.5 180.5,-145.5 329.5,-145.5 329.5,-55.5 180.5,-55.5"/>
<text text-anchor="start" x="188.5" y="-133.5" font-family="Helvetica,sans-Serif" font-size="10.00">pocketmine\block\Concrete</text>
<text text-anchor="middle" x="255" y="-122.5" font-family="Helvetica,sans-Serif" font-size="10.00">Powder</text>
<polyline fill="none" stroke="#bfbfbf" points="180.5,-115.5 329.5,-115.5 "/>
<text text-anchor="middle" x="255" y="-103.5" font-family="Helvetica,sans-Serif" font-size="10.00"> </text>
<polyline fill="none" stroke="#bfbfbf" points="180.5,-96.5 329.5,-96.5 "/>
<text text-anchor="start" x="188.5" y="-84.5" font-family="Helvetica,sans-Serif" font-size="10.00">+ __construct()</text>
<text text-anchor="start" x="188.5" y="-73.5" font-family="Helvetica,sans-Serif" font-size="10.00">+ onNearbyBlockChange()</text>
<text text-anchor="start" x="188.5" y="-62.5" font-family="Helvetica,sans-Serif" font-size="10.00">+ tickFalling()</text>
</a>
</g>
</g>
<!-- Node1&#45;&gt;Node3 -->
<g id="edge2" class="edge">
<title>Node1&#45;&gt;Node3</title>
<path fill="none" stroke="midnightblue" d="M444.67,-257.46C410.27,-244.07 369.93,-225.18 338,-201 317.73,-185.66 299.19,-164.47 284.79,-145.59"/>
<polygon fill="none" stroke="midnightblue" points="443.61,-260.8 454.2,-261.09 446.1,-254.26 443.61,-260.8"/>
</g>
<!-- Node4 -->
<g id="node4" class="node">
<title>Node4</title>
<g id="a_node4"><a xlink:href="../../d1/d0d/classpocketmine_1_1block_1_1_dragon_egg.html" target="_top" xlink:title=" ">
<polygon fill="white" stroke="#bfbfbf" points="347.5,-50 347.5,-151 506.5,-151 506.5,-50 347.5,-50"/>
<text text-anchor="middle" x="427" y="-139" font-family="Helvetica,sans-Serif" font-size="10.00">pocketmine\block\DragonEgg</text>
<polyline fill="none" stroke="#bfbfbf" points="347.5,-132 506.5,-132 "/>
<text text-anchor="middle" x="427" y="-120" font-family="Helvetica,sans-Serif" font-size="10.00"> </text>
<polyline fill="none" stroke="#bfbfbf" points="347.5,-113 506.5,-113 "/>
<text text-anchor="start" x="355.5" y="-101" font-family="Helvetica,sans-Serif" font-size="10.00">+ getLightLevel()</text>
<text text-anchor="start" x="355.5" y="-90" font-family="Helvetica,sans-Serif" font-size="10.00">+ getSupportType()</text>
<text text-anchor="start" x="355.5" y="-79" font-family="Helvetica,sans-Serif" font-size="10.00">+ onAttack()</text>
<text text-anchor="start" x="355.5" y="-68" font-family="Helvetica,sans-Serif" font-size="10.00">+ onInteract()</text>
<text text-anchor="start" x="355.5" y="-57" font-family="Helvetica,sans-Serif" font-size="10.00">+ teleport()</text>
</a>
</g>
</g>
<!-- Node1&#45;&gt;Node4 -->
<g id="edge3" class="edge">
<title>Node1&#45;&gt;Node4</title>
<path fill="none" stroke="midnightblue" d="M491.12,-228.34C478.77,-203.9 464.2,-175.09 452.08,-151.11"/>
<polygon fill="none" stroke="midnightblue" points="488.1,-230.12 495.74,-237.47 494.35,-226.96 488.1,-230.12"/>
</g>
<!-- Node5 -->
<g id="node5" class="node">
<title>Node5</title>
<g id="a_node5"><a xlink:href="../../d1/d31/classpocketmine_1_1block_1_1_gravel.html" target="_top" xlink:title=" ">
<polygon fill="white" stroke="#bfbfbf" points="525,-66.5 525,-134.5 695,-134.5 695,-66.5 525,-66.5"/>
<text text-anchor="middle" x="610" y="-122.5" font-family="Helvetica,sans-Serif" font-size="10.00">pocketmine\block\Gravel</text>
<polyline fill="none" stroke="#bfbfbf" points="525,-115.5 695,-115.5 "/>
<text text-anchor="middle" x="610" y="-103.5" font-family="Helvetica,sans-Serif" font-size="10.00"> </text>
<polyline fill="none" stroke="#bfbfbf" points="525,-96.5 695,-96.5 "/>
<text text-anchor="start" x="533" y="-84.5" font-family="Helvetica,sans-Serif" font-size="10.00">+ getDropsForCompatibleTool()</text>
<text text-anchor="start" x="533" y="-73.5" font-family="Helvetica,sans-Serif" font-size="10.00">+ isAffectedBySilkTouch()</text>
</a>
</g>
</g>
<!-- Node1&#45;&gt;Node5 -->
<g id="edge4" class="edge">
<title>Node1&#45;&gt;Node5</title>
<path fill="none" stroke="midnightblue" d="M545.2,-228.28C560.71,-197.93 579.67,-160.84 593.06,-134.64"/>
<polygon fill="none" stroke="midnightblue" points="541.94,-226.97 540.51,-237.47 548.17,-230.16 541.94,-226.97"/>
</g>
<!-- Node6 -->
<g id="node6" class="node">
<title>Node6</title>
<g id="a_node6"><a xlink:href="../../d3/d39/classpocketmine_1_1block_1_1_sand.html" target="_top" xlink:title=" ">
<polygon fill="white" stroke="#bfbfbf" points="713,-72 713,-129 843,-129 843,-72 713,-72"/>
<text text-anchor="middle" x="778" y="-117" font-family="Helvetica,sans-Serif" font-size="10.00">pocketmine\block\Sand</text>
<polyline fill="none" stroke="#bfbfbf" points="713,-110 843,-110 "/>
<text text-anchor="middle" x="778" y="-98" font-family="Helvetica,sans-Serif" font-size="10.00"> </text>
<polyline fill="none" stroke="#bfbfbf" points="713,-91 843,-91 "/>
<text text-anchor="middle" x="778" y="-79" font-family="Helvetica,sans-Serif" font-size="10.00"> </text>
</a>
</g>
</g>
<!-- Node1&#45;&gt;Node6 -->
<g id="edge5" class="edge">
<title>Node1&#45;&gt;Node6</title>
<path fill="none" stroke="midnightblue" d="M591.45,-259.76C627.78,-246.62 670.83,-227.27 704,-201 728.98,-181.22 749.81,-151.05 762.94,-129.12"/>
<polygon fill="none" stroke="midnightblue" points="590.15,-256.51 581.89,-263.14 592.48,-263.11 590.15,-256.51"/>
</g>
<!-- Node7 -->
<g id="node7" class="node">
<title>Node7</title>
<g id="a_node7"><a xlink:href="../../d6/dfd/classpocketmine_1_1block_1_1_snow_layer.html" target="_top" xlink:title=" ">
<polygon fill="white" stroke="#bfbfbf" points="861,-6 861,-195 1031,-195 1031,-6 861,-6"/>
<text text-anchor="middle" x="946" y="-183" font-family="Helvetica,sans-Serif" font-size="10.00">pocketmine\block\SnowLayer</text>
<polyline fill="none" stroke="#bfbfbf" points="861,-176 1031,-176 "/>
<text text-anchor="start" x="869" y="-164" font-family="Helvetica,sans-Serif" font-size="10.00">+ MAX_LAYERS</text>
<text text-anchor="start" x="869" y="-153" font-family="Helvetica,sans-Serif" font-size="10.00">+ MIN_LAYERS</text>
<text text-anchor="start" x="869" y="-142" font-family="Helvetica,sans-Serif" font-size="10.00"># $layers</text>
<polyline fill="none" stroke="#bfbfbf" points="861,-135 1031,-135 "/>
<text text-anchor="start" x="869" y="-123" font-family="Helvetica,sans-Serif" font-size="10.00">+ canBeReplaced()</text>
<text text-anchor="start" x="869" y="-112" font-family="Helvetica,sans-Serif" font-size="10.00">+ getDropsForCompatibleTool()</text>
<text text-anchor="start" x="869" y="-101" font-family="Helvetica,sans-Serif" font-size="10.00">+ getLayers()</text>
<text text-anchor="start" x="869" y="-90" font-family="Helvetica,sans-Serif" font-size="10.00">+ getRequiredStateDataBits()</text>
<text text-anchor="start" x="869" y="-79" font-family="Helvetica,sans-Serif" font-size="10.00">+ getSupportType()</text>
<text text-anchor="start" x="869" y="-68" font-family="Helvetica,sans-Serif" font-size="10.00">+ onRandomTick()</text>
<text text-anchor="start" x="869" y="-57" font-family="Helvetica,sans-Serif" font-size="10.00">+ place()</text>
<text text-anchor="start" x="869" y="-46" font-family="Helvetica,sans-Serif" font-size="10.00">+ setLayers()</text>
<text text-anchor="start" x="869" y="-35" font-family="Helvetica,sans-Serif" font-size="10.00">+ ticksRandomly()</text>
<text text-anchor="start" x="869" y="-24" font-family="Helvetica,sans-Serif" font-size="10.00"># describeState()</text>
<text text-anchor="start" x="869" y="-13" font-family="Helvetica,sans-Serif" font-size="10.00"># recalculateCollisionBoxes()</text>
</a>
</g>
</g>
<!-- Node1&#45;&gt;Node7 -->
<g id="edge6" class="edge">
<title>Node1&#45;&gt;Node7</title>
<path fill="none" stroke="midnightblue" d="M591.86,-275.87C662.69,-267.77 770.59,-248.17 852,-201 855.19,-199.15 858.33,-197.17 861.43,-195.06"/>
<polygon fill="none" stroke="midnightblue" points="591.25,-272.42 581.69,-276.99 592.01,-279.38 591.25,-272.42"/>
</g>
</g>
</svg>
