<?xml version="1.0" encoding="UTF-8" standalone="no"?>
<!DOCTYPE svg PUBLIC "-//W3C//DTD SVG 1.1//EN"
 "http://www.w3.org/Graphics/SVG/1.1/DTD/svg11.dtd">
<!-- Generated by graphviz version 2.43.0 (0)
 -->
<!-- Title: pocketmine\command\Command\testPermission Pages: 1 -->
<svg width="377pt" height="167pt"
 viewBox="0.00 0.00 377.00 167.00" xmlns="http://www.w3.org/2000/svg" xmlns:xlink="http://www.w3.org/1999/xlink">
<g id="graph0" class="graph" transform="scale(1 1) rotate(0) translate(4 163)">
<title>pocketmine\command\Command\testPermission</title>
<!-- Node1 -->
<g id="Node000001" class="node">
<title>Node1</title>
<g id="a_Node000001"><a xlink:title=" ">
<polygon fill="#999999" stroke="#666666" points="369,-94.5 223,-94.5 223,-64.5 369,-64.5 369,-94.5"/>
<text text-anchor="start" x="231" y="-82.5" font-family="Helvetica,sans-Serif" font-size="10.00">pocketmine\command</text>
<text text-anchor="middle" x="296" y="-71.5" font-family="Helvetica,sans-Serif" font-size="10.00">\Command\testPermission</text>
</a>
</g>
</g>
<!-- Node2 -->
<g id="Node000002" class="node">
<title>Node2</title>
<g id="a_Node000002"><a xlink:href="../../d4/dcb/classpocketmine_1_1command_1_1defaults_1_1_command_alias_command.html#af984638aa024255df3ebbadb26d16f53" target="_top" xlink:title=" ">
<polygon fill="white" stroke="#666666" points="187,-159 0,-159 0,-118 187,-118 187,-159"/>
<text text-anchor="start" x="8" y="-147" font-family="Helvetica,sans-Serif" font-size="10.00">pocketmine\command</text>
<text text-anchor="start" x="8" y="-136" font-family="Helvetica,sans-Serif" font-size="10.00">\defaults\CommandAliasCommand</text>
<text text-anchor="middle" x="93.5" y="-125" font-family="Helvetica,sans-Serif" font-size="10.00">\execute</text>
</a>
</g>
</g>
<!-- Node1&#45;&gt;Node2 -->
<g id="edge1_Node000001_Node000002" class="edge">
<title>Node1&#45;&gt;Node2</title>
<g id="a_edge1_Node000001_Node000002"><a xlink:title=" ">
<path fill="none" stroke="#63b8ff" d="M234.02,-97.44C212.06,-103.91 187.1,-111.25 164.43,-117.92"/>
<polygon fill="#63b8ff" stroke="#63b8ff" points="235.28,-100.72 243.89,-94.54 233.31,-94.01 235.28,-100.72"/>
</a>
</g>
</g>
<!-- Node3 -->
<g id="Node000003" class="node">
<title>Node3</title>
<g id="a_Node000003"><a xlink:href="../../dc/d55/classpocketmine_1_1command_1_1defaults_1_1_time_command.html#a35862c790c55f26dcf8041e2614d0120" target="_top" xlink:title=" ">
<polygon fill="white" stroke="#666666" points="162,-100 25,-100 25,-59 162,-59 162,-100"/>
<text text-anchor="start" x="33" y="-88" font-family="Helvetica,sans-Serif" font-size="10.00">pocketmine\command</text>
<text text-anchor="start" x="33" y="-77" font-family="Helvetica,sans-Serif" font-size="10.00">\defaults\TimeCommand</text>
<text text-anchor="middle" x="93.5" y="-66" font-family="Helvetica,sans-Serif" font-size="10.00">\execute</text>
</a>
</g>
</g>
<!-- Node1&#45;&gt;Node3 -->
<g id="edge2_Node000001_Node000003" class="edge">
<title>Node1&#45;&gt;Node3</title>
<g id="a_edge2_Node000001_Node000003"><a xlink:title=" ">
<path fill="none" stroke="#63b8ff" d="M212.59,-79.5C195.86,-79.5 178.44,-79.5 162.28,-79.5"/>
<polygon fill="#63b8ff" stroke="#63b8ff" points="212.9,-83 222.9,-79.5 212.9,-76 212.9,-83"/>
</a>
</g>
</g>
<!-- Node4 -->
<g id="Node000004" class="node">
<title>Node4</title>
<g id="a_Node000004"><a xlink:href="../../d5/d43/classpocketmine_1_1command_1_1defaults_1_1_whitelist_command.html#ab654d2ef3736086f68c939a2e57e7f41" target="_top" xlink:title=" ">
<polygon fill="white" stroke="#666666" points="171.5,-41 15.5,-41 15.5,0 171.5,0 171.5,-41"/>
<text text-anchor="start" x="23.5" y="-29" font-family="Helvetica,sans-Serif" font-size="10.00">pocketmine\command</text>
<text text-anchor="start" x="23.5" y="-18" font-family="Helvetica,sans-Serif" font-size="10.00">\defaults\WhitelistCommand</text>
<text text-anchor="middle" x="93.5" y="-7" font-family="Helvetica,sans-Serif" font-size="10.00">\execute</text>
</a>
</g>
</g>
<!-- Node1&#45;&gt;Node4 -->
<g id="edge3_Node000001_Node000004" class="edge">
<title>Node1&#45;&gt;Node4</title>
<g id="a_edge3_Node000001_Node000004"><a xlink:title=" ">
<path fill="none" stroke="#63b8ff" d="M234.02,-61.56C212.06,-55.09 187.1,-47.75 164.43,-41.08"/>
<polygon fill="#63b8ff" stroke="#63b8ff" points="233.31,-64.99 243.89,-64.46 235.28,-58.28 233.31,-64.99"/>
</a>
</g>
</g>
</g>
</svg>
