<?xml version="1.0" encoding="UTF-8" standalone="no"?>
<!DOCTYPE svg PUBLIC "-//W3C//DTD SVG 1.1//EN"
 "http://www.w3.org/Graphics/SVG/1.1/DTD/svg11.dtd">
<!-- Generated by graphviz version 2.43.0 (0)
 -->
<!-- Title: pocketmine\block\tile\Hopper Pages: 1 -->
<svg width="724pt" height="2120pt"
 viewBox="0.00 0.00 724.00 2120.00" xmlns="http://www.w3.org/2000/svg" xmlns:xlink="http://www.w3.org/1999/xlink">
<g id="graph0" class="graph" transform="scale(1 1) rotate(0) translate(4 2116)">
<title>pocketmine\block\tile\Hopper</title>
<!-- Node1 -->
<g id="Node000001" class="node">
<title>Node1</title>
<g id="a_Node000001"><a xlink:title=" ">
<polygon fill="#999999" stroke="transparent" points="574,-150 458,-150 458,0 574,0 574,-150"/>
<text text-anchor="start" x="463" y="-138" font-family="Helvetica,sans-Serif" font-size="10.00">pocketmine\block\tile</text>
<text text-anchor="start" x="496.5" y="-127" font-family="Helvetica,sans-Serif" font-size="10.00">\Hopper</text>
<text text-anchor="start" x="514" y="-112" font-family="Helvetica,sans-Serif" font-size="10.00"> </text>
<text text-anchor="start" x="462.5" y="-97" font-family="Helvetica,sans-Serif" font-size="10.00">+</text>
<text text-anchor="start" x="476" y="-97" font-family="Helvetica,sans-Serif" font-size="10.00">__construct()</text>
<text text-anchor="start" x="462.5" y="-82" font-family="Helvetica,sans-Serif" font-size="10.00">+</text>
<text text-anchor="start" x="476" y="-82" font-family="Helvetica,sans-Serif" font-size="10.00">close()</text>
<text text-anchor="start" x="462.5" y="-67" font-family="Helvetica,sans-Serif" font-size="10.00">+</text>
<text text-anchor="start" x="476" y="-67" font-family="Helvetica,sans-Serif" font-size="10.00">getDefaultName()</text>
<text text-anchor="start" x="462.5" y="-52" font-family="Helvetica,sans-Serif" font-size="10.00">+</text>
<text text-anchor="start" x="476" y="-52" font-family="Helvetica,sans-Serif" font-size="10.00">getInventory()</text>
<text text-anchor="start" x="462.5" y="-37" font-family="Helvetica,sans-Serif" font-size="10.00">+</text>
<text text-anchor="start" x="476" y="-37" font-family="Helvetica,sans-Serif" font-size="10.00">getRealInventory()</text>
<text text-anchor="start" x="462.5" y="-22" font-family="Helvetica,sans-Serif" font-size="10.00">+</text>
<text text-anchor="start" x="476" y="-22" font-family="Helvetica,sans-Serif" font-size="10.00">readSaveData()</text>
<text text-anchor="start" x="462.5" y="-7" font-family="Helvetica,sans-Serif" font-size="10.00">#</text>
<text text-anchor="start" x="476" y="-7" font-family="Helvetica,sans-Serif" font-size="10.00">writeSaveData()</text>
<polygon fill="#666666" stroke="#666666" points="458,-122 458,-122 574,-122 574,-122 458,-122"/>
<polygon fill="#666666" stroke="#666666" points="458,-107 458,-107 574,-107 574,-107 458,-107"/>
<polygon fill="none" stroke="#666666" points="458,0 458,-150 574,-150 574,0 458,0"/>
</a>
</g>
</g>
<!-- Node2 -->
<g id="Node000002" class="node">
<title>Node2</title>
<g id="a_Node000002"><a xlink:href="../../dc/d0b/classpocketmine_1_1block_1_1tile_1_1_spawnable.html" target="_top" xlink:title=" ">
<polygon fill="white" stroke="transparent" points="440,-318 256,-318 256,-187 440,-187 440,-318"/>
<text text-anchor="start" x="295" y="-305.5" font-family="Helvetica,sans-Serif" font-size="10.00">pocketmine\block\tile</text>
<text text-anchor="start" x="319.5" y="-294.5" font-family="Helvetica,sans-Serif" font-size="10.00">\Spawnable</text>
<text text-anchor="start" x="346" y="-279.5" font-family="Helvetica,sans-Serif" font-size="10.00"> </text>
<text text-anchor="start" x="260" y="-264.5" font-family="Helvetica,sans-Serif" font-size="10.00">+</text>
<text text-anchor="start" x="273" y="-264.5" font-family="Helvetica,sans-Serif" font-size="10.00">clearSpawnCompoundCache()</text>
<text text-anchor="start" x="260" y="-249.5" font-family="Helvetica,sans-Serif" font-size="10.00">+</text>
<text text-anchor="start" x="273" y="-249.5" font-family="Helvetica,sans-Serif" font-size="10.00">getRenderUpdateBugWorkaround</text>
<text text-anchor="start" x="273" y="-238.5" font-family="Helvetica,sans-Serif" font-size="10.00">StateProperties()</text>
<text text-anchor="start" x="260" y="-223.5" font-family="Helvetica,sans-Serif" font-size="10.00">+</text>
<text text-anchor="start" x="273" y="-223.5" font-family="Helvetica,sans-Serif" font-size="10.00">getSerializedSpawnCompound()</text>
<text text-anchor="start" x="260" y="-208.5" font-family="Helvetica,sans-Serif" font-size="10.00">+</text>
<text text-anchor="start" x="273" y="-208.5" font-family="Helvetica,sans-Serif" font-size="10.00">getSpawnCompound()</text>
<text text-anchor="start" x="260" y="-193.5" font-family="Helvetica,sans-Serif" font-size="10.00">#</text>
<text text-anchor="start" x="273" y="-193.5" font-family="Helvetica,sans-Serif" font-size="10.00">addAdditionalSpawnData()</text>
<polygon fill="#bfbfbf" stroke="#bfbfbf" points="256,-289.5 256,-289.5 440,-289.5 440,-289.5 256,-289.5"/>
<polygon fill="#bfbfbf" stroke="#bfbfbf" points="256,-274.5 256,-274.5 440,-274.5 440,-274.5 256,-274.5"/>
<polygon fill="none" stroke="#bfbfbf" points="256,-187 256,-318 440,-318 440,-187 256,-187"/>
</a>
</g>
</g>
<!-- Node2&#45;&gt;Node1 -->
<g id="edge1_Node000001_Node000002" class="edge">
<title>Node2&#45;&gt;Node1</title>
<g id="a_edge1_Node000001_Node000002"><a xlink:title=" ">
<path fill="none" stroke="#63b8ff" d="M417.09,-179.32C430.62,-165.19 444.67,-150.51 457.8,-136.8"/>
<polygon fill="none" stroke="#63b8ff" points="414.47,-177 410.08,-186.65 419.52,-181.85 414.47,-177"/>
</a>
</g>
</g>
<!-- Node3 -->
<g id="Node000003" class="node">
<title>Node3</title>
<g id="a_Node000003"><a xlink:href="../../d9/d74/classpocketmine_1_1block_1_1tile_1_1_tile.html" target="_top" xlink:title=" ">
<polygon fill="white" stroke="transparent" points="420,-644 276,-644 276,-355 420,-355 420,-644"/>
<text text-anchor="start" x="284.5" y="-631.5" font-family="Helvetica,sans-Serif" font-size="10.00">pocketmine\block\tile\Tile</text>
<text text-anchor="start" x="280" y="-616.5" font-family="Helvetica,sans-Serif" font-size="10.00">+</text>
<text text-anchor="start" x="293" y="-616.5" font-family="Helvetica,sans-Serif" font-size="10.00">$closed</text>
<text text-anchor="start" x="280" y="-601.5" font-family="Helvetica,sans-Serif" font-size="10.00">+</text>
<text text-anchor="start" x="293" y="-601.5" font-family="Helvetica,sans-Serif" font-size="10.00">TAG_ID</text>
<text text-anchor="start" x="280" y="-586.5" font-family="Helvetica,sans-Serif" font-size="10.00">+</text>
<text text-anchor="start" x="293" y="-586.5" font-family="Helvetica,sans-Serif" font-size="10.00">TAG_X</text>
<text text-anchor="start" x="280" y="-571.5" font-family="Helvetica,sans-Serif" font-size="10.00">+</text>
<text text-anchor="start" x="293" y="-571.5" font-family="Helvetica,sans-Serif" font-size="10.00">TAG_Y</text>
<text text-anchor="start" x="280" y="-556.5" font-family="Helvetica,sans-Serif" font-size="10.00">+</text>
<text text-anchor="start" x="293" y="-556.5" font-family="Helvetica,sans-Serif" font-size="10.00">TAG_Z</text>
<text text-anchor="start" x="280" y="-541.5" font-family="Helvetica,sans-Serif" font-size="10.00">+</text>
<text text-anchor="start" x="293" y="-541.5" font-family="Helvetica,sans-Serif" font-size="10.00">__construct()</text>
<text text-anchor="start" x="280" y="-526.5" font-family="Helvetica,sans-Serif" font-size="10.00">+</text>
<text text-anchor="start" x="293" y="-526.5" font-family="Helvetica,sans-Serif" font-size="10.00">__destruct()</text>
<text text-anchor="start" x="280" y="-511.5" font-family="Helvetica,sans-Serif" font-size="10.00">+</text>
<text text-anchor="start" x="293" y="-511.5" font-family="Helvetica,sans-Serif" font-size="10.00">close()</text>
<text text-anchor="start" x="280" y="-496.5" font-family="Helvetica,sans-Serif" font-size="10.00">+</text>
<text text-anchor="start" x="293" y="-496.5" font-family="Helvetica,sans-Serif" font-size="10.00">copyDataFromItem()</text>
<text text-anchor="start" x="280" y="-481.5" font-family="Helvetica,sans-Serif" font-size="10.00">+</text>
<text text-anchor="start" x="293" y="-481.5" font-family="Helvetica,sans-Serif" font-size="10.00">getBlock()</text>
<text text-anchor="start" x="280" y="-466.5" font-family="Helvetica,sans-Serif" font-size="10.00">+</text>
<text text-anchor="start" x="293" y="-466.5" font-family="Helvetica,sans-Serif" font-size="10.00">getCleanedNBT()</text>
<text text-anchor="start" x="280" y="-451.5" font-family="Helvetica,sans-Serif" font-size="10.00">+</text>
<text text-anchor="start" x="293" y="-451.5" font-family="Helvetica,sans-Serif" font-size="10.00">getPosition()</text>
<text text-anchor="start" x="280" y="-436.5" font-family="Helvetica,sans-Serif" font-size="10.00">+</text>
<text text-anchor="start" x="293" y="-436.5" font-family="Helvetica,sans-Serif" font-size="10.00">isClosed()</text>
<text text-anchor="start" x="280" y="-421.5" font-family="Helvetica,sans-Serif" font-size="10.00">+</text>
<text text-anchor="start" x="293" y="-421.5" font-family="Helvetica,sans-Serif" font-size="10.00">onBlockDestroyed()</text>
<text text-anchor="start" x="280" y="-406.5" font-family="Helvetica,sans-Serif" font-size="10.00">+</text>
<text text-anchor="start" x="293" y="-406.5" font-family="Helvetica,sans-Serif" font-size="10.00">readSaveData()</text>
<text text-anchor="start" x="280" y="-391.5" font-family="Helvetica,sans-Serif" font-size="10.00">+</text>
<text text-anchor="start" x="293" y="-391.5" font-family="Helvetica,sans-Serif" font-size="10.00">saveNBT()</text>
<text text-anchor="start" x="280" y="-376.5" font-family="Helvetica,sans-Serif" font-size="10.00">#</text>
<text text-anchor="start" x="293" y="-376.5" font-family="Helvetica,sans-Serif" font-size="10.00">onBlockDestroyedHook()</text>
<text text-anchor="start" x="280" y="-361.5" font-family="Helvetica,sans-Serif" font-size="10.00">#</text>
<text text-anchor="start" x="293" y="-361.5" font-family="Helvetica,sans-Serif" font-size="10.00">writeSaveData()</text>
<polygon fill="#bfbfbf" stroke="#bfbfbf" points="276,-626.5 276,-626.5 420,-626.5 420,-626.5 276,-626.5"/>
<polygon fill="#bfbfbf" stroke="#bfbfbf" points="276,-551.5 276,-551.5 291,-551.5 291,-551.5 276,-551.5"/>
<polygon fill="#bfbfbf" stroke="#bfbfbf" points="291,-551.5 291,-551.5 420,-551.5 420,-551.5 291,-551.5"/>
<polygon fill="none" stroke="#bfbfbf" points="276,-355 276,-644 420,-644 420,-355 276,-355"/>
</a>
</g>
</g>
<!-- Node3&#45;&gt;Node2 -->
<g id="edge2_Node000002_Node000003" class="edge">
<title>Node3&#45;&gt;Node2</title>
<g id="a_edge2_Node000002_Node000003"><a xlink:title=" ">
<path fill="none" stroke="#63b8ff" d="M348,-344.84C348,-335.64 348,-326.68 348,-318.21"/>
<polygon fill="none" stroke="#63b8ff" points="344.5,-344.92 348,-354.92 351.5,-344.92 344.5,-344.92"/>
</a>
</g>
</g>
<!-- Node4 -->
<g id="Node000004" class="node">
<title>Node4</title>
<g id="a_Node000004"><a xlink:href="../../d5/dd2/classpocketmine_1_1world_1_1_position.html" target="_top" xlink:title=" ">
<polygon fill="white" stroke="transparent" points="346,-845 206,-845 206,-691 346,-691 346,-845"/>
<text text-anchor="start" x="211" y="-833" font-family="Helvetica,sans-Serif" font-size="10.00">pocketmine\world\Position</text>
<text text-anchor="start" x="274" y="-818" font-family="Helvetica,sans-Serif" font-size="10.00"> </text>
<text text-anchor="start" x="223.5" y="-803" font-family="Helvetica,sans-Serif" font-size="10.00">+</text>
<text text-anchor="start" x="250" y="-803" font-family="Helvetica,sans-Serif" font-size="10.00">__construct()</text>
<text text-anchor="start" x="223.5" y="-788" font-family="Helvetica,sans-Serif" font-size="10.00">+</text>
<text text-anchor="start" x="250" y="-788" font-family="Helvetica,sans-Serif" font-size="10.00">__toString()</text>
<text text-anchor="start" x="223.5" y="-773" font-family="Helvetica,sans-Serif" font-size="10.00">+</text>
<text text-anchor="start" x="250" y="-773" font-family="Helvetica,sans-Serif" font-size="10.00">asPosition()</text>
<text text-anchor="start" x="223.5" y="-758" font-family="Helvetica,sans-Serif" font-size="10.00">+</text>
<text text-anchor="start" x="250" y="-758" font-family="Helvetica,sans-Serif" font-size="10.00">equals()</text>
<text text-anchor="start" x="223.5" y="-743" font-family="Helvetica,sans-Serif" font-size="10.00">+</text>
<text text-anchor="start" x="250" y="-743" font-family="Helvetica,sans-Serif" font-size="10.00">getSide()</text>
<text text-anchor="start" x="223.5" y="-728" font-family="Helvetica,sans-Serif" font-size="10.00">+</text>
<text text-anchor="start" x="250" y="-728" font-family="Helvetica,sans-Serif" font-size="10.00">getWorld()</text>
<text text-anchor="start" x="223.5" y="-713" font-family="Helvetica,sans-Serif" font-size="10.00">+</text>
<text text-anchor="start" x="250" y="-713" font-family="Helvetica,sans-Serif" font-size="10.00">isValid()</text>
<text text-anchor="start" x="223.5" y="-698" font-family="Helvetica,sans-Serif" font-size="10.00">+</text>
<text text-anchor="start" x="250" y="-698" font-family="Helvetica,sans-Serif" font-size="10.00">fromObject()</text>
<polygon fill="#bfbfbf" stroke="#bfbfbf" points="206,-828 206,-828 346,-828 346,-828 206,-828"/>
<polygon fill="#bfbfbf" stroke="#bfbfbf" points="206,-813 206,-813 346,-813 346,-813 206,-813"/>
<polygon fill="none" stroke="#bfbfbf" points="206,-691 206,-845 346,-845 346,-691 206,-691"/>
</a>
</g>
</g>
<!-- Node4&#45;&gt;Node3 -->
<g id="edge3_Node000003_Node000004" class="edge">
<title>Node4&#45;&gt;Node3</title>
<g id="a_edge3_Node000003_Node000004"><a xlink:title=" ">
<path fill="none" stroke="#63b8ff" d="M296.54,-690.99C299.56,-679.8 302.76,-667.94 306.03,-655.83"/>
<polygon fill="none" stroke="#63b8ff" points="306.06,-655.74 303.76,-648.91 309.19,-644.16 311.48,-650.99 306.06,-655.74"/>
</a>
</g>
<text text-anchor="middle" x="332.5" y="-665" font-family="Helvetica,sans-Serif" font-size="10.00" fill="grey"> #$position</text>
</g>
<!-- Node5 -->
<g id="Node000005" class="node">
<title>Node5</title>
<g id="a_Node000005"><a xlink:href="../../d2/d90/classpocketmine_1_1math_1_1_vector3.html" target="_top" xlink:title=" ">
<polygon fill="white" stroke="transparent" points="175,-1254 39,-1254 39,-995 175,-995 175,-1254"/>
<text text-anchor="start" x="44" y="-1241.5" font-family="Helvetica,sans-Serif" font-size="10.00">pocketmine\math\Vector3</text>
<text text-anchor="start" x="105" y="-1226.5" font-family="Helvetica,sans-Serif" font-size="10.00"> </text>
<text text-anchor="start" x="49" y="-1211.5" font-family="Helvetica,sans-Serif" font-size="10.00">+</text>
<text text-anchor="start" x="68" y="-1211.5" font-family="Helvetica,sans-Serif" font-size="10.00">__construct()</text>
<text text-anchor="start" x="49" y="-1196.5" font-family="Helvetica,sans-Serif" font-size="10.00">+</text>
<text text-anchor="start" x="68" y="-1196.5" font-family="Helvetica,sans-Serif" font-size="10.00">__toString()</text>
<text text-anchor="start" x="49" y="-1181.5" font-family="Helvetica,sans-Serif" font-size="10.00">+</text>
<text text-anchor="start" x="68" y="-1181.5" font-family="Helvetica,sans-Serif" font-size="10.00">abs()</text>
<text text-anchor="start" x="49" y="-1166.5" font-family="Helvetica,sans-Serif" font-size="10.00">+</text>
<text text-anchor="start" x="68" y="-1166.5" font-family="Helvetica,sans-Serif" font-size="10.00">add()</text>
<text text-anchor="start" x="49" y="-1151.5" font-family="Helvetica,sans-Serif" font-size="10.00">+</text>
<text text-anchor="start" x="68" y="-1151.5" font-family="Helvetica,sans-Serif" font-size="10.00">addVector()</text>
<text text-anchor="start" x="49" y="-1136.5" font-family="Helvetica,sans-Serif" font-size="10.00">+</text>
<text text-anchor="start" x="68" y="-1136.5" font-family="Helvetica,sans-Serif" font-size="10.00">asVector3()</text>
<text text-anchor="start" x="49" y="-1121.5" font-family="Helvetica,sans-Serif" font-size="10.00">+</text>
<text text-anchor="start" x="68" y="-1121.5" font-family="Helvetica,sans-Serif" font-size="10.00">ceil()</text>
<text text-anchor="start" x="49" y="-1106.5" font-family="Helvetica,sans-Serif" font-size="10.00">+</text>
<text text-anchor="start" x="68" y="-1106.5" font-family="Helvetica,sans-Serif" font-size="10.00">cross()</text>
<text text-anchor="start" x="49" y="-1091.5" font-family="Helvetica,sans-Serif" font-size="10.00">+</text>
<text text-anchor="start" x="68" y="-1091.5" font-family="Helvetica,sans-Serif" font-size="10.00">distance()</text>
<text text-anchor="start" x="49" y="-1076.5" font-family="Helvetica,sans-Serif" font-size="10.00">+</text>
<text text-anchor="start" x="68" y="-1076.5" font-family="Helvetica,sans-Serif" font-size="10.00">distanceSquared()</text>
<text text-anchor="start" x="68" y="-1061.5" font-family="Helvetica,sans-Serif" font-size="10.00">and 32 more...</text>
<text text-anchor="start" x="49" y="-1046.5" font-family="Helvetica,sans-Serif" font-size="10.00">+</text>
<text text-anchor="start" x="68" y="-1046.5" font-family="Helvetica,sans-Serif" font-size="10.00">maxComponents()</text>
<text text-anchor="start" x="49" y="-1031.5" font-family="Helvetica,sans-Serif" font-size="10.00">+</text>
<text text-anchor="start" x="68" y="-1031.5" font-family="Helvetica,sans-Serif" font-size="10.00">minComponents()</text>
<text text-anchor="start" x="49" y="-1016.5" font-family="Helvetica,sans-Serif" font-size="10.00">+</text>
<text text-anchor="start" x="68" y="-1016.5" font-family="Helvetica,sans-Serif" font-size="10.00">sum()</text>
<text text-anchor="start" x="49" y="-1001.5" font-family="Helvetica,sans-Serif" font-size="10.00">+</text>
<text text-anchor="start" x="68" y="-1001.5" font-family="Helvetica,sans-Serif" font-size="10.00">zero()</text>
<polygon fill="#bfbfbf" stroke="#bfbfbf" points="39,-1236.5 39,-1236.5 175,-1236.5 175,-1236.5 39,-1236.5"/>
<polygon fill="#bfbfbf" stroke="#bfbfbf" points="39,-1221.5 39,-1221.5 175,-1221.5 175,-1221.5 39,-1221.5"/>
<polygon fill="none" stroke="#bfbfbf" points="39,-995 39,-1254 175,-1254 175,-995 39,-995"/>
</a>
</g>
</g>
<!-- Node5&#45;&gt;Node4 -->
<g id="edge4_Node000004_Node000005" class="edge">
<title>Node5&#45;&gt;Node4</title>
<g id="a_edge4_Node000004_Node000005"><a xlink:title=" ">
<path fill="none" stroke="#63b8ff" d="M144.93,-985.22C155.74,-953.77 168.8,-921.09 184,-892 192.28,-876.17 202.52,-860.19 213.14,-845.24"/>
<polygon fill="none" stroke="#63b8ff" points="141.53,-984.33 141.65,-994.93 148.16,-986.58 141.53,-984.33"/>
</a>
</g>
</g>
<!-- Node6 -->
<g id="Node000006" class="node">
<title>Node6</title>
<g id="a_Node000006"><a xlink:href="../../d4/d2b/classpocketmine_1_1world_1_1_world.html" target="_top" xlink:title=" ">
<polygon fill="white" stroke="transparent" points="359,-1357 193,-1357 193,-892 359,-892 359,-1357"/>
<text text-anchor="start" x="217" y="-1344.5" font-family="Helvetica,sans-Serif" font-size="10.00">pocketmine\world\World</text>
<text text-anchor="start" x="197" y="-1329.5" font-family="Helvetica,sans-Serif" font-size="10.00">+</text>
<text text-anchor="start" x="210" y="-1329.5" font-family="Helvetica,sans-Serif" font-size="10.00">$stopTime</text>
<text text-anchor="start" x="197" y="-1314.5" font-family="Helvetica,sans-Serif" font-size="10.00">+</text>
<text text-anchor="start" x="210" y="-1314.5" font-family="Helvetica,sans-Serif" font-size="10.00">$tickRateTime</text>
<text text-anchor="start" x="197" y="-1299.5" font-family="Helvetica,sans-Serif" font-size="10.00">+</text>
<text text-anchor="start" x="210" y="-1299.5" font-family="Helvetica,sans-Serif" font-size="10.00">$updateEntities</text>
<text text-anchor="start" x="197" y="-1284.5" font-family="Helvetica,sans-Serif" font-size="10.00">+</text>
<text text-anchor="start" x="210" y="-1284.5" font-family="Helvetica,sans-Serif" font-size="10.00">DEFAULT_TICKED_BLOCKS</text>
<text text-anchor="start" x="210" y="-1273.5" font-family="Helvetica,sans-Serif" font-size="10.00">_PER_SUBCHUNK_PER_TICK</text>
<text text-anchor="start" x="197" y="-1258.5" font-family="Helvetica,sans-Serif" font-size="10.00">+</text>
<text text-anchor="start" x="210" y="-1258.5" font-family="Helvetica,sans-Serif" font-size="10.00">DIFFICULTY_EASY</text>
<text text-anchor="start" x="197" y="-1243.5" font-family="Helvetica,sans-Serif" font-size="10.00">+</text>
<text text-anchor="start" x="210" y="-1243.5" font-family="Helvetica,sans-Serif" font-size="10.00">DIFFICULTY_HARD</text>
<text text-anchor="start" x="197" y="-1228.5" font-family="Helvetica,sans-Serif" font-size="10.00">+</text>
<text text-anchor="start" x="210" y="-1228.5" font-family="Helvetica,sans-Serif" font-size="10.00">DIFFICULTY_NORMAL</text>
<text text-anchor="start" x="197" y="-1213.5" font-family="Helvetica,sans-Serif" font-size="10.00">+</text>
<text text-anchor="start" x="210" y="-1213.5" font-family="Helvetica,sans-Serif" font-size="10.00">DIFFICULTY_PEACEFUL</text>
<text text-anchor="start" x="197" y="-1198.5" font-family="Helvetica,sans-Serif" font-size="10.00">+</text>
<text text-anchor="start" x="210" y="-1198.5" font-family="Helvetica,sans-Serif" font-size="10.00">TIME_DAY</text>
<text text-anchor="start" x="197" y="-1183.5" font-family="Helvetica,sans-Serif" font-size="10.00">+</text>
<text text-anchor="start" x="210" y="-1183.5" font-family="Helvetica,sans-Serif" font-size="10.00">TIME_FULL</text>
<text text-anchor="start" x="210" y="-1168.5" font-family="Helvetica,sans-Serif" font-size="10.00">and 7 more...</text>
<text text-anchor="start" x="197" y="-1153.5" font-family="Helvetica,sans-Serif" font-size="10.00">+</text>
<text text-anchor="start" x="210" y="-1153.5" font-family="Helvetica,sans-Serif" font-size="10.00">__construct()</text>
<text text-anchor="start" x="197" y="-1138.5" font-family="Helvetica,sans-Serif" font-size="10.00">+</text>
<text text-anchor="start" x="210" y="-1138.5" font-family="Helvetica,sans-Serif" font-size="10.00">__debugInfo()</text>
<text text-anchor="start" x="197" y="-1123.5" font-family="Helvetica,sans-Serif" font-size="10.00">+</text>
<text text-anchor="start" x="210" y="-1123.5" font-family="Helvetica,sans-Serif" font-size="10.00">addEntity()</text>
<text text-anchor="start" x="197" y="-1108.5" font-family="Helvetica,sans-Serif" font-size="10.00">+</text>
<text text-anchor="start" x="210" y="-1108.5" font-family="Helvetica,sans-Serif" font-size="10.00">addOnUnloadCallback()</text>
<text text-anchor="start" x="197" y="-1093.5" font-family="Helvetica,sans-Serif" font-size="10.00">+</text>
<text text-anchor="start" x="210" y="-1093.5" font-family="Helvetica,sans-Serif" font-size="10.00">addParticle()</text>
<text text-anchor="start" x="197" y="-1078.5" font-family="Helvetica,sans-Serif" font-size="10.00">+</text>
<text text-anchor="start" x="210" y="-1078.5" font-family="Helvetica,sans-Serif" font-size="10.00">addRandomTickedBlock()</text>
<text text-anchor="start" x="197" y="-1063.5" font-family="Helvetica,sans-Serif" font-size="10.00">+</text>
<text text-anchor="start" x="210" y="-1063.5" font-family="Helvetica,sans-Serif" font-size="10.00">addSound()</text>
<text text-anchor="start" x="197" y="-1048.5" font-family="Helvetica,sans-Serif" font-size="10.00">+</text>
<text text-anchor="start" x="210" y="-1048.5" font-family="Helvetica,sans-Serif" font-size="10.00">addTile()</text>
<text text-anchor="start" x="197" y="-1033.5" font-family="Helvetica,sans-Serif" font-size="10.00">+</text>
<text text-anchor="start" x="210" y="-1033.5" font-family="Helvetica,sans-Serif" font-size="10.00">broadcastPacketToViewers()</text>
<text text-anchor="start" x="197" y="-1018.5" font-family="Helvetica,sans-Serif" font-size="10.00">+</text>
<text text-anchor="start" x="210" y="-1018.5" font-family="Helvetica,sans-Serif" font-size="10.00">cancelUnloadChunkRequest()</text>
<text text-anchor="start" x="210" y="-1003.5" font-family="Helvetica,sans-Serif" font-size="10.00">and 123 more...</text>
<text text-anchor="start" x="197" y="-988.5" font-family="Helvetica,sans-Serif" font-size="10.00">+</text>
<text text-anchor="start" x="210" y="-988.5" font-family="Helvetica,sans-Serif" font-size="10.00">blockHash()</text>
<text text-anchor="start" x="197" y="-973.5" font-family="Helvetica,sans-Serif" font-size="10.00">+</text>
<text text-anchor="start" x="210" y="-973.5" font-family="Helvetica,sans-Serif" font-size="10.00">chunkBlockHash()</text>
<text text-anchor="start" x="197" y="-958.5" font-family="Helvetica,sans-Serif" font-size="10.00">+</text>
<text text-anchor="start" x="210" y="-958.5" font-family="Helvetica,sans-Serif" font-size="10.00">chunkHash()</text>
<text text-anchor="start" x="197" y="-943.5" font-family="Helvetica,sans-Serif" font-size="10.00">+</text>
<text text-anchor="start" x="210" y="-943.5" font-family="Helvetica,sans-Serif" font-size="10.00">getBlockXYZ()</text>
<text text-anchor="start" x="197" y="-928.5" font-family="Helvetica,sans-Serif" font-size="10.00">+</text>
<text text-anchor="start" x="210" y="-928.5" font-family="Helvetica,sans-Serif" font-size="10.00">getDifficultyFromString()</text>
<text text-anchor="start" x="197" y="-913.5" font-family="Helvetica,sans-Serif" font-size="10.00">+</text>
<text text-anchor="start" x="210" y="-913.5" font-family="Helvetica,sans-Serif" font-size="10.00">getXZ()</text>
<text text-anchor="start" x="197" y="-898.5" font-family="Helvetica,sans-Serif" font-size="10.00">#</text>
<text text-anchor="start" x="210" y="-898.5" font-family="Helvetica,sans-Serif" font-size="10.00">actuallyDoTick()</text>
<polygon fill="#666666" stroke="#666666" points="193,-1339.5 193,-1339.5 359,-1339.5 359,-1339.5 193,-1339.5"/>
<polygon fill="#666666" stroke="#666666" points="193,-1163.5 193,-1163.5 208,-1163.5 208,-1163.5 193,-1163.5"/>
<polygon fill="#666666" stroke="#666666" points="208,-1163.5 208,-1163.5 359,-1163.5 359,-1163.5 208,-1163.5"/>
<polygon fill="none" stroke="#666666" points="193,-892 193,-1357 359,-1357 359,-892 193,-892"/>
</a>
</g>
</g>
<!-- Node6&#45;&gt;Node4 -->
<g id="edge5_Node000004_Node000006" class="edge">
<title>Node6&#45;&gt;Node4</title>
<g id="a_edge5_Node000004_Node000006"><a xlink:title=" ">
<path fill="none" stroke="#63b8ff" d="M276,-891.99C276,-879.96 276,-868.31 276,-857.27"/>
<polygon fill="none" stroke="#63b8ff" points="276,-857.09 272,-851.09 276,-845.09 280,-851.09 276,-857.09"/>
</a>
</g>
<text text-anchor="middle" x="298.5" y="-866" font-family="Helvetica,sans-Serif" font-size="10.00" fill="grey"> +$world</text>
</g>
<!-- Node7 -->
<g id="Node000007" class="node">
<title>Node7</title>
<g id="a_Node000007"><a xlink:href="../../d0/d03/interfacepocketmine_1_1world_1_1_chunk_manager.html" target="_top" xlink:title=" ">
<polygon fill="white" stroke="transparent" points="174,-1599 0,-1599 0,-1460 174,-1460 174,-1599"/>
<text text-anchor="start" x="5" y="-1586.5" font-family="Helvetica,sans-Serif" font-size="10.00">pocketmine\world\ChunkManager</text>
<text text-anchor="start" x="85" y="-1571.5" font-family="Helvetica,sans-Serif" font-size="10.00"> </text>
<text text-anchor="start" x="27" y="-1556.5" font-family="Helvetica,sans-Serif" font-size="10.00">+</text>
<text text-anchor="start" x="63" y="-1556.5" font-family="Helvetica,sans-Serif" font-size="10.00">getBlockAt()</text>
<text text-anchor="start" x="27" y="-1541.5" font-family="Helvetica,sans-Serif" font-size="10.00">+</text>
<text text-anchor="start" x="63" y="-1541.5" font-family="Helvetica,sans-Serif" font-size="10.00">getChunk()</text>
<text text-anchor="start" x="27" y="-1526.5" font-family="Helvetica,sans-Serif" font-size="10.00">+</text>
<text text-anchor="start" x="63" y="-1526.5" font-family="Helvetica,sans-Serif" font-size="10.00">getMaxY()</text>
<text text-anchor="start" x="27" y="-1511.5" font-family="Helvetica,sans-Serif" font-size="10.00">+</text>
<text text-anchor="start" x="63" y="-1511.5" font-family="Helvetica,sans-Serif" font-size="10.00">getMinY()</text>
<text text-anchor="start" x="27" y="-1496.5" font-family="Helvetica,sans-Serif" font-size="10.00">+</text>
<text text-anchor="start" x="63" y="-1496.5" font-family="Helvetica,sans-Serif" font-size="10.00">isInWorld()</text>
<text text-anchor="start" x="27" y="-1481.5" font-family="Helvetica,sans-Serif" font-size="10.00">+</text>
<text text-anchor="start" x="63" y="-1481.5" font-family="Helvetica,sans-Serif" font-size="10.00">setBlockAt()</text>
<text text-anchor="start" x="27" y="-1466.5" font-family="Helvetica,sans-Serif" font-size="10.00">+</text>
<text text-anchor="start" x="63" y="-1466.5" font-family="Helvetica,sans-Serif" font-size="10.00">setChunk()</text>
<polygon fill="#bfbfbf" stroke="#bfbfbf" points="0,-1581.5 0,-1581.5 174,-1581.5 174,-1581.5 0,-1581.5"/>
<polygon fill="#bfbfbf" stroke="#bfbfbf" points="0,-1566.5 0,-1566.5 174,-1566.5 174,-1566.5 0,-1566.5"/>
<polygon fill="none" stroke="#bfbfbf" points="0,-1460 0,-1599 174,-1599 174,-1460 0,-1460"/>
</a>
</g>
</g>
<!-- Node7&#45;&gt;Node6 -->
<g id="edge6_Node000006_Node000007" class="edge">
<title>Node7&#45;&gt;Node6</title>
<g id="a_edge6_Node000006_Node000007"><a xlink:title=" ">
<path fill="none" stroke="#63b8ff" d="M133.74,-1451.11C150.49,-1422.06 168.94,-1388.46 184,-1357 186.99,-1350.76 189.96,-1344.39 192.91,-1337.94"/>
<polygon fill="none" stroke="#63b8ff" points="130.59,-1449.56 128.6,-1459.97 136.65,-1453.07 130.59,-1449.56"/>
</a>
</g>
</g>
<!-- Node8 -->
<g id="Node000008" class="node">
<title>Node8</title>
<g id="a_Node000008"><a xlink:href="../../d7/d08/classpocketmine_1_1world_1_1_world_timings.html" target="_top" xlink:title=" ">
<polygon fill="white" stroke="transparent" points="359.5,-1655 192.5,-1655 192.5,-1404 359.5,-1404 359.5,-1655"/>
<text text-anchor="start" x="198" y="-1642.5" font-family="Helvetica,sans-Serif" font-size="10.00">pocketmine\world\WorldTimings</text>
<text text-anchor="start" x="197" y="-1627.5" font-family="Helvetica,sans-Serif" font-size="10.00">+</text>
<text text-anchor="start" x="210" y="-1627.5" font-family="Helvetica,sans-Serif" font-size="10.00">$randomChunkUpdatesChunk</text>
<text text-anchor="start" x="210" y="-1616.5" font-family="Helvetica,sans-Serif" font-size="10.00">Selection</text>
<text text-anchor="start" x="197" y="-1601.5" font-family="Helvetica,sans-Serif" font-size="10.00">+</text>
<text text-anchor="start" x="210" y="-1601.5" font-family="Helvetica,sans-Serif" font-size="10.00">$scheduledBlockUpdates</text>
<text text-anchor="start" x="197" y="-1586.5" font-family="Helvetica,sans-Serif" font-size="10.00">+</text>
<text text-anchor="start" x="210" y="-1586.5" font-family="Helvetica,sans-Serif" font-size="10.00">$setBlock</text>
<text text-anchor="start" x="197" y="-1571.5" font-family="Helvetica,sans-Serif" font-size="10.00">+</text>
<text text-anchor="start" x="210" y="-1571.5" font-family="Helvetica,sans-Serif" font-size="10.00">$syncChunkLoad</text>
<text text-anchor="start" x="197" y="-1556.5" font-family="Helvetica,sans-Serif" font-size="10.00">+</text>
<text text-anchor="start" x="210" y="-1556.5" font-family="Helvetica,sans-Serif" font-size="10.00">$syncChunkLoadData</text>
<text text-anchor="start" x="197" y="-1541.5" font-family="Helvetica,sans-Serif" font-size="10.00">+</text>
<text text-anchor="start" x="210" y="-1541.5" font-family="Helvetica,sans-Serif" font-size="10.00">$syncChunkLoadEntities</text>
<text text-anchor="start" x="197" y="-1526.5" font-family="Helvetica,sans-Serif" font-size="10.00">+</text>
<text text-anchor="start" x="210" y="-1526.5" font-family="Helvetica,sans-Serif" font-size="10.00">$syncChunkLoadFixInvalid</text>
<text text-anchor="start" x="210" y="-1515.5" font-family="Helvetica,sans-Serif" font-size="10.00">Blocks</text>
<text text-anchor="start" x="197" y="-1500.5" font-family="Helvetica,sans-Serif" font-size="10.00">+</text>
<text text-anchor="start" x="210" y="-1500.5" font-family="Helvetica,sans-Serif" font-size="10.00">$syncChunkLoadTileEntities</text>
<text text-anchor="start" x="197" y="-1485.5" font-family="Helvetica,sans-Serif" font-size="10.00">+</text>
<text text-anchor="start" x="210" y="-1485.5" font-family="Helvetica,sans-Serif" font-size="10.00">$syncChunkSave</text>
<text text-anchor="start" x="197" y="-1470.5" font-family="Helvetica,sans-Serif" font-size="10.00">+</text>
<text text-anchor="start" x="210" y="-1470.5" font-family="Helvetica,sans-Serif" font-size="10.00">$syncChunkSend</text>
<text text-anchor="start" x="197" y="-1455.5" font-family="Helvetica,sans-Serif" font-size="10.00">+</text>
<text text-anchor="start" x="210" y="-1455.5" font-family="Helvetica,sans-Serif" font-size="10.00">$syncChunkSendPrepare</text>
<text text-anchor="start" x="197" y="-1440.5" font-family="Helvetica,sans-Serif" font-size="10.00">+</text>
<text text-anchor="start" x="210" y="-1440.5" font-family="Helvetica,sans-Serif" font-size="10.00">$syncDataSave</text>
<text text-anchor="start" x="197" y="-1425.5" font-family="Helvetica,sans-Serif" font-size="10.00">+</text>
<text text-anchor="start" x="210" y="-1425.5" font-family="Helvetica,sans-Serif" font-size="10.00">$tileTick</text>
<text text-anchor="start" x="197" y="-1410.5" font-family="Helvetica,sans-Serif" font-size="10.00">+</text>
<text text-anchor="start" x="210" y="-1410.5" font-family="Helvetica,sans-Serif" font-size="10.00">__construct()</text>
<polygon fill="#bfbfbf" stroke="#bfbfbf" points="193,-1637.5 193,-1637.5 360,-1637.5 360,-1637.5 193,-1637.5"/>
<polygon fill="#bfbfbf" stroke="#bfbfbf" points="193,-1420.5 193,-1420.5 208,-1420.5 208,-1420.5 193,-1420.5"/>
<polygon fill="#bfbfbf" stroke="#bfbfbf" points="208,-1420.5 208,-1420.5 360,-1420.5 360,-1420.5 208,-1420.5"/>
<polygon fill="none" stroke="#bfbfbf" points="192.5,-1404 192.5,-1655 359.5,-1655 359.5,-1404 192.5,-1404"/>
</a>
</g>
</g>
<!-- Node8&#45;&gt;Node6 -->
<g id="edge7_Node000006_Node000008" class="edge">
<title>Node8&#45;&gt;Node6</title>
<g id="a_edge7_Node000006_Node000008"><a xlink:title=" ">
<path fill="none" stroke="#63b8ff" d="M276,-1403.75C276,-1392.6 276,-1381.08 276,-1369.35"/>
<polygon fill="none" stroke="#63b8ff" points="276,-1369.07 272,-1363.07 276,-1357.07 280,-1363.07 276,-1369.07"/>
</a>
</g>
<text text-anchor="middle" x="303.5" y="-1378" font-family="Helvetica,sans-Serif" font-size="10.00" fill="grey"> +$timings</text>
</g>
<!-- Node9 -->
<g id="Node000009" class="node">
<title>Node9</title>
<g id="a_Node000009"><a xlink:href="../../d7/d9b/classpocketmine_1_1timings_1_1_timings_handler.html" target="_top" xlink:title=" ">
<polygon fill="white" stroke="transparent" points="415,-2112 255,-2112 255,-1812 415,-1812 415,-2112"/>
<text text-anchor="start" x="286.5" y="-2100" font-family="Helvetica,sans-Serif" font-size="10.00">pocketmine\timings</text>
<text text-anchor="start" x="294.5" y="-2089" font-family="Helvetica,sans-Serif" font-size="10.00">\TimingsHandler</text>
<text text-anchor="start" x="333" y="-2074" font-family="Helvetica,sans-Serif" font-size="10.00"> </text>
<text text-anchor="start" x="259" y="-2059" font-family="Helvetica,sans-Serif" font-size="10.00">+</text>
<text text-anchor="start" x="272" y="-2059" font-family="Helvetica,sans-Serif" font-size="10.00">__construct()</text>
<text text-anchor="start" x="259" y="-2044" font-family="Helvetica,sans-Serif" font-size="10.00">+</text>
<text text-anchor="start" x="272" y="-2044" font-family="Helvetica,sans-Serif" font-size="10.00">getGroup()</text>
<text text-anchor="start" x="259" y="-2029" font-family="Helvetica,sans-Serif" font-size="10.00">+</text>
<text text-anchor="start" x="272" y="-2029" font-family="Helvetica,sans-Serif" font-size="10.00">getName()</text>
<text text-anchor="start" x="259" y="-2014" font-family="Helvetica,sans-Serif" font-size="10.00">+</text>
<text text-anchor="start" x="272" y="-2014" font-family="Helvetica,sans-Serif" font-size="10.00">reset()</text>
<text text-anchor="start" x="259" y="-1999" font-family="Helvetica,sans-Serif" font-size="10.00">+</text>
<text text-anchor="start" x="272" y="-1999" font-family="Helvetica,sans-Serif" font-size="10.00">startTiming()</text>
<text text-anchor="start" x="259" y="-1984" font-family="Helvetica,sans-Serif" font-size="10.00">+</text>
<text text-anchor="start" x="272" y="-1984" font-family="Helvetica,sans-Serif" font-size="10.00">stopTiming()</text>
<text text-anchor="start" x="259" y="-1969" font-family="Helvetica,sans-Serif" font-size="10.00">+</text>
<text text-anchor="start" x="272" y="-1969" font-family="Helvetica,sans-Serif" font-size="10.00">time()</text>
<text text-anchor="start" x="259" y="-1954" font-family="Helvetica,sans-Serif" font-size="10.00">+</text>
<text text-anchor="start" x="272" y="-1954" font-family="Helvetica,sans-Serif" font-size="10.00">getCollectCallbacks()</text>
<text text-anchor="start" x="259" y="-1939" font-family="Helvetica,sans-Serif" font-size="10.00">+</text>
<text text-anchor="start" x="272" y="-1939" font-family="Helvetica,sans-Serif" font-size="10.00">getReloadCallbacks()</text>
<text text-anchor="start" x="259" y="-1924" font-family="Helvetica,sans-Serif" font-size="10.00">+</text>
<text text-anchor="start" x="272" y="-1924" font-family="Helvetica,sans-Serif" font-size="10.00">getStartTime()</text>
<text text-anchor="start" x="259" y="-1909" font-family="Helvetica,sans-Serif" font-size="10.00">+</text>
<text text-anchor="start" x="272" y="-1909" font-family="Helvetica,sans-Serif" font-size="10.00">getToggleCallbacks()</text>
<text text-anchor="start" x="259" y="-1894" font-family="Helvetica,sans-Serif" font-size="10.00">+</text>
<text text-anchor="start" x="272" y="-1894" font-family="Helvetica,sans-Serif" font-size="10.00">isEnabled()</text>
<text text-anchor="start" x="259" y="-1879" font-family="Helvetica,sans-Serif" font-size="10.00">+</text>
<text text-anchor="start" x="272" y="-1879" font-family="Helvetica,sans-Serif" font-size="10.00">printCurrentThreadRecords()</text>
<text text-anchor="start" x="259" y="-1864" font-family="Helvetica,sans-Serif" font-size="10.00">+</text>
<text text-anchor="start" x="272" y="-1864" font-family="Helvetica,sans-Serif" font-size="10.00">reload()</text>
<text text-anchor="start" x="259" y="-1849" font-family="Helvetica,sans-Serif" font-size="10.00">+</text>
<text text-anchor="start" x="272" y="-1849" font-family="Helvetica,sans-Serif" font-size="10.00">requestPrintTimings()</text>
<text text-anchor="start" x="259" y="-1834" font-family="Helvetica,sans-Serif" font-size="10.00">+</text>
<text text-anchor="start" x="272" y="-1834" font-family="Helvetica,sans-Serif" font-size="10.00">setEnabled()</text>
<text text-anchor="start" x="259" y="-1819" font-family="Helvetica,sans-Serif" font-size="10.00">+</text>
<text text-anchor="start" x="272" y="-1819" font-family="Helvetica,sans-Serif" font-size="10.00">tick()</text>
<polygon fill="#666666" stroke="#666666" points="255,-2084 255,-2084 415,-2084 415,-2084 255,-2084"/>
<polygon fill="#666666" stroke="#666666" points="255,-2069 255,-2069 415,-2069 415,-2069 255,-2069"/>
<polygon fill="none" stroke="#666666" points="255,-1812 255,-2112 415,-2112 415,-1812 255,-1812"/>
</a>
</g>
</g>
<!-- Node9&#45;&gt;Node3 -->
<g id="edge9_Node000003_Node000009" class="edge">
<title>Node9&#45;&gt;Node3</title>
<g id="a_edge9_Node000003_Node000009"><a xlink:title=" ">
<path fill="none" stroke="#63b8ff" d="M401.41,-1811.62C403.11,-1805.72 404.65,-1799.83 406,-1794 432.46,-1679.75 420,-1647.78 420,-1530.5 420,-1530.5 420,-1530.5 420,-767 420,-730.51 413.63,-692.15 404.68,-656.26"/>
<polygon fill="none" stroke="#63b8ff" points="404.56,-655.8 399.19,-651 401.55,-644.19 406.93,-648.99 404.56,-655.8"/>
</a>
</g>
<text text-anchor="middle" x="447.5" y="-1122" font-family="Helvetica,sans-Serif" font-size="10.00" fill="grey"> #$timings</text>
</g>
<!-- Node9&#45;&gt;Node8 -->
<g id="edge8_Node000008_Node000009" class="edge">
<title>Node9&#45;&gt;Node8</title>
<g id="a_edge8_Node000008_Node000009"><a xlink:title=" ">
<path fill="none" stroke="#63b8ff" d="M255.83,-1811.57C254.01,-1805.71 252.39,-1799.84 251,-1794 241.37,-1753.41 241.71,-1708.47 246.17,-1667.37"/>
<polygon fill="none" stroke="#63b8ff" points="246.18,-1667.23 242.92,-1660.8 247.6,-1655.32 250.86,-1661.75 246.18,-1667.23"/>
</a>
</g>
<text text-anchor="middle" x="328.5" y="-1786" font-family="Helvetica,sans-Serif" font-size="10.00" fill="grey"> +$chunkPopulationCompletion</text>
<text text-anchor="middle" x="328.5" y="-1775" font-family="Helvetica,sans-Serif" font-size="10.00" fill="grey">+$chunkPopulationOrder</text>
<text text-anchor="middle" x="328.5" y="-1764" font-family="Helvetica,sans-Serif" font-size="10.00" fill="grey">+$doBlockLightUpdates</text>
<text text-anchor="middle" x="328.5" y="-1753" font-family="Helvetica,sans-Serif" font-size="10.00" fill="grey">+$doBlockSkyLightUpdates</text>
<text text-anchor="middle" x="328.5" y="-1742" font-family="Helvetica,sans-Serif" font-size="10.00" fill="grey">+$doChunkGC</text>
<text text-anchor="middle" x="328.5" y="-1731" font-family="Helvetica,sans-Serif" font-size="10.00" fill="grey">+$doChunkUnload</text>
<text text-anchor="middle" x="328.5" y="-1720" font-family="Helvetica,sans-Serif" font-size="10.00" fill="grey">+$doTick</text>
<text text-anchor="middle" x="328.5" y="-1709" font-family="Helvetica,sans-Serif" font-size="10.00" fill="grey">+$entityTick</text>
<text text-anchor="middle" x="328.5" y="-1698" font-family="Helvetica,sans-Serif" font-size="10.00" fill="grey">+$neighbourBlockUpdates</text>
<text text-anchor="middle" x="328.5" y="-1687" font-family="Helvetica,sans-Serif" font-size="10.00" fill="grey">+$randomChunkUpdates</text>
<text text-anchor="middle" x="328.5" y="-1676" font-family="Helvetica,sans-Serif" font-size="10.00" fill="grey">...</text>
</g>
<!-- Node10 -->
<g id="Node000010" class="node">
<title>Node10</title>
<g id="a_Node000010"><a xlink:href="../../d9/de1/interfacepocketmine_1_1block_1_1tile_1_1_container.html" target="_top" xlink:title=" ">
<polygon fill="white" stroke="transparent" points="574,-297.5 458,-297.5 458,-207.5 574,-207.5 574,-297.5"/>
<text text-anchor="start" x="463" y="-285.5" font-family="Helvetica,sans-Serif" font-size="10.00">pocketmine\block\tile</text>
<text text-anchor="start" x="490.5" y="-274.5" font-family="Helvetica,sans-Serif" font-size="10.00">\Container</text>
<text text-anchor="start" x="462.5" y="-259.5" font-family="Helvetica,sans-Serif" font-size="10.00">+</text>
<text text-anchor="start" x="476" y="-259.5" font-family="Helvetica,sans-Serif" font-size="10.00">TAG_ITEMS</text>
<text text-anchor="start" x="462.5" y="-244.5" font-family="Helvetica,sans-Serif" font-size="10.00">+</text>
<text text-anchor="start" x="476" y="-244.5" font-family="Helvetica,sans-Serif" font-size="10.00">TAG_LOCK</text>
<text text-anchor="start" x="462.5" y="-229.5" font-family="Helvetica,sans-Serif" font-size="10.00">+</text>
<text text-anchor="start" x="476" y="-229.5" font-family="Helvetica,sans-Serif" font-size="10.00">canOpenWith()</text>
<text text-anchor="start" x="462.5" y="-214.5" font-family="Helvetica,sans-Serif" font-size="10.00">+</text>
<text text-anchor="start" x="476" y="-214.5" font-family="Helvetica,sans-Serif" font-size="10.00">getRealInventory()</text>
<polygon fill="#bfbfbf" stroke="#bfbfbf" points="458,-269.5 458,-269.5 574,-269.5 574,-269.5 458,-269.5"/>
<polygon fill="#bfbfbf" stroke="#bfbfbf" points="458,-239.5 458,-239.5 474,-239.5 474,-239.5 458,-239.5"/>
<polygon fill="#bfbfbf" stroke="#bfbfbf" points="474,-239.5 474,-239.5 574,-239.5 574,-239.5 474,-239.5"/>
<polygon fill="none" stroke="#bfbfbf" points="458,-207.5 458,-297.5 574,-297.5 574,-207.5 458,-207.5"/>
</a>
</g>
</g>
<!-- Node10&#45;&gt;Node1 -->
<g id="edge10_Node000001_Node000010" class="edge">
<title>Node10&#45;&gt;Node1</title>
<g id="a_edge10_Node000001_Node000010"><a xlink:title=" ">
<path fill="none" stroke="#63b8ff" d="M516,-197.21C516,-182.38 516,-166.05 516,-150.32"/>
<polygon fill="none" stroke="#63b8ff" points="512.5,-197.21 516,-207.21 519.5,-197.21 512.5,-197.21"/>
</a>
</g>
</g>
<!-- Node11 -->
<g id="Node000011" class="node">
<title>Node11</title>
<g id="a_Node000011"><a xlink:href="../../d2/d91/interfacepocketmine_1_1inventory_1_1_inventory_holder.html" target="_top" xlink:title=" ">
<polygon fill="white" stroke="transparent" points="574.5,-529.5 457.5,-529.5 457.5,-469.5 574.5,-469.5 574.5,-529.5"/>
<text text-anchor="start" x="463" y="-517.5" font-family="Helvetica,sans-Serif" font-size="10.00">pocketmine\inventory</text>
<text text-anchor="start" x="475.5" y="-506.5" font-family="Helvetica,sans-Serif" font-size="10.00">\InventoryHolder</text>
<text text-anchor="start" x="514.5" y="-491.5" font-family="Helvetica,sans-Serif" font-size="10.00"> </text>
<text text-anchor="start" x="468.5" y="-476.5" font-family="Helvetica,sans-Serif" font-size="10.00">+</text>
<text text-anchor="start" x="488" y="-476.5" font-family="Helvetica,sans-Serif" font-size="10.00">getInventory()</text>
<polygon fill="#bfbfbf" stroke="#bfbfbf" points="458,-501.5 458,-501.5 575,-501.5 575,-501.5 458,-501.5"/>
<polygon fill="#bfbfbf" stroke="#bfbfbf" points="458,-486.5 458,-486.5 575,-486.5 575,-486.5 458,-486.5"/>
<polygon fill="none" stroke="#bfbfbf" points="457.5,-469.5 457.5,-529.5 574.5,-529.5 574.5,-469.5 457.5,-469.5"/>
</a>
</g>
</g>
<!-- Node11&#45;&gt;Node10 -->
<g id="edge11_Node000010_Node000011" class="edge">
<title>Node11&#45;&gt;Node10</title>
<g id="a_edge11_Node000010_Node000011"><a xlink:title=" ">
<path fill="none" stroke="#63b8ff" d="M516,-459.4C516,-415.36 516,-343.94 516,-297.85"/>
<polygon fill="none" stroke="#63b8ff" points="512.5,-459.43 516,-469.43 519.5,-459.43 512.5,-459.43"/>
</a>
</g>
</g>
<!-- Node12 -->
<g id="Node000012" class="node">
<title>Node12</title>
<g id="a_Node000012"><a xlink:href="../../d1/d55/interfacepocketmine_1_1block_1_1tile_1_1_nameable.html" target="_top" xlink:title=" ">
<polygon fill="white" stroke="transparent" points="716,-305 592,-305 592,-200 716,-200 716,-305"/>
<text text-anchor="start" x="601" y="-292.5" font-family="Helvetica,sans-Serif" font-size="10.00">pocketmine\block\tile</text>
<text text-anchor="start" x="627" y="-281.5" font-family="Helvetica,sans-Serif" font-size="10.00">\Nameable</text>
<text text-anchor="start" x="596" y="-266.5" font-family="Helvetica,sans-Serif" font-size="10.00">+</text>
<text text-anchor="start" x="609" y="-266.5" font-family="Helvetica,sans-Serif" font-size="10.00">TAG_CUSTOM_NAME</text>
<text text-anchor="start" x="596" y="-251.5" font-family="Helvetica,sans-Serif" font-size="10.00">+</text>
<text text-anchor="start" x="609" y="-251.5" font-family="Helvetica,sans-Serif" font-size="10.00">getDefaultName()</text>
<text text-anchor="start" x="596" y="-236.5" font-family="Helvetica,sans-Serif" font-size="10.00">+</text>
<text text-anchor="start" x="609" y="-236.5" font-family="Helvetica,sans-Serif" font-size="10.00">getName()</text>
<text text-anchor="start" x="596" y="-221.5" font-family="Helvetica,sans-Serif" font-size="10.00">+</text>
<text text-anchor="start" x="609" y="-221.5" font-family="Helvetica,sans-Serif" font-size="10.00">hasName()</text>
<text text-anchor="start" x="596" y="-206.5" font-family="Helvetica,sans-Serif" font-size="10.00">+</text>
<text text-anchor="start" x="609" y="-206.5" font-family="Helvetica,sans-Serif" font-size="10.00">setName()</text>
<polygon fill="#bfbfbf" stroke="#bfbfbf" points="592,-276.5 592,-276.5 716,-276.5 716,-276.5 592,-276.5"/>
<polygon fill="#bfbfbf" stroke="#bfbfbf" points="592,-261.5 592,-261.5 607,-261.5 607,-261.5 592,-261.5"/>
<polygon fill="#bfbfbf" stroke="#bfbfbf" points="607,-261.5 607,-261.5 716,-261.5 716,-261.5 607,-261.5"/>
<polygon fill="none" stroke="#bfbfbf" points="592,-200 592,-305 716,-305 716,-200 592,-200"/>
</a>
</g>
</g>
<!-- Node12&#45;&gt;Node1 -->
<g id="edge12_Node000001_Node000012" class="edge">
<title>Node12&#45;&gt;Node1</title>
<g id="a_edge12_Node000001_Node000012"><a xlink:title=" ">
<path fill="none" stroke="#63b8ff" d="M606.87,-191.56C596.3,-178.12 584.96,-163.7 574.01,-149.77"/>
<polygon fill="none" stroke="#63b8ff" points="604.41,-194.1 613.34,-199.79 609.91,-189.77 604.41,-194.1"/>
</a>
</g>
</g>
</g>
</svg>
