<?xml version="1.0" encoding="UTF-8" standalone="no"?>
<!DOCTYPE svg PUBLIC "-//W3C//DTD SVG 1.1//EN"
 "http://www.w3.org/Graphics/SVG/1.1/DTD/svg11.dtd">
<!-- Generated by graphviz version 2.43.0 (0)
 -->
<!-- Title: pocketmine\block\tile\Hopper Pages: 1 -->
<svg width="895pt" height="1856pt"
 viewBox="0.00 0.00 894.50 1856.00" xmlns="http://www.w3.org/2000/svg" xmlns:xlink="http://www.w3.org/1999/xlink">
<g id="graph0" class="graph" transform="scale(1 1) rotate(0) translate(4 1852)">
<title>pocketmine\block\tile\Hopper</title>
<polygon fill="white" stroke="transparent" points="-4,4 -4,-1852 890.5,-1852 890.5,4 -4,4"/>
<!-- Node1 -->
<g id="node1" class="node">
<title>Node1</title>
<g id="a_node1"><a xlink:title=" ">
<polygon fill="#bfbfbf" stroke="black" points="119.5,-0.5 119.5,-134.5 241.5,-134.5 241.5,-0.5 119.5,-0.5"/>
<text text-anchor="start" x="127.5" y="-122.5" font-family="Helvetica,sans-Serif" font-size="10.00">pocketmine\block\tile</text>
<text text-anchor="middle" x="180.5" y="-111.5" font-family="Helvetica,sans-Serif" font-size="10.00">\Hopper</text>
<polyline fill="none" stroke="black" points="119.5,-104.5 241.5,-104.5 "/>
<text text-anchor="middle" x="180.5" y="-92.5" font-family="Helvetica,sans-Serif" font-size="10.00"> </text>
<polyline fill="none" stroke="black" points="119.5,-85.5 241.5,-85.5 "/>
<text text-anchor="start" x="127.5" y="-73.5" font-family="Helvetica,sans-Serif" font-size="10.00">+ __construct()</text>
<text text-anchor="start" x="127.5" y="-62.5" font-family="Helvetica,sans-Serif" font-size="10.00">+ close()</text>
<text text-anchor="start" x="127.5" y="-51.5" font-family="Helvetica,sans-Serif" font-size="10.00">+ getDefaultName()</text>
<text text-anchor="start" x="127.5" y="-40.5" font-family="Helvetica,sans-Serif" font-size="10.00">+ getInventory()</text>
<text text-anchor="start" x="127.5" y="-29.5" font-family="Helvetica,sans-Serif" font-size="10.00">+ getRealInventory()</text>
<text text-anchor="start" x="127.5" y="-18.5" font-family="Helvetica,sans-Serif" font-size="10.00">+ readSaveData()</text>
<text text-anchor="start" x="127.5" y="-7.5" font-family="Helvetica,sans-Serif" font-size="10.00"># writeSaveData()</text>
</a>
</g>
</g>
<!-- Node2 -->
<g id="node2" class="node">
<title>Node2</title>
<g id="a_node2"><a xlink:href="../../dc/d0b/classpocketmine_1_1block_1_1tile_1_1_spawnable.html" target="_top" xlink:title=" ">
<polygon fill="white" stroke="#bfbfbf" points="247.5,-172.5 247.5,-317.5 437.5,-317.5 437.5,-172.5 247.5,-172.5"/>
<text text-anchor="start" x="255.5" y="-305.5" font-family="Helvetica,sans-Serif" font-size="10.00">pocketmine\block\tile</text>
<text text-anchor="middle" x="342.5" y="-294.5" font-family="Helvetica,sans-Serif" font-size="10.00">\Spawnable</text>
<polyline fill="none" stroke="#bfbfbf" points="247.5,-287.5 437.5,-287.5 "/>
<text text-anchor="middle" x="342.5" y="-275.5" font-family="Helvetica,sans-Serif" font-size="10.00"> </text>
<polyline fill="none" stroke="#bfbfbf" points="247.5,-268.5 437.5,-268.5 "/>
<text text-anchor="start" x="255.5" y="-256.5" font-family="Helvetica,sans-Serif" font-size="10.00">+ clearSpawnCompoundCache()</text>
<text text-anchor="start" x="255.5" y="-245.5" font-family="Helvetica,sans-Serif" font-size="10.00">+ getRenderUpdateBugWorkaround</text>
<text text-anchor="start" x="255.5" y="-234.5" font-family="Helvetica,sans-Serif" font-size="10.00">StateProperties()</text>
<text text-anchor="start" x="255.5" y="-223.5" font-family="Helvetica,sans-Serif" font-size="10.00">+ getSerializedSpawnCompound()</text>
<text text-anchor="start" x="255.5" y="-212.5" font-family="Helvetica,sans-Serif" font-size="10.00">+ getSpawnCompound()</text>
<text text-anchor="start" x="255.5" y="-201.5" font-family="Helvetica,sans-Serif" font-size="10.00">+ isDirty()</text>
<text text-anchor="start" x="255.5" y="-190.5" font-family="Helvetica,sans-Serif" font-size="10.00">+ setDirty()</text>
<text text-anchor="start" x="255.5" y="-179.5" font-family="Helvetica,sans-Serif" font-size="10.00"># addAdditionalSpawnData()</text>
</a>
</g>
</g>
<!-- Node2&#45;&gt;Node1 -->
<g id="edge1" class="edge">
<title>Node2&#45;&gt;Node1</title>
<path fill="none" stroke="midnightblue" d="M269.57,-164.99C260.17,-154.81 250.63,-144.48 241.46,-134.54"/>
<polygon fill="none" stroke="midnightblue" points="267.02,-167.39 276.37,-172.36 272.16,-162.64 267.02,-167.39"/>
</g>
<!-- Node3 -->
<g id="node3" class="node">
<title>Node3</title>
<g id="a_node3"><a xlink:href="../../d9/d74/classpocketmine_1_1block_1_1tile_1_1_tile.html" target="_top" xlink:title=" ">
<polygon fill="white" stroke="#bfbfbf" points="297.5,-355.5 297.5,-544.5 447.5,-544.5 447.5,-355.5 297.5,-355.5"/>
<text text-anchor="middle" x="372.5" y="-532.5" font-family="Helvetica,sans-Serif" font-size="10.00">pocketmine\block\tile\Tile</text>
<polyline fill="none" stroke="#bfbfbf" points="297.5,-525.5 447.5,-525.5 "/>
<text text-anchor="start" x="305.5" y="-513.5" font-family="Helvetica,sans-Serif" font-size="10.00">+ $closed</text>
<polyline fill="none" stroke="#bfbfbf" points="297.5,-506.5 447.5,-506.5 "/>
<text text-anchor="start" x="305.5" y="-494.5" font-family="Helvetica,sans-Serif" font-size="10.00">+ __construct()</text>
<text text-anchor="start" x="305.5" y="-483.5" font-family="Helvetica,sans-Serif" font-size="10.00">+ __destruct()</text>
<text text-anchor="start" x="305.5" y="-472.5" font-family="Helvetica,sans-Serif" font-size="10.00">+ close()</text>
<text text-anchor="start" x="305.5" y="-461.5" font-family="Helvetica,sans-Serif" font-size="10.00">+ copyDataFromItem()</text>
<text text-anchor="start" x="305.5" y="-450.5" font-family="Helvetica,sans-Serif" font-size="10.00">+ getBlock()</text>
<text text-anchor="start" x="305.5" y="-439.5" font-family="Helvetica,sans-Serif" font-size="10.00">+ getCleanedNBT()</text>
<text text-anchor="start" x="305.5" y="-428.5" font-family="Helvetica,sans-Serif" font-size="10.00">+ getPosition()</text>
<text text-anchor="start" x="305.5" y="-417.5" font-family="Helvetica,sans-Serif" font-size="10.00">+ isClosed()</text>
<text text-anchor="start" x="305.5" y="-406.5" font-family="Helvetica,sans-Serif" font-size="10.00">+ onBlockDestroyed()</text>
<text text-anchor="start" x="305.5" y="-395.5" font-family="Helvetica,sans-Serif" font-size="10.00">+ readSaveData()</text>
<text text-anchor="start" x="305.5" y="-384.5" font-family="Helvetica,sans-Serif" font-size="10.00">+ saveNBT()</text>
<text text-anchor="start" x="305.5" y="-373.5" font-family="Helvetica,sans-Serif" font-size="10.00"># onBlockDestroyedHook()</text>
<text text-anchor="start" x="305.5" y="-362.5" font-family="Helvetica,sans-Serif" font-size="10.00"># writeSaveData()</text>
</a>
</g>
</g>
<!-- Node3&#45;&gt;Node2 -->
<g id="edge2" class="edge">
<title>Node3&#45;&gt;Node2</title>
<path fill="none" stroke="midnightblue" d="M357.15,-345.11C355.77,-335.78 354.39,-326.47 353.07,-317.51"/>
<polygon fill="none" stroke="midnightblue" points="353.72,-345.84 358.64,-355.22 360.64,-344.82 353.72,-345.84"/>
</g>
<!-- Node4 -->
<g id="node4" class="node">
<title>Node4</title>
<g id="a_node4"><a xlink:title=" ">
<polygon fill="white" stroke="#bfbfbf" points="233,-1388.5 233,-1445.5 276,-1445.5 276,-1388.5 233,-1388.5"/>
<text text-anchor="middle" x="254.5" y="-1433.5" font-family="Helvetica,sans-Serif" font-size="10.00">const</text>
<polyline fill="none" stroke="#bfbfbf" points="233,-1426.5 276,-1426.5 "/>
<text text-anchor="middle" x="254.5" y="-1414.5" font-family="Helvetica,sans-Serif" font-size="10.00"> </text>
<polyline fill="none" stroke="#bfbfbf" points="233,-1407.5 276,-1407.5 "/>
<text text-anchor="middle" x="254.5" y="-1395.5" font-family="Helvetica,sans-Serif" font-size="10.00"> </text>
</a>
</g>
</g>
<!-- Node4&#45;&gt;Node3 -->
<g id="edge3" class="edge">
<title>Node4&#45;&gt;Node3</title>
<path fill="none" stroke="#404040" d="M276.09,-1397.54C294.28,-1380.75 319.5,-1354.33 333.5,-1326 348.56,-1295.52 359.94,-1209.81 363.5,-1176 386.59,-956.74 382.3,-698.14 377.28,-556.67"/>
<polygon fill="none" stroke="#404040" points="377.28,-556.59 373.06,-550.74 376.84,-544.6 381.06,-550.45 377.28,-556.59"/>
<text text-anchor="middle" x="404" y="-810" font-family="Helvetica,sans-Serif" font-size="10.00"> +TAG_ID</text>
<text text-anchor="middle" x="404" y="-799" font-family="Helvetica,sans-Serif" font-size="10.00">+TAG_X</text>
<text text-anchor="middle" x="404" y="-788" font-family="Helvetica,sans-Serif" font-size="10.00">+TAG_Y</text>
<text text-anchor="middle" x="404" y="-777" font-family="Helvetica,sans-Serif" font-size="10.00">+TAG_Z</text>
</g>
<!-- Node7 -->
<g id="node7" class="node">
<title>Node7</title>
<g id="a_node7"><a xlink:href="../../d4/d2b/classpocketmine_1_1world_1_1_world.html" target="_top" xlink:title=" ">
<polygon fill="white" stroke="black" points="430.5,-865.5 430.5,-1175.5 602.5,-1175.5 602.5,-865.5 430.5,-865.5"/>
<text text-anchor="middle" x="516.5" y="-1163.5" font-family="Helvetica,sans-Serif" font-size="10.00">pocketmine\world\World</text>
<polyline fill="none" stroke="black" points="430.5,-1156.5 602.5,-1156.5 "/>
<text text-anchor="start" x="438.5" y="-1144.5" font-family="Helvetica,sans-Serif" font-size="10.00">+ $stopTime</text>
<text text-anchor="start" x="438.5" y="-1133.5" font-family="Helvetica,sans-Serif" font-size="10.00">+ $tickRateTime</text>
<text text-anchor="start" x="438.5" y="-1122.5" font-family="Helvetica,sans-Serif" font-size="10.00">+ $updateEntities</text>
<text text-anchor="start" x="438.5" y="-1111.5" font-family="Helvetica,sans-Serif" font-size="10.00">+ TIME_SUNRISE</text>
<text text-anchor="start" x="438.5" y="-1100.5" font-family="Helvetica,sans-Serif" font-size="10.00">+ TIME_SUNSET</text>
<text text-anchor="start" x="438.5" y="-1089.5" font-family="Helvetica,sans-Serif" font-size="10.00">+ Y_MAX</text>
<text text-anchor="start" x="438.5" y="-1078.5" font-family="Helvetica,sans-Serif" font-size="10.00">+ Y_MIN</text>
<polyline fill="none" stroke="black" points="430.5,-1071.5 602.5,-1071.5 "/>
<text text-anchor="start" x="438.5" y="-1059.5" font-family="Helvetica,sans-Serif" font-size="10.00">+ __construct()</text>
<text text-anchor="start" x="438.5" y="-1048.5" font-family="Helvetica,sans-Serif" font-size="10.00">+ __debugInfo()</text>
<text text-anchor="start" x="438.5" y="-1037.5" font-family="Helvetica,sans-Serif" font-size="10.00">+ addEntity()</text>
<text text-anchor="start" x="438.5" y="-1026.5" font-family="Helvetica,sans-Serif" font-size="10.00">+ addOnUnloadCallback()</text>
<text text-anchor="start" x="438.5" y="-1015.5" font-family="Helvetica,sans-Serif" font-size="10.00">+ addParticle()</text>
<text text-anchor="start" x="438.5" y="-1004.5" font-family="Helvetica,sans-Serif" font-size="10.00">+ addRandomTickedBlock()</text>
<text text-anchor="start" x="438.5" y="-993.5" font-family="Helvetica,sans-Serif" font-size="10.00">+ addSound()</text>
<text text-anchor="start" x="438.5" y="-982.5" font-family="Helvetica,sans-Serif" font-size="10.00">+ addTile()</text>
<text text-anchor="start" x="438.5" y="-971.5" font-family="Helvetica,sans-Serif" font-size="10.00">+ broadcastPacketToViewers()</text>
<text text-anchor="start" x="438.5" y="-960.5" font-family="Helvetica,sans-Serif" font-size="10.00">+ cancelUnloadChunkRequest()</text>
<text text-anchor="start" x="438.5" y="-949.5" font-family="Helvetica,sans-Serif" font-size="10.00">and 113 more...</text>
<text text-anchor="start" x="438.5" y="-938.5" font-family="Helvetica,sans-Serif" font-size="10.00">+ blockHash()</text>
<text text-anchor="start" x="438.5" y="-927.5" font-family="Helvetica,sans-Serif" font-size="10.00">+ chunkBlockHash()</text>
<text text-anchor="start" x="438.5" y="-916.5" font-family="Helvetica,sans-Serif" font-size="10.00">+ chunkHash()</text>
<text text-anchor="start" x="438.5" y="-905.5" font-family="Helvetica,sans-Serif" font-size="10.00">+ getBlockXYZ()</text>
<text text-anchor="start" x="438.5" y="-894.5" font-family="Helvetica,sans-Serif" font-size="10.00">+ getDifficultyFromString()</text>
<text text-anchor="start" x="438.5" y="-883.5" font-family="Helvetica,sans-Serif" font-size="10.00">+ getXZ()</text>
<text text-anchor="start" x="438.5" y="-872.5" font-family="Helvetica,sans-Serif" font-size="10.00"># actuallyDoTick()</text>
</a>
</g>
</g>
<!-- Node4&#45;&gt;Node7 -->
<g id="edge8" class="edge">
<title>Node4&#45;&gt;Node7</title>
<path fill="none" stroke="#404040" d="M276.1,-1403.89C300.48,-1388.96 339.26,-1361.2 358.5,-1326 386.93,-1273.99 350.25,-1246.64 377.5,-1194 382.85,-1183.67 388.69,-1184.62 396.5,-1176 405.14,-1166.46 413.86,-1156.36 422.44,-1146.08"/>
<polygon fill="none" stroke="#404040" points="422.63,-1145.85 423.36,-1138.67 430.26,-1136.59 429.53,-1143.76 422.63,-1145.85"/>
<text text-anchor="start" x="377.5" y="-1318" font-family="Helvetica,sans-Serif" font-size="10.00"> +DEFAULT_TICKED_BLOCKS</text>
<text text-anchor="middle" x="447.5" y="-1307" font-family="Helvetica,sans-Serif" font-size="10.00">_PER_SUBCHUNK_PER_TICK</text>
<text text-anchor="middle" x="447.5" y="-1296" font-family="Helvetica,sans-Serif" font-size="10.00">+DIFFICULTY_EASY</text>
<text text-anchor="middle" x="447.5" y="-1285" font-family="Helvetica,sans-Serif" font-size="10.00">+DIFFICULTY_HARD</text>
<text text-anchor="middle" x="447.5" y="-1274" font-family="Helvetica,sans-Serif" font-size="10.00">+DIFFICULTY_NORMAL</text>
<text text-anchor="middle" x="447.5" y="-1263" font-family="Helvetica,sans-Serif" font-size="10.00">+DIFFICULTY_PEACEFUL</text>
<text text-anchor="middle" x="447.5" y="-1252" font-family="Helvetica,sans-Serif" font-size="10.00">+TIME_DAY</text>
<text text-anchor="middle" x="447.5" y="-1241" font-family="Helvetica,sans-Serif" font-size="10.00">+TIME_FULL</text>
<text text-anchor="middle" x="447.5" y="-1230" font-family="Helvetica,sans-Serif" font-size="10.00">+TIME_MIDNIGHT</text>
<text text-anchor="middle" x="447.5" y="-1219" font-family="Helvetica,sans-Serif" font-size="10.00">+TIME_NIGHT</text>
<text text-anchor="middle" x="447.5" y="-1208" font-family="Helvetica,sans-Serif" font-size="10.00">+TIME_NOON</text>
<text text-anchor="middle" x="447.5" y="-1197" font-family="Helvetica,sans-Serif" font-size="10.00">...</text>
</g>
<!-- Node11 -->
<g id="node11" class="node">
<title>Node11</title>
<g id="a_node11"><a xlink:href="../../d9/de1/interfacepocketmine_1_1block_1_1tile_1_1_container.html" target="_top" xlink:title=" ">
<polygon fill="white" stroke="#bfbfbf" points="33.5,-981 33.5,-1060 155.5,-1060 155.5,-981 33.5,-981"/>
<text text-anchor="start" x="41.5" y="-1048" font-family="Helvetica,sans-Serif" font-size="10.00">pocketmine\block\tile</text>
<text text-anchor="middle" x="94.5" y="-1037" font-family="Helvetica,sans-Serif" font-size="10.00">\Container</text>
<polyline fill="none" stroke="#bfbfbf" points="33.5,-1030 155.5,-1030 "/>
<text text-anchor="middle" x="94.5" y="-1018" font-family="Helvetica,sans-Serif" font-size="10.00"> </text>
<polyline fill="none" stroke="#bfbfbf" points="33.5,-1011 155.5,-1011 "/>
<text text-anchor="start" x="41.5" y="-999" font-family="Helvetica,sans-Serif" font-size="10.00">+ canOpenWith()</text>
<text text-anchor="start" x="41.5" y="-988" font-family="Helvetica,sans-Serif" font-size="10.00">+ getRealInventory()</text>
</a>
</g>
</g>
<!-- Node4&#45;&gt;Node11 -->
<g id="edge14" class="edge">
<title>Node4&#45;&gt;Node11</title>
<path fill="none" stroke="#404040" d="M232.97,-1402.82C208.61,-1388.03 167.61,-1363.57 131.5,-1344 115.77,-1335.48 104.93,-1341.2 95.5,-1326 70.06,-1284.99 80.4,-1147.58 88.42,-1072.14"/>
<polygon fill="none" stroke="#404040" points="88.43,-1072.08 85.11,-1065.68 89.73,-1060.15 93.06,-1066.55 88.43,-1072.08"/>
<text text-anchor="middle" x="129" y="-1263" font-family="Helvetica,sans-Serif" font-size="10.00"> +TAG_ITEMS</text>
<text text-anchor="middle" x="129" y="-1252" font-family="Helvetica,sans-Serif" font-size="10.00">+TAG_LOCK</text>
</g>
<!-- Node13 -->
<g id="node13" class="node">
<title>Node13</title>
<g id="a_node13"><a xlink:href="../../d1/d55/interfacepocketmine_1_1block_1_1tile_1_1_nameable.html" target="_top" xlink:title=" ">
<polygon fill="white" stroke="#bfbfbf" points="121.5,-745.5 121.5,-846.5 243.5,-846.5 243.5,-745.5 121.5,-745.5"/>
<text text-anchor="start" x="129.5" y="-834.5" font-family="Helvetica,sans-Serif" font-size="10.00">pocketmine\block\tile</text>
<text text-anchor="middle" x="182.5" y="-823.5" font-family="Helvetica,sans-Serif" font-size="10.00">\Nameable</text>
<polyline fill="none" stroke="#bfbfbf" points="121.5,-816.5 243.5,-816.5 "/>
<text text-anchor="middle" x="182.5" y="-804.5" font-family="Helvetica,sans-Serif" font-size="10.00"> </text>
<polyline fill="none" stroke="#bfbfbf" points="121.5,-797.5 243.5,-797.5 "/>
<text text-anchor="start" x="129.5" y="-785.5" font-family="Helvetica,sans-Serif" font-size="10.00">+ getDefaultName()</text>
<text text-anchor="start" x="129.5" y="-774.5" font-family="Helvetica,sans-Serif" font-size="10.00">+ getName()</text>
<text text-anchor="start" x="129.5" y="-763.5" font-family="Helvetica,sans-Serif" font-size="10.00">+ hasName()</text>
<text text-anchor="start" x="129.5" y="-752.5" font-family="Helvetica,sans-Serif" font-size="10.00">+ setName()</text>
</a>
</g>
</g>
<!-- Node4&#45;&gt;Node13 -->
<g id="edge16" class="edge">
<title>Node4&#45;&gt;Node13</title>
<path fill="none" stroke="#404040" d="M241.5,-1388.24C233.87,-1370.76 224.73,-1347.5 219.5,-1326 179.34,-1160.86 177.86,-958.81 180.16,-858.95"/>
<polygon fill="none" stroke="#404040" points="180.16,-858.71 176.32,-852.61 180.47,-846.71 184.31,-852.81 180.16,-858.71"/>
<text text-anchor="middle" x="276.5" y="-1257.5" font-family="Helvetica,sans-Serif" font-size="10.00"> +TAG_CUSTOM_NAME</text>
</g>
<!-- Node5 -->
<g id="node5" class="node">
<title>Node5</title>
<g id="a_node5"><a xlink:href="../../d5/dd2/classpocketmine_1_1world_1_1_position.html" target="_top" xlink:title=" ">
<polygon fill="white" stroke="#bfbfbf" points="208.5,-592.5 208.5,-726.5 354.5,-726.5 354.5,-592.5 208.5,-592.5"/>
<text text-anchor="middle" x="281.5" y="-714.5" font-family="Helvetica,sans-Serif" font-size="10.00">pocketmine\world\Position</text>
<polyline fill="none" stroke="#bfbfbf" points="208.5,-707.5 354.5,-707.5 "/>
<text text-anchor="middle" x="281.5" y="-695.5" font-family="Helvetica,sans-Serif" font-size="10.00"> </text>
<polyline fill="none" stroke="#bfbfbf" points="208.5,-688.5 354.5,-688.5 "/>
<text text-anchor="start" x="216.5" y="-676.5" font-family="Helvetica,sans-Serif" font-size="10.00">+ __construct()</text>
<text text-anchor="start" x="216.5" y="-665.5" font-family="Helvetica,sans-Serif" font-size="10.00">+ __toString()</text>
<text text-anchor="start" x="216.5" y="-654.5" font-family="Helvetica,sans-Serif" font-size="10.00">+ asPosition()</text>
<text text-anchor="start" x="216.5" y="-643.5" font-family="Helvetica,sans-Serif" font-size="10.00">+ equals()</text>
<text text-anchor="start" x="216.5" y="-632.5" font-family="Helvetica,sans-Serif" font-size="10.00">+ getSide()</text>
<text text-anchor="start" x="216.5" y="-621.5" font-family="Helvetica,sans-Serif" font-size="10.00">+ getWorld()</text>
<text text-anchor="start" x="216.5" y="-610.5" font-family="Helvetica,sans-Serif" font-size="10.00">+ isValid()</text>
<text text-anchor="start" x="216.5" y="-599.5" font-family="Helvetica,sans-Serif" font-size="10.00">+ fromObject()</text>
</a>
</g>
</g>
<!-- Node5&#45;&gt;Node3 -->
<g id="edge4" class="edge">
<title>Node5&#45;&gt;Node3</title>
<path fill="none" stroke="#404040" d="M300.42,-592.39C303.8,-582.43 307.53,-572.36 311.5,-563 312.5,-560.65 313.53,-558.29 314.59,-555.91"/>
<polygon fill="none" stroke="#404040" points="314.71,-555.66 313.59,-548.53 319.74,-544.76 320.85,-551.89 314.71,-555.66"/>
<text text-anchor="middle" x="340" y="-566" font-family="Helvetica,sans-Serif" font-size="10.00"> #$position</text>
</g>
<!-- Node6 -->
<g id="node6" class="node">
<title>Node6</title>
<g id="a_node6"><a xlink:href="../../d2/d90/classpocketmine_1_1math_1_1_vector3.html" target="_top" xlink:title=" ">
<polygon fill="white" stroke="#bfbfbf" points="212.5,-904 212.5,-1137 354.5,-1137 354.5,-904 212.5,-904"/>
<text text-anchor="middle" x="283.5" y="-1125" font-family="Helvetica,sans-Serif" font-size="10.00">pocketmine\math\Vector3</text>
<polyline fill="none" stroke="#bfbfbf" points="212.5,-1118 354.5,-1118 "/>
<text text-anchor="start" x="220.5" y="-1106" font-family="Helvetica,sans-Serif" font-size="10.00">+ $x</text>
<text text-anchor="start" x="220.5" y="-1095" font-family="Helvetica,sans-Serif" font-size="10.00">+ $y</text>
<text text-anchor="start" x="220.5" y="-1084" font-family="Helvetica,sans-Serif" font-size="10.00">+ $z</text>
<polyline fill="none" stroke="#bfbfbf" points="212.5,-1077 354.5,-1077 "/>
<text text-anchor="start" x="220.5" y="-1065" font-family="Helvetica,sans-Serif" font-size="10.00">+ __construct()</text>
<text text-anchor="start" x="220.5" y="-1054" font-family="Helvetica,sans-Serif" font-size="10.00">+ __toString()</text>
<text text-anchor="start" x="220.5" y="-1043" font-family="Helvetica,sans-Serif" font-size="10.00">+ abs()</text>
<text text-anchor="start" x="220.5" y="-1032" font-family="Helvetica,sans-Serif" font-size="10.00">+ add()</text>
<text text-anchor="start" x="220.5" y="-1021" font-family="Helvetica,sans-Serif" font-size="10.00">+ addVector()</text>
<text text-anchor="start" x="220.5" y="-1010" font-family="Helvetica,sans-Serif" font-size="10.00">+ asVector3()</text>
<text text-anchor="start" x="220.5" y="-999" font-family="Helvetica,sans-Serif" font-size="10.00">+ ceil()</text>
<text text-anchor="start" x="220.5" y="-988" font-family="Helvetica,sans-Serif" font-size="10.00">+ cross()</text>
<text text-anchor="start" x="220.5" y="-977" font-family="Helvetica,sans-Serif" font-size="10.00">+ distance()</text>
<text text-anchor="start" x="220.5" y="-966" font-family="Helvetica,sans-Serif" font-size="10.00">+ distanceSquared()</text>
<text text-anchor="start" x="220.5" y="-955" font-family="Helvetica,sans-Serif" font-size="10.00">and 32 more...</text>
<text text-anchor="start" x="220.5" y="-944" font-family="Helvetica,sans-Serif" font-size="10.00">+ maxComponents()</text>
<text text-anchor="start" x="220.5" y="-933" font-family="Helvetica,sans-Serif" font-size="10.00">+ minComponents()</text>
<text text-anchor="start" x="220.5" y="-922" font-family="Helvetica,sans-Serif" font-size="10.00">+ sum()</text>
<text text-anchor="start" x="220.5" y="-911" font-family="Helvetica,sans-Serif" font-size="10.00">+ zero()</text>
</a>
</g>
</g>
<!-- Node6&#45;&gt;Node5 -->
<g id="edge5" class="edge">
<title>Node6&#45;&gt;Node5</title>
<path fill="none" stroke="midnightblue" d="M282.8,-893.88C282.49,-837.55 282.13,-773.42 281.87,-726.65"/>
<polygon fill="none" stroke="midnightblue" points="279.3,-893.95 282.86,-903.93 286.3,-893.91 279.3,-893.95"/>
</g>
<!-- Node7&#45;&gt;Node5 -->
<g id="edge6" class="edge">
<title>Node7&#45;&gt;Node5</title>
<path fill="none" stroke="#404040" d="M492.02,-865.15C479.71,-822.94 461.23,-779.4 433.5,-745 415.67,-722.89 390.42,-705.62 365.61,-692.61"/>
<polygon fill="none" stroke="#404040" points="365.37,-692.5 358.22,-693.38 354.65,-687.12 361.8,-686.23 365.37,-692.5"/>
<text text-anchor="middle" x="506" y="-793.5" font-family="Helvetica,sans-Serif" font-size="10.00"> +$world</text>
</g>
<!-- Node8 -->
<g id="node8" class="node">
<title>Node8</title>
<g id="a_node8"><a xlink:href="../../d0/d03/interfacepocketmine_1_1world_1_1_chunk_manager.html" target="_top" xlink:title=" ">
<polygon fill="white" stroke="#bfbfbf" points="404.5,-1355.5 404.5,-1478.5 584.5,-1478.5 584.5,-1355.5 404.5,-1355.5"/>
<text text-anchor="middle" x="494.5" y="-1466.5" font-family="Helvetica,sans-Serif" font-size="10.00">pocketmine\world\ChunkManager</text>
<polyline fill="none" stroke="#bfbfbf" points="404.5,-1459.5 584.5,-1459.5 "/>
<text text-anchor="middle" x="494.5" y="-1447.5" font-family="Helvetica,sans-Serif" font-size="10.00"> </text>
<polyline fill="none" stroke="#bfbfbf" points="404.5,-1440.5 584.5,-1440.5 "/>
<text text-anchor="start" x="412.5" y="-1428.5" font-family="Helvetica,sans-Serif" font-size="10.00">+ getBlockAt()</text>
<text text-anchor="start" x="412.5" y="-1417.5" font-family="Helvetica,sans-Serif" font-size="10.00">+ getChunk()</text>
<text text-anchor="start" x="412.5" y="-1406.5" font-family="Helvetica,sans-Serif" font-size="10.00">+ getMaxY()</text>
<text text-anchor="start" x="412.5" y="-1395.5" font-family="Helvetica,sans-Serif" font-size="10.00">+ getMinY()</text>
<text text-anchor="start" x="412.5" y="-1384.5" font-family="Helvetica,sans-Serif" font-size="10.00">+ isInWorld()</text>
<text text-anchor="start" x="412.5" y="-1373.5" font-family="Helvetica,sans-Serif" font-size="10.00">+ setBlockAt()</text>
<text text-anchor="start" x="412.5" y="-1362.5" font-family="Helvetica,sans-Serif" font-size="10.00">+ setChunk()</text>
</a>
</g>
</g>
<!-- Node8&#45;&gt;Node7 -->
<g id="edge7" class="edge">
<title>Node8&#45;&gt;Node7</title>
<path fill="none" stroke="midnightblue" d="M517.85,-1345.06C519.33,-1338.67 520.58,-1332.25 521.5,-1326 528.62,-1277.48 529.93,-1224.15 528.69,-1175.86"/>
<polygon fill="none" stroke="midnightblue" points="514.38,-1344.51 515.38,-1355.06 521.18,-1346.19 514.38,-1344.51"/>
</g>
<!-- Node9 -->
<g id="node9" class="node">
<title>Node9</title>
<g id="a_node9"><a xlink:href="../../d7/d08/classpocketmine_1_1world_1_1_world_timings.html" target="_top" xlink:title=" ">
<polygon fill="white" stroke="#bfbfbf" points="603,-1344.5 603,-1489.5 776,-1489.5 776,-1344.5 603,-1344.5"/>
<text text-anchor="middle" x="689.5" y="-1477.5" font-family="Helvetica,sans-Serif" font-size="10.00">pocketmine\world\WorldTimings</text>
<polyline fill="none" stroke="#bfbfbf" points="603,-1470.5 776,-1470.5 "/>
<text text-anchor="start" x="611" y="-1458.5" font-family="Helvetica,sans-Serif" font-size="10.00">+ $syncChunkLoad</text>
<text text-anchor="start" x="611" y="-1447.5" font-family="Helvetica,sans-Serif" font-size="10.00">+ $syncChunkLoadData</text>
<text text-anchor="start" x="611" y="-1436.5" font-family="Helvetica,sans-Serif" font-size="10.00">+ $syncChunkLoadEntities</text>
<text text-anchor="start" x="611" y="-1425.5" font-family="Helvetica,sans-Serif" font-size="10.00">+ $syncChunkLoadFixInvalid</text>
<text text-anchor="start" x="611" y="-1414.5" font-family="Helvetica,sans-Serif" font-size="10.00">Blocks</text>
<text text-anchor="start" x="611" y="-1403.5" font-family="Helvetica,sans-Serif" font-size="10.00">+ $syncChunkLoadTileEntities</text>
<text text-anchor="start" x="611" y="-1392.5" font-family="Helvetica,sans-Serif" font-size="10.00">+ $syncChunkSave</text>
<text text-anchor="start" x="611" y="-1381.5" font-family="Helvetica,sans-Serif" font-size="10.00">+ $syncChunkSend</text>
<text text-anchor="start" x="611" y="-1370.5" font-family="Helvetica,sans-Serif" font-size="10.00">+ $syncChunkSendPrepare</text>
<polyline fill="none" stroke="#bfbfbf" points="603,-1363.5 776,-1363.5 "/>
<text text-anchor="start" x="611" y="-1351.5" font-family="Helvetica,sans-Serif" font-size="10.00">+ __construct()</text>
</a>
</g>
</g>
<!-- Node9&#45;&gt;Node7 -->
<g id="edge9" class="edge">
<title>Node9&#45;&gt;Node7</title>
<path fill="none" stroke="#404040" d="M657.97,-1344.1C638.69,-1300.13 613.18,-1241.96 589.14,-1187.14"/>
<polygon fill="none" stroke="#404040" points="589.01,-1186.85 582.94,-1182.96 584.19,-1175.86 590.26,-1179.75 589.01,-1186.85"/>
<text text-anchor="middle" x="675" y="-1257.5" font-family="Helvetica,sans-Serif" font-size="10.00"> +$timings</text>
</g>
<!-- Node10 -->
<g id="node10" class="node">
<title>Node10</title>
<g id="a_node10"><a xlink:href="../../d7/d9b/classpocketmine_1_1timings_1_1_timings_handler.html" target="_top" xlink:title=" ">
<polygon fill="white" stroke="#bfbfbf" points="690,-1658.5 690,-1847.5 803,-1847.5 803,-1658.5 690,-1658.5"/>
<text text-anchor="start" x="698" y="-1835.5" font-family="Helvetica,sans-Serif" font-size="10.00">pocketmine\timings</text>
<text text-anchor="middle" x="746.5" y="-1824.5" font-family="Helvetica,sans-Serif" font-size="10.00">\TimingsHandler</text>
<polyline fill="none" stroke="#bfbfbf" points="690,-1817.5 803,-1817.5 "/>
<text text-anchor="middle" x="746.5" y="-1805.5" font-family="Helvetica,sans-Serif" font-size="10.00"> </text>
<polyline fill="none" stroke="#bfbfbf" points="690,-1798.5 803,-1798.5 "/>
<text text-anchor="start" x="698" y="-1786.5" font-family="Helvetica,sans-Serif" font-size="10.00">+ __construct()</text>
<text text-anchor="start" x="698" y="-1775.5" font-family="Helvetica,sans-Serif" font-size="10.00">+ destroyCycles()</text>
<text text-anchor="start" x="698" y="-1764.5" font-family="Helvetica,sans-Serif" font-size="10.00">+ getName()</text>
<text text-anchor="start" x="698" y="-1753.5" font-family="Helvetica,sans-Serif" font-size="10.00">+ startTiming()</text>
<text text-anchor="start" x="698" y="-1742.5" font-family="Helvetica,sans-Serif" font-size="10.00">+ stopTiming()</text>
<text text-anchor="start" x="698" y="-1731.5" font-family="Helvetica,sans-Serif" font-size="10.00">+ time()</text>
<text text-anchor="start" x="698" y="-1720.5" font-family="Helvetica,sans-Serif" font-size="10.00">+ getStartTime()</text>
<text text-anchor="start" x="698" y="-1709.5" font-family="Helvetica,sans-Serif" font-size="10.00">+ isEnabled()</text>
<text text-anchor="start" x="698" y="-1698.5" font-family="Helvetica,sans-Serif" font-size="10.00">+ printTimings()</text>
<text text-anchor="start" x="698" y="-1687.5" font-family="Helvetica,sans-Serif" font-size="10.00">+ reload()</text>
<text text-anchor="start" x="698" y="-1676.5" font-family="Helvetica,sans-Serif" font-size="10.00">+ setEnabled()</text>
<text text-anchor="start" x="698" y="-1665.5" font-family="Helvetica,sans-Serif" font-size="10.00">+ tick()</text>
</a>
</g>
</g>
<!-- Node10&#45;&gt;Node3 -->
<g id="edge11" class="edge">
<title>Node10&#45;&gt;Node3</title>
<path fill="none" stroke="#404040" d="M803.03,-1673.36C808.78,-1662.55 813.84,-1651.28 817.5,-1640 848.03,-1545.97 831.5,-1516.86 831.5,-1418 831.5,-1418 831.5,-1418 831.5,-658.5 831.5,-497.05 592.8,-460.55 459.67,-452.74"/>
<polygon fill="none" stroke="#404040" points="459.51,-452.74 453.3,-456.41 447.52,-452.09 453.73,-448.42 459.51,-452.74"/>
<text text-anchor="middle" x="859" y="-1018" font-family="Helvetica,sans-Serif" font-size="10.00"> #$timings</text>
</g>
<!-- Node10&#45;&gt;Node9 -->
<g id="edge10" class="edge">
<title>Node10&#45;&gt;Node9</title>
<path fill="none" stroke="#404040" d="M689.87,-1689.96C679.05,-1674.66 669.3,-1657.58 663.5,-1640 648.82,-1595.54 653.75,-1543.67 663.07,-1501.26"/>
<polygon fill="none" stroke="#404040" points="663.08,-1501.25 660.55,-1494.5 665.81,-1489.56 668.34,-1496.32 663.08,-1501.25"/>
<text text-anchor="middle" x="740.5" y="-1632" font-family="Helvetica,sans-Serif" font-size="10.00"> +$doBlockLightUpdates</text>
<text text-anchor="middle" x="740.5" y="-1621" font-family="Helvetica,sans-Serif" font-size="10.00">+$doBlockSkyLightUpdates</text>
<text text-anchor="middle" x="740.5" y="-1610" font-family="Helvetica,sans-Serif" font-size="10.00">+$doChunkGC</text>
<text text-anchor="middle" x="740.5" y="-1599" font-family="Helvetica,sans-Serif" font-size="10.00">+$doChunkUnload</text>
<text text-anchor="middle" x="740.5" y="-1588" font-family="Helvetica,sans-Serif" font-size="10.00">+$doTick</text>
<text text-anchor="middle" x="740.5" y="-1577" font-family="Helvetica,sans-Serif" font-size="10.00">+$entityTick</text>
<text text-anchor="middle" x="740.5" y="-1566" font-family="Helvetica,sans-Serif" font-size="10.00">+$randomChunkUpdates</text>
<text text-anchor="start" x="663.5" y="-1555" font-family="Helvetica,sans-Serif" font-size="10.00">+$randomChunkUpdatesChunk</text>
<text text-anchor="middle" x="740.5" y="-1544" font-family="Helvetica,sans-Serif" font-size="10.00">Selection</text>
<text text-anchor="middle" x="740.5" y="-1533" font-family="Helvetica,sans-Serif" font-size="10.00">+$scheduledBlockUpdates</text>
<text text-anchor="middle" x="740.5" y="-1522" font-family="Helvetica,sans-Serif" font-size="10.00">+$setBlock</text>
<text text-anchor="middle" x="740.5" y="-1511" font-family="Helvetica,sans-Serif" font-size="10.00">...</text>
</g>
<!-- Node11&#45;&gt;Node1 -->
<g id="edge12" class="edge">
<title>Node11&#45;&gt;Node1</title>
<path fill="none" stroke="midnightblue" d="M95.83,-970.85C97.6,-901.83 100.5,-771.52 100.5,-660.5 100.5,-660.5 100.5,-660.5 100.5,-244 100.5,-205.49 116.64,-166.17 134.43,-134.53"/>
<polygon fill="none" stroke="midnightblue" points="92.33,-970.9 95.57,-980.99 99.32,-971.08 92.33,-970.9"/>
</g>
<!-- Node12 -->
<g id="node12" class="node">
<title>Node12</title>
<g id="a_node12"><a xlink:href="../../d2/d91/interfacepocketmine_1_1inventory_1_1_inventory_holder.html" target="_top" xlink:title=" ">
<polygon fill="white" stroke="#bfbfbf" points="0,-1383 0,-1451 123,-1451 123,-1383 0,-1383"/>
<text text-anchor="start" x="8" y="-1439" font-family="Helvetica,sans-Serif" font-size="10.00">pocketmine\inventory</text>
<text text-anchor="middle" x="61.5" y="-1428" font-family="Helvetica,sans-Serif" font-size="10.00">\InventoryHolder</text>
<polyline fill="none" stroke="#bfbfbf" points="0,-1421 123,-1421 "/>
<text text-anchor="middle" x="61.5" y="-1409" font-family="Helvetica,sans-Serif" font-size="10.00"> </text>
<polyline fill="none" stroke="#bfbfbf" points="0,-1402 123,-1402 "/>
<text text-anchor="start" x="8" y="-1390" font-family="Helvetica,sans-Serif" font-size="10.00">+ getInventory()</text>
</a>
</g>
</g>
<!-- Node12&#45;&gt;Node11 -->
<g id="edge13" class="edge">
<title>Node12&#45;&gt;Node11</title>
<path fill="none" stroke="midnightblue" d="M63.63,-1372.64C65.98,-1327.86 70.14,-1255.98 75.5,-1194 79.49,-1147.92 85.52,-1095.08 89.72,-1060.16"/>
<polygon fill="none" stroke="midnightblue" points="60.13,-1372.7 63.11,-1382.87 67.12,-1373.06 60.13,-1372.7"/>
</g>
<!-- Node13&#45;&gt;Node1 -->
<g id="edge15" class="edge">
<title>Node13&#45;&gt;Node1</title>
<path fill="none" stroke="midnightblue" d="M181.68,-735.02C181.13,-689.59 180.5,-625.62 180.5,-569.5 180.5,-569.5 180.5,-569.5 180.5,-244 180.5,-207.89 180.5,-167.61 180.5,-134.75"/>
<polygon fill="none" stroke="midnightblue" points="178.18,-735.33 181.81,-745.29 185.18,-735.25 178.18,-735.33"/>
</g>
</g>
</svg>
