<?xml version="1.0" encoding="UTF-8" standalone="no"?>
<!DOCTYPE svg PUBLIC "-//W3C//DTD SVG 1.1//EN"
 "http://www.w3.org/Graphics/SVG/1.1/DTD/svg11.dtd">
<!-- Generated by graphviz version 2.43.0 (0)
 -->
<!-- Title: pocketmine\block\inventory\window\CraftingTableInventoryWindow Pages: 1 -->
<svg width="211pt" height="365pt"
 viewBox="0.00 0.00 211.00 365.00" xmlns="http://www.w3.org/2000/svg" xmlns:xlink="http://www.w3.org/1999/xlink">
<g id="graph0" class="graph" transform="scale(1 1) rotate(0) translate(4 361)">
<title>pocketmine\block\inventory\window\CraftingTableInventoryWindow</title>
<!-- Node1 -->
<g id="Node000001" class="node">
<title>Node1</title>
<g id="a_Node000001"><a xlink:title=" ">
<polygon fill="#999999" stroke="transparent" points="203,-60 0,-60 0,0 203,0 203,-60"/>
<text text-anchor="start" x="5.5" y="-48" font-family="Helvetica,sans-Serif" font-size="10.00">pocketmine\block\inventory</text>
<text text-anchor="start" x="5.5" y="-37" font-family="Helvetica,sans-Serif" font-size="10.00">\window\CraftingTableInventoryWindow</text>
<text text-anchor="start" x="100" y="-22" font-family="Helvetica,sans-Serif" font-size="10.00"> </text>
<text text-anchor="start" x="34" y="-7" font-family="Helvetica,sans-Serif" font-size="10.00">+</text>
<text text-anchor="start" x="76.5" y="-7" font-family="Helvetica,sans-Serif" font-size="10.00">__construct()</text>
<polygon fill="#666666" stroke="#666666" points="0.5,-32 0.5,-32 203.5,-32 203.5,-32 0.5,-32"/>
<polygon fill="#666666" stroke="#666666" points="0.5,-17 0.5,-17 203.5,-17 203.5,-17 0.5,-17"/>
<polygon fill="none" stroke="#666666" points="0,0 0,-60 203,-60 203,0 0,0"/>
</a>
</g>
</g>
<!-- Node2 -->
<g id="Node000002" class="node">
<title>Node2</title>
<g id="a_Node000002"><a xlink:href="../../d6/dc8/classpocketmine_1_1block_1_1inventory_1_1window_1_1_block_inventory_window.html" target="_top" xlink:title=" ">
<polygon fill="white" stroke="transparent" points="185,-201 18,-201 18,-96 185,-96 185,-201"/>
<text text-anchor="start" x="23.5" y="-188.5" font-family="Helvetica,sans-Serif" font-size="10.00">pocketmine\block\inventory</text>
<text text-anchor="start" x="23.5" y="-177.5" font-family="Helvetica,sans-Serif" font-size="10.00">\window\BlockInventoryWindow</text>
<text text-anchor="start" x="100" y="-162.5" font-family="Helvetica,sans-Serif" font-size="10.00"> </text>
<text text-anchor="start" x="43" y="-147.5" font-family="Helvetica,sans-Serif" font-size="10.00">+</text>
<text text-anchor="start" x="76.5" y="-147.5" font-family="Helvetica,sans-Serif" font-size="10.00">__construct()</text>
<text text-anchor="start" x="43" y="-132.5" font-family="Helvetica,sans-Serif" font-size="10.00">+</text>
<text text-anchor="start" x="76.5" y="-132.5" font-family="Helvetica,sans-Serif" font-size="10.00">getHolder()</text>
<text text-anchor="start" x="43" y="-117.5" font-family="Helvetica,sans-Serif" font-size="10.00">+</text>
<text text-anchor="start" x="76.5" y="-117.5" font-family="Helvetica,sans-Serif" font-size="10.00">onClose()</text>
<text text-anchor="start" x="43" y="-102.5" font-family="Helvetica,sans-Serif" font-size="10.00">+</text>
<text text-anchor="start" x="76.5" y="-102.5" font-family="Helvetica,sans-Serif" font-size="10.00">onOpen()</text>
<polygon fill="#bfbfbf" stroke="#bfbfbf" points="18.5,-172.5 18.5,-172.5 185.5,-172.5 185.5,-172.5 18.5,-172.5"/>
<polygon fill="#bfbfbf" stroke="#bfbfbf" points="18.5,-157.5 18.5,-157.5 185.5,-157.5 185.5,-157.5 18.5,-157.5"/>
<polygon fill="none" stroke="#bfbfbf" points="18,-96 18,-201 185,-201 185,-96 18,-96"/>
</a>
</g>
</g>
<!-- Node2&#45;&gt;Node1 -->
<g id="edge1_Node000001_Node000002" class="edge">
<title>Node2&#45;&gt;Node1</title>
<g id="a_edge1_Node000001_Node000002"><a xlink:title=" ">
<path fill="none" stroke="#63b8ff" d="M101.5,-85.71C101.5,-76.85 101.5,-68.09 101.5,-60.27"/>
<polygon fill="none" stroke="#63b8ff" points="98,-85.72 101.5,-95.72 105,-85.72 98,-85.72"/>
</a>
</g>
</g>
<!-- Node3 -->
<g id="Node000003" class="node">
<title>Node3</title>
<g id="a_Node000003"><a xlink:href="../../d4/d5e/classpocketmine_1_1player_1_1_inventory_window.html" target="_top" xlink:title=" ">
<polygon fill="white" stroke="transparent" points="177,-357 26,-357 26,-237 177,-237 177,-357"/>
<text text-anchor="start" x="31.5" y="-345" font-family="Helvetica,sans-Serif" font-size="10.00">pocketmine\player\Inventory</text>
<text text-anchor="start" x="82" y="-334" font-family="Helvetica,sans-Serif" font-size="10.00">Window</text>
<text text-anchor="start" x="100" y="-319" font-family="Helvetica,sans-Serif" font-size="10.00"> </text>
<text text-anchor="start" x="45.5" y="-304" font-family="Helvetica,sans-Serif" font-size="10.00">+</text>
<text text-anchor="start" x="73.5" y="-304" font-family="Helvetica,sans-Serif" font-size="10.00">__construct()</text>
<text text-anchor="start" x="45.5" y="-289" font-family="Helvetica,sans-Serif" font-size="10.00">+</text>
<text text-anchor="start" x="73.5" y="-289" font-family="Helvetica,sans-Serif" font-size="10.00">getInventory()</text>
<text text-anchor="start" x="45.5" y="-274" font-family="Helvetica,sans-Serif" font-size="10.00">+</text>
<text text-anchor="start" x="73.5" y="-274" font-family="Helvetica,sans-Serif" font-size="10.00">getViewer()</text>
<text text-anchor="start" x="45.5" y="-259" font-family="Helvetica,sans-Serif" font-size="10.00">+</text>
<text text-anchor="start" x="73.5" y="-259" font-family="Helvetica,sans-Serif" font-size="10.00">onClose()</text>
<text text-anchor="start" x="45.5" y="-244" font-family="Helvetica,sans-Serif" font-size="10.00">+</text>
<text text-anchor="start" x="73.5" y="-244" font-family="Helvetica,sans-Serif" font-size="10.00">onOpen()</text>
<polygon fill="#bfbfbf" stroke="#bfbfbf" points="26.5,-329 26.5,-329 177.5,-329 177.5,-329 26.5,-329"/>
<polygon fill="#bfbfbf" stroke="#bfbfbf" points="26.5,-314 26.5,-314 177.5,-314 177.5,-314 26.5,-314"/>
<polygon fill="none" stroke="#bfbfbf" points="26,-237 26,-357 177,-357 177,-237 26,-237"/>
</a>
</g>
</g>
<!-- Node3&#45;&gt;Node2 -->
<g id="edge2_Node000002_Node000003" class="edge">
<title>Node3&#45;&gt;Node2</title>
<g id="a_edge2_Node000002_Node000003"><a xlink:title=" ">
<path fill="none" stroke="#63b8ff" d="M101.5,-226.83C101.5,-218.25 101.5,-209.6 101.5,-201.34"/>
<polygon fill="none" stroke="#63b8ff" points="98,-226.84 101.5,-236.84 105,-226.84 98,-226.84"/>
</a>
</g>
</g>
</g>
</svg>
