<?xml version="1.0" encoding="UTF-8" standalone="no"?>
<!DOCTYPE svg PUBLIC "-//W3C//DTD SVG 1.1//EN"
 "http://www.w3.org/Graphics/SVG/1.1/DTD/svg11.dtd">
<!-- Generated by graphviz version 2.43.0 (0)
 -->
<!-- Title: pocketmine\block\Flower Pages: 1 -->
<!--zoomable 1973 -->
<svg id="main" version="1.1" xmlns="http://www.w3.org/2000/svg" xmlns:xlink="http://www.w3.org/1999/xlink" xml:space="preserve" onload="init(evt)">
<style type="text/css"><![CDATA[
.edge:hover path { stroke: red; }
.edge:hover polygon { stroke: red; fill: red; }
]]></style>
<script type="text/javascript"><![CDATA[
var edges = document.getElementsByTagName('g');
if (edges && edges.length) {
  for (var i=0;i<edges.length;i++) {
    if (edges[i].id.substr(0,4)=='edge') {
      edges[i].setAttribute('class','edge');
    }
  }
}
]]></script>
        <defs>
                <circle id="rim" cx="0" cy="0" r="7"/>
                <circle id="rim2" cx="0" cy="0" r="3.5"/>
                <g id="zoomPlus">
                        <use xlink:href="#rim" fill="#404040">
                                <set attributeName="fill" to="#808080" begin="zoomplus.mouseover" end="zoomplus.mouseout"/>
                        </use>
                        <path d="M-4,0h8M0,-4v8" fill="none" stroke="white" stroke-width="1.5" pointer-events="none"/>
                </g>
                <g id="zoomMin">
                        <use xlink:href="#rim" fill="#404040">
                                <set attributeName="fill" to="#808080" begin="zoomminus.mouseover" end="zoomminus.mouseout"/>
                        </use>
                        <path d="M-4,0h8" fill="none" stroke="white" stroke-width="1.5" pointer-events="none"/>
                </g>
                <g id="dirArrow">
                        <path fill="none" stroke="white" stroke-width="1.5" d="M0,-3.0v7 M-2.5,-0.5L0,-3.0L2.5,-0.5"/>
                </g>
               <g id="resetDef">
                       <use xlink:href="#rim2" fill="#404040">
                               <set attributeName="fill" to="#808080" begin="reset.mouseover" end="reset.mouseout"/>
                       </use>
               </g>
        </defs>

<script type="text/javascript">
var viewWidth = 804;
var viewHeight = 1973;
var sectionId = 'dynsection-1';
</script>
<script xlink:href="../../svgpan.js"/>
<svg id="graph" class="graph">
<g id="viewport">
<title>pocketmine\block\Flower</title>
<polygon fill="white" stroke="transparent" points="-4,4 -4,-1969 799.53,-1969 799.53,4 -4,4"/>
<!-- Node1 -->
<g id="node1" class="node">
<title>Node1</title>
<g id="a_node1"><a xlink:title=" ">
<polygon fill="#bfbfbf" stroke="black" points="263.53,-0.5 263.53,-90.5 421.53,-90.5 421.53,-0.5 263.53,-0.5"/>
<text text-anchor="middle" x="342.53" y="-78.5" font-family="Helvetica,sans-Serif" font-size="10.00">pocketmine\block\Flower</text>
<polyline fill="none" stroke="black" points="263.53,-71.5 421.53,-71.5 "/>
<text text-anchor="middle" x="342.53" y="-59.5" font-family="Helvetica,sans-Serif" font-size="10.00"> </text>
<polyline fill="none" stroke="black" points="263.53,-52.5 421.53,-52.5 "/>
<text text-anchor="start" x="271.53" y="-40.5" font-family="Helvetica,sans-Serif" font-size="10.00">+ getFlameEncouragement()</text>
<text text-anchor="start" x="271.53" y="-29.5" font-family="Helvetica,sans-Serif" font-size="10.00">+ getFlammability()</text>
<text text-anchor="start" x="271.53" y="-18.5" font-family="Helvetica,sans-Serif" font-size="10.00">+ onNearbyBlockChange()</text>
<text text-anchor="start" x="271.53" y="-7.5" font-family="Helvetica,sans-Serif" font-size="10.00">+ place()</text>
</a>
</g>
</g>
<!-- Node2 -->
<g id="node2" class="node">
<title>Node2</title>
<g id="a_node2"><a xlink:href="../../d3/d1e/classpocketmine_1_1block_1_1_flowable.html" target="_top" xlink:title=" ">
<polygon fill="white" stroke="#bfbfbf" points="262.03,-128.5 262.03,-218.5 423.03,-218.5 423.03,-128.5 262.03,-128.5"/>
<text text-anchor="middle" x="342.53" y="-206.5" font-family="Helvetica,sans-Serif" font-size="10.00">pocketmine\block\Flowable</text>
<polyline fill="none" stroke="#bfbfbf" points="262.03,-199.5 423.03,-199.5 "/>
<text text-anchor="middle" x="342.53" y="-187.5" font-family="Helvetica,sans-Serif" font-size="10.00"> </text>
<polyline fill="none" stroke="#bfbfbf" points="262.03,-180.5 423.03,-180.5 "/>
<text text-anchor="start" x="270.03" y="-168.5" font-family="Helvetica,sans-Serif" font-size="10.00">+ canBeFlowedInto()</text>
<text text-anchor="start" x="270.03" y="-157.5" font-family="Helvetica,sans-Serif" font-size="10.00">+ getSupportType()</text>
<text text-anchor="start" x="270.03" y="-146.5" font-family="Helvetica,sans-Serif" font-size="10.00">+ isSolid()</text>
<text text-anchor="start" x="270.03" y="-135.5" font-family="Helvetica,sans-Serif" font-size="10.00"># recalculateCollisionBoxes()</text>
</a>
</g>
</g>
<!-- Node2&#45;&gt;Node1 -->
<g id="edge1" class="edge">
<title>Node2&#45;&gt;Node1</title>
<path fill="none" stroke="midnightblue" d="M342.53,-118.23C342.53,-109.06 342.53,-99.63 342.53,-90.76"/>
<polygon fill="none" stroke="midnightblue" points="339.03,-118.43 342.53,-128.43 346.03,-118.43 339.03,-118.43"/>
</g>
<!-- Node3 -->
<g id="node3" class="node">
<title>Node3</title>
<g id="a_node3"><a xlink:href="../../d5/d1b/classpocketmine_1_1block_1_1_transparent.html" target="_top" xlink:title=" ">
<polygon fill="white" stroke="#bfbfbf" points="261.03,-256.5 261.03,-313.5 424.03,-313.5 424.03,-256.5 261.03,-256.5"/>
<text text-anchor="middle" x="342.53" y="-301.5" font-family="Helvetica,sans-Serif" font-size="10.00">pocketmine\block\Transparent</text>
<polyline fill="none" stroke="#bfbfbf" points="261.03,-294.5 424.03,-294.5 "/>
<text text-anchor="middle" x="342.53" y="-282.5" font-family="Helvetica,sans-Serif" font-size="10.00"> </text>
<polyline fill="none" stroke="#bfbfbf" points="261.03,-275.5 424.03,-275.5 "/>
<text text-anchor="start" x="269.03" y="-263.5" font-family="Helvetica,sans-Serif" font-size="10.00">+ isTransparent()</text>
</a>
</g>
</g>
<!-- Node3&#45;&gt;Node2 -->
<g id="edge2" class="edge">
<title>Node3&#45;&gt;Node2</title>
<path fill="none" stroke="midnightblue" d="M342.53,-246.31C342.53,-237.43 342.53,-227.88 342.53,-218.74"/>
<polygon fill="none" stroke="midnightblue" points="339.03,-246.37 342.53,-256.37 346.03,-246.37 339.03,-246.37"/>
</g>
<!-- Node4 -->
<g id="node4" class="node">
<title>Node4</title>
<g id="a_node4"><a xlink:href="../../d7/d27/classpocketmine_1_1block_1_1_block.html" target="_top" xlink:title=" ">
<polygon fill="white" stroke="#bfbfbf" points="262.03,-351.5 262.03,-595.5 423.03,-595.5 423.03,-351.5 262.03,-351.5"/>
<text text-anchor="middle" x="342.53" y="-583.5" font-family="Helvetica,sans-Serif" font-size="10.00">pocketmine\block\Block</text>
<polyline fill="none" stroke="#bfbfbf" points="262.03,-576.5 423.03,-576.5 "/>
<text text-anchor="start" x="270.03" y="-564.5" font-family="Helvetica,sans-Serif" font-size="10.00"># $collisionBoxes</text>
<text text-anchor="start" x="270.03" y="-553.5" font-family="Helvetica,sans-Serif" font-size="10.00"># $fallbackName</text>
<polyline fill="none" stroke="#bfbfbf" points="262.03,-546.5 423.03,-546.5 "/>
<text text-anchor="start" x="270.03" y="-534.5" font-family="Helvetica,sans-Serif" font-size="10.00">+ __construct()</text>
<text text-anchor="start" x="270.03" y="-523.5" font-family="Helvetica,sans-Serif" font-size="10.00">+ __clone()</text>
<text text-anchor="start" x="270.03" y="-512.5" font-family="Helvetica,sans-Serif" font-size="10.00">+ __toString()</text>
<text text-anchor="start" x="270.03" y="-501.5" font-family="Helvetica,sans-Serif" font-size="10.00">+ addVelocityToEntity()</text>
<text text-anchor="start" x="270.03" y="-490.5" font-family="Helvetica,sans-Serif" font-size="10.00">+ asItem()</text>
<text text-anchor="start" x="270.03" y="-479.5" font-family="Helvetica,sans-Serif" font-size="10.00">+ blocksDirectSkyLight()</text>
<text text-anchor="start" x="270.03" y="-468.5" font-family="Helvetica,sans-Serif" font-size="10.00">+ burnsForever()</text>
<text text-anchor="start" x="270.03" y="-457.5" font-family="Helvetica,sans-Serif" font-size="10.00">+ calculateIntercept()</text>
<text text-anchor="start" x="270.03" y="-446.5" font-family="Helvetica,sans-Serif" font-size="10.00">+ canBeFlowedInto()</text>
<text text-anchor="start" x="270.03" y="-435.5" font-family="Helvetica,sans-Serif" font-size="10.00">+ canBePlaced()</text>
<text text-anchor="start" x="270.03" y="-424.5" font-family="Helvetica,sans-Serif" font-size="10.00">and 60 more...</text>
<text text-anchor="start" x="270.03" y="-413.5" font-family="Helvetica,sans-Serif" font-size="10.00"># decodeState()</text>
<text text-anchor="start" x="270.03" y="-402.5" font-family="Helvetica,sans-Serif" font-size="10.00"># decodeType()</text>
<text text-anchor="start" x="270.03" y="-391.5" font-family="Helvetica,sans-Serif" font-size="10.00"># encodeState()</text>
<text text-anchor="start" x="270.03" y="-380.5" font-family="Helvetica,sans-Serif" font-size="10.00"># encodeType()</text>
<text text-anchor="start" x="270.03" y="-369.5" font-family="Helvetica,sans-Serif" font-size="10.00"># getXpDropAmount()</text>
<text text-anchor="start" x="270.03" y="-358.5" font-family="Helvetica,sans-Serif" font-size="10.00"># recalculateCollisionBoxes()</text>
</a>
</g>
</g>
<!-- Node4&#45;&gt;Node3 -->
<g id="edge3" class="edge">
<title>Node4&#45;&gt;Node3</title>
<path fill="none" stroke="midnightblue" d="M342.53,-341.21C342.53,-331.15 342.53,-321.8 342.53,-313.77"/>
<polygon fill="none" stroke="midnightblue" points="339.03,-341.49 342.53,-351.49 346.03,-341.49 339.03,-341.49"/>
</g>
<!-- Node5 -->
<g id="node5" class="node">
<title>Node5</title>
<g id="a_node5"><a xlink:title=" ">
<polygon fill="white" stroke="#bfbfbf" points="72.03,-1505.5 72.03,-1562.5 115.03,-1562.5 115.03,-1505.5 72.03,-1505.5"/>
<text text-anchor="middle" x="93.53" y="-1550.5" font-family="Helvetica,sans-Serif" font-size="10.00">const</text>
<polyline fill="none" stroke="#bfbfbf" points="72.03,-1543.5 115.03,-1543.5 "/>
<text text-anchor="middle" x="93.53" y="-1531.5" font-family="Helvetica,sans-Serif" font-size="10.00"> </text>
<polyline fill="none" stroke="#bfbfbf" points="72.03,-1524.5 115.03,-1524.5 "/>
<text text-anchor="middle" x="93.53" y="-1512.5" font-family="Helvetica,sans-Serif" font-size="10.00"> </text>
</a>
</g>
</g>
<!-- Node5&#45;&gt;Node4 -->
<g id="edge4" class="edge">
<title>Node5&#45;&gt;Node4</title>
<path fill="none" stroke="#404040" d="M83.44,-1505.28C48.68,-1405.27 -58.4,-1055.3 43.53,-796 85.3,-689.75 180.54,-597.78 252.39,-539.75"/>
<polygon fill="none" stroke="#404040" points="252.54,-539.62 254.74,-532.75 261.92,-532.14 259.73,-539.01 252.54,-539.62"/>
<text text-anchor="start" x="43.53" y="-888.5" font-family="Helvetica,sans-Serif" font-size="10.00"> +INTERNAL_STATE_DATA</text>
<text text-anchor="middle" x="122.03" y="-877.5" font-family="Helvetica,sans-Serif" font-size="10.00">_BITS</text>
<text text-anchor="middle" x="122.03" y="-866.5" font-family="Helvetica,sans-Serif" font-size="10.00">+INTERNAL_STATE_DATA_MASK</text>
</g>
<!-- Node7 -->
<g id="node7" class="node">
<title>Node7</title>
<g id="a_node7"><a xlink:href="../../d3/d10/classpocketmine_1_1block_1_1_block_break_info.html" target="_top" xlink:title=" ">
<polygon fill="white" stroke="#bfbfbf" points="209.53,-796.5 209.53,-963.5 389.53,-963.5 389.53,-796.5 209.53,-796.5"/>
<text text-anchor="middle" x="299.53" y="-951.5" font-family="Helvetica,sans-Serif" font-size="10.00">pocketmine\block\BlockBreakInfo</text>
<polyline fill="none" stroke="#bfbfbf" points="209.53,-944.5 389.53,-944.5 "/>
<text text-anchor="middle" x="299.53" y="-932.5" font-family="Helvetica,sans-Serif" font-size="10.00"> </text>
<polyline fill="none" stroke="#bfbfbf" points="209.53,-925.5 389.53,-925.5 "/>
<text text-anchor="start" x="217.53" y="-913.5" font-family="Helvetica,sans-Serif" font-size="10.00">+ __construct()</text>
<text text-anchor="start" x="217.53" y="-902.5" font-family="Helvetica,sans-Serif" font-size="10.00">+ breaksInstantly()</text>
<text text-anchor="start" x="217.53" y="-891.5" font-family="Helvetica,sans-Serif" font-size="10.00">+ getBlastResistance()</text>
<text text-anchor="start" x="217.53" y="-880.5" font-family="Helvetica,sans-Serif" font-size="10.00">+ getBreakTime()</text>
<text text-anchor="start" x="217.53" y="-869.5" font-family="Helvetica,sans-Serif" font-size="10.00">+ getHardness()</text>
<text text-anchor="start" x="217.53" y="-858.5" font-family="Helvetica,sans-Serif" font-size="10.00">+ getToolHarvestLevel()</text>
<text text-anchor="start" x="217.53" y="-847.5" font-family="Helvetica,sans-Serif" font-size="10.00">+ getToolType()</text>
<text text-anchor="start" x="217.53" y="-836.5" font-family="Helvetica,sans-Serif" font-size="10.00">+ isBreakable()</text>
<text text-anchor="start" x="217.53" y="-825.5" font-family="Helvetica,sans-Serif" font-size="10.00">+ isToolCompatible()</text>
<text text-anchor="start" x="217.53" y="-814.5" font-family="Helvetica,sans-Serif" font-size="10.00">+ indestructible()</text>
<text text-anchor="start" x="217.53" y="-803.5" font-family="Helvetica,sans-Serif" font-size="10.00">+ instant()</text>
</a>
</g>
</g>
<!-- Node5&#45;&gt;Node7 -->
<g id="edge7" class="edge">
<title>Node5&#45;&gt;Node7</title>
<path fill="none" stroke="#404040" d="M88.98,-1505.21C82.95,-1462.73 74.8,-1379.36 90.53,-1311 118.99,-1187.34 187.99,-1058.03 238.97,-973.92"/>
<polygon fill="none" stroke="#404040" points="238.99,-973.87 238.71,-966.67 245.25,-963.63 245.53,-970.84 238.99,-973.87"/>
<text text-anchor="middle" x="178.03" y="-1380" font-family="Helvetica,sans-Serif" font-size="10.00"> +COMPATIBLE_TOOL_MULTIPLIER</text>
<text text-anchor="middle" x="178.03" y="-1369" font-family="Helvetica,sans-Serif" font-size="10.00">+INCOMPATIBLE_TOOL_MULTIPLIER</text>
</g>
<!-- Node10 -->
<g id="node10" class="node">
<title>Node10</title>
<g id="a_node10"><a xlink:href="../../d4/d2b/classpocketmine_1_1world_1_1_world.html" target="_top" xlink:title=" ">
<polygon fill="white" stroke="#bfbfbf" points="360.53,-982.5 360.53,-1292.5 532.53,-1292.5 532.53,-982.5 360.53,-982.5"/>
<text text-anchor="middle" x="446.53" y="-1280.5" font-family="Helvetica,sans-Serif" font-size="10.00">pocketmine\world\World</text>
<polyline fill="none" stroke="#bfbfbf" points="360.53,-1273.5 532.53,-1273.5 "/>
<text text-anchor="start" x="368.53" y="-1261.5" font-family="Helvetica,sans-Serif" font-size="10.00">+ $stopTime</text>
<text text-anchor="start" x="368.53" y="-1250.5" font-family="Helvetica,sans-Serif" font-size="10.00">+ $tickRateTime</text>
<text text-anchor="start" x="368.53" y="-1239.5" font-family="Helvetica,sans-Serif" font-size="10.00">+ $updateEntities</text>
<text text-anchor="start" x="368.53" y="-1228.5" font-family="Helvetica,sans-Serif" font-size="10.00">+ TIME_SUNRISE</text>
<text text-anchor="start" x="368.53" y="-1217.5" font-family="Helvetica,sans-Serif" font-size="10.00">+ TIME_SUNSET</text>
<text text-anchor="start" x="368.53" y="-1206.5" font-family="Helvetica,sans-Serif" font-size="10.00">+ Y_MAX</text>
<text text-anchor="start" x="368.53" y="-1195.5" font-family="Helvetica,sans-Serif" font-size="10.00">+ Y_MIN</text>
<polyline fill="none" stroke="#bfbfbf" points="360.53,-1188.5 532.53,-1188.5 "/>
<text text-anchor="start" x="368.53" y="-1176.5" font-family="Helvetica,sans-Serif" font-size="10.00">+ __construct()</text>
<text text-anchor="start" x="368.53" y="-1165.5" font-family="Helvetica,sans-Serif" font-size="10.00">+ __debugInfo()</text>
<text text-anchor="start" x="368.53" y="-1154.5" font-family="Helvetica,sans-Serif" font-size="10.00">+ addEntity()</text>
<text text-anchor="start" x="368.53" y="-1143.5" font-family="Helvetica,sans-Serif" font-size="10.00">+ addOnUnloadCallback()</text>
<text text-anchor="start" x="368.53" y="-1132.5" font-family="Helvetica,sans-Serif" font-size="10.00">+ addParticle()</text>
<text text-anchor="start" x="368.53" y="-1121.5" font-family="Helvetica,sans-Serif" font-size="10.00">+ addRandomTickedBlock()</text>
<text text-anchor="start" x="368.53" y="-1110.5" font-family="Helvetica,sans-Serif" font-size="10.00">+ addSound()</text>
<text text-anchor="start" x="368.53" y="-1099.5" font-family="Helvetica,sans-Serif" font-size="10.00">+ addTile()</text>
<text text-anchor="start" x="368.53" y="-1088.5" font-family="Helvetica,sans-Serif" font-size="10.00">+ broadcastPacketToViewers()</text>
<text text-anchor="start" x="368.53" y="-1077.5" font-family="Helvetica,sans-Serif" font-size="10.00">+ cancelUnloadChunkRequest()</text>
<text text-anchor="start" x="368.53" y="-1066.5" font-family="Helvetica,sans-Serif" font-size="10.00">and 113 more...</text>
<text text-anchor="start" x="368.53" y="-1055.5" font-family="Helvetica,sans-Serif" font-size="10.00">+ blockHash()</text>
<text text-anchor="start" x="368.53" y="-1044.5" font-family="Helvetica,sans-Serif" font-size="10.00">+ chunkBlockHash()</text>
<text text-anchor="start" x="368.53" y="-1033.5" font-family="Helvetica,sans-Serif" font-size="10.00">+ chunkHash()</text>
<text text-anchor="start" x="368.53" y="-1022.5" font-family="Helvetica,sans-Serif" font-size="10.00">+ getBlockXYZ()</text>
<text text-anchor="start" x="368.53" y="-1011.5" font-family="Helvetica,sans-Serif" font-size="10.00">+ getDifficultyFromString()</text>
<text text-anchor="start" x="368.53" y="-1000.5" font-family="Helvetica,sans-Serif" font-size="10.00">+ getXZ()</text>
<text text-anchor="start" x="368.53" y="-989.5" font-family="Helvetica,sans-Serif" font-size="10.00"># actuallyDoTick()</text>
</a>
</g>
</g>
<!-- Node5&#45;&gt;Node10 -->
<g id="edge12" class="edge">
<title>Node5&#45;&gt;Node10</title>
<path fill="none" stroke="#404040" d="M115.1,-1528.17C152.48,-1518.63 229.18,-1493.78 269.53,-1443 307.16,-1395.66 275.13,-1364.91 302.53,-1311 315.9,-1284.71 333.92,-1258.91 352.69,-1235.6"/>
<polygon fill="none" stroke="#404040" points="352.87,-1235.39 353.58,-1228.21 360.48,-1226.11 359.76,-1233.29 352.87,-1235.39"/>
<text text-anchor="start" x="302.53" y="-1435" font-family="Helvetica,sans-Serif" font-size="10.00"> +DEFAULT_TICKED_BLOCKS</text>
<text text-anchor="middle" x="372.53" y="-1424" font-family="Helvetica,sans-Serif" font-size="10.00">_PER_SUBCHUNK_PER_TICK</text>
<text text-anchor="middle" x="372.53" y="-1413" font-family="Helvetica,sans-Serif" font-size="10.00">+DIFFICULTY_EASY</text>
<text text-anchor="middle" x="372.53" y="-1402" font-family="Helvetica,sans-Serif" font-size="10.00">+DIFFICULTY_HARD</text>
<text text-anchor="middle" x="372.53" y="-1391" font-family="Helvetica,sans-Serif" font-size="10.00">+DIFFICULTY_NORMAL</text>
<text text-anchor="middle" x="372.53" y="-1380" font-family="Helvetica,sans-Serif" font-size="10.00">+DIFFICULTY_PEACEFUL</text>
<text text-anchor="middle" x="372.53" y="-1369" font-family="Helvetica,sans-Serif" font-size="10.00">+TIME_DAY</text>
<text text-anchor="middle" x="372.53" y="-1358" font-family="Helvetica,sans-Serif" font-size="10.00">+TIME_FULL</text>
<text text-anchor="middle" x="372.53" y="-1347" font-family="Helvetica,sans-Serif" font-size="10.00">+TIME_MIDNIGHT</text>
<text text-anchor="middle" x="372.53" y="-1336" font-family="Helvetica,sans-Serif" font-size="10.00">+TIME_NIGHT</text>
<text text-anchor="middle" x="372.53" y="-1325" font-family="Helvetica,sans-Serif" font-size="10.00">+TIME_NOON</text>
<text text-anchor="middle" x="372.53" y="-1314" font-family="Helvetica,sans-Serif" font-size="10.00">...</text>
</g>
<!-- Node6 -->
<g id="node6" class="node">
<title>Node6</title>
<g id="a_node6"><a xlink:href="../../dd/d18/classpocketmine_1_1block_1_1_block_identifier.html" target="_top" xlink:title=" ">
<polygon fill="white" stroke="#bfbfbf" points="541.53,-671 541.53,-750 717.53,-750 717.53,-671 541.53,-671"/>
<text text-anchor="middle" x="629.53" y="-738" font-family="Helvetica,sans-Serif" font-size="10.00">pocketmine\block\BlockIdentifier</text>
<polyline fill="none" stroke="#bfbfbf" points="541.53,-731 717.53,-731 "/>
<text text-anchor="middle" x="629.53" y="-719" font-family="Helvetica,sans-Serif" font-size="10.00"> </text>
<polyline fill="none" stroke="#bfbfbf" points="541.53,-712 717.53,-712 "/>
<text text-anchor="start" x="549.53" y="-700" font-family="Helvetica,sans-Serif" font-size="10.00">+ __construct()</text>
<text text-anchor="start" x="549.53" y="-689" font-family="Helvetica,sans-Serif" font-size="10.00">+ getBlockTypeId()</text>
<text text-anchor="start" x="549.53" y="-678" font-family="Helvetica,sans-Serif" font-size="10.00">+ getTileClass()</text>
</a>
</g>
</g>
<!-- Node6&#45;&gt;Node4 -->
<g id="edge5" class="edge">
<title>Node6&#45;&gt;Node4</title>
<path fill="none" stroke="#404040" d="M582.46,-670.96C541.9,-637.75 482.21,-588.87 432.51,-548.18"/>
<polygon fill="none" stroke="#404040" points="432.32,-548.02 425.15,-547.31 423.04,-540.42 430.21,-541.12 432.32,-548.02"/>
<text text-anchor="middle" x="542.53" y="-617" font-family="Helvetica,sans-Serif" font-size="10.00"> #$idInfo</text>
</g>
<!-- Node7&#45;&gt;Node4 -->
<g id="edge6" class="edge">
<title>Node7&#45;&gt;Node4</title>
<path fill="none" stroke="#404040" d="M297.24,-796.25C297,-750.85 298.35,-693.65 304.53,-643 305.94,-631.5 307.78,-619.64 309.9,-607.78"/>
<polygon fill="none" stroke="#404040" points="309.91,-607.74 307.08,-601.1 312.11,-595.94 314.94,-602.57 309.91,-607.74"/>
<text text-anchor="middle" x="336.53" y="-708" font-family="Helvetica,sans-Serif" font-size="10.00"> #$breakInfo</text>
</g>
<!-- Node8 -->
<g id="node8" class="node">
<title>Node8</title>
<g id="a_node8"><a xlink:href="../../d5/dd2/classpocketmine_1_1world_1_1_position.html" target="_top" xlink:title=" ">
<polygon fill="white" stroke="#bfbfbf" points="377.53,-643.5 377.53,-777.5 523.53,-777.5 523.53,-643.5 377.53,-643.5"/>
<text text-anchor="middle" x="450.53" y="-765.5" font-family="Helvetica,sans-Serif" font-size="10.00">pocketmine\world\Position</text>
<polyline fill="none" stroke="#bfbfbf" points="377.53,-758.5 523.53,-758.5 "/>
<text text-anchor="middle" x="450.53" y="-746.5" font-family="Helvetica,sans-Serif" font-size="10.00"> </text>
<polyline fill="none" stroke="#bfbfbf" points="377.53,-739.5 523.53,-739.5 "/>
<text text-anchor="start" x="385.53" y="-727.5" font-family="Helvetica,sans-Serif" font-size="10.00">+ __construct()</text>
<text text-anchor="start" x="385.53" y="-716.5" font-family="Helvetica,sans-Serif" font-size="10.00">+ __toString()</text>
<text text-anchor="start" x="385.53" y="-705.5" font-family="Helvetica,sans-Serif" font-size="10.00">+ asPosition()</text>
<text text-anchor="start" x="385.53" y="-694.5" font-family="Helvetica,sans-Serif" font-size="10.00">+ equals()</text>
<text text-anchor="start" x="385.53" y="-683.5" font-family="Helvetica,sans-Serif" font-size="10.00">+ getSide()</text>
<text text-anchor="start" x="385.53" y="-672.5" font-family="Helvetica,sans-Serif" font-size="10.00">+ getWorld()</text>
<text text-anchor="start" x="385.53" y="-661.5" font-family="Helvetica,sans-Serif" font-size="10.00">+ isValid()</text>
<text text-anchor="start" x="385.53" y="-650.5" font-family="Helvetica,sans-Serif" font-size="10.00">+ fromObject()</text>
</a>
</g>
</g>
<!-- Node8&#45;&gt;Node4 -->
<g id="edge8" class="edge">
<title>Node8&#45;&gt;Node4</title>
<path fill="none" stroke="#404040" d="M420.16,-643.41C414.85,-631.86 409.17,-619.49 403.37,-606.88"/>
<polygon fill="none" stroke="#404040" points="403.27,-606.66 397.13,-602.88 398.26,-595.76 404.4,-599.54 403.27,-606.66"/>
<text text-anchor="middle" x="438.03" y="-617" font-family="Helvetica,sans-Serif" font-size="10.00"> #$position</text>
</g>
<!-- Node9 -->
<g id="node9" class="node">
<title>Node9</title>
<g id="a_node9"><a xlink:href="../../d2/d90/classpocketmine_1_1math_1_1_vector3.html" target="_top" xlink:title=" ">
<polygon fill="white" stroke="#bfbfbf" points="550.53,-1021 550.53,-1254 692.53,-1254 692.53,-1021 550.53,-1021"/>
<text text-anchor="middle" x="621.53" y="-1242" font-family="Helvetica,sans-Serif" font-size="10.00">pocketmine\math\Vector3</text>
<polyline fill="none" stroke="#bfbfbf" points="550.53,-1235 692.53,-1235 "/>
<text text-anchor="start" x="558.53" y="-1223" font-family="Helvetica,sans-Serif" font-size="10.00">+ $x</text>
<text text-anchor="start" x="558.53" y="-1212" font-family="Helvetica,sans-Serif" font-size="10.00">+ $y</text>
<text text-anchor="start" x="558.53" y="-1201" font-family="Helvetica,sans-Serif" font-size="10.00">+ $z</text>
<polyline fill="none" stroke="#bfbfbf" points="550.53,-1194 692.53,-1194 "/>
<text text-anchor="start" x="558.53" y="-1182" font-family="Helvetica,sans-Serif" font-size="10.00">+ __construct()</text>
<text text-anchor="start" x="558.53" y="-1171" font-family="Helvetica,sans-Serif" font-size="10.00">+ __toString()</text>
<text text-anchor="start" x="558.53" y="-1160" font-family="Helvetica,sans-Serif" font-size="10.00">+ abs()</text>
<text text-anchor="start" x="558.53" y="-1149" font-family="Helvetica,sans-Serif" font-size="10.00">+ add()</text>
<text text-anchor="start" x="558.53" y="-1138" font-family="Helvetica,sans-Serif" font-size="10.00">+ addVector()</text>
<text text-anchor="start" x="558.53" y="-1127" font-family="Helvetica,sans-Serif" font-size="10.00">+ asVector3()</text>
<text text-anchor="start" x="558.53" y="-1116" font-family="Helvetica,sans-Serif" font-size="10.00">+ ceil()</text>
<text text-anchor="start" x="558.53" y="-1105" font-family="Helvetica,sans-Serif" font-size="10.00">+ cross()</text>
<text text-anchor="start" x="558.53" y="-1094" font-family="Helvetica,sans-Serif" font-size="10.00">+ distance()</text>
<text text-anchor="start" x="558.53" y="-1083" font-family="Helvetica,sans-Serif" font-size="10.00">+ distanceSquared()</text>
<text text-anchor="start" x="558.53" y="-1072" font-family="Helvetica,sans-Serif" font-size="10.00">and 32 more...</text>
<text text-anchor="start" x="558.53" y="-1061" font-family="Helvetica,sans-Serif" font-size="10.00">+ maxComponents()</text>
<text text-anchor="start" x="558.53" y="-1050" font-family="Helvetica,sans-Serif" font-size="10.00">+ minComponents()</text>
<text text-anchor="start" x="558.53" y="-1039" font-family="Helvetica,sans-Serif" font-size="10.00">+ sum()</text>
<text text-anchor="start" x="558.53" y="-1028" font-family="Helvetica,sans-Serif" font-size="10.00">+ zero()</text>
</a>
</g>
</g>
<!-- Node9&#45;&gt;Node8 -->
<g id="edge9" class="edge">
<title>Node9&#45;&gt;Node8</title>
<path fill="none" stroke="midnightblue" d="M582.77,-1011.4C561.02,-946.07 531.8,-865.48 499.53,-796 496.75,-790 493.67,-783.87 490.46,-777.78"/>
<polygon fill="none" stroke="midnightblue" points="579.46,-1012.53 585.93,-1020.92 586.1,-1010.33 579.46,-1012.53"/>
</g>
<!-- Node10&#45;&gt;Node8 -->
<g id="edge10" class="edge">
<title>Node10&#45;&gt;Node8</title>
<path fill="none" stroke="#404040" d="M447.98,-982.46C448.6,-917.12 449.29,-843.78 449.8,-789.89"/>
<polygon fill="none" stroke="#404040" points="449.8,-789.67 445.86,-783.63 449.91,-777.67 453.85,-783.7 449.8,-789.67"/>
<text text-anchor="middle" x="473.03" y="-877.5" font-family="Helvetica,sans-Serif" font-size="10.00"> +$world</text>
</g>
<!-- Node11 -->
<g id="node11" class="node">
<title>Node11</title>
<g id="a_node11"><a xlink:href="../../d0/d03/interfacepocketmine_1_1world_1_1_chunk_manager.html" target="_top" xlink:title=" ">
<polygon fill="white" stroke="#bfbfbf" points="356.53,-1472.5 356.53,-1595.5 536.53,-1595.5 536.53,-1472.5 356.53,-1472.5"/>
<text text-anchor="middle" x="446.53" y="-1583.5" font-family="Helvetica,sans-Serif" font-size="10.00">pocketmine\world\ChunkManager</text>
<polyline fill="none" stroke="#bfbfbf" points="356.53,-1576.5 536.53,-1576.5 "/>
<text text-anchor="middle" x="446.53" y="-1564.5" font-family="Helvetica,sans-Serif" font-size="10.00"> </text>
<polyline fill="none" stroke="#bfbfbf" points="356.53,-1557.5 536.53,-1557.5 "/>
<text text-anchor="start" x="364.53" y="-1545.5" font-family="Helvetica,sans-Serif" font-size="10.00">+ getBlockAt()</text>
<text text-anchor="start" x="364.53" y="-1534.5" font-family="Helvetica,sans-Serif" font-size="10.00">+ getChunk()</text>
<text text-anchor="start" x="364.53" y="-1523.5" font-family="Helvetica,sans-Serif" font-size="10.00">+ getMaxY()</text>
<text text-anchor="start" x="364.53" y="-1512.5" font-family="Helvetica,sans-Serif" font-size="10.00">+ getMinY()</text>
<text text-anchor="start" x="364.53" y="-1501.5" font-family="Helvetica,sans-Serif" font-size="10.00">+ isInWorld()</text>
<text text-anchor="start" x="364.53" y="-1490.5" font-family="Helvetica,sans-Serif" font-size="10.00">+ setBlockAt()</text>
<text text-anchor="start" x="364.53" y="-1479.5" font-family="Helvetica,sans-Serif" font-size="10.00">+ setChunk()</text>
</a>
</g>
</g>
<!-- Node11&#45;&gt;Node10 -->
<g id="edge11" class="edge">
<title>Node11&#45;&gt;Node10</title>
<path fill="none" stroke="midnightblue" d="M446.53,-1462.12C446.53,-1414.96 446.53,-1351.15 446.53,-1292.65"/>
<polygon fill="none" stroke="midnightblue" points="443.03,-1462.22 446.53,-1472.22 450.03,-1462.22 443.03,-1462.22"/>
</g>
<!-- Node12 -->
<g id="node12" class="node">
<title>Node12</title>
<g id="a_node12"><a xlink:href="../../d7/d08/classpocketmine_1_1world_1_1_world_timings.html" target="_top" xlink:title=" ">
<polygon fill="white" stroke="#bfbfbf" points="555.03,-1461.5 555.03,-1606.5 728.03,-1606.5 728.03,-1461.5 555.03,-1461.5"/>
<text text-anchor="middle" x="641.53" y="-1594.5" font-family="Helvetica,sans-Serif" font-size="10.00">pocketmine\world\WorldTimings</text>
<polyline fill="none" stroke="#bfbfbf" points="555.03,-1587.5 728.03,-1587.5 "/>
<text text-anchor="start" x="563.03" y="-1575.5" font-family="Helvetica,sans-Serif" font-size="10.00">+ $syncChunkLoad</text>
<text text-anchor="start" x="563.03" y="-1564.5" font-family="Helvetica,sans-Serif" font-size="10.00">+ $syncChunkLoadData</text>
<text text-anchor="start" x="563.03" y="-1553.5" font-family="Helvetica,sans-Serif" font-size="10.00">+ $syncChunkLoadEntities</text>
<text text-anchor="start" x="563.03" y="-1542.5" font-family="Helvetica,sans-Serif" font-size="10.00">+ $syncChunkLoadFixInvalid</text>
<text text-anchor="start" x="563.03" y="-1531.5" font-family="Helvetica,sans-Serif" font-size="10.00">Blocks</text>
<text text-anchor="start" x="563.03" y="-1520.5" font-family="Helvetica,sans-Serif" font-size="10.00">+ $syncChunkLoadTileEntities</text>
<text text-anchor="start" x="563.03" y="-1509.5" font-family="Helvetica,sans-Serif" font-size="10.00">+ $syncChunkSave</text>
<text text-anchor="start" x="563.03" y="-1498.5" font-family="Helvetica,sans-Serif" font-size="10.00">+ $syncChunkSend</text>
<text text-anchor="start" x="563.03" y="-1487.5" font-family="Helvetica,sans-Serif" font-size="10.00">+ $syncChunkSendPrepare</text>
<polyline fill="none" stroke="#bfbfbf" points="555.03,-1480.5 728.03,-1480.5 "/>
<text text-anchor="start" x="563.03" y="-1468.5" font-family="Helvetica,sans-Serif" font-size="10.00">+ __construct()</text>
</a>
</g>
</g>
<!-- Node12&#45;&gt;Node10 -->
<g id="edge13" class="edge">
<title>Node12&#45;&gt;Node10</title>
<path fill="none" stroke="#404040" d="M605.99,-1461.1C584.21,-1417.04 555.39,-1358.72 528.24,-1303.79"/>
<polygon fill="none" stroke="#404040" points="528.15,-1303.62 521.91,-1300.01 522.83,-1292.86 529.08,-1296.47 528.15,-1303.62"/>
<text text-anchor="middle" x="621.03" y="-1374.5" font-family="Helvetica,sans-Serif" font-size="10.00"> +$timings</text>
</g>
<!-- Node13 -->
<g id="node13" class="node">
<title>Node13</title>
<g id="a_node13"><a xlink:href="../../d7/d9b/classpocketmine_1_1timings_1_1_timings_handler.html" target="_top" xlink:title=" ">
<polygon fill="white" stroke="#bfbfbf" points="585.03,-1775.5 585.03,-1964.5 698.03,-1964.5 698.03,-1775.5 585.03,-1775.5"/>
<text text-anchor="start" x="593.03" y="-1952.5" font-family="Helvetica,sans-Serif" font-size="10.00">pocketmine\timings</text>
<text text-anchor="middle" x="641.53" y="-1941.5" font-family="Helvetica,sans-Serif" font-size="10.00">\TimingsHandler</text>
<polyline fill="none" stroke="#bfbfbf" points="585.03,-1934.5 698.03,-1934.5 "/>
<text text-anchor="middle" x="641.53" y="-1922.5" font-family="Helvetica,sans-Serif" font-size="10.00"> </text>
<polyline fill="none" stroke="#bfbfbf" points="585.03,-1915.5 698.03,-1915.5 "/>
<text text-anchor="start" x="593.03" y="-1903.5" font-family="Helvetica,sans-Serif" font-size="10.00">+ __construct()</text>
<text text-anchor="start" x="593.03" y="-1892.5" font-family="Helvetica,sans-Serif" font-size="10.00">+ destroyCycles()</text>
<text text-anchor="start" x="593.03" y="-1881.5" font-family="Helvetica,sans-Serif" font-size="10.00">+ getName()</text>
<text text-anchor="start" x="593.03" y="-1870.5" font-family="Helvetica,sans-Serif" font-size="10.00">+ startTiming()</text>
<text text-anchor="start" x="593.03" y="-1859.5" font-family="Helvetica,sans-Serif" font-size="10.00">+ stopTiming()</text>
<text text-anchor="start" x="593.03" y="-1848.5" font-family="Helvetica,sans-Serif" font-size="10.00">+ time()</text>
<text text-anchor="start" x="593.03" y="-1837.5" font-family="Helvetica,sans-Serif" font-size="10.00">+ getStartTime()</text>
<text text-anchor="start" x="593.03" y="-1826.5" font-family="Helvetica,sans-Serif" font-size="10.00">+ isEnabled()</text>
<text text-anchor="start" x="593.03" y="-1815.5" font-family="Helvetica,sans-Serif" font-size="10.00">+ printTimings()</text>
<text text-anchor="start" x="593.03" y="-1804.5" font-family="Helvetica,sans-Serif" font-size="10.00">+ reload()</text>
<text text-anchor="start" x="593.03" y="-1793.5" font-family="Helvetica,sans-Serif" font-size="10.00">+ setEnabled()</text>
<text text-anchor="start" x="593.03" y="-1782.5" font-family="Helvetica,sans-Serif" font-size="10.00">+ tick()</text>
</a>
</g>
</g>
<!-- Node13&#45;&gt;Node12 -->
<g id="edge14" class="edge">
<title>Node13&#45;&gt;Node12</title>
<path fill="none" stroke="#404040" d="M641.53,-1775.07C641.53,-1725.91 641.53,-1666.21 641.53,-1618.65"/>
<polygon fill="none" stroke="#404040" points="641.53,-1618.52 637.53,-1612.52 641.53,-1606.52 645.53,-1612.52 641.53,-1618.52"/>
<text text-anchor="middle" x="718.53" y="-1749" font-family="Helvetica,sans-Serif" font-size="10.00"> +$doBlockLightUpdates</text>
<text text-anchor="middle" x="718.53" y="-1738" font-family="Helvetica,sans-Serif" font-size="10.00">+$doBlockSkyLightUpdates</text>
<text text-anchor="middle" x="718.53" y="-1727" font-family="Helvetica,sans-Serif" font-size="10.00">+$doChunkGC</text>
<text text-anchor="middle" x="718.53" y="-1716" font-family="Helvetica,sans-Serif" font-size="10.00">+$doChunkUnload</text>
<text text-anchor="middle" x="718.53" y="-1705" font-family="Helvetica,sans-Serif" font-size="10.00">+$doTick</text>
<text text-anchor="middle" x="718.53" y="-1694" font-family="Helvetica,sans-Serif" font-size="10.00">+$entityTick</text>
<text text-anchor="middle" x="718.53" y="-1683" font-family="Helvetica,sans-Serif" font-size="10.00">+$randomChunkUpdates</text>
<text text-anchor="start" x="641.53" y="-1672" font-family="Helvetica,sans-Serif" font-size="10.00">+$randomChunkUpdatesChunk</text>
<text text-anchor="middle" x="718.53" y="-1661" font-family="Helvetica,sans-Serif" font-size="10.00">Selection</text>
<text text-anchor="middle" x="718.53" y="-1650" font-family="Helvetica,sans-Serif" font-size="10.00">+$scheduledBlockUpdates</text>
<text text-anchor="middle" x="718.53" y="-1639" font-family="Helvetica,sans-Serif" font-size="10.00">+$setBlock</text>
<text text-anchor="middle" x="718.53" y="-1628" font-family="Helvetica,sans-Serif" font-size="10.00">...</text>
</g>
</g>
</svg>
        <g id="navigator" transform="translate(0 0)" fill="#404254">
                <rect fill="#f2f5e9" fill-opacity="0.5" stroke="#606060" stroke-width=".5" x="0" y="0" width="60" height="60"/>
                <use id="zoomplus" xlink:href="#zoomPlus" x="17" y="9" onmousedown="handleZoom(evt,'in')"/>
                <use id="zoomminus" xlink:href="#zoomMin" x="42" y="9" onmousedown="handleZoom(evt,'out')"/>
                <use id="reset" xlink:href="#resetDef" x="30" y="36" onmousedown="handleReset()"/>
                <g id="arrowUp" xlink:href="#dirArrow" transform="translate(30 24)" onmousedown="handlePan(0,-1)">
                  <use xlink:href="#rim" fill="#404040">
                        <set attributeName="fill" to="#808080" begin="arrowUp.mouseover" end="arrowUp.mouseout"/>
                  </use>
                  <path fill="none" stroke="white" stroke-width="1.5" d="M0,-3.0v7 M-2.5,-0.5L0,-3.0L2.5,-0.5"/>
                </g>
                <g id="arrowRight" xlink:href="#dirArrow" transform="rotate(90) translate(36 -43)" onmousedown="handlePan(1,0)">
                  <use xlink:href="#rim" fill="#404040">
                        <set attributeName="fill" to="#808080" begin="arrowRight.mouseover" end="arrowRight.mouseout"/>
                  </use>
                  <path fill="none" stroke="white" stroke-width="1.5" d="M0,-3.0v7 M-2.5,-0.5L0,-3.0L2.5,-0.5"/>
                </g>
                <g id="arrowDown" xlink:href="#dirArrow" transform="rotate(180) translate(-30 -48)" onmousedown="handlePan(0,1)">
                  <use xlink:href="#rim" fill="#404040">
                        <set attributeName="fill" to="#808080" begin="arrowDown.mouseover" end="arrowDown.mouseout"/>
                  </use>
                  <path fill="none" stroke="white" stroke-width="1.5" d="M0,-3.0v7 M-2.5,-0.5L0,-3.0L2.5,-0.5"/>
                </g>
                <g id="arrowLeft" xlink:href="#dirArrow" transform="rotate(270) translate(-36 17)" onmousedown="handlePan(-1,0)">
                  <use xlink:href="#rim" fill="#404040">
                        <set attributeName="fill" to="#808080" begin="arrowLeft.mouseover" end="arrowLeft.mouseout"/>
                  </use>
                  <path fill="none" stroke="white" stroke-width="1.5" d="M0,-3.0v7 M-2.5,-0.5L0,-3.0L2.5,-0.5"/>
                </g>
        </g>
        <svg viewBox="0 0 15 15" width="100%" height="30px" preserveAspectRatio="xMaxYMin meet">
         <g id="arrow_out" transform="scale(0.3 0.3)">
          <a xlink:href="classpocketmine_1_1block_1_1_flower__coll__graph_org.svg" target="_base">
           <rect id="button" ry="5" rx="5" y="6" x="6" height="38" width="38"
                fill="#f2f5e9" fill-opacity="0.5" stroke="#606060" stroke-width="1.0"/>
           <path id="arrow"
             d="M 11.500037,31.436501 C 11.940474,20.09759 22.043105,11.32322 32.158766,21.979434 L 37.068811,17.246167 C 37.068811,17.246167 37.088388,32 37.088388,32 L 22.160133,31.978069 C 22.160133,31.978069 26.997745,27.140456 26.997745,27.140456 C 18.528582,18.264221 13.291696,25.230495 11.500037,31.436501 z"
             style="fill:#404040;"/>
          </a>
         </g>
        </svg>
</svg>
