<?xml version="1.0" encoding="UTF-8" standalone="no"?>
<!DOCTYPE svg PUBLIC "-//W3C//DTD SVG 1.1//EN"
 "http://www.w3.org/Graphics/SVG/1.1/DTD/svg11.dtd">
<!-- Generated by graphviz version 2.43.0 (0)
 -->
<!-- Title: pocketmine\block\Anvil Pages: 1 -->
<svg width="323pt" height="606pt"
 viewBox="0.00 0.00 322.50 606.00" xmlns="http://www.w3.org/2000/svg" xmlns:xlink="http://www.w3.org/1999/xlink">
<g id="graph0" class="graph" transform="scale(1 1) rotate(0) translate(4 602)">
<title>pocketmine\block\Anvil</title>
<polygon fill="white" stroke="transparent" points="-4,4 -4,-602 318.5,-602 318.5,4 -4,4"/>
<!-- Node1 -->
<g id="node1" class="node">
<title>Node1</title>
<g id="a_node1"><a xlink:title=" ">
<polygon fill="#bfbfbf" stroke="black" points="88,-0.5 88,-178.5 250,-178.5 250,-0.5 88,-0.5"/>
<text text-anchor="middle" x="169" y="-166.5" font-family="Helvetica,sans-Serif" font-size="10.00">pocketmine\block\Anvil</text>
<polyline fill="none" stroke="black" points="88,-159.5 250,-159.5 "/>
<text text-anchor="start" x="96" y="-147.5" font-family="Helvetica,sans-Serif" font-size="10.00">+ SLIGHTLY_DAMAGED</text>
<text text-anchor="start" x="96" y="-136.5" font-family="Helvetica,sans-Serif" font-size="10.00">+ UNDAMAGED</text>
<text text-anchor="start" x="96" y="-125.5" font-family="Helvetica,sans-Serif" font-size="10.00">+ VERY_DAMAGED</text>
<polyline fill="none" stroke="black" points="88,-118.5 250,-118.5 "/>
<text text-anchor="start" x="96" y="-106.5" font-family="Helvetica,sans-Serif" font-size="10.00">+ getDamage()</text>
<text text-anchor="start" x="96" y="-95.5" font-family="Helvetica,sans-Serif" font-size="10.00">+ getRequiredStateDataBits()</text>
<text text-anchor="start" x="96" y="-84.5" font-family="Helvetica,sans-Serif" font-size="10.00">+ getRequiredTypeDataBits()</text>
<text text-anchor="start" x="96" y="-73.5" font-family="Helvetica,sans-Serif" font-size="10.00">+ getSupportType()</text>
<text text-anchor="start" x="96" y="-62.5" font-family="Helvetica,sans-Serif" font-size="10.00">+ onInteract()</text>
<text text-anchor="start" x="96" y="-51.5" font-family="Helvetica,sans-Serif" font-size="10.00">+ place()</text>
<text text-anchor="start" x="96" y="-40.5" font-family="Helvetica,sans-Serif" font-size="10.00">+ setDamage()</text>
<text text-anchor="start" x="96" y="-29.5" font-family="Helvetica,sans-Serif" font-size="10.00"># describeState()</text>
<text text-anchor="start" x="96" y="-18.5" font-family="Helvetica,sans-Serif" font-size="10.00"># describeType()</text>
<text text-anchor="start" x="96" y="-7.5" font-family="Helvetica,sans-Serif" font-size="10.00"># recalculateCollisionBoxes()</text>
</a>
</g>
</g>
<!-- Node2 -->
<g id="node2" class="node">
<title>Node2</title>
<g id="a_node2"><a xlink:href="../../d5/d1b/classpocketmine_1_1block_1_1_transparent.html" target="_top" xlink:title=" ">
<polygon fill="white" stroke="black" points="6.5,-221 6.5,-278 169.5,-278 169.5,-221 6.5,-221"/>
<text text-anchor="middle" x="88" y="-266" font-family="Helvetica,sans-Serif" font-size="10.00">pocketmine\block\Transparent</text>
<polyline fill="none" stroke="black" points="6.5,-259 169.5,-259 "/>
<text text-anchor="middle" x="88" y="-247" font-family="Helvetica,sans-Serif" font-size="10.00"> </text>
<polyline fill="none" stroke="black" points="6.5,-240 169.5,-240 "/>
<text text-anchor="start" x="14.5" y="-228" font-family="Helvetica,sans-Serif" font-size="10.00">+ isTransparent()</text>
</a>
</g>
</g>
<!-- Node2&#45;&gt;Node1 -->
<g id="edge1" class="edge">
<title>Node2&#45;&gt;Node1</title>
<path fill="none" stroke="midnightblue" d="M106.83,-211.78C111.97,-201.74 117.78,-190.4 123.73,-178.8"/>
<polygon fill="none" stroke="midnightblue" points="103.56,-210.48 102.11,-220.98 109.79,-213.68 103.56,-210.48"/>
</g>
<!-- Node3 -->
<g id="node3" class="node">
<title>Node3</title>
<g id="a_node3"><a xlink:href="../../d7/d27/classpocketmine_1_1block_1_1_block.html" target="_top" xlink:title=" ">
<polygon fill="white" stroke="#bfbfbf" points="0,-320.5 0,-597.5 176,-597.5 176,-320.5 0,-320.5"/>
<text text-anchor="middle" x="88" y="-585.5" font-family="Helvetica,sans-Serif" font-size="10.00">pocketmine\block\Block</text>
<polyline fill="none" stroke="#bfbfbf" points="0,-578.5 176,-578.5 "/>
<text text-anchor="start" x="8" y="-566.5" font-family="Helvetica,sans-Serif" font-size="10.00">+ INTERNAL_STATE_DATA_BITS</text>
<text text-anchor="start" x="8" y="-555.5" font-family="Helvetica,sans-Serif" font-size="10.00">+ INTERNAL_STATE_DATA_MASK</text>
<text text-anchor="start" x="8" y="-544.5" font-family="Helvetica,sans-Serif" font-size="10.00"># $collisionBoxes</text>
<text text-anchor="start" x="8" y="-533.5" font-family="Helvetica,sans-Serif" font-size="10.00"># $fallbackName</text>
<text text-anchor="start" x="8" y="-522.5" font-family="Helvetica,sans-Serif" font-size="10.00"># $idInfo</text>
<text text-anchor="start" x="8" y="-511.5" font-family="Helvetica,sans-Serif" font-size="10.00"># $position</text>
<text text-anchor="start" x="8" y="-500.5" font-family="Helvetica,sans-Serif" font-size="10.00"># $typeInfo</text>
<polyline fill="none" stroke="#bfbfbf" points="0,-493.5 176,-493.5 "/>
<text text-anchor="start" x="8" y="-481.5" font-family="Helvetica,sans-Serif" font-size="10.00">+ __construct()</text>
<text text-anchor="start" x="8" y="-470.5" font-family="Helvetica,sans-Serif" font-size="10.00">+ __clone()</text>
<text text-anchor="start" x="8" y="-459.5" font-family="Helvetica,sans-Serif" font-size="10.00">+ __toString()</text>
<text text-anchor="start" x="8" y="-448.5" font-family="Helvetica,sans-Serif" font-size="10.00">+ addVelocityToEntity()</text>
<text text-anchor="start" x="8" y="-437.5" font-family="Helvetica,sans-Serif" font-size="10.00">+ asItem()</text>
<text text-anchor="start" x="8" y="-426.5" font-family="Helvetica,sans-Serif" font-size="10.00">+ blocksDirectSkyLight()</text>
<text text-anchor="start" x="8" y="-415.5" font-family="Helvetica,sans-Serif" font-size="10.00">+ burnsForever()</text>
<text text-anchor="start" x="8" y="-404.5" font-family="Helvetica,sans-Serif" font-size="10.00">+ calculateIntercept()</text>
<text text-anchor="start" x="8" y="-393.5" font-family="Helvetica,sans-Serif" font-size="10.00">+ canBeFlowedInto()</text>
<text text-anchor="start" x="8" y="-382.5" font-family="Helvetica,sans-Serif" font-size="10.00">+ canBePlaced()</text>
<text text-anchor="start" x="8" y="-371.5" font-family="Helvetica,sans-Serif" font-size="10.00">and 63 more...</text>
<text text-anchor="start" x="8" y="-360.5" font-family="Helvetica,sans-Serif" font-size="10.00"># describeState()</text>
<text text-anchor="start" x="8" y="-349.5" font-family="Helvetica,sans-Serif" font-size="10.00"># describeType()</text>
<text text-anchor="start" x="8" y="-338.5" font-family="Helvetica,sans-Serif" font-size="10.00"># getXpDropAmount()</text>
<text text-anchor="start" x="8" y="-327.5" font-family="Helvetica,sans-Serif" font-size="10.00"># recalculateCollisionBoxes()</text>
</a>
</g>
</g>
<!-- Node3&#45;&gt;Node2 -->
<g id="edge2" class="edge">
<title>Node3&#45;&gt;Node2</title>
<path fill="none" stroke="midnightblue" d="M88,-310.2C88,-298.23 88,-287.23 88,-278.01"/>
<polygon fill="none" stroke="midnightblue" points="84.5,-310.46 88,-320.46 91.5,-310.46 84.5,-310.46"/>
</g>
<!-- Node4 -->
<g id="node4" class="node">
<title>Node4</title>
<g id="a_node4"><a xlink:href="../../dd/d27/interfacepocketmine_1_1block_1_1utils_1_1_fallable.html" target="_top" xlink:title=" ">
<polygon fill="white" stroke="#bfbfbf" points="187.5,-215.5 187.5,-283.5 314.5,-283.5 314.5,-215.5 187.5,-215.5"/>
<text text-anchor="start" x="195.5" y="-271.5" font-family="Helvetica,sans-Serif" font-size="10.00">pocketmine\block\utils</text>
<text text-anchor="middle" x="251" y="-260.5" font-family="Helvetica,sans-Serif" font-size="10.00">\Fallable</text>
<polyline fill="none" stroke="#bfbfbf" points="187.5,-253.5 314.5,-253.5 "/>
<text text-anchor="middle" x="251" y="-241.5" font-family="Helvetica,sans-Serif" font-size="10.00"> </text>
<polyline fill="none" stroke="#bfbfbf" points="187.5,-234.5 314.5,-234.5 "/>
<text text-anchor="start" x="195.5" y="-222.5" font-family="Helvetica,sans-Serif" font-size="10.00">+ tickFalling()</text>
</a>
</g>
</g>
<!-- Node4&#45;&gt;Node1 -->
<g id="edge3" class="edge">
<title>Node4&#45;&gt;Node1</title>
<path fill="none" stroke="midnightblue" d="M229.1,-206.3C224.6,-197.63 219.71,-188.2 214.72,-178.59"/>
<polygon fill="none" stroke="midnightblue" points="226.1,-208.11 233.81,-215.38 232.31,-204.89 226.1,-208.11"/>
</g>
</g>
</svg>
