<?xml version="1.0" encoding="UTF-8" standalone="no"?>
<!DOCTYPE svg PUBLIC "-//W3C//DTD SVG 1.1//EN"
 "http://www.w3.org/Graphics/SVG/1.1/DTD/svg11.dtd">
<!-- Generated by graphviz version 2.43.0 (0)
 -->
<!-- Title: pocketmine\block\WoodenPressurePlate Pages: 1 -->
<svg width="195pt" height="794pt"
 viewBox="0.00 0.00 195.00 794.00" xmlns="http://www.w3.org/2000/svg" xmlns:xlink="http://www.w3.org/1999/xlink">
<g id="graph0" class="graph" transform="scale(1 1) rotate(0) translate(4 790)">
<title>pocketmine\block\WoodenPressurePlate</title>
<polygon fill="white" stroke="transparent" points="-4,4 -4,-790 191,-790 191,4 -4,4"/>
<!-- Node1 -->
<g id="node1" class="node">
<title>Node1</title>
<g id="a_node1"><a xlink:title=" ">
<polygon fill="#bfbfbf" stroke="black" points="0,-0.5 0,-68.5 187,-68.5 187,-0.5 0,-0.5"/>
<text text-anchor="start" x="8" y="-56.5" font-family="Helvetica,sans-Serif" font-size="10.00">pocketmine\block\WoodenPressure</text>
<text text-anchor="middle" x="93.5" y="-45.5" font-family="Helvetica,sans-Serif" font-size="10.00">Plate</text>
<polyline fill="none" stroke="black" points="0,-38.5 187,-38.5 "/>
<text text-anchor="middle" x="93.5" y="-26.5" font-family="Helvetica,sans-Serif" font-size="10.00"> </text>
<polyline fill="none" stroke="black" points="0,-19.5 187,-19.5 "/>
<text text-anchor="start" x="8" y="-7.5" font-family="Helvetica,sans-Serif" font-size="10.00">+ getFuelTime()</text>
</a>
</g>
</g>
<!-- Node2 -->
<g id="node2" class="node">
<title>Node2</title>
<g id="a_node2"><a xlink:href="../../dd/dc4/classpocketmine_1_1block_1_1_simple_pressure_plate.html" target="_top" xlink:title=" ">
<polygon fill="white" stroke="#bfbfbf" points="2.5,-105.5 2.5,-217.5 184.5,-217.5 184.5,-105.5 2.5,-105.5"/>
<text text-anchor="start" x="10.5" y="-205.5" font-family="Helvetica,sans-Serif" font-size="10.00">pocketmine\block\SimplePressure</text>
<text text-anchor="middle" x="93.5" y="-194.5" font-family="Helvetica,sans-Serif" font-size="10.00">Plate</text>
<polyline fill="none" stroke="#bfbfbf" points="2.5,-187.5 184.5,-187.5 "/>
<text text-anchor="start" x="10.5" y="-175.5" font-family="Helvetica,sans-Serif" font-size="10.00"># $pressed</text>
<polyline fill="none" stroke="#bfbfbf" points="2.5,-168.5 184.5,-168.5 "/>
<text text-anchor="start" x="10.5" y="-156.5" font-family="Helvetica,sans-Serif" font-size="10.00">+ getRequiredStateDataBits()</text>
<text text-anchor="start" x="10.5" y="-145.5" font-family="Helvetica,sans-Serif" font-size="10.00">+ isPressed()</text>
<text text-anchor="start" x="10.5" y="-134.5" font-family="Helvetica,sans-Serif" font-size="10.00">+ setPressed()</text>
<text text-anchor="start" x="10.5" y="-123.5" font-family="Helvetica,sans-Serif" font-size="10.00"># decodeState()</text>
<text text-anchor="start" x="10.5" y="-112.5" font-family="Helvetica,sans-Serif" font-size="10.00"># encodeState()</text>
</a>
</g>
</g>
<!-- Node2&#45;&gt;Node1 -->
<g id="edge1" class="edge">
<title>Node2&#45;&gt;Node1</title>
<path fill="none" stroke="midnightblue" d="M93.5,-95.26C93.5,-85.99 93.5,-76.8 93.5,-68.51"/>
<polygon fill="none" stroke="midnightblue" points="90,-95.31 93.5,-105.31 97,-95.31 90,-95.31"/>
</g>
<!-- Node3 -->
<g id="node3" class="node">
<title>Node3</title>
<g id="a_node3"><a xlink:href="../../de/d89/classpocketmine_1_1block_1_1_pressure_plate.html" target="_top" xlink:title=" ">
<polygon fill="white" stroke="#bfbfbf" points="13,-254.5 13,-355.5 174,-355.5 174,-254.5 13,-254.5"/>
<text text-anchor="start" x="21" y="-343.5" font-family="Helvetica,sans-Serif" font-size="10.00">pocketmine\block\Pressure</text>
<text text-anchor="middle" x="93.5" y="-332.5" font-family="Helvetica,sans-Serif" font-size="10.00">Plate</text>
<polyline fill="none" stroke="#bfbfbf" points="13,-325.5 174,-325.5 "/>
<text text-anchor="middle" x="93.5" y="-313.5" font-family="Helvetica,sans-Serif" font-size="10.00"> </text>
<polyline fill="none" stroke="#bfbfbf" points="13,-306.5 174,-306.5 "/>
<text text-anchor="start" x="21" y="-294.5" font-family="Helvetica,sans-Serif" font-size="10.00">+ getSupportType()</text>
<text text-anchor="start" x="21" y="-283.5" font-family="Helvetica,sans-Serif" font-size="10.00">+ isSolid()</text>
<text text-anchor="start" x="21" y="-272.5" font-family="Helvetica,sans-Serif" font-size="10.00">+ place()</text>
<text text-anchor="start" x="21" y="-261.5" font-family="Helvetica,sans-Serif" font-size="10.00"># recalculateCollisionBoxes()</text>
</a>
</g>
</g>
<!-- Node3&#45;&gt;Node2 -->
<g id="edge2" class="edge">
<title>Node3&#45;&gt;Node2</title>
<path fill="none" stroke="midnightblue" d="M93.5,-244.01C93.5,-235.29 93.5,-226.34 93.5,-217.72"/>
<polygon fill="none" stroke="midnightblue" points="90,-244.11 93.5,-254.11 97,-244.11 90,-244.11"/>
</g>
<!-- Node4 -->
<g id="node4" class="node">
<title>Node4</title>
<g id="a_node4"><a xlink:href="../../d5/d1b/classpocketmine_1_1block_1_1_transparent.html" target="_top" xlink:title=" ">
<polygon fill="white" stroke="#bfbfbf" points="12,-392.5 12,-449.5 175,-449.5 175,-392.5 12,-392.5"/>
<text text-anchor="middle" x="93.5" y="-437.5" font-family="Helvetica,sans-Serif" font-size="10.00">pocketmine\block\Transparent</text>
<polyline fill="none" stroke="#bfbfbf" points="12,-430.5 175,-430.5 "/>
<text text-anchor="middle" x="93.5" y="-418.5" font-family="Helvetica,sans-Serif" font-size="10.00"> </text>
<polyline fill="none" stroke="#bfbfbf" points="12,-411.5 175,-411.5 "/>
<text text-anchor="start" x="20" y="-399.5" font-family="Helvetica,sans-Serif" font-size="10.00">+ isTransparent()</text>
</a>
</g>
</g>
<!-- Node4&#45;&gt;Node3 -->
<g id="edge3" class="edge">
<title>Node4&#45;&gt;Node3</title>
<path fill="none" stroke="midnightblue" d="M93.5,-382.35C93.5,-373.8 93.5,-364.58 93.5,-355.61"/>
<polygon fill="none" stroke="midnightblue" points="90,-382.4 93.5,-392.4 97,-382.4 90,-382.4"/>
</g>
<!-- Node5 -->
<g id="node5" class="node">
<title>Node5</title>
<g id="a_node5"><a xlink:href="../../d7/d27/classpocketmine_1_1block_1_1_block.html" target="_top" xlink:title=" ">
<polygon fill="white" stroke="#bfbfbf" points="5.5,-486.5 5.5,-785.5 181.5,-785.5 181.5,-486.5 5.5,-486.5"/>
<text text-anchor="middle" x="93.5" y="-773.5" font-family="Helvetica,sans-Serif" font-size="10.00">pocketmine\block\Block</text>
<polyline fill="none" stroke="#bfbfbf" points="5.5,-766.5 181.5,-766.5 "/>
<text text-anchor="start" x="13.5" y="-754.5" font-family="Helvetica,sans-Serif" font-size="10.00">+ INTERNAL_STATE_DATA_BITS</text>
<text text-anchor="start" x="13.5" y="-743.5" font-family="Helvetica,sans-Serif" font-size="10.00">+ INTERNAL_STATE_DATA_MASK</text>
<text text-anchor="start" x="13.5" y="-732.5" font-family="Helvetica,sans-Serif" font-size="10.00"># $breakInfo</text>
<text text-anchor="start" x="13.5" y="-721.5" font-family="Helvetica,sans-Serif" font-size="10.00"># $collisionBoxes</text>
<text text-anchor="start" x="13.5" y="-710.5" font-family="Helvetica,sans-Serif" font-size="10.00"># $fallbackName</text>
<text text-anchor="start" x="13.5" y="-699.5" font-family="Helvetica,sans-Serif" font-size="10.00"># $idInfo</text>
<text text-anchor="start" x="13.5" y="-688.5" font-family="Helvetica,sans-Serif" font-size="10.00"># $position</text>
<polyline fill="none" stroke="#bfbfbf" points="5.5,-681.5 181.5,-681.5 "/>
<text text-anchor="start" x="13.5" y="-669.5" font-family="Helvetica,sans-Serif" font-size="10.00">+ __construct()</text>
<text text-anchor="start" x="13.5" y="-658.5" font-family="Helvetica,sans-Serif" font-size="10.00">+ __clone()</text>
<text text-anchor="start" x="13.5" y="-647.5" font-family="Helvetica,sans-Serif" font-size="10.00">+ __toString()</text>
<text text-anchor="start" x="13.5" y="-636.5" font-family="Helvetica,sans-Serif" font-size="10.00">+ addVelocityToEntity()</text>
<text text-anchor="start" x="13.5" y="-625.5" font-family="Helvetica,sans-Serif" font-size="10.00">+ asItem()</text>
<text text-anchor="start" x="13.5" y="-614.5" font-family="Helvetica,sans-Serif" font-size="10.00">+ blocksDirectSkyLight()</text>
<text text-anchor="start" x="13.5" y="-603.5" font-family="Helvetica,sans-Serif" font-size="10.00">+ burnsForever()</text>
<text text-anchor="start" x="13.5" y="-592.5" font-family="Helvetica,sans-Serif" font-size="10.00">+ calculateIntercept()</text>
<text text-anchor="start" x="13.5" y="-581.5" font-family="Helvetica,sans-Serif" font-size="10.00">+ canBeFlowedInto()</text>
<text text-anchor="start" x="13.5" y="-570.5" font-family="Helvetica,sans-Serif" font-size="10.00">+ canBePlaced()</text>
<text text-anchor="start" x="13.5" y="-559.5" font-family="Helvetica,sans-Serif" font-size="10.00">and 61 more...</text>
<text text-anchor="start" x="13.5" y="-548.5" font-family="Helvetica,sans-Serif" font-size="10.00"># decodeState()</text>
<text text-anchor="start" x="13.5" y="-537.5" font-family="Helvetica,sans-Serif" font-size="10.00"># decodeType()</text>
<text text-anchor="start" x="13.5" y="-526.5" font-family="Helvetica,sans-Serif" font-size="10.00"># encodeState()</text>
<text text-anchor="start" x="13.5" y="-515.5" font-family="Helvetica,sans-Serif" font-size="10.00"># encodeType()</text>
<text text-anchor="start" x="13.5" y="-504.5" font-family="Helvetica,sans-Serif" font-size="10.00"># getXpDropAmount()</text>
<text text-anchor="start" x="13.5" y="-493.5" font-family="Helvetica,sans-Serif" font-size="10.00"># recalculateCollisionBoxes()</text>
</a>
</g>
</g>
<!-- Node5&#45;&gt;Node4 -->
<g id="edge4" class="edge">
<title>Node5&#45;&gt;Node4</title>
<path fill="none" stroke="midnightblue" d="M93.5,-476.36C93.5,-466.48 93.5,-457.39 93.5,-449.59"/>
<polygon fill="none" stroke="midnightblue" points="90,-476.49 93.5,-486.49 97,-476.49 90,-476.49"/>
</g>
</g>
</svg>
