<?xml version="1.0" encoding="UTF-8" standalone="no"?>
<!DOCTYPE svg PUBLIC "-//W3C//DTD SVG 1.1//EN"
 "http://www.w3.org/Graphics/SVG/1.1/DTD/svg11.dtd">
<!-- Generated by graphviz version 2.43.0 (0)
 -->
<!-- Title: pocketmine\world\generator\GeneratorUnregisterTask Pages: 1 -->
<svg width="156pt" height="444pt"
 viewBox="0.00 0.00 156.00 444.00" xmlns="http://www.w3.org/2000/svg" xmlns:xlink="http://www.w3.org/1999/xlink">
<g id="graph0" class="graph" transform="scale(1 1) rotate(0) translate(4 440)">
<title>pocketmine\world\generator\GeneratorUnregisterTask</title>
<!-- Node1 -->
<g id="Node000001" class="node">
<title>Node1</title>
<g id="a_Node000001"><a xlink:title=" ">
<polygon fill="#999999" stroke="transparent" points="148,-75 0,-75 0,0 148,0 148,-75"/>
<text text-anchor="start" x="5" y="-62.5" font-family="Helvetica,sans-Serif" font-size="10.00">pocketmine\world\generator</text>
<text text-anchor="start" x="11.5" y="-51.5" font-family="Helvetica,sans-Serif" font-size="10.00">\GeneratorUnregisterTask</text>
<text text-anchor="start" x="19.5" y="-36.5" font-family="Helvetica,sans-Serif" font-size="10.00">+</text>
<text text-anchor="start" x="48" y="-36.5" font-family="Helvetica,sans-Serif" font-size="10.00">$worldId</text>
<text text-anchor="start" x="19.5" y="-21.5" font-family="Helvetica,sans-Serif" font-size="10.00">+</text>
<text text-anchor="start" x="48" y="-21.5" font-family="Helvetica,sans-Serif" font-size="10.00">__construct()</text>
<text text-anchor="start" x="19.5" y="-6.5" font-family="Helvetica,sans-Serif" font-size="10.00">+</text>
<text text-anchor="start" x="48" y="-6.5" font-family="Helvetica,sans-Serif" font-size="10.00">onRun()</text>
<polygon fill="#666666" stroke="#666666" points="0,-46.5 0,-46.5 148,-46.5 148,-46.5 0,-46.5"/>
<polygon fill="#666666" stroke="#666666" points="0,-31.5 0,-31.5 46,-31.5 46,-31.5 0,-31.5"/>
<polygon fill="#666666" stroke="#666666" points="46,-31.5 46,-31.5 148,-31.5 148,-31.5 46,-31.5"/>
<polygon fill="none" stroke="#666666" points="0,0 0,-75 148,-75 148,0 0,0"/>
</a>
</g>
</g>
<!-- Node2 -->
<g id="Node000002" class="node">
<title>Node2</title>
<g id="a_Node000002"><a xlink:href="../../df/dfa/classpocketmine_1_1scheduler_1_1_async_task.html" target="_top" xlink:title=" ">
<polygon fill="white" stroke="transparent" points="133,-351 15,-351 15,-111 133,-111 133,-351"/>
<text text-anchor="start" x="20" y="-339" font-family="Helvetica,sans-Serif" font-size="10.00">pocketmine\scheduler</text>
<text text-anchor="start" x="46.5" y="-328" font-family="Helvetica,sans-Serif" font-size="10.00">\AsyncTask</text>
<text text-anchor="start" x="72" y="-313" font-family="Helvetica,sans-Serif" font-size="10.00"> </text>
<text text-anchor="start" x="24" y="-298" font-family="Helvetica,sans-Serif" font-size="10.00">+</text>
<text text-anchor="start" x="42" y="-298" font-family="Helvetica,sans-Serif" font-size="10.00">__destruct()</text>
<text text-anchor="start" x="24" y="-283" font-family="Helvetica,sans-Serif" font-size="10.00">+</text>
<text text-anchor="start" x="42" y="-283" font-family="Helvetica,sans-Serif" font-size="10.00">getResult()</text>
<text text-anchor="start" x="24" y="-268" font-family="Helvetica,sans-Serif" font-size="10.00">+</text>
<text text-anchor="start" x="42" y="-268" font-family="Helvetica,sans-Serif" font-size="10.00">hasResult()</text>
<text text-anchor="start" x="24" y="-253" font-family="Helvetica,sans-Serif" font-size="10.00">+</text>
<text text-anchor="start" x="42" y="-253" font-family="Helvetica,sans-Serif" font-size="10.00">isFinished()</text>
<text text-anchor="start" x="24" y="-238" font-family="Helvetica,sans-Serif" font-size="10.00">+</text>
<text text-anchor="start" x="42" y="-238" font-family="Helvetica,sans-Serif" font-size="10.00">isSubmitted()</text>
<text text-anchor="start" x="24" y="-223" font-family="Helvetica,sans-Serif" font-size="10.00">+</text>
<text text-anchor="start" x="42" y="-223" font-family="Helvetica,sans-Serif" font-size="10.00">onCompletion()</text>
<text text-anchor="start" x="24" y="-208" font-family="Helvetica,sans-Serif" font-size="10.00">+</text>
<text text-anchor="start" x="42" y="-208" font-family="Helvetica,sans-Serif" font-size="10.00">onRun()</text>
<text text-anchor="start" x="24" y="-193" font-family="Helvetica,sans-Serif" font-size="10.00">+</text>
<text text-anchor="start" x="42" y="-193" font-family="Helvetica,sans-Serif" font-size="10.00">run()</text>
<text text-anchor="start" x="24" y="-178" font-family="Helvetica,sans-Serif" font-size="10.00">+</text>
<text text-anchor="start" x="42" y="-178" font-family="Helvetica,sans-Serif" font-size="10.00">setResult()</text>
<text text-anchor="start" x="24" y="-163" font-family="Helvetica,sans-Serif" font-size="10.00">+</text>
<text text-anchor="start" x="42" y="-163" font-family="Helvetica,sans-Serif" font-size="10.00">setSubmitted()</text>
<text text-anchor="start" x="24" y="-148" font-family="Helvetica,sans-Serif" font-size="10.00">#</text>
<text text-anchor="start" x="42" y="-148" font-family="Helvetica,sans-Serif" font-size="10.00">fetchLocal()</text>
<text text-anchor="start" x="24" y="-133" font-family="Helvetica,sans-Serif" font-size="10.00">#</text>
<text text-anchor="start" x="42" y="-133" font-family="Helvetica,sans-Serif" font-size="10.00">reallyDestruct()</text>
<text text-anchor="start" x="24" y="-118" font-family="Helvetica,sans-Serif" font-size="10.00">#</text>
<text text-anchor="start" x="42" y="-118" font-family="Helvetica,sans-Serif" font-size="10.00">storeLocal()</text>
<polygon fill="#666666" stroke="#666666" points="15,-323 15,-323 133,-323 133,-323 15,-323"/>
<polygon fill="#666666" stroke="#666666" points="15,-308 15,-308 133,-308 133,-308 15,-308"/>
<polygon fill="none" stroke="#666666" points="15,-111 15,-351 133,-351 133,-111 15,-111"/>
</a>
</g>
</g>
<!-- Node2&#45;&gt;Node1 -->
<g id="edge1_Node000001_Node000002" class="edge">
<title>Node2&#45;&gt;Node1</title>
<g id="a_edge1_Node000001_Node000002"><a xlink:title=" ">
<path fill="none" stroke="#63b8ff" d="M74,-100.86C74,-91.76 74,-83.11 74,-75.32"/>
<polygon fill="none" stroke="#63b8ff" points="70.5,-100.9 74,-110.9 77.5,-100.9 70.5,-100.9"/>
</a>
</g>
</g>
<!-- Node3 -->
<g id="Node000003" class="node">
<title>Node3</title>
<g id="a_Node000003"><a xlink:title=" ">
<polygon fill="white" stroke="transparent" points="102,-436 46,-436 46,-387 102,-387 102,-436"/>
<text text-anchor="start" x="51" y="-423.5" font-family="Helvetica,sans-Serif" font-size="10.00">Runnable</text>
<text text-anchor="start" x="72" y="-408.5" font-family="Helvetica,sans-Serif" font-size="10.00"> </text>
<text text-anchor="start" x="72" y="-393.5" font-family="Helvetica,sans-Serif" font-size="10.00"> </text>
<polygon fill="#bfbfbf" stroke="#bfbfbf" points="46,-418.5 46,-418.5 102,-418.5 102,-418.5 46,-418.5"/>
<polygon fill="#bfbfbf" stroke="#bfbfbf" points="46,-403.5 46,-403.5 102,-403.5 102,-403.5 46,-403.5"/>
<polygon fill="none" stroke="#bfbfbf" points="46,-387 46,-436 102,-436 102,-387 46,-387"/>
</a>
</g>
</g>
<!-- Node3&#45;&gt;Node2 -->
<g id="edge2_Node000002_Node000003" class="edge">
<title>Node3&#45;&gt;Node2</title>
<g id="a_edge2_Node000002_Node000003"><a xlink:title=" ">
<path fill="none" stroke="#63b8ff" d="M74,-376.79C74,-369 74,-360.27 74,-351.06"/>
<polygon fill="none" stroke="#63b8ff" points="70.5,-376.8 74,-386.8 77.5,-376.8 70.5,-376.8"/>
</a>
</g>
</g>
</g>
</svg>
