<?xml version="1.0" encoding="UTF-8" standalone="no"?>
<!DOCTYPE svg PUBLIC "-//W3C//DTD SVG 1.1//EN"
 "http://www.w3.org/Graphics/SVG/1.1/DTD/svg11.dtd">
<!-- Generated by graphviz version 2.43.0 (0)
 -->
<!-- Title: pocketmine\block\ItemFrame Pages: 1 -->
<svg width="1266pt" height="2046pt"
 viewBox="0.00 0.00 1265.50 2046.00" xmlns="http://www.w3.org/2000/svg" xmlns:xlink="http://www.w3.org/1999/xlink">
<g id="graph0" class="graph" transform="scale(1 1) rotate(0) translate(4 2042)">
<title>pocketmine\block\ItemFrame</title>
<polygon fill="white" stroke="transparent" points="-4,4 -4,-2042 1261.5,-2042 1261.5,4 -4,4"/>
<!-- Node1 -->
<g id="node1" class="node">
<title>Node1</title>
<g id="a_node1"><a xlink:title=" ">
<polygon fill="#bfbfbf" stroke="black" points="312.5,-0.5 312.5,-222.5 482.5,-222.5 482.5,-0.5 312.5,-0.5"/>
<text text-anchor="middle" x="397.5" y="-210.5" font-family="Helvetica,sans-Serif" font-size="10.00">pocketmine\block\ItemFrame</text>
<polyline fill="none" stroke="black" points="312.5,-203.5 482.5,-203.5 "/>
<text text-anchor="start" x="320.5" y="-191.5" font-family="Helvetica,sans-Serif" font-size="10.00"># $glowing</text>
<text text-anchor="start" x="320.5" y="-180.5" font-family="Helvetica,sans-Serif" font-size="10.00"># $hasMap</text>
<text text-anchor="start" x="320.5" y="-169.5" font-family="Helvetica,sans-Serif" font-size="10.00"># $itemDropChance</text>
<text text-anchor="start" x="320.5" y="-158.5" font-family="Helvetica,sans-Serif" font-size="10.00"># $itemRotation</text>
<polyline fill="none" stroke="black" points="312.5,-151.5 482.5,-151.5 "/>
<text text-anchor="start" x="320.5" y="-139.5" font-family="Helvetica,sans-Serif" font-size="10.00">+ getDropsForCompatibleTool()</text>
<text text-anchor="start" x="320.5" y="-128.5" font-family="Helvetica,sans-Serif" font-size="10.00">+ getFramedItem()</text>
<text text-anchor="start" x="320.5" y="-117.5" font-family="Helvetica,sans-Serif" font-size="10.00">+ getItemDropChance()</text>
<text text-anchor="start" x="320.5" y="-106.5" font-family="Helvetica,sans-Serif" font-size="10.00">+ getItemRotation()</text>
<text text-anchor="start" x="320.5" y="-95.5" font-family="Helvetica,sans-Serif" font-size="10.00">+ getPickedItem()</text>
<text text-anchor="start" x="320.5" y="-84.5" font-family="Helvetica,sans-Serif" font-size="10.00">+ getRequiredStateDataBits()</text>
<text text-anchor="start" x="320.5" y="-73.5" font-family="Helvetica,sans-Serif" font-size="10.00">+ getRequiredTypeDataBits()</text>
<text text-anchor="start" x="320.5" y="-62.5" font-family="Helvetica,sans-Serif" font-size="10.00">+ hasMap()</text>
<text text-anchor="start" x="320.5" y="-51.5" font-family="Helvetica,sans-Serif" font-size="10.00">+ isGlowing()</text>
<text text-anchor="start" x="320.5" y="-40.5" font-family="Helvetica,sans-Serif" font-size="10.00">+ onAttack()</text>
<text text-anchor="start" x="320.5" y="-29.5" font-family="Helvetica,sans-Serif" font-size="10.00">and 10 more...</text>
<text text-anchor="start" x="320.5" y="-18.5" font-family="Helvetica,sans-Serif" font-size="10.00"># describeState()</text>
<text text-anchor="start" x="320.5" y="-7.5" font-family="Helvetica,sans-Serif" font-size="10.00"># describeType()</text>
</a>
</g>
</g>
<!-- Node2 -->
<g id="node2" class="node">
<title>Node2</title>
<g id="a_node2"><a xlink:href="../../d3/d1e/classpocketmine_1_1block_1_1_flowable.html" target="_top" xlink:title=" ">
<polygon fill="white" stroke="black" points="426,-260.5 426,-350.5 587,-350.5 587,-260.5 426,-260.5"/>
<text text-anchor="middle" x="506.5" y="-338.5" font-family="Helvetica,sans-Serif" font-size="10.00">pocketmine\block\Flowable</text>
<polyline fill="none" stroke="black" points="426,-331.5 587,-331.5 "/>
<text text-anchor="middle" x="506.5" y="-319.5" font-family="Helvetica,sans-Serif" font-size="10.00"> </text>
<polyline fill="none" stroke="black" points="426,-312.5 587,-312.5 "/>
<text text-anchor="start" x="434" y="-300.5" font-family="Helvetica,sans-Serif" font-size="10.00">+ canBeFlowedInto()</text>
<text text-anchor="start" x="434" y="-289.5" font-family="Helvetica,sans-Serif" font-size="10.00">+ getSupportType()</text>
<text text-anchor="start" x="434" y="-278.5" font-family="Helvetica,sans-Serif" font-size="10.00">+ isSolid()</text>
<text text-anchor="start" x="434" y="-267.5" font-family="Helvetica,sans-Serif" font-size="10.00"># recalculateCollisionBoxes()</text>
</a>
</g>
</g>
<!-- Node2&#45;&gt;Node1 -->
<g id="edge1" class="edge">
<title>Node2&#45;&gt;Node1</title>
<path fill="none" stroke="midnightblue" d="M476.45,-251.56C471.27,-242.44 465.72,-232.67 460.05,-222.68"/>
<polygon fill="none" stroke="midnightblue" points="473.51,-253.48 481.49,-260.45 479.6,-250.03 473.51,-253.48"/>
</g>
<!-- Node3 -->
<g id="node3" class="node">
<title>Node3</title>
<g id="a_node3"><a xlink:href="../../d5/d1b/classpocketmine_1_1block_1_1_transparent.html" target="_top" xlink:title=" ">
<polygon fill="white" stroke="black" points="525,-388.5 525,-445.5 688,-445.5 688,-388.5 525,-388.5"/>
<text text-anchor="middle" x="606.5" y="-433.5" font-family="Helvetica,sans-Serif" font-size="10.00">pocketmine\block\Transparent</text>
<polyline fill="none" stroke="black" points="525,-426.5 688,-426.5 "/>
<text text-anchor="middle" x="606.5" y="-414.5" font-family="Helvetica,sans-Serif" font-size="10.00"> </text>
<polyline fill="none" stroke="black" points="525,-407.5 688,-407.5 "/>
<text text-anchor="start" x="533" y="-395.5" font-family="Helvetica,sans-Serif" font-size="10.00">+ isTransparent()</text>
</a>
</g>
</g>
<!-- Node3&#45;&gt;Node2 -->
<g id="edge2" class="edge">
<title>Node3&#45;&gt;Node2</title>
<path fill="none" stroke="midnightblue" d="M574.44,-380.9C565.68,-371.3 556.07,-360.78 546.9,-350.74"/>
<polygon fill="none" stroke="midnightblue" points="571.94,-383.34 581.27,-388.37 577.11,-378.62 571.94,-383.34"/>
</g>
<!-- Node4 -->
<g id="node4" class="node">
<title>Node4</title>
<g id="a_node4"><a xlink:href="../../d7/d27/classpocketmine_1_1block_1_1_block.html" target="_top" xlink:title=" ">
<polygon fill="white" stroke="#bfbfbf" points="626,-493.5 626,-715.5 787,-715.5 787,-493.5 626,-493.5"/>
<text text-anchor="middle" x="706.5" y="-703.5" font-family="Helvetica,sans-Serif" font-size="10.00">pocketmine\block\Block</text>
<polyline fill="none" stroke="#bfbfbf" points="626,-696.5 787,-696.5 "/>
<text text-anchor="start" x="634" y="-684.5" font-family="Helvetica,sans-Serif" font-size="10.00"># $collisionBoxes</text>
<text text-anchor="start" x="634" y="-673.5" font-family="Helvetica,sans-Serif" font-size="10.00"># $fallbackName</text>
<polyline fill="none" stroke="#bfbfbf" points="626,-666.5 787,-666.5 "/>
<text text-anchor="start" x="634" y="-654.5" font-family="Helvetica,sans-Serif" font-size="10.00">+ __construct()</text>
<text text-anchor="start" x="634" y="-643.5" font-family="Helvetica,sans-Serif" font-size="10.00">+ __clone()</text>
<text text-anchor="start" x="634" y="-632.5" font-family="Helvetica,sans-Serif" font-size="10.00">+ __toString()</text>
<text text-anchor="start" x="634" y="-621.5" font-family="Helvetica,sans-Serif" font-size="10.00">+ addVelocityToEntity()</text>
<text text-anchor="start" x="634" y="-610.5" font-family="Helvetica,sans-Serif" font-size="10.00">+ asItem()</text>
<text text-anchor="start" x="634" y="-599.5" font-family="Helvetica,sans-Serif" font-size="10.00">+ blocksDirectSkyLight()</text>
<text text-anchor="start" x="634" y="-588.5" font-family="Helvetica,sans-Serif" font-size="10.00">+ burnsForever()</text>
<text text-anchor="start" x="634" y="-577.5" font-family="Helvetica,sans-Serif" font-size="10.00">+ calculateIntercept()</text>
<text text-anchor="start" x="634" y="-566.5" font-family="Helvetica,sans-Serif" font-size="10.00">+ canBeFlowedInto()</text>
<text text-anchor="start" x="634" y="-555.5" font-family="Helvetica,sans-Serif" font-size="10.00">+ canBePlaced()</text>
<text text-anchor="start" x="634" y="-544.5" font-family="Helvetica,sans-Serif" font-size="10.00">and 63 more...</text>
<text text-anchor="start" x="634" y="-533.5" font-family="Helvetica,sans-Serif" font-size="10.00"># describeState()</text>
<text text-anchor="start" x="634" y="-522.5" font-family="Helvetica,sans-Serif" font-size="10.00"># describeType()</text>
<text text-anchor="start" x="634" y="-511.5" font-family="Helvetica,sans-Serif" font-size="10.00"># getXpDropAmount()</text>
<text text-anchor="start" x="634" y="-500.5" font-family="Helvetica,sans-Serif" font-size="10.00"># recalculateCollisionBoxes()</text>
</a>
</g>
</g>
<!-- Node4&#45;&gt;Node3 -->
<g id="edge3" class="edge">
<title>Node4&#45;&gt;Node3</title>
<path fill="none" stroke="midnightblue" d="M642.32,-484.45C634.62,-470.16 627.4,-456.78 621.5,-445.82"/>
<polygon fill="none" stroke="midnightblue" points="639.35,-486.31 647.17,-493.45 645.51,-482.99 639.35,-486.31"/>
</g>
<!-- Node5 -->
<g id="node5" class="node">
<title>Node5</title>
<g id="a_node5"><a xlink:title=" ">
<polygon fill="white" stroke="#bfbfbf" points="582,-1534.5 582,-1591.5 625,-1591.5 625,-1534.5 582,-1534.5"/>
<text text-anchor="middle" x="603.5" y="-1579.5" font-family="Helvetica,sans-Serif" font-size="10.00">const</text>
<polyline fill="none" stroke="#bfbfbf" points="582,-1572.5 625,-1572.5 "/>
<text text-anchor="middle" x="603.5" y="-1560.5" font-family="Helvetica,sans-Serif" font-size="10.00"> </text>
<polyline fill="none" stroke="#bfbfbf" points="582,-1553.5 625,-1553.5 "/>
<text text-anchor="middle" x="603.5" y="-1541.5" font-family="Helvetica,sans-Serif" font-size="10.00"> </text>
</a>
</g>
</g>
<!-- Node5&#45;&gt;Node1 -->
<g id="edge14" class="edge">
<title>Node5&#45;&gt;Node1</title>
<path fill="none" stroke="#404040" d="M581.84,-1536.78C528.95,-1472.52 397.5,-1295.51 397.5,-1123.5 397.5,-1123.5 397.5,-1123.5 397.5,-304.5 397.5,-281.93 397.5,-257.88 397.5,-234.69"/>
<polygon fill="none" stroke="#404040" points="397.5,-234.66 393.5,-228.66 397.5,-222.66 401.5,-228.66 397.5,-234.66"/>
<text text-anchor="middle" x="431" y="-602" font-family="Helvetica,sans-Serif" font-size="10.00"> +ROTATIONS</text>
</g>
<!-- Node5&#45;&gt;Node4 -->
<g id="edge4" class="edge">
<title>Node5&#45;&gt;Node4</title>
<path fill="none" stroke="#404040" d="M615.05,-1534.19C651.71,-1444.24 765.23,-1152.22 802.5,-898 811.2,-838.63 818.72,-820.77 802.5,-763 799.05,-750.73 794.36,-738.46 788.88,-726.5"/>
<polygon fill="none" stroke="#404040" points="788.85,-726.42 782.64,-722.74 783.65,-715.6 789.86,-719.28 788.85,-726.42"/>
<text text-anchor="start" x="798.5" y="-941" font-family="Helvetica,sans-Serif" font-size="10.00"> +INTERNAL_STATE_DATA</text>
<text text-anchor="middle" x="877" y="-930" font-family="Helvetica,sans-Serif" font-size="10.00">_BITS</text>
<text text-anchor="middle" x="877" y="-919" font-family="Helvetica,sans-Serif" font-size="10.00">+INTERNAL_STATE_DATA_MASK</text>
</g>
<!-- Node10 -->
<g id="node10" class="node">
<title>Node10</title>
<g id="a_node10"><a xlink:href="../../d4/d2b/classpocketmine_1_1world_1_1_world.html" target="_top" xlink:title=" ">
<polygon fill="white" stroke="black" points="1045.5,-967.5 1045.5,-1277.5 1217.5,-1277.5 1217.5,-967.5 1045.5,-967.5"/>
<text text-anchor="middle" x="1131.5" y="-1265.5" font-family="Helvetica,sans-Serif" font-size="10.00">pocketmine\world\World</text>
<polyline fill="none" stroke="black" points="1045.5,-1258.5 1217.5,-1258.5 "/>
<text text-anchor="start" x="1053.5" y="-1246.5" font-family="Helvetica,sans-Serif" font-size="10.00">+ $stopTime</text>
<text text-anchor="start" x="1053.5" y="-1235.5" font-family="Helvetica,sans-Serif" font-size="10.00">+ $tickRateTime</text>
<text text-anchor="start" x="1053.5" y="-1224.5" font-family="Helvetica,sans-Serif" font-size="10.00">+ $updateEntities</text>
<text text-anchor="start" x="1053.5" y="-1213.5" font-family="Helvetica,sans-Serif" font-size="10.00">+ TIME_SUNRISE</text>
<text text-anchor="start" x="1053.5" y="-1202.5" font-family="Helvetica,sans-Serif" font-size="10.00">+ TIME_SUNSET</text>
<text text-anchor="start" x="1053.5" y="-1191.5" font-family="Helvetica,sans-Serif" font-size="10.00">+ Y_MAX</text>
<text text-anchor="start" x="1053.5" y="-1180.5" font-family="Helvetica,sans-Serif" font-size="10.00">+ Y_MIN</text>
<polyline fill="none" stroke="black" points="1045.5,-1173.5 1217.5,-1173.5 "/>
<text text-anchor="start" x="1053.5" y="-1161.5" font-family="Helvetica,sans-Serif" font-size="10.00">+ __construct()</text>
<text text-anchor="start" x="1053.5" y="-1150.5" font-family="Helvetica,sans-Serif" font-size="10.00">+ __debugInfo()</text>
<text text-anchor="start" x="1053.5" y="-1139.5" font-family="Helvetica,sans-Serif" font-size="10.00">+ addEntity()</text>
<text text-anchor="start" x="1053.5" y="-1128.5" font-family="Helvetica,sans-Serif" font-size="10.00">+ addOnUnloadCallback()</text>
<text text-anchor="start" x="1053.5" y="-1117.5" font-family="Helvetica,sans-Serif" font-size="10.00">+ addParticle()</text>
<text text-anchor="start" x="1053.5" y="-1106.5" font-family="Helvetica,sans-Serif" font-size="10.00">+ addRandomTickedBlock()</text>
<text text-anchor="start" x="1053.5" y="-1095.5" font-family="Helvetica,sans-Serif" font-size="10.00">+ addSound()</text>
<text text-anchor="start" x="1053.5" y="-1084.5" font-family="Helvetica,sans-Serif" font-size="10.00">+ addTile()</text>
<text text-anchor="start" x="1053.5" y="-1073.5" font-family="Helvetica,sans-Serif" font-size="10.00">+ broadcastPacketToViewers()</text>
<text text-anchor="start" x="1053.5" y="-1062.5" font-family="Helvetica,sans-Serif" font-size="10.00">+ cancelUnloadChunkRequest()</text>
<text text-anchor="start" x="1053.5" y="-1051.5" font-family="Helvetica,sans-Serif" font-size="10.00">and 115 more...</text>
<text text-anchor="start" x="1053.5" y="-1040.5" font-family="Helvetica,sans-Serif" font-size="10.00">+ blockHash()</text>
<text text-anchor="start" x="1053.5" y="-1029.5" font-family="Helvetica,sans-Serif" font-size="10.00">+ chunkBlockHash()</text>
<text text-anchor="start" x="1053.5" y="-1018.5" font-family="Helvetica,sans-Serif" font-size="10.00">+ chunkHash()</text>
<text text-anchor="start" x="1053.5" y="-1007.5" font-family="Helvetica,sans-Serif" font-size="10.00">+ getBlockXYZ()</text>
<text text-anchor="start" x="1053.5" y="-996.5" font-family="Helvetica,sans-Serif" font-size="10.00">+ getDifficultyFromString()</text>
<text text-anchor="start" x="1053.5" y="-985.5" font-family="Helvetica,sans-Serif" font-size="10.00">+ getXZ()</text>
<text text-anchor="start" x="1053.5" y="-974.5" font-family="Helvetica,sans-Serif" font-size="10.00"># actuallyDoTick()</text>
</a>
</g>
</g>
<!-- Node5&#45;&gt;Node10 -->
<g id="edge11" class="edge">
<title>Node5&#45;&gt;Node10</title>
<path fill="none" stroke="#404040" d="M625,-1553.36C668.47,-1535.14 768.37,-1489.34 835.5,-1428 888.48,-1379.59 867.74,-1334.19 928.5,-1296 966.72,-1271.98 992.23,-1300.42 1034.97,-1277.82"/>
<polygon fill="none" stroke="#404040" points="1035.02,-1277.79 1038.07,-1271.25 1045.28,-1271.56 1042.22,-1278.09 1035.02,-1277.79"/>
<text text-anchor="start" x="928.5" y="-1420" font-family="Helvetica,sans-Serif" font-size="10.00"> +DEFAULT_TICKED_BLOCKS</text>
<text text-anchor="middle" x="998.5" y="-1409" font-family="Helvetica,sans-Serif" font-size="10.00">_PER_SUBCHUNK_PER_TICK</text>
<text text-anchor="middle" x="998.5" y="-1398" font-family="Helvetica,sans-Serif" font-size="10.00">+DIFFICULTY_EASY</text>
<text text-anchor="middle" x="998.5" y="-1387" font-family="Helvetica,sans-Serif" font-size="10.00">+DIFFICULTY_HARD</text>
<text text-anchor="middle" x="998.5" y="-1376" font-family="Helvetica,sans-Serif" font-size="10.00">+DIFFICULTY_NORMAL</text>
<text text-anchor="middle" x="998.5" y="-1365" font-family="Helvetica,sans-Serif" font-size="10.00">+DIFFICULTY_PEACEFUL</text>
<text text-anchor="middle" x="998.5" y="-1354" font-family="Helvetica,sans-Serif" font-size="10.00">+TIME_DAY</text>
<text text-anchor="middle" x="998.5" y="-1343" font-family="Helvetica,sans-Serif" font-size="10.00">+TIME_FULL</text>
<text text-anchor="middle" x="998.5" y="-1332" font-family="Helvetica,sans-Serif" font-size="10.00">+TIME_MIDNIGHT</text>
<text text-anchor="middle" x="998.5" y="-1321" font-family="Helvetica,sans-Serif" font-size="10.00">+TIME_NIGHT</text>
<text text-anchor="middle" x="998.5" y="-1310" font-family="Helvetica,sans-Serif" font-size="10.00">+TIME_NOON</text>
<text text-anchor="middle" x="998.5" y="-1299" font-family="Helvetica,sans-Serif" font-size="10.00">...</text>
</g>
<!-- Node14 -->
<g id="node14" class="node">
<title>Node14</title>
<g id="a_node14"><a xlink:href="../../d5/d8a/classpocketmine_1_1item_1_1_item.html" target="_top" xlink:title=" ">
<polygon fill="white" stroke="#bfbfbf" points="113.5,-989.5 113.5,-1255.5 271.5,-1255.5 271.5,-989.5 113.5,-989.5"/>
<text text-anchor="middle" x="192.5" y="-1243.5" font-family="Helvetica,sans-Serif" font-size="10.00">pocketmine\item\Item</text>
<polyline fill="none" stroke="#bfbfbf" points="113.5,-1236.5 271.5,-1236.5 "/>
<text text-anchor="start" x="121.5" y="-1224.5" font-family="Helvetica,sans-Serif" font-size="10.00"># $canDestroy</text>
<text text-anchor="start" x="121.5" y="-1213.5" font-family="Helvetica,sans-Serif" font-size="10.00"># $canPlaceOn</text>
<text text-anchor="start" x="121.5" y="-1202.5" font-family="Helvetica,sans-Serif" font-size="10.00"># $count</text>
<text text-anchor="start" x="121.5" y="-1191.5" font-family="Helvetica,sans-Serif" font-size="10.00"># $customName</text>
<text text-anchor="start" x="121.5" y="-1180.5" font-family="Helvetica,sans-Serif" font-size="10.00"># $lore</text>
<polyline fill="none" stroke="#bfbfbf" points="113.5,-1173.5 271.5,-1173.5 "/>
<text text-anchor="start" x="121.5" y="-1161.5" font-family="Helvetica,sans-Serif" font-size="10.00">+ __construct()</text>
<text text-anchor="start" x="121.5" y="-1150.5" font-family="Helvetica,sans-Serif" font-size="10.00">+ __clone()</text>
<text text-anchor="start" x="121.5" y="-1139.5" font-family="Helvetica,sans-Serif" font-size="10.00">+ __toString()</text>
<text text-anchor="start" x="121.5" y="-1128.5" font-family="Helvetica,sans-Serif" font-size="10.00">+ canBePlaced()</text>
<text text-anchor="start" x="121.5" y="-1117.5" font-family="Helvetica,sans-Serif" font-size="10.00">+ canStackWith()</text>
<text text-anchor="start" x="121.5" y="-1106.5" font-family="Helvetica,sans-Serif" font-size="10.00">+ clearCustomBlockData()</text>
<text text-anchor="start" x="121.5" y="-1095.5" font-family="Helvetica,sans-Serif" font-size="10.00">+ clearCustomName()</text>
<text text-anchor="start" x="121.5" y="-1084.5" font-family="Helvetica,sans-Serif" font-size="10.00">+ clearNamedTag()</text>
<text text-anchor="start" x="121.5" y="-1073.5" font-family="Helvetica,sans-Serif" font-size="10.00">+ computeTypeData()</text>
<text text-anchor="start" x="121.5" y="-1062.5" font-family="Helvetica,sans-Serif" font-size="10.00">+ equals()</text>
<text text-anchor="start" x="121.5" y="-1051.5" font-family="Helvetica,sans-Serif" font-size="10.00">and 42 more...</text>
<text text-anchor="start" x="121.5" y="-1040.5" font-family="Helvetica,sans-Serif" font-size="10.00">+ legacyJsonDeserialize()</text>
<text text-anchor="start" x="121.5" y="-1029.5" font-family="Helvetica,sans-Serif" font-size="10.00">+ nbtDeserialize()</text>
<text text-anchor="start" x="121.5" y="-1018.5" font-family="Helvetica,sans-Serif" font-size="10.00"># describeType()</text>
<text text-anchor="start" x="121.5" y="-1007.5" font-family="Helvetica,sans-Serif" font-size="10.00"># deserializeCompoundTag()</text>
<text text-anchor="start" x="121.5" y="-996.5" font-family="Helvetica,sans-Serif" font-size="10.00"># serializeCompoundTag()</text>
</a>
</g>
</g>
<!-- Node5&#45;&gt;Node14 -->
<g id="edge17" class="edge">
<title>Node5&#45;&gt;Node14</title>
<path fill="none" stroke="#404040" d="M581.83,-1560.88C519.31,-1556.4 337.42,-1534.37 249.5,-1428 211.56,-1382.1 237.37,-1354.55 226.5,-1296 224.8,-1286.82 223.01,-1277.37 221.2,-1267.85"/>
<polygon fill="none" stroke="#404040" points="221.14,-1267.55 216.08,-1262.41 218.88,-1255.76 223.94,-1260.9 221.14,-1267.55"/>
<text text-anchor="middle" x="316.5" y="-1381.5" font-family="Helvetica,sans-Serif" font-size="10.00"> +TAG_BLOCK_ENTITY_TAG</text>
<text text-anchor="middle" x="316.5" y="-1370.5" font-family="Helvetica,sans-Serif" font-size="10.00">+TAG_DISPLAY</text>
<text text-anchor="middle" x="316.5" y="-1359.5" font-family="Helvetica,sans-Serif" font-size="10.00">+TAG_DISPLAY_LORE</text>
<text text-anchor="middle" x="316.5" y="-1348.5" font-family="Helvetica,sans-Serif" font-size="10.00">+TAG_DISPLAY_NAME</text>
<text text-anchor="middle" x="316.5" y="-1337.5" font-family="Helvetica,sans-Serif" font-size="10.00">+TAG_ENCH</text>
</g>
<!-- Node6 -->
<g id="node6" class="node">
<title>Node6</title>
<g id="a_node6"><a xlink:href="../../dd/d18/classpocketmine_1_1block_1_1_block_identifier.html" target="_top" xlink:title=" ">
<polygon fill="white" stroke="#bfbfbf" points="425.5,-791 425.5,-870 601.5,-870 601.5,-791 425.5,-791"/>
<text text-anchor="middle" x="513.5" y="-858" font-family="Helvetica,sans-Serif" font-size="10.00">pocketmine\block\BlockIdentifier</text>
<polyline fill="none" stroke="#bfbfbf" points="425.5,-851 601.5,-851 "/>
<text text-anchor="middle" x="513.5" y="-839" font-family="Helvetica,sans-Serif" font-size="10.00"> </text>
<polyline fill="none" stroke="#bfbfbf" points="425.5,-832 601.5,-832 "/>
<text text-anchor="start" x="433.5" y="-820" font-family="Helvetica,sans-Serif" font-size="10.00">+ __construct()</text>
<text text-anchor="start" x="433.5" y="-809" font-family="Helvetica,sans-Serif" font-size="10.00">+ getBlockTypeId()</text>
<text text-anchor="start" x="433.5" y="-798" font-family="Helvetica,sans-Serif" font-size="10.00">+ getTileClass()</text>
</a>
</g>
</g>
<!-- Node6&#45;&gt;Node4 -->
<g id="edge5" class="edge">
<title>Node6&#45;&gt;Node4</title>
<path fill="none" stroke="#404040" d="M546.68,-790.99C566.32,-768.19 592.24,-738.12 617.46,-708.84"/>
<polygon fill="none" stroke="#404040" points="617.79,-708.46 618.68,-701.3 625.62,-699.37 624.74,-706.52 617.79,-708.46"/>
<text text-anchor="middle" x="616.5" y="-737" font-family="Helvetica,sans-Serif" font-size="10.00"> #$idInfo</text>
</g>
<!-- Node7 -->
<g id="node7" class="node">
<title>Node7</title>
<g id="a_node7"><a xlink:href="../../de/d9a/classpocketmine_1_1block_1_1_block_type_info.html" target="_top" xlink:title=" ">
<polygon fill="white" stroke="#bfbfbf" points="619.5,-785.5 619.5,-875.5 793.5,-875.5 793.5,-785.5 619.5,-785.5"/>
<text text-anchor="middle" x="706.5" y="-863.5" font-family="Helvetica,sans-Serif" font-size="10.00">pocketmine\block\BlockTypeInfo</text>
<polyline fill="none" stroke="#bfbfbf" points="619.5,-856.5 793.5,-856.5 "/>
<text text-anchor="middle" x="706.5" y="-844.5" font-family="Helvetica,sans-Serif" font-size="10.00"> </text>
<polyline fill="none" stroke="#bfbfbf" points="619.5,-837.5 793.5,-837.5 "/>
<text text-anchor="start" x="627.5" y="-825.5" font-family="Helvetica,sans-Serif" font-size="10.00">+ __construct()</text>
<text text-anchor="start" x="627.5" y="-814.5" font-family="Helvetica,sans-Serif" font-size="10.00">+ getBreakInfo()</text>
<text text-anchor="start" x="627.5" y="-803.5" font-family="Helvetica,sans-Serif" font-size="10.00">+ getTypeTags()</text>
<text text-anchor="start" x="627.5" y="-792.5" font-family="Helvetica,sans-Serif" font-size="10.00">+ hasTypeTag()</text>
</a>
</g>
</g>
<!-- Node7&#45;&gt;Node4 -->
<g id="edge6" class="edge">
<title>Node7&#45;&gt;Node4</title>
<path fill="none" stroke="#404040" d="M706.5,-785.24C706.5,-768.4 706.5,-748.29 706.5,-727.71"/>
<polygon fill="none" stroke="#404040" points="706.5,-727.57 702.5,-721.57 706.5,-715.57 710.5,-721.57 706.5,-727.57"/>
<text text-anchor="middle" x="735.5" y="-737" font-family="Helvetica,sans-Serif" font-size="10.00"> #$typeInfo</text>
</g>
<!-- Node8 -->
<g id="node8" class="node">
<title>Node8</title>
<g id="a_node8"><a xlink:href="../../d5/dd2/classpocketmine_1_1world_1_1_position.html" target="_top" xlink:title=" ">
<polygon fill="white" stroke="#bfbfbf" points="920.5,-763.5 920.5,-897.5 1066.5,-897.5 1066.5,-763.5 920.5,-763.5"/>
<text text-anchor="middle" x="993.5" y="-885.5" font-family="Helvetica,sans-Serif" font-size="10.00">pocketmine\world\Position</text>
<polyline fill="none" stroke="#bfbfbf" points="920.5,-878.5 1066.5,-878.5 "/>
<text text-anchor="middle" x="993.5" y="-866.5" font-family="Helvetica,sans-Serif" font-size="10.00"> </text>
<polyline fill="none" stroke="#bfbfbf" points="920.5,-859.5 1066.5,-859.5 "/>
<text text-anchor="start" x="928.5" y="-847.5" font-family="Helvetica,sans-Serif" font-size="10.00">+ __construct()</text>
<text text-anchor="start" x="928.5" y="-836.5" font-family="Helvetica,sans-Serif" font-size="10.00">+ __toString()</text>
<text text-anchor="start" x="928.5" y="-825.5" font-family="Helvetica,sans-Serif" font-size="10.00">+ asPosition()</text>
<text text-anchor="start" x="928.5" y="-814.5" font-family="Helvetica,sans-Serif" font-size="10.00">+ equals()</text>
<text text-anchor="start" x="928.5" y="-803.5" font-family="Helvetica,sans-Serif" font-size="10.00">+ getSide()</text>
<text text-anchor="start" x="928.5" y="-792.5" font-family="Helvetica,sans-Serif" font-size="10.00">+ getWorld()</text>
<text text-anchor="start" x="928.5" y="-781.5" font-family="Helvetica,sans-Serif" font-size="10.00">+ isValid()</text>
<text text-anchor="start" x="928.5" y="-770.5" font-family="Helvetica,sans-Serif" font-size="10.00">+ fromObject()</text>
</a>
</g>
</g>
<!-- Node8&#45;&gt;Node4 -->
<g id="edge7" class="edge">
<title>Node8&#45;&gt;Node4</title>
<path fill="none" stroke="#404040" d="M920.34,-772.4C882.75,-743.06 836.6,-707.04 796.81,-675.99"/>
<polygon fill="none" stroke="#404040" points="796.57,-675.8 789.38,-675.26 787.11,-668.41 794.3,-668.95 796.57,-675.8"/>
<text text-anchor="middle" x="912" y="-737" font-family="Helvetica,sans-Serif" font-size="10.00"> #$position</text>
</g>
<!-- Node9 -->
<g id="node9" class="node">
<title>Node9</title>
<g id="a_node9"><a xlink:href="../../d2/d90/classpocketmine_1_1math_1_1_vector3.html" target="_top" xlink:title=" ">
<polygon fill="white" stroke="#bfbfbf" points="885.5,-1006 885.5,-1239 1027.5,-1239 1027.5,-1006 885.5,-1006"/>
<text text-anchor="middle" x="956.5" y="-1227" font-family="Helvetica,sans-Serif" font-size="10.00">pocketmine\math\Vector3</text>
<polyline fill="none" stroke="#bfbfbf" points="885.5,-1220 1027.5,-1220 "/>
<text text-anchor="start" x="893.5" y="-1208" font-family="Helvetica,sans-Serif" font-size="10.00">+ $x</text>
<text text-anchor="start" x="893.5" y="-1197" font-family="Helvetica,sans-Serif" font-size="10.00">+ $y</text>
<text text-anchor="start" x="893.5" y="-1186" font-family="Helvetica,sans-Serif" font-size="10.00">+ $z</text>
<polyline fill="none" stroke="#bfbfbf" points="885.5,-1179 1027.5,-1179 "/>
<text text-anchor="start" x="893.5" y="-1167" font-family="Helvetica,sans-Serif" font-size="10.00">+ __construct()</text>
<text text-anchor="start" x="893.5" y="-1156" font-family="Helvetica,sans-Serif" font-size="10.00">+ __toString()</text>
<text text-anchor="start" x="893.5" y="-1145" font-family="Helvetica,sans-Serif" font-size="10.00">+ abs()</text>
<text text-anchor="start" x="893.5" y="-1134" font-family="Helvetica,sans-Serif" font-size="10.00">+ add()</text>
<text text-anchor="start" x="893.5" y="-1123" font-family="Helvetica,sans-Serif" font-size="10.00">+ addVector()</text>
<text text-anchor="start" x="893.5" y="-1112" font-family="Helvetica,sans-Serif" font-size="10.00">+ asVector3()</text>
<text text-anchor="start" x="893.5" y="-1101" font-family="Helvetica,sans-Serif" font-size="10.00">+ ceil()</text>
<text text-anchor="start" x="893.5" y="-1090" font-family="Helvetica,sans-Serif" font-size="10.00">+ cross()</text>
<text text-anchor="start" x="893.5" y="-1079" font-family="Helvetica,sans-Serif" font-size="10.00">+ distance()</text>
<text text-anchor="start" x="893.5" y="-1068" font-family="Helvetica,sans-Serif" font-size="10.00">+ distanceSquared()</text>
<text text-anchor="start" x="893.5" y="-1057" font-family="Helvetica,sans-Serif" font-size="10.00">and 32 more...</text>
<text text-anchor="start" x="893.5" y="-1046" font-family="Helvetica,sans-Serif" font-size="10.00">+ maxComponents()</text>
<text text-anchor="start" x="893.5" y="-1035" font-family="Helvetica,sans-Serif" font-size="10.00">+ minComponents()</text>
<text text-anchor="start" x="893.5" y="-1024" font-family="Helvetica,sans-Serif" font-size="10.00">+ sum()</text>
<text text-anchor="start" x="893.5" y="-1013" font-family="Helvetica,sans-Serif" font-size="10.00">+ zero()</text>
</a>
</g>
</g>
<!-- Node9&#45;&gt;Node8 -->
<g id="edge8" class="edge">
<title>Node9&#45;&gt;Node8</title>
<path fill="none" stroke="midnightblue" d="M973.53,-995.32C975.57,-979.73 977.61,-964 979.5,-949 981.6,-932.39 983.78,-914.45 985.78,-897.7"/>
<polygon fill="none" stroke="midnightblue" points="970.02,-995.17 972.19,-1005.54 976.96,-996.08 970.02,-995.17"/>
</g>
<!-- Node10&#45;&gt;Node8 -->
<g id="edge9" class="edge">
<title>Node10&#45;&gt;Node8</title>
<path fill="none" stroke="#404040" d="M1058.06,-967.16C1048.41,-946.88 1038.88,-926.85 1030.22,-908.66"/>
<polygon fill="none" stroke="#404040" points="1030.1,-908.42 1023.91,-904.72 1024.95,-897.59 1031.14,-901.29 1030.1,-908.42"/>
<text text-anchor="middle" x="1068" y="-930" font-family="Helvetica,sans-Serif" font-size="10.00"> +$world</text>
</g>
<!-- Node11 -->
<g id="node11" class="node">
<title>Node11</title>
<g id="a_node11"><a xlink:href="../../d0/d03/interfacepocketmine_1_1world_1_1_chunk_manager.html" target="_top" xlink:title=" ">
<polygon fill="white" stroke="#bfbfbf" points="1077.5,-1501.5 1077.5,-1624.5 1257.5,-1624.5 1257.5,-1501.5 1077.5,-1501.5"/>
<text text-anchor="middle" x="1167.5" y="-1612.5" font-family="Helvetica,sans-Serif" font-size="10.00">pocketmine\world\ChunkManager</text>
<polyline fill="none" stroke="#bfbfbf" points="1077.5,-1605.5 1257.5,-1605.5 "/>
<text text-anchor="middle" x="1167.5" y="-1593.5" font-family="Helvetica,sans-Serif" font-size="10.00"> </text>
<polyline fill="none" stroke="#bfbfbf" points="1077.5,-1586.5 1257.5,-1586.5 "/>
<text text-anchor="start" x="1085.5" y="-1574.5" font-family="Helvetica,sans-Serif" font-size="10.00">+ getBlockAt()</text>
<text text-anchor="start" x="1085.5" y="-1563.5" font-family="Helvetica,sans-Serif" font-size="10.00">+ getChunk()</text>
<text text-anchor="start" x="1085.5" y="-1552.5" font-family="Helvetica,sans-Serif" font-size="10.00">+ getMaxY()</text>
<text text-anchor="start" x="1085.5" y="-1541.5" font-family="Helvetica,sans-Serif" font-size="10.00">+ getMinY()</text>
<text text-anchor="start" x="1085.5" y="-1530.5" font-family="Helvetica,sans-Serif" font-size="10.00">+ isInWorld()</text>
<text text-anchor="start" x="1085.5" y="-1519.5" font-family="Helvetica,sans-Serif" font-size="10.00">+ setBlockAt()</text>
<text text-anchor="start" x="1085.5" y="-1508.5" font-family="Helvetica,sans-Serif" font-size="10.00">+ setChunk()</text>
</a>
</g>
</g>
<!-- Node11&#45;&gt;Node10 -->
<g id="edge10" class="edge">
<title>Node11&#45;&gt;Node10</title>
<path fill="none" stroke="midnightblue" d="M1165.21,-1491.33C1163.12,-1437.67 1159.45,-1362.09 1153.5,-1296 1152.96,-1289.99 1152.37,-1283.86 1151.74,-1277.67"/>
<polygon fill="none" stroke="midnightblue" points="1161.72,-1491.57 1165.59,-1501.43 1168.71,-1491.3 1161.72,-1491.57"/>
</g>
<!-- Node12 -->
<g id="node12" class="node">
<title>Node12</title>
<g id="a_node12"><a xlink:href="../../d7/d08/classpocketmine_1_1world_1_1_world_timings.html" target="_top" xlink:title=" ">
<polygon fill="white" stroke="#bfbfbf" points="886,-1490.5 886,-1635.5 1059,-1635.5 1059,-1490.5 886,-1490.5"/>
<text text-anchor="middle" x="972.5" y="-1623.5" font-family="Helvetica,sans-Serif" font-size="10.00">pocketmine\world\WorldTimings</text>
<polyline fill="none" stroke="#bfbfbf" points="886,-1616.5 1059,-1616.5 "/>
<text text-anchor="start" x="894" y="-1604.5" font-family="Helvetica,sans-Serif" font-size="10.00">+ $syncChunkLoad</text>
<text text-anchor="start" x="894" y="-1593.5" font-family="Helvetica,sans-Serif" font-size="10.00">+ $syncChunkLoadData</text>
<text text-anchor="start" x="894" y="-1582.5" font-family="Helvetica,sans-Serif" font-size="10.00">+ $syncChunkLoadEntities</text>
<text text-anchor="start" x="894" y="-1571.5" font-family="Helvetica,sans-Serif" font-size="10.00">+ $syncChunkLoadFixInvalid</text>
<text text-anchor="start" x="894" y="-1560.5" font-family="Helvetica,sans-Serif" font-size="10.00">Blocks</text>
<text text-anchor="start" x="894" y="-1549.5" font-family="Helvetica,sans-Serif" font-size="10.00">+ $syncChunkLoadTileEntities</text>
<text text-anchor="start" x="894" y="-1538.5" font-family="Helvetica,sans-Serif" font-size="10.00">+ $syncChunkSave</text>
<text text-anchor="start" x="894" y="-1527.5" font-family="Helvetica,sans-Serif" font-size="10.00">+ $syncChunkSend</text>
<text text-anchor="start" x="894" y="-1516.5" font-family="Helvetica,sans-Serif" font-size="10.00">+ $syncChunkSendPrepare</text>
<polyline fill="none" stroke="#bfbfbf" points="886,-1509.5 1059,-1509.5 "/>
<text text-anchor="start" x="894" y="-1497.5" font-family="Helvetica,sans-Serif" font-size="10.00">+ __construct()</text>
</a>
</g>
</g>
<!-- Node12&#45;&gt;Node10 -->
<g id="edge12" class="edge">
<title>Node12&#45;&gt;Node10</title>
<path fill="none" stroke="#404040" d="M1035.61,-1490.43C1049.71,-1471.25 1063.22,-1449.76 1072.5,-1428 1095.83,-1373.29 1083.37,-1354.43 1094.5,-1296 1094.91,-1293.84 1095.33,-1291.66 1095.75,-1289.47"/>
<polygon fill="none" stroke="#404040" points="1095.76,-1289.44 1092.99,-1282.78 1098.06,-1277.66 1100.84,-1284.32 1095.76,-1289.44"/>
<text text-anchor="middle" x="1122" y="-1359.5" font-family="Helvetica,sans-Serif" font-size="10.00"> +$timings</text>
</g>
<!-- Node13 -->
<g id="node13" class="node">
<title>Node13</title>
<g id="a_node13"><a xlink:href="../../d7/d9b/classpocketmine_1_1timings_1_1_timings_handler.html" target="_top" xlink:title=" ">
<polygon fill="white" stroke="#bfbfbf" points="916,-1848.5 916,-2037.5 1029,-2037.5 1029,-1848.5 916,-1848.5"/>
<text text-anchor="start" x="924" y="-2025.5" font-family="Helvetica,sans-Serif" font-size="10.00">pocketmine\timings</text>
<text text-anchor="middle" x="972.5" y="-2014.5" font-family="Helvetica,sans-Serif" font-size="10.00">\TimingsHandler</text>
<polyline fill="none" stroke="#bfbfbf" points="916,-2007.5 1029,-2007.5 "/>
<text text-anchor="middle" x="972.5" y="-1995.5" font-family="Helvetica,sans-Serif" font-size="10.00"> </text>
<polyline fill="none" stroke="#bfbfbf" points="916,-1988.5 1029,-1988.5 "/>
<text text-anchor="start" x="924" y="-1976.5" font-family="Helvetica,sans-Serif" font-size="10.00">+ __construct()</text>
<text text-anchor="start" x="924" y="-1965.5" font-family="Helvetica,sans-Serif" font-size="10.00">+ destroyCycles()</text>
<text text-anchor="start" x="924" y="-1954.5" font-family="Helvetica,sans-Serif" font-size="10.00">+ getName()</text>
<text text-anchor="start" x="924" y="-1943.5" font-family="Helvetica,sans-Serif" font-size="10.00">+ startTiming()</text>
<text text-anchor="start" x="924" y="-1932.5" font-family="Helvetica,sans-Serif" font-size="10.00">+ stopTiming()</text>
<text text-anchor="start" x="924" y="-1921.5" font-family="Helvetica,sans-Serif" font-size="10.00">+ time()</text>
<text text-anchor="start" x="924" y="-1910.5" font-family="Helvetica,sans-Serif" font-size="10.00">+ getStartTime()</text>
<text text-anchor="start" x="924" y="-1899.5" font-family="Helvetica,sans-Serif" font-size="10.00">+ isEnabled()</text>
<text text-anchor="start" x="924" y="-1888.5" font-family="Helvetica,sans-Serif" font-size="10.00">+ printTimings()</text>
<text text-anchor="start" x="924" y="-1877.5" font-family="Helvetica,sans-Serif" font-size="10.00">+ reload()</text>
<text text-anchor="start" x="924" y="-1866.5" font-family="Helvetica,sans-Serif" font-size="10.00">+ setEnabled()</text>
<text text-anchor="start" x="924" y="-1855.5" font-family="Helvetica,sans-Serif" font-size="10.00">+ tick()</text>
</a>
</g>
</g>
<!-- Node13&#45;&gt;Node12 -->
<g id="edge13" class="edge">
<title>Node13&#45;&gt;Node12</title>
<path fill="none" stroke="#404040" d="M972.5,-1848.08C972.5,-1786.73 972.5,-1707.33 972.5,-1648.07"/>
<polygon fill="none" stroke="#404040" points="972.5,-1647.74 968.5,-1641.74 972.5,-1635.74 976.5,-1641.74 972.5,-1647.74"/>
<text text-anchor="middle" x="1049.5" y="-1822" font-family="Helvetica,sans-Serif" font-size="10.00"> +$doBlockLightUpdates</text>
<text text-anchor="middle" x="1049.5" y="-1811" font-family="Helvetica,sans-Serif" font-size="10.00">+$doBlockSkyLightUpdates</text>
<text text-anchor="middle" x="1049.5" y="-1800" font-family="Helvetica,sans-Serif" font-size="10.00">+$doChunkGC</text>
<text text-anchor="middle" x="1049.5" y="-1789" font-family="Helvetica,sans-Serif" font-size="10.00">+$doChunkUnload</text>
<text text-anchor="middle" x="1049.5" y="-1778" font-family="Helvetica,sans-Serif" font-size="10.00">+$doTick</text>
<text text-anchor="middle" x="1049.5" y="-1767" font-family="Helvetica,sans-Serif" font-size="10.00">+$entityTick</text>
<text text-anchor="middle" x="1049.5" y="-1756" font-family="Helvetica,sans-Serif" font-size="10.00">+$randomChunkUpdates</text>
<text text-anchor="start" x="972.5" y="-1745" font-family="Helvetica,sans-Serif" font-size="10.00">+$randomChunkUpdatesChunk</text>
<text text-anchor="middle" x="1049.5" y="-1734" font-family="Helvetica,sans-Serif" font-size="10.00">Selection</text>
<text text-anchor="middle" x="1049.5" y="-1723" font-family="Helvetica,sans-Serif" font-size="10.00">+$scheduledBlockUpdates</text>
<text text-anchor="middle" x="1049.5" y="-1712" font-family="Helvetica,sans-Serif" font-size="10.00">+$setBlock</text>
<text text-anchor="middle" x="1049.5" y="-1701" font-family="Helvetica,sans-Serif" font-size="10.00">...</text>
</g>
<!-- Node14&#45;&gt;Node1 -->
<g id="edge15" class="edge">
<title>Node14&#45;&gt;Node1</title>
<path fill="none" stroke="#404040" d="M229.64,-989.38C240.5,-940.23 249.5,-883.71 249.5,-831.5 249.5,-831.5 249.5,-831.5 249.5,-304.5 249.5,-260.26 274.45,-219.98 303.87,-187.86"/>
<polygon fill="none" stroke="#404040" points="304,-187.73 305.23,-180.62 312.27,-179.03 311.03,-186.13 304,-187.73"/>
<text text-anchor="middle" x="287.5" y="-467" font-family="Helvetica,sans-Serif" font-size="10.00"> #$framedItem</text>
</g>
<!-- Node15 -->
<g id="node15" class="node">
<title>Node15</title>
<g id="a_node15"><a xlink:title=" ">
<polygon fill="white" stroke="#bfbfbf" points="10.5,-1534.5 10.5,-1591.5 104.5,-1591.5 104.5,-1534.5 10.5,-1534.5"/>
<text text-anchor="middle" x="57.5" y="-1579.5" font-family="Helvetica,sans-Serif" font-size="10.00">JsonSerializable</text>
<polyline fill="none" stroke="#bfbfbf" points="10.5,-1572.5 104.5,-1572.5 "/>
<text text-anchor="middle" x="57.5" y="-1560.5" font-family="Helvetica,sans-Serif" font-size="10.00"> </text>
<polyline fill="none" stroke="#bfbfbf" points="10.5,-1553.5 104.5,-1553.5 "/>
<text text-anchor="middle" x="57.5" y="-1541.5" font-family="Helvetica,sans-Serif" font-size="10.00"> </text>
</a>
</g>
</g>
<!-- Node15&#45;&gt;Node14 -->
<g id="edge16" class="edge">
<title>Node15&#45;&gt;Node14</title>
<path fill="none" stroke="midnightblue" d="M66.1,-1524.4C78.26,-1472.55 101.85,-1376.4 127.5,-1296 131.68,-1282.89 136.29,-1269.32 141.07,-1255.81"/>
<polygon fill="none" stroke="midnightblue" points="62.69,-1523.63 63.83,-1534.16 69.51,-1525.21 62.69,-1523.63"/>
</g>
<!-- Node16 -->
<g id="node16" class="node">
<title>Node16</title>
<g id="a_node16"><a xlink:href="../../de/d67/classpocketmine_1_1nbt_1_1tag_1_1_compound_tag.html" target="_top" xlink:title=" ">
<polygon fill="white" stroke="black" points="122.5,-1446.5 122.5,-1679.5 242.5,-1679.5 242.5,-1446.5 122.5,-1446.5"/>
<text text-anchor="start" x="130.5" y="-1667.5" font-family="Helvetica,sans-Serif" font-size="10.00">pocketmine\nbt\tag</text>
<text text-anchor="middle" x="182.5" y="-1656.5" font-family="Helvetica,sans-Serif" font-size="10.00">\CompoundTag</text>
<polyline fill="none" stroke="black" points="122.5,-1649.5 242.5,-1649.5 "/>
<text text-anchor="middle" x="182.5" y="-1637.5" font-family="Helvetica,sans-Serif" font-size="10.00"> </text>
<polyline fill="none" stroke="black" points="122.5,-1630.5 242.5,-1630.5 "/>
<text text-anchor="start" x="130.5" y="-1618.5" font-family="Helvetica,sans-Serif" font-size="10.00">+ __construct()</text>
<text text-anchor="start" x="130.5" y="-1607.5" font-family="Helvetica,sans-Serif" font-size="10.00">+ __clone()</text>
<text text-anchor="start" x="130.5" y="-1596.5" font-family="Helvetica,sans-Serif" font-size="10.00">+ count()</text>
<text text-anchor="start" x="130.5" y="-1585.5" font-family="Helvetica,sans-Serif" font-size="10.00">+ equals()</text>
<text text-anchor="start" x="130.5" y="-1574.5" font-family="Helvetica,sans-Serif" font-size="10.00">+ getByte()</text>
<text text-anchor="start" x="130.5" y="-1563.5" font-family="Helvetica,sans-Serif" font-size="10.00">+ getByteArray()</text>
<text text-anchor="start" x="130.5" y="-1552.5" font-family="Helvetica,sans-Serif" font-size="10.00">+ getCompoundTag()</text>
<text text-anchor="start" x="130.5" y="-1541.5" font-family="Helvetica,sans-Serif" font-size="10.00">+ getCount()</text>
<text text-anchor="start" x="130.5" y="-1530.5" font-family="Helvetica,sans-Serif" font-size="10.00">+ getDouble()</text>
<text text-anchor="start" x="130.5" y="-1519.5" font-family="Helvetica,sans-Serif" font-size="10.00">+ getFloat()</text>
<text text-anchor="start" x="130.5" y="-1508.5" font-family="Helvetica,sans-Serif" font-size="10.00">and 23 more...</text>
<text text-anchor="start" x="130.5" y="-1497.5" font-family="Helvetica,sans-Serif" font-size="10.00">+ create()</text>
<text text-anchor="start" x="130.5" y="-1486.5" font-family="Helvetica,sans-Serif" font-size="10.00">+ read()</text>
<text text-anchor="start" x="130.5" y="-1475.5" font-family="Helvetica,sans-Serif" font-size="10.00"># getTypeName()</text>
<text text-anchor="start" x="130.5" y="-1464.5" font-family="Helvetica,sans-Serif" font-size="10.00"># makeCopy()</text>
<text text-anchor="start" x="130.5" y="-1453.5" font-family="Helvetica,sans-Serif" font-size="10.00"># stringifyValue()</text>
</a>
</g>
</g>
<!-- Node16&#45;&gt;Node14 -->
<g id="edge18" class="edge">
<title>Node16&#45;&gt;Node14</title>
<path fill="none" stroke="#404040" d="M141.12,-1446.37C139.71,-1440.21 138.49,-1434.05 137.5,-1428 128.04,-1370.1 128.48,-1353.97 137.5,-1296 138.96,-1286.62 140.84,-1277.04 143.02,-1267.46"/>
<polygon fill="none" stroke="#404040" points="143.03,-1267.44 140.54,-1260.67 145.83,-1255.77 148.32,-1262.54 143.03,-1267.44"/>
<text text-anchor="middle" x="182" y="-1359.5" font-family="Helvetica,sans-Serif" font-size="10.00"> #$blockEntityTag</text>
</g>
<!-- Node17 -->
<g id="node17" class="node">
<title>Node17</title>
<g id="a_node17"><a xlink:href="../../dc/d26/classpocketmine_1_1nbt_1_1tag_1_1_tag.html" target="_top" xlink:title=" ">
<polygon fill="white" stroke="#bfbfbf" points="0,-1859.5 0,-2026.5 131,-2026.5 131,-1859.5 0,-1859.5"/>
<text text-anchor="middle" x="65.5" y="-2014.5" font-family="Helvetica,sans-Serif" font-size="10.00">pocketmine\nbt\tag\Tag</text>
<polyline fill="none" stroke="#bfbfbf" points="0,-2007.5 131,-2007.5 "/>
<text text-anchor="start" x="8" y="-1995.5" font-family="Helvetica,sans-Serif" font-size="10.00"># $cloning</text>
<polyline fill="none" stroke="#bfbfbf" points="0,-1988.5 131,-1988.5 "/>
<text text-anchor="start" x="8" y="-1976.5" font-family="Helvetica,sans-Serif" font-size="10.00">+ __toString()</text>
<text text-anchor="start" x="8" y="-1965.5" font-family="Helvetica,sans-Serif" font-size="10.00">+ equals()</text>
<text text-anchor="start" x="8" y="-1954.5" font-family="Helvetica,sans-Serif" font-size="10.00">+ getType()</text>
<text text-anchor="start" x="8" y="-1943.5" font-family="Helvetica,sans-Serif" font-size="10.00">+ getValue()</text>
<text text-anchor="start" x="8" y="-1932.5" font-family="Helvetica,sans-Serif" font-size="10.00">+ safeClone()</text>
<text text-anchor="start" x="8" y="-1921.5" font-family="Helvetica,sans-Serif" font-size="10.00">+ toString()</text>
<text text-anchor="start" x="8" y="-1910.5" font-family="Helvetica,sans-Serif" font-size="10.00">+ write()</text>
<text text-anchor="start" x="8" y="-1899.5" font-family="Helvetica,sans-Serif" font-size="10.00"># getTypeName()</text>
<text text-anchor="start" x="8" y="-1888.5" font-family="Helvetica,sans-Serif" font-size="10.00"># makeCopy()</text>
<text text-anchor="start" x="8" y="-1877.5" font-family="Helvetica,sans-Serif" font-size="10.00"># stringifyValue()</text>
<text text-anchor="start" x="8" y="-1866.5" font-family="Helvetica,sans-Serif" font-size="10.00"># restrictArgCount()</text>
</a>
</g>
</g>
<!-- Node17&#45;&gt;Node16 -->
<g id="edge19" class="edge">
<title>Node17&#45;&gt;Node16</title>
<path fill="none" stroke="midnightblue" d="M94.19,-1849.32C110.02,-1798.16 129.83,-1734.16 146.68,-1679.74"/>
<polygon fill="none" stroke="midnightblue" points="90.79,-1848.46 91.18,-1859.05 97.48,-1850.53 90.79,-1848.46"/>
</g>
<!-- Node18 -->
<g id="node18" class="node">
<title>Node18</title>
<g id="a_node18"><a xlink:title=" ">
<polygon fill="white" stroke="#bfbfbf" points="149.5,-1914.5 149.5,-1971.5 215.5,-1971.5 215.5,-1914.5 149.5,-1914.5"/>
<text text-anchor="middle" x="182.5" y="-1959.5" font-family="Helvetica,sans-Serif" font-size="10.00">Countable</text>
<polyline fill="none" stroke="#bfbfbf" points="149.5,-1952.5 215.5,-1952.5 "/>
<text text-anchor="middle" x="182.5" y="-1940.5" font-family="Helvetica,sans-Serif" font-size="10.00"> </text>
<polyline fill="none" stroke="#bfbfbf" points="149.5,-1933.5 215.5,-1933.5 "/>
<text text-anchor="middle" x="182.5" y="-1921.5" font-family="Helvetica,sans-Serif" font-size="10.00"> </text>
</a>
</g>
</g>
<!-- Node18&#45;&gt;Node16 -->
<g id="edge20" class="edge">
<title>Node18&#45;&gt;Node16</title>
<path fill="none" stroke="midnightblue" d="M182.5,-1904.09C182.5,-1852.06 182.5,-1756.24 182.5,-1679.53"/>
<polygon fill="none" stroke="midnightblue" points="179,-1904.2 182.5,-1914.2 186,-1904.2 179,-1904.2"/>
</g>
<!-- Node19 -->
<g id="node19" class="node">
<title>Node19</title>
<g id="a_node19"><a xlink:title=" ">
<polygon fill="white" stroke="#bfbfbf" points="234,-1914.5 234,-1971.5 337,-1971.5 337,-1914.5 234,-1914.5"/>
<text text-anchor="middle" x="285.5" y="-1959.5" font-family="Helvetica,sans-Serif" font-size="10.00">IteratorAggregate</text>
<polyline fill="none" stroke="#bfbfbf" points="234,-1952.5 337,-1952.5 "/>
<text text-anchor="middle" x="285.5" y="-1940.5" font-family="Helvetica,sans-Serif" font-size="10.00"> </text>
<polyline fill="none" stroke="#bfbfbf" points="234,-1933.5 337,-1933.5 "/>
<text text-anchor="middle" x="285.5" y="-1921.5" font-family="Helvetica,sans-Serif" font-size="10.00"> </text>
</a>
</g>
</g>
<!-- Node19&#45;&gt;Node16 -->
<g id="edge21" class="edge">
<title>Node19&#45;&gt;Node16</title>
<path fill="none" stroke="midnightblue" d="M275.26,-1904.42C261.1,-1852.46 234.93,-1756.4 213.98,-1679.53"/>
<polygon fill="none" stroke="midnightblue" points="271.92,-1905.48 277.93,-1914.2 278.67,-1903.64 271.92,-1905.48"/>
</g>
</g>
</svg>
