<?xml version="1.0" encoding="UTF-8" standalone="no"?>
<!DOCTYPE svg PUBLIC "-//W3C//DTD SVG 1.1//EN"
 "http://www.w3.org/Graphics/SVG/1.1/DTD/svg11.dtd">
<!-- Generated by graphviz version 2.43.0 (0)
 -->
<!-- Title: pocketmine\block\ItemFrame Pages: 1 -->
<svg width="1266pt" height="2024pt"
 viewBox="0.00 0.00 1265.50 2024.00" xmlns="http://www.w3.org/2000/svg" xmlns:xlink="http://www.w3.org/1999/xlink">
<g id="graph0" class="graph" transform="scale(1 1) rotate(0) translate(4 2020)">
<title>pocketmine\block\ItemFrame</title>
<polygon fill="white" stroke="transparent" points="-4,4 -4,-2020 1261.5,-2020 1261.5,4 -4,4"/>
<!-- Node1 -->
<g id="node1" class="node">
<title>Node1</title>
<g id="a_node1"><a xlink:title=" ">
<polygon fill="#bfbfbf" stroke="black" points="312.5,-0.5 312.5,-200.5 482.5,-200.5 482.5,-0.5 312.5,-0.5"/>
<text text-anchor="middle" x="397.5" y="-188.5" font-family="Helvetica,sans-Serif" font-size="10.00">pocketmine\block\ItemFrame</text>
<polyline fill="none" stroke="black" points="312.5,-181.5 482.5,-181.5 "/>
<text text-anchor="start" x="320.5" y="-169.5" font-family="Helvetica,sans-Serif" font-size="10.00"># $hasMap</text>
<text text-anchor="start" x="320.5" y="-158.5" font-family="Helvetica,sans-Serif" font-size="10.00"># $itemDropChance</text>
<text text-anchor="start" x="320.5" y="-147.5" font-family="Helvetica,sans-Serif" font-size="10.00"># $itemRotation</text>
<polyline fill="none" stroke="black" points="312.5,-140.5 482.5,-140.5 "/>
<text text-anchor="start" x="320.5" y="-128.5" font-family="Helvetica,sans-Serif" font-size="10.00">+ getDropsForCompatibleTool()</text>
<text text-anchor="start" x="320.5" y="-117.5" font-family="Helvetica,sans-Serif" font-size="10.00">+ getFramedItem()</text>
<text text-anchor="start" x="320.5" y="-106.5" font-family="Helvetica,sans-Serif" font-size="10.00">+ getItemDropChance()</text>
<text text-anchor="start" x="320.5" y="-95.5" font-family="Helvetica,sans-Serif" font-size="10.00">+ getItemRotation()</text>
<text text-anchor="start" x="320.5" y="-84.5" font-family="Helvetica,sans-Serif" font-size="10.00">+ getPickedItem()</text>
<text text-anchor="start" x="320.5" y="-73.5" font-family="Helvetica,sans-Serif" font-size="10.00">+ hasMap()</text>
<text text-anchor="start" x="320.5" y="-62.5" font-family="Helvetica,sans-Serif" font-size="10.00">+ onAttack()</text>
<text text-anchor="start" x="320.5" y="-51.5" font-family="Helvetica,sans-Serif" font-size="10.00">+ onInteract()</text>
<text text-anchor="start" x="320.5" y="-40.5" font-family="Helvetica,sans-Serif" font-size="10.00">+ onNearbyBlockChange()</text>
<text text-anchor="start" x="320.5" y="-29.5" font-family="Helvetica,sans-Serif" font-size="10.00">+ place()</text>
<text text-anchor="start" x="320.5" y="-18.5" font-family="Helvetica,sans-Serif" font-size="10.00">and 6 more...</text>
<text text-anchor="start" x="320.5" y="-7.5" font-family="Helvetica,sans-Serif" font-size="10.00"># describeState()</text>
</a>
</g>
</g>
<!-- Node2 -->
<g id="node2" class="node">
<title>Node2</title>
<g id="a_node2"><a xlink:href="../../d3/d1e/classpocketmine_1_1block_1_1_flowable.html" target="_top" xlink:title=" ">
<polygon fill="white" stroke="black" points="426,-238.5 426,-328.5 587,-328.5 587,-238.5 426,-238.5"/>
<text text-anchor="middle" x="506.5" y="-316.5" font-family="Helvetica,sans-Serif" font-size="10.00">pocketmine\block\Flowable</text>
<polyline fill="none" stroke="black" points="426,-309.5 587,-309.5 "/>
<text text-anchor="middle" x="506.5" y="-297.5" font-family="Helvetica,sans-Serif" font-size="10.00"> </text>
<polyline fill="none" stroke="black" points="426,-290.5 587,-290.5 "/>
<text text-anchor="start" x="434" y="-278.5" font-family="Helvetica,sans-Serif" font-size="10.00">+ canBeFlowedInto()</text>
<text text-anchor="start" x="434" y="-267.5" font-family="Helvetica,sans-Serif" font-size="10.00">+ getSupportType()</text>
<text text-anchor="start" x="434" y="-256.5" font-family="Helvetica,sans-Serif" font-size="10.00">+ isSolid()</text>
<text text-anchor="start" x="434" y="-245.5" font-family="Helvetica,sans-Serif" font-size="10.00"># recalculateCollisionBoxes()</text>
</a>
</g>
</g>
<!-- Node2&#45;&gt;Node1 -->
<g id="edge1" class="edge">
<title>Node2&#45;&gt;Node1</title>
<path fill="none" stroke="midnightblue" d="M474.66,-229.63C469.14,-220.46 463.23,-210.66 457.25,-200.71"/>
<polygon fill="none" stroke="midnightblue" points="471.68,-231.46 479.84,-238.22 477.67,-227.85 471.68,-231.46"/>
</g>
<!-- Node3 -->
<g id="node3" class="node">
<title>Node3</title>
<g id="a_node3"><a xlink:href="../../d5/d1b/classpocketmine_1_1block_1_1_transparent.html" target="_top" xlink:title=" ">
<polygon fill="white" stroke="black" points="525,-366.5 525,-423.5 688,-423.5 688,-366.5 525,-366.5"/>
<text text-anchor="middle" x="606.5" y="-411.5" font-family="Helvetica,sans-Serif" font-size="10.00">pocketmine\block\Transparent</text>
<polyline fill="none" stroke="black" points="525,-404.5 688,-404.5 "/>
<text text-anchor="middle" x="606.5" y="-392.5" font-family="Helvetica,sans-Serif" font-size="10.00"> </text>
<polyline fill="none" stroke="black" points="525,-385.5 688,-385.5 "/>
<text text-anchor="start" x="533" y="-373.5" font-family="Helvetica,sans-Serif" font-size="10.00">+ isTransparent()</text>
</a>
</g>
</g>
<!-- Node3&#45;&gt;Node2 -->
<g id="edge2" class="edge">
<title>Node3&#45;&gt;Node2</title>
<path fill="none" stroke="midnightblue" d="M574.44,-358.9C565.68,-349.3 556.07,-338.78 546.9,-328.74"/>
<polygon fill="none" stroke="midnightblue" points="571.94,-361.34 581.27,-366.37 577.11,-356.62 571.94,-361.34"/>
</g>
<!-- Node4 -->
<g id="node4" class="node">
<title>Node4</title>
<g id="a_node4"><a xlink:href="../../d7/d27/classpocketmine_1_1block_1_1_block.html" target="_top" xlink:title=" ">
<polygon fill="white" stroke="#bfbfbf" points="626,-471.5 626,-693.5 787,-693.5 787,-471.5 626,-471.5"/>
<text text-anchor="middle" x="706.5" y="-681.5" font-family="Helvetica,sans-Serif" font-size="10.00">pocketmine\block\Block</text>
<polyline fill="none" stroke="#bfbfbf" points="626,-674.5 787,-674.5 "/>
<text text-anchor="start" x="634" y="-662.5" font-family="Helvetica,sans-Serif" font-size="10.00"># $collisionBoxes</text>
<text text-anchor="start" x="634" y="-651.5" font-family="Helvetica,sans-Serif" font-size="10.00"># $fallbackName</text>
<polyline fill="none" stroke="#bfbfbf" points="626,-644.5 787,-644.5 "/>
<text text-anchor="start" x="634" y="-632.5" font-family="Helvetica,sans-Serif" font-size="10.00">+ __construct()</text>
<text text-anchor="start" x="634" y="-621.5" font-family="Helvetica,sans-Serif" font-size="10.00">+ __clone()</text>
<text text-anchor="start" x="634" y="-610.5" font-family="Helvetica,sans-Serif" font-size="10.00">+ __toString()</text>
<text text-anchor="start" x="634" y="-599.5" font-family="Helvetica,sans-Serif" font-size="10.00">+ addVelocityToEntity()</text>
<text text-anchor="start" x="634" y="-588.5" font-family="Helvetica,sans-Serif" font-size="10.00">+ asItem()</text>
<text text-anchor="start" x="634" y="-577.5" font-family="Helvetica,sans-Serif" font-size="10.00">+ blocksDirectSkyLight()</text>
<text text-anchor="start" x="634" y="-566.5" font-family="Helvetica,sans-Serif" font-size="10.00">+ burnsForever()</text>
<text text-anchor="start" x="634" y="-555.5" font-family="Helvetica,sans-Serif" font-size="10.00">+ calculateIntercept()</text>
<text text-anchor="start" x="634" y="-544.5" font-family="Helvetica,sans-Serif" font-size="10.00">+ canBeFlowedInto()</text>
<text text-anchor="start" x="634" y="-533.5" font-family="Helvetica,sans-Serif" font-size="10.00">+ canBePlaced()</text>
<text text-anchor="start" x="634" y="-522.5" font-family="Helvetica,sans-Serif" font-size="10.00">and 63 more...</text>
<text text-anchor="start" x="634" y="-511.5" font-family="Helvetica,sans-Serif" font-size="10.00"># describeState()</text>
<text text-anchor="start" x="634" y="-500.5" font-family="Helvetica,sans-Serif" font-size="10.00"># describeType()</text>
<text text-anchor="start" x="634" y="-489.5" font-family="Helvetica,sans-Serif" font-size="10.00"># getXpDropAmount()</text>
<text text-anchor="start" x="634" y="-478.5" font-family="Helvetica,sans-Serif" font-size="10.00"># recalculateCollisionBoxes()</text>
</a>
</g>
</g>
<!-- Node4&#45;&gt;Node3 -->
<g id="edge3" class="edge">
<title>Node4&#45;&gt;Node3</title>
<path fill="none" stroke="midnightblue" d="M642.32,-462.45C634.62,-448.16 627.4,-434.78 621.5,-423.82"/>
<polygon fill="none" stroke="midnightblue" points="639.35,-464.31 647.17,-471.45 645.51,-460.99 639.35,-464.31"/>
</g>
<!-- Node5 -->
<g id="node5" class="node">
<title>Node5</title>
<g id="a_node5"><a xlink:title=" ">
<polygon fill="white" stroke="#bfbfbf" points="582,-1512.5 582,-1569.5 625,-1569.5 625,-1512.5 582,-1512.5"/>
<text text-anchor="middle" x="603.5" y="-1557.5" font-family="Helvetica,sans-Serif" font-size="10.00">const</text>
<polyline fill="none" stroke="#bfbfbf" points="582,-1550.5 625,-1550.5 "/>
<text text-anchor="middle" x="603.5" y="-1538.5" font-family="Helvetica,sans-Serif" font-size="10.00"> </text>
<polyline fill="none" stroke="#bfbfbf" points="582,-1531.5 625,-1531.5 "/>
<text text-anchor="middle" x="603.5" y="-1519.5" font-family="Helvetica,sans-Serif" font-size="10.00"> </text>
</a>
</g>
</g>
<!-- Node5&#45;&gt;Node1 -->
<g id="edge14" class="edge">
<title>Node5&#45;&gt;Node1</title>
<path fill="none" stroke="#404040" d="M581.84,-1514.78C528.95,-1450.52 397.5,-1273.51 397.5,-1101.5 397.5,-1101.5 397.5,-1101.5 397.5,-282.5 397.5,-259.99 397.5,-235.91 397.5,-212.9"/>
<polygon fill="none" stroke="#404040" points="397.5,-212.61 393.5,-206.61 397.5,-200.61 401.5,-206.61 397.5,-212.61"/>
<text text-anchor="middle" x="431" y="-580" font-family="Helvetica,sans-Serif" font-size="10.00"> +ROTATIONS</text>
</g>
<!-- Node5&#45;&gt;Node4 -->
<g id="edge4" class="edge">
<title>Node5&#45;&gt;Node4</title>
<path fill="none" stroke="#404040" d="M615.05,-1512.19C651.71,-1422.24 765.23,-1130.22 802.5,-876 811.2,-816.63 818.72,-798.77 802.5,-741 799.05,-728.73 794.36,-716.46 788.88,-704.5"/>
<polygon fill="none" stroke="#404040" points="788.85,-704.42 782.64,-700.74 783.65,-693.6 789.86,-697.28 788.85,-704.42"/>
<text text-anchor="start" x="798.5" y="-919" font-family="Helvetica,sans-Serif" font-size="10.00"> +INTERNAL_STATE_DATA</text>
<text text-anchor="middle" x="877" y="-908" font-family="Helvetica,sans-Serif" font-size="10.00">_BITS</text>
<text text-anchor="middle" x="877" y="-897" font-family="Helvetica,sans-Serif" font-size="10.00">+INTERNAL_STATE_DATA_MASK</text>
</g>
<!-- Node10 -->
<g id="node10" class="node">
<title>Node10</title>
<g id="a_node10"><a xlink:href="../../d4/d2b/classpocketmine_1_1world_1_1_world.html" target="_top" xlink:title=" ">
<polygon fill="white" stroke="black" points="1045.5,-945.5 1045.5,-1255.5 1217.5,-1255.5 1217.5,-945.5 1045.5,-945.5"/>
<text text-anchor="middle" x="1131.5" y="-1243.5" font-family="Helvetica,sans-Serif" font-size="10.00">pocketmine\world\World</text>
<polyline fill="none" stroke="black" points="1045.5,-1236.5 1217.5,-1236.5 "/>
<text text-anchor="start" x="1053.5" y="-1224.5" font-family="Helvetica,sans-Serif" font-size="10.00">+ $stopTime</text>
<text text-anchor="start" x="1053.5" y="-1213.5" font-family="Helvetica,sans-Serif" font-size="10.00">+ $tickRateTime</text>
<text text-anchor="start" x="1053.5" y="-1202.5" font-family="Helvetica,sans-Serif" font-size="10.00">+ $updateEntities</text>
<text text-anchor="start" x="1053.5" y="-1191.5" font-family="Helvetica,sans-Serif" font-size="10.00">+ TIME_SUNRISE</text>
<text text-anchor="start" x="1053.5" y="-1180.5" font-family="Helvetica,sans-Serif" font-size="10.00">+ TIME_SUNSET</text>
<text text-anchor="start" x="1053.5" y="-1169.5" font-family="Helvetica,sans-Serif" font-size="10.00">+ Y_MAX</text>
<text text-anchor="start" x="1053.5" y="-1158.5" font-family="Helvetica,sans-Serif" font-size="10.00">+ Y_MIN</text>
<polyline fill="none" stroke="black" points="1045.5,-1151.5 1217.5,-1151.5 "/>
<text text-anchor="start" x="1053.5" y="-1139.5" font-family="Helvetica,sans-Serif" font-size="10.00">+ __construct()</text>
<text text-anchor="start" x="1053.5" y="-1128.5" font-family="Helvetica,sans-Serif" font-size="10.00">+ __debugInfo()</text>
<text text-anchor="start" x="1053.5" y="-1117.5" font-family="Helvetica,sans-Serif" font-size="10.00">+ addEntity()</text>
<text text-anchor="start" x="1053.5" y="-1106.5" font-family="Helvetica,sans-Serif" font-size="10.00">+ addOnUnloadCallback()</text>
<text text-anchor="start" x="1053.5" y="-1095.5" font-family="Helvetica,sans-Serif" font-size="10.00">+ addParticle()</text>
<text text-anchor="start" x="1053.5" y="-1084.5" font-family="Helvetica,sans-Serif" font-size="10.00">+ addRandomTickedBlock()</text>
<text text-anchor="start" x="1053.5" y="-1073.5" font-family="Helvetica,sans-Serif" font-size="10.00">+ addSound()</text>
<text text-anchor="start" x="1053.5" y="-1062.5" font-family="Helvetica,sans-Serif" font-size="10.00">+ addTile()</text>
<text text-anchor="start" x="1053.5" y="-1051.5" font-family="Helvetica,sans-Serif" font-size="10.00">+ broadcastPacketToViewers()</text>
<text text-anchor="start" x="1053.5" y="-1040.5" font-family="Helvetica,sans-Serif" font-size="10.00">+ cancelUnloadChunkRequest()</text>
<text text-anchor="start" x="1053.5" y="-1029.5" font-family="Helvetica,sans-Serif" font-size="10.00">and 116 more...</text>
<text text-anchor="start" x="1053.5" y="-1018.5" font-family="Helvetica,sans-Serif" font-size="10.00">+ blockHash()</text>
<text text-anchor="start" x="1053.5" y="-1007.5" font-family="Helvetica,sans-Serif" font-size="10.00">+ chunkBlockHash()</text>
<text text-anchor="start" x="1053.5" y="-996.5" font-family="Helvetica,sans-Serif" font-size="10.00">+ chunkHash()</text>
<text text-anchor="start" x="1053.5" y="-985.5" font-family="Helvetica,sans-Serif" font-size="10.00">+ getBlockXYZ()</text>
<text text-anchor="start" x="1053.5" y="-974.5" font-family="Helvetica,sans-Serif" font-size="10.00">+ getDifficultyFromString()</text>
<text text-anchor="start" x="1053.5" y="-963.5" font-family="Helvetica,sans-Serif" font-size="10.00">+ getXZ()</text>
<text text-anchor="start" x="1053.5" y="-952.5" font-family="Helvetica,sans-Serif" font-size="10.00"># actuallyDoTick()</text>
</a>
</g>
</g>
<!-- Node5&#45;&gt;Node10 -->
<g id="edge11" class="edge">
<title>Node5&#45;&gt;Node10</title>
<path fill="none" stroke="#404040" d="M625,-1531.36C668.47,-1513.14 768.37,-1467.34 835.5,-1406 888.48,-1357.59 867.74,-1312.19 928.5,-1274 966.72,-1249.98 992.23,-1278.42 1034.97,-1255.82"/>
<polygon fill="none" stroke="#404040" points="1035.02,-1255.79 1038.07,-1249.25 1045.28,-1249.56 1042.22,-1256.09 1035.02,-1255.79"/>
<text text-anchor="start" x="928.5" y="-1398" font-family="Helvetica,sans-Serif" font-size="10.00"> +DEFAULT_TICKED_BLOCKS</text>
<text text-anchor="middle" x="998.5" y="-1387" font-family="Helvetica,sans-Serif" font-size="10.00">_PER_SUBCHUNK_PER_TICK</text>
<text text-anchor="middle" x="998.5" y="-1376" font-family="Helvetica,sans-Serif" font-size="10.00">+DIFFICULTY_EASY</text>
<text text-anchor="middle" x="998.5" y="-1365" font-family="Helvetica,sans-Serif" font-size="10.00">+DIFFICULTY_HARD</text>
<text text-anchor="middle" x="998.5" y="-1354" font-family="Helvetica,sans-Serif" font-size="10.00">+DIFFICULTY_NORMAL</text>
<text text-anchor="middle" x="998.5" y="-1343" font-family="Helvetica,sans-Serif" font-size="10.00">+DIFFICULTY_PEACEFUL</text>
<text text-anchor="middle" x="998.5" y="-1332" font-family="Helvetica,sans-Serif" font-size="10.00">+TIME_DAY</text>
<text text-anchor="middle" x="998.5" y="-1321" font-family="Helvetica,sans-Serif" font-size="10.00">+TIME_FULL</text>
<text text-anchor="middle" x="998.5" y="-1310" font-family="Helvetica,sans-Serif" font-size="10.00">+TIME_MIDNIGHT</text>
<text text-anchor="middle" x="998.5" y="-1299" font-family="Helvetica,sans-Serif" font-size="10.00">+TIME_NIGHT</text>
<text text-anchor="middle" x="998.5" y="-1288" font-family="Helvetica,sans-Serif" font-size="10.00">+TIME_NOON</text>
<text text-anchor="middle" x="998.5" y="-1277" font-family="Helvetica,sans-Serif" font-size="10.00">...</text>
</g>
<!-- Node14 -->
<g id="node14" class="node">
<title>Node14</title>
<g id="a_node14"><a xlink:href="../../d5/d8a/classpocketmine_1_1item_1_1_item.html" target="_top" xlink:title=" ">
<polygon fill="white" stroke="#bfbfbf" points="113.5,-962 113.5,-1239 271.5,-1239 271.5,-962 113.5,-962"/>
<text text-anchor="middle" x="192.5" y="-1227" font-family="Helvetica,sans-Serif" font-size="10.00">pocketmine\item\Item</text>
<polyline fill="none" stroke="#bfbfbf" points="113.5,-1220 271.5,-1220 "/>
<text text-anchor="start" x="121.5" y="-1208" font-family="Helvetica,sans-Serif" font-size="10.00"># $canDestroy</text>
<text text-anchor="start" x="121.5" y="-1197" font-family="Helvetica,sans-Serif" font-size="10.00"># $canPlaceOn</text>
<text text-anchor="start" x="121.5" y="-1186" font-family="Helvetica,sans-Serif" font-size="10.00"># $count</text>
<text text-anchor="start" x="121.5" y="-1175" font-family="Helvetica,sans-Serif" font-size="10.00"># $customName</text>
<text text-anchor="start" x="121.5" y="-1164" font-family="Helvetica,sans-Serif" font-size="10.00"># $keepOnDeath</text>
<text text-anchor="start" x="121.5" y="-1153" font-family="Helvetica,sans-Serif" font-size="10.00"># $lore</text>
<polyline fill="none" stroke="#bfbfbf" points="113.5,-1146 271.5,-1146 "/>
<text text-anchor="start" x="121.5" y="-1134" font-family="Helvetica,sans-Serif" font-size="10.00">+ __construct()</text>
<text text-anchor="start" x="121.5" y="-1123" font-family="Helvetica,sans-Serif" font-size="10.00">+ __clone()</text>
<text text-anchor="start" x="121.5" y="-1112" font-family="Helvetica,sans-Serif" font-size="10.00">+ __toString()</text>
<text text-anchor="start" x="121.5" y="-1101" font-family="Helvetica,sans-Serif" font-size="10.00">+ canBePlaced()</text>
<text text-anchor="start" x="121.5" y="-1090" font-family="Helvetica,sans-Serif" font-size="10.00">+ canStackWith()</text>
<text text-anchor="start" x="121.5" y="-1079" font-family="Helvetica,sans-Serif" font-size="10.00">+ clearCustomBlockData()</text>
<text text-anchor="start" x="121.5" y="-1068" font-family="Helvetica,sans-Serif" font-size="10.00">+ clearCustomName()</text>
<text text-anchor="start" x="121.5" y="-1057" font-family="Helvetica,sans-Serif" font-size="10.00">+ clearNamedTag()</text>
<text text-anchor="start" x="121.5" y="-1046" font-family="Helvetica,sans-Serif" font-size="10.00">+ computeTypeData()</text>
<text text-anchor="start" x="121.5" y="-1035" font-family="Helvetica,sans-Serif" font-size="10.00">+ equals()</text>
<text text-anchor="start" x="121.5" y="-1024" font-family="Helvetica,sans-Serif" font-size="10.00">and 45 more...</text>
<text text-anchor="start" x="121.5" y="-1013" font-family="Helvetica,sans-Serif" font-size="10.00">+ legacyJsonDeserialize()</text>
<text text-anchor="start" x="121.5" y="-1002" font-family="Helvetica,sans-Serif" font-size="10.00">+ nbtDeserialize()</text>
<text text-anchor="start" x="121.5" y="-991" font-family="Helvetica,sans-Serif" font-size="10.00"># describeType()</text>
<text text-anchor="start" x="121.5" y="-980" font-family="Helvetica,sans-Serif" font-size="10.00"># deserializeCompoundTag()</text>
<text text-anchor="start" x="121.5" y="-969" font-family="Helvetica,sans-Serif" font-size="10.00"># serializeCompoundTag()</text>
</a>
</g>
</g>
<!-- Node5&#45;&gt;Node14 -->
<g id="edge17" class="edge">
<title>Node5&#45;&gt;Node14</title>
<path fill="none" stroke="#404040" d="M581.83,-1538.88C519.31,-1534.4 337.42,-1512.37 249.5,-1406 211.56,-1360.1 237.37,-1332.55 226.5,-1274 225.13,-1266.61 223.71,-1259.05 222.26,-1251.42"/>
<polygon fill="none" stroke="#404040" points="222.21,-1251.17 217.16,-1246.03 219.96,-1239.38 225.01,-1244.53 222.21,-1251.17"/>
<text text-anchor="middle" x="316.5" y="-1365" font-family="Helvetica,sans-Serif" font-size="10.00"> +TAG_BLOCK_ENTITY_TAG</text>
<text text-anchor="middle" x="316.5" y="-1354" font-family="Helvetica,sans-Serif" font-size="10.00">+TAG_DISPLAY</text>
<text text-anchor="middle" x="316.5" y="-1343" font-family="Helvetica,sans-Serif" font-size="10.00">+TAG_DISPLAY_LORE</text>
<text text-anchor="middle" x="316.5" y="-1332" font-family="Helvetica,sans-Serif" font-size="10.00">+TAG_DISPLAY_NAME</text>
<text text-anchor="middle" x="316.5" y="-1321" font-family="Helvetica,sans-Serif" font-size="10.00">+TAG_ENCH</text>
<text text-anchor="middle" x="316.5" y="-1310" font-family="Helvetica,sans-Serif" font-size="10.00">+TAG_KEEP_ON_DEATH</text>
</g>
<!-- Node6 -->
<g id="node6" class="node">
<title>Node6</title>
<g id="a_node6"><a xlink:href="../../dd/d18/classpocketmine_1_1block_1_1_block_identifier.html" target="_top" xlink:title=" ">
<polygon fill="white" stroke="#bfbfbf" points="425.5,-769 425.5,-848 601.5,-848 601.5,-769 425.5,-769"/>
<text text-anchor="middle" x="513.5" y="-836" font-family="Helvetica,sans-Serif" font-size="10.00">pocketmine\block\BlockIdentifier</text>
<polyline fill="none" stroke="#bfbfbf" points="425.5,-829 601.5,-829 "/>
<text text-anchor="middle" x="513.5" y="-817" font-family="Helvetica,sans-Serif" font-size="10.00"> </text>
<polyline fill="none" stroke="#bfbfbf" points="425.5,-810 601.5,-810 "/>
<text text-anchor="start" x="433.5" y="-798" font-family="Helvetica,sans-Serif" font-size="10.00">+ __construct()</text>
<text text-anchor="start" x="433.5" y="-787" font-family="Helvetica,sans-Serif" font-size="10.00">+ getBlockTypeId()</text>
<text text-anchor="start" x="433.5" y="-776" font-family="Helvetica,sans-Serif" font-size="10.00">+ getTileClass()</text>
</a>
</g>
</g>
<!-- Node6&#45;&gt;Node4 -->
<g id="edge5" class="edge">
<title>Node6&#45;&gt;Node4</title>
<path fill="none" stroke="#404040" d="M546.68,-768.99C566.32,-746.19 592.24,-716.12 617.46,-686.84"/>
<polygon fill="none" stroke="#404040" points="617.79,-686.46 618.68,-679.3 625.62,-677.37 624.74,-684.52 617.79,-686.46"/>
<text text-anchor="middle" x="616.5" y="-715" font-family="Helvetica,sans-Serif" font-size="10.00"> #$idInfo</text>
</g>
<!-- Node7 -->
<g id="node7" class="node">
<title>Node7</title>
<g id="a_node7"><a xlink:href="../../de/d9a/classpocketmine_1_1block_1_1_block_type_info.html" target="_top" xlink:title=" ">
<polygon fill="white" stroke="#bfbfbf" points="619.5,-763.5 619.5,-853.5 793.5,-853.5 793.5,-763.5 619.5,-763.5"/>
<text text-anchor="middle" x="706.5" y="-841.5" font-family="Helvetica,sans-Serif" font-size="10.00">pocketmine\block\BlockTypeInfo</text>
<polyline fill="none" stroke="#bfbfbf" points="619.5,-834.5 793.5,-834.5 "/>
<text text-anchor="middle" x="706.5" y="-822.5" font-family="Helvetica,sans-Serif" font-size="10.00"> </text>
<polyline fill="none" stroke="#bfbfbf" points="619.5,-815.5 793.5,-815.5 "/>
<text text-anchor="start" x="627.5" y="-803.5" font-family="Helvetica,sans-Serif" font-size="10.00">+ __construct()</text>
<text text-anchor="start" x="627.5" y="-792.5" font-family="Helvetica,sans-Serif" font-size="10.00">+ getBreakInfo()</text>
<text text-anchor="start" x="627.5" y="-781.5" font-family="Helvetica,sans-Serif" font-size="10.00">+ getTypeTags()</text>
<text text-anchor="start" x="627.5" y="-770.5" font-family="Helvetica,sans-Serif" font-size="10.00">+ hasTypeTag()</text>
</a>
</g>
</g>
<!-- Node7&#45;&gt;Node4 -->
<g id="edge6" class="edge">
<title>Node7&#45;&gt;Node4</title>
<path fill="none" stroke="#404040" d="M706.5,-763.24C706.5,-746.4 706.5,-726.29 706.5,-705.71"/>
<polygon fill="none" stroke="#404040" points="706.5,-705.57 702.5,-699.57 706.5,-693.57 710.5,-699.57 706.5,-705.57"/>
<text text-anchor="middle" x="735.5" y="-715" font-family="Helvetica,sans-Serif" font-size="10.00"> #$typeInfo</text>
</g>
<!-- Node8 -->
<g id="node8" class="node">
<title>Node8</title>
<g id="a_node8"><a xlink:href="../../d5/dd2/classpocketmine_1_1world_1_1_position.html" target="_top" xlink:title=" ">
<polygon fill="white" stroke="#bfbfbf" points="920.5,-741.5 920.5,-875.5 1066.5,-875.5 1066.5,-741.5 920.5,-741.5"/>
<text text-anchor="middle" x="993.5" y="-863.5" font-family="Helvetica,sans-Serif" font-size="10.00">pocketmine\world\Position</text>
<polyline fill="none" stroke="#bfbfbf" points="920.5,-856.5 1066.5,-856.5 "/>
<text text-anchor="middle" x="993.5" y="-844.5" font-family="Helvetica,sans-Serif" font-size="10.00"> </text>
<polyline fill="none" stroke="#bfbfbf" points="920.5,-837.5 1066.5,-837.5 "/>
<text text-anchor="start" x="928.5" y="-825.5" font-family="Helvetica,sans-Serif" font-size="10.00">+ __construct()</text>
<text text-anchor="start" x="928.5" y="-814.5" font-family="Helvetica,sans-Serif" font-size="10.00">+ __toString()</text>
<text text-anchor="start" x="928.5" y="-803.5" font-family="Helvetica,sans-Serif" font-size="10.00">+ asPosition()</text>
<text text-anchor="start" x="928.5" y="-792.5" font-family="Helvetica,sans-Serif" font-size="10.00">+ equals()</text>
<text text-anchor="start" x="928.5" y="-781.5" font-family="Helvetica,sans-Serif" font-size="10.00">+ getSide()</text>
<text text-anchor="start" x="928.5" y="-770.5" font-family="Helvetica,sans-Serif" font-size="10.00">+ getWorld()</text>
<text text-anchor="start" x="928.5" y="-759.5" font-family="Helvetica,sans-Serif" font-size="10.00">+ isValid()</text>
<text text-anchor="start" x="928.5" y="-748.5" font-family="Helvetica,sans-Serif" font-size="10.00">+ fromObject()</text>
</a>
</g>
</g>
<!-- Node8&#45;&gt;Node4 -->
<g id="edge7" class="edge">
<title>Node8&#45;&gt;Node4</title>
<path fill="none" stroke="#404040" d="M920.34,-750.4C882.75,-721.06 836.6,-685.04 796.81,-653.99"/>
<polygon fill="none" stroke="#404040" points="796.57,-653.8 789.38,-653.26 787.11,-646.41 794.3,-646.95 796.57,-653.8"/>
<text text-anchor="middle" x="912" y="-715" font-family="Helvetica,sans-Serif" font-size="10.00"> #$position</text>
</g>
<!-- Node9 -->
<g id="node9" class="node">
<title>Node9</title>
<g id="a_node9"><a xlink:href="../../d2/d90/classpocketmine_1_1math_1_1_vector3.html" target="_top" xlink:title=" ">
<polygon fill="white" stroke="#bfbfbf" points="885.5,-984 885.5,-1217 1027.5,-1217 1027.5,-984 885.5,-984"/>
<text text-anchor="middle" x="956.5" y="-1205" font-family="Helvetica,sans-Serif" font-size="10.00">pocketmine\math\Vector3</text>
<polyline fill="none" stroke="#bfbfbf" points="885.5,-1198 1027.5,-1198 "/>
<text text-anchor="start" x="893.5" y="-1186" font-family="Helvetica,sans-Serif" font-size="10.00">+ $x</text>
<text text-anchor="start" x="893.5" y="-1175" font-family="Helvetica,sans-Serif" font-size="10.00">+ $y</text>
<text text-anchor="start" x="893.5" y="-1164" font-family="Helvetica,sans-Serif" font-size="10.00">+ $z</text>
<polyline fill="none" stroke="#bfbfbf" points="885.5,-1157 1027.5,-1157 "/>
<text text-anchor="start" x="893.5" y="-1145" font-family="Helvetica,sans-Serif" font-size="10.00">+ __construct()</text>
<text text-anchor="start" x="893.5" y="-1134" font-family="Helvetica,sans-Serif" font-size="10.00">+ __toString()</text>
<text text-anchor="start" x="893.5" y="-1123" font-family="Helvetica,sans-Serif" font-size="10.00">+ abs()</text>
<text text-anchor="start" x="893.5" y="-1112" font-family="Helvetica,sans-Serif" font-size="10.00">+ add()</text>
<text text-anchor="start" x="893.5" y="-1101" font-family="Helvetica,sans-Serif" font-size="10.00">+ addVector()</text>
<text text-anchor="start" x="893.5" y="-1090" font-family="Helvetica,sans-Serif" font-size="10.00">+ asVector3()</text>
<text text-anchor="start" x="893.5" y="-1079" font-family="Helvetica,sans-Serif" font-size="10.00">+ ceil()</text>
<text text-anchor="start" x="893.5" y="-1068" font-family="Helvetica,sans-Serif" font-size="10.00">+ cross()</text>
<text text-anchor="start" x="893.5" y="-1057" font-family="Helvetica,sans-Serif" font-size="10.00">+ distance()</text>
<text text-anchor="start" x="893.5" y="-1046" font-family="Helvetica,sans-Serif" font-size="10.00">+ distanceSquared()</text>
<text text-anchor="start" x="893.5" y="-1035" font-family="Helvetica,sans-Serif" font-size="10.00">and 32 more...</text>
<text text-anchor="start" x="893.5" y="-1024" font-family="Helvetica,sans-Serif" font-size="10.00">+ maxComponents()</text>
<text text-anchor="start" x="893.5" y="-1013" font-family="Helvetica,sans-Serif" font-size="10.00">+ minComponents()</text>
<text text-anchor="start" x="893.5" y="-1002" font-family="Helvetica,sans-Serif" font-size="10.00">+ sum()</text>
<text text-anchor="start" x="893.5" y="-991" font-family="Helvetica,sans-Serif" font-size="10.00">+ zero()</text>
</a>
</g>
</g>
<!-- Node9&#45;&gt;Node8 -->
<g id="edge8" class="edge">
<title>Node9&#45;&gt;Node8</title>
<path fill="none" stroke="midnightblue" d="M973.53,-973.32C975.57,-957.73 977.61,-942 979.5,-927 981.6,-910.39 983.78,-892.45 985.78,-875.7"/>
<polygon fill="none" stroke="midnightblue" points="970.02,-973.17 972.19,-983.54 976.96,-974.08 970.02,-973.17"/>
</g>
<!-- Node10&#45;&gt;Node8 -->
<g id="edge9" class="edge">
<title>Node10&#45;&gt;Node8</title>
<path fill="none" stroke="#404040" d="M1058.06,-945.16C1048.41,-924.88 1038.88,-904.85 1030.22,-886.66"/>
<polygon fill="none" stroke="#404040" points="1030.1,-886.42 1023.91,-882.72 1024.95,-875.59 1031.14,-879.29 1030.1,-886.42"/>
<text text-anchor="middle" x="1068" y="-908" font-family="Helvetica,sans-Serif" font-size="10.00"> +$world</text>
</g>
<!-- Node11 -->
<g id="node11" class="node">
<title>Node11</title>
<g id="a_node11"><a xlink:href="../../d0/d03/interfacepocketmine_1_1world_1_1_chunk_manager.html" target="_top" xlink:title=" ">
<polygon fill="white" stroke="#bfbfbf" points="1077.5,-1479.5 1077.5,-1602.5 1257.5,-1602.5 1257.5,-1479.5 1077.5,-1479.5"/>
<text text-anchor="middle" x="1167.5" y="-1590.5" font-family="Helvetica,sans-Serif" font-size="10.00">pocketmine\world\ChunkManager</text>
<polyline fill="none" stroke="#bfbfbf" points="1077.5,-1583.5 1257.5,-1583.5 "/>
<text text-anchor="middle" x="1167.5" y="-1571.5" font-family="Helvetica,sans-Serif" font-size="10.00"> </text>
<polyline fill="none" stroke="#bfbfbf" points="1077.5,-1564.5 1257.5,-1564.5 "/>
<text text-anchor="start" x="1085.5" y="-1552.5" font-family="Helvetica,sans-Serif" font-size="10.00">+ getBlockAt()</text>
<text text-anchor="start" x="1085.5" y="-1541.5" font-family="Helvetica,sans-Serif" font-size="10.00">+ getChunk()</text>
<text text-anchor="start" x="1085.5" y="-1530.5" font-family="Helvetica,sans-Serif" font-size="10.00">+ getMaxY()</text>
<text text-anchor="start" x="1085.5" y="-1519.5" font-family="Helvetica,sans-Serif" font-size="10.00">+ getMinY()</text>
<text text-anchor="start" x="1085.5" y="-1508.5" font-family="Helvetica,sans-Serif" font-size="10.00">+ isInWorld()</text>
<text text-anchor="start" x="1085.5" y="-1497.5" font-family="Helvetica,sans-Serif" font-size="10.00">+ setBlockAt()</text>
<text text-anchor="start" x="1085.5" y="-1486.5" font-family="Helvetica,sans-Serif" font-size="10.00">+ setChunk()</text>
</a>
</g>
</g>
<!-- Node11&#45;&gt;Node10 -->
<g id="edge10" class="edge">
<title>Node11&#45;&gt;Node10</title>
<path fill="none" stroke="midnightblue" d="M1165.21,-1469.33C1163.12,-1415.67 1159.45,-1340.09 1153.5,-1274 1152.96,-1267.99 1152.37,-1261.86 1151.74,-1255.67"/>
<polygon fill="none" stroke="midnightblue" points="1161.72,-1469.57 1165.59,-1479.43 1168.71,-1469.3 1161.72,-1469.57"/>
</g>
<!-- Node12 -->
<g id="node12" class="node">
<title>Node12</title>
<g id="a_node12"><a xlink:href="../../d7/d08/classpocketmine_1_1world_1_1_world_timings.html" target="_top" xlink:title=" ">
<polygon fill="white" stroke="#bfbfbf" points="886,-1468.5 886,-1613.5 1059,-1613.5 1059,-1468.5 886,-1468.5"/>
<text text-anchor="middle" x="972.5" y="-1601.5" font-family="Helvetica,sans-Serif" font-size="10.00">pocketmine\world\WorldTimings</text>
<polyline fill="none" stroke="#bfbfbf" points="886,-1594.5 1059,-1594.5 "/>
<text text-anchor="start" x="894" y="-1582.5" font-family="Helvetica,sans-Serif" font-size="10.00">+ $syncChunkLoad</text>
<text text-anchor="start" x="894" y="-1571.5" font-family="Helvetica,sans-Serif" font-size="10.00">+ $syncChunkLoadData</text>
<text text-anchor="start" x="894" y="-1560.5" font-family="Helvetica,sans-Serif" font-size="10.00">+ $syncChunkLoadEntities</text>
<text text-anchor="start" x="894" y="-1549.5" font-family="Helvetica,sans-Serif" font-size="10.00">+ $syncChunkLoadFixInvalid</text>
<text text-anchor="start" x="894" y="-1538.5" font-family="Helvetica,sans-Serif" font-size="10.00">Blocks</text>
<text text-anchor="start" x="894" y="-1527.5" font-family="Helvetica,sans-Serif" font-size="10.00">+ $syncChunkLoadTileEntities</text>
<text text-anchor="start" x="894" y="-1516.5" font-family="Helvetica,sans-Serif" font-size="10.00">+ $syncChunkSave</text>
<text text-anchor="start" x="894" y="-1505.5" font-family="Helvetica,sans-Serif" font-size="10.00">+ $syncChunkSend</text>
<text text-anchor="start" x="894" y="-1494.5" font-family="Helvetica,sans-Serif" font-size="10.00">+ $syncChunkSendPrepare</text>
<polyline fill="none" stroke="#bfbfbf" points="886,-1487.5 1059,-1487.5 "/>
<text text-anchor="start" x="894" y="-1475.5" font-family="Helvetica,sans-Serif" font-size="10.00">+ __construct()</text>
</a>
</g>
</g>
<!-- Node12&#45;&gt;Node10 -->
<g id="edge12" class="edge">
<title>Node12&#45;&gt;Node10</title>
<path fill="none" stroke="#404040" d="M1035.61,-1468.43C1049.71,-1449.25 1063.22,-1427.76 1072.5,-1406 1095.83,-1351.29 1083.37,-1332.43 1094.5,-1274 1094.91,-1271.84 1095.33,-1269.66 1095.75,-1267.47"/>
<polygon fill="none" stroke="#404040" points="1095.76,-1267.44 1092.99,-1260.78 1098.06,-1255.66 1100.84,-1262.32 1095.76,-1267.44"/>
<text text-anchor="middle" x="1122" y="-1337.5" font-family="Helvetica,sans-Serif" font-size="10.00"> +$timings</text>
</g>
<!-- Node13 -->
<g id="node13" class="node">
<title>Node13</title>
<g id="a_node13"><a xlink:href="../../d7/d9b/classpocketmine_1_1timings_1_1_timings_handler.html" target="_top" xlink:title=" ">
<polygon fill="white" stroke="#bfbfbf" points="916,-1826.5 916,-2015.5 1029,-2015.5 1029,-1826.5 916,-1826.5"/>
<text text-anchor="start" x="924" y="-2003.5" font-family="Helvetica,sans-Serif" font-size="10.00">pocketmine\timings</text>
<text text-anchor="middle" x="972.5" y="-1992.5" font-family="Helvetica,sans-Serif" font-size="10.00">\TimingsHandler</text>
<polyline fill="none" stroke="#bfbfbf" points="916,-1985.5 1029,-1985.5 "/>
<text text-anchor="middle" x="972.5" y="-1973.5" font-family="Helvetica,sans-Serif" font-size="10.00"> </text>
<polyline fill="none" stroke="#bfbfbf" points="916,-1966.5 1029,-1966.5 "/>
<text text-anchor="start" x="924" y="-1954.5" font-family="Helvetica,sans-Serif" font-size="10.00">+ __construct()</text>
<text text-anchor="start" x="924" y="-1943.5" font-family="Helvetica,sans-Serif" font-size="10.00">+ destroyCycles()</text>
<text text-anchor="start" x="924" y="-1932.5" font-family="Helvetica,sans-Serif" font-size="10.00">+ getName()</text>
<text text-anchor="start" x="924" y="-1921.5" font-family="Helvetica,sans-Serif" font-size="10.00">+ startTiming()</text>
<text text-anchor="start" x="924" y="-1910.5" font-family="Helvetica,sans-Serif" font-size="10.00">+ stopTiming()</text>
<text text-anchor="start" x="924" y="-1899.5" font-family="Helvetica,sans-Serif" font-size="10.00">+ time()</text>
<text text-anchor="start" x="924" y="-1888.5" font-family="Helvetica,sans-Serif" font-size="10.00">+ getStartTime()</text>
<text text-anchor="start" x="924" y="-1877.5" font-family="Helvetica,sans-Serif" font-size="10.00">+ isEnabled()</text>
<text text-anchor="start" x="924" y="-1866.5" font-family="Helvetica,sans-Serif" font-size="10.00">+ printTimings()</text>
<text text-anchor="start" x="924" y="-1855.5" font-family="Helvetica,sans-Serif" font-size="10.00">+ reload()</text>
<text text-anchor="start" x="924" y="-1844.5" font-family="Helvetica,sans-Serif" font-size="10.00">+ setEnabled()</text>
<text text-anchor="start" x="924" y="-1833.5" font-family="Helvetica,sans-Serif" font-size="10.00">+ tick()</text>
</a>
</g>
</g>
<!-- Node13&#45;&gt;Node12 -->
<g id="edge13" class="edge">
<title>Node13&#45;&gt;Node12</title>
<path fill="none" stroke="#404040" d="M972.5,-1826.08C972.5,-1764.73 972.5,-1685.33 972.5,-1626.07"/>
<polygon fill="none" stroke="#404040" points="972.5,-1625.74 968.5,-1619.74 972.5,-1613.74 976.5,-1619.74 972.5,-1625.74"/>
<text text-anchor="middle" x="1049.5" y="-1800" font-family="Helvetica,sans-Serif" font-size="10.00"> +$doBlockLightUpdates</text>
<text text-anchor="middle" x="1049.5" y="-1789" font-family="Helvetica,sans-Serif" font-size="10.00">+$doBlockSkyLightUpdates</text>
<text text-anchor="middle" x="1049.5" y="-1778" font-family="Helvetica,sans-Serif" font-size="10.00">+$doChunkGC</text>
<text text-anchor="middle" x="1049.5" y="-1767" font-family="Helvetica,sans-Serif" font-size="10.00">+$doChunkUnload</text>
<text text-anchor="middle" x="1049.5" y="-1756" font-family="Helvetica,sans-Serif" font-size="10.00">+$doTick</text>
<text text-anchor="middle" x="1049.5" y="-1745" font-family="Helvetica,sans-Serif" font-size="10.00">+$entityTick</text>
<text text-anchor="middle" x="1049.5" y="-1734" font-family="Helvetica,sans-Serif" font-size="10.00">+$randomChunkUpdates</text>
<text text-anchor="start" x="972.5" y="-1723" font-family="Helvetica,sans-Serif" font-size="10.00">+$randomChunkUpdatesChunk</text>
<text text-anchor="middle" x="1049.5" y="-1712" font-family="Helvetica,sans-Serif" font-size="10.00">Selection</text>
<text text-anchor="middle" x="1049.5" y="-1701" font-family="Helvetica,sans-Serif" font-size="10.00">+$scheduledBlockUpdates</text>
<text text-anchor="middle" x="1049.5" y="-1690" font-family="Helvetica,sans-Serif" font-size="10.00">+$setBlock</text>
<text text-anchor="middle" x="1049.5" y="-1679" font-family="Helvetica,sans-Serif" font-size="10.00">...</text>
</g>
<!-- Node14&#45;&gt;Node1 -->
<g id="edge15" class="edge">
<title>Node14&#45;&gt;Node1</title>
<path fill="none" stroke="#404040" d="M230.84,-961.92C241.15,-914.07 249.5,-859.78 249.5,-809.5 249.5,-809.5 249.5,-809.5 249.5,-282.5 249.5,-240.01 274.24,-202.01 303.49,-171.93"/>
<polygon fill="none" stroke="#404040" points="303.73,-171.69 305.19,-164.63 312.27,-163.26 310.81,-170.32 303.73,-171.69"/>
<text text-anchor="middle" x="287.5" y="-445" font-family="Helvetica,sans-Serif" font-size="10.00"> #$framedItem</text>
</g>
<!-- Node15 -->
<g id="node15" class="node">
<title>Node15</title>
<g id="a_node15"><a xlink:title=" ">
<polygon fill="white" stroke="#bfbfbf" points="10.5,-1512.5 10.5,-1569.5 104.5,-1569.5 104.5,-1512.5 10.5,-1512.5"/>
<text text-anchor="middle" x="57.5" y="-1557.5" font-family="Helvetica,sans-Serif" font-size="10.00">JsonSerializable</text>
<polyline fill="none" stroke="#bfbfbf" points="10.5,-1550.5 104.5,-1550.5 "/>
<text text-anchor="middle" x="57.5" y="-1538.5" font-family="Helvetica,sans-Serif" font-size="10.00"> </text>
<polyline fill="none" stroke="#bfbfbf" points="10.5,-1531.5 104.5,-1531.5 "/>
<text text-anchor="middle" x="57.5" y="-1519.5" font-family="Helvetica,sans-Serif" font-size="10.00"> </text>
</a>
</g>
</g>
<!-- Node15&#45;&gt;Node14 -->
<g id="edge16" class="edge">
<title>Node15&#45;&gt;Node14</title>
<path fill="none" stroke="midnightblue" d="M66.1,-1502.4C78.26,-1450.55 101.85,-1354.4 127.5,-1274 131.1,-1262.72 135.02,-1251.1 139.08,-1239.46"/>
<polygon fill="none" stroke="midnightblue" points="62.69,-1501.63 63.83,-1512.16 69.51,-1503.21 62.69,-1501.63"/>
</g>
<!-- Node16 -->
<g id="node16" class="node">
<title>Node16</title>
<g id="a_node16"><a xlink:href="../../de/d67/classpocketmine_1_1nbt_1_1tag_1_1_compound_tag.html" target="_top" xlink:title=" ">
<polygon fill="white" stroke="black" points="122.5,-1424.5 122.5,-1657.5 242.5,-1657.5 242.5,-1424.5 122.5,-1424.5"/>
<text text-anchor="start" x="130.5" y="-1645.5" font-family="Helvetica,sans-Serif" font-size="10.00">pocketmine\nbt\tag</text>
<text text-anchor="middle" x="182.5" y="-1634.5" font-family="Helvetica,sans-Serif" font-size="10.00">\CompoundTag</text>
<polyline fill="none" stroke="black" points="122.5,-1627.5 242.5,-1627.5 "/>
<text text-anchor="middle" x="182.5" y="-1615.5" font-family="Helvetica,sans-Serif" font-size="10.00"> </text>
<polyline fill="none" stroke="black" points="122.5,-1608.5 242.5,-1608.5 "/>
<text text-anchor="start" x="130.5" y="-1596.5" font-family="Helvetica,sans-Serif" font-size="10.00">+ __construct()</text>
<text text-anchor="start" x="130.5" y="-1585.5" font-family="Helvetica,sans-Serif" font-size="10.00">+ __clone()</text>
<text text-anchor="start" x="130.5" y="-1574.5" font-family="Helvetica,sans-Serif" font-size="10.00">+ count()</text>
<text text-anchor="start" x="130.5" y="-1563.5" font-family="Helvetica,sans-Serif" font-size="10.00">+ equals()</text>
<text text-anchor="start" x="130.5" y="-1552.5" font-family="Helvetica,sans-Serif" font-size="10.00">+ getByte()</text>
<text text-anchor="start" x="130.5" y="-1541.5" font-family="Helvetica,sans-Serif" font-size="10.00">+ getByteArray()</text>
<text text-anchor="start" x="130.5" y="-1530.5" font-family="Helvetica,sans-Serif" font-size="10.00">+ getCompoundTag()</text>
<text text-anchor="start" x="130.5" y="-1519.5" font-family="Helvetica,sans-Serif" font-size="10.00">+ getCount()</text>
<text text-anchor="start" x="130.5" y="-1508.5" font-family="Helvetica,sans-Serif" font-size="10.00">+ getDouble()</text>
<text text-anchor="start" x="130.5" y="-1497.5" font-family="Helvetica,sans-Serif" font-size="10.00">+ getFloat()</text>
<text text-anchor="start" x="130.5" y="-1486.5" font-family="Helvetica,sans-Serif" font-size="10.00">and 23 more...</text>
<text text-anchor="start" x="130.5" y="-1475.5" font-family="Helvetica,sans-Serif" font-size="10.00">+ create()</text>
<text text-anchor="start" x="130.5" y="-1464.5" font-family="Helvetica,sans-Serif" font-size="10.00">+ read()</text>
<text text-anchor="start" x="130.5" y="-1453.5" font-family="Helvetica,sans-Serif" font-size="10.00"># getTypeName()</text>
<text text-anchor="start" x="130.5" y="-1442.5" font-family="Helvetica,sans-Serif" font-size="10.00"># makeCopy()</text>
<text text-anchor="start" x="130.5" y="-1431.5" font-family="Helvetica,sans-Serif" font-size="10.00"># stringifyValue()</text>
</a>
</g>
</g>
<!-- Node16&#45;&gt;Node14 -->
<g id="edge18" class="edge">
<title>Node16&#45;&gt;Node14</title>
<path fill="none" stroke="#404040" d="M141.12,-1424.37C139.71,-1418.21 138.49,-1412.05 137.5,-1406 128.04,-1348.1 128.48,-1331.97 137.5,-1274 138.69,-1266.37 140.15,-1258.61 141.83,-1250.83"/>
<polygon fill="none" stroke="#404040" points="141.86,-1250.7 139.3,-1243.96 144.54,-1239 147.1,-1245.74 141.86,-1250.7"/>
<text text-anchor="middle" x="182" y="-1337.5" font-family="Helvetica,sans-Serif" font-size="10.00"> #$blockEntityTag</text>
</g>
<!-- Node17 -->
<g id="node17" class="node">
<title>Node17</title>
<g id="a_node17"><a xlink:href="../../dc/d26/classpocketmine_1_1nbt_1_1tag_1_1_tag.html" target="_top" xlink:title=" ">
<polygon fill="white" stroke="#bfbfbf" points="0,-1837.5 0,-2004.5 131,-2004.5 131,-1837.5 0,-1837.5"/>
<text text-anchor="middle" x="65.5" y="-1992.5" font-family="Helvetica,sans-Serif" font-size="10.00">pocketmine\nbt\tag\Tag</text>
<polyline fill="none" stroke="#bfbfbf" points="0,-1985.5 131,-1985.5 "/>
<text text-anchor="start" x="8" y="-1973.5" font-family="Helvetica,sans-Serif" font-size="10.00"># $cloning</text>
<polyline fill="none" stroke="#bfbfbf" points="0,-1966.5 131,-1966.5 "/>
<text text-anchor="start" x="8" y="-1954.5" font-family="Helvetica,sans-Serif" font-size="10.00">+ __toString()</text>
<text text-anchor="start" x="8" y="-1943.5" font-family="Helvetica,sans-Serif" font-size="10.00">+ equals()</text>
<text text-anchor="start" x="8" y="-1932.5" font-family="Helvetica,sans-Serif" font-size="10.00">+ getType()</text>
<text text-anchor="start" x="8" y="-1921.5" font-family="Helvetica,sans-Serif" font-size="10.00">+ getValue()</text>
<text text-anchor="start" x="8" y="-1910.5" font-family="Helvetica,sans-Serif" font-size="10.00">+ safeClone()</text>
<text text-anchor="start" x="8" y="-1899.5" font-family="Helvetica,sans-Serif" font-size="10.00">+ toString()</text>
<text text-anchor="start" x="8" y="-1888.5" font-family="Helvetica,sans-Serif" font-size="10.00">+ write()</text>
<text text-anchor="start" x="8" y="-1877.5" font-family="Helvetica,sans-Serif" font-size="10.00"># getTypeName()</text>
<text text-anchor="start" x="8" y="-1866.5" font-family="Helvetica,sans-Serif" font-size="10.00"># makeCopy()</text>
<text text-anchor="start" x="8" y="-1855.5" font-family="Helvetica,sans-Serif" font-size="10.00"># stringifyValue()</text>
<text text-anchor="start" x="8" y="-1844.5" font-family="Helvetica,sans-Serif" font-size="10.00"># restrictArgCount()</text>
</a>
</g>
</g>
<!-- Node17&#45;&gt;Node16 -->
<g id="edge19" class="edge">
<title>Node17&#45;&gt;Node16</title>
<path fill="none" stroke="midnightblue" d="M94.19,-1827.32C110.02,-1776.16 129.83,-1712.16 146.68,-1657.74"/>
<polygon fill="none" stroke="midnightblue" points="90.79,-1826.46 91.18,-1837.05 97.48,-1828.53 90.79,-1826.46"/>
</g>
<!-- Node18 -->
<g id="node18" class="node">
<title>Node18</title>
<g id="a_node18"><a xlink:title=" ">
<polygon fill="white" stroke="#bfbfbf" points="149.5,-1892.5 149.5,-1949.5 215.5,-1949.5 215.5,-1892.5 149.5,-1892.5"/>
<text text-anchor="middle" x="182.5" y="-1937.5" font-family="Helvetica,sans-Serif" font-size="10.00">Countable</text>
<polyline fill="none" stroke="#bfbfbf" points="149.5,-1930.5 215.5,-1930.5 "/>
<text text-anchor="middle" x="182.5" y="-1918.5" font-family="Helvetica,sans-Serif" font-size="10.00"> </text>
<polyline fill="none" stroke="#bfbfbf" points="149.5,-1911.5 215.5,-1911.5 "/>
<text text-anchor="middle" x="182.5" y="-1899.5" font-family="Helvetica,sans-Serif" font-size="10.00"> </text>
</a>
</g>
</g>
<!-- Node18&#45;&gt;Node16 -->
<g id="edge20" class="edge">
<title>Node18&#45;&gt;Node16</title>
<path fill="none" stroke="midnightblue" d="M182.5,-1882.09C182.5,-1830.06 182.5,-1734.24 182.5,-1657.53"/>
<polygon fill="none" stroke="midnightblue" points="179,-1882.2 182.5,-1892.2 186,-1882.2 179,-1882.2"/>
</g>
<!-- Node19 -->
<g id="node19" class="node">
<title>Node19</title>
<g id="a_node19"><a xlink:title=" ">
<polygon fill="white" stroke="#bfbfbf" points="234,-1892.5 234,-1949.5 337,-1949.5 337,-1892.5 234,-1892.5"/>
<text text-anchor="middle" x="285.5" y="-1937.5" font-family="Helvetica,sans-Serif" font-size="10.00">IteratorAggregate</text>
<polyline fill="none" stroke="#bfbfbf" points="234,-1930.5 337,-1930.5 "/>
<text text-anchor="middle" x="285.5" y="-1918.5" font-family="Helvetica,sans-Serif" font-size="10.00"> </text>
<polyline fill="none" stroke="#bfbfbf" points="234,-1911.5 337,-1911.5 "/>
<text text-anchor="middle" x="285.5" y="-1899.5" font-family="Helvetica,sans-Serif" font-size="10.00"> </text>
</a>
</g>
</g>
<!-- Node19&#45;&gt;Node16 -->
<g id="edge21" class="edge">
<title>Node19&#45;&gt;Node16</title>
<path fill="none" stroke="midnightblue" d="M275.26,-1882.42C261.1,-1830.46 234.93,-1734.4 213.98,-1657.53"/>
<polygon fill="none" stroke="midnightblue" points="271.92,-1883.48 277.93,-1892.2 278.67,-1881.64 271.92,-1883.48"/>
</g>
</g>
</svg>
