<?xml version="1.0" encoding="UTF-8" standalone="no"?>
<!DOCTYPE svg PUBLIC "-//W3C//DTD SVG 1.1//EN"
 "http://www.w3.org/Graphics/SVG/1.1/DTD/svg11.dtd">
<!-- Generated by graphviz version 2.43.0 (0)
 -->
<!-- Title: pocketmine\item\Shears Pages: 1 -->
<svg width="454pt" height="1266pt"
 viewBox="0.00 0.00 453.50 1266.00" xmlns="http://www.w3.org/2000/svg" xmlns:xlink="http://www.w3.org/1999/xlink">
<g id="graph0" class="graph" transform="scale(1 1) rotate(0) translate(4 1262)">
<title>pocketmine\item\Shears</title>
<polygon fill="white" stroke="transparent" points="-4,4 -4,-1262 449.5,-1262 449.5,4 -4,4"/>
<!-- Node1 -->
<g id="node1" class="node">
<title>Node1</title>
<g id="a_node1"><a xlink:title=" ">
<polygon fill="#bfbfbf" stroke="black" points="53,-0.5 53,-101.5 215,-101.5 215,-0.5 53,-0.5"/>
<text text-anchor="middle" x="134" y="-89.5" font-family="Helvetica,sans-Serif" font-size="10.00">pocketmine\item\Shears</text>
<polyline fill="none" stroke="black" points="53,-82.5 215,-82.5 "/>
<text text-anchor="middle" x="134" y="-70.5" font-family="Helvetica,sans-Serif" font-size="10.00"> </text>
<polyline fill="none" stroke="black" points="53,-63.5 215,-63.5 "/>
<text text-anchor="start" x="61" y="-51.5" font-family="Helvetica,sans-Serif" font-size="10.00">+ getBlockToolHarvestLevel()</text>
<text text-anchor="start" x="61" y="-40.5" font-family="Helvetica,sans-Serif" font-size="10.00">+ getBlockToolType()</text>
<text text-anchor="start" x="61" y="-29.5" font-family="Helvetica,sans-Serif" font-size="10.00">+ getMaxDurability()</text>
<text text-anchor="start" x="61" y="-18.5" font-family="Helvetica,sans-Serif" font-size="10.00">+ onDestroyBlock()</text>
<text text-anchor="start" x="61" y="-7.5" font-family="Helvetica,sans-Serif" font-size="10.00"># getBaseMiningEfficiency()</text>
</a>
</g>
</g>
<!-- Node2 -->
<g id="node2" class="node">
<title>Node2</title>
<g id="a_node2"><a xlink:href="../../da/de7/classpocketmine_1_1item_1_1_tool.html" target="_top" xlink:title=" ">
<polygon fill="white" stroke="#bfbfbf" points="56.5,-139.5 56.5,-218.5 211.5,-218.5 211.5,-139.5 56.5,-139.5"/>
<text text-anchor="middle" x="134" y="-206.5" font-family="Helvetica,sans-Serif" font-size="10.00">pocketmine\item\Tool</text>
<polyline fill="none" stroke="#bfbfbf" points="56.5,-199.5 211.5,-199.5 "/>
<text text-anchor="middle" x="134" y="-187.5" font-family="Helvetica,sans-Serif" font-size="10.00"> </text>
<polyline fill="none" stroke="#bfbfbf" points="56.5,-180.5 211.5,-180.5 "/>
<text text-anchor="start" x="64.5" y="-168.5" font-family="Helvetica,sans-Serif" font-size="10.00">+ getMaxStackSize()</text>
<text text-anchor="start" x="64.5" y="-157.5" font-family="Helvetica,sans-Serif" font-size="10.00">+ getMiningEfficiency()</text>
<text text-anchor="start" x="64.5" y="-146.5" font-family="Helvetica,sans-Serif" font-size="10.00"># getBaseMiningEfficiency()</text>
</a>
</g>
</g>
<!-- Node2&#45;&gt;Node1 -->
<g id="edge1" class="edge">
<title>Node2&#45;&gt;Node1</title>
<path fill="none" stroke="midnightblue" d="M134,-128.89C134,-119.94 134,-110.6 134,-101.63"/>
<polygon fill="none" stroke="midnightblue" points="130.5,-129.17 134,-139.17 137.5,-129.17 130.5,-129.17"/>
</g>
<!-- Node3 -->
<g id="node3" class="node">
<title>Node3</title>
<g id="a_node3"><a xlink:href="../../dc/d20/classpocketmine_1_1item_1_1_durable.html" target="_top" xlink:title=" ">
<polygon fill="white" stroke="#bfbfbf" points="35.5,-256.5 35.5,-423.5 232.5,-423.5 232.5,-256.5 35.5,-256.5"/>
<text text-anchor="middle" x="134" y="-411.5" font-family="Helvetica,sans-Serif" font-size="10.00">pocketmine\item\Durable</text>
<polyline fill="none" stroke="#bfbfbf" points="35.5,-404.5 232.5,-404.5 "/>
<text text-anchor="start" x="43.5" y="-392.5" font-family="Helvetica,sans-Serif" font-size="10.00"># $damage</text>
<polyline fill="none" stroke="#bfbfbf" points="35.5,-385.5 232.5,-385.5 "/>
<text text-anchor="start" x="43.5" y="-373.5" font-family="Helvetica,sans-Serif" font-size="10.00">+ applyDamage()</text>
<text text-anchor="start" x="43.5" y="-362.5" font-family="Helvetica,sans-Serif" font-size="10.00">+ getDamage()</text>
<text text-anchor="start" x="43.5" y="-351.5" font-family="Helvetica,sans-Serif" font-size="10.00">+ getMaxDurability()</text>
<text text-anchor="start" x="43.5" y="-340.5" font-family="Helvetica,sans-Serif" font-size="10.00">+ isBroken()</text>
<text text-anchor="start" x="43.5" y="-329.5" font-family="Helvetica,sans-Serif" font-size="10.00">+ isUnbreakable()</text>
<text text-anchor="start" x="43.5" y="-318.5" font-family="Helvetica,sans-Serif" font-size="10.00">+ setDamage()</text>
<text text-anchor="start" x="43.5" y="-307.5" font-family="Helvetica,sans-Serif" font-size="10.00">+ setUnbreakable()</text>
<text text-anchor="start" x="43.5" y="-296.5" font-family="Helvetica,sans-Serif" font-size="10.00"># deserializeCompoundTag()</text>
<text text-anchor="start" x="43.5" y="-285.5" font-family="Helvetica,sans-Serif" font-size="10.00"># getUnbreakingDamageReduction()</text>
<text text-anchor="start" x="43.5" y="-274.5" font-family="Helvetica,sans-Serif" font-size="10.00"># onBroken()</text>
<text text-anchor="start" x="43.5" y="-263.5" font-family="Helvetica,sans-Serif" font-size="10.00"># serializeCompoundTag()</text>
</a>
</g>
</g>
<!-- Node3&#45;&gt;Node2 -->
<g id="edge2" class="edge">
<title>Node3&#45;&gt;Node2</title>
<path fill="none" stroke="midnightblue" d="M134,-246.13C134,-236.51 134,-227.15 134,-218.64"/>
<polygon fill="none" stroke="midnightblue" points="130.5,-246.24 134,-256.24 137.5,-246.24 130.5,-246.24"/>
</g>
<!-- Node4 -->
<g id="node4" class="node">
<title>Node4</title>
<g id="a_node4"><a xlink:href="../../d5/d8a/classpocketmine_1_1item_1_1_item.html" target="_top" xlink:title=" ">
<polygon fill="white" stroke="#bfbfbf" points="55,-461.5 55,-727.5 213,-727.5 213,-461.5 55,-461.5"/>
<text text-anchor="middle" x="134" y="-715.5" font-family="Helvetica,sans-Serif" font-size="10.00">pocketmine\item\Item</text>
<polyline fill="none" stroke="#bfbfbf" points="55,-708.5 213,-708.5 "/>
<text text-anchor="start" x="63" y="-696.5" font-family="Helvetica,sans-Serif" font-size="10.00"># $canDestroy</text>
<text text-anchor="start" x="63" y="-685.5" font-family="Helvetica,sans-Serif" font-size="10.00"># $canPlaceOn</text>
<text text-anchor="start" x="63" y="-674.5" font-family="Helvetica,sans-Serif" font-size="10.00"># $count</text>
<text text-anchor="start" x="63" y="-663.5" font-family="Helvetica,sans-Serif" font-size="10.00"># $customName</text>
<text text-anchor="start" x="63" y="-652.5" font-family="Helvetica,sans-Serif" font-size="10.00"># $lore</text>
<polyline fill="none" stroke="#bfbfbf" points="55,-645.5 213,-645.5 "/>
<text text-anchor="start" x="63" y="-633.5" font-family="Helvetica,sans-Serif" font-size="10.00">+ __construct()</text>
<text text-anchor="start" x="63" y="-622.5" font-family="Helvetica,sans-Serif" font-size="10.00">+ __clone()</text>
<text text-anchor="start" x="63" y="-611.5" font-family="Helvetica,sans-Serif" font-size="10.00">+ __toString()</text>
<text text-anchor="start" x="63" y="-600.5" font-family="Helvetica,sans-Serif" font-size="10.00">+ canBePlaced()</text>
<text text-anchor="start" x="63" y="-589.5" font-family="Helvetica,sans-Serif" font-size="10.00">+ canStackWith()</text>
<text text-anchor="start" x="63" y="-578.5" font-family="Helvetica,sans-Serif" font-size="10.00">+ clearCustomBlockData()</text>
<text text-anchor="start" x="63" y="-567.5" font-family="Helvetica,sans-Serif" font-size="10.00">+ clearCustomName()</text>
<text text-anchor="start" x="63" y="-556.5" font-family="Helvetica,sans-Serif" font-size="10.00">+ clearNamedTag()</text>
<text text-anchor="start" x="63" y="-545.5" font-family="Helvetica,sans-Serif" font-size="10.00">+ computeTypeData()</text>
<text text-anchor="start" x="63" y="-534.5" font-family="Helvetica,sans-Serif" font-size="10.00">+ equals()</text>
<text text-anchor="start" x="63" y="-523.5" font-family="Helvetica,sans-Serif" font-size="10.00">and 41 more...</text>
<text text-anchor="start" x="63" y="-512.5" font-family="Helvetica,sans-Serif" font-size="10.00">+ legacyJsonDeserialize()</text>
<text text-anchor="start" x="63" y="-501.5" font-family="Helvetica,sans-Serif" font-size="10.00">+ nbtDeserialize()</text>
<text text-anchor="start" x="63" y="-490.5" font-family="Helvetica,sans-Serif" font-size="10.00"># deserializeCompoundTag()</text>
<text text-anchor="start" x="63" y="-479.5" font-family="Helvetica,sans-Serif" font-size="10.00"># encodeType()</text>
<text text-anchor="start" x="63" y="-468.5" font-family="Helvetica,sans-Serif" font-size="10.00"># serializeCompoundTag()</text>
</a>
</g>
</g>
<!-- Node4&#45;&gt;Node3 -->
<g id="edge3" class="edge">
<title>Node4&#45;&gt;Node3</title>
<path fill="none" stroke="midnightblue" d="M134,-451.19C134,-441.87 134,-432.67 134,-423.8"/>
<polygon fill="none" stroke="midnightblue" points="130.5,-451.33 134,-461.33 137.5,-451.33 130.5,-451.33"/>
</g>
<!-- Node5 -->
<g id="node5" class="node">
<title>Node5</title>
<g id="a_node5"><a xlink:title=" ">
<polygon fill="white" stroke="#bfbfbf" points="0,-907.5 0,-964.5 94,-964.5 94,-907.5 0,-907.5"/>
<text text-anchor="middle" x="47" y="-952.5" font-family="Helvetica,sans-Serif" font-size="10.00">JsonSerializable</text>
<polyline fill="none" stroke="#bfbfbf" points="0,-945.5 94,-945.5 "/>
<text text-anchor="middle" x="47" y="-933.5" font-family="Helvetica,sans-Serif" font-size="10.00"> </text>
<polyline fill="none" stroke="#bfbfbf" points="0,-926.5 94,-926.5 "/>
<text text-anchor="middle" x="47" y="-914.5" font-family="Helvetica,sans-Serif" font-size="10.00"> </text>
</a>
</g>
</g>
<!-- Node5&#45;&gt;Node4 -->
<g id="edge4" class="edge">
<title>Node5&#45;&gt;Node4</title>
<path fill="none" stroke="midnightblue" d="M56.63,-897.41C67.12,-856.49 84.49,-788.71 100.11,-727.74"/>
<polygon fill="none" stroke="midnightblue" points="53.21,-896.66 54.12,-907.22 59.99,-898.4 53.21,-896.66"/>
</g>
<!-- Node6 -->
<g id="node6" class="node">
<title>Node6</title>
<g id="a_node6"><a xlink:title=" ">
<polygon fill="white" stroke="#bfbfbf" points="112.5,-907.5 112.5,-964.5 155.5,-964.5 155.5,-907.5 112.5,-907.5"/>
<text text-anchor="middle" x="134" y="-952.5" font-family="Helvetica,sans-Serif" font-size="10.00">const</text>
<polyline fill="none" stroke="#bfbfbf" points="112.5,-945.5 155.5,-945.5 "/>
<text text-anchor="middle" x="134" y="-933.5" font-family="Helvetica,sans-Serif" font-size="10.00"> </text>
<polyline fill="none" stroke="#bfbfbf" points="112.5,-926.5 155.5,-926.5 "/>
<text text-anchor="middle" x="134" y="-914.5" font-family="Helvetica,sans-Serif" font-size="10.00"> </text>
</a>
</g>
</g>
<!-- Node6&#45;&gt;Node4 -->
<g id="edge5" class="edge">
<title>Node6&#45;&gt;Node4</title>
<path fill="none" stroke="#404040" d="M134,-907.22C134,-870.4 134,-802.73 134,-739.83"/>
<polygon fill="none" stroke="#404040" points="134,-739.74 130,-733.74 134,-727.74 138,-733.74 134,-739.74"/>
<text text-anchor="middle" x="201" y="-793" font-family="Helvetica,sans-Serif" font-size="10.00"> +TAG_BLOCK_ENTITY_TAG</text>
<text text-anchor="middle" x="201" y="-782" font-family="Helvetica,sans-Serif" font-size="10.00">+TAG_DISPLAY</text>
<text text-anchor="middle" x="201" y="-771" font-family="Helvetica,sans-Serif" font-size="10.00">+TAG_DISPLAY_LORE</text>
<text text-anchor="middle" x="201" y="-760" font-family="Helvetica,sans-Serif" font-size="10.00">+TAG_DISPLAY_NAME</text>
<text text-anchor="middle" x="201" y="-749" font-family="Helvetica,sans-Serif" font-size="10.00">+TAG_ENCH</text>
</g>
<!-- Node7 -->
<g id="node7" class="node">
<title>Node7</title>
<g id="a_node7"><a xlink:href="../../de/d67/classpocketmine_1_1nbt_1_1tag_1_1_compound_tag.html" target="_top" xlink:title=" ">
<polygon fill="white" stroke="black" points="231,-819.5 231,-1052.5 351,-1052.5 351,-819.5 231,-819.5"/>
<text text-anchor="start" x="239" y="-1040.5" font-family="Helvetica,sans-Serif" font-size="10.00">pocketmine\nbt\tag</text>
<text text-anchor="middle" x="291" y="-1029.5" font-family="Helvetica,sans-Serif" font-size="10.00">\CompoundTag</text>
<polyline fill="none" stroke="black" points="231,-1022.5 351,-1022.5 "/>
<text text-anchor="middle" x="291" y="-1010.5" font-family="Helvetica,sans-Serif" font-size="10.00"> </text>
<polyline fill="none" stroke="black" points="231,-1003.5 351,-1003.5 "/>
<text text-anchor="start" x="239" y="-991.5" font-family="Helvetica,sans-Serif" font-size="10.00">+ __construct()</text>
<text text-anchor="start" x="239" y="-980.5" font-family="Helvetica,sans-Serif" font-size="10.00">+ __clone()</text>
<text text-anchor="start" x="239" y="-969.5" font-family="Helvetica,sans-Serif" font-size="10.00">+ count()</text>
<text text-anchor="start" x="239" y="-958.5" font-family="Helvetica,sans-Serif" font-size="10.00">+ equals()</text>
<text text-anchor="start" x="239" y="-947.5" font-family="Helvetica,sans-Serif" font-size="10.00">+ getByte()</text>
<text text-anchor="start" x="239" y="-936.5" font-family="Helvetica,sans-Serif" font-size="10.00">+ getByteArray()</text>
<text text-anchor="start" x="239" y="-925.5" font-family="Helvetica,sans-Serif" font-size="10.00">+ getCompoundTag()</text>
<text text-anchor="start" x="239" y="-914.5" font-family="Helvetica,sans-Serif" font-size="10.00">+ getCount()</text>
<text text-anchor="start" x="239" y="-903.5" font-family="Helvetica,sans-Serif" font-size="10.00">+ getDouble()</text>
<text text-anchor="start" x="239" y="-892.5" font-family="Helvetica,sans-Serif" font-size="10.00">+ getFloat()</text>
<text text-anchor="start" x="239" y="-881.5" font-family="Helvetica,sans-Serif" font-size="10.00">and 23 more...</text>
<text text-anchor="start" x="239" y="-870.5" font-family="Helvetica,sans-Serif" font-size="10.00">+ create()</text>
<text text-anchor="start" x="239" y="-859.5" font-family="Helvetica,sans-Serif" font-size="10.00">+ read()</text>
<text text-anchor="start" x="239" y="-848.5" font-family="Helvetica,sans-Serif" font-size="10.00"># getTypeName()</text>
<text text-anchor="start" x="239" y="-837.5" font-family="Helvetica,sans-Serif" font-size="10.00"># makeCopy()</text>
<text text-anchor="start" x="239" y="-826.5" font-family="Helvetica,sans-Serif" font-size="10.00"># stringifyValue()</text>
</a>
</g>
</g>
<!-- Node7&#45;&gt;Node4 -->
<g id="edge6" class="edge">
<title>Node7&#45;&gt;Node4</title>
<path fill="none" stroke="#404040" d="M288.83,-819.03C285.29,-794.16 279.18,-768.59 269,-746 257.45,-720.38 239.92,-696.07 221.28,-674.75"/>
<polygon fill="none" stroke="#404040" points="221.26,-674.72 214.27,-672.93 213.24,-665.8 220.23,-667.59 221.26,-674.72"/>
<text text-anchor="middle" x="330.5" y="-771" font-family="Helvetica,sans-Serif" font-size="10.00"> #$blockEntityTag</text>
</g>
<!-- Node8 -->
<g id="node8" class="node">
<title>Node8</title>
<g id="a_node8"><a xlink:href="../../dc/d26/classpocketmine_1_1nbt_1_1tag_1_1_tag.html" target="_top" xlink:title=" ">
<polygon fill="white" stroke="#bfbfbf" points="108.5,-1090.5 108.5,-1257.5 239.5,-1257.5 239.5,-1090.5 108.5,-1090.5"/>
<text text-anchor="middle" x="174" y="-1245.5" font-family="Helvetica,sans-Serif" font-size="10.00">pocketmine\nbt\tag\Tag</text>
<polyline fill="none" stroke="#bfbfbf" points="108.5,-1238.5 239.5,-1238.5 "/>
<text text-anchor="start" x="116.5" y="-1226.5" font-family="Helvetica,sans-Serif" font-size="10.00"># $cloning</text>
<polyline fill="none" stroke="#bfbfbf" points="108.5,-1219.5 239.5,-1219.5 "/>
<text text-anchor="start" x="116.5" y="-1207.5" font-family="Helvetica,sans-Serif" font-size="10.00">+ __toString()</text>
<text text-anchor="start" x="116.5" y="-1196.5" font-family="Helvetica,sans-Serif" font-size="10.00">+ equals()</text>
<text text-anchor="start" x="116.5" y="-1185.5" font-family="Helvetica,sans-Serif" font-size="10.00">+ getType()</text>
<text text-anchor="start" x="116.5" y="-1174.5" font-family="Helvetica,sans-Serif" font-size="10.00">+ getValue()</text>
<text text-anchor="start" x="116.5" y="-1163.5" font-family="Helvetica,sans-Serif" font-size="10.00">+ safeClone()</text>
<text text-anchor="start" x="116.5" y="-1152.5" font-family="Helvetica,sans-Serif" font-size="10.00">+ toString()</text>
<text text-anchor="start" x="116.5" y="-1141.5" font-family="Helvetica,sans-Serif" font-size="10.00">+ write()</text>
<text text-anchor="start" x="116.5" y="-1130.5" font-family="Helvetica,sans-Serif" font-size="10.00"># getTypeName()</text>
<text text-anchor="start" x="116.5" y="-1119.5" font-family="Helvetica,sans-Serif" font-size="10.00"># makeCopy()</text>
<text text-anchor="start" x="116.5" y="-1108.5" font-family="Helvetica,sans-Serif" font-size="10.00"># stringifyValue()</text>
<text text-anchor="start" x="116.5" y="-1097.5" font-family="Helvetica,sans-Serif" font-size="10.00"># restrictArgCount()</text>
</a>
</g>
</g>
<!-- Node8&#45;&gt;Node7 -->
<g id="edge7" class="edge">
<title>Node8&#45;&gt;Node7</title>
<path fill="none" stroke="midnightblue" d="M219.37,-1081.48C224.05,-1072.04 228.85,-1062.35 233.65,-1052.69"/>
<polygon fill="none" stroke="midnightblue" points="216.23,-1079.94 214.92,-1090.46 222.5,-1083.05 216.23,-1079.94"/>
</g>
<!-- Node9 -->
<g id="node9" class="node">
<title>Node9</title>
<g id="a_node9"><a xlink:title=" ">
<polygon fill="white" stroke="#bfbfbf" points="258,-1145.5 258,-1202.5 324,-1202.5 324,-1145.5 258,-1145.5"/>
<text text-anchor="middle" x="291" y="-1190.5" font-family="Helvetica,sans-Serif" font-size="10.00">Countable</text>
<polyline fill="none" stroke="#bfbfbf" points="258,-1183.5 324,-1183.5 "/>
<text text-anchor="middle" x="291" y="-1171.5" font-family="Helvetica,sans-Serif" font-size="10.00"> </text>
<polyline fill="none" stroke="#bfbfbf" points="258,-1164.5 324,-1164.5 "/>
<text text-anchor="middle" x="291" y="-1152.5" font-family="Helvetica,sans-Serif" font-size="10.00"> </text>
</a>
</g>
</g>
<!-- Node9&#45;&gt;Node7 -->
<g id="edge8" class="edge">
<title>Node9&#45;&gt;Node7</title>
<path fill="none" stroke="midnightblue" d="M291,-1135.32C291,-1112.7 291,-1082.6 291,-1052.69"/>
<polygon fill="none" stroke="midnightblue" points="287.5,-1135.47 291,-1145.47 294.5,-1135.47 287.5,-1135.47"/>
</g>
<!-- Node10 -->
<g id="node10" class="node">
<title>Node10</title>
<g id="a_node10"><a xlink:title=" ">
<polygon fill="white" stroke="#bfbfbf" points="342.5,-1145.5 342.5,-1202.5 445.5,-1202.5 445.5,-1145.5 342.5,-1145.5"/>
<text text-anchor="middle" x="394" y="-1190.5" font-family="Helvetica,sans-Serif" font-size="10.00">IteratorAggregate</text>
<polyline fill="none" stroke="#bfbfbf" points="342.5,-1183.5 445.5,-1183.5 "/>
<text text-anchor="middle" x="394" y="-1171.5" font-family="Helvetica,sans-Serif" font-size="10.00"> </text>
<polyline fill="none" stroke="#bfbfbf" points="342.5,-1164.5 445.5,-1164.5 "/>
<text text-anchor="middle" x="394" y="-1152.5" font-family="Helvetica,sans-Serif" font-size="10.00"> </text>
</a>
</g>
</g>
<!-- Node10&#45;&gt;Node7 -->
<g id="edge9" class="edge">
<title>Node10&#45;&gt;Node7</title>
<path fill="none" stroke="midnightblue" d="M377.95,-1136.23C368.04,-1113.52 354.72,-1083 341.49,-1052.69"/>
<polygon fill="none" stroke="midnightblue" points="374.78,-1137.7 381.98,-1145.47 381.19,-1134.9 374.78,-1137.7"/>
</g>
</g>
</svg>
